<?xml version="1.0" encoding="UTF-8" standalone="no"?>
<!-- Created with Inkscape (http://www.inkscape.org/) -->

<svg
   xmlns:dc="http://purl.org/dc/elements/1.1/"
   xmlns:cc="http://creativecommons.org/ns#"
   xmlns:rdf="http://www.w3.org/1999/02/22-rdf-syntax-ns#"
   xmlns:svg="http://www.w3.org/2000/svg"
   xmlns="http://www.w3.org/2000/svg"
   xmlns:sodipodi="http://sodipodi.sourceforge.net/DTD/sodipodi-0.dtd"
   xmlns:inkscape="http://www.inkscape.org/namespaces/inkscape"
   width="210mm"
   height="297mm"
   viewBox="0 0 210 297"
   version="1.1"
   id="svg8"
   inkscape:version="0.92.2 5c3e80d, 2017-08-06"
   sodipodi:docname="drawing.svg"
   inkscape:export-filename="/home/pablo/Desktop/sc.png"
   inkscape:export-xdpi="95.007263"
   inkscape:export-ydpi="95.007263">
  <defs
     id="defs2">
    <inkscape:path-effect
       effect="bspline"
       id="path-effect12405"
       is_visible="true"
       weight="33.333333"
       steps="2"
       helper_size="0"
       apply_no_weight="true"
       apply_with_weight="true"
       only_selected="false" />
    <inkscape:path-effect
       effect="bspline"
       id="path-effect1495"
       is_visible="true"
       weight="33.333333"
       steps="2"
       helper_size="0"
       apply_no_weight="true"
       apply_with_weight="true"
       only_selected="false" />
    <inkscape:path-effect
       effect="bspline"
       id="path-effect1491"
       is_visible="true"
       weight="33.333333"
       steps="2"
       helper_size="0"
       apply_no_weight="true"
       apply_with_weight="true"
       only_selected="false" />
    <inkscape:path-effect
       effect="bspline"
       id="path-effect1487"
       is_visible="true"
       weight="33.333333"
       steps="2"
       helper_size="0"
       apply_no_weight="true"
       apply_with_weight="true"
       only_selected="false" />
    <inkscape:path-effect
       effect="bspline"
       id="path-effect1483"
       is_visible="true"
       weight="33.333333"
       steps="2"
       helper_size="0"
       apply_no_weight="true"
       apply_with_weight="true"
       only_selected="false" />
    <inkscape:path-effect
       effect="bspline"
       id="path-effect1479"
       is_visible="true"
       weight="33.333333"
       steps="2"
       helper_size="0"
       apply_no_weight="true"
       apply_with_weight="true"
       only_selected="false" />
    <inkscape:path-effect
       effect="bspline"
       id="path-effect1475"
       is_visible="true"
       weight="33.333333"
       steps="2"
       helper_size="0"
       apply_no_weight="true"
       apply_with_weight="true"
       only_selected="false" />
    <inkscape:path-effect
       effect="bspline"
       id="path-effect1471"
       is_visible="true"
       weight="33.333333"
       steps="2"
       helper_size="0"
       apply_no_weight="true"
       apply_with_weight="true"
       only_selected="false" />
    <inkscape:path-effect
       effect="bspline"
       id="path-effect1467"
       is_visible="true"
       weight="33.333333"
       steps="2"
       helper_size="0"
       apply_no_weight="true"
       apply_with_weight="true"
       only_selected="false" />
    <inkscape:path-effect
       effect="bspline"
       id="path-effect1463"
       is_visible="true"
       weight="33.333333"
       steps="2"
       helper_size="0"
       apply_no_weight="true"
       apply_with_weight="true"
       only_selected="false" />
    <inkscape:path-effect
       effect="spiro"
       id="path-effect1455"
       is_visible="true" />
  </defs>
  <sodipodi:namedview
     id="base"
     pagecolor="#ffffff"
     bordercolor="#666666"
     borderopacity="1.0"
     inkscape:pageopacity="0.0"
     inkscape:pageshadow="2"
     inkscape:zoom="0.98994949"
     inkscape:cx="510.03007"
     inkscape:cy="696.74941"
     inkscape:document-units="mm"
     inkscape:current-layer="layer1"
     showgrid="false"
     inkscape:window-width="1366"
     inkscape:window-height="708"
     inkscape:window-x="0"
     inkscape:window-y="31"
     inkscape:window-maximized="1"
     showguides="true"
     inkscape:guide-bbox="true">
    <sodipodi:guide
       position="-42.763125,141.92012"
       orientation="1,0"
       id="guide943"
       inkscape:locked="false" />
  </sodipodi:namedview>
  <metadata
     id="metadata5">
    <rdf:RDF>
      <cc:Work
         rdf:about="">
        <dc:format>image/svg+xml</dc:format>
        <dc:type
           rdf:resource="http://purl.org/dc/dcmitype/StillImage" />
        <dc:title></dc:title>
      </cc:Work>
    </rdf:RDF>
  </metadata>
  <g
     inkscape:groupmode="layer"
     id="layer2"
     inkscape:label="color"
     sodipodi:insensitive="true" />
  <g
     inkscape:label="Layer 1"
     inkscape:groupmode="layer"
     id="layer1"
     style="display:inline">
    <path
       style="fill:none;fill-rule:evenodd;stroke:#000000;stroke-width:0.26458332px;stroke-linecap:butt;stroke-linejoin:miter;stroke-opacity:1"
       d="m 104.6994,72.671122 1e-5,36.795358 c 0,0 0.17454,0.60585 -1e-5,0.81327 -0.21104,0.25079 -0.4527,-0.0317 -0.96885,0.16803 0,0 -1.02134,0.73121 -3.777792,-0.79035 -1.734614,-0.9575 -1.770833,-3.55113 -2.812876,-5.23631 -0.689422,-1.11493 -1.258013,-2.37699 -2.267858,-3.2128 -1.172782,-0.97066 -2.745647,-1.321018 -4.157739,-1.889878 -1.053411,-0.42437 -2.205337,-0.60973 -3.212796,-1.13393 -0.961461,-0.50027 -1.784982,-1.23139 -2.645833,-1.88988 -0.711144,-0.54398 -2.078871,-1.70089 -2.078871,-1.70089 0,0 -1.837785,-1.74838 -2.456844,-2.83482 -0.69037,-1.21159 -1.322917,-3.96875 -1.322917,-3.96875 0,0 -0.565807,-2.50904 -0.755951,-3.77976 -0.187382,-1.25226 -0.160861,-2.53231 -0.377979,-3.77976 -0.08908,-0.51179 -0.158172,-1.04122 -0.377975,-1.51191 -0.362546,-0.77636 -1.022174,-1.37578 -1.511904,-2.07887 -0.519282,-0.74552 -0.876809,-1.61817 -1.511906,-2.26786 -0.537527,-0.54988 -1.300786,-0.82867 -1.889881,-1.32291 -0.341253,-0.2863 -0.944938,-0.94494 -0.944938,-0.94494"
       id="path945"
       inkscape:connector-curvature="0"
       sodipodi:nodetypes="czassaaasscacaaaaaac"
       inkscape:export-xdpi="109.66227"
       inkscape:export-ydpi="109.66227" />
    <path
       style="fill:none;fill-rule:evenodd;stroke:#000000;stroke-width:0.26458332px;stroke-linecap:butt;stroke-linejoin:miter;stroke-opacity:1"
       d="m 104.6994,72.671122 v 0 0 0 c 0,0 -0.76894,-0.35328 -1.18117,-0.42522 -1.64454,-0.287 -3.42343,-0.52481 -5.008185,0 -1.527957,0.506 -2.327325,2.43745 -3.874257,2.88207 -0.759228,0.21822 -1.62231,0.0874 -2.36235,-0.18899 -0.3482,-0.13004 -0.545354,-0.5431 -0.897695,-0.66146 -1.134713,-0.38118 -2.428396,-0.33314 -3.590771,-0.0472 -0.64322,0.15823 -1.748142,0.94494 -1.748142,0.94494 0,0 -4.583719,3.46695 -6.945312,5.10268 -0.355505,0.24624 -1.086681,0.70871 -1.086681,0.70871"
       id="path947"
       inkscape:connector-curvature="0"
       sodipodi:nodetypes="ccccaaaaaacsc"
       inkscape:export-xdpi="109.66227"
       inkscape:export-ydpi="109.66227" />
    <path
       style="fill:none;fill-rule:evenodd;stroke:#000000;stroke-width:0.26458332px;stroke-linecap:butt;stroke-linejoin:miter;stroke-opacity:1"
       d="m 65.295387,75.222462 c 0,0 2.173893,0.91703 3.118304,1.6064 1.115354,0.81415 2.196965,1.75862 2.929316,2.92931 0.972046,1.55386 1.795386,5.19718 1.795386,5.19718 l 2.456846,7.843 2.551338,4.8192 3.779763,5.858628 1.228421,4.25223 0.188989,3.87426 -0.850447,2.17336 c 0,0 -0.398133,1.0579 -0.850445,1.32292 -0.898479,0.52643 -2.205904,-0.31292 -3.118305,0.18899 -0.612771,0.33709 -0.626052,1.34555 -1.228421,1.70089 -0.901822,0.53199 -2.176873,-0.0803 -3.118305,0.37797 -1.682177,0.81884 -2.251656,2.68898 -3.96875,3.96875 -0.338831,0.25253 0.212399,0.904 0.566965,1.13393 0.608412,0.39454 1.551115,-0.27783 2.173364,0.0945 1.005891,0.60189 0.897585,2.27012 1.795386,3.02381 0.95436,0.80117 2.677298,0.38379 3.496281,1.32291 1.01947,1.16901 -0.08476,3.46703 1.039434,4.53572 0.394087,0.37463 1.109642,0.50458 1.606399,0.28348 0.814427,-0.36249 0.687571,-1.75597 1.41741,-2.26786 0.369222,-0.25896 1.322917,-0.28348 1.322917,-0.28348 0,0 5.335552,0.85703 5.953125,0.18899 2.213318,-2.39417 3.088779,-1.43771 4.346725,-2.55134 2.136811,-1.89166 5.197174,-6.80357 5.197174,-6.80357 0,0 0.420331,-0.63615 0.755951,-0.75595 0.596252,-0.21284 1.297012,-0.0331 1.889882,0.18899 1.12125,0.42003 2.92931,2.07886 2.92931,2.07886 v 24.75744 11.71725 c 0,0 -2.44815,1.15316 -3.68526,1.70091 -1.032432,0.45712 -2.025982,1.03707 -3.118307,1.32291 -1.379677,0.36104 -2.826345,0.49899 -4.252232,0.47247 -1.496477,-0.0278 -2.980793,-0.33378 -4.441219,-0.66146 -1.380631,-0.30978 -2.733702,-0.74424 -4.063243,-1.22841 -1.577807,-0.57458 -3.187358,-1.12542 -4.630211,-1.98437 -4.450958,-2.64972 -12.189731,-9.6384 -12.189731,-9.6384"
       id="path949"
       inkscape:connector-curvature="0"
       sodipodi:nodetypes="caacccccccaaaasaaaaaaacsacaacccaaaaaac"
       inkscape:export-xdpi="109.66227"
       inkscape:export-ydpi="109.66227" />
    <path
       style="fill:none;fill-rule:evenodd;stroke:#000000;stroke-width:0.26458332px;stroke-linecap:butt;stroke-linejoin:miter;stroke-opacity:1"
       d="m 104.6994,113.67226 c 0,0 -1.62906,0.20047 -1.36179,0.46774 -0.38383,0.72454 0,1.33636 0,1.33636 0.53454,0.58521 1.3618,0.4677 1.3618,0.4677"
       id="path951"
       inkscape:connector-curvature="0"
       sodipodi:nodetypes="cccc"
       inkscape:export-xdpi="109.66227"
       inkscape:export-ydpi="109.66227" />
    <path
       style="fill:none;fill-rule:evenodd;stroke:#000000;stroke-width:0.26458332px;stroke-linecap:butt;stroke-linejoin:miter;stroke-opacity:1"
       d="m 64.1158,76.722252 c 0,0 3.379674,1.38048 4.677216,2.60588 0.997266,0.94182 1.822283,2.15726 2.204974,3.4745 0.173987,0.59887 0.22608,1.28968 0,1.87089 -0.13144,0.33791 -0.427917,0.60903 -0.734991,0.80181 -2.029018,1.27379 -4.697455,1.0883 -6.88219,2.07134 -1.623359,0.73045 -3.09461,1.77225 -4.543582,2.80633 -1.945233,1.38825 -3.941131,2.77269 -5.545842,4.54358 -0.916691,1.01162 -1.645308,2.19474 -2.271792,3.40768 -0.886454,1.716268 -1.706613,3.515278 -2.071338,5.412208 -0.5846,3.0405 -0.133635,9.28762 -0.133635,9.28762 0,0 0.295535,4.41571 0.534539,6.61492 0.325865,2.99847 0.633781,6.0075 1.225641,8.96499 0.284082,1.41954 0.369019,2.95612 1.112967,4.19803 2.785765,4.65041 11.893494,11.09169 11.893494,11.09169 0,0 2.847455,-2.39591 3.407687,-4.07586 0.402176,-1.206 0.614909,-2.83322 -0.200453,-3.80859 -1.866032,-2.23223 -6.280833,-6.28084 -6.280833,-6.28084 0,0 -3.296346,-3.13171 -4.744034,-4.87767 -2.520291,-3.03955 -6.815373,-9.68852 -6.815373,-9.68852"
       id="path953"
       inkscape:connector-curvature="0"
       sodipodi:nodetypes="caaaaaaaaacaaacascac"
       inkscape:export-xdpi="109.66227"
       inkscape:export-ydpi="109.66227" />
    <path
       style="fill:none;fill-rule:evenodd;stroke:#000000;stroke-width:0.26458332px;stroke-linecap:butt;stroke-linejoin:miter;stroke-opacity:1"
       d="m 73.610865,146.18749 c 0,0 -2.20787,-0.56447 -3.212799,-0.18899 -1.815263,0.67825 -3.261134,2.34532 -4.157738,4.06325 -0.354592,0.67941 -0.377976,2.26786 -0.377976,2.26786"
       id="path955"
       inkscape:connector-curvature="0"
       sodipodi:nodetypes="caac"
       inkscape:export-xdpi="109.66227"
       inkscape:export-ydpi="109.66227" />
    <path
       style="fill:none;fill-rule:evenodd;stroke:#000000;stroke-width:0.26458332px;stroke-linecap:butt;stroke-linejoin:miter;stroke-opacity:1"
       d="m 64.114212,150.15624 c 0,0 0.824863,-1.80966 1.417411,-2.59859 1.839178,-2.44872 4.161067,-4.73906 6.520089,-6.47284 0.812176,-0.59692 2.070429,-0.32711 3.023809,0 1.868316,0.64103 4.677455,3.63802 4.677455,3.63802 0,0 2.573676,2.34444 4.015997,3.30729 0.949257,0.6337 1.954869,1.20637 3.023811,1.6064 1.044752,0.39098 2.151091,0.63513 3.260043,0.75595 2.896596,0.31559 5.89089,0.5125 8.7407,-0.0945 1.007251,-0.21454 1.983203,-0.64935 2.834823,-1.22842 1.19717,-0.81403 3.07105,-3.07106 3.07105,-3.07106"
       id="path957"
       inkscape:connector-curvature="0"
       sodipodi:nodetypes="casacaaaaac"
       inkscape:export-xdpi="109.66227"
       inkscape:export-ydpi="109.66227" />
    <path
       sodipodi:nodetypes="czassaaasscacaaaaaac"
       inkscape:connector-curvature="0"
       id="path990"
       d="m 104.6994,72.671122 v 36.795358 c 0,0 -0.17454,0.60585 0,0.81327 0.21104,0.25079 0.4527,-0.0317 0.96885,0.16803 0,0 1.02134,0.73121 3.7778,-0.79035 1.73461,-0.9575 1.77083,-3.55113 2.81287,-5.23631 0.68942,-1.11493 1.25801,-2.37699 2.26786,-3.2128 1.17278,-0.97066 2.74565,-1.321018 4.15774,-1.889878 1.05341,-0.42437 2.20534,-0.60973 3.21279,-1.13393 0.96147,-0.50027 1.78499,-1.23139 2.64584,-1.88988 0.71114,-0.54398 2.07887,-1.70089 2.07887,-1.70089 0,0 1.83778,-1.74838 2.45684,-2.83482 0.69038,-1.21159 1.32292,-3.96875 1.32292,-3.96875 0,0 0.56581,-2.50904 0.75596,-3.77976 0.18738,-1.25226 0.16086,-2.53231 0.37797,-3.77976 0.0891,-0.51179 0.15818,-1.04122 0.37798,-1.51191 0.36255,-0.77636 1.02217,-1.37578 1.5119,-2.07887 0.51929,-0.74552 0.87681,-1.61817 1.51191,-2.26786 0.53753,-0.54988 1.30079,-0.82867 1.88988,-1.32291 0.34126,-0.2863 0.94494,-0.94494 0.94494,-0.94494"
       style="fill:none;fill-rule:evenodd;stroke:#000000;stroke-width:0.26458332px;stroke-linecap:butt;stroke-linejoin:miter;stroke-opacity:1"
       inkscape:export-xdpi="109.66227"
       inkscape:export-ydpi="109.66227" />
    <path
       sodipodi:nodetypes="ccccaaaaaacsc"
       inkscape:connector-curvature="0"
       id="path992"
       d="m 104.6994,72.671122 v 0 0 0 c 0,0 0.76894,-0.35328 1.18117,-0.42522 1.64454,-0.287 3.42343,-0.52481 5.00819,0 1.52796,0.506 2.32732,2.43745 3.87426,2.88207 0.75922,0.21822 1.62231,0.0874 2.36235,-0.18899 0.3482,-0.13004 0.54535,-0.5431 0.89769,-0.66146 1.13471,-0.38118 2.4284,-0.33314 3.59077,-0.0472 0.64322,0.15823 1.74814,0.94494 1.74814,0.94494 0,0 4.58372,3.46695 6.94532,5.10268 0.35551,0.24624 1.08668,0.70871 1.08668,0.70871"
       style="fill:none;fill-rule:evenodd;stroke:#000000;stroke-width:0.26458332px;stroke-linecap:butt;stroke-linejoin:miter;stroke-opacity:1"
       inkscape:export-xdpi="109.66227"
       inkscape:export-ydpi="109.66227" />
    <path
       sodipodi:nodetypes="caacccccccaaaasaaaaaaacsacaacccaaaaaac"
       inkscape:connector-curvature="0"
       id="path994"
       d="m 144.10343,75.222462 c 0,0 -2.1739,0.91703 -3.11831,1.6064 -1.11535,0.81415 -2.19696,1.75862 -2.92931,2.92931 -0.97205,1.55386 -1.79539,5.19718 -1.79539,5.19718 l -2.45685,7.843 -2.55134,4.8192 -3.77977,5.858628 -1.22842,4.25223 -0.18899,3.87426 0.85045,2.17336 c 0,0 0.39813,1.0579 0.85045,1.32292 0.89847,0.52643 2.2059,-0.31292 3.11831,0.18899 0.61277,0.33709 0.62605,1.34555 1.22842,1.70089 0.90182,0.53199 2.17687,-0.0803 3.1183,0.37797 1.68218,0.81884 2.25166,2.68898 3.96876,3.96875 0.33883,0.25253 -0.2124,0.904 -0.56697,1.13393 -0.60841,0.39454 -1.55111,-0.27783 -2.17336,0.0945 -1.0059,0.60189 -0.89759,2.27012 -1.79539,3.02381 -0.95436,0.80117 -2.6773,0.38379 -3.49628,1.32291 -1.01947,1.16901 0.0848,3.46703 -1.03944,4.53572 -0.39409,0.37463 -1.10965,0.50458 -1.6064,0.28348 -0.81443,-0.36249 -0.68757,-1.75597 -1.41741,-2.26786 -0.36922,-0.25896 -1.32292,-0.28348 -1.32292,-0.28348 0,0 -5.33555,0.85703 -5.95312,0.18899 -2.21332,-2.39417 -3.08878,-1.43771 -4.34673,-2.55134 -2.13681,-1.89166 -5.19717,-6.80357 -5.19717,-6.80357 0,0 -0.42034,-0.63615 -0.75595,-0.75595 -0.59626,-0.21284 -1.29702,-0.0331 -1.88989,0.18899 -1.12124,0.42003 -2.92931,2.07886 -2.92931,2.07886 v 24.75744 11.71725 c 0,0 2.44815,1.15316 3.68527,1.70091 1.03243,0.45712 2.02598,1.03707 3.1183,1.32291 1.37968,0.36104 2.82635,0.49899 4.25223,0.47247 1.49648,-0.0278 2.9808,-0.33378 4.44122,-0.66146 1.38063,-0.30978 2.7337,-0.74424 4.06324,-1.22841 1.57781,-0.57458 3.18736,-1.12542 4.63022,-1.98437 4.45096,-2.64972 12.18974,-9.6384 12.18974,-9.6384"
       style="fill:none;fill-rule:evenodd;stroke:#000000;stroke-width:0.26458332px;stroke-linecap:butt;stroke-linejoin:miter;stroke-opacity:1"
       inkscape:export-xdpi="109.66227"
       inkscape:export-ydpi="109.66227" />
    <path
       sodipodi:nodetypes="cccc"
       inkscape:connector-curvature="0"
       id="path996"
       d="m 104.6994,113.67226 c 0,0 1.62907,0.20047 1.3618,0.46774 0.38382,0.72454 0,1.33636 0,1.33636 -0.53454,0.58521 -1.3618,0.4677 -1.3618,0.4677"
       style="fill:none;fill-rule:evenodd;stroke:#000000;stroke-width:0.26458332px;stroke-linecap:butt;stroke-linejoin:miter;stroke-opacity:1"
       inkscape:export-xdpi="109.66227"
       inkscape:export-ydpi="109.66227" />
    <path
       sodipodi:nodetypes="caaaaaaaaacaaacascac"
       inkscape:connector-curvature="0"
       id="path998"
       d="m 145.28301,76.722252 c 0,0 -3.37967,1.38048 -4.67721,2.60588 -0.99727,0.94182 -1.82229,2.15726 -2.20498,3.4745 -0.17398,0.59887 -0.22608,1.28968 0,1.87089 0.13144,0.33791 0.42792,0.60903 0.73499,0.80181 2.02902,1.27379 4.69746,1.0883 6.88219,2.07134 1.62336,0.73045 3.09461,1.77225 4.54359,2.80633 1.94523,1.38825 3.94113,2.77269 5.54584,4.54358 0.91669,1.01162 1.64531,2.19474 2.27179,3.40768 0.88645,1.716268 1.70661,3.515278 2.07134,5.412208 0.5846,3.0405 0.13363,9.28762 0.13363,9.28762 0,0 -0.29553,4.41571 -0.53454,6.61492 -0.32586,2.99847 -0.63378,6.0075 -1.22564,8.96499 -0.28408,1.41954 -0.36902,2.95612 -1.11296,4.19803 -2.78577,4.65041 -11.8935,11.09169 -11.8935,11.09169 0,0 -2.84745,-2.39591 -3.40769,-4.07586 -0.40217,-1.206 -0.6149,-2.83322 0.20046,-3.80859 1.86603,-2.23223 6.28083,-6.28084 6.28083,-6.28084 0,0 3.29635,-3.13171 4.74403,-4.87767 2.5203,-3.03955 6.81538,-9.68852 6.81538,-9.68852"
       style="fill:none;fill-rule:evenodd;stroke:#000000;stroke-width:0.26458332px;stroke-linecap:butt;stroke-linejoin:miter;stroke-opacity:1"
       inkscape:export-xdpi="109.66227"
       inkscape:export-ydpi="109.66227" />
    <path
       sodipodi:nodetypes="caac"
       inkscape:connector-curvature="0"
       id="path1000"
       d="m 135.78794,146.18749 c 0,0 2.20788,-0.56447 3.21281,-0.18899 1.81526,0.67825 3.26113,2.34532 4.15773,4.06325 0.3546,0.67941 0.37798,2.26786 0.37798,2.26786"
       style="fill:none;fill-rule:evenodd;stroke:#000000;stroke-width:0.26458332px;stroke-linecap:butt;stroke-linejoin:miter;stroke-opacity:1"
       inkscape:export-xdpi="109.66227"
       inkscape:export-ydpi="109.66227" />
    <path
       sodipodi:nodetypes="casacaaaaac"
       inkscape:connector-curvature="0"
       id="path1002"
       d="m 145.2846,150.15624 c 0,0 -0.82486,-1.80966 -1.41741,-2.59859 -1.83918,-2.44872 -4.16107,-4.73906 -6.52009,-6.47284 -0.81218,-0.59692 -2.07043,-0.32711 -3.02381,0 -1.86832,0.64103 -4.67746,3.63802 -4.67746,3.63802 0,0 -2.57368,2.34444 -4.016,3.30729 -0.94926,0.6337 -1.95487,1.20637 -3.02381,1.6064 -1.04475,0.39098 -2.15109,0.63513 -3.26004,0.75595 -2.8966,0.31559 -5.89089,0.5125 -8.7407,-0.0945 -1.00725,-0.21454 -1.9832,-0.64935 -2.83482,-1.22842 -1.19717,-0.81403 -3.07106,-3.07106 -3.07106,-3.07106"
       style="fill:none;fill-rule:evenodd;stroke:#000000;stroke-width:0.26458332px;stroke-linecap:butt;stroke-linejoin:miter;stroke-opacity:1"
       inkscape:export-xdpi="109.66227"
       inkscape:export-ydpi="109.66227" />
    <path
       style="fill:none;fill-rule:evenodd;stroke:#000000;stroke-width:0.26458332px;stroke-linecap:butt;stroke-linejoin:miter;stroke-opacity:1"
       d="m 61.421131,145.90401 2.16013,-2.03029"
       id="path6782"
       inkscape:connector-curvature="0"
       inkscape:export-xdpi="109.66227"
       inkscape:export-ydpi="109.66227" />
    <path
       style="fill:none;fill-rule:evenodd;stroke:#000000;stroke-width:0.26458332px;stroke-linecap:butt;stroke-linejoin:miter;stroke-opacity:1"
       d="m 147.97769,145.43154 -2.16014,-1.55782"
       id="path6784"
       inkscape:connector-curvature="0"
       inkscape:export-xdpi="109.66227"
       inkscape:export-ydpi="109.66227" />
    <path
       style="opacity:1;fill:#ffaaaa;fill-opacity:1;fill-rule:evenodd;stroke:#e6e6e6;stroke-width:1.52715969;stroke-linecap:square;stroke-miterlimit:4;stroke-dasharray:none;stroke-dashoffset:0;stroke-opacity:1;paint-order:markers fill stroke"
       d="m 302.46007,497.38316 c -1.57075,-0.31756 -3.2349,-2.12256 -3.78602,-4.10648 -0.27582,-0.9929 -0.50775,-3.73719 -0.5154,-6.09842 -0.0167,-5.15229 -1.11691,-8.09748 -3.48178,-9.32039 -0.85201,-0.4406 -3.31318,-1.16083 -5.46926,-1.60051 -5.86511,-1.19607 -6.79464,-1.94517 -8.99212,-7.24678 -2.58686,-6.24099 -3.35379,-6.86841 -8.19098,-6.70103 -3.35021,0.11593 -3.97868,-0.006 -5.00678,-0.97193 -1.49159,-1.40126 -1.48284,-2.1262 0.0377,-3.12247 0.66733,-0.43725 2.63648,-2.56577 4.37589,-4.73004 7.09407,-8.82688 8.46839,-9.74341 14.60993,-9.74341 5.51519,0 7.09382,-0.72855 8.90995,-4.11196 1.88482,-3.51139 3.08493,-4.07031 7.55663,-3.51929 4.10132,0.50538 6.47101,-0.0879 7.86639,-1.96928 0.51673,-0.69673 1.94547,-3.701 3.17497,-6.67617 l 2.23546,-5.40939 -0.41092,-7.71851 c -0.37696,-7.08066 -0.60656,-8.38053 -2.77841,-15.72951 l -2.36749,-8.011 -6.89973,-10.67682 c -3.79485,-5.87226 -9.14241,-14.88158 -11.88345,-20.02073 -4.82621,-9.0486 -5.13245,-9.82281 -9.68972,-24.4962 -2.5883,-8.33376 -5.5273,-17.99335 -6.53111,-21.46575 -2.15069,-7.43971 -4.97565,-13.43178 -7.95439,-16.87219 -3.23006,-3.7307 -8.95267,-8.04647 -14.0588,-10.60261 l -4.5648,-2.28514 10.96848,-5.33254 10.96849,-5.33254 2.04906,1.96587 c 1.12699,1.08123 3.29913,2.75925 4.82699,3.72893 3.39117,2.15227 4.34301,3.18666 7.0786,7.69251 1.17518,1.93566 3.14511,4.75733 4.37762,6.27036 3.92647,4.82016 4.24903,5.87617 5.43895,17.80666 0.78241,7.84464 2.26238,16.12169 4.33322,24.23449 3.19128,12.50223 6.51726,17.15361 20.06433,28.05995 8.69659,7.00136 11.7586,8.8991 17.04359,10.56314 6.11809,1.92634 16.20861,5.63722 18.48134,6.79668 5.80894,2.9635 11.79495,11.7073 15.88049,23.19671 2.91318,8.19251 4.58366,10.2579 10.36417,12.81432 4.07346,1.80148 8.09797,2.52685 10.42863,1.87964 2.45184,-0.68086 6.93207,-0.68362 9.37289,-0.006 3.79982,1.05525 12.28688,-1.72959 15.95013,-5.23368 2.10142,-2.01012 3.00313,-3.76497 5.37029,-10.45135 2.30429,-6.50879 7.20551,-15.03538 10.62381,-18.48213 3.12963,-3.15567 6.36075,-4.71745 18.03741,-8.71853 12.40675,-4.25124 12.06704,-4.06146 22.93218,-12.81166 9.37733,-7.55201 14.33934,-13.15745 16.78248,-18.95875 2.73557,-6.49567 6.23741,-23.06539 7.16591,-33.90707 0.88615,-10.34729 1.37804,-11.77675 6.2006,-18.01928 1.05892,-1.37071 3.10448,-4.31048 4.54569,-6.53281 2.08141,-3.20953 3.27885,-4.47002 5.82179,-6.12833 1.76079,-1.14824 4.06746,-2.93337 5.12594,-3.96695 l 1.92451,-1.87924 11.02968,5.37827 11.02968,5.37828 -4.68098,2.37675 c -9.32912,4.73682 -15.88131,11.15521 -19.00472,18.61663 -0.96078,2.29518 -2.66333,7.44474 -3.78344,11.44346 -1.12011,3.99872 -3.87711,13.15651 -6.12666,20.35064 -3.80587,12.17128 -4.43278,13.72957 -9.02139,22.42416 -2.71222,5.13915 -8.08656,14.23052 -11.94299,20.20305 l -7.01169,10.85914 -2.42272,8.08122 c -2.30372,7.6843 -2.43821,8.46574 -2.7381,15.9099 l -0.31537,7.82869 2.0861,5.3033 c 1.14735,2.91681 2.60347,5.94629 3.23581,6.73217 1.41012,1.7525 3.65543,2.26911 7.69036,1.76946 4.48683,-0.55563 5.88943,0.0657 7.548,3.34383 1.82617,3.60936 3.34281,4.31698 9.25261,4.31698 4.18298,0 4.67013,0.10886 6.53622,1.46065 1.10901,0.80336 3.13184,2.77325 4.4952,4.37754 1.36335,1.6043 3.92011,4.45278 5.68167,6.32997 2.37784,2.53392 3.12375,3.66225 2.89582,4.38042 -0.52017,1.63891 -2.46554,2.31947 -5.58286,1.95309 -4.91267,-0.57739 -5.41909,-0.0706 -9.62414,9.63161 -0.98223,2.26625 -2.70854,3.22561 -7.73883,4.30068 -7.59473,1.62313 -8.72826,3.06294 -9.15362,11.62694 -0.31771,6.39665 -0.79331,8.03944 -2.60877,9.01104 -1.3676,0.73192 -4.30446,0.72966 -5.18846,-0.004 -0.3785,-0.31414 -1.18773,-1.90691 -1.79828,-3.53951 -1.69901,-4.54309 -2.81156,-5.33424 -7.50121,-5.33424 -2.13103,0 -6.89423,0.31224 -10.5849,0.69387 -9.88602,1.02226 -11.02395,0.82158 -14.71418,-2.59492 -2.03266,-1.88189 -4.00283,-3.16299 -5.95843,-3.87446 -1.60691,-0.58461 -3.8723,-1.41233 -5.0342,-1.83937 -3.66654,-1.34758 -10.14636,-8.9139 -19.33448,-22.57636 -2.57353,-3.82675 -5.1397,-7.20421 -5.7026,-7.50547 -1.65473,-0.88559 -6.4915,-0.27112 -9.51128,1.20833 -1.50427,0.73698 -4.19867,2.52046 -5.98755,3.96328 -3.68072,2.9687 -3.10532,3.02959 -8.19776,-0.86747 -4.07996,-3.12224 -6.81298,-4.33812 -10.39796,-4.62589 -3.95163,-0.3172 -4.35871,0.008 -9.35028,7.46135 -5.97365,8.92022 -11.69931,16.27516 -15.3531,19.72196 -2.94741,2.78044 -3.98263,3.42351 -6.74917,4.19254 -3.87392,1.07685 -5.94423,2.27561 -9.26352,5.36382 l -2.46021,2.28894 h -4.86339 c -2.67487,0 -7.90363,-0.32402 -11.61949,-0.72004 -9.4092,-1.00281 -10.20123,-0.71281 -12.94188,4.73869 -2.07261,4.12269 -3.07513,4.91999 -5.55584,4.41849 z m 97.73226,-59.66556 c 1.63753,-1.16408 2.24847,-2.95539 1.80827,-5.3019 -0.28473,-1.51768 -0.68693,-2.02211 -2.07467,-2.60194 -2.06395,-0.86238 -5.8971,-0.88986 -8.28705,-0.0594 -1.26076,0.43808 -1.85061,1.01695 -2.15824,2.11806 -0.57084,2.04324 -0.0882,4.46671 1.10443,5.54606 2.08405,1.88604 7.15293,2.04386 9.60726,0.29914 z"
       id="path120"
       inkscape:connector-curvature="0"
       inkscape:export-xdpi="109.66227"
       inkscape:export-ydpi="109.66227"
       transform="scale(0.26458333)" />
    <path
       style="opacity:1;fill:#e6e6e6;fill-opacity:1;fill-rule:evenodd;stroke:#e6e6e6;stroke-width:2.15972996;stroke-linecap:square;stroke-miterlimit:4;stroke-dasharray:none;stroke-dashoffset:0;stroke-opacity:1;paint-order:markers fill stroke"
       d="m 300.47301,494.81185 c -0.63381,-0.90488 -1.12531,-3.13164 -1.14304,-5.17857 -0.0508,-5.86888 -1.09566,-9.83378 -3.02978,-11.49744 -0.97154,-0.83569 -3.96879,-2.07264 -6.66055,-2.74879 -2.69176,-0.67615 -5.33594,-1.59605 -5.87596,-2.04422 -0.54002,-0.44818 -1.76794,-2.59235 -2.72871,-4.76482 -2.70535,-6.1173 -4.02108,-7.17865 -8.89911,-7.17865 -2.26547,0 -4.3189,-0.32337 -4.56317,-0.7186 -0.49658,-0.80348 9.65581,-13.1005 12.04468,-14.58903 0.84118,-0.52415 3.85404,-1.13233 6.69524,-1.35149 6.16634,-0.47566 6.60352,-0.68849 9.43006,-4.59088 l 2.1988,-3.03571 h 4.67384 c 6.92999,0 8.19827,-0.93049 11.38766,-8.35466 l 2.69671,-6.27734 -0.40567,-7.68974 c -0.28755,-5.45087 -1.069,-10.08468 -2.68398,-15.9155 -1.97757,-7.13991 -2.97436,-9.31439 -7.55126,-16.47285 -16.03431,-25.07831 -17.84293,-29.09195 -27.78687,-61.66367 -4.6838,-15.34194 -7.71129,-21.79473 -12.34755,-26.3176 -3.39678,-3.3137 -10.58491,-8.33043 -13.06311,-9.11697 -0.74652,-0.23694 -1.35731,-0.67008 -1.35731,-0.96254 0,-0.29246 4.16264,-2.56125 9.25031,-5.04177 l 9.25031,-4.51003 5.34402,4.02202 c 4.31272,3.24586 6.40755,5.57075 10.85518,12.04736 l 5.51118,8.02534 0.96966,7.14969 c 2.94166,21.68977 5.23458,32.22736 8.57455,39.40614 2.29021,4.92246 11.74026,14.7565 20.60194,21.43905 6.8129,5.1376 9.4799,6.5365 17.5,9.17917 10.06538,3.31659 15.94255,5.99578 18.44501,8.40839 3.56819,3.44007 8.22387,11.43267 11.30472,19.40726 4.98074,12.89232 9.51652,15.52908 26.67884,15.50908 11.15361,-0.013 14.44572,-0.71024 19.33827,-4.09565 2.9246,-2.02368 4.76068,-5.01525 7.418,-12.08635 3.91041,-10.40553 10.02323,-19.0759 15.35448,-21.77863 1.39266,-0.70603 6.87139,-2.80485 12.17496,-4.66407 11.53912,-4.04513 13.65241,-5.20139 22.68268,-12.4106 8.31748,-6.64016 14.59949,-13.27648 16.88041,-17.83248 3.53001,-7.051 6.15223,-18.06176 8.26432,-34.70208 0.77058,-6.07112 1.86908,-12.10356 2.44111,-13.4054 2.97472,-6.76996 15.15223,-20.69278 20.25344,-23.15619 0.89528,-0.43234 19.47804,8.14442 19.47804,8.98996 0,0.25477 -1.20535,1.03622 -2.67857,1.73655 -4.46658,2.12334 -11.17888,7.25006 -14.00016,10.69305 -3.91127,4.77319 -5.64518,9.09095 -11.91949,29.68171 -3.11463,10.2215 -6.47976,20.60065 -7.47806,23.0648 -2.43337,6.00638 -9.12421,17.93202 -17.16907,30.60182 -5.741,9.04149 -6.90838,11.43181 -8.89534,18.21428 -1.81004,6.17852 -2.36593,9.60669 -2.66493,16.43462 l -0.37781,8.62759 2.87129,6.12719 c 1.57921,3.36995 3.52793,6.47861 4.33048,6.90812 0.80255,0.42951 3.71486,0.78093 6.47182,0.78093 h 5.01264 l 2.15236,3.12834 c 2.56954,3.73471 3.17826,4.01239 9.94747,4.5379 5.16894,0.40128 5.29794,0.46037 8.83939,4.04906 1.97664,2.00301 5.05997,5.35373 6.85185,7.44603 3.77151,4.40383 3.44414,5.09575 -2.41936,5.11345 -4.33071,0.0131 -5.61666,1.13107 -8.6392,7.51093 -1.97461,4.16792 -2.14807,4.3215 -6.31143,5.58763 -10.07393,3.06361 -10.90524,4.00474 -11.78065,13.33694 -0.66993,7.14178 -1.37191,8.57646 -4.19497,8.5734 -1.55871,-0.001 -2.24004,-0.69713 -4.01969,-4.1029 -1.45713,-2.78858 -2.75434,-4.31175 -4.05372,-4.75992 -1.17285,-0.40452 -5.86272,-0.39433 -12.14286,0.0264 -5.62759,0.37701 -11.05769,0.46974 -12.06687,0.20607 -1.00919,-0.26366 -3.48086,-1.72388 -5.49261,-3.24493 -2.01174,-1.52105 -5.36461,-3.36003 -7.45083,-4.08661 -5.01937,-1.74814 -10.45409,-7.32022 -18.91521,-19.39322 -3.57924,-5.10715 -7.20682,-9.9172 -8.06129,-10.68902 -3.10273,-2.80257 -10.18592,-1.11255 -16.59615,3.95978 -1.45018,1.14751 -2.97622,2.08638 -3.39121,2.08638 -0.41497,0 -2.28204,-1.08296 -4.14902,-2.40657 -4.60164,-3.26238 -6.47603,-4.18192 -9.75506,-4.78565 -4.8767,-0.89789 -6.07204,0.0487 -13.85529,10.97205 -11.49567,16.1335 -12.87248,17.45193 -22.43128,21.48011 -1.45592,0.61354 -3.95277,2.29509 -5.54855,3.73678 l -2.90141,2.62126 -12.41789,-0.51406 c -8.77607,-0.3633 -12.86057,-0.27714 -13.92732,0.29377 -0.83019,0.4443 -2.49919,2.56157 -3.7089,4.70506 -2.4629,4.36404 -4.6868,5.13467 -6.66545,2.30974 z m 100.71826,-57.0257 c 1.24811,-1.17255 1.74124,-2.39822 1.74124,-4.32794 0,-3.59623 -1.9176,-4.91599 -7.14286,-4.91599 -5.40494,0 -7.14286,1.28636 -7.14286,5.28694 0,4.4986 2.36949,6.29297 7.72305,5.84852 1.96332,-0.163 3.71156,-0.84886 4.82143,-1.89153 z"
       id="path122"
       inkscape:connector-curvature="0"
       inkscape:export-xdpi="109.66227"
       inkscape:export-ydpi="109.66227"
       transform="scale(0.26458333)" />
    <path
       style="fill:none;fill-rule:evenodd;stroke:#000000;stroke-width:0.26458332px;stroke-linecap:butt;stroke-linejoin:miter;stroke-opacity:1"
       d="m 134.18155,83.632438 46.86904,0.18899"
       id="path124"
       inkscape:connector-curvature="0"
       inkscape:export-xdpi="109.66227"
       inkscape:export-ydpi="109.66227" />
    <path
       style="fill:none;fill-rule:evenodd;stroke:#000000;stroke-width:0.26458332px;stroke-linecap:butt;stroke-linejoin:miter;stroke-opacity:1"
       d="m 123.97619,121.24107 56.69643,-0.37798"
       id="path126"
       inkscape:connector-curvature="0"
       inkscape:export-xdpi="109.66227"
       inkscape:export-ydpi="109.66227" />
    <text
       xml:space="preserve"
       style="font-style:normal;font-weight:normal;font-size:10.58333302px;line-height:1.25;font-family:sans-serif;letter-spacing:0px;word-spacing:0px;fill:#000000;fill-opacity:1;stroke:none;stroke-width:0.26458332px;stroke-linecap:butt;stroke-linejoin:miter;stroke-opacity:1"
       x="181.0506"
       y="83.821426"
       id="text130"
       inkscape:export-xdpi="109.66227"
       inkscape:export-ydpi="109.66227"><tspan
         sodipodi:role="line"
         x="181.0506"
         y="83.821426"
         style="font-size:6.3499999px;line-height:2;stroke-width:0.26458332px"
         id="tspan132">Corno Dorsal</tspan></text>
    <text
       xml:space="preserve"
       style="font-style:normal;font-weight:normal;font-size:10.58333302px;line-height:1.25;font-family:sans-serif;letter-spacing:0px;word-spacing:0px;fill:#000000;fill-opacity:1;stroke:none;stroke-width:0.26458332px;stroke-linecap:butt;stroke-linejoin:miter;stroke-opacity:1"
       x="180.67262"
       y="120.86309"
       id="text138"
       inkscape:export-xdpi="109.66227"
       inkscape:export-ydpi="109.66227"><tspan
         sodipodi:role="line"
         id="tspan136"
         x="180.67262"
         y="120.86309"
         style="stroke-width:0.26458332px;font-size:6.35px">Corno Ventral</tspan></text>
  </g>
</svg>
