<?xml version="1.0" encoding="utf-8" standalone="no"?>
<!DOCTYPE svg PUBLIC "-//W3C//DTD SVG 1.1//EN"
  "http://www.w3.org/Graphics/SVG/1.1/DTD/svg11.dtd">
<!-- Created with matplotlib (https://matplotlib.org/) -->
<svg height="345.6pt" version="1.1" viewBox="0 0 460.8 345.6" width="460.8pt" xmlns="http://www.w3.org/2000/svg" xmlns:xlink="http://www.w3.org/1999/xlink">
 <defs>
  <style type="text/css">
*{stroke-linecap:butt;stroke-linejoin:round;}
  </style>
 </defs>
 <g id="figure_1">
  <g id="patch_1">
   <path d="M 0 345.6 
L 460.8 345.6 
L 460.8 0 
L 0 0 
z
" style="fill:#ffffff;"/>
  </g>
  <g id="axes_1">
   <g id="patch_2">
    <path d="M 57.6 307.584 
L 414.72 307.584 
L 414.72 41.472 
L 57.6 41.472 
z
" style="fill:#ffffff;"/>
   </g>
   <g id="matplotlib.axis_1">
    <g id="xtick_1">
     <g id="line2d_1">
      <defs>
       <path d="M 0 0 
L 0 3.5 
" id="m7e411a2345" style="stroke:#000000;stroke-width:0.8;"/>
      </defs>
      <g>
       <use style="stroke:#000000;stroke-width:0.8;" x="64.927096" xlink:href="#m7e411a2345" y="307.584"/>
      </g>
     </g>
     <g id="text_1">
      <!-- 0 -->
      <defs>
       <path d="M 31.78125 66.40625 
Q 24.171875 66.40625 20.328125 58.90625 
Q 16.5 51.421875 16.5 36.375 
Q 16.5 21.390625 20.328125 13.890625 
Q 24.171875 6.390625 31.78125 6.390625 
Q 39.453125 6.390625 43.28125 13.890625 
Q 47.125 21.390625 47.125 36.375 
Q 47.125 51.421875 43.28125 58.90625 
Q 39.453125 66.40625 31.78125 66.40625 
z
M 31.78125 74.21875 
Q 44.046875 74.21875 50.515625 64.515625 
Q 56.984375 54.828125 56.984375 36.375 
Q 56.984375 17.96875 50.515625 8.265625 
Q 44.046875 -1.421875 31.78125 -1.421875 
Q 19.53125 -1.421875 13.0625 8.265625 
Q 6.59375 17.96875 6.59375 36.375 
Q 6.59375 54.828125 13.0625 64.515625 
Q 19.53125 74.21875 31.78125 74.21875 
z
" id="DejaVuSans-48"/>
      </defs>
      <g transform="translate(61.745846 322.182437)scale(0.1 -0.1)">
       <use xlink:href="#DejaVuSans-48"/>
      </g>
     </g>
    </g>
    <g id="xtick_2">
     <g id="line2d_2">
      <g>
       <use style="stroke:#000000;stroke-width:0.8;" x="106.69835" xlink:href="#m7e411a2345" y="307.584"/>
      </g>
     </g>
     <g id="text_2">
      <!-- 250 -->
      <defs>
       <path d="M 19.1875 8.296875 
L 53.609375 8.296875 
L 53.609375 0 
L 7.328125 0 
L 7.328125 8.296875 
Q 12.9375 14.109375 22.625 23.890625 
Q 32.328125 33.6875 34.8125 36.53125 
Q 39.546875 41.84375 41.421875 45.53125 
Q 43.3125 49.21875 43.3125 52.78125 
Q 43.3125 58.59375 39.234375 62.25 
Q 35.15625 65.921875 28.609375 65.921875 
Q 23.96875 65.921875 18.8125 64.3125 
Q 13.671875 62.703125 7.8125 59.421875 
L 7.8125 69.390625 
Q 13.765625 71.78125 18.9375 73 
Q 24.125 74.21875 28.421875 74.21875 
Q 39.75 74.21875 46.484375 68.546875 
Q 53.21875 62.890625 53.21875 53.421875 
Q 53.21875 48.921875 51.53125 44.890625 
Q 49.859375 40.875 45.40625 35.40625 
Q 44.1875 33.984375 37.640625 27.21875 
Q 31.109375 20.453125 19.1875 8.296875 
z
" id="DejaVuSans-50"/>
       <path d="M 10.796875 72.90625 
L 49.515625 72.90625 
L 49.515625 64.59375 
L 19.828125 64.59375 
L 19.828125 46.734375 
Q 21.96875 47.46875 24.109375 47.828125 
Q 26.265625 48.1875 28.421875 48.1875 
Q 40.625 48.1875 47.75 41.5 
Q 54.890625 34.8125 54.890625 23.390625 
Q 54.890625 11.625 47.5625 5.09375 
Q 40.234375 -1.421875 26.90625 -1.421875 
Q 22.3125 -1.421875 17.546875 -0.640625 
Q 12.796875 0.140625 7.71875 1.703125 
L 7.71875 11.625 
Q 12.109375 9.234375 16.796875 8.0625 
Q 21.484375 6.890625 26.703125 6.890625 
Q 35.15625 6.890625 40.078125 11.328125 
Q 45.015625 15.765625 45.015625 23.390625 
Q 45.015625 31 40.078125 35.4375 
Q 35.15625 39.890625 26.703125 39.890625 
Q 22.75 39.890625 18.8125 39.015625 
Q 14.890625 38.140625 10.796875 36.28125 
z
" id="DejaVuSans-53"/>
      </defs>
      <g transform="translate(97.1546 322.182437)scale(0.1 -0.1)">
       <use xlink:href="#DejaVuSans-50"/>
       <use x="63.623047" xlink:href="#DejaVuSans-53"/>
       <use x="127.246094" xlink:href="#DejaVuSans-48"/>
      </g>
     </g>
    </g>
    <g id="xtick_3">
     <g id="line2d_3">
      <g>
       <use style="stroke:#000000;stroke-width:0.8;" x="148.469605" xlink:href="#m7e411a2345" y="307.584"/>
      </g>
     </g>
     <g id="text_3">
      <!-- 500 -->
      <g transform="translate(138.925855 322.182437)scale(0.1 -0.1)">
       <use xlink:href="#DejaVuSans-53"/>
       <use x="63.623047" xlink:href="#DejaVuSans-48"/>
       <use x="127.246094" xlink:href="#DejaVuSans-48"/>
      </g>
     </g>
    </g>
    <g id="xtick_4">
     <g id="line2d_4">
      <g>
       <use style="stroke:#000000;stroke-width:0.8;" x="190.24086" xlink:href="#m7e411a2345" y="307.584"/>
      </g>
     </g>
     <g id="text_4">
      <!-- 750 -->
      <defs>
       <path d="M 8.203125 72.90625 
L 55.078125 72.90625 
L 55.078125 68.703125 
L 28.609375 0 
L 18.3125 0 
L 43.21875 64.59375 
L 8.203125 64.59375 
z
" id="DejaVuSans-55"/>
      </defs>
      <g transform="translate(180.69711 322.182437)scale(0.1 -0.1)">
       <use xlink:href="#DejaVuSans-55"/>
       <use x="63.623047" xlink:href="#DejaVuSans-53"/>
       <use x="127.246094" xlink:href="#DejaVuSans-48"/>
      </g>
     </g>
    </g>
    <g id="xtick_5">
     <g id="line2d_5">
      <g>
       <use style="stroke:#000000;stroke-width:0.8;" x="232.012114" xlink:href="#m7e411a2345" y="307.584"/>
      </g>
     </g>
     <g id="text_5">
      <!-- 1000 -->
      <defs>
       <path d="M 12.40625 8.296875 
L 28.515625 8.296875 
L 28.515625 63.921875 
L 10.984375 60.40625 
L 10.984375 69.390625 
L 28.421875 72.90625 
L 38.28125 72.90625 
L 38.28125 8.296875 
L 54.390625 8.296875 
L 54.390625 0 
L 12.40625 0 
z
" id="DejaVuSans-49"/>
      </defs>
      <g transform="translate(219.287114 322.182437)scale(0.1 -0.1)">
       <use xlink:href="#DejaVuSans-49"/>
       <use x="63.623047" xlink:href="#DejaVuSans-48"/>
       <use x="127.246094" xlink:href="#DejaVuSans-48"/>
       <use x="190.869141" xlink:href="#DejaVuSans-48"/>
      </g>
     </g>
    </g>
    <g id="xtick_6">
     <g id="line2d_6">
      <g>
       <use style="stroke:#000000;stroke-width:0.8;" x="273.783369" xlink:href="#m7e411a2345" y="307.584"/>
      </g>
     </g>
     <g id="text_6">
      <!-- 1250 -->
      <g transform="translate(261.058369 322.182437)scale(0.1 -0.1)">
       <use xlink:href="#DejaVuSans-49"/>
       <use x="63.623047" xlink:href="#DejaVuSans-50"/>
       <use x="127.246094" xlink:href="#DejaVuSans-53"/>
       <use x="190.869141" xlink:href="#DejaVuSans-48"/>
      </g>
     </g>
    </g>
    <g id="xtick_7">
     <g id="line2d_7">
      <g>
       <use style="stroke:#000000;stroke-width:0.8;" x="315.554624" xlink:href="#m7e411a2345" y="307.584"/>
      </g>
     </g>
     <g id="text_7">
      <!-- 1500 -->
      <g transform="translate(302.829624 322.182437)scale(0.1 -0.1)">
       <use xlink:href="#DejaVuSans-49"/>
       <use x="63.623047" xlink:href="#DejaVuSans-53"/>
       <use x="127.246094" xlink:href="#DejaVuSans-48"/>
       <use x="190.869141" xlink:href="#DejaVuSans-48"/>
      </g>
     </g>
    </g>
    <g id="xtick_8">
     <g id="line2d_8">
      <g>
       <use style="stroke:#000000;stroke-width:0.8;" x="357.325878" xlink:href="#m7e411a2345" y="307.584"/>
      </g>
     </g>
     <g id="text_8">
      <!-- 1750 -->
      <g transform="translate(344.600878 322.182437)scale(0.1 -0.1)">
       <use xlink:href="#DejaVuSans-49"/>
       <use x="63.623047" xlink:href="#DejaVuSans-55"/>
       <use x="127.246094" xlink:href="#DejaVuSans-53"/>
       <use x="190.869141" xlink:href="#DejaVuSans-48"/>
      </g>
     </g>
    </g>
    <g id="xtick_9">
     <g id="line2d_9">
      <g>
       <use style="stroke:#000000;stroke-width:0.8;" x="399.097133" xlink:href="#m7e411a2345" y="307.584"/>
      </g>
     </g>
     <g id="text_9">
      <!-- 2000 -->
      <g transform="translate(386.372133 322.182437)scale(0.1 -0.1)">
       <use xlink:href="#DejaVuSans-50"/>
       <use x="63.623047" xlink:href="#DejaVuSans-48"/>
       <use x="127.246094" xlink:href="#DejaVuSans-48"/>
       <use x="190.869141" xlink:href="#DejaVuSans-48"/>
      </g>
     </g>
    </g>
    <g id="text_10">
     <!-- Tempo (ms) -->
     <defs>
      <path d="M -0.296875 72.90625 
L 61.375 72.90625 
L 61.375 64.59375 
L 35.5 64.59375 
L 35.5 0 
L 25.59375 0 
L 25.59375 64.59375 
L -0.296875 64.59375 
z
" id="DejaVuSans-84"/>
      <path d="M 56.203125 29.59375 
L 56.203125 25.203125 
L 14.890625 25.203125 
Q 15.484375 15.921875 20.484375 11.0625 
Q 25.484375 6.203125 34.421875 6.203125 
Q 39.59375 6.203125 44.453125 7.46875 
Q 49.3125 8.734375 54.109375 11.28125 
L 54.109375 2.78125 
Q 49.265625 0.734375 44.1875 -0.34375 
Q 39.109375 -1.421875 33.890625 -1.421875 
Q 20.796875 -1.421875 13.15625 6.1875 
Q 5.515625 13.8125 5.515625 26.8125 
Q 5.515625 40.234375 12.765625 48.109375 
Q 20.015625 56 32.328125 56 
Q 43.359375 56 49.78125 48.890625 
Q 56.203125 41.796875 56.203125 29.59375 
z
M 47.21875 32.234375 
Q 47.125 39.59375 43.09375 43.984375 
Q 39.0625 48.390625 32.421875 48.390625 
Q 24.90625 48.390625 20.390625 44.140625 
Q 15.875 39.890625 15.1875 32.171875 
z
" id="DejaVuSans-101"/>
      <path d="M 52 44.1875 
Q 55.375 50.25 60.0625 53.125 
Q 64.75 56 71.09375 56 
Q 79.640625 56 84.28125 50.015625 
Q 88.921875 44.046875 88.921875 33.015625 
L 88.921875 0 
L 79.890625 0 
L 79.890625 32.71875 
Q 79.890625 40.578125 77.09375 44.375 
Q 74.3125 48.1875 68.609375 48.1875 
Q 61.625 48.1875 57.5625 43.546875 
Q 53.515625 38.921875 53.515625 30.90625 
L 53.515625 0 
L 44.484375 0 
L 44.484375 32.71875 
Q 44.484375 40.625 41.703125 44.40625 
Q 38.921875 48.1875 33.109375 48.1875 
Q 26.21875 48.1875 22.15625 43.53125 
Q 18.109375 38.875 18.109375 30.90625 
L 18.109375 0 
L 9.078125 0 
L 9.078125 54.6875 
L 18.109375 54.6875 
L 18.109375 46.1875 
Q 21.1875 51.21875 25.484375 53.609375 
Q 29.78125 56 35.6875 56 
Q 41.65625 56 45.828125 52.96875 
Q 50 49.953125 52 44.1875 
z
" id="DejaVuSans-109"/>
      <path d="M 18.109375 8.203125 
L 18.109375 -20.796875 
L 9.078125 -20.796875 
L 9.078125 54.6875 
L 18.109375 54.6875 
L 18.109375 46.390625 
Q 20.953125 51.265625 25.265625 53.625 
Q 29.59375 56 35.59375 56 
Q 45.5625 56 51.78125 48.09375 
Q 58.015625 40.1875 58.015625 27.296875 
Q 58.015625 14.40625 51.78125 6.484375 
Q 45.5625 -1.421875 35.59375 -1.421875 
Q 29.59375 -1.421875 25.265625 0.953125 
Q 20.953125 3.328125 18.109375 8.203125 
z
M 48.6875 27.296875 
Q 48.6875 37.203125 44.609375 42.84375 
Q 40.53125 48.484375 33.40625 48.484375 
Q 26.265625 48.484375 22.1875 42.84375 
Q 18.109375 37.203125 18.109375 27.296875 
Q 18.109375 17.390625 22.1875 11.75 
Q 26.265625 6.109375 33.40625 6.109375 
Q 40.53125 6.109375 44.609375 11.75 
Q 48.6875 17.390625 48.6875 27.296875 
z
" id="DejaVuSans-112"/>
      <path d="M 30.609375 48.390625 
Q 23.390625 48.390625 19.1875 42.75 
Q 14.984375 37.109375 14.984375 27.296875 
Q 14.984375 17.484375 19.15625 11.84375 
Q 23.34375 6.203125 30.609375 6.203125 
Q 37.796875 6.203125 41.984375 11.859375 
Q 46.1875 17.53125 46.1875 27.296875 
Q 46.1875 37.015625 41.984375 42.703125 
Q 37.796875 48.390625 30.609375 48.390625 
z
M 30.609375 56 
Q 42.328125 56 49.015625 48.375 
Q 55.71875 40.765625 55.71875 27.296875 
Q 55.71875 13.875 49.015625 6.21875 
Q 42.328125 -1.421875 30.609375 -1.421875 
Q 18.84375 -1.421875 12.171875 6.21875 
Q 5.515625 13.875 5.515625 27.296875 
Q 5.515625 40.765625 12.171875 48.375 
Q 18.84375 56 30.609375 56 
z
" id="DejaVuSans-111"/>
      <path id="DejaVuSans-32"/>
      <path d="M 31 75.875 
Q 24.46875 64.65625 21.28125 53.65625 
Q 18.109375 42.671875 18.109375 31.390625 
Q 18.109375 20.125 21.3125 9.0625 
Q 24.515625 -2 31 -13.1875 
L 23.1875 -13.1875 
Q 15.875 -1.703125 12.234375 9.375 
Q 8.59375 20.453125 8.59375 31.390625 
Q 8.59375 42.28125 12.203125 53.3125 
Q 15.828125 64.359375 23.1875 75.875 
z
" id="DejaVuSans-40"/>
      <path d="M 44.28125 53.078125 
L 44.28125 44.578125 
Q 40.484375 46.53125 36.375 47.5 
Q 32.28125 48.484375 27.875 48.484375 
Q 21.1875 48.484375 17.84375 46.4375 
Q 14.5 44.390625 14.5 40.28125 
Q 14.5 37.15625 16.890625 35.375 
Q 19.28125 33.59375 26.515625 31.984375 
L 29.59375 31.296875 
Q 39.15625 29.25 43.1875 25.515625 
Q 47.21875 21.78125 47.21875 15.09375 
Q 47.21875 7.46875 41.1875 3.015625 
Q 35.15625 -1.421875 24.609375 -1.421875 
Q 20.21875 -1.421875 15.453125 -0.5625 
Q 10.6875 0.296875 5.421875 2 
L 5.421875 11.28125 
Q 10.40625 8.6875 15.234375 7.390625 
Q 20.0625 6.109375 24.8125 6.109375 
Q 31.15625 6.109375 34.5625 8.28125 
Q 37.984375 10.453125 37.984375 14.40625 
Q 37.984375 18.0625 35.515625 20.015625 
Q 33.0625 21.96875 24.703125 23.78125 
L 21.578125 24.515625 
Q 13.234375 26.265625 9.515625 29.90625 
Q 5.8125 33.546875 5.8125 39.890625 
Q 5.8125 47.609375 11.28125 51.796875 
Q 16.75 56 26.8125 56 
Q 31.78125 56 36.171875 55.265625 
Q 40.578125 54.546875 44.28125 53.078125 
z
" id="DejaVuSans-115"/>
      <path d="M 8.015625 75.875 
L 15.828125 75.875 
Q 23.140625 64.359375 26.78125 53.3125 
Q 30.421875 42.28125 30.421875 31.390625 
Q 30.421875 20.453125 26.78125 9.375 
Q 23.140625 -1.703125 15.828125 -13.1875 
L 8.015625 -13.1875 
Q 14.5 -2 17.703125 9.0625 
Q 20.90625 20.125 20.90625 31.390625 
Q 20.90625 42.671875 17.703125 53.65625 
Q 14.5 64.65625 8.015625 75.875 
z
" id="DejaVuSans-41"/>
     </defs>
     <g transform="translate(205.973281 335.860562)scale(0.1 -0.1)">
      <use xlink:href="#DejaVuSans-84"/>
      <use x="60.818359" xlink:href="#DejaVuSans-101"/>
      <use x="122.341797" xlink:href="#DejaVuSans-109"/>
      <use x="219.753906" xlink:href="#DejaVuSans-112"/>
      <use x="283.230469" xlink:href="#DejaVuSans-111"/>
      <use x="344.412109" xlink:href="#DejaVuSans-32"/>
      <use x="376.199219" xlink:href="#DejaVuSans-40"/>
      <use x="415.212891" xlink:href="#DejaVuSans-109"/>
      <use x="512.625" xlink:href="#DejaVuSans-115"/>
      <use x="564.724609" xlink:href="#DejaVuSans-41"/>
     </g>
    </g>
   </g>
   <g id="matplotlib.axis_2">
    <g id="ytick_1">
     <g id="line2d_10">
      <defs>
       <path d="M 0 0 
L -3.5 0 
" id="m471aa06f24" style="stroke:#000000;stroke-width:0.8;"/>
      </defs>
      <g>
       <use style="stroke:#000000;stroke-width:0.8;" x="57.6" xlink:href="#m471aa06f24" y="307.584"/>
      </g>
     </g>
     <g id="text_11">
      <!-- 0 -->
      <g transform="translate(44.2375 311.383219)scale(0.1 -0.1)">
       <use xlink:href="#DejaVuSans-48"/>
      </g>
     </g>
    </g>
    <g id="ytick_2">
     <g id="line2d_11">
      <g>
       <use style="stroke:#000000;stroke-width:0.8;" x="57.6" xlink:href="#m471aa06f24" y="274.32"/>
      </g>
     </g>
     <g id="text_12">
      <!-- 50 -->
      <g transform="translate(37.875 278.119219)scale(0.1 -0.1)">
       <use xlink:href="#DejaVuSans-53"/>
       <use x="63.623047" xlink:href="#DejaVuSans-48"/>
      </g>
     </g>
    </g>
    <g id="ytick_3">
     <g id="line2d_12">
      <g>
       <use style="stroke:#000000;stroke-width:0.8;" x="57.6" xlink:href="#m471aa06f24" y="241.056"/>
      </g>
     </g>
     <g id="text_13">
      <!-- 100 -->
      <g transform="translate(31.5125 244.855219)scale(0.1 -0.1)">
       <use xlink:href="#DejaVuSans-49"/>
       <use x="63.623047" xlink:href="#DejaVuSans-48"/>
       <use x="127.246094" xlink:href="#DejaVuSans-48"/>
      </g>
     </g>
    </g>
    <g id="ytick_4">
     <g id="line2d_13">
      <g>
       <use style="stroke:#000000;stroke-width:0.8;" x="57.6" xlink:href="#m471aa06f24" y="207.792"/>
      </g>
     </g>
     <g id="text_14">
      <!-- 150 -->
      <g transform="translate(31.5125 211.591219)scale(0.1 -0.1)">
       <use xlink:href="#DejaVuSans-49"/>
       <use x="63.623047" xlink:href="#DejaVuSans-53"/>
       <use x="127.246094" xlink:href="#DejaVuSans-48"/>
      </g>
     </g>
    </g>
    <g id="ytick_5">
     <g id="line2d_14">
      <g>
       <use style="stroke:#000000;stroke-width:0.8;" x="57.6" xlink:href="#m471aa06f24" y="174.528"/>
      </g>
     </g>
     <g id="text_15">
      <!-- 200 -->
      <g transform="translate(31.5125 178.327219)scale(0.1 -0.1)">
       <use xlink:href="#DejaVuSans-50"/>
       <use x="63.623047" xlink:href="#DejaVuSans-48"/>
       <use x="127.246094" xlink:href="#DejaVuSans-48"/>
      </g>
     </g>
    </g>
    <g id="ytick_6">
     <g id="line2d_15">
      <g>
       <use style="stroke:#000000;stroke-width:0.8;" x="57.6" xlink:href="#m471aa06f24" y="141.264"/>
      </g>
     </g>
     <g id="text_16">
      <!-- 250 -->
      <g transform="translate(31.5125 145.063219)scale(0.1 -0.1)">
       <use xlink:href="#DejaVuSans-50"/>
       <use x="63.623047" xlink:href="#DejaVuSans-53"/>
       <use x="127.246094" xlink:href="#DejaVuSans-48"/>
      </g>
     </g>
    </g>
    <g id="ytick_7">
     <g id="line2d_16">
      <g>
       <use style="stroke:#000000;stroke-width:0.8;" x="57.6" xlink:href="#m471aa06f24" y="108"/>
      </g>
     </g>
     <g id="text_17">
      <!-- 300 -->
      <defs>
       <path d="M 40.578125 39.3125 
Q 47.65625 37.796875 51.625 33 
Q 55.609375 28.21875 55.609375 21.1875 
Q 55.609375 10.40625 48.1875 4.484375 
Q 40.765625 -1.421875 27.09375 -1.421875 
Q 22.515625 -1.421875 17.65625 -0.515625 
Q 12.796875 0.390625 7.625 2.203125 
L 7.625 11.71875 
Q 11.71875 9.328125 16.59375 8.109375 
Q 21.484375 6.890625 26.8125 6.890625 
Q 36.078125 6.890625 40.9375 10.546875 
Q 45.796875 14.203125 45.796875 21.1875 
Q 45.796875 27.640625 41.28125 31.265625 
Q 36.765625 34.90625 28.71875 34.90625 
L 20.21875 34.90625 
L 20.21875 43.015625 
L 29.109375 43.015625 
Q 36.375 43.015625 40.234375 45.921875 
Q 44.09375 48.828125 44.09375 54.296875 
Q 44.09375 59.90625 40.109375 62.90625 
Q 36.140625 65.921875 28.71875 65.921875 
Q 24.65625 65.921875 20.015625 65.03125 
Q 15.375 64.15625 9.8125 62.3125 
L 9.8125 71.09375 
Q 15.4375 72.65625 20.34375 73.4375 
Q 25.25 74.21875 29.59375 74.21875 
Q 40.828125 74.21875 47.359375 69.109375 
Q 53.90625 64.015625 53.90625 55.328125 
Q 53.90625 49.265625 50.4375 45.09375 
Q 46.96875 40.921875 40.578125 39.3125 
z
" id="DejaVuSans-51"/>
      </defs>
      <g transform="translate(31.5125 111.799219)scale(0.1 -0.1)">
       <use xlink:href="#DejaVuSans-51"/>
       <use x="63.623047" xlink:href="#DejaVuSans-48"/>
       <use x="127.246094" xlink:href="#DejaVuSans-48"/>
      </g>
     </g>
    </g>
    <g id="ytick_8">
     <g id="line2d_17">
      <g>
       <use style="stroke:#000000;stroke-width:0.8;" x="57.6" xlink:href="#m471aa06f24" y="74.736"/>
      </g>
     </g>
     <g id="text_18">
      <!-- 350 -->
      <g transform="translate(31.5125 78.535219)scale(0.1 -0.1)">
       <use xlink:href="#DejaVuSans-51"/>
       <use x="63.623047" xlink:href="#DejaVuSans-53"/>
       <use x="127.246094" xlink:href="#DejaVuSans-48"/>
      </g>
     </g>
    </g>
    <g id="ytick_9">
     <g id="line2d_18">
      <g>
       <use style="stroke:#000000;stroke-width:0.8;" x="57.6" xlink:href="#m471aa06f24" y="41.472"/>
      </g>
     </g>
     <g id="text_19">
      <!-- 400 -->
      <defs>
       <path d="M 37.796875 64.3125 
L 12.890625 25.390625 
L 37.796875 25.390625 
z
M 35.203125 72.90625 
L 47.609375 72.90625 
L 47.609375 25.390625 
L 58.015625 25.390625 
L 58.015625 17.1875 
L 47.609375 17.1875 
L 47.609375 0 
L 37.796875 0 
L 37.796875 17.1875 
L 4.890625 17.1875 
L 4.890625 26.703125 
z
" id="DejaVuSans-52"/>
      </defs>
      <g transform="translate(31.5125 45.271219)scale(0.1 -0.1)">
       <use xlink:href="#DejaVuSans-52"/>
       <use x="63.623047" xlink:href="#DejaVuSans-48"/>
       <use x="127.246094" xlink:href="#DejaVuSans-48"/>
      </g>
     </g>
    </g>
    <g id="text_20">
     <!-- Taxa de disparo da RC (pps) -->
     <defs>
      <path d="M 34.28125 27.484375 
Q 23.390625 27.484375 19.1875 25 
Q 14.984375 22.515625 14.984375 16.5 
Q 14.984375 11.71875 18.140625 8.90625 
Q 21.296875 6.109375 26.703125 6.109375 
Q 34.1875 6.109375 38.703125 11.40625 
Q 43.21875 16.703125 43.21875 25.484375 
L 43.21875 27.484375 
z
M 52.203125 31.203125 
L 52.203125 0 
L 43.21875 0 
L 43.21875 8.296875 
Q 40.140625 3.328125 35.546875 0.953125 
Q 30.953125 -1.421875 24.3125 -1.421875 
Q 15.921875 -1.421875 10.953125 3.296875 
Q 6 8.015625 6 15.921875 
Q 6 25.140625 12.171875 29.828125 
Q 18.359375 34.515625 30.609375 34.515625 
L 43.21875 34.515625 
L 43.21875 35.40625 
Q 43.21875 41.609375 39.140625 45 
Q 35.0625 48.390625 27.6875 48.390625 
Q 23 48.390625 18.546875 47.265625 
Q 14.109375 46.140625 10.015625 43.890625 
L 10.015625 52.203125 
Q 14.9375 54.109375 19.578125 55.046875 
Q 24.21875 56 28.609375 56 
Q 40.484375 56 46.34375 49.84375 
Q 52.203125 43.703125 52.203125 31.203125 
z
" id="DejaVuSans-97"/>
      <path d="M 54.890625 54.6875 
L 35.109375 28.078125 
L 55.90625 0 
L 45.3125 0 
L 29.390625 21.484375 
L 13.484375 0 
L 2.875 0 
L 24.125 28.609375 
L 4.6875 54.6875 
L 15.28125 54.6875 
L 29.78125 35.203125 
L 44.28125 54.6875 
z
" id="DejaVuSans-120"/>
      <path d="M 45.40625 46.390625 
L 45.40625 75.984375 
L 54.390625 75.984375 
L 54.390625 0 
L 45.40625 0 
L 45.40625 8.203125 
Q 42.578125 3.328125 38.25 0.953125 
Q 33.9375 -1.421875 27.875 -1.421875 
Q 17.96875 -1.421875 11.734375 6.484375 
Q 5.515625 14.40625 5.515625 27.296875 
Q 5.515625 40.1875 11.734375 48.09375 
Q 17.96875 56 27.875 56 
Q 33.9375 56 38.25 53.625 
Q 42.578125 51.265625 45.40625 46.390625 
z
M 14.796875 27.296875 
Q 14.796875 17.390625 18.875 11.75 
Q 22.953125 6.109375 30.078125 6.109375 
Q 37.203125 6.109375 41.296875 11.75 
Q 45.40625 17.390625 45.40625 27.296875 
Q 45.40625 37.203125 41.296875 42.84375 
Q 37.203125 48.484375 30.078125 48.484375 
Q 22.953125 48.484375 18.875 42.84375 
Q 14.796875 37.203125 14.796875 27.296875 
z
" id="DejaVuSans-100"/>
      <path d="M 9.421875 54.6875 
L 18.40625 54.6875 
L 18.40625 0 
L 9.421875 0 
z
M 9.421875 75.984375 
L 18.40625 75.984375 
L 18.40625 64.59375 
L 9.421875 64.59375 
z
" id="DejaVuSans-105"/>
      <path d="M 41.109375 46.296875 
Q 39.59375 47.171875 37.8125 47.578125 
Q 36.03125 48 33.890625 48 
Q 26.265625 48 22.1875 43.046875 
Q 18.109375 38.09375 18.109375 28.8125 
L 18.109375 0 
L 9.078125 0 
L 9.078125 54.6875 
L 18.109375 54.6875 
L 18.109375 46.1875 
Q 20.953125 51.171875 25.484375 53.578125 
Q 30.03125 56 36.53125 56 
Q 37.453125 56 38.578125 55.875 
Q 39.703125 55.765625 41.0625 55.515625 
z
" id="DejaVuSans-114"/>
      <path d="M 44.390625 34.1875 
Q 47.5625 33.109375 50.5625 29.59375 
Q 53.5625 26.078125 56.59375 19.921875 
L 66.609375 0 
L 56 0 
L 46.6875 18.703125 
Q 43.0625 26.03125 39.671875 28.421875 
Q 36.28125 30.8125 30.421875 30.8125 
L 19.671875 30.8125 
L 19.671875 0 
L 9.8125 0 
L 9.8125 72.90625 
L 32.078125 72.90625 
Q 44.578125 72.90625 50.734375 67.671875 
Q 56.890625 62.453125 56.890625 51.90625 
Q 56.890625 45.015625 53.6875 40.46875 
Q 50.484375 35.9375 44.390625 34.1875 
z
M 19.671875 64.796875 
L 19.671875 38.921875 
L 32.078125 38.921875 
Q 39.203125 38.921875 42.84375 42.21875 
Q 46.484375 45.515625 46.484375 51.90625 
Q 46.484375 58.296875 42.84375 61.546875 
Q 39.203125 64.796875 32.078125 64.796875 
z
" id="DejaVuSans-82"/>
      <path d="M 64.40625 67.28125 
L 64.40625 56.890625 
Q 59.421875 61.53125 53.78125 63.8125 
Q 48.140625 66.109375 41.796875 66.109375 
Q 29.296875 66.109375 22.65625 58.46875 
Q 16.015625 50.828125 16.015625 36.375 
Q 16.015625 21.96875 22.65625 14.328125 
Q 29.296875 6.6875 41.796875 6.6875 
Q 48.140625 6.6875 53.78125 8.984375 
Q 59.421875 11.28125 64.40625 15.921875 
L 64.40625 5.609375 
Q 59.234375 2.09375 53.4375 0.328125 
Q 47.65625 -1.421875 41.21875 -1.421875 
Q 24.65625 -1.421875 15.125 8.703125 
Q 5.609375 18.84375 5.609375 36.375 
Q 5.609375 53.953125 15.125 64.078125 
Q 24.65625 74.21875 41.21875 74.21875 
Q 47.75 74.21875 53.53125 72.484375 
Q 59.328125 70.75 64.40625 67.28125 
z
" id="DejaVuSans-67"/>
     </defs>
     <g transform="translate(25.432812 245.427219)rotate(-90)scale(0.1 -0.1)">
      <use xlink:href="#DejaVuSans-84"/>
      <use x="60.833984" xlink:href="#DejaVuSans-97"/>
      <use x="122.113281" xlink:href="#DejaVuSans-120"/>
      <use x="181.292969" xlink:href="#DejaVuSans-97"/>
      <use x="242.572266" xlink:href="#DejaVuSans-32"/>
      <use x="274.359375" xlink:href="#DejaVuSans-100"/>
      <use x="337.835938" xlink:href="#DejaVuSans-101"/>
      <use x="399.359375" xlink:href="#DejaVuSans-32"/>
      <use x="431.146484" xlink:href="#DejaVuSans-100"/>
      <use x="494.623047" xlink:href="#DejaVuSans-105"/>
      <use x="522.40625" xlink:href="#DejaVuSans-115"/>
      <use x="574.505859" xlink:href="#DejaVuSans-112"/>
      <use x="637.982422" xlink:href="#DejaVuSans-97"/>
      <use x="699.261719" xlink:href="#DejaVuSans-114"/>
      <use x="740.34375" xlink:href="#DejaVuSans-111"/>
      <use x="801.525391" xlink:href="#DejaVuSans-32"/>
      <use x="833.3125" xlink:href="#DejaVuSans-100"/>
      <use x="896.789062" xlink:href="#DejaVuSans-97"/>
      <use x="958.068359" xlink:href="#DejaVuSans-32"/>
      <use x="989.855469" xlink:href="#DejaVuSans-82"/>
      <use x="1059.259766" xlink:href="#DejaVuSans-67"/>
      <use x="1129.083984" xlink:href="#DejaVuSans-32"/>
      <use x="1160.871094" xlink:href="#DejaVuSans-40"/>
      <use x="1199.884766" xlink:href="#DejaVuSans-112"/>
      <use x="1263.361328" xlink:href="#DejaVuSans-112"/>
      <use x="1326.837891" xlink:href="#DejaVuSans-115"/>
      <use x="1378.9375" xlink:href="#DejaVuSans-41"/>
     </g>
    </g>
   </g>
   <g id="line2d_19">
    <defs>
     <path d="M 0 3 
C 0.795609 3 1.55874 2.683901 2.12132 2.12132 
C 2.683901 1.55874 3 0.795609 3 0 
C 3 -0.795609 2.683901 -1.55874 2.12132 -2.12132 
C 1.55874 -2.683901 0.795609 -3 0 -3 
C -0.795609 -3 -1.55874 -2.683901 -2.12132 -2.12132 
C -2.683901 -1.55874 -3 -0.795609 -3 0 
C -3 0.795609 -2.683901 1.55874 -2.12132 2.12132 
C -1.55874 2.683901 -0.795609 3 0 3 
z
" id="m676c9c9925" style="stroke:#000000;"/>
    </defs>
    <g clip-path="url(#p64667c532a)">
     <use style="stroke:#000000;" x="73.832727" xlink:href="#m676c9c9925" y="277.6464"/>
     <use style="stroke:#000000;" x="104.735101" xlink:href="#m676c9c9925" y="284.2992"/>
     <use style="stroke:#000000;" x="138.812091" xlink:href="#m676c9c9925" y="284.2992"/>
     <use style="stroke:#000000;" x="172.237449" xlink:href="#m676c9c9925" y="261.0144"/>
     <use style="stroke:#000000;" x="189.973524" xlink:href="#m676c9c9925" y="267.6672"/>
     <use style="stroke:#000000;" x="203.482347" xlink:href="#m676c9c9925" y="274.32"/>
     <use style="stroke:#000000;" x="220.190849" xlink:href="#m676c9c9925" y="274.32"/>
     <use style="stroke:#000000;" x="236.907705" xlink:href="#m676c9c9925" y="274.32"/>
     <use style="stroke:#000000;" x="253.440768" xlink:href="#m676c9c9925" y="274.32"/>
     <use style="stroke:#000000;" x="273.566159" xlink:href="#m676c9c9925" y="267.6672"/>
     <use style="stroke:#000000;" x="286.93296" xlink:href="#m676c9c9925" y="274.32"/>
     <use style="stroke:#000000;" x="303.633108" xlink:href="#m676c9c9925" y="274.32"/>
     <use style="stroke:#000000;" x="320.34161" xlink:href="#m676c9c9925" y="274.32"/>
     <use style="stroke:#000000;" x="337.050111" xlink:href="#m676c9c9925" y="274.32"/>
     <use style="stroke:#000000;" x="353.758613" xlink:href="#m676c9c9925" y="274.32"/>
     <use style="stroke:#000000;" x="370.467115" xlink:href="#m676c9c9925" y="274.32"/>
     <use style="stroke:#000000;" x="387.175617" xlink:href="#m676c9c9925" y="274.32"/>
    </g>
   </g>
   <g id="line2d_20">
    <defs>
     <path d="M 0 -3 
L -0.673542 -0.927051 
L -2.85317 -0.927051 
L -1.089814 0.354102 
L -1.763356 2.427051 
L -0 1.145898 
L 1.763356 2.427051 
L 1.089814 0.354102 
L 2.85317 -0.927051 
L 0.673542 -0.927051 
z
" id="m7a4f245344" style="stroke:#000000;stroke-linejoin:bevel;"/>
    </defs>
    <g clip-path="url(#p64667c532a)">
     <use style="stroke:#000000;stroke-linejoin:bevel;" x="73.832727" xlink:href="#m7a4f245344" y="277.6464"/>
     <use style="stroke:#000000;stroke-linejoin:bevel;" x="104.735101" xlink:href="#m7a4f245344" y="284.2992"/>
     <use style="stroke:#000000;stroke-linejoin:bevel;" x="138.812091" xlink:href="#m7a4f245344" y="284.2992"/>
     <use style="stroke:#000000;stroke-linejoin:bevel;" x="172.237449" xlink:href="#m7a4f245344" y="214.4448"/>
     <use style="stroke:#000000;stroke-linejoin:bevel;" x="178.436303" xlink:href="#m7a4f245344" y="254.3616"/>
     <use style="stroke:#000000;stroke-linejoin:bevel;" x="187.091307" xlink:href="#m7a4f245344" y="254.3616"/>
     <use style="stroke:#000000;stroke-linejoin:bevel;" x="195.654414" xlink:href="#m7a4f245344" y="254.3616"/>
     <use style="stroke:#000000;stroke-linejoin:bevel;" x="204.050437" xlink:href="#m7a4f245344" y="254.3616"/>
     <use style="stroke:#000000;stroke-linejoin:bevel;" x="212.404687" xlink:href="#m7a4f245344" y="254.3616"/>
     <use style="stroke:#000000;stroke-linejoin:bevel;" x="220.758938" xlink:href="#m7a4f245344" y="254.3616"/>
     <use style="stroke:#000000;stroke-linejoin:bevel;" x="229.113189" xlink:href="#m7a4f245344" y="254.3616"/>
     <use style="stroke:#000000;stroke-linejoin:bevel;" x="237.46744" xlink:href="#m7a4f245344" y="254.3616"/>
     <use style="stroke:#000000;stroke-linejoin:bevel;" x="245.66296" xlink:href="#m7a4f245344" y="254.3616"/>
     <use style="stroke:#000000;stroke-linejoin:bevel;" x="253.992149" xlink:href="#m7a4f245344" y="254.3616"/>
     <use style="stroke:#000000;stroke-linejoin:bevel;" x="262.204377" xlink:href="#m7a4f245344" y="254.3616"/>
     <use style="stroke:#000000;stroke-linejoin:bevel;" x="270.600399" xlink:href="#m7a4f245344" y="254.3616"/>
     <use style="stroke:#000000;stroke-linejoin:bevel;" x="279.029839" xlink:href="#m7a4f245344" y="254.3616"/>
     <use style="stroke:#000000;stroke-linejoin:bevel;" x="287.400798" xlink:href="#m7a4f245344" y="254.3616"/>
     <use style="stroke:#000000;stroke-linejoin:bevel;" x="295.746695" xlink:href="#m7a4f245344" y="254.3616"/>
     <use style="stroke:#000000;stroke-linejoin:bevel;" x="304.1093" xlink:href="#m7a4f245344" y="254.3616"/>
     <use style="stroke:#000000;stroke-linejoin:bevel;" x="312.455197" xlink:href="#m7a4f245344" y="254.3616"/>
     <use style="stroke:#000000;stroke-linejoin:bevel;" x="320.817802" xlink:href="#m7a4f245344" y="254.3616"/>
     <use style="stroke:#000000;stroke-linejoin:bevel;" x="329.163698" xlink:href="#m7a4f245344" y="254.3616"/>
     <use style="stroke:#000000;stroke-linejoin:bevel;" x="337.526304" xlink:href="#m7a4f245344" y="254.3616"/>
     <use style="stroke:#000000;stroke-linejoin:bevel;" x="345.8722" xlink:href="#m7a4f245344" y="254.3616"/>
     <use style="stroke:#000000;stroke-linejoin:bevel;" x="354.234806" xlink:href="#m7a4f245344" y="254.3616"/>
     <use style="stroke:#000000;stroke-linejoin:bevel;" x="362.580702" xlink:href="#m7a4f245344" y="254.3616"/>
     <use style="stroke:#000000;stroke-linejoin:bevel;" x="370.943307" xlink:href="#m7a4f245344" y="254.3616"/>
     <use style="stroke:#000000;stroke-linejoin:bevel;" x="379.289204" xlink:href="#m7a4f245344" y="254.3616"/>
     <use style="stroke:#000000;stroke-linejoin:bevel;" x="387.651809" xlink:href="#m7a4f245344" y="254.3616"/>
     <use style="stroke:#000000;stroke-linejoin:bevel;" x="395.997706" xlink:href="#m7a4f245344" y="254.3616"/>
    </g>
   </g>
   <g id="line2d_21">
    <defs>
     <path d="M -1.5 3 
L 0 1.5 
L 1.5 3 
L 3 1.5 
L 1.5 0 
L 3 -1.5 
L 1.5 -3 
L 0 -1.5 
L -1.5 -3 
L -3 -1.5 
L -1.5 0 
L -3 1.5 
z
" id="m11649bfe6f" style="stroke:#000000;stroke-linejoin:miter;"/>
    </defs>
    <g clip-path="url(#p64667c532a)">
     <use style="stroke:#000000;stroke-linejoin:miter;" x="73.832727" xlink:href="#m11649bfe6f" y="277.6464"/>
     <use style="stroke:#000000;stroke-linejoin:miter;" x="104.735101" xlink:href="#m11649bfe6f" y="284.2992"/>
     <use style="stroke:#000000;stroke-linejoin:miter;" x="138.812091" xlink:href="#m11649bfe6f" y="284.2992"/>
     <use style="stroke:#000000;stroke-linejoin:miter;" x="171.034437" xlink:href="#m11649bfe6f" y="175.85856"/>
     <use style="stroke:#000000;stroke-linejoin:miter;" x="175.06954" xlink:href="#m11649bfe6f" y="241.72128"/>
     <use style="stroke:#000000;stroke-linejoin:miter;" x="180.98435" xlink:href="#m11649bfe6f" y="241.72128"/>
     <use style="stroke:#000000;stroke-linejoin:miter;" x="184.083777" xlink:href="#m11649bfe6f" y="263.67552"/>
     <use style="stroke:#000000;stroke-linejoin:miter;" x="190.984388" xlink:href="#m11649bfe6f" y="241.72128"/>
     <use style="stroke:#000000;stroke-linejoin:miter;" x="194.209129" xlink:href="#m11649bfe6f" y="263.67552"/>
     <use style="stroke:#000000;stroke-linejoin:miter;" x="201.118094" xlink:href="#m11649bfe6f" y="241.72128"/>
     <use style="stroke:#000000;stroke-linejoin:miter;" x="204.334481" xlink:href="#m11649bfe6f" y="263.67552"/>
     <use style="stroke:#000000;stroke-linejoin:miter;" x="211.243447" xlink:href="#m11649bfe6f" y="241.72128"/>
     <use style="stroke:#000000;stroke-linejoin:miter;" x="214.459833" xlink:href="#m11649bfe6f" y="263.67552"/>
     <use style="stroke:#000000;stroke-linejoin:miter;" x="221.368799" xlink:href="#m11649bfe6f" y="241.72128"/>
     <use style="stroke:#000000;stroke-linejoin:miter;" x="224.585185" xlink:href="#m11649bfe6f" y="263.67552"/>
     <use style="stroke:#000000;stroke-linejoin:miter;" x="231.494151" xlink:href="#m11649bfe6f" y="241.72128"/>
     <use style="stroke:#000000;stroke-linejoin:miter;" x="234.710537" xlink:href="#m11649bfe6f" y="263.67552"/>
     <use style="stroke:#000000;stroke-linejoin:miter;" x="241.619503" xlink:href="#m11649bfe6f" y="241.72128"/>
     <use style="stroke:#000000;stroke-linejoin:miter;" x="244.819181" xlink:href="#m11649bfe6f" y="263.67552"/>
     <use style="stroke:#000000;stroke-linejoin:miter;" x="251.586124" xlink:href="#m11649bfe6f" y="241.72128"/>
     <use style="stroke:#000000;stroke-linejoin:miter;" x="254.927825" xlink:href="#m11649bfe6f" y="263.67552"/>
     <use style="stroke:#000000;stroke-linejoin:miter;" x="261.686414" xlink:href="#m11649bfe6f" y="241.72128"/>
     <use style="stroke:#000000;stroke-linejoin:miter;" x="265.01976" xlink:href="#m11649bfe6f" y="263.67552"/>
     <use style="stroke:#000000;stroke-linejoin:miter;" x="270.475086" xlink:href="#m11649bfe6f" y="241.72128"/>
     <use style="stroke:#000000;stroke-linejoin:miter;" x="276.94963" xlink:href="#m11649bfe6f" y="241.72128"/>
     <use style="stroke:#000000;stroke-linejoin:miter;" x="280.224497" xlink:href="#m11649bfe6f" y="263.67552"/>
     <use style="stroke:#000000;stroke-linejoin:miter;" x="287.150171" xlink:href="#m11649bfe6f" y="241.72128"/>
     <use style="stroke:#000000;stroke-linejoin:miter;" x="290.383266" xlink:href="#m11649bfe6f" y="263.67552"/>
     <use style="stroke:#000000;stroke-linejoin:miter;" x="297.200334" xlink:href="#m11649bfe6f" y="241.72128"/>
     <use style="stroke:#000000;stroke-linejoin:miter;" x="300.483555" xlink:href="#m11649bfe6f" y="263.67552"/>
     <use style="stroke:#000000;stroke-linejoin:miter;" x="307.250498" xlink:href="#m11649bfe6f" y="241.72128"/>
     <use style="stroke:#000000;stroke-linejoin:miter;" x="310.583844" xlink:href="#m11649bfe6f" y="263.67552"/>
     <use style="stroke:#000000;stroke-linejoin:miter;" x="316.03917" xlink:href="#m11649bfe6f" y="241.72128"/>
     <use style="stroke:#000000;stroke-linejoin:miter;" x="322.547132" xlink:href="#m11649bfe6f" y="241.72128"/>
     <use style="stroke:#000000;stroke-linejoin:miter;" x="325.80529" xlink:href="#m11649bfe6f" y="263.67552"/>
     <use style="stroke:#000000;stroke-linejoin:miter;" x="332.563879" xlink:href="#m11649bfe6f" y="241.72128"/>
     <use style="stroke:#000000;stroke-linejoin:miter;" x="335.897225" xlink:href="#m11649bfe6f" y="263.67552"/>
     <use style="stroke:#000000;stroke-linejoin:miter;" x="341.352551" xlink:href="#m11649bfe6f" y="241.72128"/>
     <use style="stroke:#000000;stroke-linejoin:miter;" x="347.860512" xlink:href="#m11649bfe6f" y="241.72128"/>
     <use style="stroke:#000000;stroke-linejoin:miter;" x="351.11867" xlink:href="#m11649bfe6f" y="263.67552"/>
     <use style="stroke:#000000;stroke-linejoin:miter;" x="357.877259" xlink:href="#m11649bfe6f" y="241.72128"/>
     <use style="stroke:#000000;stroke-linejoin:miter;" x="361.210605" xlink:href="#m11649bfe6f" y="263.67552"/>
     <use style="stroke:#000000;stroke-linejoin:miter;" x="366.665931" xlink:href="#m11649bfe6f" y="241.72128"/>
     <use style="stroke:#000000;stroke-linejoin:miter;" x="373.173892" xlink:href="#m11649bfe6f" y="241.72128"/>
     <use style="stroke:#000000;stroke-linejoin:miter;" x="376.43205" xlink:href="#m11649bfe6f" y="263.67552"/>
     <use style="stroke:#000000;stroke-linejoin:miter;" x="383.190639" xlink:href="#m11649bfe6f" y="241.72128"/>
     <use style="stroke:#000000;stroke-linejoin:miter;" x="386.523985" xlink:href="#m11649bfe6f" y="263.67552"/>
     <use style="stroke:#000000;stroke-linejoin:miter;" x="391.979311" xlink:href="#m11649bfe6f" y="241.72128"/>
     <use style="stroke:#000000;stroke-linejoin:miter;" x="398.487273" xlink:href="#m11649bfe6f" y="241.72128"/>
    </g>
   </g>
   <g id="line2d_22">
    <defs>
     <path d="M 0 -3 
L -3 3 
L 3 3 
z
" id="m2a25320684" style="stroke:#000000;stroke-linejoin:miter;"/>
    </defs>
    <g clip-path="url(#p64667c532a)">
     <use style="stroke:#000000;stroke-linejoin:miter;" x="73.832727" xlink:href="#m2a25320684" y="277.6464"/>
     <use style="stroke:#000000;stroke-linejoin:miter;" x="104.735101" xlink:href="#m2a25320684" y="284.2992"/>
     <use style="stroke:#000000;stroke-linejoin:miter;" x="138.812091" xlink:href="#m2a25320684" y="284.2992"/>
     <use style="stroke:#000000;stroke-linejoin:miter;" x="167.851467" xlink:href="#m2a25320684" y="174.528"/>
     <use style="stroke:#000000;stroke-linejoin:miter;" x="170.925832" xlink:href="#m2a25320684" y="207.792"/>
     <use style="stroke:#000000;stroke-linejoin:miter;" x="174.158927" xlink:href="#m2a25320684" y="241.056"/>
     <use style="stroke:#000000;stroke-linejoin:miter;" x="177.634295" xlink:href="#m2a25320684" y="241.056"/>
     <use style="stroke:#000000;stroke-linejoin:miter;" x="181.510668" xlink:href="#m2a25320684" y="241.056"/>
     <use style="stroke:#000000;stroke-linejoin:miter;" x="184.167319" xlink:href="#m2a25320684" y="274.32"/>
     <use style="stroke:#000000;stroke-linejoin:miter;" x="187.651042" xlink:href="#m2a25320684" y="241.056"/>
     <use style="stroke:#000000;stroke-linejoin:miter;" x="191.51906" xlink:href="#m2a25320684" y="241.056"/>
     <use style="stroke:#000000;stroke-linejoin:miter;" x="194.19242" xlink:href="#m2a25320684" y="274.32"/>
     <use style="stroke:#000000;stroke-linejoin:miter;" x="197.676143" xlink:href="#m2a25320684" y="241.056"/>
     <use style="stroke:#000000;stroke-linejoin:miter;" x="201.544161" xlink:href="#m2a25320684" y="241.056"/>
     <use style="stroke:#000000;stroke-linejoin:miter;" x="204.217522" xlink:href="#m2a25320684" y="274.32"/>
     <use style="stroke:#000000;stroke-linejoin:miter;" x="207.701244" xlink:href="#m2a25320684" y="241.056"/>
     <use style="stroke:#000000;stroke-linejoin:miter;" x="211.569262" xlink:href="#m2a25320684" y="241.056"/>
     <use style="stroke:#000000;stroke-linejoin:miter;" x="214.242623" xlink:href="#m2a25320684" y="274.32"/>
     <use style="stroke:#000000;stroke-linejoin:miter;" x="217.726345" xlink:href="#m2a25320684" y="241.056"/>
     <use style="stroke:#000000;stroke-linejoin:miter;" x="221.594364" xlink:href="#m2a25320684" y="241.056"/>
     <use style="stroke:#000000;stroke-linejoin:miter;" x="224.267724" xlink:href="#m2a25320684" y="274.32"/>
     <use style="stroke:#000000;stroke-linejoin:miter;" x="227.751446" xlink:href="#m2a25320684" y="241.056"/>
     <use style="stroke:#000000;stroke-linejoin:miter;" x="231.619465" xlink:href="#m2a25320684" y="241.056"/>
     <use style="stroke:#000000;stroke-linejoin:miter;" x="234.292825" xlink:href="#m2a25320684" y="274.32"/>
     <use style="stroke:#000000;stroke-linejoin:miter;" x="237.776548" xlink:href="#m2a25320684" y="241.056"/>
     <use style="stroke:#000000;stroke-linejoin:miter;" x="241.619503" xlink:href="#m2a25320684" y="241.056"/>
     <use style="stroke:#000000;stroke-linejoin:miter;" x="244.309572" xlink:href="#m2a25320684" y="274.32"/>
     <use style="stroke:#000000;stroke-linejoin:miter;" x="247.78494" xlink:href="#m2a25320684" y="241.056"/>
     <use style="stroke:#000000;stroke-linejoin:miter;" x="251.63625" xlink:href="#m2a25320684" y="241.056"/>
     <use style="stroke:#000000;stroke-linejoin:miter;" x="254.334673" xlink:href="#m2a25320684" y="274.32"/>
     <use style="stroke:#000000;stroke-linejoin:miter;" x="257.818396" xlink:href="#m2a25320684" y="241.056"/>
     <use style="stroke:#000000;stroke-linejoin:miter;" x="261.678059" xlink:href="#m2a25320684" y="241.056"/>
     <use style="stroke:#000000;stroke-linejoin:miter;" x="264.35142" xlink:href="#m2a25320684" y="274.32"/>
     <use style="stroke:#000000;stroke-linejoin:miter;" x="267.801725" xlink:href="#m2a25320684" y="241.056"/>
     <use style="stroke:#000000;stroke-linejoin:miter;" x="271.619618" xlink:href="#m2a25320684" y="241.056"/>
     <use style="stroke:#000000;stroke-linejoin:miter;" x="274.376521" xlink:href="#m2a25320684" y="274.32"/>
     <use style="stroke:#000000;stroke-linejoin:miter;" x="277.851889" xlink:href="#m2a25320684" y="241.056"/>
     <use style="stroke:#000000;stroke-linejoin:miter;" x="281.694845" xlink:href="#m2a25320684" y="241.056"/>
     <use style="stroke:#000000;stroke-linejoin:miter;" x="284.409976" xlink:href="#m2a25320684" y="274.32"/>
     <use style="stroke:#000000;stroke-linejoin:miter;" x="287.893699" xlink:href="#m2a25320684" y="241.056"/>
     <use style="stroke:#000000;stroke-linejoin:miter;" x="291.7283" xlink:href="#m2a25320684" y="241.056"/>
     <use style="stroke:#000000;stroke-linejoin:miter;" x="294.435077" xlink:href="#m2a25320684" y="274.32"/>
     <use style="stroke:#000000;stroke-linejoin:miter;" x="297.9188" xlink:href="#m2a25320684" y="241.056"/>
     <use style="stroke:#000000;stroke-linejoin:miter;" x="301.753401" xlink:href="#m2a25320684" y="241.056"/>
     <use style="stroke:#000000;stroke-linejoin:miter;" x="304.460178" xlink:href="#m2a25320684" y="274.32"/>
     <use style="stroke:#000000;stroke-linejoin:miter;" x="307.943901" xlink:href="#m2a25320684" y="241.056"/>
     <use style="stroke:#000000;stroke-linejoin:miter;" x="311.778502" xlink:href="#m2a25320684" y="241.056"/>
     <use style="stroke:#000000;stroke-linejoin:miter;" x="314.48528" xlink:href="#m2a25320684" y="274.32"/>
     <use style="stroke:#000000;stroke-linejoin:miter;" x="317.969002" xlink:href="#m2a25320684" y="241.056"/>
     <use style="stroke:#000000;stroke-linejoin:miter;" x="321.803603" xlink:href="#m2a25320684" y="241.056"/>
     <use style="stroke:#000000;stroke-linejoin:miter;" x="324.510381" xlink:href="#m2a25320684" y="274.32"/>
     <use style="stroke:#000000;stroke-linejoin:miter;" x="327.994103" xlink:href="#m2a25320684" y="241.056"/>
     <use style="stroke:#000000;stroke-linejoin:miter;" x="331.828705" xlink:href="#m2a25320684" y="241.056"/>
     <use style="stroke:#000000;stroke-linejoin:miter;" x="334.535482" xlink:href="#m2a25320684" y="274.32"/>
     <use style="stroke:#000000;stroke-linejoin:miter;" x="338.019204" xlink:href="#m2a25320684" y="241.056"/>
     <use style="stroke:#000000;stroke-linejoin:miter;" x="341.853806" xlink:href="#m2a25320684" y="241.056"/>
     <use style="stroke:#000000;stroke-linejoin:miter;" x="344.560583" xlink:href="#m2a25320684" y="274.32"/>
     <use style="stroke:#000000;stroke-linejoin:miter;" x="348.044306" xlink:href="#m2a25320684" y="241.056"/>
     <use style="stroke:#000000;stroke-linejoin:miter;" x="351.878907" xlink:href="#m2a25320684" y="241.056"/>
     <use style="stroke:#000000;stroke-linejoin:miter;" x="354.585684" xlink:href="#m2a25320684" y="274.32"/>
     <use style="stroke:#000000;stroke-linejoin:miter;" x="358.069407" xlink:href="#m2a25320684" y="241.056"/>
     <use style="stroke:#000000;stroke-linejoin:miter;" x="361.904008" xlink:href="#m2a25320684" y="241.056"/>
     <use style="stroke:#000000;stroke-linejoin:miter;" x="364.610785" xlink:href="#m2a25320684" y="274.32"/>
     <use style="stroke:#000000;stroke-linejoin:miter;" x="368.094508" xlink:href="#m2a25320684" y="241.056"/>
     <use style="stroke:#000000;stroke-linejoin:miter;" x="371.929109" xlink:href="#m2a25320684" y="241.056"/>
     <use style="stroke:#000000;stroke-linejoin:miter;" x="374.635886" xlink:href="#m2a25320684" y="274.32"/>
     <use style="stroke:#000000;stroke-linejoin:miter;" x="378.119609" xlink:href="#m2a25320684" y="241.056"/>
     <use style="stroke:#000000;stroke-linejoin:miter;" x="381.95421" xlink:href="#m2a25320684" y="241.056"/>
     <use style="stroke:#000000;stroke-linejoin:miter;" x="384.660987" xlink:href="#m2a25320684" y="274.32"/>
     <use style="stroke:#000000;stroke-linejoin:miter;" x="388.14471" xlink:href="#m2a25320684" y="241.056"/>
     <use style="stroke:#000000;stroke-linejoin:miter;" x="391.979311" xlink:href="#m2a25320684" y="241.056"/>
     <use style="stroke:#000000;stroke-linejoin:miter;" x="394.686089" xlink:href="#m2a25320684" y="274.32"/>
     <use style="stroke:#000000;stroke-linejoin:miter;" x="398.169811" xlink:href="#m2a25320684" y="241.056"/>
    </g>
   </g>
   <g id="patch_3">
    <path d="M 57.6 307.584 
L 57.6 41.472 
" style="fill:none;stroke:#000000;stroke-linecap:square;stroke-linejoin:miter;stroke-width:0.8;"/>
   </g>
   <g id="patch_4">
    <path d="M 414.72 307.584 
L 414.72 41.472 
" style="fill:none;stroke:#000000;stroke-linecap:square;stroke-linejoin:miter;stroke-width:0.8;"/>
   </g>
   <g id="patch_5">
    <path d="M 57.6 307.584 
L 414.72 307.584 
" style="fill:none;stroke:#000000;stroke-linecap:square;stroke-linejoin:miter;stroke-width:0.8;"/>
   </g>
   <g id="patch_6">
    <path d="M 57.6 41.472 
L 414.72 41.472 
" style="fill:none;stroke:#000000;stroke-linecap:square;stroke-linejoin:miter;stroke-width:0.8;"/>
   </g>
   <g id="legend_1">
    <g id="patch_7">
     <path d="M 362.995 108.1845 
L 407.72 108.1845 
Q 409.72 108.1845 409.72 106.1845 
L 409.72 48.472 
Q 409.72 46.472 407.72 46.472 
L 362.995 46.472 
Q 360.995 46.472 360.995 48.472 
L 360.995 106.1845 
Q 360.995 108.1845 362.995 108.1845 
z
" style="fill:#ffffff;opacity:0.8;stroke:#cccccc;stroke-linejoin:miter;"/>
    </g>
    <g id="line2d_23"/>
    <g id="line2d_24">
     <g>
      <use style="stroke:#000000;" x="374.995" xlink:href="#m676c9c9925" y="54.570438"/>
     </g>
    </g>
    <g id="text_21">
     <!-- 10 -->
     <g transform="translate(392.995 58.070438)scale(0.1 -0.1)">
      <use xlink:href="#DejaVuSans-49"/>
      <use x="63.623047" xlink:href="#DejaVuSans-48"/>
     </g>
    </g>
    <g id="line2d_25"/>
    <g id="line2d_26">
     <g>
      <use style="stroke:#000000;stroke-linejoin:bevel;" x="374.995" xlink:href="#m7a4f245344" y="69.248563"/>
     </g>
    </g>
    <g id="text_22">
     <!-- 20 -->
     <g transform="translate(392.995 72.748563)scale(0.1 -0.1)">
      <use xlink:href="#DejaVuSans-50"/>
      <use x="63.623047" xlink:href="#DejaVuSans-48"/>
     </g>
    </g>
    <g id="line2d_27"/>
    <g id="line2d_28">
     <g>
      <use style="stroke:#000000;stroke-linejoin:miter;" x="374.995" xlink:href="#m11649bfe6f" y="83.926688"/>
     </g>
    </g>
    <g id="text_23">
     <!-- 33 -->
     <g transform="translate(392.995 87.426688)scale(0.1 -0.1)">
      <use xlink:href="#DejaVuSans-51"/>
      <use x="63.623047" xlink:href="#DejaVuSans-51"/>
     </g>
    </g>
    <g id="line2d_29"/>
    <g id="line2d_30">
     <g>
      <use style="stroke:#000000;stroke-linejoin:miter;" x="374.995" xlink:href="#m2a25320684" y="98.604813"/>
     </g>
    </g>
    <g id="text_24">
     <!-- 50 -->
     <g transform="translate(392.995 102.104813)scale(0.1 -0.1)">
      <use xlink:href="#DejaVuSans-53"/>
      <use x="63.623047" xlink:href="#DejaVuSans-48"/>
     </g>
    </g>
   </g>
  </g>
 </g>
 <defs>
  <clipPath id="p64667c532a">
   <rect height="266.112" width="357.12" x="57.6" y="41.472"/>
  </clipPath>
 </defs>
</svg>
