<?xml version="1.0" encoding="utf-8" standalone="no"?>
<!DOCTYPE svg PUBLIC "-//W3C//DTD SVG 1.1//EN"
  "http://www.w3.org/Graphics/SVG/1.1/DTD/svg11.dtd">
<!-- Created with matplotlib (https://matplotlib.org/) -->
<svg height="345.6pt" version="1.1" viewBox="0 0 460.8 345.6" width="460.8pt" xmlns="http://www.w3.org/2000/svg" xmlns:xlink="http://www.w3.org/1999/xlink">
 <defs>
  <style type="text/css">
*{stroke-linecap:butt;stroke-linejoin:round;}
  </style>
 </defs>
 <g id="figure_1">
  <g id="patch_1">
   <path d="M 0 345.6 
L 460.8 345.6 
L 460.8 0 
L 0 0 
z
" style="fill:#ffffff;"/>
  </g>
  <g id="axes_1">
   <g id="patch_2">
    <path d="M 57.6 307.584 
L 414.72 307.584 
L 414.72 41.472 
L 57.6 41.472 
z
" style="fill:#ffffff;"/>
   </g>
   <g id="matplotlib.axis_1">
    <g id="xtick_1">
     <g id="line2d_1">
      <defs>
       <path d="M 0 0 
L 0 3.5 
" id="m8836ab38ae" style="stroke:#000000;stroke-width:0.8;"/>
      </defs>
      <g>
       <use style="stroke:#000000;stroke-width:0.8;" x="91.342186" xlink:href="#m8836ab38ae" y="307.584"/>
      </g>
     </g>
     <g id="text_1">
      <!-- −4 -->
      <defs>
       <path d="M 10.59375 35.5 
L 73.1875 35.5 
L 73.1875 27.203125 
L 10.59375 27.203125 
z
" id="DejaVuSans-8722"/>
       <path d="M 37.796875 64.3125 
L 12.890625 25.390625 
L 37.796875 25.390625 
z
M 35.203125 72.90625 
L 47.609375 72.90625 
L 47.609375 25.390625 
L 58.015625 25.390625 
L 58.015625 17.1875 
L 47.609375 17.1875 
L 47.609375 0 
L 37.796875 0 
L 37.796875 17.1875 
L 4.890625 17.1875 
L 4.890625 26.703125 
z
" id="DejaVuSans-52"/>
      </defs>
      <g transform="translate(83.971092 322.182437)scale(0.1 -0.1)">
       <use xlink:href="#DejaVuSans-8722"/>
       <use x="83.789062" xlink:href="#DejaVuSans-52"/>
      </g>
     </g>
    </g>
    <g id="xtick_2">
     <g id="line2d_2">
      <g>
       <use style="stroke:#000000;stroke-width:0.8;" x="164.298264" xlink:href="#m8836ab38ae" y="307.584"/>
      </g>
     </g>
     <g id="text_2">
      <!-- −2 -->
      <defs>
       <path d="M 19.1875 8.296875 
L 53.609375 8.296875 
L 53.609375 0 
L 7.328125 0 
L 7.328125 8.296875 
Q 12.9375 14.109375 22.625 23.890625 
Q 32.328125 33.6875 34.8125 36.53125 
Q 39.546875 41.84375 41.421875 45.53125 
Q 43.3125 49.21875 43.3125 52.78125 
Q 43.3125 58.59375 39.234375 62.25 
Q 35.15625 65.921875 28.609375 65.921875 
Q 23.96875 65.921875 18.8125 64.3125 
Q 13.671875 62.703125 7.8125 59.421875 
L 7.8125 69.390625 
Q 13.765625 71.78125 18.9375 73 
Q 24.125 74.21875 28.421875 74.21875 
Q 39.75 74.21875 46.484375 68.546875 
Q 53.21875 62.890625 53.21875 53.421875 
Q 53.21875 48.921875 51.53125 44.890625 
Q 49.859375 40.875 45.40625 35.40625 
Q 44.1875 33.984375 37.640625 27.21875 
Q 31.109375 20.453125 19.1875 8.296875 
z
" id="DejaVuSans-50"/>
      </defs>
      <g transform="translate(156.92717 322.182437)scale(0.1 -0.1)">
       <use xlink:href="#DejaVuSans-8722"/>
       <use x="83.789062" xlink:href="#DejaVuSans-50"/>
      </g>
     </g>
    </g>
    <g id="xtick_3">
     <g id="line2d_3">
      <g>
       <use style="stroke:#000000;stroke-width:0.8;" x="237.254341" xlink:href="#m8836ab38ae" y="307.584"/>
      </g>
     </g>
     <g id="text_3">
      <!-- 0 -->
      <defs>
       <path d="M 31.78125 66.40625 
Q 24.171875 66.40625 20.328125 58.90625 
Q 16.5 51.421875 16.5 36.375 
Q 16.5 21.390625 20.328125 13.890625 
Q 24.171875 6.390625 31.78125 6.390625 
Q 39.453125 6.390625 43.28125 13.890625 
Q 47.125 21.390625 47.125 36.375 
Q 47.125 51.421875 43.28125 58.90625 
Q 39.453125 66.40625 31.78125 66.40625 
z
M 31.78125 74.21875 
Q 44.046875 74.21875 50.515625 64.515625 
Q 56.984375 54.828125 56.984375 36.375 
Q 56.984375 17.96875 50.515625 8.265625 
Q 44.046875 -1.421875 31.78125 -1.421875 
Q 19.53125 -1.421875 13.0625 8.265625 
Q 6.59375 17.96875 6.59375 36.375 
Q 6.59375 54.828125 13.0625 64.515625 
Q 19.53125 74.21875 31.78125 74.21875 
z
" id="DejaVuSans-48"/>
      </defs>
      <g transform="translate(234.073091 322.182437)scale(0.1 -0.1)">
       <use xlink:href="#DejaVuSans-48"/>
      </g>
     </g>
    </g>
    <g id="xtick_4">
     <g id="line2d_4">
      <g>
       <use style="stroke:#000000;stroke-width:0.8;" x="310.210419" xlink:href="#m8836ab38ae" y="307.584"/>
      </g>
     </g>
     <g id="text_4">
      <!-- 2 -->
      <g transform="translate(307.029169 322.182437)scale(0.1 -0.1)">
       <use xlink:href="#DejaVuSans-50"/>
      </g>
     </g>
    </g>
    <g id="xtick_5">
     <g id="line2d_5">
      <g>
       <use style="stroke:#000000;stroke-width:0.8;" x="383.166496" xlink:href="#m8836ab38ae" y="307.584"/>
      </g>
     </g>
     <g id="text_5">
      <!-- 4 -->
      <g transform="translate(379.985246 322.182437)scale(0.1 -0.1)">
       <use xlink:href="#DejaVuSans-52"/>
      </g>
     </g>
    </g>
    <g id="text_6">
     <!-- Distância entre MNs (mm) -->
     <defs>
      <path d="M 19.671875 64.796875 
L 19.671875 8.109375 
L 31.59375 8.109375 
Q 46.6875 8.109375 53.6875 14.9375 
Q 60.6875 21.78125 60.6875 36.53125 
Q 60.6875 51.171875 53.6875 57.984375 
Q 46.6875 64.796875 31.59375 64.796875 
z
M 9.8125 72.90625 
L 30.078125 72.90625 
Q 51.265625 72.90625 61.171875 64.09375 
Q 71.09375 55.28125 71.09375 36.53125 
Q 71.09375 17.671875 61.125 8.828125 
Q 51.171875 0 30.078125 0 
L 9.8125 0 
z
" id="DejaVuSans-68"/>
      <path d="M 9.421875 54.6875 
L 18.40625 54.6875 
L 18.40625 0 
L 9.421875 0 
z
M 9.421875 75.984375 
L 18.40625 75.984375 
L 18.40625 64.59375 
L 9.421875 64.59375 
z
" id="DejaVuSans-105"/>
      <path d="M 44.28125 53.078125 
L 44.28125 44.578125 
Q 40.484375 46.53125 36.375 47.5 
Q 32.28125 48.484375 27.875 48.484375 
Q 21.1875 48.484375 17.84375 46.4375 
Q 14.5 44.390625 14.5 40.28125 
Q 14.5 37.15625 16.890625 35.375 
Q 19.28125 33.59375 26.515625 31.984375 
L 29.59375 31.296875 
Q 39.15625 29.25 43.1875 25.515625 
Q 47.21875 21.78125 47.21875 15.09375 
Q 47.21875 7.46875 41.1875 3.015625 
Q 35.15625 -1.421875 24.609375 -1.421875 
Q 20.21875 -1.421875 15.453125 -0.5625 
Q 10.6875 0.296875 5.421875 2 
L 5.421875 11.28125 
Q 10.40625 8.6875 15.234375 7.390625 
Q 20.0625 6.109375 24.8125 6.109375 
Q 31.15625 6.109375 34.5625 8.28125 
Q 37.984375 10.453125 37.984375 14.40625 
Q 37.984375 18.0625 35.515625 20.015625 
Q 33.0625 21.96875 24.703125 23.78125 
L 21.578125 24.515625 
Q 13.234375 26.265625 9.515625 29.90625 
Q 5.8125 33.546875 5.8125 39.890625 
Q 5.8125 47.609375 11.28125 51.796875 
Q 16.75 56 26.8125 56 
Q 31.78125 56 36.171875 55.265625 
Q 40.578125 54.546875 44.28125 53.078125 
z
" id="DejaVuSans-115"/>
      <path d="M 18.3125 70.21875 
L 18.3125 54.6875 
L 36.8125 54.6875 
L 36.8125 47.703125 
L 18.3125 47.703125 
L 18.3125 18.015625 
Q 18.3125 11.328125 20.140625 9.421875 
Q 21.96875 7.515625 27.59375 7.515625 
L 36.8125 7.515625 
L 36.8125 0 
L 27.59375 0 
Q 17.1875 0 13.234375 3.875 
Q 9.28125 7.765625 9.28125 18.015625 
L 9.28125 47.703125 
L 2.6875 47.703125 
L 2.6875 54.6875 
L 9.28125 54.6875 
L 9.28125 70.21875 
z
" id="DejaVuSans-116"/>
      <path d="M 34.28125 27.484375 
Q 23.390625 27.484375 19.1875 25 
Q 14.984375 22.515625 14.984375 16.5 
Q 14.984375 11.71875 18.140625 8.90625 
Q 21.296875 6.109375 26.703125 6.109375 
Q 34.1875 6.109375 38.703125 11.40625 
Q 43.21875 16.703125 43.21875 25.484375 
L 43.21875 27.484375 
z
M 52.203125 31.203125 
L 52.203125 0 
L 43.21875 0 
L 43.21875 8.296875 
Q 40.140625 3.328125 35.546875 0.953125 
Q 30.953125 -1.421875 24.3125 -1.421875 
Q 15.921875 -1.421875 10.953125 3.296875 
Q 6 8.015625 6 15.921875 
Q 6 25.140625 12.171875 29.828125 
Q 18.359375 34.515625 30.609375 34.515625 
L 43.21875 34.515625 
L 43.21875 35.40625 
Q 43.21875 41.609375 39.140625 45 
Q 35.0625 48.390625 27.6875 48.390625 
Q 23 48.390625 18.546875 47.265625 
Q 14.109375 46.140625 10.015625 43.890625 
L 10.015625 52.203125 
Q 14.9375 54.109375 19.578125 55.046875 
Q 24.21875 56 28.609375 56 
Q 40.484375 56 46.34375 49.84375 
Q 52.203125 43.703125 52.203125 31.203125 
z
M 25.390625 79.984375 
L 32.625 79.984375 
L 44.578125 61.625 
L 37.796875 61.625 
L 29 73.578125 
L 20.21875 61.625 
L 13.421875 61.625 
z
" id="DejaVuSans-226"/>
      <path d="M 54.890625 33.015625 
L 54.890625 0 
L 45.90625 0 
L 45.90625 32.71875 
Q 45.90625 40.484375 42.875 44.328125 
Q 39.84375 48.1875 33.796875 48.1875 
Q 26.515625 48.1875 22.3125 43.546875 
Q 18.109375 38.921875 18.109375 30.90625 
L 18.109375 0 
L 9.078125 0 
L 9.078125 54.6875 
L 18.109375 54.6875 
L 18.109375 46.1875 
Q 21.34375 51.125 25.703125 53.5625 
Q 30.078125 56 35.796875 56 
Q 45.21875 56 50.046875 50.171875 
Q 54.890625 44.34375 54.890625 33.015625 
z
" id="DejaVuSans-110"/>
      <path d="M 48.78125 52.59375 
L 48.78125 44.1875 
Q 44.96875 46.296875 41.140625 47.34375 
Q 37.3125 48.390625 33.40625 48.390625 
Q 24.65625 48.390625 19.8125 42.84375 
Q 14.984375 37.3125 14.984375 27.296875 
Q 14.984375 17.28125 19.8125 11.734375 
Q 24.65625 6.203125 33.40625 6.203125 
Q 37.3125 6.203125 41.140625 7.25 
Q 44.96875 8.296875 48.78125 10.40625 
L 48.78125 2.09375 
Q 45.015625 0.34375 40.984375 -0.53125 
Q 36.96875 -1.421875 32.421875 -1.421875 
Q 20.0625 -1.421875 12.78125 6.34375 
Q 5.515625 14.109375 5.515625 27.296875 
Q 5.515625 40.671875 12.859375 48.328125 
Q 20.21875 56 33.015625 56 
Q 37.15625 56 41.109375 55.140625 
Q 45.0625 54.296875 48.78125 52.59375 
z
" id="DejaVuSans-99"/>
      <path d="M 34.28125 27.484375 
Q 23.390625 27.484375 19.1875 25 
Q 14.984375 22.515625 14.984375 16.5 
Q 14.984375 11.71875 18.140625 8.90625 
Q 21.296875 6.109375 26.703125 6.109375 
Q 34.1875 6.109375 38.703125 11.40625 
Q 43.21875 16.703125 43.21875 25.484375 
L 43.21875 27.484375 
z
M 52.203125 31.203125 
L 52.203125 0 
L 43.21875 0 
L 43.21875 8.296875 
Q 40.140625 3.328125 35.546875 0.953125 
Q 30.953125 -1.421875 24.3125 -1.421875 
Q 15.921875 -1.421875 10.953125 3.296875 
Q 6 8.015625 6 15.921875 
Q 6 25.140625 12.171875 29.828125 
Q 18.359375 34.515625 30.609375 34.515625 
L 43.21875 34.515625 
L 43.21875 35.40625 
Q 43.21875 41.609375 39.140625 45 
Q 35.0625 48.390625 27.6875 48.390625 
Q 23 48.390625 18.546875 47.265625 
Q 14.109375 46.140625 10.015625 43.890625 
L 10.015625 52.203125 
Q 14.9375 54.109375 19.578125 55.046875 
Q 24.21875 56 28.609375 56 
Q 40.484375 56 46.34375 49.84375 
Q 52.203125 43.703125 52.203125 31.203125 
z
" id="DejaVuSans-97"/>
      <path id="DejaVuSans-32"/>
      <path d="M 56.203125 29.59375 
L 56.203125 25.203125 
L 14.890625 25.203125 
Q 15.484375 15.921875 20.484375 11.0625 
Q 25.484375 6.203125 34.421875 6.203125 
Q 39.59375 6.203125 44.453125 7.46875 
Q 49.3125 8.734375 54.109375 11.28125 
L 54.109375 2.78125 
Q 49.265625 0.734375 44.1875 -0.34375 
Q 39.109375 -1.421875 33.890625 -1.421875 
Q 20.796875 -1.421875 13.15625 6.1875 
Q 5.515625 13.8125 5.515625 26.8125 
Q 5.515625 40.234375 12.765625 48.109375 
Q 20.015625 56 32.328125 56 
Q 43.359375 56 49.78125 48.890625 
Q 56.203125 41.796875 56.203125 29.59375 
z
M 47.21875 32.234375 
Q 47.125 39.59375 43.09375 43.984375 
Q 39.0625 48.390625 32.421875 48.390625 
Q 24.90625 48.390625 20.390625 44.140625 
Q 15.875 39.890625 15.1875 32.171875 
z
" id="DejaVuSans-101"/>
      <path d="M 41.109375 46.296875 
Q 39.59375 47.171875 37.8125 47.578125 
Q 36.03125 48 33.890625 48 
Q 26.265625 48 22.1875 43.046875 
Q 18.109375 38.09375 18.109375 28.8125 
L 18.109375 0 
L 9.078125 0 
L 9.078125 54.6875 
L 18.109375 54.6875 
L 18.109375 46.1875 
Q 20.953125 51.171875 25.484375 53.578125 
Q 30.03125 56 36.53125 56 
Q 37.453125 56 38.578125 55.875 
Q 39.703125 55.765625 41.0625 55.515625 
z
" id="DejaVuSans-114"/>
      <path d="M 9.8125 72.90625 
L 24.515625 72.90625 
L 43.109375 23.296875 
L 61.8125 72.90625 
L 76.515625 72.90625 
L 76.515625 0 
L 66.890625 0 
L 66.890625 64.015625 
L 48.09375 14.015625 
L 38.1875 14.015625 
L 19.390625 64.015625 
L 19.390625 0 
L 9.8125 0 
z
" id="DejaVuSans-77"/>
      <path d="M 9.8125 72.90625 
L 23.09375 72.90625 
L 55.421875 11.921875 
L 55.421875 72.90625 
L 64.984375 72.90625 
L 64.984375 0 
L 51.703125 0 
L 19.390625 60.984375 
L 19.390625 0 
L 9.8125 0 
z
" id="DejaVuSans-78"/>
      <path d="M 31 75.875 
Q 24.46875 64.65625 21.28125 53.65625 
Q 18.109375 42.671875 18.109375 31.390625 
Q 18.109375 20.125 21.3125 9.0625 
Q 24.515625 -2 31 -13.1875 
L 23.1875 -13.1875 
Q 15.875 -1.703125 12.234375 9.375 
Q 8.59375 20.453125 8.59375 31.390625 
Q 8.59375 42.28125 12.203125 53.3125 
Q 15.828125 64.359375 23.1875 75.875 
z
" id="DejaVuSans-40"/>
      <path d="M 52 44.1875 
Q 55.375 50.25 60.0625 53.125 
Q 64.75 56 71.09375 56 
Q 79.640625 56 84.28125 50.015625 
Q 88.921875 44.046875 88.921875 33.015625 
L 88.921875 0 
L 79.890625 0 
L 79.890625 32.71875 
Q 79.890625 40.578125 77.09375 44.375 
Q 74.3125 48.1875 68.609375 48.1875 
Q 61.625 48.1875 57.5625 43.546875 
Q 53.515625 38.921875 53.515625 30.90625 
L 53.515625 0 
L 44.484375 0 
L 44.484375 32.71875 
Q 44.484375 40.625 41.703125 44.40625 
Q 38.921875 48.1875 33.109375 48.1875 
Q 26.21875 48.1875 22.15625 43.53125 
Q 18.109375 38.875 18.109375 30.90625 
L 18.109375 0 
L 9.078125 0 
L 9.078125 54.6875 
L 18.109375 54.6875 
L 18.109375 46.1875 
Q 21.1875 51.21875 25.484375 53.609375 
Q 29.78125 56 35.6875 56 
Q 41.65625 56 45.828125 52.96875 
Q 50 49.953125 52 44.1875 
z
" id="DejaVuSans-109"/>
      <path d="M 8.015625 75.875 
L 15.828125 75.875 
Q 23.140625 64.359375 26.78125 53.3125 
Q 30.421875 42.28125 30.421875 31.390625 
Q 30.421875 20.453125 26.78125 9.375 
Q 23.140625 -1.703125 15.828125 -13.1875 
L 8.015625 -13.1875 
Q 14.5 -2 17.703125 9.0625 
Q 20.90625 20.125 20.90625 31.390625 
Q 20.90625 42.671875 17.703125 53.65625 
Q 14.5 64.65625 8.015625 75.875 
z
" id="DejaVuSans-41"/>
     </defs>
     <g transform="translate(170.51625 335.860562)scale(0.1 -0.1)">
      <use xlink:href="#DejaVuSans-68"/>
      <use x="77.001953" xlink:href="#DejaVuSans-105"/>
      <use x="104.785156" xlink:href="#DejaVuSans-115"/>
      <use x="156.884766" xlink:href="#DejaVuSans-116"/>
      <use x="196.09375" xlink:href="#DejaVuSans-226"/>
      <use x="257.373047" xlink:href="#DejaVuSans-110"/>
      <use x="320.751953" xlink:href="#DejaVuSans-99"/>
      <use x="375.732422" xlink:href="#DejaVuSans-105"/>
      <use x="403.515625" xlink:href="#DejaVuSans-97"/>
      <use x="464.794922" xlink:href="#DejaVuSans-32"/>
      <use x="496.582031" xlink:href="#DejaVuSans-101"/>
      <use x="558.105469" xlink:href="#DejaVuSans-110"/>
      <use x="621.484375" xlink:href="#DejaVuSans-116"/>
      <use x="660.693359" xlink:href="#DejaVuSans-114"/>
      <use x="701.775391" xlink:href="#DejaVuSans-101"/>
      <use x="763.298828" xlink:href="#DejaVuSans-32"/>
      <use x="795.085938" xlink:href="#DejaVuSans-77"/>
      <use x="881.365234" xlink:href="#DejaVuSans-78"/>
      <use x="956.169922" xlink:href="#DejaVuSans-115"/>
      <use x="1008.269531" xlink:href="#DejaVuSans-32"/>
      <use x="1040.056641" xlink:href="#DejaVuSans-40"/>
      <use x="1079.070312" xlink:href="#DejaVuSans-109"/>
      <use x="1176.482422" xlink:href="#DejaVuSans-109"/>
      <use x="1273.894531" xlink:href="#DejaVuSans-41"/>
     </g>
    </g>
   </g>
   <g id="matplotlib.axis_2">
    <g id="ytick_1">
     <g id="line2d_6">
      <defs>
       <path d="M 0 0 
L -3.5 0 
" id="m1bf7327d18" style="stroke:#000000;stroke-width:0.8;"/>
      </defs>
      <g>
       <use style="stroke:#000000;stroke-width:0.8;" x="57.6" xlink:href="#m1bf7327d18" y="299.902311"/>
      </g>
     </g>
     <g id="text_7">
      <!-- −100 -->
      <defs>
       <path d="M 12.40625 8.296875 
L 28.515625 8.296875 
L 28.515625 63.921875 
L 10.984375 60.40625 
L 10.984375 69.390625 
L 28.421875 72.90625 
L 38.28125 72.90625 
L 38.28125 8.296875 
L 54.390625 8.296875 
L 54.390625 0 
L 12.40625 0 
z
" id="DejaVuSans-49"/>
      </defs>
      <g transform="translate(23.132812 303.70153)scale(0.1 -0.1)">
       <use xlink:href="#DejaVuSans-8722"/>
       <use x="83.789062" xlink:href="#DejaVuSans-49"/>
       <use x="147.412109" xlink:href="#DejaVuSans-48"/>
       <use x="211.035156" xlink:href="#DejaVuSans-48"/>
      </g>
     </g>
    </g>
    <g id="ytick_2">
     <g id="line2d_7">
      <g>
       <use style="stroke:#000000;stroke-width:0.8;" x="57.6" xlink:href="#m1bf7327d18" y="250.635449"/>
      </g>
     </g>
     <g id="text_8">
      <!-- −80 -->
      <defs>
       <path d="M 31.78125 34.625 
Q 24.75 34.625 20.71875 30.859375 
Q 16.703125 27.09375 16.703125 20.515625 
Q 16.703125 13.921875 20.71875 10.15625 
Q 24.75 6.390625 31.78125 6.390625 
Q 38.8125 6.390625 42.859375 10.171875 
Q 46.921875 13.96875 46.921875 20.515625 
Q 46.921875 27.09375 42.890625 30.859375 
Q 38.875 34.625 31.78125 34.625 
z
M 21.921875 38.8125 
Q 15.578125 40.375 12.03125 44.71875 
Q 8.5 49.078125 8.5 55.328125 
Q 8.5 64.0625 14.71875 69.140625 
Q 20.953125 74.21875 31.78125 74.21875 
Q 42.671875 74.21875 48.875 69.140625 
Q 55.078125 64.0625 55.078125 55.328125 
Q 55.078125 49.078125 51.53125 44.71875 
Q 48 40.375 41.703125 38.8125 
Q 48.828125 37.15625 52.796875 32.3125 
Q 56.78125 27.484375 56.78125 20.515625 
Q 56.78125 9.90625 50.3125 4.234375 
Q 43.84375 -1.421875 31.78125 -1.421875 
Q 19.734375 -1.421875 13.25 4.234375 
Q 6.78125 9.90625 6.78125 20.515625 
Q 6.78125 27.484375 10.78125 32.3125 
Q 14.796875 37.15625 21.921875 38.8125 
z
M 18.3125 54.390625 
Q 18.3125 48.734375 21.84375 45.5625 
Q 25.390625 42.390625 31.78125 42.390625 
Q 38.140625 42.390625 41.71875 45.5625 
Q 45.3125 48.734375 45.3125 54.390625 
Q 45.3125 60.0625 41.71875 63.234375 
Q 38.140625 66.40625 31.78125 66.40625 
Q 25.390625 66.40625 21.84375 63.234375 
Q 18.3125 60.0625 18.3125 54.390625 
z
" id="DejaVuSans-56"/>
      </defs>
      <g transform="translate(29.495313 254.434667)scale(0.1 -0.1)">
       <use xlink:href="#DejaVuSans-8722"/>
       <use x="83.789062" xlink:href="#DejaVuSans-56"/>
       <use x="147.412109" xlink:href="#DejaVuSans-48"/>
      </g>
     </g>
    </g>
    <g id="ytick_3">
     <g id="line2d_8">
      <g>
       <use style="stroke:#000000;stroke-width:0.8;" x="57.6" xlink:href="#m1bf7327d18" y="201.368587"/>
      </g>
     </g>
     <g id="text_9">
      <!-- −60 -->
      <defs>
       <path d="M 33.015625 40.375 
Q 26.375 40.375 22.484375 35.828125 
Q 18.609375 31.296875 18.609375 23.390625 
Q 18.609375 15.53125 22.484375 10.953125 
Q 26.375 6.390625 33.015625 6.390625 
Q 39.65625 6.390625 43.53125 10.953125 
Q 47.40625 15.53125 47.40625 23.390625 
Q 47.40625 31.296875 43.53125 35.828125 
Q 39.65625 40.375 33.015625 40.375 
z
M 52.59375 71.296875 
L 52.59375 62.3125 
Q 48.875 64.0625 45.09375 64.984375 
Q 41.3125 65.921875 37.59375 65.921875 
Q 27.828125 65.921875 22.671875 59.328125 
Q 17.53125 52.734375 16.796875 39.40625 
Q 19.671875 43.65625 24.015625 45.921875 
Q 28.375 48.1875 33.59375 48.1875 
Q 44.578125 48.1875 50.953125 41.515625 
Q 57.328125 34.859375 57.328125 23.390625 
Q 57.328125 12.15625 50.6875 5.359375 
Q 44.046875 -1.421875 33.015625 -1.421875 
Q 20.359375 -1.421875 13.671875 8.265625 
Q 6.984375 17.96875 6.984375 36.375 
Q 6.984375 53.65625 15.1875 63.9375 
Q 23.390625 74.21875 37.203125 74.21875 
Q 40.921875 74.21875 44.703125 73.484375 
Q 48.484375 72.75 52.59375 71.296875 
z
" id="DejaVuSans-54"/>
      </defs>
      <g transform="translate(29.495313 205.167805)scale(0.1 -0.1)">
       <use xlink:href="#DejaVuSans-8722"/>
       <use x="83.789062" xlink:href="#DejaVuSans-54"/>
       <use x="147.412109" xlink:href="#DejaVuSans-48"/>
      </g>
     </g>
    </g>
    <g id="ytick_4">
     <g id="line2d_9">
      <g>
       <use style="stroke:#000000;stroke-width:0.8;" x="57.6" xlink:href="#m1bf7327d18" y="152.101724"/>
      </g>
     </g>
     <g id="text_10">
      <!-- −40 -->
      <g transform="translate(29.495313 155.900943)scale(0.1 -0.1)">
       <use xlink:href="#DejaVuSans-8722"/>
       <use x="83.789062" xlink:href="#DejaVuSans-52"/>
       <use x="147.412109" xlink:href="#DejaVuSans-48"/>
      </g>
     </g>
    </g>
    <g id="ytick_5">
     <g id="line2d_10">
      <g>
       <use style="stroke:#000000;stroke-width:0.8;" x="57.6" xlink:href="#m1bf7327d18" y="102.834862"/>
      </g>
     </g>
     <g id="text_11">
      <!-- −20 -->
      <g transform="translate(29.495313 106.634081)scale(0.1 -0.1)">
       <use xlink:href="#DejaVuSans-8722"/>
       <use x="83.789062" xlink:href="#DejaVuSans-50"/>
       <use x="147.412109" xlink:href="#DejaVuSans-48"/>
      </g>
     </g>
    </g>
    <g id="ytick_6">
     <g id="line2d_11">
      <g>
       <use style="stroke:#000000;stroke-width:0.8;" x="57.6" xlink:href="#m1bf7327d18" y="53.568"/>
      </g>
     </g>
     <g id="text_12">
      <!-- 0 -->
      <g transform="translate(44.2375 57.367219)scale(0.1 -0.1)">
       <use xlink:href="#DejaVuSans-48"/>
      </g>
     </g>
    </g>
    <g id="text_13">
     <!-- Amplitudes dos PIPS recorrentes ($\mu$V) -->
     <defs>
      <path d="M 34.1875 63.1875 
L 20.796875 26.90625 
L 47.609375 26.90625 
z
M 28.609375 72.90625 
L 39.796875 72.90625 
L 67.578125 0 
L 57.328125 0 
L 50.6875 18.703125 
L 17.828125 18.703125 
L 11.1875 0 
L 0.78125 0 
z
" id="DejaVuSans-65"/>
      <path d="M 18.109375 8.203125 
L 18.109375 -20.796875 
L 9.078125 -20.796875 
L 9.078125 54.6875 
L 18.109375 54.6875 
L 18.109375 46.390625 
Q 20.953125 51.265625 25.265625 53.625 
Q 29.59375 56 35.59375 56 
Q 45.5625 56 51.78125 48.09375 
Q 58.015625 40.1875 58.015625 27.296875 
Q 58.015625 14.40625 51.78125 6.484375 
Q 45.5625 -1.421875 35.59375 -1.421875 
Q 29.59375 -1.421875 25.265625 0.953125 
Q 20.953125 3.328125 18.109375 8.203125 
z
M 48.6875 27.296875 
Q 48.6875 37.203125 44.609375 42.84375 
Q 40.53125 48.484375 33.40625 48.484375 
Q 26.265625 48.484375 22.1875 42.84375 
Q 18.109375 37.203125 18.109375 27.296875 
Q 18.109375 17.390625 22.1875 11.75 
Q 26.265625 6.109375 33.40625 6.109375 
Q 40.53125 6.109375 44.609375 11.75 
Q 48.6875 17.390625 48.6875 27.296875 
z
" id="DejaVuSans-112"/>
      <path d="M 9.421875 75.984375 
L 18.40625 75.984375 
L 18.40625 0 
L 9.421875 0 
z
" id="DejaVuSans-108"/>
      <path d="M 8.5 21.578125 
L 8.5 54.6875 
L 17.484375 54.6875 
L 17.484375 21.921875 
Q 17.484375 14.15625 20.5 10.265625 
Q 23.53125 6.390625 29.59375 6.390625 
Q 36.859375 6.390625 41.078125 11.03125 
Q 45.3125 15.671875 45.3125 23.6875 
L 45.3125 54.6875 
L 54.296875 54.6875 
L 54.296875 0 
L 45.3125 0 
L 45.3125 8.40625 
Q 42.046875 3.421875 37.71875 1 
Q 33.40625 -1.421875 27.6875 -1.421875 
Q 18.265625 -1.421875 13.375 4.4375 
Q 8.5 10.296875 8.5 21.578125 
z
M 31.109375 56 
z
" id="DejaVuSans-117"/>
      <path d="M 45.40625 46.390625 
L 45.40625 75.984375 
L 54.390625 75.984375 
L 54.390625 0 
L 45.40625 0 
L 45.40625 8.203125 
Q 42.578125 3.328125 38.25 0.953125 
Q 33.9375 -1.421875 27.875 -1.421875 
Q 17.96875 -1.421875 11.734375 6.484375 
Q 5.515625 14.40625 5.515625 27.296875 
Q 5.515625 40.1875 11.734375 48.09375 
Q 17.96875 56 27.875 56 
Q 33.9375 56 38.25 53.625 
Q 42.578125 51.265625 45.40625 46.390625 
z
M 14.796875 27.296875 
Q 14.796875 17.390625 18.875 11.75 
Q 22.953125 6.109375 30.078125 6.109375 
Q 37.203125 6.109375 41.296875 11.75 
Q 45.40625 17.390625 45.40625 27.296875 
Q 45.40625 37.203125 41.296875 42.84375 
Q 37.203125 48.484375 30.078125 48.484375 
Q 22.953125 48.484375 18.875 42.84375 
Q 14.796875 37.203125 14.796875 27.296875 
z
" id="DejaVuSans-100"/>
      <path d="M 30.609375 48.390625 
Q 23.390625 48.390625 19.1875 42.75 
Q 14.984375 37.109375 14.984375 27.296875 
Q 14.984375 17.484375 19.15625 11.84375 
Q 23.34375 6.203125 30.609375 6.203125 
Q 37.796875 6.203125 41.984375 11.859375 
Q 46.1875 17.53125 46.1875 27.296875 
Q 46.1875 37.015625 41.984375 42.703125 
Q 37.796875 48.390625 30.609375 48.390625 
z
M 30.609375 56 
Q 42.328125 56 49.015625 48.375 
Q 55.71875 40.765625 55.71875 27.296875 
Q 55.71875 13.875 49.015625 6.21875 
Q 42.328125 -1.421875 30.609375 -1.421875 
Q 18.84375 -1.421875 12.171875 6.21875 
Q 5.515625 13.875 5.515625 27.296875 
Q 5.515625 40.765625 12.171875 48.375 
Q 18.84375 56 30.609375 56 
z
" id="DejaVuSans-111"/>
      <path d="M 19.671875 64.796875 
L 19.671875 37.40625 
L 32.078125 37.40625 
Q 38.96875 37.40625 42.71875 40.96875 
Q 46.484375 44.53125 46.484375 51.125 
Q 46.484375 57.671875 42.71875 61.234375 
Q 38.96875 64.796875 32.078125 64.796875 
z
M 9.8125 72.90625 
L 32.078125 72.90625 
Q 44.34375 72.90625 50.609375 67.359375 
Q 56.890625 61.8125 56.890625 51.125 
Q 56.890625 40.328125 50.609375 34.8125 
Q 44.34375 29.296875 32.078125 29.296875 
L 19.671875 29.296875 
L 19.671875 0 
L 9.8125 0 
z
" id="DejaVuSans-80"/>
      <path d="M 9.8125 72.90625 
L 19.671875 72.90625 
L 19.671875 0 
L 9.8125 0 
z
" id="DejaVuSans-73"/>
      <path d="M 53.515625 70.515625 
L 53.515625 60.890625 
Q 47.90625 63.578125 42.921875 64.890625 
Q 37.9375 66.21875 33.296875 66.21875 
Q 25.25 66.21875 20.875 63.09375 
Q 16.5 59.96875 16.5 54.203125 
Q 16.5 49.359375 19.40625 46.890625 
Q 22.3125 44.4375 30.421875 42.921875 
L 36.375 41.703125 
Q 47.40625 39.59375 52.65625 34.296875 
Q 57.90625 29 57.90625 20.125 
Q 57.90625 9.515625 50.796875 4.046875 
Q 43.703125 -1.421875 29.984375 -1.421875 
Q 24.8125 -1.421875 18.96875 -0.25 
Q 13.140625 0.921875 6.890625 3.21875 
L 6.890625 13.375 
Q 12.890625 10.015625 18.65625 8.296875 
Q 24.421875 6.59375 29.984375 6.59375 
Q 38.421875 6.59375 43.015625 9.90625 
Q 47.609375 13.234375 47.609375 19.390625 
Q 47.609375 24.75 44.3125 27.78125 
Q 41.015625 30.8125 33.5 32.328125 
L 27.484375 33.5 
Q 16.453125 35.6875 11.515625 40.375 
Q 6.59375 45.0625 6.59375 53.421875 
Q 6.59375 63.09375 13.40625 68.65625 
Q 20.21875 74.21875 32.171875 74.21875 
Q 37.3125 74.21875 42.625 73.28125 
Q 47.953125 72.359375 53.515625 70.515625 
z
" id="DejaVuSans-83"/>
      <path d="M -1.3125 -20.796875 
L 13.375 54.6875 
L 22.40625 54.6875 
L 15.765625 20.65625 
Q 15.578125 19.625 15.421875 18.359375 
Q 15.28125 17.09375 15.28125 15.828125 
Q 15.28125 11.28125 18.140625 8.828125 
Q 21 6.390625 26.3125 6.390625 
Q 33.546875 6.390625 37.984375 10.484375 
Q 42.4375 14.59375 44 22.796875 
L 50.203125 54.6875 
L 59.1875 54.6875 
L 51.03125 12.640625 
Q 50.828125 11.71875 50.75 11.03125 
Q 50.6875 10.359375 50.6875 9.8125 
Q 50.6875 8.296875 51.296875 7.59375 
Q 51.90625 6.890625 53.21875 6.890625 
Q 53.71875 6.890625 54.5625 7.125 
Q 55.421875 7.375 56.984375 8.015625 
L 55.609375 0.78125 
Q 53.46875 -0.296875 51.515625 -0.859375 
Q 49.5625 -1.421875 47.703125 -1.421875 
Q 44.484375 -1.421875 42.65625 0.625 
Q 40.828125 2.6875 40.828125 6.296875 
Q 38.09375 2.390625 34.296875 0.484375 
Q 30.515625 -1.421875 25.390625 -1.421875 
Q 20.84375 -1.421875 17.453125 0.671875 
Q 14.0625 2.78125 12.984375 6.203125 
L 7.71875 -20.796875 
z
" id="DejaVuSans-Oblique-956"/>
      <path d="M 28.609375 0 
L 0.78125 72.90625 
L 11.078125 72.90625 
L 34.1875 11.53125 
L 57.328125 72.90625 
L 67.578125 72.90625 
L 39.796875 0 
z
" id="DejaVuSans-86"/>
     </defs>
     <g transform="translate(17.032812 268.078)rotate(-90)scale(0.1 -0.1)">
      <use transform="translate(0 0.015625)" xlink:href="#DejaVuSans-65"/>
      <use transform="translate(68.408203 0.015625)" xlink:href="#DejaVuSans-109"/>
      <use transform="translate(165.820312 0.015625)" xlink:href="#DejaVuSans-112"/>
      <use transform="translate(229.296875 0.015625)" xlink:href="#DejaVuSans-108"/>
      <use transform="translate(257.080078 0.015625)" xlink:href="#DejaVuSans-105"/>
      <use transform="translate(284.863281 0.015625)" xlink:href="#DejaVuSans-116"/>
      <use transform="translate(324.072266 0.015625)" xlink:href="#DejaVuSans-117"/>
      <use transform="translate(387.451172 0.015625)" xlink:href="#DejaVuSans-100"/>
      <use transform="translate(450.927734 0.015625)" xlink:href="#DejaVuSans-101"/>
      <use transform="translate(512.451172 0.015625)" xlink:href="#DejaVuSans-115"/>
      <use transform="translate(564.550781 0.015625)" xlink:href="#DejaVuSans-32"/>
      <use transform="translate(596.337891 0.015625)" xlink:href="#DejaVuSans-100"/>
      <use transform="translate(659.814453 0.015625)" xlink:href="#DejaVuSans-111"/>
      <use transform="translate(720.996094 0.015625)" xlink:href="#DejaVuSans-115"/>
      <use transform="translate(773.095703 0.015625)" xlink:href="#DejaVuSans-32"/>
      <use transform="translate(804.882812 0.015625)" xlink:href="#DejaVuSans-80"/>
      <use transform="translate(865.185547 0.015625)" xlink:href="#DejaVuSans-73"/>
      <use transform="translate(894.677734 0.015625)" xlink:href="#DejaVuSans-80"/>
      <use transform="translate(954.980469 0.015625)" xlink:href="#DejaVuSans-83"/>
      <use transform="translate(1018.457031 0.015625)" xlink:href="#DejaVuSans-32"/>
      <use transform="translate(1050.244141 0.015625)" xlink:href="#DejaVuSans-114"/>
      <use transform="translate(1091.357422 0.015625)" xlink:href="#DejaVuSans-101"/>
      <use transform="translate(1152.880859 0.015625)" xlink:href="#DejaVuSans-99"/>
      <use transform="translate(1207.861328 0.015625)" xlink:href="#DejaVuSans-111"/>
      <use transform="translate(1269.042969 0.015625)" xlink:href="#DejaVuSans-114"/>
      <use transform="translate(1310.15625 0.015625)" xlink:href="#DejaVuSans-114"/>
      <use transform="translate(1351.269531 0.015625)" xlink:href="#DejaVuSans-101"/>
      <use transform="translate(1412.792969 0.015625)" xlink:href="#DejaVuSans-110"/>
      <use transform="translate(1476.171875 0.015625)" xlink:href="#DejaVuSans-116"/>
      <use transform="translate(1515.380859 0.015625)" xlink:href="#DejaVuSans-101"/>
      <use transform="translate(1576.904297 0.015625)" xlink:href="#DejaVuSans-115"/>
      <use transform="translate(1629.003906 0.015625)" xlink:href="#DejaVuSans-32"/>
      <use transform="translate(1660.791016 0.015625)" xlink:href="#DejaVuSans-40"/>
      <use transform="translate(1699.804688 0.015625)" xlink:href="#DejaVuSans-Oblique-956"/>
      <use transform="translate(1763.427734 0.015625)" xlink:href="#DejaVuSans-86"/>
      <use transform="translate(1831.835938 0.015625)" xlink:href="#DejaVuSans-41"/>
     </g>
    </g>
   </g>
   <g id="line2d_12">
    <defs>
     <path d="M 0 1.5 
C 0.397805 1.5 0.77937 1.341951 1.06066 1.06066 
C 1.341951 0.77937 1.5 0.397805 1.5 0 
C 1.5 -0.397805 1.341951 -0.77937 1.06066 -1.06066 
C 0.77937 -1.341951 0.397805 -1.5 0 -1.5 
C -0.397805 -1.5 -0.77937 -1.341951 -1.06066 -1.06066 
C -1.341951 -0.77937 -1.5 -0.397805 -1.5 0 
C -1.5 0.397805 -1.341951 0.77937 -1.06066 1.06066 
C -0.77937 1.341951 -0.397805 1.5 0 1.5 
z
" id="m380a2d448a" style="stroke:#000000;"/>
    </defs>
    <g clip-path="url(#p85a344e6a2)">
     <use style="stroke:#000000;" x="271.908478" xlink:href="#m380a2d448a" y="156.570229"/>
     <use style="stroke:#000000;" x="309.845638" xlink:href="#m380a2d448a" y="80.972692"/>
     <use style="stroke:#000000;" x="182.537283" xlink:href="#m380a2d448a" y="191.813279"/>
     <use style="stroke:#000000;" x="145.694464" xlink:href="#m380a2d448a" y="97.590405"/>
     <use style="stroke:#000000;" x="129.644127" xlink:href="#m380a2d448a" y="74.971988"/>
     <use style="stroke:#000000;" x="154.813973" xlink:href="#m380a2d448a" y="116.420199"/>
     <use style="stroke:#000000;" x="159.920899" xlink:href="#m380a2d448a" y="128.510287"/>
     <use style="stroke:#000000;" x="306.197835" xlink:href="#m380a2d448a" y="85.795918"/>
     <use style="stroke:#000000;" x="196.398938" xlink:href="#m380a2d448a" y="229.184657"/>
     <use style="stroke:#000000;" x="245.27951" xlink:href="#m380a2d448a" y="216.215155"/>
     <use style="stroke:#000000;" x="212.449275" xlink:href="#m380a2d448a" y="218.942076"/>
     <use style="stroke:#000000;" x="101.920817" xlink:href="#m380a2d448a" y="58.075918"/>
     <use style="stroke:#000000;" x="209.531032" xlink:href="#m380a2d448a" y="214.530229"/>
     <use style="stroke:#000000;" x="210.260592" xlink:href="#m380a2d448a" y="178.533396"/>
     <use style="stroke:#000000;" x="139.857978" xlink:href="#m380a2d448a" y="69.656094"/>
     <use style="stroke:#000000;" x="188.73855" xlink:href="#m380a2d448a" y="142.54888"/>
     <use style="stroke:#000000;" x="95.35477" xlink:href="#m380a2d448a" y="55.208587"/>
     <use style="stroke:#000000;" x="125.266762" xlink:href="#m380a2d448a" y="63.63322"/>
     <use style="stroke:#000000;" x="88.059162" xlink:href="#m380a2d448a" y="54.548411"/>
     <use style="stroke:#000000;" x="244.549949" xlink:href="#m380a2d448a" y="178.474276"/>
     <use style="stroke:#000000;" x="158.826558" xlink:href="#m380a2d448a" y="90.077208"/>
     <use style="stroke:#000000;" x="229.958733" xlink:href="#m380a2d448a" y="188.85973"/>
     <use style="stroke:#000000;" x="195.669377" xlink:href="#m380a2d448a" y="156.183484"/>
     <use style="stroke:#000000;" x="92.436527" xlink:href="#m380a2d448a" y="54.908059"/>
     <use style="stroke:#000000;" x="199.317181" xlink:href="#m380a2d448a" y="162.561079"/>
     <use style="stroke:#000000;" x="106.298182" xlink:href="#m380a2d448a" y="56.93539"/>
     <use style="stroke:#000000;" x="328.814219" xlink:href="#m380a2d448a" y="53.568"/>
     <use style="stroke:#000000;" x="333.191583" xlink:href="#m380a2d448a" y="53.568"/>
     <use style="stroke:#000000;" x="277.380184" xlink:href="#m380a2d448a" y="53.568"/>
     <use style="stroke:#000000;" x="142.04666" xlink:href="#m380a2d448a" y="53.568"/>
     <use style="stroke:#000000;" x="341.946313" xlink:href="#m380a2d448a" y="53.568"/>
     <use style="stroke:#000000;" x="198.58762" xlink:href="#m380a2d448a" y="53.568"/>
     <use style="stroke:#000000;" x="210.260592" xlink:href="#m380a2d448a" y="53.568"/>
     <use style="stroke:#000000;" x="342.675873" xlink:href="#m380a2d448a" y="53.568"/>
     <use style="stroke:#000000;" x="306.197835" xlink:href="#m380a2d448a" y="53.568"/>
     <use style="stroke:#000000;" x="315.682125" xlink:href="#m380a2d448a" y="53.568"/>
     <use style="stroke:#000000;" x="240.902145" xlink:href="#m380a2d448a" y="53.568"/>
     <use style="stroke:#000000;" x="256.222921" xlink:href="#m380a2d448a" y="53.568"/>
     <use style="stroke:#000000;" x="188.73855" xlink:href="#m380a2d448a" y="53.568"/>
     <use style="stroke:#000000;" x="92.071747" xlink:href="#m380a2d448a" y="55.065713"/>
     <use style="stroke:#000000;" x="85.5057" xlink:href="#m380a2d448a" y="54.501607"/>
     <use style="stroke:#000000;" x="92.801307" xlink:href="#m380a2d448a" y="55.142076"/>
     <use style="stroke:#000000;" x="160.285679" xlink:href="#m380a2d448a" y="95.415273"/>
     <use style="stroke:#000000;" x="86.23526" xlink:href="#m380a2d448a" y="54.553337"/>
     <use style="stroke:#000000;" x="73.832727" xlink:href="#m380a2d448a" y="53.949818"/>
     <use style="stroke:#000000;" x="150.071828" xlink:href="#m380a2d448a" y="89.71756"/>
     <use style="stroke:#000000;" x="235.79522" xlink:href="#m380a2d448a" y="198.210581"/>
     <use style="stroke:#000000;" x="259.870725" xlink:href="#m380a2d448a" y="163.965185"/>
     <use style="stroke:#000000;" x="225.581369" xlink:href="#m380a2d448a" y="200.787238"/>
     <use style="stroke:#000000;" x="177.795138" xlink:href="#m380a2d448a" y="127.342663"/>
     <use style="stroke:#000000;" x="201.141083" xlink:href="#m380a2d448a" y="174.50583"/>
     <use style="stroke:#000000;" x="81.128335" xlink:href="#m380a2d448a" y="54.242956"/>
     <use style="stroke:#000000;" x="268.260674" xlink:href="#m380a2d448a" y="167.029584"/>
     <use style="stroke:#000000;" x="258.411604" xlink:href="#m380a2d448a" y="192.074393"/>
     <use style="stroke:#000000;" x="293.065741" xlink:href="#m380a2d448a" y="108.542428"/>
     <use style="stroke:#000000;" x="271.908478" xlink:href="#m380a2d448a" y="157.76495"/>
     <use style="stroke:#000000;" x="156.273095" xlink:href="#m380a2d448a" y="121.139965"/>
     <use style="stroke:#000000;" x="155.543534" xlink:href="#m380a2d448a" y="119.427941"/>
     <use style="stroke:#000000;" x="246.00907" xlink:href="#m380a2d448a" y="216.914745"/>
     <use style="stroke:#000000;" x="232.876977" xlink:href="#m380a2d448a" y="230.990287"/>
     <use style="stroke:#000000;" x="159.191338" xlink:href="#m380a2d448a" y="128.234393"/>
     <use style="stroke:#000000;" x="223.392686" xlink:href="#m380a2d448a" y="231.165185"/>
     <use style="stroke:#000000;" x="109.216425" xlink:href="#m380a2d448a" y="60.795449"/>
     <use style="stroke:#000000;" x="213.178836" xlink:href="#m380a2d448a" y="221.846358"/>
     <use style="stroke:#000000;" x="311.30476" xlink:href="#m380a2d448a" y="79.51193"/>
     <use style="stroke:#000000;" x="295.983984" xlink:href="#m380a2d448a" y="107.126006"/>
     <use style="stroke:#000000;" x="233.606537" xlink:href="#m380a2d448a" y="245.1619"/>
     <use style="stroke:#000000;" x="142.04666" xlink:href="#m380a2d448a" y="98.679202"/>
     <use style="stroke:#000000;" x="123.07808" xlink:href="#m380a2d448a" y="72.08495"/>
     <use style="stroke:#000000;" x="150.071828" xlink:href="#m380a2d448a" y="115.767413"/>
     <use style="stroke:#000000;" x="186.185087" xlink:href="#m380a2d448a" y="227.856915"/>
     <use style="stroke:#000000;" x="265.707211" xlink:href="#m380a2d448a" y="184.386299"/>
     <use style="stroke:#000000;" x="236.52478" xlink:href="#m380a2d448a" y="242.994158"/>
     <use style="stroke:#000000;" x="129.644127" xlink:href="#m380a2d448a" y="79.297619"/>
     <use style="stroke:#000000;" x="145.694464" xlink:href="#m380a2d448a" y="105.985478"/>
     <use style="stroke:#000000;" x="218.285761" xlink:href="#m380a2d448a" y="295.488"/>
     <use style="stroke:#000000;" x="282.122329" xlink:href="#m380a2d448a" y="139.112516"/>
     <use style="stroke:#000000;" x="316.411685" xlink:href="#m380a2d448a" y="75.686358"/>
     <use style="stroke:#000000;" x="391.191665" xlink:href="#m380a2d448a" y="53.568"/>
     <use style="stroke:#000000;" x="236.52478" xlink:href="#m380a2d448a" y="53.568"/>
     <use style="stroke:#000000;" x="300.361348" xlink:href="#m380a2d448a" y="53.568"/>
     <use style="stroke:#000000;" x="357.99665" xlink:href="#m380a2d448a" y="53.568"/>
     <use style="stroke:#000000;" x="312.763882" xlink:href="#m380a2d448a" y="53.568"/>
     <use style="stroke:#000000;" x="381.707375" xlink:href="#m380a2d448a" y="53.568"/>
     <use style="stroke:#000000;" x="225.581369" xlink:href="#m380a2d448a" y="53.568"/>
     <use style="stroke:#000000;" x="234.336098" xlink:href="#m380a2d448a" y="53.568"/>
     <use style="stroke:#000000;" x="328.084658" xlink:href="#m380a2d448a" y="53.568"/>
     <use style="stroke:#000000;" x="360.914893" xlink:href="#m380a2d448a" y="53.568"/>
     <use style="stroke:#000000;" x="311.30476" xlink:href="#m380a2d448a" y="53.568"/>
     <use style="stroke:#000000;" x="240.902145" xlink:href="#m380a2d448a" y="53.568"/>
     <use style="stroke:#000000;" x="221.204004" xlink:href="#m380a2d448a" y="53.568"/>
     <use style="stroke:#000000;" x="299.631788" xlink:href="#m380a2d448a" y="53.568"/>
     <use style="stroke:#000000;" x="286.499694" xlink:href="#m380a2d448a" y="53.568"/>
     <use style="stroke:#000000;" x="352.889724" xlink:href="#m380a2d448a" y="53.568"/>
     <use style="stroke:#000000;" x="232.147416" xlink:href="#m380a2d448a" y="53.568"/>
     <use style="stroke:#000000;" x="349.971481" xlink:href="#m380a2d448a" y="53.568"/>
     <use style="stroke:#000000;" x="301.82047" xlink:href="#m380a2d448a" y="53.568"/>
     <use style="stroke:#000000;" x="366.021818" xlink:href="#m380a2d448a" y="53.568"/>
     <use style="stroke:#000000;" x="398.487273" xlink:href="#m380a2d448a" y="53.568"/>
     <use style="stroke:#000000;" x="304.009152" xlink:href="#m380a2d448a" y="53.568"/>
     <use style="stroke:#000000;" x="321.518611" xlink:href="#m380a2d448a" y="53.568"/>
     <use style="stroke:#000000;" x="291.606619" xlink:href="#m380a2d448a" y="53.568"/>
     <use style="stroke:#000000;" x="386.08474" xlink:href="#m380a2d448a" y="53.568"/>
     <use style="stroke:#000000;" x="361.644454" xlink:href="#m380a2d448a" y="53.568"/>
     <use style="stroke:#000000;" x="256.952482" xlink:href="#m380a2d448a" y="53.568"/>
     <use style="stroke:#000000;" x="331.732462" xlink:href="#m380a2d448a" y="53.568"/>
     <use style="stroke:#000000;" x="174.876895" xlink:href="#m380a2d448a" y="53.568"/>
     <use style="stroke:#000000;" x="323.707293" xlink:href="#m380a2d448a" y="53.568"/>
     <use style="stroke:#000000;" x="315.682125" xlink:href="#m380a2d448a" y="53.568"/>
     <use style="stroke:#000000;" x="294.889642" xlink:href="#m380a2d448a" y="53.568"/>
     <use style="stroke:#000000;" x="338.298509" xlink:href="#m380a2d448a" y="53.568"/>
     <use style="stroke:#000000;" x="239.443023" xlink:href="#m380a2d448a" y="53.568"/>
     <use style="stroke:#000000;" x="337.568948" xlink:href="#m380a2d448a" y="53.568"/>
     <use style="stroke:#000000;" x="202.600204" xlink:href="#m380a2d448a" y="53.568"/>
     <use style="stroke:#000000;" x="278.839305" xlink:href="#m380a2d448a" y="53.568"/>
     <use style="stroke:#000000;" x="358.72621" xlink:href="#m380a2d448a" y="53.568"/>
     <use style="stroke:#000000;" x="334.650705" xlink:href="#m380a2d448a" y="53.568"/>
     <use style="stroke:#000000;" x="229.229173" xlink:href="#m380a2d448a" y="221.64929"/>
     <use style="stroke:#000000;" x="107.757303" xlink:href="#m380a2d448a" y="59.401196"/>
     <use style="stroke:#000000;" x="218.285761" xlink:href="#m380a2d448a" y="217.488704"/>
     <use style="stroke:#000000;" x="167.216507" xlink:href="#m380a2d448a" y="139.829349"/>
     <use style="stroke:#000000;" x="212.449275" xlink:href="#m380a2d448a" y="211.034745"/>
     <use style="stroke:#000000;" x="101.191256" xlink:href="#m380a2d448a" y="57.440375"/>
     <use style="stroke:#000000;" x="154.813973" xlink:href="#m380a2d448a" y="111.079672"/>
     <use style="stroke:#000000;" x="219.015322" xlink:href="#m380a2d448a" y="218.099613"/>
     <use style="stroke:#000000;" x="117.971154" xlink:href="#m380a2d448a" y="64.120962"/>
     <use style="stroke:#000000;" x="85.87048" xlink:href="#m380a2d448a" y="54.937619"/>
     <use style="stroke:#000000;" x="282.122329" xlink:href="#m380a2d448a" y="127.734334"/>
     <use style="stroke:#000000;" x="233.606537" xlink:href="#m380a2d448a" y="220.252575"/>
     <use style="stroke:#000000;" x="154.084413" xlink:href="#m380a2d448a" y="109.581959"/>
     <use style="stroke:#000000;" x="255.12858" xlink:href="#m380a2d448a" y="53.568"/>
     <use style="stroke:#000000;" x="298.902227" xlink:href="#m380a2d448a" y="53.568"/>
     <use style="stroke:#000000;" x="187.644208" xlink:href="#m380a2d448a" y="53.568"/>
     <use style="stroke:#000000;" x="189.832891" xlink:href="#m380a2d448a" y="53.568"/>
     <use style="stroke:#000000;" x="208.801471" xlink:href="#m380a2d448a" y="53.568"/>
     <use style="stroke:#000000;" x="238.713463" xlink:href="#m380a2d448a" y="53.568"/>
     <use style="stroke:#000000;" x="285.040572" xlink:href="#m380a2d448a" y="53.568"/>
     <use style="stroke:#000000;" x="385.355179" xlink:href="#m380a2d448a" y="53.568"/>
     <use style="stroke:#000000;" x="295.983984" xlink:href="#m380a2d448a" y="53.568"/>
     <use style="stroke:#000000;" x="250.751216" xlink:href="#m380a2d448a" y="53.568"/>
     <use style="stroke:#000000;" x="321.518611" xlink:href="#m380a2d448a" y="53.568"/>
     <use style="stroke:#000000;" x="252.939898" xlink:href="#m380a2d448a" y="53.568"/>
     <use style="stroke:#000000;" x="304.738713" xlink:href="#m380a2d448a" y="53.568"/>
     <use style="stroke:#000000;" x="166.851726" xlink:href="#m380a2d448a" y="133.579848"/>
     <use style="stroke:#000000;" x="116.147252" xlink:href="#m380a2d448a" y="62.362135"/>
     <use style="stroke:#000000;" x="271.543698" xlink:href="#m380a2d448a" y="151.749466"/>
     <use style="stroke:#000000;" x="158.826558" xlink:href="#m380a2d448a" y="115.530933"/>
     <use style="stroke:#000000;" x="239.443023" xlink:href="#m380a2d448a" y="214.079437"/>
     <use style="stroke:#000000;" x="99.367354" xlink:href="#m380a2d448a" y="56.718616"/>
     <use style="stroke:#000000;" x="128.185005" xlink:href="#m380a2d448a" y="70.547824"/>
     <use style="stroke:#000000;" x="144.964903" xlink:href="#m380a2d448a" y="90.276739"/>
     <use style="stroke:#000000;" x="164.663044" xlink:href="#m380a2d448a" y="128.45363"/>
     <use style="stroke:#000000;" x="135.480613" xlink:href="#m380a2d448a" y="77.750639"/>
     <use style="stroke:#000000;" x="79.669213" xlink:href="#m380a2d448a" y="54.353806"/>
     <use style="stroke:#000000;" x="114.688131" xlink:href="#m380a2d448a" y="61.657619"/>
     <use style="stroke:#000000;" x="231.782635" xlink:href="#m380a2d448a" y="219.639202"/>
     <use style="stroke:#000000;" x="283.58145" xlink:href="#m380a2d448a" y="53.568"/>
     <use style="stroke:#000000;" x="294.524862" xlink:href="#m380a2d448a" y="53.568"/>
     <use style="stroke:#000000;" x="241.631706" xlink:href="#m380a2d448a" y="53.568"/>
     <use style="stroke:#000000;" x="391.191665" xlink:href="#m380a2d448a" y="53.568"/>
     <use style="stroke:#000000;" x="361.644454" xlink:href="#m380a2d448a" y="53.568"/>
     <use style="stroke:#000000;" x="221.204004" xlink:href="#m380a2d448a" y="53.568"/>
     <use style="stroke:#000000;" x="330.27334" xlink:href="#m380a2d448a" y="53.568"/>
     <use style="stroke:#000000;" x="326.625536" xlink:href="#m380a2d448a" y="53.568"/>
     <use style="stroke:#000000;" x="245.27951" xlink:href="#m380a2d448a" y="53.568"/>
     <use style="stroke:#000000;" x="290.877058" xlink:href="#m380a2d448a" y="53.568"/>
     <use style="stroke:#000000;" x="312.763882" xlink:href="#m380a2d448a" y="53.568"/>
     <use style="stroke:#000000;" x="360.185332" xlink:href="#m380a2d448a" y="53.568"/>
     <use style="stroke:#000000;" x="271.178917" xlink:href="#m380a2d448a" y="53.568"/>
    </g>
   </g>
   <g id="patch_3">
    <path d="M 57.6 307.584 
L 57.6 41.472 
" style="fill:none;stroke:#000000;stroke-linecap:square;stroke-linejoin:miter;stroke-width:0.8;"/>
   </g>
   <g id="patch_4">
    <path d="M 414.72 307.584 
L 414.72 41.472 
" style="fill:none;stroke:#000000;stroke-linecap:square;stroke-linejoin:miter;stroke-width:0.8;"/>
   </g>
   <g id="patch_5">
    <path d="M 57.6 307.584 
L 414.72 307.584 
" style="fill:none;stroke:#000000;stroke-linecap:square;stroke-linejoin:miter;stroke-width:0.8;"/>
   </g>
   <g id="patch_6">
    <path d="M 57.6 41.472 
L 414.72 41.472 
" style="fill:none;stroke:#000000;stroke-linecap:square;stroke-linejoin:miter;stroke-width:0.8;"/>
   </g>
  </g>
 </g>
 <defs>
  <clipPath id="p85a344e6a2">
   <rect height="266.112" width="357.12" x="57.6" y="41.472"/>
  </clipPath>
 </defs>
</svg>
