<?xml version="1.0" encoding="utf-8" standalone="no"?>
<!DOCTYPE svg PUBLIC "-//W3C//DTD SVG 1.1//EN"
  "http://www.w3.org/Graphics/SVG/1.1/DTD/svg11.dtd">
<!-- Created with matplotlib (https://matplotlib.org/) -->
<svg height="345.6pt" version="1.1" viewBox="0 0 460.8 345.6" width="460.8pt" xmlns="http://www.w3.org/2000/svg" xmlns:xlink="http://www.w3.org/1999/xlink">
 <defs>
  <style type="text/css">
*{stroke-linecap:butt;stroke-linejoin:round;}
  </style>
 </defs>
 <g id="figure_1">
  <g id="patch_1">
   <path d="M 0 345.6 
L 460.8 345.6 
L 460.8 0 
L 0 0 
z
" style="fill:#ffffff;"/>
  </g>
  <g id="axes_1">
   <g id="patch_2">
    <path d="M 57.6 307.584 
L 343.296 307.584 
L 343.296 41.472 
L 57.6 41.472 
z
" style="fill:#ffffff;"/>
   </g>
   <g id="matplotlib.axis_1">
    <g id="xtick_1">
     <g id="line2d_1">
      <defs>
       <path d="M 0 0 
L 0 3.5 
" id="mb5a654428f" style="stroke:#000000;stroke-width:0.8;"/>
      </defs>
      <g>
       <use style="stroke:#000000;stroke-width:0.8;" x="60.844751" xlink:href="#mb5a654428f" y="307.584"/>
      </g>
     </g>
     <g id="text_1">
      <!-- 0 -->
      <defs>
       <path d="M 31.78125 66.40625 
Q 24.171875 66.40625 20.328125 58.90625 
Q 16.5 51.421875 16.5 36.375 
Q 16.5 21.390625 20.328125 13.890625 
Q 24.171875 6.390625 31.78125 6.390625 
Q 39.453125 6.390625 43.28125 13.890625 
Q 47.125 21.390625 47.125 36.375 
Q 47.125 51.421875 43.28125 58.90625 
Q 39.453125 66.40625 31.78125 66.40625 
z
M 31.78125 74.21875 
Q 44.046875 74.21875 50.515625 64.515625 
Q 56.984375 54.828125 56.984375 36.375 
Q 56.984375 17.96875 50.515625 8.265625 
Q 44.046875 -1.421875 31.78125 -1.421875 
Q 19.53125 -1.421875 13.0625 8.265625 
Q 6.59375 17.96875 6.59375 36.375 
Q 6.59375 54.828125 13.0625 64.515625 
Q 19.53125 74.21875 31.78125 74.21875 
z
" id="DejaVuSans-48"/>
      </defs>
      <g transform="translate(57.663501 322.182437)scale(0.1 -0.1)">
       <use xlink:href="#DejaVuSans-48"/>
      </g>
     </g>
    </g>
    <g id="xtick_2">
     <g id="line2d_2">
      <g>
       <use style="stroke:#000000;stroke-width:0.8;" x="123.249815" xlink:href="#mb5a654428f" y="307.584"/>
      </g>
     </g>
     <g id="text_2">
      <!-- 2000 -->
      <defs>
       <path d="M 19.1875 8.296875 
L 53.609375 8.296875 
L 53.609375 0 
L 7.328125 0 
L 7.328125 8.296875 
Q 12.9375 14.109375 22.625 23.890625 
Q 32.328125 33.6875 34.8125 36.53125 
Q 39.546875 41.84375 41.421875 45.53125 
Q 43.3125 49.21875 43.3125 52.78125 
Q 43.3125 58.59375 39.234375 62.25 
Q 35.15625 65.921875 28.609375 65.921875 
Q 23.96875 65.921875 18.8125 64.3125 
Q 13.671875 62.703125 7.8125 59.421875 
L 7.8125 69.390625 
Q 13.765625 71.78125 18.9375 73 
Q 24.125 74.21875 28.421875 74.21875 
Q 39.75 74.21875 46.484375 68.546875 
Q 53.21875 62.890625 53.21875 53.421875 
Q 53.21875 48.921875 51.53125 44.890625 
Q 49.859375 40.875 45.40625 35.40625 
Q 44.1875 33.984375 37.640625 27.21875 
Q 31.109375 20.453125 19.1875 8.296875 
z
" id="DejaVuSans-50"/>
      </defs>
      <g transform="translate(110.524815 322.182437)scale(0.1 -0.1)">
       <use xlink:href="#DejaVuSans-50"/>
       <use x="63.623047" xlink:href="#DejaVuSans-48"/>
       <use x="127.246094" xlink:href="#DejaVuSans-48"/>
       <use x="190.869141" xlink:href="#DejaVuSans-48"/>
      </g>
     </g>
    </g>
    <g id="xtick_3">
     <g id="line2d_3">
      <g>
       <use style="stroke:#000000;stroke-width:0.8;" x="185.65488" xlink:href="#mb5a654428f" y="307.584"/>
      </g>
     </g>
     <g id="text_3">
      <!-- 4000 -->
      <defs>
       <path d="M 37.796875 64.3125 
L 12.890625 25.390625 
L 37.796875 25.390625 
z
M 35.203125 72.90625 
L 47.609375 72.90625 
L 47.609375 25.390625 
L 58.015625 25.390625 
L 58.015625 17.1875 
L 47.609375 17.1875 
L 47.609375 0 
L 37.796875 0 
L 37.796875 17.1875 
L 4.890625 17.1875 
L 4.890625 26.703125 
z
" id="DejaVuSans-52"/>
      </defs>
      <g transform="translate(172.92988 322.182437)scale(0.1 -0.1)">
       <use xlink:href="#DejaVuSans-52"/>
       <use x="63.623047" xlink:href="#DejaVuSans-48"/>
       <use x="127.246094" xlink:href="#DejaVuSans-48"/>
       <use x="190.869141" xlink:href="#DejaVuSans-48"/>
      </g>
     </g>
    </g>
    <g id="xtick_4">
     <g id="line2d_4">
      <g>
       <use style="stroke:#000000;stroke-width:0.8;" x="248.059944" xlink:href="#mb5a654428f" y="307.584"/>
      </g>
     </g>
     <g id="text_4">
      <!-- 6000 -->
      <defs>
       <path d="M 33.015625 40.375 
Q 26.375 40.375 22.484375 35.828125 
Q 18.609375 31.296875 18.609375 23.390625 
Q 18.609375 15.53125 22.484375 10.953125 
Q 26.375 6.390625 33.015625 6.390625 
Q 39.65625 6.390625 43.53125 10.953125 
Q 47.40625 15.53125 47.40625 23.390625 
Q 47.40625 31.296875 43.53125 35.828125 
Q 39.65625 40.375 33.015625 40.375 
z
M 52.59375 71.296875 
L 52.59375 62.3125 
Q 48.875 64.0625 45.09375 64.984375 
Q 41.3125 65.921875 37.59375 65.921875 
Q 27.828125 65.921875 22.671875 59.328125 
Q 17.53125 52.734375 16.796875 39.40625 
Q 19.671875 43.65625 24.015625 45.921875 
Q 28.375 48.1875 33.59375 48.1875 
Q 44.578125 48.1875 50.953125 41.515625 
Q 57.328125 34.859375 57.328125 23.390625 
Q 57.328125 12.15625 50.6875 5.359375 
Q 44.046875 -1.421875 33.015625 -1.421875 
Q 20.359375 -1.421875 13.671875 8.265625 
Q 6.984375 17.96875 6.984375 36.375 
Q 6.984375 53.65625 15.1875 63.9375 
Q 23.390625 74.21875 37.203125 74.21875 
Q 40.921875 74.21875 44.703125 73.484375 
Q 48.484375 72.75 52.59375 71.296875 
z
" id="DejaVuSans-54"/>
      </defs>
      <g transform="translate(235.334944 322.182437)scale(0.1 -0.1)">
       <use xlink:href="#DejaVuSans-54"/>
       <use x="63.623047" xlink:href="#DejaVuSans-48"/>
       <use x="127.246094" xlink:href="#DejaVuSans-48"/>
       <use x="190.869141" xlink:href="#DejaVuSans-48"/>
      </g>
     </g>
    </g>
    <g id="xtick_5">
     <g id="line2d_5">
      <g>
       <use style="stroke:#000000;stroke-width:0.8;" x="310.465008" xlink:href="#mb5a654428f" y="307.584"/>
      </g>
     </g>
     <g id="text_5">
      <!-- 8000 -->
      <defs>
       <path d="M 31.78125 34.625 
Q 24.75 34.625 20.71875 30.859375 
Q 16.703125 27.09375 16.703125 20.515625 
Q 16.703125 13.921875 20.71875 10.15625 
Q 24.75 6.390625 31.78125 6.390625 
Q 38.8125 6.390625 42.859375 10.171875 
Q 46.921875 13.96875 46.921875 20.515625 
Q 46.921875 27.09375 42.890625 30.859375 
Q 38.875 34.625 31.78125 34.625 
z
M 21.921875 38.8125 
Q 15.578125 40.375 12.03125 44.71875 
Q 8.5 49.078125 8.5 55.328125 
Q 8.5 64.0625 14.71875 69.140625 
Q 20.953125 74.21875 31.78125 74.21875 
Q 42.671875 74.21875 48.875 69.140625 
Q 55.078125 64.0625 55.078125 55.328125 
Q 55.078125 49.078125 51.53125 44.71875 
Q 48 40.375 41.703125 38.8125 
Q 48.828125 37.15625 52.796875 32.3125 
Q 56.78125 27.484375 56.78125 20.515625 
Q 56.78125 9.90625 50.3125 4.234375 
Q 43.84375 -1.421875 31.78125 -1.421875 
Q 19.734375 -1.421875 13.25 4.234375 
Q 6.78125 9.90625 6.78125 20.515625 
Q 6.78125 27.484375 10.78125 32.3125 
Q 14.796875 37.15625 21.921875 38.8125 
z
M 18.3125 54.390625 
Q 18.3125 48.734375 21.84375 45.5625 
Q 25.390625 42.390625 31.78125 42.390625 
Q 38.140625 42.390625 41.71875 45.5625 
Q 45.3125 48.734375 45.3125 54.390625 
Q 45.3125 60.0625 41.71875 63.234375 
Q 38.140625 66.40625 31.78125 66.40625 
Q 25.390625 66.40625 21.84375 63.234375 
Q 18.3125 60.0625 18.3125 54.390625 
z
" id="DejaVuSans-56"/>
      </defs>
      <g transform="translate(297.740008 322.182437)scale(0.1 -0.1)">
       <use xlink:href="#DejaVuSans-56"/>
       <use x="63.623047" xlink:href="#DejaVuSans-48"/>
       <use x="127.246094" xlink:href="#DejaVuSans-48"/>
       <use x="190.869141" xlink:href="#DejaVuSans-48"/>
      </g>
     </g>
    </g>
    <g id="text_6">
     <!-- Tempo (ms) -->
     <defs>
      <path d="M -0.296875 72.90625 
L 61.375 72.90625 
L 61.375 64.59375 
L 35.5 64.59375 
L 35.5 0 
L 25.59375 0 
L 25.59375 64.59375 
L -0.296875 64.59375 
z
" id="DejaVuSans-84"/>
      <path d="M 56.203125 29.59375 
L 56.203125 25.203125 
L 14.890625 25.203125 
Q 15.484375 15.921875 20.484375 11.0625 
Q 25.484375 6.203125 34.421875 6.203125 
Q 39.59375 6.203125 44.453125 7.46875 
Q 49.3125 8.734375 54.109375 11.28125 
L 54.109375 2.78125 
Q 49.265625 0.734375 44.1875 -0.34375 
Q 39.109375 -1.421875 33.890625 -1.421875 
Q 20.796875 -1.421875 13.15625 6.1875 
Q 5.515625 13.8125 5.515625 26.8125 
Q 5.515625 40.234375 12.765625 48.109375 
Q 20.015625 56 32.328125 56 
Q 43.359375 56 49.78125 48.890625 
Q 56.203125 41.796875 56.203125 29.59375 
z
M 47.21875 32.234375 
Q 47.125 39.59375 43.09375 43.984375 
Q 39.0625 48.390625 32.421875 48.390625 
Q 24.90625 48.390625 20.390625 44.140625 
Q 15.875 39.890625 15.1875 32.171875 
z
" id="DejaVuSans-101"/>
      <path d="M 52 44.1875 
Q 55.375 50.25 60.0625 53.125 
Q 64.75 56 71.09375 56 
Q 79.640625 56 84.28125 50.015625 
Q 88.921875 44.046875 88.921875 33.015625 
L 88.921875 0 
L 79.890625 0 
L 79.890625 32.71875 
Q 79.890625 40.578125 77.09375 44.375 
Q 74.3125 48.1875 68.609375 48.1875 
Q 61.625 48.1875 57.5625 43.546875 
Q 53.515625 38.921875 53.515625 30.90625 
L 53.515625 0 
L 44.484375 0 
L 44.484375 32.71875 
Q 44.484375 40.625 41.703125 44.40625 
Q 38.921875 48.1875 33.109375 48.1875 
Q 26.21875 48.1875 22.15625 43.53125 
Q 18.109375 38.875 18.109375 30.90625 
L 18.109375 0 
L 9.078125 0 
L 9.078125 54.6875 
L 18.109375 54.6875 
L 18.109375 46.1875 
Q 21.1875 51.21875 25.484375 53.609375 
Q 29.78125 56 35.6875 56 
Q 41.65625 56 45.828125 52.96875 
Q 50 49.953125 52 44.1875 
z
" id="DejaVuSans-109"/>
      <path d="M 18.109375 8.203125 
L 18.109375 -20.796875 
L 9.078125 -20.796875 
L 9.078125 54.6875 
L 18.109375 54.6875 
L 18.109375 46.390625 
Q 20.953125 51.265625 25.265625 53.625 
Q 29.59375 56 35.59375 56 
Q 45.5625 56 51.78125 48.09375 
Q 58.015625 40.1875 58.015625 27.296875 
Q 58.015625 14.40625 51.78125 6.484375 
Q 45.5625 -1.421875 35.59375 -1.421875 
Q 29.59375 -1.421875 25.265625 0.953125 
Q 20.953125 3.328125 18.109375 8.203125 
z
M 48.6875 27.296875 
Q 48.6875 37.203125 44.609375 42.84375 
Q 40.53125 48.484375 33.40625 48.484375 
Q 26.265625 48.484375 22.1875 42.84375 
Q 18.109375 37.203125 18.109375 27.296875 
Q 18.109375 17.390625 22.1875 11.75 
Q 26.265625 6.109375 33.40625 6.109375 
Q 40.53125 6.109375 44.609375 11.75 
Q 48.6875 17.390625 48.6875 27.296875 
z
" id="DejaVuSans-112"/>
      <path d="M 30.609375 48.390625 
Q 23.390625 48.390625 19.1875 42.75 
Q 14.984375 37.109375 14.984375 27.296875 
Q 14.984375 17.484375 19.15625 11.84375 
Q 23.34375 6.203125 30.609375 6.203125 
Q 37.796875 6.203125 41.984375 11.859375 
Q 46.1875 17.53125 46.1875 27.296875 
Q 46.1875 37.015625 41.984375 42.703125 
Q 37.796875 48.390625 30.609375 48.390625 
z
M 30.609375 56 
Q 42.328125 56 49.015625 48.375 
Q 55.71875 40.765625 55.71875 27.296875 
Q 55.71875 13.875 49.015625 6.21875 
Q 42.328125 -1.421875 30.609375 -1.421875 
Q 18.84375 -1.421875 12.171875 6.21875 
Q 5.515625 13.875 5.515625 27.296875 
Q 5.515625 40.765625 12.171875 48.375 
Q 18.84375 56 30.609375 56 
z
" id="DejaVuSans-111"/>
      <path id="DejaVuSans-32"/>
      <path d="M 31 75.875 
Q 24.46875 64.65625 21.28125 53.65625 
Q 18.109375 42.671875 18.109375 31.390625 
Q 18.109375 20.125 21.3125 9.0625 
Q 24.515625 -2 31 -13.1875 
L 23.1875 -13.1875 
Q 15.875 -1.703125 12.234375 9.375 
Q 8.59375 20.453125 8.59375 31.390625 
Q 8.59375 42.28125 12.203125 53.3125 
Q 15.828125 64.359375 23.1875 75.875 
z
" id="DejaVuSans-40"/>
      <path d="M 44.28125 53.078125 
L 44.28125 44.578125 
Q 40.484375 46.53125 36.375 47.5 
Q 32.28125 48.484375 27.875 48.484375 
Q 21.1875 48.484375 17.84375 46.4375 
Q 14.5 44.390625 14.5 40.28125 
Q 14.5 37.15625 16.890625 35.375 
Q 19.28125 33.59375 26.515625 31.984375 
L 29.59375 31.296875 
Q 39.15625 29.25 43.1875 25.515625 
Q 47.21875 21.78125 47.21875 15.09375 
Q 47.21875 7.46875 41.1875 3.015625 
Q 35.15625 -1.421875 24.609375 -1.421875 
Q 20.21875 -1.421875 15.453125 -0.5625 
Q 10.6875 0.296875 5.421875 2 
L 5.421875 11.28125 
Q 10.40625 8.6875 15.234375 7.390625 
Q 20.0625 6.109375 24.8125 6.109375 
Q 31.15625 6.109375 34.5625 8.28125 
Q 37.984375 10.453125 37.984375 14.40625 
Q 37.984375 18.0625 35.515625 20.015625 
Q 33.0625 21.96875 24.703125 23.78125 
L 21.578125 24.515625 
Q 13.234375 26.265625 9.515625 29.90625 
Q 5.8125 33.546875 5.8125 39.890625 
Q 5.8125 47.609375 11.28125 51.796875 
Q 16.75 56 26.8125 56 
Q 31.78125 56 36.171875 55.265625 
Q 40.578125 54.546875 44.28125 53.078125 
z
" id="DejaVuSans-115"/>
      <path d="M 8.015625 75.875 
L 15.828125 75.875 
Q 23.140625 64.359375 26.78125 53.3125 
Q 30.421875 42.28125 30.421875 31.390625 
Q 30.421875 20.453125 26.78125 9.375 
Q 23.140625 -1.703125 15.828125 -13.1875 
L 8.015625 -13.1875 
Q 14.5 -2 17.703125 9.0625 
Q 20.90625 20.125 20.90625 31.390625 
Q 20.90625 42.671875 17.703125 53.65625 
Q 14.5 64.65625 8.015625 75.875 
z
" id="DejaVuSans-41"/>
     </defs>
     <g transform="translate(170.261281 335.860562)scale(0.1 -0.1)">
      <use xlink:href="#DejaVuSans-84"/>
      <use x="60.818359" xlink:href="#DejaVuSans-101"/>
      <use x="122.341797" xlink:href="#DejaVuSans-109"/>
      <use x="219.753906" xlink:href="#DejaVuSans-112"/>
      <use x="283.230469" xlink:href="#DejaVuSans-111"/>
      <use x="344.412109" xlink:href="#DejaVuSans-32"/>
      <use x="376.199219" xlink:href="#DejaVuSans-40"/>
      <use x="415.212891" xlink:href="#DejaVuSans-109"/>
      <use x="512.625" xlink:href="#DejaVuSans-115"/>
      <use x="564.724609" xlink:href="#DejaVuSans-41"/>
     </g>
    </g>
   </g>
   <g id="matplotlib.axis_2">
    <g id="ytick_1">
     <g id="line2d_6">
      <defs>
       <path d="M 0 0 
L -3.5 0 
" id="md09b608e1e" style="stroke:#000000;stroke-width:0.8;"/>
      </defs>
      <g>
       <use style="stroke:#000000;stroke-width:0.8;" x="57.6" xlink:href="#md09b608e1e" y="307.584"/>
      </g>
     </g>
     <g id="text_7">
      <!-- 0 -->
      <g transform="translate(44.2375 311.383219)scale(0.1 -0.1)">
       <use xlink:href="#DejaVuSans-48"/>
      </g>
     </g>
    </g>
    <g id="ytick_2">
     <g id="line2d_7">
      <g>
       <use style="stroke:#000000;stroke-width:0.8;" x="57.6" xlink:href="#md09b608e1e" y="272.1024"/>
      </g>
     </g>
     <g id="text_8">
      <!-- 20 -->
      <g transform="translate(37.875 275.901619)scale(0.1 -0.1)">
       <use xlink:href="#DejaVuSans-50"/>
       <use x="63.623047" xlink:href="#DejaVuSans-48"/>
      </g>
     </g>
    </g>
    <g id="ytick_3">
     <g id="line2d_8">
      <g>
       <use style="stroke:#000000;stroke-width:0.8;" x="57.6" xlink:href="#md09b608e1e" y="236.6208"/>
      </g>
     </g>
     <g id="text_9">
      <!-- 40 -->
      <g transform="translate(37.875 240.420019)scale(0.1 -0.1)">
       <use xlink:href="#DejaVuSans-52"/>
       <use x="63.623047" xlink:href="#DejaVuSans-48"/>
      </g>
     </g>
    </g>
    <g id="ytick_4">
     <g id="line2d_9">
      <g>
       <use style="stroke:#000000;stroke-width:0.8;" x="57.6" xlink:href="#md09b608e1e" y="201.1392"/>
      </g>
     </g>
     <g id="text_10">
      <!-- 60 -->
      <g transform="translate(37.875 204.938419)scale(0.1 -0.1)">
       <use xlink:href="#DejaVuSans-54"/>
       <use x="63.623047" xlink:href="#DejaVuSans-48"/>
      </g>
     </g>
    </g>
    <g id="ytick_5">
     <g id="line2d_10">
      <g>
       <use style="stroke:#000000;stroke-width:0.8;" x="57.6" xlink:href="#md09b608e1e" y="165.6576"/>
      </g>
     </g>
     <g id="text_11">
      <!-- 80 -->
      <g transform="translate(37.875 169.456819)scale(0.1 -0.1)">
       <use xlink:href="#DejaVuSans-56"/>
       <use x="63.623047" xlink:href="#DejaVuSans-48"/>
      </g>
     </g>
    </g>
    <g id="ytick_6">
     <g id="line2d_11">
      <g>
       <use style="stroke:#000000;stroke-width:0.8;" x="57.6" xlink:href="#md09b608e1e" y="130.176"/>
      </g>
     </g>
     <g id="text_12">
      <!-- 100 -->
      <defs>
       <path d="M 12.40625 8.296875 
L 28.515625 8.296875 
L 28.515625 63.921875 
L 10.984375 60.40625 
L 10.984375 69.390625 
L 28.421875 72.90625 
L 38.28125 72.90625 
L 38.28125 8.296875 
L 54.390625 8.296875 
L 54.390625 0 
L 12.40625 0 
z
" id="DejaVuSans-49"/>
      </defs>
      <g transform="translate(31.5125 133.975219)scale(0.1 -0.1)">
       <use xlink:href="#DejaVuSans-49"/>
       <use x="63.623047" xlink:href="#DejaVuSans-48"/>
       <use x="127.246094" xlink:href="#DejaVuSans-48"/>
      </g>
     </g>
    </g>
    <g id="ytick_7">
     <g id="line2d_12">
      <g>
       <use style="stroke:#000000;stroke-width:0.8;" x="57.6" xlink:href="#md09b608e1e" y="94.6944"/>
      </g>
     </g>
     <g id="text_13">
      <!-- 120 -->
      <g transform="translate(31.5125 98.493619)scale(0.1 -0.1)">
       <use xlink:href="#DejaVuSans-49"/>
       <use x="63.623047" xlink:href="#DejaVuSans-50"/>
       <use x="127.246094" xlink:href="#DejaVuSans-48"/>
      </g>
     </g>
    </g>
    <g id="ytick_8">
     <g id="line2d_13">
      <g>
       <use style="stroke:#000000;stroke-width:0.8;" x="57.6" xlink:href="#md09b608e1e" y="59.2128"/>
      </g>
     </g>
     <g id="text_14">
      <!-- 140 -->
      <g transform="translate(31.5125 63.012019)scale(0.1 -0.1)">
       <use xlink:href="#DejaVuSans-49"/>
       <use x="63.623047" xlink:href="#DejaVuSans-52"/>
       <use x="127.246094" xlink:href="#DejaVuSans-48"/>
      </g>
     </g>
    </g>
    <g id="text_15">
     <!-- Taxa de disparo (pps) -->
     <defs>
      <path d="M 34.28125 27.484375 
Q 23.390625 27.484375 19.1875 25 
Q 14.984375 22.515625 14.984375 16.5 
Q 14.984375 11.71875 18.140625 8.90625 
Q 21.296875 6.109375 26.703125 6.109375 
Q 34.1875 6.109375 38.703125 11.40625 
Q 43.21875 16.703125 43.21875 25.484375 
L 43.21875 27.484375 
z
M 52.203125 31.203125 
L 52.203125 0 
L 43.21875 0 
L 43.21875 8.296875 
Q 40.140625 3.328125 35.546875 0.953125 
Q 30.953125 -1.421875 24.3125 -1.421875 
Q 15.921875 -1.421875 10.953125 3.296875 
Q 6 8.015625 6 15.921875 
Q 6 25.140625 12.171875 29.828125 
Q 18.359375 34.515625 30.609375 34.515625 
L 43.21875 34.515625 
L 43.21875 35.40625 
Q 43.21875 41.609375 39.140625 45 
Q 35.0625 48.390625 27.6875 48.390625 
Q 23 48.390625 18.546875 47.265625 
Q 14.109375 46.140625 10.015625 43.890625 
L 10.015625 52.203125 
Q 14.9375 54.109375 19.578125 55.046875 
Q 24.21875 56 28.609375 56 
Q 40.484375 56 46.34375 49.84375 
Q 52.203125 43.703125 52.203125 31.203125 
z
" id="DejaVuSans-97"/>
      <path d="M 54.890625 54.6875 
L 35.109375 28.078125 
L 55.90625 0 
L 45.3125 0 
L 29.390625 21.484375 
L 13.484375 0 
L 2.875 0 
L 24.125 28.609375 
L 4.6875 54.6875 
L 15.28125 54.6875 
L 29.78125 35.203125 
L 44.28125 54.6875 
z
" id="DejaVuSans-120"/>
      <path d="M 45.40625 46.390625 
L 45.40625 75.984375 
L 54.390625 75.984375 
L 54.390625 0 
L 45.40625 0 
L 45.40625 8.203125 
Q 42.578125 3.328125 38.25 0.953125 
Q 33.9375 -1.421875 27.875 -1.421875 
Q 17.96875 -1.421875 11.734375 6.484375 
Q 5.515625 14.40625 5.515625 27.296875 
Q 5.515625 40.1875 11.734375 48.09375 
Q 17.96875 56 27.875 56 
Q 33.9375 56 38.25 53.625 
Q 42.578125 51.265625 45.40625 46.390625 
z
M 14.796875 27.296875 
Q 14.796875 17.390625 18.875 11.75 
Q 22.953125 6.109375 30.078125 6.109375 
Q 37.203125 6.109375 41.296875 11.75 
Q 45.40625 17.390625 45.40625 27.296875 
Q 45.40625 37.203125 41.296875 42.84375 
Q 37.203125 48.484375 30.078125 48.484375 
Q 22.953125 48.484375 18.875 42.84375 
Q 14.796875 37.203125 14.796875 27.296875 
z
" id="DejaVuSans-100"/>
      <path d="M 9.421875 54.6875 
L 18.40625 54.6875 
L 18.40625 0 
L 9.421875 0 
z
M 9.421875 75.984375 
L 18.40625 75.984375 
L 18.40625 64.59375 
L 9.421875 64.59375 
z
" id="DejaVuSans-105"/>
      <path d="M 41.109375 46.296875 
Q 39.59375 47.171875 37.8125 47.578125 
Q 36.03125 48 33.890625 48 
Q 26.265625 48 22.1875 43.046875 
Q 18.109375 38.09375 18.109375 28.8125 
L 18.109375 0 
L 9.078125 0 
L 9.078125 54.6875 
L 18.109375 54.6875 
L 18.109375 46.1875 
Q 20.953125 51.171875 25.484375 53.578125 
Q 30.03125 56 36.53125 56 
Q 37.453125 56 38.578125 55.875 
Q 39.703125 55.765625 41.0625 55.515625 
z
" id="DejaVuSans-114"/>
     </defs>
     <g transform="translate(25.432812 229.049094)rotate(-90)scale(0.1 -0.1)">
      <use xlink:href="#DejaVuSans-84"/>
      <use x="60.833984" xlink:href="#DejaVuSans-97"/>
      <use x="122.113281" xlink:href="#DejaVuSans-120"/>
      <use x="181.292969" xlink:href="#DejaVuSans-97"/>
      <use x="242.572266" xlink:href="#DejaVuSans-32"/>
      <use x="274.359375" xlink:href="#DejaVuSans-100"/>
      <use x="337.835938" xlink:href="#DejaVuSans-101"/>
      <use x="399.359375" xlink:href="#DejaVuSans-32"/>
      <use x="431.146484" xlink:href="#DejaVuSans-100"/>
      <use x="494.623047" xlink:href="#DejaVuSans-105"/>
      <use x="522.40625" xlink:href="#DejaVuSans-115"/>
      <use x="574.505859" xlink:href="#DejaVuSans-112"/>
      <use x="637.982422" xlink:href="#DejaVuSans-97"/>
      <use x="699.261719" xlink:href="#DejaVuSans-114"/>
      <use x="740.34375" xlink:href="#DejaVuSans-111"/>
      <use x="801.525391" xlink:href="#DejaVuSans-32"/>
      <use x="833.3125" xlink:href="#DejaVuSans-40"/>
      <use x="872.326172" xlink:href="#DejaVuSans-112"/>
      <use x="935.802734" xlink:href="#DejaVuSans-112"/>
      <use x="999.279297" xlink:href="#DejaVuSans-115"/>
      <use x="1051.378906" xlink:href="#DejaVuSans-41"/>
     </g>
    </g>
   </g>
   <g id="line2d_14">
    <path clip-path="url(#p7b691d7693)" d="M 113.653477 292.886222 
L 114.575512 288.30374 
L 115.616116 281.979611 
L 116.737847 273.81619 
L 118.067075 262.316651 
L 121.895626 227.844837 
L 123.326262 218.095972 
L 124.532239 211.379362 
L 126.112648 203.696507 
L 127.285863 198.943839 
L 129.22042 192.205412 
L 132.083252 182.263809 
L 135.576376 169.455215 
L 136.514012 166.941359 
L 137.387683 165.143174 
L 138.086619 164.146719 
L 139.058578 163.175316 
L 140.163148 162.03535 
L 141.309841 160.53106 
L 142.581344 158.465258 
L 143.629749 156.30632 
L 145.261642 152.244844 
L 147.408376 146.987168 
L 148.711082 144.327632 
L 150.077752 142.036722 
L 151.598876 139.900322 
L 158.18261 131.411213 
L 161.056363 127.037276 
L 164.065848 122.697734 
L 167.498126 118.02829 
L 170.946006 112.728863 
L 172.292395 111.187661 
L 173.546737 110.108069 
L 178.247398 106.202141 
L 180.167914 104.091742 
L 182.428538 101.280209 
L 184.320971 99.127128 
L 185.759408 97.895969 
L 186.966946 97.14711 
L 188.199446 96.60927 
L 189.502152 96.29091 
L 190.655085 96.314733 
L 191.645766 96.55549 
L 192.964073 97.188792 
L 196.326146 99.086533 
L 197.198256 99.185203 
L 198.123411 99.088466 
L 199.143734 98.76826 
L 201.246785 97.759836 
L 202.588494 97.223397 
L 203.739867 96.984028 
L 205.74931 96.911493 
L 207.445168 97.053089 
L 211.038139 97.475114 
L 212.432893 97.273763 
L 213.833886 97.165943 
L 214.969658 97.315999 
L 215.958779 97.644812 
L 216.924497 98.205635 
L 217.968222 99.09326 
L 219.085272 100.345965 
L 222.834257 104.711373 
L 225.971671 107.570748 
L 227.823542 109.269611 
L 229.018598 110.7206 
L 230.335345 112.614059 
L 236.755266 122.163016 
L 237.820833 123.317759 
L 239.238988 124.443956 
L 241.799156 126.509036 
L 243.220431 128.159223 
L 244.410808 129.914567 
L 246.340684 133.332417 
L 248.420333 136.811174 
L 250.049105 139.272173 
L 255.429982 147.135927 
L 257.186684 150.540203 
L 259.915346 156.18496 
L 262.784419 162.701104 
L 265.037241 168.867271 
L 266.815786 174.252067 
L 268.672336 180.792917 
L 272.452523 194.992412 
L 274.165542 201.069685 
L 275.809916 206.023825 
L 279.499615 216.584087 
L 280.198552 219.912337 
L 281.033219 224.964775 
L 282.053542 232.442419 
L 285.223719 258.761155 
L 287.677799 277.626431 
L 288.493745 283.284658 
L 288.493745 283.284658 
" style="fill:none;stroke:#8c564b;stroke-linecap:square;stroke-width:2;"/>
   </g>
   <g id="line2d_15">
    <path clip-path="url(#p7b691d7693)" d="M 73.372568 278.36014 
L 76.801726 246.705817 
L 78.032666 238.002634 
L 79.305729 230.596408 
L 80.513267 224.673638 
L 81.828454 219.416809 
L 84.075036 211.585357 
L 86.744413 203.071197 
L 88.995676 196.501323 
L 90.326464 193.220615 
L 94.615252 183.045865 
L 98.348635 173.244711 
L 101.342518 166.299664 
L 103.211549 162.602101 
L 105.612584 158.480933 
L 107.618907 155.076735 
L 108.815524 152.630305 
L 112.018464 145.954828 
L 113.686239 143.140585 
L 120.372942 132.337269 
L 121.958031 130.54541 
L 124.196812 128.077706 
L 125.201534 126.658706 
L 126.377869 124.618698 
L 127.853749 121.553343 
L 131.094132 114.634864 
L 132.016167 113.346318 
L 133.050531 112.33474 
L 134.190983 111.488491 
L 136.387642 109.907039 
L 138.077259 108.316006 
L 143.987018 102.253489 
L 145.503461 100.091456 
L 148.707961 95.458619 
L 149.784449 94.324876 
L 152.714366 91.478148 
L 155.124762 88.530353 
L 157.19817 86.145113 
L 158.639727 84.854848 
L 160.602367 83.494507 
L 161.795863 82.597693 
L 163.076727 81.341807 
L 167.092493 77.001074 
L 172.114541 71.630744 
L 173.743313 70.229006 
L 174.980493 69.456656 
L 176.475095 68.756925 
L 179.044623 67.585014 
L 180.334848 66.648218 
L 181.988582 65.109474 
L 183.4395 63.861909 
L 184.773408 63.008446 
L 185.923221 62.537576 
L 187.080835 62.300358 
L 188.466228 62.279685 
L 191.722212 62.324913 
L 193.546 62.270235 
L 195.104566 62.484809 
L 196.714617 62.661888 
L 197.563326 62.552877 
L 198.59613 62.188723 
L 199.920677 61.442472 
L 201.725744 60.47519 
L 202.730465 60.245044 
L 203.502728 60.289692 
L 204.63382 60.624575 
L 206.828918 61.389266 
L 208.062978 61.508596 
L 211.055301 61.739042 
L 214.556225 62.504303 
L 216.540706 63.140801 
L 217.82625 63.799703 
L 218.965143 64.625224 
L 222.353738 67.49683 
L 223.634602 68.124297 
L 225.71581 69.080498 
L 226.828181 69.857965 
L 227.80014 70.766309 
L 228.753377 71.952596 
L 231.86583 76.107983 
L 232.7317 76.730846 
L 233.536725 77.065667 
L 236.770868 78.04841 
L 237.697583 78.739321 
L 238.613377 79.731742 
L 239.588456 81.158938 
L 243.315599 87.04686 
L 244.68695 88.612314 
L 246.04582 89.822871 
L 247.925773 91.164627 
L 249.702757 92.50297 
L 253.574991 95.41936 
L 255.749808 96.890783 
L 257.511191 98.366076 
L 258.86382 99.776046 
L 260.275735 101.580716 
L 262.742295 105.13151 
L 265.597327 109.274678 
L 267.539684 111.714486 
L 270.677099 115.657177 
L 272.457203 118.33085 
L 275.096938 122.360725 
L 280.810121 130.166141 
L 283.020821 133.735649 
L 290.300371 146.585413 
L 292.539153 150.825151 
L 297.297539 160.062475 
L 302.215058 168.826921 
L 304.132454 172.520027 
L 305.850153 176.158192 
L 307.194982 179.567861 
L 308.471166 183.480044 
L 311.695948 193.498632 
L 315.494856 205.267232 
L 319.257881 218.052007 
L 321.591831 226.399746 
L 322.874255 232.036162 
L 324.259647 239.153263 
L 325.236286 245.430756 
L 326.367378 254.266948 
L 327.805815 267.503 
L 328.771533 276.857873 
L 328.771533 276.857873 
" style="fill:none;stroke:#1f77b4;stroke-linecap:square;stroke-width:2;"/>
   </g>
   <g id="line2d_16">
    <path clip-path="url(#p7b691d7693)" d="M 82.950185 283.264567 
L 84.884742 270.442195 
L 86.098521 263.955478 
L 87.097002 259.750877 
L 88.864625 253.515738 
L 91.307783 244.425509 
L 92.752461 238.299726 
L 95.476442 226.845815 
L 97.248745 220.009531 
L 98.529609 215.796862 
L 100.443885 210.326151 
L 101.913524 206.640952 
L 104.161666 201.440749 
L 105.980774 197.819697 
L 107.938733 193.859946 
L 109.832727 189.456773 
L 112.846891 182.314528 
L 114.971784 178.084096 
L 117.51167 173.483199 
L 119.759812 169.660247 
L 121.037556 167.945516 
L 122.803619 165.975992 
L 124.678891 163.927961 
L 126.351347 161.610936 
L 128.377952 158.358636 
L 132.981885 150.83174 
L 134.496768 148.728317 
L 137.214509 145.424732 
L 139.720072 142.500775 
L 141.752917 139.816749 
L 145.476939 134.954131 
L 149.67836 129.904444 
L 151.747088 127.393704 
L 154.23705 124.902391 
L 155.923547 123.12695 
L 157.447791 121.199598 
L 160.090645 117.766864 
L 161.451075 116.460104 
L 162.73506 115.546039 
L 164.566648 114.132358 
L 165.476202 113.098387 
L 166.93024 111.024386 
L 168.808632 108.421663 
L 170.165943 106.902511 
L 172.451528 104.733455 
L 174.356443 102.797057 
L 177.640509 99.368795 
L 179.178794 98.382984 
L 180.994781 97.509269 
L 183.523747 96.562942 
L 185.121316 96.11734 
L 186.77037 95.829668 
L 192.542839 95.092987 
L 196.546123 95.074934 
L 197.873791 94.956299 
L 199.538446 94.552396 
L 201.781908 94.038573 
L 203.288991 93.936585 
L 204.725867 94.079056 
L 207.867962 94.695773 
L 210.262756 95.209823 
L 211.727715 95.349076 
L 212.966456 95.232653 
L 214.325326 94.887239 
L 216.337889 94.36057 
L 217.322329 94.320103 
L 218.227203 94.517201 
L 218.962022 94.873551 
L 219.909019 95.575808 
L 221.27101 96.929665 
L 223.224288 98.950064 
L 225.683048 101.101372 
L 228.806421 103.657452 
L 231.077966 106.084462 
L 240.669624 116.478656 
L 245.158108 122.178643 
L 246.691713 123.526993 
L 248.710516 125.398663 
L 250.064706 127.060123 
L 252.556229 130.129982 
L 253.734124 131.134102 
L 255.425301 132.233986 
L 256.584475 133.086639 
L 257.586077 134.097981 
L 258.632922 135.476126 
L 261.069839 139.157473 
L 264.974836 145.057544 
L 266.266621 146.631861 
L 269.354112 150.244226 
L 270.759786 152.360569 
L 271.737985 154.253955 
L 273.03133 157.337319 
L 275.337197 162.900944 
L 276.3622 164.788451 
L 277.399685 166.179575 
L 278.558859 167.340103 
L 280.29996 169.100661 
L 281.618267 170.746713 
L 283.184634 173.268287 
L 285.133232 176.270896 
L 286.326729 177.736695 
L 289.114675 180.979017 
L 290.264489 182.738257 
L 291.261409 184.620494 
L 292.425264 187.294637 
L 293.994751 191.559221 
L 296.402027 198.061496 
L 297.854504 201.48297 
L 300.296103 207.084128 
L 302.332068 212.263125 
L 306.208982 222.120885 
L 307.464884 225.448909 
L 308.372878 228.452533 
L 309.480568 232.848611 
L 310.697467 238.511557 
L 314.43865 256.826038 
L 315.580663 264.043508 
L 317.000378 274.623364 
L 317.445014 278.18692 
L 317.445014 278.18692 
" style="fill:none;stroke:#2ca02c;stroke-linecap:square;stroke-width:2;"/>
   </g>
   <g id="line2d_17">
    <path clip-path="url(#p7b691d7693)" d="M 76.027903 276.558985 
L 78.196479 256.141015 
L 79.163758 249.082614 
L 80.04835 244.214739 
L 80.981305 240.299319 
L 85.031394 224.647817 
L 87.56348 214.114674 
L 88.884907 209.787886 
L 90.641609 204.976252 
L 91.819505 201.539862 
L 93.418635 196.023618 
L 95.897676 187.407104 
L 97.437521 183.003587 
L 98.933682 179.451018 
L 101.133461 174.854962 
L 104.788837 167.380315 
L 108.803043 160.366231 
L 110.447417 156.395014 
L 113.770486 148.219014 
L 114.893777 146.176927 
L 116.224565 144.246259 
L 118.815936 141.118857 
L 121.390145 138.057495 
L 122.862904 135.877666 
L 124.018958 133.736637 
L 125.327904 130.858785 
L 128.661895 123.365857 
L 129.724341 121.713778 
L 130.655736 120.63971 
L 132.011486 119.422236 
L 134.777591 116.985846 
L 136.24723 115.371398 
L 137.557737 113.650697 
L 139.392445 110.781535 
L 142.905851 104.650982 
L 144.721838 101.714351 
L 146.143113 99.786381 
L 148.030866 97.680199 
L 151.28217 94.14882 
L 154.85018 89.873193 
L 156.444629 88.3446 
L 157.752015 87.403074 
L 159.981436 85.867669 
L 161.301303 84.639213 
L 162.61337 83.166705 
L 164.897395 80.226156 
L 167.012927 77.463415 
L 168.374917 76.146253 
L 172.691788 72.45448 
L 174.187949 70.795532 
L 176.656069 68.110379 
L 178.921373 66.064369 
L 182.08843 63.521273 
L 183.264766 62.915409 
L 184.615835 62.510853 
L 185.920101 62.325039 
L 188.718968 62.006909 
L 195.126408 60.874825 
L 197.070326 60.963304 
L 200.380915 61.233874 
L 201.67894 61.039146 
L 203.089294 60.533041 
L 204.621339 59.967435 
L 205.794554 59.73524 
L 206.900684 59.729919 
L 207.992772 59.906839 
L 209.788478 60.426303 
L 212.206674 61.056046 
L 214.960298 61.586852 
L 216.954139 62.223051 
L 219.089953 63.049747 
L 221.097836 63.755764 
L 223.115079 64.552848 
L 224.149443 65.254659 
L 225.040276 66.136232 
L 226.280576 67.717003 
L 227.829782 70.111374 
L 230.098206 73.603209 
L 231.188735 74.851542 
L 232.460238 75.911844 
L 236.018887 78.705252 
L 238.583735 81.536826 
L 242.772675 86.069441 
L 244.666668 87.680337 
L 246.607466 89.418285 
L 247.818124 90.859555 
L 249.602909 93.428397 
L 253.515706 99.208934 
L 254.646798 100.289129 
L 257.812295 103.022118 
L 259.007352 104.536892 
L 262.603444 109.277623 
L 264.108966 110.838672 
L 265.595767 112.089823 
L 267.176175 113.532573 
L 268.324428 114.934438 
L 269.588131 116.926067 
L 271.363555 120.225193 
L 273.263789 124.292814 
L 275.652343 129.281354 
L 276.697628 130.954151 
L 277.788156 132.298331 
L 278.975412 133.368456 
L 280.610425 134.78637 
L 281.736837 136.134769 
L 282.560583 137.495935 
L 283.783723 139.995786 
L 286.297087 145.20946 
L 288.223843 148.715215 
L 291.924463 155.275766 
L 296.001074 162.941755 
L 298.668891 168.118408 
L 303.659736 178.972115 
L 304.94216 182.34828 
L 306.758147 187.742454 
L 310.215388 198.104535 
L 314.948812 211.73561 
L 316.220315 216.466206 
L 317.833486 223.370141 
L 319.576147 231.806502 
L 320.554347 237.672761 
L 321.501343 244.809958 
L 322.641796 255.22641 
L 324.29085 272.500456 
L 324.29085 272.500456 
" style="fill:none;stroke:#ff7f0e;stroke-linecap:square;stroke-width:2;"/>
   </g>
   <g id="line2d_18">
    <path clip-path="url(#p7b691d7693)" d="M 70.586182 273.608156 
L 72.759438 252.102585 
L 73.826565 243.773346 
L 74.887451 237.170934 
L 76.240081 230.218887 
L 78.258884 219.643501 
L 81.840935 200.693328 
L 83.171723 195.18279 
L 84.307495 191.511029 
L 85.446388 188.65371 
L 87.380945 184.365866 
L 89.721135 178.892852 
L 93.827388 169.300671 
L 96.829071 162.24387 
L 102.170945 148.440729 
L 104.687429 143.141553 
L 108.500379 135.407863 
L 111.099549 130.217057 
L 112.787606 127.288727 
L 114.882856 124.228753 
L 116.739407 121.373264 
L 120.071838 115.665149 
L 122.460391 111.730513 
L 124.009597 109.603823 
L 126.582246 106.212042 
L 129.365512 102.133044 
L 131.833632 98.034075 
L 133.727626 94.980958 
L 135.078695 93.243327 
L 136.607619 91.653941 
L 139.32068 88.965113 
L 140.506376 87.456209 
L 141.993176 85.229552 
L 144.305284 81.777977 
L 145.475379 80.460539 
L 149.793809 75.969791 
L 151.845376 73.310693 
L 154.967189 69.237548 
L 156.57412 67.588223 
L 158.131126 66.309068 
L 163.750702 62.033245 
L 169.545012 56.934339 
L 173.242512 54.049876 
L 176.41893 51.589616 
L 181.386373 47.435372 
L 183.999585 45.68027 
L 185.305411 45.12659 
L 187.3913 44.512682 
L 188.411623 44.466859 
L 189.48343 44.656349 
L 192.609924 45.355793 
L 193.655209 45.2075 
L 197.307465 44.447687 
L 198.582089 44.503045 
L 201.836513 44.884232 
L 212.735557 44.385744 
L 214.075706 44.687421 
L 216.121032 45.455717 
L 219.272488 46.658622 
L 220.459744 47.42682 
L 223.257051 49.642672 
L 224.578478 50.884961 
L 226.400706 52.940077 
L 228.923431 55.737236 
L 230.115367 56.783627 
L 231.102928 57.356869 
L 232.037443 57.627674 
L 234.411956 58.134016 
L 235.210741 58.595592 
L 236.114054 59.397091 
L 237.530649 60.999366 
L 241.128301 65.012918 
L 244.858564 69.062943 
L 249.752681 74.802802 
L 252.236403 77.154142 
L 256.860618 81.53951 
L 258.944947 83.882017 
L 260.505074 85.985119 
L 262.141646 88.528591 
L 266.148052 95.097839 
L 267.380552 96.509142 
L 269.449279 98.439975 
L 271.078052 100.055597 
L 272.650659 101.982315 
L 274.76151 104.948259 
L 278.666507 110.851288 
L 283.99434 119.823782 
L 285.192517 121.257826 
L 287.721482 124.294085 
L 288.988305 126.279913 
L 290.28789 128.675342 
L 292.169403 132.584534 
L 296.138365 141.113627 
L 299.136929 146.490014 
L 303.647255 154.278251 
L 306.201182 159.587989 
L 307.922001 163.66597 
L 310.149862 169.738632 
L 311.539935 174.17984 
L 313.516615 181.250106 
L 317.329565 194.828538 
L 321.193998 208.015974 
L 322.520106 213.680038 
L 324.726125 224.09933 
L 325.967986 230.690903 
L 326.933704 237.098652 
L 327.907223 245.141785 
L 329.072638 256.711184 
L 330.309818 270.499393 
L 330.309818 270.499393 
" style="fill:none;stroke:#1f77b4;stroke-linecap:square;stroke-width:2;"/>
   </g>
   <g id="line2d_19">
    <path clip-path="url(#p7b691d7693)" d="M 81.741087 277.073879 
L 83.894062 257.90274 
L 84.965869 250.306933 
L 85.984631 244.649433 
L 87.100122 239.741998 
L 90.309302 226.140836 
L 94.493562 207.592059 
L 95.760385 203.106097 
L 96.917999 199.845609 
L 98.16454 197.050574 
L 99.453204 194.724923 
L 102.97753 188.573805 
L 104.269315 185.5455 
L 105.572021 181.958758 
L 110.257081 168.370773 
L 111.408455 165.943337 
L 112.634714 163.906091 
L 113.895296 162.263702 
L 118.157562 157.098698 
L 119.589758 154.578783 
L 124.53848 145.590189 
L 126.802224 142.038988 
L 132.688581 132.998162 
L 136.25035 126.711887 
L 137.72779 124.584273 
L 139.907287 121.873867 
L 141.54854 119.660177 
L 143.125828 117.209506 
L 145.536224 113.505865 
L 147.063588 111.595006 
L 149.503626 109.002699 
L 153.37274 105.186749 
L 155.073278 103.134524 
L 157.039037 100.44243 
L 159.120246 97.192382 
L 160.513439 95.239324 
L 161.802104 93.832077 
L 163.23274 92.622119 
L 166.081531 90.386395 
L 167.429481 88.963643 
L 168.90068 87.098811 
L 171.48581 83.902967 
L 174.475012 80.351412 
L 176.559341 77.923263 
L 178.595307 75.861854 
L 181.479981 73.452596 
L 183.241364 72.336192 
L 184.55343 71.75567 
L 185.600275 71.529507 
L 187.291452 71.43703 
L 188.86094 71.310301 
L 190.756494 70.909917 
L 192.258895 70.695864 
L 193.848664 70.744931 
L 197.525883 70.940376 
L 198.667896 70.701885 
L 200.415237 70.074914 
L 202.246826 69.468734 
L 203.519889 69.383317 
L 204.562054 69.51795 
L 209.334481 70.552363 
L 211.156709 70.61252 
L 215.320687 70.612315 
L 216.774725 70.948795 
L 217.749804 71.434485 
L 218.640636 72.136655 
L 220.016668 73.541759 
L 222.486348 75.971722 
L 228.143367 81.385374 
L 234.528966 88.835381 
L 236.964323 91.10566 
L 240.529213 94.523439 
L 246.964735 101.504627 
L 248.563865 103.137793 
L 249.972659 104.928954 
L 251.358051 107.135714 
L 254.141317 112.148175 
L 256.358257 116.006372 
L 257.636001 117.785887 
L 259.057276 119.348782 
L 262.244615 122.665881 
L 263.704893 124.548773 
L 267.026403 128.900767 
L 269.291707 131.892353 
L 270.861194 134.233876 
L 272.585134 137.207303 
L 277.441808 145.729074 
L 285.317327 157.512694 
L 287.877495 160.96671 
L 289.060071 163.058329 
L 290.292571 165.797453 
L 292.38002 170.986604 
L 294.781055 176.72025 
L 298.54096 185.229842 
L 303.58641 197.467171 
L 308.786312 211.033441 
L 310.093698 215.235418 
L 311.780195 221.617476 
L 315.650869 237.712419 
L 316.618147 243.019033 
L 317.547983 249.471562 
L 318.591707 258.359709 
L 320.10971 273.531936 
L 320.360891 276.110439 
L 320.360891 276.110439 
" style="fill:none;stroke:#2ca02c;stroke-linecap:square;stroke-width:2;"/>
   </g>
   <g id="line2d_20">
    <path clip-path="url(#p7b691d7693)" d="M 118.411863 288.190652 
L 119.449347 281.371119 
L 120.883103 270.155009 
L 122.558679 255.102087 
L 125.268619 231.371282 
L 126.775702 220.2242 
L 128.012882 212.593614 
L 130.94436 196.36543 
L 132.077012 191.148626 
L 133.418721 186.103258 
L 134.286151 183.632918 
L 137.498452 174.623312 
L 142.504898 160.104335 
L 143.88561 156.809731 
L 145.051025 154.651957 
L 146.793686 152.028357 
L 149.026227 148.576698 
L 150.392898 145.974825 
L 154.744091 137.373725 
L 159.589844 129.656248 
L 161.532202 127.287147 
L 165.307708 122.628831 
L 166.9318 119.791125 
L 168.708784 116.807607 
L 172.481171 111.081203 
L 174.368924 108.517345 
L 175.849484 106.833722 
L 177.188072 105.647912 
L 178.253639 105.024649 
L 179.411253 104.611819 
L 180.654674 104.125179 
L 181.862212 103.405409 
L 183.193 102.303351 
L 187.322655 98.585266 
L 188.255611 98.149389 
L 189.088718 98.004423 
L 190.037275 98.084343 
L 193.238655 98.493064 
L 195.727057 98.386937 
L 199.641415 98.168045 
L 201.877076 98.496634 
L 203.64626 98.969014 
L 205.699386 99.500255 
L 206.817997 99.525365 
L 207.96937 99.322336 
L 211.130187 98.617563 
L 212.308082 98.701998 
L 213.303443 98.982819 
L 214.303484 99.489241 
L 217.383174 101.153753 
L 219.79201 102.229809 
L 221.709405 103.153455 
L 223.213367 104.148296 
L 224.489551 105.3351 
L 225.734532 106.790079 
L 227.815741 109.557004 
L 230.775301 114.007479 
L 232.014042 115.634466 
L 233.252782 116.906838 
L 236.566491 119.945143 
L 238.28419 122.008528 
L 239.332595 123.520811 
L 240.689906 125.902895 
L 244.718152 133.485189 
L 246.527899 136.029467 
L 248.730798 138.970742 
L 249.996061 141.119712 
L 251.267564 143.764286 
L 253.860494 149.271047 
L 255.621877 152.457526 
L 259.676646 159.673391 
L 260.721931 162.185682 
L 262.208732 166.499247 
L 264.456874 174.047917 
L 266.723738 181.291591 
L 269.814349 190.873212 
L 271.376036 196.833826 
L 275.25139 212.633178 
L 276.72883 220.207372 
L 277.702349 226.272697 
L 279.058099 236.588437 
L 280.431011 248.783187 
L 283.99902 282.901707 
L 283.99902 282.901707 
" style="fill:none;stroke:#c49c94;stroke-linecap:square;stroke-width:2;"/>
   </g>
   <g id="line2d_21">
    <path clip-path="url(#p7b691d7693)" d="M 79.970343 274.8687 
L 82.525831 249.308139 
L 83.580476 241.17505 
L 84.561796 235.324444 
L 85.571198 230.631241 
L 86.962831 225.215418 
L 88.602524 219.876949 
L 90.934913 213.014285 
L 95.595011 199.590685 
L 98.279989 191.302045 
L 100.411122 185.522602 
L 102.027413 181.884035 
L 105.111784 175.726877 
L 108.480097 169.053803 
L 110.166594 165.044869 
L 111.773524 161.41928 
L 113.119913 158.972259 
L 114.653518 156.695164 
L 116.906341 153.338119 
L 118.474268 150.491931 
L 121.610122 144.642429 
L 125.64617 138.200294 
L 130.190819 130.789567 
L 133.424961 125.313168 
L 135.701186 121.684236 
L 137.529654 119.25837 
L 139.874525 116.450554 
L 143.016619 112.700697 
L 144.606388 110.303262 
L 147.789047 105.348543 
L 149.069911 103.848202 
L 150.101154 103.007262 
L 152.934344 100.881957 
L 154.185566 99.419271 
L 155.96255 96.934759 
L 157.996955 94.183235 
L 159.800461 92.154427 
L 162.307585 89.743483 
L 164.769465 87.646443 
L 166.198541 86.323494 
L 167.363955 84.992341 
L 168.710345 83.104765 
L 170.293873 80.467177 
L 172.276794 77.181402 
L 173.251873 76.012686 
L 174.231633 75.159633 
L 175.531218 74.383983 
L 178.02586 72.915867 
L 179.234959 71.869439 
L 182.935579 68.440351 
L 183.732804 68.137772 
L 184.55655 68.06674 
L 185.506668 68.214243 
L 188.194766 68.77162 
L 189.321177 68.663201 
L 190.745573 68.275843 
L 193.480475 67.484925 
L 194.519519 67.49098 
L 195.63657 67.725848 
L 199.037646 68.615569 
L 200.318509 68.594846 
L 202.29831 68.302036 
L 205.652582 67.695482 
L 206.774313 67.419547 
L 209.033377 66.827778 
L 210.289279 66.793946 
L 211.858766 66.999511 
L 217.320769 68.298331 
L 218.384776 68.829944 
L 219.261567 69.514631 
L 221.592396 71.69232 
L 223.174364 73.000497 
L 224.707969 74.358323 
L 226.023155 75.79374 
L 227.241614 77.487039 
L 230.686374 82.682836 
L 231.595928 83.465412 
L 232.922035 84.296448 
L 236.262266 86.188803 
L 237.326273 87.166318 
L 239.888001 89.979098 
L 245.220513 95.785083 
L 249.437535 99.61696 
L 250.943058 101.435807 
L 252.369013 103.527129 
L 255.673361 108.43454 
L 261.107282 115.46406 
L 262.614365 118.044679 
L 264.937393 121.956399 
L 266.113729 123.429569 
L 267.422675 124.679354 
L 269.873634 126.968029 
L 270.798789 128.196683 
L 271.931441 130.072271 
L 274.232628 134.411876 
L 275.98777 137.452948 
L 277.008093 138.827758 
L 278.459011 140.458869 
L 281.090944 143.47144 
L 282.532501 145.578555 
L 286.005343 151.056713 
L 288.740245 155.743711 
L 290.017989 158.472341 
L 299.054242 179.091352 
L 300.661172 182.373886 
L 302.124571 184.900762 
L 304.007644 188.200661 
L 305.355593 190.993507 
L 306.558451 194.011419 
L 308.636539 200.001549 
L 310.547695 206.370137 
L 315.66335 224.911569 
L 317.502739 233.115214 
L 319.162714 241.540155 
L 320.381172 248.639842 
L 321.576229 256.922502 
L 323.114514 269.201403 
L 324.262767 278.956192 
L 324.262767 278.956192 
" style="fill:none;stroke:#ffbb78;stroke-linecap:square;stroke-width:2;"/>
   </g>
   <g id="line2d_22">
    <path clip-path="url(#p7b691d7693)" d="M 75.957698 277.47838 
L 79.110714 247.366394 
L 80.151318 239.909177 
L 81.118597 234.448926 
L 82.287131 229.22915 
L 83.318375 225.520182 
L 84.752131 221.211361 
L 91.159571 203.560109 
L 93.509122 196.842595 
L 95.293907 192.210899 
L 101.553135 176.784832 
L 103.799717 170.610113 
L 105.102423 167.588926 
L 106.445692 165.095719 
L 110.088587 158.63811 
L 111.617511 155.448096 
L 113.828211 150.893157 
L 115.149638 148.649423 
L 116.808053 146.356512 
L 119.530474 142.780635 
L 121.377664 140.03439 
L 124.53536 134.788286 
L 126.480838 131.180999 
L 129.991122 124.581052 
L 131.412398 122.329838 
L 132.79467 120.521023 
L 134.963246 118.044931 
L 137.339319 115.264655 
L 143.412892 107.129808 
L 145.320926 104.93733 
L 147.400575 102.693062 
L 148.528547 101.116712 
L 154.104439 92.716389 
L 155.154404 91.654776 
L 156.215291 90.860267 
L 160.622648 87.609587 
L 162.903553 85.367589 
L 166.399797 81.465074 
L 169.750949 77.761196 
L 171.680826 76.041483 
L 174.07094 74.206849 
L 176.339364 72.523038 
L 178.926054 70.341117 
L 184.495705 65.378387 
L 185.642399 64.695791 
L 186.839016 64.288359 
L 187.767291 64.224651 
L 188.834418 64.454071 
L 190.118402 64.986292 
L 191.779937 65.582996 
L 193.035839 65.731542 
L 194.29174 65.671203 
L 202.212503 64.513388 
L 204.75707 64.068949 
L 207.028614 63.930634 
L 208.83368 63.935981 
L 210.66995 64.121644 
L 212.682513 64.529229 
L 215.946298 65.403019 
L 218.110193 66.129675 
L 221.662602 67.682157 
L 223.325697 68.684142 
L 224.459909 69.677334 
L 225.934228 71.378506 
L 231.138811 77.574638 
L 232.377551 78.563041 
L 233.973561 79.540097 
L 235.185779 80.418956 
L 236.647618 81.794939 
L 238.622738 84.01567 
L 251.754323 99.836284 
L 254.369096 103.199707 
L 259.066637 108.852886 
L 263.876507 115.543231 
L 265.250979 116.877094 
L 267.354029 118.465548 
L 268.882953 119.743138 
L 270.098292 121.016017 
L 271.641257 123.008479 
L 273.168621 125.447445 
L 275.224868 129.162817 
L 277.045536 132.299884 
L 278.608783 134.425223 
L 281.952134 138.616413 
L 283.147191 140.756894 
L 284.281403 143.227308 
L 287.161397 149.572823 
L 288.476583 151.845824 
L 291.562514 156.926333 
L 292.812175 159.648253 
L 294.866862 164.737817 
L 297.102523 169.95828 
L 299.600286 175.159354 
L 303.46316 183.253137 
L 305.633296 188.560062 
L 312.895685 207.592396 
L 314.3076 212.420109 
L 316.223435 220.040304 
L 319.232919 232.987992 
L 320.326568 238.50729 
L 321.509144 245.822771 
L 322.889856 255.694996 
L 324.855616 271.758028 
L 326.805774 287.219959 
L 326.805774 287.219959 
" style="fill:none;stroke:#ff7f0e;stroke-linecap:square;stroke-width:2;"/>
   </g>
   <g id="line2d_23">
    <path clip-path="url(#p7b691d7693)" d="M 0 0 
" style="fill:none;stroke:#9edae5;stroke-linecap:square;stroke-width:2;"/>
   </g>
   <g id="line2d_24">
    <path clip-path="url(#p7b691d7693)" d="M 86.682008 280.954108 
L 90.2781 251.915644 
L 91.541802 244.206789 
L 93.059806 236.421674 
L 94.161255 231.745465 
L 95.251783 227.857256 
L 98.134897 218.780973 
L 105.111784 198.72188 
L 107.213274 193.416756 
L 109.211796 189.134475 
L 111.029344 185.686767 
L 114.776768 178.729599 
L 118.939186 170.842087 
L 120.644404 168.055282 
L 122.678809 165.295991 
L 124.641448 162.430962 
L 126.115768 159.894879 
L 132.264227 148.992043 
L 134.357917 146.062634 
L 135.933645 144.229565 
L 139.905727 140.031934 
L 141.273958 138.184343 
L 142.910531 135.657271 
L 145.815487 131.115298 
L 146.984021 129.745512 
L 148.550389 128.26233 
L 151.502148 125.502682 
L 152.525591 124.137329 
L 154.491351 121.019986 
L 156.313579 118.249379 
L 157.427509 116.924357 
L 158.878427 115.544078 
L 162.99092 111.886728 
L 164.287386 110.267738 
L 167.807031 105.543577 
L 172.776034 100.201654 
L 175.855724 97.159149 
L 179.089867 93.993081 
L 181.762364 91.011196 
L 182.773326 90.291584 
L 183.826411 89.820981 
L 184.994946 89.543198 
L 186.038671 89.530067 
L 192.876706 89.814336 
L 194.571003 89.536712 
L 196.324585 89.222958 
L 197.791104 89.221953 
L 199.689778 89.223094 
L 201.070491 89.023358 
L 202.17506 88.628555 
L 204.700905 87.544503 
L 205.74151 87.353464 
L 207.059817 87.30898 
L 208.048937 87.530173 
L 209.390646 88.063986 
L 212.794842 89.603469 
L 217.663997 91.364141 
L 218.985424 92.212726 
L 221.39894 93.879837 
L 224.275814 95.795862 
L 225.840621 97.268732 
L 227.105883 98.81856 
L 228.675371 101.151466 
L 229.982757 102.986144 
L 230.895431 103.945935 
L 232.010921 104.760046 
L 233.207538 105.352582 
L 234.745823 106.145749 
L 235.741184 106.939065 
L 236.894118 108.178692 
L 238.316953 110.093855 
L 240.468368 112.936566 
L 241.72427 114.201201 
L 245.315681 117.647196 
L 246.793121 119.549083 
L 252.064789 126.504502 
L 253.511026 127.913671 
L 255.629678 129.652507 
L 257.172643 131.096968 
L 258.759292 132.900901 
L 261.32414 136.131507 
L 263.077722 138.61475 
L 264.595726 141.142274 
L 267.956238 146.912256 
L 269.692659 149.320917 
L 272.04377 152.494497 
L 273.990808 155.664335 
L 277.193748 161.060706 
L 278.788197 163.190539 
L 281.150229 166.224848 
L 282.449814 168.313124 
L 285.22996 173.307596 
L 287.067789 176.8117 
L 289.30189 181.524403 
L 291.081995 185.612538 
L 295.21165 195.51841 
L 299.305422 203.114947 
L 301.191615 207.236759 
L 302.514603 210.538121 
L 306.05141 220.223463 
L 307.421201 224.743421 
L 308.658381 229.69627 
L 309.979808 236.214312 
L 311.876922 247.244123 
L 313.220191 256.395171 
L 314.831802 269.147783 
L 316.326403 281.452235 
L 316.326403 281.452235 
" style="fill:none;stroke:#98df8a;stroke-linecap:square;stroke-width:2;"/>
   </g>
   <g id="line2d_25">
    <path clip-path="url(#p7b691d7693)" d="M 80.464903 275.228605 
L 82.491508 256.557026 
L 83.469707 249.556927 
L 84.337138 244.874944 
L 85.178046 241.545354 
L 86.203049 238.432261 
L 88.248375 232.353389 
L 89.601005 227.706671 
L 91.440394 220.456718 
L 94.198698 209.549802 
L 95.609052 204.886345 
L 97.06153 200.907023 
L 98.796391 196.890182 
L 102.275473 189.008188 
L 105.294318 181.643517 
L 108.104106 174.508256 
L 111.002822 167.223731 
L 112.386654 164.427134 
L 113.517746 162.634029 
L 114.935901 160.884203 
L 117.627119 157.639009 
L 118.834657 155.692127 
L 120.925227 151.975448 
L 131.014566 134.336224 
L 133.835274 130.489612 
L 137.687227 125.560588 
L 139.748154 122.225083 
L 142.586025 117.725824 
L 144.431654 115.04516 
L 146.174316 112.970161 
L 148.965382 109.873985 
L 150.720525 107.868687 
L 152.063794 106.006028 
L 156.319819 99.80396 
L 158.700572 97.415483 
L 165.952041 90.372687 
L 168.878838 87.251607 
L 172.545136 83.273802 
L 175.127145 80.402308 
L 176.808962 78.744954 
L 178.375329 77.520033 
L 186.619038 71.915142 
L 187.664323 71.589304 
L 188.764212 71.476259 
L 189.917145 71.586043 
L 191.918788 72.027277 
L 194.953234 72.761932 
L 196.335506 72.728368 
L 197.819187 72.487934 
L 201.293589 71.776858 
L 202.565092 71.839918 
L 205.225108 72.048717 
L 206.267272 71.903044 
L 211.41101 70.822513 
L 212.40013 70.909571 
L 213.351807 71.200593 
L 214.50006 71.792082 
L 218.31613 73.903418 
L 222.614279 75.956529 
L 223.519152 76.795498 
L 224.623722 78.124693 
L 229.703494 84.751607 
L 231.146611 86.33354 
L 232.318266 87.313928 
L 234.007883 88.404695 
L 236.273187 89.921098 
L 237.257627 90.902991 
L 238.433963 92.407954 
L 239.969127 94.823869 
L 241.576058 97.226027 
L 242.682187 98.467602 
L 244.175228 99.738029 
L 247.15351 102.187556 
L 248.375089 103.533214 
L 252.08039 107.913442 
L 255.233406 110.952566 
L 256.664042 112.841821 
L 258.052555 115.013698 
L 259.795216 118.090026 
L 261.5644 121.003838 
L 263.583203 123.878402 
L 265.856308 126.678609 
L 268.564688 129.978436 
L 269.853352 131.848518 
L 270.94076 133.788252 
L 272.358916 136.746761 
L 275.305995 143.063086 
L 276.487011 144.921352 
L 277.71639 146.443618 
L 278.972292 147.72069 
L 280.619786 149.461983 
L 281.933412 151.234957 
L 283.463897 153.715135 
L 285.885213 158.092048 
L 289.704403 164.970353 
L 291.545352 168.356193 
L 293.139802 171.910564 
L 296.987074 180.644437 
L 298.211773 182.690237 
L 301.86403 188.137535 
L 302.72678 190.08725 
L 304.134014 193.775817 
L 305.332191 197.383501 
L 306.954723 203.003419 
L 309.861239 214.159166 
L 315.137587 234.709001 
L 316.181312 239.678727 
L 317.377929 246.269032 
L 318.529302 253.988098 
L 319.816407 264.355793 
L 321.733802 281.372599 
L 321.733802 281.372599 
" style="fill:none;stroke:#2ca02c;stroke-linecap:square;stroke-width:2;"/>
   </g>
   <g id="line2d_26">
    <path clip-path="url(#p7b691d7693)" d="M 88.599404 276.535214 
L 90.587005 259.026323 
L 91.688454 251.252228 
L 92.666654 245.879213 
L 93.705698 241.367113 
L 95.563809 234.57861 
L 98.208223 225.994303 
L 104.81848 206.403108 
L 106.116505 203.425837 
L 108.801483 197.399761 
L 112.743923 187.87736 
L 114.258806 184.950482 
L 115.978065 182.146911 
L 121.890945 173.117062 
L 123.344983 170.404205 
L 128.465319 160.576732 
L 130.076929 158.164113 
L 131.523167 156.327407 
L 135.270591 151.711959 
L 138.482892 146.850664 
L 139.712271 145.190112 
L 140.946331 143.970859 
L 144.285002 140.763807 
L 145.459778 139.187385 
L 146.611151 137.313383 
L 150.403819 130.889108 
L 153.121559 127.170324 
L 154.778414 125.26855 
L 156.725452 123.37421 
L 159.084363 121.273934 
L 165.582291 115.413331 
L 167.05817 113.674626 
L 169.195544 110.784338 
L 175.43449 102.604099 
L 177.635829 100.00266 
L 179.057104 98.65837 
L 180.696797 97.410513 
L 181.905895 96.758436 
L 183.503465 96.147919 
L 186.15256 95.176492 
L 189.213528 93.95447 
L 190.570838 93.687672 
L 191.914107 93.656418 
L 193.530399 93.89956 
L 194.956354 94.332597 
L 198.137453 95.488842 
L 198.881633 95.453638 
L 199.747503 95.186142 
L 200.877035 94.60132 
L 204.298392 92.635181 
L 205.13462 92.518653 
L 206.044174 92.645785 
L 207.732231 93.113197 
L 209.184709 93.400988 
L 213.108427 93.765529 
L 215.169355 94.004748 
L 216.188117 94.337878 
L 217.219361 94.924182 
L 218.673399 96.081411 
L 220.153959 97.551914 
L 225.210329 102.722458 
L 228.658209 105.808437 
L 230.829905 107.73106 
L 232.327627 108.714106 
L 235.797349 110.914808 
L 237.014247 112.053184 
L 238.552532 113.819947 
L 240.828757 116.842228 
L 251.704399 131.805942 
L 252.69664 132.709745 
L 253.695121 133.33597 
L 256.138279 134.68841 
L 256.916782 135.489343 
L 257.880941 136.817644 
L 258.938706 138.652342 
L 264.327384 148.668769 
L 265.447555 150.053415 
L 267.152773 151.699617 
L 269.031165 153.473045 
L 270.123254 154.826267 
L 271.135776 156.500319 
L 272.274669 158.85302 
L 273.808273 162.507796 
L 275.095378 165.406069 
L 276.031454 166.978196 
L 276.859881 167.952873 
L 277.925447 168.828683 
L 279.490254 169.726226 
L 280.276558 170.355234 
L 281.000457 171.143323 
L 281.853846 172.371677 
L 282.869488 174.271249 
L 285.077068 179.006131 
L 287.437539 184.555749 
L 288.819811 188.382637 
L 291.27389 195.171547 
L 292.776292 198.749183 
L 294.288055 201.756028 
L 295.787337 204.142359 
L 296.93091 206.149913 
L 298.29758 208.991752 
L 300.938875 215.039778 
L 302.332068 219.052434 
L 305.325951 228.283678 
L 306.580293 231.305957 
L 308.934524 236.946464 
L 310.198226 241.026456 
L 310.954888 244.340607 
L 311.706869 248.67107 
L 312.600821 255.154651 
L 313.755315 265.179129 
L 315.17971 278.606589 
L 315.17971 278.606589 
" style="fill:none;stroke:#98df8a;stroke-linecap:square;stroke-width:2;"/>
   </g>
   <g id="line2d_27">
    <path clip-path="url(#p7b691d7693)" d="M 73.096426 276.928465 
L 76.837609 241.368204 
L 78.004584 233.126259 
L 79.294809 225.636382 
L 80.453983 219.943443 
L 82.042191 213.193979 
L 83.681885 207.13571 
L 86.568119 197.405023 
L 89.513638 188.256963 
L 92.317185 180.160651 
L 93.763423 176.515863 
L 95.568489 172.60217 
L 97.540489 168.306422 
L 99.571774 163.241376 
L 102.918246 154.747856 
L 104.408166 151.791247 
L 106.241315 148.723545 
L 109.146271 143.925492 
L 111.183796 139.965284 
L 118.934505 124.320929 
L 121.387024 120.206691 
L 125.02524 114.632017 
L 128.630692 109.35337 
L 133.393759 102.724577 
L 138.022654 95.643144 
L 139.863604 93.474825 
L 146.484781 86.773134 
L 148.461461 84.702106 
L 153.424224 78.942563 
L 157.156047 75.171397 
L 159.271579 72.459908 
L 162.628971 68.217786 
L 164.613452 66.220555 
L 170.01149 61.171259 
L 171.988171 58.636786 
L 174.049098 56.115528 
L 175.635747 54.594271 
L 177.080424 53.553171 
L 178.317604 52.902907 
L 184.30225 50.140341 
L 186.544152 48.780758 
L 188.065275 47.908232 
L 189.227569 47.473624 
L 190.319658 47.309223 
L 191.347782 47.421768 
L 192.506956 47.824785 
L 193.861145 48.538014 
L 195.780101 49.487588 
L 196.839427 49.755933 
L 197.800465 49.760344 
L 198.713139 49.551653 
L 199.784946 49.036273 
L 201.939481 47.835719 
L 202.981646 47.570325 
L 203.962965 47.488351 
L 205.677544 47.635115 
L 208.46081 47.957573 
L 209.582541 47.860752 
L 210.902408 47.495003 
L 213.283162 46.728383 
L 214.701317 46.591694 
L 215.631152 46.699339 
L 216.729481 47.067903 
L 217.971342 47.772145 
L 219.267807 48.791459 
L 220.743687 50.204562 
L 222.701646 52.45627 
L 227.236934 57.828195 
L 229.759659 60.469122 
L 231.847108 62.696208 
L 232.939197 63.495764 
L 234.004763 63.989907 
L 237.741266 65.471354 
L 238.632099 66.212876 
L 239.493288 67.220733 
L 240.767912 69.153963 
L 243.434168 73.245119 
L 245.446732 75.822287 
L 246.882048 77.317964 
L 250.063146 80.455515 
L 252.56871 83.347861 
L 257.829456 89.244914 
L 262.099523 93.33042 
L 263.530159 95.247443 
L 270.039007 104.83046 
L 271.55233 107.614938 
L 274.905042 114.158511 
L 276.504172 116.504529 
L 281.226675 123.227126 
L 287.94302 134.4849 
L 290.883859 139.487498 
L 294.776375 146.309693 
L 297.707853 151.073621 
L 298.845185 153.496048 
L 301.066805 158.946628 
L 302.36015 161.823802 
L 303.806387 164.473633 
L 306.801831 169.599219 
L 307.795631 171.963004 
L 308.957925 175.348228 
L 310.73959 181.329169 
L 313.229552 189.318657 
L 317.969217 204.713147 
L 319.574587 211.130031 
L 321.311008 218.773617 
L 322.921059 227.271591 
L 324.203483 235.150101 
L 325.317413 243.413137 
L 326.490628 253.860644 
L 328.36434 272.992996 
L 328.613961 275.556405 
L 328.613961 275.556405 
" style="fill:none;stroke:#aec7e8;stroke-linecap:square;stroke-width:2;"/>
   </g>
   <g id="line2d_28">
    <path clip-path="url(#p7b691d7693)" d="M 0 0 
" style="fill:none;stroke:#17becf;stroke-linecap:square;stroke-width:2;"/>
   </g>
   <g id="line2d_29">
    <path clip-path="url(#p7b691d7693)" d="M 79.466422 276.842647 
L 81.327653 261.874226 
L 82.429103 254.824062 
L 83.486869 249.398251 
L 84.699087 244.377619 
L 87.577521 232.663813 
L 92.452916 213.346756 
L 94.410875 206.272756 
L 95.94604 201.528546 
L 97.454682 197.601629 
L 99.418882 193.122169 
L 103.358201 184.606661 
L 112.406936 166.665031 
L 116.338455 160.153244 
L 118.603758 155.654745 
L 122.429189 148.052405 
L 123.92067 145.689881 
L 125.694534 143.362456 
L 127.86311 140.413438 
L 129.507483 137.77701 
L 134.039651 130.136281 
L 136.559255 126.666131 
L 138.358081 124.069922 
L 140.521977 120.949939 
L 141.724835 119.571874 
L 142.818483 118.672571 
L 143.946455 117.987186 
L 145.378651 117.362681 
L 146.832689 116.635069 
L 147.609632 115.989944 
L 148.434939 115.014089 
L 149.570711 113.229583 
L 151.52399 109.634307 
L 153.510031 106.183603 
L 155.070158 103.920778 
L 156.296417 102.487434 
L 157.641246 101.225355 
L 160.313743 99.031137 
L 163.062686 96.810087 
L 164.282705 95.390917 
L 165.56981 93.514497 
L 169.281351 87.812162 
L 170.543493 86.329118 
L 172.017813 84.894288 
L 174.436009 82.544249 
L 177.217715 79.701057 
L 178.378449 78.81061 
L 179.834047 78.008213 
L 181.651595 77.330891 
L 185.366256 76.180382 
L 191.673848 74.617951 
L 193.497636 74.45762 
L 194.801902 74.580011 
L 196.207576 74.993511 
L 197.714658 75.450238 
L 199.355911 75.660682 
L 201.607174 75.64276 
L 204.094016 75.650466 
L 205.961487 75.733461 
L 206.827358 75.54706 
L 207.779035 75.105568 
L 210.879006 73.465531 
L 211.882168 73.320023 
L 212.927453 73.431622 
L 213.88537 73.77968 
L 215.328488 74.530841 
L 216.879253 75.22093 
L 219.373896 76.271496 
L 220.611076 77.141685 
L 222.01519 78.470658 
L 223.771893 80.400853 
L 225.347621 82.445216 
L 230.904792 89.762239 
L 232.307345 91.157047 
L 233.458719 92.000281 
L 235.001684 92.800226 
L 237.143738 94.044825 
L 238.933203 95.311011 
L 240.554175 96.822292 
L 245.663589 102.06526 
L 247.378168 104.433902 
L 252.074149 110.999856 
L 253.624915 112.698876 
L 256.375418 115.730609 
L 257.812295 117.599355 
L 260.58308 121.736604 
L 263.453713 126.038172 
L 265.226017 128.210752 
L 269.519485 133.210315 
L 270.995365 135.413386 
L 272.444722 138.046616 
L 276.376242 145.438223 
L 277.944169 147.784778 
L 283.828966 156.210791 
L 287.829131 162.621454 
L 289.242606 165.62341 
L 292.022751 172.187512 
L 293.756052 175.920584 
L 294.904305 177.906023 
L 296.484713 180.215336 
L 298.258577 183.094885 
L 300.097967 186.51962 
L 305.307229 196.571644 
L 306.505406 199.483345 
L 307.572533 202.713402 
L 309.057774 207.998283 
L 310.98297 215.612966 
L 313.485413 225.540556 
L 315.232755 232.850404 
L 316.28272 238.308601 
L 318.310884 250.319755 
L 320.357771 263.336183 
L 322.212761 276.60851 
L 322.995945 282.254325 
L 322.995945 282.254325 
" style="fill:none;stroke:#ffbb78;stroke-linecap:square;stroke-width:2;"/>
   </g>
   <g id="line2d_30">
    <path clip-path="url(#p7b691d7693)" d="M 173.826 296.258875 
L 174.754275 294.652145 
L 175.8058 292.699725 
L 176.837044 290.104637 
L 177.952535 286.811828 
L 179.328566 281.905785 
L 180.352009 277.079333 
L 182.405136 267.515945 
L 183.93874 260.339206 
L 186.636199 245.460973 
L 188.943626 232.225933 
L 190.260373 226.15387 
L 191.308778 222.577119 
L 191.934389 221.055699 
L 192.519437 220.189803 
L 193.084202 219.679791 
L 193.91575 219.290612 
L 194.388468 219.290265 
L 195.126408 219.582671 
L 196.904952 220.31714 
L 197.454117 220.295517 
L 197.934636 220.086126 
L 198.491601 219.543211 
L 199.190538 218.450829 
L 200.004924 216.789192 
L 201.167218 213.974949 
L 202.766348 210.206419 
L 203.468405 209.066304 
L 203.925522 208.746628 
L 204.382639 208.69483 
L 204.767991 208.88524 
L 205.239149 209.421764 
L 205.87568 210.486947 
L 210.158228 218.324259 
L 210.857165 219.211434 
L 211.396968 219.580967 
L 211.914931 219.65962 
L 212.89625 219.82727 
L 213.365848 220.242999 
L 213.890051 221.098002 
L 214.457937 222.479843 
L 215.454858 225.534683 
L 216.361291 228.11119 
L 217.550108 230.588076 
L 218.178839 232.169021 
L 218.728003 234.210287 
L 219.364535 237.568919 
L 220.612636 245.523308 
L 221.731247 254.151877 
L 223.331937 268.534242 
L 225.433428 288.670444 
L 225.433428 288.670444 
" style="fill:none;stroke:#17becf;stroke-linecap:square;stroke-width:2;"/>
   </g>
   <g id="line2d_31">
    <path clip-path="url(#p7b691d7693)" d="M 148.963822 287.109567 
L 150.079313 281.122155 
L 152.817335 267.510649 
L 153.728449 261.409038 
L 154.580278 254.104616 
L 155.522594 243.96804 
L 157.517996 219.586539 
L 159.034439 201.988208 
L 160.050082 192.863915 
L 160.964316 186.556587 
L 166.256265 154.758351 
L 167.562091 148.338762 
L 168.811753 143.426438 
L 171.194066 134.406308 
L 172.23311 129.437605 
L 174.0725 119.44707 
L 175.365845 113.179596 
L 176.567142 108.497275 
L 178.191234 102.989347 
L 180.202237 96.016438 
L 181.440978 90.706428 
L 183.943421 79.921429 
L 184.692281 77.875778 
L 185.317892 76.726741 
L 185.90138 76.0928 
L 186.508269 75.76928 
L 188.796975 74.803093 
L 189.84538 73.955067 
L 191.310338 72.42384 
L 192.886066 70.802881 
L 193.725414 70.26866 
L 194.330744 70.123334 
L 194.833104 70.225507 
L 195.360427 70.566398 
L 196.126449 71.347721 
L 198.188937 73.568767 
L 198.876953 73.936599 
L 199.521285 74.04383 
L 200.173418 73.921355 
L 201.047089 73.510559 
L 202.05181 72.765819 
L 203.998848 71.316134 
L 204.627579 71.15039 
L 205.318715 71.211893 
L 206.086298 71.539551 
L 207.559057 72.194552 
L 208.267355 72.302708 
L 208.930408 72.197182 
L 209.724513 71.857089 
L 211.205073 71.163649 
L 211.971095 71.060051 
L 212.595146 71.196104 
L 213.244158 71.60689 
L 214.00082 72.380116 
L 215.016462 73.743206 
L 216.153795 75.729944 
L 218.07587 79.566787 
L 221.76869 87.686272 
L 223.012111 91.481853 
L 224.442747 96.613846 
L 227.509956 108.795122 
L 228.628567 114.668883 
L 230.088845 123.81513 
L 233.728621 146.801962 
L 234.610092 150.631775 
L 235.454121 153.349314 
L 236.220143 155.106643 
L 236.951842 156.911553 
L 237.586814 159.094521 
L 238.293551 162.319459 
L 239.02213 166.72217 
L 239.803754 173.012451 
L 240.948887 184.3753 
L 244.493494 220.77794 
L 245.607425 228.54762 
L 247.117627 239.190439 
L 248.095827 247.823514 
L 249.200396 259.833919 
L 249.919615 268.148365 
L 249.919615 268.148365 
" style="fill:none;stroke:#c7c7c7;stroke-linecap:square;stroke-width:2;"/>
   </g>
   <g id="line2d_32">
    <path clip-path="url(#p7b691d7693)" d="M 169.754069 278.672196 
L 171.708908 257.477336 
L 173.128623 243.250932 
L 174.222272 234.46371 
L 175.489095 226.225229 
L 179.386291 201.406946 
L 183.169598 174.039217 
L 184.079152 169.55261 
L 184.857655 166.781961 
L 185.528509 165.088004 
L 186.160361 164.025223 
L 186.865538 163.327742 
L 187.475547 163.039643 
L 188.115199 162.983092 
L 189.138642 162.951078 
L 189.736171 162.635371 
L 190.307177 162.074694 
L 191.032636 161.03233 
L 192.227693 158.811599 
L 194.826864 153.855555 
L 195.432193 153.317181 
L 195.909592 153.159434 
L 196.305864 153.230835 
L 196.766101 153.552603 
L 197.408873 154.371032 
L 200.053288 158.137526 
L 200.778747 158.675792 
L 202.605655 159.522202 
L 206.885082 161.087212 
L 207.743152 160.885943 
L 208.431168 160.518504 
L 209.165987 159.819405 
L 209.864924 158.843784 
L 211.245636 156.496391 
L 212.253478 154.918455 
L 212.877529 154.369051 
L 213.354927 154.236101 
L 214.016421 154.328112 
L 214.61863 154.618463 
L 215.147513 155.192114 
L 215.712279 156.181447 
L 216.317608 157.758336 
L 217.007184 160.203926 
L 218.146076 165.189673 
L 219.102434 170.500275 
L 220.475345 179.573427 
L 222.932545 196.258596 
L 223.795295 200.424647 
L 224.650244 203.569316 
L 225.475551 205.791401 
L 226.577 208.609717 
L 227.133966 210.794728 
L 227.725254 214.000634 
L 228.389867 218.925145 
L 229.183972 226.638881 
L 230.252659 239.320137 
L 232.519523 266.524365 
L 233.458719 275.056451 
L 234.291826 280.649766 
L 235.154576 284.990536 
L 236.128095 288.920105 
L 236.128095 288.920105 
" style="fill:none;stroke:#dbdb8d;stroke-linecap:square;stroke-width:2;"/>
   </g>
   <g id="line2d_33">
    <path clip-path="url(#p7b691d7693)" d="M 169.02081 275.628353 
L 171.439006 250.294467 
L 173.453129 230.283797 
L 175.150547 215.571141 
L 176.618626 204.645759 
L 180.213158 181.236122 
L 181.852851 171.821123 
L 182.893455 167.096263 
L 183.661038 164.539656 
L 184.281968 163.164938 
L 184.959063 162.243615 
L 185.514468 161.873672 
L 186.219645 161.72559 
L 187.186924 161.470013 
L 187.75949 161.056733 
L 188.708047 160.063012 
L 189.612921 159.283957 
L 190.692528 158.673085 
L 191.491313 158.176187 
L 192.235494 157.453425 
L 193.020237 156.34154 
L 193.840864 154.821295 
L 197.259101 148.339633 
L 198.096889 147.312268 
L 198.689737 146.897837 
L 199.171816 146.802426 
L 199.58057 146.999826 
L 200.104772 147.497588 
L 201.214022 148.961174 
L 202.05181 149.850516 
L 202.577573 150.111015 
L 203.092415 150.101928 
L 203.750788 149.8581 
L 204.424763 149.381771 
L 205.112779 148.625802 
L 206.228269 147.052108 
L 208.367203 143.792226 
L 209.264275 143.038044 
L 210.869646 142.014933 
L 211.989817 141.08642 
L 213.565544 139.559093 
L 214.142791 139.338313 
L 214.556225 139.41482 
L 214.908813 139.690905 
L 215.333168 140.30811 
L 215.882332 141.503329 
L 216.621832 143.694034 
L 217.45182 146.936871 
L 218.487744 151.958607 
L 222.129079 170.813139 
L 224.316377 181.68626 
L 226.57544 194.568307 
L 227.505276 201.316522 
L 228.623886 211.122751 
L 231.962557 241.988854 
L 233.149814 250.124345 
L 234.4572 257.537952 
L 236.017326 266.735398 
L 237.125016 274.504684 
L 237.259187 275.55599 
L 237.259187 275.55599 
" style="fill:none;stroke:#7f7f7f;stroke-linecap:square;stroke-width:2;"/>
   </g>
   <g id="patch_3">
    <path d="M 57.6 307.584 
L 57.6 41.472 
" style="fill:none;stroke:#000000;stroke-linecap:square;stroke-linejoin:miter;stroke-width:0.8;"/>
   </g>
   <g id="patch_4">
    <path d="M 343.296 307.584 
L 343.296 41.472 
" style="fill:none;stroke:#000000;stroke-linecap:square;stroke-linejoin:miter;stroke-width:0.8;"/>
   </g>
   <g id="patch_5">
    <path d="M 57.6 307.584 
L 343.296 307.584 
" style="fill:none;stroke:#000000;stroke-linecap:square;stroke-linejoin:miter;stroke-width:0.8;"/>
   </g>
   <g id="patch_6">
    <path d="M 57.6 41.472 
L 343.296 41.472 
" style="fill:none;stroke:#000000;stroke-linecap:square;stroke-linejoin:miter;stroke-width:0.8;"/>
   </g>
  </g>
  <g id="axes_2">
   <g id="patch_7">
    <path clip-path="url(#pb565d3613e)" d="M 361.152 307.584 
L 361.152 294.2784 
L 361.152 54.7776 
L 361.152 41.472 
L 374.4576 41.472 
L 374.4576 54.7776 
L 374.4576 294.2784 
L 374.4576 307.584 
z
" style="fill:#ffffff;stroke:#ffffff;stroke-linejoin:miter;stroke-width:0.01;"/>
   </g>
   <g id="QuadMesh_1">
    <path clip-path="url(#pb565d3613e)" d="M 361.152 307.584 
L 374.4576 307.584 
L 374.4576 294.2784 
L 361.152 294.2784 
L 361.152 307.584 
" style="fill:#1f77b4;"/>
    <path clip-path="url(#pb565d3613e)" d="M 361.152 294.2784 
L 374.4576 294.2784 
L 374.4576 280.9728 
L 361.152 280.9728 
L 361.152 294.2784 
" style="fill:#aec7e8;"/>
    <path clip-path="url(#pb565d3613e)" d="M 361.152 280.9728 
L 374.4576 280.9728 
L 374.4576 267.6672 
L 361.152 267.6672 
L 361.152 280.9728 
" style="fill:#ff7f0e;"/>
    <path clip-path="url(#pb565d3613e)" d="M 361.152 267.6672 
L 374.4576 267.6672 
L 374.4576 254.3616 
L 361.152 254.3616 
L 361.152 267.6672 
" style="fill:#ffbb78;"/>
    <path clip-path="url(#pb565d3613e)" d="M 361.152 254.3616 
L 374.4576 254.3616 
L 374.4576 241.056 
L 361.152 241.056 
L 361.152 254.3616 
" style="fill:#2ca02c;"/>
    <path clip-path="url(#pb565d3613e)" d="M 361.152 241.056 
L 374.4576 241.056 
L 374.4576 227.7504 
L 361.152 227.7504 
L 361.152 241.056 
" style="fill:#98df8a;"/>
    <path clip-path="url(#pb565d3613e)" d="M 361.152 227.7504 
L 374.4576 227.7504 
L 374.4576 214.4448 
L 361.152 214.4448 
L 361.152 227.7504 
" style="fill:#d62728;"/>
    <path clip-path="url(#pb565d3613e)" d="M 361.152 214.4448 
L 374.4576 214.4448 
L 374.4576 201.1392 
L 361.152 201.1392 
L 361.152 214.4448 
" style="fill:#ff9896;"/>
    <path clip-path="url(#pb565d3613e)" d="M 361.152 201.1392 
L 374.4576 201.1392 
L 374.4576 187.8336 
L 361.152 187.8336 
L 361.152 201.1392 
" style="fill:#9467bd;"/>
    <path clip-path="url(#pb565d3613e)" d="M 361.152 187.8336 
L 374.4576 187.8336 
L 374.4576 174.528 
L 361.152 174.528 
L 361.152 187.8336 
" style="fill:#c5b0d5;"/>
    <path clip-path="url(#pb565d3613e)" d="M 361.152 174.528 
L 374.4576 174.528 
L 374.4576 161.2224 
L 361.152 161.2224 
L 361.152 174.528 
" style="fill:#8c564b;"/>
    <path clip-path="url(#pb565d3613e)" d="M 361.152 161.2224 
L 374.4576 161.2224 
L 374.4576 147.9168 
L 361.152 147.9168 
L 361.152 161.2224 
" style="fill:#c49c94;"/>
    <path clip-path="url(#pb565d3613e)" d="M 361.152 147.9168 
L 374.4576 147.9168 
L 374.4576 134.6112 
L 361.152 134.6112 
L 361.152 147.9168 
" style="fill:#e377c2;"/>
    <path clip-path="url(#pb565d3613e)" d="M 361.152 134.6112 
L 374.4576 134.6112 
L 374.4576 121.3056 
L 361.152 121.3056 
L 361.152 134.6112 
" style="fill:#f7b6d2;"/>
    <path clip-path="url(#pb565d3613e)" d="M 361.152 121.3056 
L 374.4576 121.3056 
L 374.4576 108 
L 361.152 108 
L 361.152 121.3056 
" style="fill:#7f7f7f;"/>
    <path clip-path="url(#pb565d3613e)" d="M 361.152 108 
L 374.4576 108 
L 374.4576 94.6944 
L 361.152 94.6944 
L 361.152 108 
" style="fill:#c7c7c7;"/>
    <path clip-path="url(#pb565d3613e)" d="M 361.152 94.6944 
L 374.4576 94.6944 
L 374.4576 81.3888 
L 361.152 81.3888 
L 361.152 94.6944 
" style="fill:#bcbd22;"/>
    <path clip-path="url(#pb565d3613e)" d="M 361.152 81.3888 
L 374.4576 81.3888 
L 374.4576 68.0832 
L 361.152 68.0832 
L 361.152 81.3888 
" style="fill:#dbdb8d;"/>
    <path clip-path="url(#pb565d3613e)" d="M 361.152 68.0832 
L 374.4576 68.0832 
L 374.4576 54.7776 
L 361.152 54.7776 
L 361.152 68.0832 
" style="fill:#17becf;"/>
    <path clip-path="url(#pb565d3613e)" d="M 361.152 54.7776 
L 374.4576 54.7776 
L 374.4576 41.472 
L 361.152 41.472 
L 361.152 54.7776 
" style="fill:#9edae5;"/>
   </g>
   <g id="matplotlib.axis_3"/>
   <g id="matplotlib.axis_4">
    <g id="ytick_9">
     <g id="line2d_34">
      <defs>
       <path d="M 0 0 
L 3.5 0 
" id="m21bf8e3b95" style="stroke:#000000;stroke-width:0.8;"/>
      </defs>
      <g>
       <use style="stroke:#000000;stroke-width:0.8;" x="374.4576" xlink:href="#m21bf8e3b95" y="278.016"/>
      </g>
     </g>
     <g id="text_16">
      <!-- 25 -->
      <defs>
       <path d="M 10.796875 72.90625 
L 49.515625 72.90625 
L 49.515625 64.59375 
L 19.828125 64.59375 
L 19.828125 46.734375 
Q 21.96875 47.46875 24.109375 47.828125 
Q 26.265625 48.1875 28.421875 48.1875 
Q 40.625 48.1875 47.75 41.5 
Q 54.890625 34.8125 54.890625 23.390625 
Q 54.890625 11.625 47.5625 5.09375 
Q 40.234375 -1.421875 26.90625 -1.421875 
Q 22.3125 -1.421875 17.546875 -0.640625 
Q 12.796875 0.140625 7.71875 1.703125 
L 7.71875 11.625 
Q 12.109375 9.234375 16.796875 8.0625 
Q 21.484375 6.890625 26.703125 6.890625 
Q 35.15625 6.890625 40.078125 11.328125 
Q 45.015625 15.765625 45.015625 23.390625 
Q 45.015625 31 40.078125 35.4375 
Q 35.15625 39.890625 26.703125 39.890625 
Q 22.75 39.890625 18.8125 39.015625 
Q 14.890625 38.140625 10.796875 36.28125 
z
" id="DejaVuSans-53"/>
      </defs>
      <g transform="translate(381.4576 281.815219)scale(0.1 -0.1)">
       <use xlink:href="#DejaVuSans-50"/>
       <use x="63.623047" xlink:href="#DejaVuSans-53"/>
      </g>
     </g>
    </g>
    <g id="ytick_10">
     <g id="line2d_35">
      <g>
       <use style="stroke:#000000;stroke-width:0.8;" x="374.4576" xlink:href="#m21bf8e3b95" y="245.87687"/>
      </g>
     </g>
     <g id="text_17">
      <!-- 50 -->
      <g transform="translate(381.4576 249.676088)scale(0.1 -0.1)">
       <use xlink:href="#DejaVuSans-53"/>
       <use x="63.623047" xlink:href="#DejaVuSans-48"/>
      </g>
     </g>
    </g>
    <g id="ytick_11">
     <g id="line2d_36">
      <g>
       <use style="stroke:#000000;stroke-width:0.8;" x="374.4576" xlink:href="#m21bf8e3b95" y="213.737739"/>
      </g>
     </g>
     <g id="text_18">
      <!-- 75 -->
      <defs>
       <path d="M 8.203125 72.90625 
L 55.078125 72.90625 
L 55.078125 68.703125 
L 28.609375 0 
L 18.3125 0 
L 43.21875 64.59375 
L 8.203125 64.59375 
z
" id="DejaVuSans-55"/>
      </defs>
      <g transform="translate(381.4576 217.536958)scale(0.1 -0.1)">
       <use xlink:href="#DejaVuSans-55"/>
       <use x="63.623047" xlink:href="#DejaVuSans-53"/>
      </g>
     </g>
    </g>
    <g id="ytick_12">
     <g id="line2d_37">
      <g>
       <use style="stroke:#000000;stroke-width:0.8;" x="374.4576" xlink:href="#m21bf8e3b95" y="181.598609"/>
      </g>
     </g>
     <g id="text_19">
      <!-- 100 -->
      <g transform="translate(381.4576 185.397827)scale(0.1 -0.1)">
       <use xlink:href="#DejaVuSans-49"/>
       <use x="63.623047" xlink:href="#DejaVuSans-48"/>
       <use x="127.246094" xlink:href="#DejaVuSans-48"/>
      </g>
     </g>
    </g>
    <g id="ytick_13">
     <g id="line2d_38">
      <g>
       <use style="stroke:#000000;stroke-width:0.8;" x="374.4576" xlink:href="#m21bf8e3b95" y="149.459478"/>
      </g>
     </g>
     <g id="text_20">
      <!-- 125 -->
      <g transform="translate(381.4576 153.258697)scale(0.1 -0.1)">
       <use xlink:href="#DejaVuSans-49"/>
       <use x="63.623047" xlink:href="#DejaVuSans-50"/>
       <use x="127.246094" xlink:href="#DejaVuSans-53"/>
      </g>
     </g>
    </g>
    <g id="ytick_14">
     <g id="line2d_39">
      <g>
       <use style="stroke:#000000;stroke-width:0.8;" x="374.4576" xlink:href="#m21bf8e3b95" y="117.320348"/>
      </g>
     </g>
     <g id="text_21">
      <!-- 150 -->
      <g transform="translate(381.4576 121.119567)scale(0.1 -0.1)">
       <use xlink:href="#DejaVuSans-49"/>
       <use x="63.623047" xlink:href="#DejaVuSans-53"/>
       <use x="127.246094" xlink:href="#DejaVuSans-48"/>
      </g>
     </g>
    </g>
    <g id="ytick_15">
     <g id="line2d_40">
      <g>
       <use style="stroke:#000000;stroke-width:0.8;" x="374.4576" xlink:href="#m21bf8e3b95" y="85.181217"/>
      </g>
     </g>
     <g id="text_22">
      <!-- 175 -->
      <g transform="translate(381.4576 88.980436)scale(0.1 -0.1)">
       <use xlink:href="#DejaVuSans-49"/>
       <use x="63.623047" xlink:href="#DejaVuSans-55"/>
       <use x="127.246094" xlink:href="#DejaVuSans-53"/>
      </g>
     </g>
    </g>
    <g id="ytick_16">
     <g id="line2d_41">
      <g>
       <use style="stroke:#000000;stroke-width:0.8;" x="374.4576" xlink:href="#m21bf8e3b95" y="53.042087"/>
      </g>
     </g>
     <g id="text_23">
      <!-- 200 -->
      <g transform="translate(381.4576 56.841306)scale(0.1 -0.1)">
       <use xlink:href="#DejaVuSans-50"/>
       <use x="63.623047" xlink:href="#DejaVuSans-48"/>
       <use x="127.246094" xlink:href="#DejaVuSans-48"/>
      </g>
     </g>
    </g>
   </g>
   <g id="patch_8">
    <path d="M 361.152 307.584 
L 361.152 294.2784 
L 361.152 54.7776 
L 361.152 41.472 
L 374.4576 41.472 
L 374.4576 54.7776 
L 374.4576 294.2784 
L 374.4576 307.584 
z
" style="fill:none;stroke:#000000;stroke-linejoin:miter;stroke-width:0.8;"/>
   </g>
  </g>
 </g>
 <defs>
  <clipPath id="p7b691d7693">
   <rect height="266.112" width="285.696" x="57.6" y="41.472"/>
  </clipPath>
  <clipPath id="pb565d3613e">
   <rect height="266.112" width="13.3056" x="361.152" y="41.472"/>
  </clipPath>
 </defs>
</svg>
