<?xml version="1.0" encoding="utf-8" standalone="no"?>
<!DOCTYPE svg PUBLIC "-//W3C//DTD SVG 1.1//EN"
  "http://www.w3.org/Graphics/SVG/1.1/DTD/svg11.dtd">
<!-- Created with matplotlib (https://matplotlib.org/) -->
<svg height="345.6pt" version="1.1" viewBox="0 0 460.8 345.6" width="460.8pt" xmlns="http://www.w3.org/2000/svg" xmlns:xlink="http://www.w3.org/1999/xlink">
 <defs>
  <style type="text/css">
*{stroke-linecap:butt;stroke-linejoin:round;}
  </style>
 </defs>
 <g id="figure_1">
  <g id="patch_1">
   <path d="M 0 345.6 
L 460.8 345.6 
L 460.8 0 
L 0 0 
z
" style="fill:#ffffff;"/>
  </g>
  <g id="axes_1">
   <g id="patch_2">
    <path d="M 57.6 307.584 
L 343.296 307.584 
L 343.296 41.472 
L 57.6 41.472 
z
" style="fill:#ffffff;"/>
   </g>
   <g id="matplotlib.axis_1">
    <g id="xtick_1">
     <g id="line2d_1">
      <defs>
       <path d="M 0 0 
L 0 3.5 
" id="m50e03d0d8f" style="stroke:#000000;stroke-width:0.8;"/>
      </defs>
      <g>
       <use style="stroke:#000000;stroke-width:0.8;" x="77.684933" xlink:href="#m50e03d0d8f" y="307.584"/>
      </g>
     </g>
     <g id="text_1">
      <!-- 1000 -->
      <defs>
       <path d="M 12.40625 8.296875 
L 28.515625 8.296875 
L 28.515625 63.921875 
L 10.984375 60.40625 
L 10.984375 69.390625 
L 28.421875 72.90625 
L 38.28125 72.90625 
L 38.28125 8.296875 
L 54.390625 8.296875 
L 54.390625 0 
L 12.40625 0 
z
" id="DejaVuSans-49"/>
       <path d="M 31.78125 66.40625 
Q 24.171875 66.40625 20.328125 58.90625 
Q 16.5 51.421875 16.5 36.375 
Q 16.5 21.390625 20.328125 13.890625 
Q 24.171875 6.390625 31.78125 6.390625 
Q 39.453125 6.390625 43.28125 13.890625 
Q 47.125 21.390625 47.125 36.375 
Q 47.125 51.421875 43.28125 58.90625 
Q 39.453125 66.40625 31.78125 66.40625 
z
M 31.78125 74.21875 
Q 44.046875 74.21875 50.515625 64.515625 
Q 56.984375 54.828125 56.984375 36.375 
Q 56.984375 17.96875 50.515625 8.265625 
Q 44.046875 -1.421875 31.78125 -1.421875 
Q 19.53125 -1.421875 13.0625 8.265625 
Q 6.59375 17.96875 6.59375 36.375 
Q 6.59375 54.828125 13.0625 64.515625 
Q 19.53125 74.21875 31.78125 74.21875 
z
" id="DejaVuSans-48"/>
      </defs>
      <g transform="translate(64.959933 322.182437)scale(0.1 -0.1)">
       <use xlink:href="#DejaVuSans-49"/>
       <use x="63.623047" xlink:href="#DejaVuSans-48"/>
       <use x="127.246094" xlink:href="#DejaVuSans-48"/>
       <use x="190.869141" xlink:href="#DejaVuSans-48"/>
      </g>
     </g>
    </g>
    <g id="xtick_2">
     <g id="line2d_2">
      <g>
       <use style="stroke:#000000;stroke-width:0.8;" x="112.966999" xlink:href="#m50e03d0d8f" y="307.584"/>
      </g>
     </g>
     <g id="text_2">
      <!-- 2000 -->
      <defs>
       <path d="M 19.1875 8.296875 
L 53.609375 8.296875 
L 53.609375 0 
L 7.328125 0 
L 7.328125 8.296875 
Q 12.9375 14.109375 22.625 23.890625 
Q 32.328125 33.6875 34.8125 36.53125 
Q 39.546875 41.84375 41.421875 45.53125 
Q 43.3125 49.21875 43.3125 52.78125 
Q 43.3125 58.59375 39.234375 62.25 
Q 35.15625 65.921875 28.609375 65.921875 
Q 23.96875 65.921875 18.8125 64.3125 
Q 13.671875 62.703125 7.8125 59.421875 
L 7.8125 69.390625 
Q 13.765625 71.78125 18.9375 73 
Q 24.125 74.21875 28.421875 74.21875 
Q 39.75 74.21875 46.484375 68.546875 
Q 53.21875 62.890625 53.21875 53.421875 
Q 53.21875 48.921875 51.53125 44.890625 
Q 49.859375 40.875 45.40625 35.40625 
Q 44.1875 33.984375 37.640625 27.21875 
Q 31.109375 20.453125 19.1875 8.296875 
z
" id="DejaVuSans-50"/>
      </defs>
      <g transform="translate(100.241999 322.182437)scale(0.1 -0.1)">
       <use xlink:href="#DejaVuSans-50"/>
       <use x="63.623047" xlink:href="#DejaVuSans-48"/>
       <use x="127.246094" xlink:href="#DejaVuSans-48"/>
       <use x="190.869141" xlink:href="#DejaVuSans-48"/>
      </g>
     </g>
    </g>
    <g id="xtick_3">
     <g id="line2d_3">
      <g>
       <use style="stroke:#000000;stroke-width:0.8;" x="148.249065" xlink:href="#m50e03d0d8f" y="307.584"/>
      </g>
     </g>
     <g id="text_3">
      <!-- 3000 -->
      <defs>
       <path d="M 40.578125 39.3125 
Q 47.65625 37.796875 51.625 33 
Q 55.609375 28.21875 55.609375 21.1875 
Q 55.609375 10.40625 48.1875 4.484375 
Q 40.765625 -1.421875 27.09375 -1.421875 
Q 22.515625 -1.421875 17.65625 -0.515625 
Q 12.796875 0.390625 7.625 2.203125 
L 7.625 11.71875 
Q 11.71875 9.328125 16.59375 8.109375 
Q 21.484375 6.890625 26.8125 6.890625 
Q 36.078125 6.890625 40.9375 10.546875 
Q 45.796875 14.203125 45.796875 21.1875 
Q 45.796875 27.640625 41.28125 31.265625 
Q 36.765625 34.90625 28.71875 34.90625 
L 20.21875 34.90625 
L 20.21875 43.015625 
L 29.109375 43.015625 
Q 36.375 43.015625 40.234375 45.921875 
Q 44.09375 48.828125 44.09375 54.296875 
Q 44.09375 59.90625 40.109375 62.90625 
Q 36.140625 65.921875 28.71875 65.921875 
Q 24.65625 65.921875 20.015625 65.03125 
Q 15.375 64.15625 9.8125 62.3125 
L 9.8125 71.09375 
Q 15.4375 72.65625 20.34375 73.4375 
Q 25.25 74.21875 29.59375 74.21875 
Q 40.828125 74.21875 47.359375 69.109375 
Q 53.90625 64.015625 53.90625 55.328125 
Q 53.90625 49.265625 50.4375 45.09375 
Q 46.96875 40.921875 40.578125 39.3125 
z
" id="DejaVuSans-51"/>
      </defs>
      <g transform="translate(135.524065 322.182437)scale(0.1 -0.1)">
       <use xlink:href="#DejaVuSans-51"/>
       <use x="63.623047" xlink:href="#DejaVuSans-48"/>
       <use x="127.246094" xlink:href="#DejaVuSans-48"/>
       <use x="190.869141" xlink:href="#DejaVuSans-48"/>
      </g>
     </g>
    </g>
    <g id="xtick_4">
     <g id="line2d_4">
      <g>
       <use style="stroke:#000000;stroke-width:0.8;" x="183.531131" xlink:href="#m50e03d0d8f" y="307.584"/>
      </g>
     </g>
     <g id="text_4">
      <!-- 4000 -->
      <defs>
       <path d="M 37.796875 64.3125 
L 12.890625 25.390625 
L 37.796875 25.390625 
z
M 35.203125 72.90625 
L 47.609375 72.90625 
L 47.609375 25.390625 
L 58.015625 25.390625 
L 58.015625 17.1875 
L 47.609375 17.1875 
L 47.609375 0 
L 37.796875 0 
L 37.796875 17.1875 
L 4.890625 17.1875 
L 4.890625 26.703125 
z
" id="DejaVuSans-52"/>
      </defs>
      <g transform="translate(170.806131 322.182437)scale(0.1 -0.1)">
       <use xlink:href="#DejaVuSans-52"/>
       <use x="63.623047" xlink:href="#DejaVuSans-48"/>
       <use x="127.246094" xlink:href="#DejaVuSans-48"/>
       <use x="190.869141" xlink:href="#DejaVuSans-48"/>
      </g>
     </g>
    </g>
    <g id="xtick_5">
     <g id="line2d_5">
      <g>
       <use style="stroke:#000000;stroke-width:0.8;" x="218.813197" xlink:href="#m50e03d0d8f" y="307.584"/>
      </g>
     </g>
     <g id="text_5">
      <!-- 5000 -->
      <defs>
       <path d="M 10.796875 72.90625 
L 49.515625 72.90625 
L 49.515625 64.59375 
L 19.828125 64.59375 
L 19.828125 46.734375 
Q 21.96875 47.46875 24.109375 47.828125 
Q 26.265625 48.1875 28.421875 48.1875 
Q 40.625 48.1875 47.75 41.5 
Q 54.890625 34.8125 54.890625 23.390625 
Q 54.890625 11.625 47.5625 5.09375 
Q 40.234375 -1.421875 26.90625 -1.421875 
Q 22.3125 -1.421875 17.546875 -0.640625 
Q 12.796875 0.140625 7.71875 1.703125 
L 7.71875 11.625 
Q 12.109375 9.234375 16.796875 8.0625 
Q 21.484375 6.890625 26.703125 6.890625 
Q 35.15625 6.890625 40.078125 11.328125 
Q 45.015625 15.765625 45.015625 23.390625 
Q 45.015625 31 40.078125 35.4375 
Q 35.15625 39.890625 26.703125 39.890625 
Q 22.75 39.890625 18.8125 39.015625 
Q 14.890625 38.140625 10.796875 36.28125 
z
" id="DejaVuSans-53"/>
      </defs>
      <g transform="translate(206.088197 322.182437)scale(0.1 -0.1)">
       <use xlink:href="#DejaVuSans-53"/>
       <use x="63.623047" xlink:href="#DejaVuSans-48"/>
       <use x="127.246094" xlink:href="#DejaVuSans-48"/>
       <use x="190.869141" xlink:href="#DejaVuSans-48"/>
      </g>
     </g>
    </g>
    <g id="xtick_6">
     <g id="line2d_6">
      <g>
       <use style="stroke:#000000;stroke-width:0.8;" x="254.095263" xlink:href="#m50e03d0d8f" y="307.584"/>
      </g>
     </g>
     <g id="text_6">
      <!-- 6000 -->
      <defs>
       <path d="M 33.015625 40.375 
Q 26.375 40.375 22.484375 35.828125 
Q 18.609375 31.296875 18.609375 23.390625 
Q 18.609375 15.53125 22.484375 10.953125 
Q 26.375 6.390625 33.015625 6.390625 
Q 39.65625 6.390625 43.53125 10.953125 
Q 47.40625 15.53125 47.40625 23.390625 
Q 47.40625 31.296875 43.53125 35.828125 
Q 39.65625 40.375 33.015625 40.375 
z
M 52.59375 71.296875 
L 52.59375 62.3125 
Q 48.875 64.0625 45.09375 64.984375 
Q 41.3125 65.921875 37.59375 65.921875 
Q 27.828125 65.921875 22.671875 59.328125 
Q 17.53125 52.734375 16.796875 39.40625 
Q 19.671875 43.65625 24.015625 45.921875 
Q 28.375 48.1875 33.59375 48.1875 
Q 44.578125 48.1875 50.953125 41.515625 
Q 57.328125 34.859375 57.328125 23.390625 
Q 57.328125 12.15625 50.6875 5.359375 
Q 44.046875 -1.421875 33.015625 -1.421875 
Q 20.359375 -1.421875 13.671875 8.265625 
Q 6.984375 17.96875 6.984375 36.375 
Q 6.984375 53.65625 15.1875 63.9375 
Q 23.390625 74.21875 37.203125 74.21875 
Q 40.921875 74.21875 44.703125 73.484375 
Q 48.484375 72.75 52.59375 71.296875 
z
" id="DejaVuSans-54"/>
      </defs>
      <g transform="translate(241.370263 322.182437)scale(0.1 -0.1)">
       <use xlink:href="#DejaVuSans-54"/>
       <use x="63.623047" xlink:href="#DejaVuSans-48"/>
       <use x="127.246094" xlink:href="#DejaVuSans-48"/>
       <use x="190.869141" xlink:href="#DejaVuSans-48"/>
      </g>
     </g>
    </g>
    <g id="xtick_7">
     <g id="line2d_7">
      <g>
       <use style="stroke:#000000;stroke-width:0.8;" x="289.377329" xlink:href="#m50e03d0d8f" y="307.584"/>
      </g>
     </g>
     <g id="text_7">
      <!-- 7000 -->
      <defs>
       <path d="M 8.203125 72.90625 
L 55.078125 72.90625 
L 55.078125 68.703125 
L 28.609375 0 
L 18.3125 0 
L 43.21875 64.59375 
L 8.203125 64.59375 
z
" id="DejaVuSans-55"/>
      </defs>
      <g transform="translate(276.652329 322.182437)scale(0.1 -0.1)">
       <use xlink:href="#DejaVuSans-55"/>
       <use x="63.623047" xlink:href="#DejaVuSans-48"/>
       <use x="127.246094" xlink:href="#DejaVuSans-48"/>
       <use x="190.869141" xlink:href="#DejaVuSans-48"/>
      </g>
     </g>
    </g>
    <g id="xtick_8">
     <g id="line2d_8">
      <g>
       <use style="stroke:#000000;stroke-width:0.8;" x="324.659395" xlink:href="#m50e03d0d8f" y="307.584"/>
      </g>
     </g>
     <g id="text_8">
      <!-- 8000 -->
      <defs>
       <path d="M 31.78125 34.625 
Q 24.75 34.625 20.71875 30.859375 
Q 16.703125 27.09375 16.703125 20.515625 
Q 16.703125 13.921875 20.71875 10.15625 
Q 24.75 6.390625 31.78125 6.390625 
Q 38.8125 6.390625 42.859375 10.171875 
Q 46.921875 13.96875 46.921875 20.515625 
Q 46.921875 27.09375 42.890625 30.859375 
Q 38.875 34.625 31.78125 34.625 
z
M 21.921875 38.8125 
Q 15.578125 40.375 12.03125 44.71875 
Q 8.5 49.078125 8.5 55.328125 
Q 8.5 64.0625 14.71875 69.140625 
Q 20.953125 74.21875 31.78125 74.21875 
Q 42.671875 74.21875 48.875 69.140625 
Q 55.078125 64.0625 55.078125 55.328125 
Q 55.078125 49.078125 51.53125 44.71875 
Q 48 40.375 41.703125 38.8125 
Q 48.828125 37.15625 52.796875 32.3125 
Q 56.78125 27.484375 56.78125 20.515625 
Q 56.78125 9.90625 50.3125 4.234375 
Q 43.84375 -1.421875 31.78125 -1.421875 
Q 19.734375 -1.421875 13.25 4.234375 
Q 6.78125 9.90625 6.78125 20.515625 
Q 6.78125 27.484375 10.78125 32.3125 
Q 14.796875 37.15625 21.921875 38.8125 
z
M 18.3125 54.390625 
Q 18.3125 48.734375 21.84375 45.5625 
Q 25.390625 42.390625 31.78125 42.390625 
Q 38.140625 42.390625 41.71875 45.5625 
Q 45.3125 48.734375 45.3125 54.390625 
Q 45.3125 60.0625 41.71875 63.234375 
Q 38.140625 66.40625 31.78125 66.40625 
Q 25.390625 66.40625 21.84375 63.234375 
Q 18.3125 60.0625 18.3125 54.390625 
z
" id="DejaVuSans-56"/>
      </defs>
      <g transform="translate(311.934395 322.182437)scale(0.1 -0.1)">
       <use xlink:href="#DejaVuSans-56"/>
       <use x="63.623047" xlink:href="#DejaVuSans-48"/>
       <use x="127.246094" xlink:href="#DejaVuSans-48"/>
       <use x="190.869141" xlink:href="#DejaVuSans-48"/>
      </g>
     </g>
    </g>
    <g id="text_9">
     <!-- Tempo (ms) -->
     <defs>
      <path d="M -0.296875 72.90625 
L 61.375 72.90625 
L 61.375 64.59375 
L 35.5 64.59375 
L 35.5 0 
L 25.59375 0 
L 25.59375 64.59375 
L -0.296875 64.59375 
z
" id="DejaVuSans-84"/>
      <path d="M 56.203125 29.59375 
L 56.203125 25.203125 
L 14.890625 25.203125 
Q 15.484375 15.921875 20.484375 11.0625 
Q 25.484375 6.203125 34.421875 6.203125 
Q 39.59375 6.203125 44.453125 7.46875 
Q 49.3125 8.734375 54.109375 11.28125 
L 54.109375 2.78125 
Q 49.265625 0.734375 44.1875 -0.34375 
Q 39.109375 -1.421875 33.890625 -1.421875 
Q 20.796875 -1.421875 13.15625 6.1875 
Q 5.515625 13.8125 5.515625 26.8125 
Q 5.515625 40.234375 12.765625 48.109375 
Q 20.015625 56 32.328125 56 
Q 43.359375 56 49.78125 48.890625 
Q 56.203125 41.796875 56.203125 29.59375 
z
M 47.21875 32.234375 
Q 47.125 39.59375 43.09375 43.984375 
Q 39.0625 48.390625 32.421875 48.390625 
Q 24.90625 48.390625 20.390625 44.140625 
Q 15.875 39.890625 15.1875 32.171875 
z
" id="DejaVuSans-101"/>
      <path d="M 52 44.1875 
Q 55.375 50.25 60.0625 53.125 
Q 64.75 56 71.09375 56 
Q 79.640625 56 84.28125 50.015625 
Q 88.921875 44.046875 88.921875 33.015625 
L 88.921875 0 
L 79.890625 0 
L 79.890625 32.71875 
Q 79.890625 40.578125 77.09375 44.375 
Q 74.3125 48.1875 68.609375 48.1875 
Q 61.625 48.1875 57.5625 43.546875 
Q 53.515625 38.921875 53.515625 30.90625 
L 53.515625 0 
L 44.484375 0 
L 44.484375 32.71875 
Q 44.484375 40.625 41.703125 44.40625 
Q 38.921875 48.1875 33.109375 48.1875 
Q 26.21875 48.1875 22.15625 43.53125 
Q 18.109375 38.875 18.109375 30.90625 
L 18.109375 0 
L 9.078125 0 
L 9.078125 54.6875 
L 18.109375 54.6875 
L 18.109375 46.1875 
Q 21.1875 51.21875 25.484375 53.609375 
Q 29.78125 56 35.6875 56 
Q 41.65625 56 45.828125 52.96875 
Q 50 49.953125 52 44.1875 
z
" id="DejaVuSans-109"/>
      <path d="M 18.109375 8.203125 
L 18.109375 -20.796875 
L 9.078125 -20.796875 
L 9.078125 54.6875 
L 18.109375 54.6875 
L 18.109375 46.390625 
Q 20.953125 51.265625 25.265625 53.625 
Q 29.59375 56 35.59375 56 
Q 45.5625 56 51.78125 48.09375 
Q 58.015625 40.1875 58.015625 27.296875 
Q 58.015625 14.40625 51.78125 6.484375 
Q 45.5625 -1.421875 35.59375 -1.421875 
Q 29.59375 -1.421875 25.265625 0.953125 
Q 20.953125 3.328125 18.109375 8.203125 
z
M 48.6875 27.296875 
Q 48.6875 37.203125 44.609375 42.84375 
Q 40.53125 48.484375 33.40625 48.484375 
Q 26.265625 48.484375 22.1875 42.84375 
Q 18.109375 37.203125 18.109375 27.296875 
Q 18.109375 17.390625 22.1875 11.75 
Q 26.265625 6.109375 33.40625 6.109375 
Q 40.53125 6.109375 44.609375 11.75 
Q 48.6875 17.390625 48.6875 27.296875 
z
" id="DejaVuSans-112"/>
      <path d="M 30.609375 48.390625 
Q 23.390625 48.390625 19.1875 42.75 
Q 14.984375 37.109375 14.984375 27.296875 
Q 14.984375 17.484375 19.15625 11.84375 
Q 23.34375 6.203125 30.609375 6.203125 
Q 37.796875 6.203125 41.984375 11.859375 
Q 46.1875 17.53125 46.1875 27.296875 
Q 46.1875 37.015625 41.984375 42.703125 
Q 37.796875 48.390625 30.609375 48.390625 
z
M 30.609375 56 
Q 42.328125 56 49.015625 48.375 
Q 55.71875 40.765625 55.71875 27.296875 
Q 55.71875 13.875 49.015625 6.21875 
Q 42.328125 -1.421875 30.609375 -1.421875 
Q 18.84375 -1.421875 12.171875 6.21875 
Q 5.515625 13.875 5.515625 27.296875 
Q 5.515625 40.765625 12.171875 48.375 
Q 18.84375 56 30.609375 56 
z
" id="DejaVuSans-111"/>
      <path id="DejaVuSans-32"/>
      <path d="M 31 75.875 
Q 24.46875 64.65625 21.28125 53.65625 
Q 18.109375 42.671875 18.109375 31.390625 
Q 18.109375 20.125 21.3125 9.0625 
Q 24.515625 -2 31 -13.1875 
L 23.1875 -13.1875 
Q 15.875 -1.703125 12.234375 9.375 
Q 8.59375 20.453125 8.59375 31.390625 
Q 8.59375 42.28125 12.203125 53.3125 
Q 15.828125 64.359375 23.1875 75.875 
z
" id="DejaVuSans-40"/>
      <path d="M 44.28125 53.078125 
L 44.28125 44.578125 
Q 40.484375 46.53125 36.375 47.5 
Q 32.28125 48.484375 27.875 48.484375 
Q 21.1875 48.484375 17.84375 46.4375 
Q 14.5 44.390625 14.5 40.28125 
Q 14.5 37.15625 16.890625 35.375 
Q 19.28125 33.59375 26.515625 31.984375 
L 29.59375 31.296875 
Q 39.15625 29.25 43.1875 25.515625 
Q 47.21875 21.78125 47.21875 15.09375 
Q 47.21875 7.46875 41.1875 3.015625 
Q 35.15625 -1.421875 24.609375 -1.421875 
Q 20.21875 -1.421875 15.453125 -0.5625 
Q 10.6875 0.296875 5.421875 2 
L 5.421875 11.28125 
Q 10.40625 8.6875 15.234375 7.390625 
Q 20.0625 6.109375 24.8125 6.109375 
Q 31.15625 6.109375 34.5625 8.28125 
Q 37.984375 10.453125 37.984375 14.40625 
Q 37.984375 18.0625 35.515625 20.015625 
Q 33.0625 21.96875 24.703125 23.78125 
L 21.578125 24.515625 
Q 13.234375 26.265625 9.515625 29.90625 
Q 5.8125 33.546875 5.8125 39.890625 
Q 5.8125 47.609375 11.28125 51.796875 
Q 16.75 56 26.8125 56 
Q 31.78125 56 36.171875 55.265625 
Q 40.578125 54.546875 44.28125 53.078125 
z
" id="DejaVuSans-115"/>
      <path d="M 8.015625 75.875 
L 15.828125 75.875 
Q 23.140625 64.359375 26.78125 53.3125 
Q 30.421875 42.28125 30.421875 31.390625 
Q 30.421875 20.453125 26.78125 9.375 
Q 23.140625 -1.703125 15.828125 -13.1875 
L 8.015625 -13.1875 
Q 14.5 -2 17.703125 9.0625 
Q 20.90625 20.125 20.90625 31.390625 
Q 20.90625 42.671875 17.703125 53.65625 
Q 14.5 64.65625 8.015625 75.875 
z
" id="DejaVuSans-41"/>
     </defs>
     <g transform="translate(170.261281 335.860562)scale(0.1 -0.1)">
      <use xlink:href="#DejaVuSans-84"/>
      <use x="60.818359" xlink:href="#DejaVuSans-101"/>
      <use x="122.341797" xlink:href="#DejaVuSans-109"/>
      <use x="219.753906" xlink:href="#DejaVuSans-112"/>
      <use x="283.230469" xlink:href="#DejaVuSans-111"/>
      <use x="344.412109" xlink:href="#DejaVuSans-32"/>
      <use x="376.199219" xlink:href="#DejaVuSans-40"/>
      <use x="415.212891" xlink:href="#DejaVuSans-109"/>
      <use x="512.625" xlink:href="#DejaVuSans-115"/>
      <use x="564.724609" xlink:href="#DejaVuSans-41"/>
     </g>
    </g>
   </g>
   <g id="matplotlib.axis_2">
    <g id="ytick_1">
     <g id="line2d_9">
      <defs>
       <path d="M 0 0 
L -3.5 0 
" id="m3199bfe19c" style="stroke:#000000;stroke-width:0.8;"/>
      </defs>
      <g>
       <use style="stroke:#000000;stroke-width:0.8;" x="57.6" xlink:href="#m3199bfe19c" y="295.488"/>
      </g>
     </g>
     <g id="text_10">
      <!-- 0 -->
      <g transform="translate(44.2375 299.287219)scale(0.1 -0.1)">
       <use xlink:href="#DejaVuSans-48"/>
      </g>
     </g>
    </g>
    <g id="ytick_2">
     <g id="line2d_10">
      <g>
       <use style="stroke:#000000;stroke-width:0.8;" x="57.6" xlink:href="#m3199bfe19c" y="262.769658"/>
      </g>
     </g>
     <g id="text_11">
      <!-- 10 -->
      <g transform="translate(37.875 266.568877)scale(0.1 -0.1)">
       <use xlink:href="#DejaVuSans-49"/>
       <use x="63.623047" xlink:href="#DejaVuSans-48"/>
      </g>
     </g>
    </g>
    <g id="ytick_3">
     <g id="line2d_11">
      <g>
       <use style="stroke:#000000;stroke-width:0.8;" x="57.6" xlink:href="#m3199bfe19c" y="230.051316"/>
      </g>
     </g>
     <g id="text_12">
      <!-- 20 -->
      <g transform="translate(37.875 233.850535)scale(0.1 -0.1)">
       <use xlink:href="#DejaVuSans-50"/>
       <use x="63.623047" xlink:href="#DejaVuSans-48"/>
      </g>
     </g>
    </g>
    <g id="ytick_4">
     <g id="line2d_12">
      <g>
       <use style="stroke:#000000;stroke-width:0.8;" x="57.6" xlink:href="#m3199bfe19c" y="197.332974"/>
      </g>
     </g>
     <g id="text_13">
      <!-- 30 -->
      <g transform="translate(37.875 201.132193)scale(0.1 -0.1)">
       <use xlink:href="#DejaVuSans-51"/>
       <use x="63.623047" xlink:href="#DejaVuSans-48"/>
      </g>
     </g>
    </g>
    <g id="ytick_5">
     <g id="line2d_13">
      <g>
       <use style="stroke:#000000;stroke-width:0.8;" x="57.6" xlink:href="#m3199bfe19c" y="164.614632"/>
      </g>
     </g>
     <g id="text_14">
      <!-- 40 -->
      <g transform="translate(37.875 168.413851)scale(0.1 -0.1)">
       <use xlink:href="#DejaVuSans-52"/>
       <use x="63.623047" xlink:href="#DejaVuSans-48"/>
      </g>
     </g>
    </g>
    <g id="ytick_6">
     <g id="line2d_14">
      <g>
       <use style="stroke:#000000;stroke-width:0.8;" x="57.6" xlink:href="#m3199bfe19c" y="131.89629"/>
      </g>
     </g>
     <g id="text_15">
      <!-- 50 -->
      <g transform="translate(37.875 135.695509)scale(0.1 -0.1)">
       <use xlink:href="#DejaVuSans-53"/>
       <use x="63.623047" xlink:href="#DejaVuSans-48"/>
      </g>
     </g>
    </g>
    <g id="ytick_7">
     <g id="line2d_15">
      <g>
       <use style="stroke:#000000;stroke-width:0.8;" x="57.6" xlink:href="#m3199bfe19c" y="99.177948"/>
      </g>
     </g>
     <g id="text_16">
      <!-- 60 -->
      <g transform="translate(37.875 102.977167)scale(0.1 -0.1)">
       <use xlink:href="#DejaVuSans-54"/>
       <use x="63.623047" xlink:href="#DejaVuSans-48"/>
      </g>
     </g>
    </g>
    <g id="ytick_8">
     <g id="line2d_16">
      <g>
       <use style="stroke:#000000;stroke-width:0.8;" x="57.6" xlink:href="#m3199bfe19c" y="66.459606"/>
      </g>
     </g>
     <g id="text_17">
      <!-- 70 -->
      <g transform="translate(37.875 70.258825)scale(0.1 -0.1)">
       <use xlink:href="#DejaVuSans-55"/>
       <use x="63.623047" xlink:href="#DejaVuSans-48"/>
      </g>
     </g>
    </g>
    <g id="text_18">
     <!-- Taxa de disparo (pps) -->
     <defs>
      <path d="M 34.28125 27.484375 
Q 23.390625 27.484375 19.1875 25 
Q 14.984375 22.515625 14.984375 16.5 
Q 14.984375 11.71875 18.140625 8.90625 
Q 21.296875 6.109375 26.703125 6.109375 
Q 34.1875 6.109375 38.703125 11.40625 
Q 43.21875 16.703125 43.21875 25.484375 
L 43.21875 27.484375 
z
M 52.203125 31.203125 
L 52.203125 0 
L 43.21875 0 
L 43.21875 8.296875 
Q 40.140625 3.328125 35.546875 0.953125 
Q 30.953125 -1.421875 24.3125 -1.421875 
Q 15.921875 -1.421875 10.953125 3.296875 
Q 6 8.015625 6 15.921875 
Q 6 25.140625 12.171875 29.828125 
Q 18.359375 34.515625 30.609375 34.515625 
L 43.21875 34.515625 
L 43.21875 35.40625 
Q 43.21875 41.609375 39.140625 45 
Q 35.0625 48.390625 27.6875 48.390625 
Q 23 48.390625 18.546875 47.265625 
Q 14.109375 46.140625 10.015625 43.890625 
L 10.015625 52.203125 
Q 14.9375 54.109375 19.578125 55.046875 
Q 24.21875 56 28.609375 56 
Q 40.484375 56 46.34375 49.84375 
Q 52.203125 43.703125 52.203125 31.203125 
z
" id="DejaVuSans-97"/>
      <path d="M 54.890625 54.6875 
L 35.109375 28.078125 
L 55.90625 0 
L 45.3125 0 
L 29.390625 21.484375 
L 13.484375 0 
L 2.875 0 
L 24.125 28.609375 
L 4.6875 54.6875 
L 15.28125 54.6875 
L 29.78125 35.203125 
L 44.28125 54.6875 
z
" id="DejaVuSans-120"/>
      <path d="M 45.40625 46.390625 
L 45.40625 75.984375 
L 54.390625 75.984375 
L 54.390625 0 
L 45.40625 0 
L 45.40625 8.203125 
Q 42.578125 3.328125 38.25 0.953125 
Q 33.9375 -1.421875 27.875 -1.421875 
Q 17.96875 -1.421875 11.734375 6.484375 
Q 5.515625 14.40625 5.515625 27.296875 
Q 5.515625 40.1875 11.734375 48.09375 
Q 17.96875 56 27.875 56 
Q 33.9375 56 38.25 53.625 
Q 42.578125 51.265625 45.40625 46.390625 
z
M 14.796875 27.296875 
Q 14.796875 17.390625 18.875 11.75 
Q 22.953125 6.109375 30.078125 6.109375 
Q 37.203125 6.109375 41.296875 11.75 
Q 45.40625 17.390625 45.40625 27.296875 
Q 45.40625 37.203125 41.296875 42.84375 
Q 37.203125 48.484375 30.078125 48.484375 
Q 22.953125 48.484375 18.875 42.84375 
Q 14.796875 37.203125 14.796875 27.296875 
z
" id="DejaVuSans-100"/>
      <path d="M 9.421875 54.6875 
L 18.40625 54.6875 
L 18.40625 0 
L 9.421875 0 
z
M 9.421875 75.984375 
L 18.40625 75.984375 
L 18.40625 64.59375 
L 9.421875 64.59375 
z
" id="DejaVuSans-105"/>
      <path d="M 41.109375 46.296875 
Q 39.59375 47.171875 37.8125 47.578125 
Q 36.03125 48 33.890625 48 
Q 26.265625 48 22.1875 43.046875 
Q 18.109375 38.09375 18.109375 28.8125 
L 18.109375 0 
L 9.078125 0 
L 9.078125 54.6875 
L 18.109375 54.6875 
L 18.109375 46.1875 
Q 20.953125 51.171875 25.484375 53.578125 
Q 30.03125 56 36.53125 56 
Q 37.453125 56 38.578125 55.875 
Q 39.703125 55.765625 41.0625 55.515625 
z
" id="DejaVuSans-114"/>
     </defs>
     <g transform="translate(31.795312 229.049094)rotate(-90)scale(0.1 -0.1)">
      <use xlink:href="#DejaVuSans-84"/>
      <use x="60.833984" xlink:href="#DejaVuSans-97"/>
      <use x="122.113281" xlink:href="#DejaVuSans-120"/>
      <use x="181.292969" xlink:href="#DejaVuSans-97"/>
      <use x="242.572266" xlink:href="#DejaVuSans-32"/>
      <use x="274.359375" xlink:href="#DejaVuSans-100"/>
      <use x="337.835938" xlink:href="#DejaVuSans-101"/>
      <use x="399.359375" xlink:href="#DejaVuSans-32"/>
      <use x="431.146484" xlink:href="#DejaVuSans-100"/>
      <use x="494.623047" xlink:href="#DejaVuSans-105"/>
      <use x="522.40625" xlink:href="#DejaVuSans-115"/>
      <use x="574.505859" xlink:href="#DejaVuSans-112"/>
      <use x="637.982422" xlink:href="#DejaVuSans-97"/>
      <use x="699.261719" xlink:href="#DejaVuSans-114"/>
      <use x="740.34375" xlink:href="#DejaVuSans-111"/>
      <use x="801.525391" xlink:href="#DejaVuSans-32"/>
      <use x="833.3125" xlink:href="#DejaVuSans-40"/>
      <use x="872.326172" xlink:href="#DejaVuSans-112"/>
      <use x="935.802734" xlink:href="#DejaVuSans-112"/>
      <use x="999.279297" xlink:href="#DejaVuSans-115"/>
      <use x="1051.378906" xlink:href="#DejaVuSans-41"/>
     </g>
    </g>
   </g>
   <g id="line2d_17">
    <path clip-path="url(#p7828b08348)" d="M 110.366711 265.616554 
L 113.064025 246.882549 
L 114.847534 234.595734 
L 116.456396 225.040208 
L 120.18571 203.80578 
L 121.242408 199.02781 
L 122.770121 193.402204 
L 123.772132 190.392709 
L 125.160481 186.727715 
L 126.356544 184.212909 
L 127.213898 182.83123 
L 128.198267 181.498457 
L 129.246145 179.448645 
L 130.239335 176.821669 
L 132.479746 169.789413 
L 134.136239 163.591647 
L 136.65185 154.195885 
L 137.791461 150.836738 
L 138.565902 149.191228 
L 139.126887 148.379221 
L 139.684344 147.972048 
L 140.058334 147.96251 
L 140.659893 148.251725 
L 141.22617 148.911605 
L 141.887709 149.880961 
L 144.034623 152.967081 
L 144.613249 153.427796 
L 145.313598 153.672531 
L 145.992777 153.55739 
L 146.839547 153.033617 
L 148.086768 151.805638 
L 149.337517 150.078515 
L 150.660595 147.933461 
L 153.913601 142.697097 
L 155.91233 140.050995 
L 157.127797 138.974195 
L 157.949869 138.527215 
L 161.109378 137.112415 
L 162.552415 135.899881 
L 168.629751 129.115852 
L 169.776418 127.257931 
L 171.711639 123.399052 
L 173.152912 120.708552 
L 174.373671 118.927928 
L 175.672051 117.367766 
L 176.435908 116.689506 
L 177.270329 116.207887 
L 178.568709 115.763307 
L 179.731253 115.235049 
L 180.666228 114.48827 
L 181.502413 113.536502 
L 182.463849 112.147003 
L 183.467624 110.877765 
L 184.388486 110.001459 
L 185.085306 109.575621 
L 185.817409 109.369478 
L 187.136959 109.381664 
L 188.535892 109.857047 
L 189.532611 110.446207 
L 191.681289 111.857266 
L 192.501597 112.203483 
L 196.00687 113.124887 
L 198.940574 114.754811 
L 200.115467 115.239617 
L 200.911077 115.278384 
L 201.706688 115.097234 
L 202.394688 114.727176 
L 203.303201 113.927486 
L 204.291099 112.727874 
L 205.734136 110.517934 
L 206.8367 108.833882 
L 207.54587 108.017925 
L 208.219757 107.478878 
L 208.77545 107.215231 
L 209.544599 107.016725 
L 210.664804 106.913007 
L 212.58062 107.068549 
L 213.76257 107.075672 
L 214.738119 107.186458 
L 215.927124 107.727447 
L 216.87092 108.573574 
L 217.698284 109.574993 
L 221.07125 113.855086 
L 221.65164 114.218768 
L 222.623661 114.671812 
L 223.602738 115.270895 
L 224.479497 116.035109 
L 225.762 117.478351 
L 226.769303 119.121119 
L 227.628422 120.907255 
L 229.568935 125.536773 
L 230.791459 128.114053 
L 231.908136 130.005136 
L 234.393758 133.186028 
L 237.12459 136.006744 
L 238.50059 136.992634 
L 240.393473 137.739051 
L 240.846848 137.677625 
L 241.818869 137.313335 
L 244.375054 136.391023 
L 245.25887 136.285404 
L 246.119752 136.368598 
L 248.559507 137.175219 
L 249.187528 137.733139 
L 249.739692 138.476794 
L 250.960452 140.850087 
L 252.018914 143.263654 
L 255.929931 152.660551 
L 256.780229 153.94949 
L 257.521152 154.633037 
L 258.320291 154.963897 
L 260.361358 155.509613 
L 260.855307 155.891923 
L 261.490384 156.575519 
L 262.462405 158.190253 
L 266.733299 166.845533 
L 267.336623 167.51171 
L 267.943474 167.908684 
L 268.541505 167.994565 
L 269.077793 168.115136 
L 270.524357 168.575619 
L 271.087106 169.046004 
L 271.785691 169.994237 
L 272.40842 171.181273 
L 273.348687 173.405102 
L 275.814903 180.098754 
L 277.451991 185.084242 
L 278.819171 189.726551 
L 280.5427 195.966001 
L 285.480425 214.512253 
L 286.198415 216.117063 
L 287.066354 217.338209 
L 287.837267 218.371045 
L 288.486457 219.642479 
L 289.04215 221.346689 
L 289.735442 224.240465 
L 290.400509 228.091348 
L 291.324899 234.879862 
L 292.374541 244.453994 
L 292.699136 247.688996 
L 292.699136 247.688996 
" style="fill:none;stroke:#c5b0d5;stroke-linecap:square;stroke-width:2;"/>
   </g>
   <g id="line2d_18">
    <path clip-path="url(#p7828b08348)" d="M 77.407969 261.640924 
L 79.519601 249.097137 
L 81.128463 240.910802 
L 83.50471 229.268351 
L 84.564936 223.083772 
L 86.344917 212.989487 
L 87.092896 209.886314 
L 87.874394 207.671016 
L 88.544753 206.342896 
L 90.030128 204.286966 
L 92.083545 202.108872 
L 93.231976 200.236462 
L 93.923504 198.633208 
L 94.969618 195.331269 
L 96.310336 189.834619 
L 98.335527 181.504962 
L 99.215814 179.001514 
L 100.050235 177.496497 
L 100.953456 176.300258 
L 101.927241 175.526132 
L 102.602893 175.139474 
L 103.507878 174.331273 
L 104.12355 173.519556 
L 104.88917 172.193771 
L 106.115222 169.364807 
L 107.362443 165.897215 
L 113.810241 147.333273 
L 115.115677 144.313672 
L 116.331144 141.882689 
L 117.370201 140.309193 
L 118.975535 138.366315 
L 119.963433 137.487232 
L 122.099762 136.159369 
L 122.835393 135.594798 
L 123.542799 134.813961 
L 124.336645 133.604983 
L 125.899641 130.703815 
L 126.949282 128.440734 
L 128.600483 124.880347 
L 129.703047 123.092128 
L 130.241099 122.534439 
L 131.042002 121.981265 
L 131.62592 121.807506 
L 132.504444 121.797017 
L 133.772834 121.831083 
L 134.279131 121.698424 
L 134.988301 121.355457 
L 135.552814 120.887956 
L 136.44545 119.812318 
L 137.653861 117.891309 
L 143.154335 109.240821 
L 145.832244 105.672478 
L 149.124061 101.340581 
L 152.955693 96.859658 
L 154.232904 95.332427 
L 155.95114 93.65021 
L 158.147449 91.36429 
L 159.735142 89.775143 
L 160.996476 88.775872 
L 162.240169 87.933134 
L 163.579123 86.687654 
L 166.068273 83.976982 
L 167.177894 82.477877 
L 168.158735 80.853062 
L 171.448788 75.191894 
L 173.191722 73.139216 
L 174.447764 71.987241 
L 176.074267 70.950161 
L 177.49437 70.38957 
L 178.859786 69.951797 
L 180.008217 69.663334 
L 181.375397 69.327891 
L 182.947213 68.570021 
L 184.22266 67.570065 
L 185.088835 66.59712 
L 186.814128 64.521053 
L 187.849656 63.640846 
L 188.841082 63.120494 
L 190.524037 62.620707 
L 191.977658 62.402869 
L 193.524777 62.305514 
L 194.6785 62.006557 
L 196.195629 61.462496 
L 196.915383 61.359617 
L 197.945619 61.522491 
L 198.806502 62.0228 
L 199.824389 63.040795 
L 201.540862 64.840414 
L 202.514647 65.441409 
L 203.400227 65.646849 
L 204.074114 65.645264 
L 205.390135 65.374598 
L 206.221028 65.011183 
L 208.260331 64.117109 
L 209.048886 64.03178 
L 209.742178 64.142919 
L 210.596004 64.529687 
L 212.884046 65.782371 
L 213.976026 66.235624 
L 214.82456 66.400972 
L 215.838919 66.424644 
L 217.966428 66.525746 
L 219.335372 66.816592 
L 220.333854 67.224891 
L 221.330573 67.835766 
L 222.454307 68.802245 
L 225.656154 71.571129 
L 228.755684 73.85088 
L 229.60951 74.756878 
L 231.983993 77.801213 
L 234.423747 81.299168 
L 237.002867 85.121351 
L 237.895503 85.976801 
L 238.687585 86.484183 
L 239.41616 86.730645 
L 241.102643 86.838462 
L 241.970581 86.867766 
L 243.378336 87.208909 
L 244.165126 87.611122 
L 245.354132 88.574687 
L 251.265642 94.361598 
L 252.250011 95.960284 
L 253.557212 98.632421 
L 255.794095 103.260363 
L 257.0519 105.42386 
L 258.493173 107.454139 
L 261.123451 110.89711 
L 262.174856 112.31637 
L 263.540272 113.986968 
L 264.854529 115.194312 
L 266.027658 115.920667 
L 267.825279 116.503335 
L 268.546798 116.856269 
L 269.88046 117.743024 
L 271.134737 118.927274 
L 275.580277 123.516723 
L 276.404114 124.886747 
L 277.390247 127.019144 
L 278.674515 130.203148 
L 280.899049 135.922713 
L 281.774044 137.74484 
L 282.541429 139.006077 
L 283.331747 139.964171 
L 283.975645 140.427322 
L 284.513697 140.617063 
L 285.22463 140.706475 
L 286.597103 140.623018 
L 287.179257 140.685003 
L 287.78258 141.110554 
L 288.467052 141.956643 
L 289.079196 142.985984 
L 289.876571 144.606098 
L 291.300202 147.860619 
L 293.246008 152.659308 
L 294.569085 155.532319 
L 296.753045 159.732491 
L 297.834441 161.511648 
L 298.921128 162.802379 
L 300.593498 164.57146 
L 302.484617 167.311824 
L 303.846505 170.064533 
L 304.920844 172.7714 
L 306.385049 177.189263 
L 307.542301 181.81194 
L 309.05943 189.295032 
L 310.038507 194.902347 
L 312.166016 208.458518 
L 314.039493 221.03059 
L 314.97094 225.90954 
L 315.85652 229.561195 
L 316.528643 231.349259 
L 317.165485 232.408394 
L 319.093649 235.446598 
L 320.339106 238.530713 
L 321.182348 241.002094 
L 322.113794 244.596261 
L 322.874123 248.459956 
L 324.221898 256.707417 
L 325.943663 268.417787 
L 325.943663 268.417787 
" style="fill:none;stroke:#ffbb78;stroke-linecap:square;stroke-width:2;"/>
   </g>
   <g id="line2d_19">
    <path clip-path="url(#p7828b08348)" d="M 123.235845 256.511457 
L 125.21164 240.621624 
L 126.218943 234.112031 
L 127.247416 229.10193 
L 128.170042 225.7897 
L 129.048565 223.309864 
L 131.029653 218.643272 
L 131.819971 217.466974 
L 132.633223 216.685147 
L 133.132464 216.509892 
L 133.936895 216.328721 
L 135.076506 215.70496 
L 135.716876 215.08503 
L 136.336076 214.006017 
L 136.87942 212.782498 
L 137.697964 210.2819 
L 138.80582 206.245401 
L 141.608981 196.701078 
L 142.743299 193.381241 
L 144.085782 189.984697 
L 145.287136 187.705554 
L 146.627855 185.855505 
L 148.100881 184.329845 
L 149.296943 183.269659 
L 150.154297 182.748934 
L 150.992246 182.635398 
L 152.087754 183.101047 
L 152.862196 183.521535 
L 153.282052 183.545788 
L 153.927714 183.382571 
L 154.670401 182.883985 
L 155.077909 182.399389 
L 155.855879 181.133065 
L 156.834956 178.83041 
L 157.836967 175.729896 
L 158.936003 171.474014 
L 161.501009 161.092465 
L 162.305441 158.800756 
L 162.956395 157.673547 
L 163.374487 157.309417 
L 163.785523 157.236234 
L 164.316518 157.413356 
L 164.739903 157.761747 
L 165.510816 158.788801 
L 167.749463 162.210909 
L 168.426879 162.679518 
L 168.882018 162.749862 
L 169.531208 162.651119 
L 170.300357 162.123174 
L 171.491126 160.696908 
L 172.427865 159.238601 
L 173.803866 156.78083 
L 175.675579 152.962141 
L 177.005713 149.851197 
L 178.473447 145.975749 
L 181.345407 138.467011 
L 181.86229 137.692141 
L 182.543234 137.052582 
L 183.188895 136.807097 
L 183.77987 136.809722 
L 184.272055 137.0196 
L 184.877142 137.524229 
L 185.635707 138.644225 
L 186.57421 140.632396 
L 190.485227 149.597078 
L 191.123832 150.551789 
L 191.642478 151.051806 
L 192.295197 151.383544 
L 192.836776 151.426543 
L 193.434807 151.177782 
L 194.124572 150.56307 
L 194.694377 149.779616 
L 195.795178 147.930872 
L 197.749804 144.348484 
L 198.570112 143.298549 
L 199.439815 142.616721 
L 200.480636 142.254185 
L 201.156287 142.201356 
L 203.75834 141.992542 
L 204.659797 141.588585 
L 205.809992 140.623718 
L 207.500003 139.228612 
L 208.117439 138.989536 
L 208.64667 138.94058 
L 209.301152 139.084588 
L 210.08265 139.617704 
L 211.029974 140.703844 
L 211.934959 142.156302 
L 213.510303 144.530837 
L 214.28298 145.185001 
L 214.882775 145.364506 
L 215.625463 145.250732 
L 216.352273 144.807708 
L 217.403679 143.70938 
L 218.283966 142.51979 
L 219.695249 140.766263 
L 220.826039 139.877835 
L 221.542265 139.580443 
L 222.136768 139.51803 
L 222.842409 139.669774 
L 223.786205 140.233014 
L 224.650615 141.028397 
L 225.578534 142.154376 
L 226.241836 143.229766 
L 227.575498 145.813097 
L 229.21435 149.738376 
L 231.913428 156.302226 
L 232.996588 158.382758 
L 233.703993 159.307694 
L 234.481963 160.008852 
L 235.558066 160.567396 
L 236.120815 160.697127 
L 237.143995 160.97185 
L 238.49177 161.583916 
L 239.165657 162.104356 
L 241.032078 164.034996 
L 242.032325 165.373234 
L 244.228634 169.0658 
L 246.807753 173.812391 
L 248.099076 176.909167 
L 250.563529 182.856355 
L 251.519673 184.379805 
L 252.294114 185.313053 
L 254.059981 186.738938 
L 255.43069 187.664092 
L 256.280987 188.877402 
L 256.787285 189.859999 
L 257.903962 192.638333 
L 259.611614 197.862903 
L 261.349256 205.039671 
L 262.518857 209.457296 
L 264.768088 216.833482 
L 265.660725 218.811131 
L 266.645094 220.84041 
L 267.719433 223.508029 
L 270.118614 229.330817 
L 270.601978 229.756184 
L 271.057117 229.862035 
L 272.24965 230.141799 
L 272.665979 230.576282 
L 273.235784 231.543196 
L 275.435621 235.69188 
L 275.982493 237.381625 
L 276.704011 240.4049 
L 277.646042 245.362677 
L 278.605715 251.855815 
L 279.625366 260.368014 
L 280.046987 264.135778 
L 280.046987 264.135778 
" style="fill:none;stroke:#8c564b;stroke-linecap:square;stroke-width:2;"/>
   </g>
   <g id="line2d_20">
    <path clip-path="url(#p7828b08348)" d="M 163.722015 279.126785 
L 164.092477 279.237302 
L 164.498221 279.609447 
L 164.986878 280.38856 
L 165.60255 281.828564 
L 166.435206 284.401887 
L 169.010797 292.780288 
L 169.402428 293.196418 
L 169.702326 293.226752 
L 169.991639 293.018069 
L 170.342695 292.456332 
L 170.789013 291.275599 
L 171.983311 287.100181 
L 173.456337 282.155715 
L 174.216666 280.337612 
L 174.791764 279.480059 
L 175.245138 279.162197 
L 175.626185 279.150763 
L 176.005467 279.372007 
L 176.444728 279.909658 
L 176.986308 280.957725 
L 177.684893 282.841096 
L 178.806863 285.910551 
L 179.410186 286.918155 
L 179.881202 287.318582 
L 180.269304 287.379036 
L 180.64153 287.206025 
L 181.063151 286.743113 
L 181.578269 285.816699 
L 182.23628 284.132213 
L 183.155377 281.098707 
L 186.590087 268.391019 
L 188.953985 259.06319 
L 189.975401 253.856018 
L 191.11854 246.511753 
L 192.820899 235.819448 
L 193.531833 232.718361 
L 194.064592 231.273926 
L 194.46328 230.744703 
L 194.810808 230.633878 
L 195.195382 230.73106 
L 195.609947 231.081065 
L 196.10566 231.81659 
L 196.716039 233.152425 
L 197.217045 234.809604 
L 197.867999 237.805279 
L 198.80121 243.274818 
L 199.679733 249.561425 
L 203.020945 274.704598 
L 203.809499 279.082392 
L 204.573356 282.157452 
L 205.141397 283.625665 
L 205.571838 284.20404 
L 205.871736 284.297823 
L 206.168105 284.100682 
L 206.52269 283.564831 
L 206.970772 282.441202 
L 207.54587 280.339029 
L 208.316783 276.590728 
L 211.128763 262.02735 
L 211.818528 259.807132 
L 212.746446 257.61591 
L 213.764334 255.875696 
L 216.410489 251.359481 
L 217.121422 250.669139 
L 217.493648 250.540772 
L 217.797074 250.682033 
L 218.146366 251.116971 
L 218.583864 252.056516 
L 219.141321 253.834235 
L 219.875188 256.990022 
L 220.536726 260.782784 
L 221.499927 267.763025 
L 223.525117 282.653976 
L 224.241343 286.206177 
L 224.777631 287.872464 
L 225.176318 288.491918 
L 225.465631 288.596574 
L 225.719662 288.447236 
L 226.086595 287.908918 
L 226.610534 286.733946 
L 227.249139 284.719827 
L 228.270555 280.413142 
L 229.958802 272.308165 
L 231.777593 263.26114 
L 232.518516 260.69554 
L 233.072444 259.48879 
L 233.495829 259.031661 
L 233.825716 258.967813 
L 234.134435 259.141794 
L 234.496076 259.628359 
L 234.94945 260.649772 
L 235.52984 262.560079 
L 235.974394 264.408111 
L 235.974394 264.408111 
" style="fill:none;stroke:#f7b6d2;stroke-linecap:square;stroke-width:2;"/>
   </g>
   <g id="line2d_21">
    <path clip-path="url(#p7828b08348)" d="M 207.925152 279.126785 
L 208.295614 279.238357 
L 208.701357 279.611624 
L 209.190014 280.391991 
L 209.805686 281.833338 
L 210.638343 284.407895 
L 213.510303 293.798401 
L 214.138324 294.920463 
L 214.62698 295.387258 
L 215.027432 295.488 
L 217.07732 295.376955 
L 217.483064 295.004249 
L 217.97172 294.224509 
L 218.587392 292.783834 
L 219.420049 290.209893 
L 222.293773 280.814428 
L 222.921794 279.693145 
L 223.410451 279.227024 
L 223.761507 279.126785 
L 223.761507 279.126785 
" style="fill:none;stroke:#dbdb8d;stroke-linecap:square;stroke-width:2;"/>
   </g>
   <g id="line2d_22">
    <path clip-path="url(#p7828b08348)" d="M 121.5229 265.007549 
L 121.979803 264.161335 
L 122.327332 263.922437 
L 122.734839 263.915819 
L 123.142347 264.140033 
L 123.609835 264.671682 
L 124.842943 266.250937 
L 125.428625 266.637613 
L 125.735579 266.584553 
L 126.061938 266.282757 
L 126.46239 265.576462 
L 126.843436 264.454328 
L 127.337385 262.234778 
L 127.893077 258.683141 
L 128.572257 252.69348 
L 129.882986 238.556837 
L 131.463623 221.806418 
L 132.410946 214.401706 
L 133.16951 210.16064 
L 133.894557 207.249616 
L 134.683111 204.899736 
L 136.029122 201.614302 
L 137.205779 199.445939 
L 137.932589 198.700513 
L 138.396549 198.439436 
L 139.656118 198.251443 
L 140.786908 198.272425 
L 141.949453 198.097807 
L 142.715073 197.8094 
L 143.152571 197.310069 
L 144.061084 195.945666 
L 144.830233 194.138454 
L 145.724634 191.458192 
L 148.875322 182.039753 
L 149.540389 180.946905 
L 150.85641 179.158724 
L 155.367222 174.294874 
L 156.744987 173.018653 
L 157.406526 172.764835 
L 158.196844 172.595349 
L 159.15828 172.383824 
L 159.722793 172.115127 
L 160.497235 171.29875 
L 161.446322 169.791764 
L 164.812231 163.82054 
L 166.265852 161.934677 
L 168.873197 158.345734 
L 170.721977 154.993122 
L 171.646367 152.844572 
L 174.184912 146.650019 
L 175.386266 144.479445 
L 176.928093 142.125572 
L 177.603744 141.354359 
L 182.989552 135.533649 
L 184.319686 134.834511 
L 185.745081 134.543362 
L 193.695895 135.521383 
L 196.022747 136.539495 
L 196.68605 136.855096 
L 197.518706 137.173723 
L 198.171425 137.265822 
L 199.019958 137.339909 
L 199.864964 137.269975 
L 200.595303 136.91998 
L 201.632595 136.000623 
L 202.641662 134.829679 
L 203.869478 133.476578 
L 205.187264 132.452027 
L 205.847038 132.290918 
L 206.314526 132.34561 
L 206.887859 132.555023 
L 207.690526 133.112831 
L 208.567285 134.132023 
L 209.343491 135.303324 
L 211.474528 138.487253 
L 212.60179 139.582703 
L 213.127492 139.844963 
L 213.857831 139.929814 
L 214.567001 139.764935 
L 215.588417 139.258729 
L 218.518592 137.880017 
L 219.353013 137.839692 
L 219.836377 138.012805 
L 220.436172 138.446644 
L 221.221198 139.439841 
L 222.233794 141.163494 
L 223.144071 143.16934 
L 224.410697 146.369038 
L 226.370616 151.452813 
L 227.342637 153.362692 
L 228.207047 154.551171 
L 229.043232 155.213529 
L 229.877653 155.467467 
L 230.874372 155.399176 
L 232.287418 155.296463 
L 233.19946 155.435431 
L 235.738004 156.013346 
L 237.149287 156.474487 
L 237.622067 156.904243 
L 238.25538 157.686601 
L 239.126847 159.345794 
L 241.171443 164.187132 
L 243.925208 171.137746 
L 244.881352 173.955812 
L 245.895711 177.984225 
L 249.037579 191.127876 
L 249.8032 193.208838 
L 250.365949 194.278368 
L 250.948103 194.903668 
L 251.253293 194.954133 
L 251.54437 194.763658 
L 252.073601 194.0864 
L 252.489929 193.169284 
L 253.349048 190.594752 
L 255.580638 183.394093 
L 256.213951 182.393934 
L 256.547367 182.193383 
L 256.951347 182.240324 
L 257.334157 182.509907 
L 257.676393 183.077308 
L 258.219737 184.509173 
L 261.195779 192.907496 
L 262.719964 196.087237 
L 265.662489 202.265275 
L 266.678612 204.482004 
L 268.885505 209.616109 
L 269.892808 212.847924 
L 271.549301 218.991749 
L 273.346923 227.175685 
L 274.941672 235.24324 
L 275.901344 239.560441 
L 276.555827 241.611821 
L 277.05154 242.522652 
L 277.67074 243.111147 
L 278.171745 243.30888 
L 278.475171 243.194473 
L 278.997346 242.736256 
L 279.62713 241.863768 
L 280.551521 240.565912 
L 281.057818 240.249779 
L 281.4371 240.245607 
L 281.729942 240.499159 
L 282.091583 241.141488 
L 282.553778 242.465517 
L 283.148281 244.910265 
L 283.920958 249.10611 
L 284.695399 254.678726 
L 285.118784 258.175305 
L 285.118784 258.175305 
" style="fill:none;stroke:#9467bd;stroke-linecap:square;stroke-width:2;"/>
   </g>
   <g id="line2d_23">
    <path clip-path="url(#p7828b08348)" d="M 100.16843 279.126785 
L 100.538892 279.237302 
L 100.944635 279.609447 
L 101.433292 280.38856 
L 102.048964 281.828564 
L 102.881621 284.401887 
L 105.758873 293.806215 
L 106.309274 294.753847 
L 106.626812 294.911359 
L 106.893192 294.800458 
L 107.200146 294.399797 
L 107.755838 293.186024 
L 108.463244 291.091749 
L 109.075388 288.479125 
L 109.918629 283.798416 
L 110.788332 277.828413 
L 111.762117 269.545517 
L 113.266897 254.350875 
L 114.900457 238.166478 
L 115.879534 230.40575 
L 116.775698 224.963877 
L 117.613648 221.310979 
L 118.287535 219.232896 
L 118.799125 218.29348 
L 119.273669 217.87709 
L 119.847002 217.632554 
L 120.68848 217.586469 
L 121.23888 217.828809 
L 121.782224 217.97048 
L 122.288521 217.875031 
L 122.745424 217.528107 
L 123.398142 216.758594 
L 123.823291 215.974605 
L 124.410738 214.345316 
L 125.534471 210.647721 
L 127.933652 202.884585 
L 129.950022 196.445143 
L 133.307111 184.937897 
L 135.660424 176.119885 
L 136.58305 173.558764 
L 137.274579 172.198741 
L 137.989041 171.141672 
L 138.722908 170.649151 
L 139.373862 170.432747 
L 141.937104 169.877297 
L 143.321925 168.903615 
L 144.362746 168.350131 
L 145.193639 168.270828 
L 146.331485 168.638924 
L 148.144983 169.60602 
L 148.959999 169.614635 
L 149.482174 169.407824 
L 150.004348 169.063818 
L 150.570625 168.406739 
L 151.239221 167.27673 
L 152.075405 165.353776 
L 153.195611 161.790595 
L 156.203407 151.930473 
L 160.075614 142.120915 
L 161.206404 139.978233 
L 161.728579 139.406295 
L 162.324846 139.017131 
L 163.104579 138.87474 
L 166.034755 138.825817 
L 166.747453 138.533855 
L 167.493668 137.844508 
L 168.255761 136.712525 
L 169.151925 134.807585 
L 171.755742 128.860105 
L 172.500193 127.91105 
L 173.12645 127.431495 
L 174.237835 126.911261 
L 175.132236 126.463011 
L 175.899621 125.866703 
L 176.7852 124.926104 
L 178.245878 122.995896 
L 180.555089 120.036664 
L 181.521818 119.149036 
L 182.818434 118.352968 
L 184.298516 117.958214 
L 186.030866 118.001432 
L 186.792958 118.32384 
L 189.266231 119.805182 
L 189.837801 119.94976 
L 190.628119 119.873203 
L 191.150294 119.668391 
L 193.180776 118.749077 
L 195.103649 118.022363 
L 195.821639 118.070282 
L 196.636655 118.381809 
L 197.612204 119.161363 
L 198.460738 120.146637 
L 199.995508 121.833465 
L 200.517682 122.085681 
L 201.015159 122.172643 
L 202.038339 122.015594 
L 202.816309 121.674367 
L 203.714237 121.311174 
L 204.659797 121.16217 
L 205.801171 121.287465 
L 207.438259 121.760803 
L 208.480844 122.166969 
L 209.479327 122.502718 
L 211.64741 122.831227 
L 213.11338 122.707514 
L 215.456109 122.404154 
L 217.331351 122.544317 
L 219.4077 122.720252 
L 225.146328 123.227944 
L 226.691683 123.429277 
L 227.282657 123.619696 
L 227.871868 123.964303 
L 228.554576 124.586818 
L 229.831787 126.115955 
L 231.308341 128.127622 
L 236.242538 135.057949 
L 236.971113 136.084388 
L 237.823175 137.609721 
L 238.807544 139.809734 
L 239.610211 142.026686 
L 243.552982 153.35332 
L 245.202419 157.222143 
L 246.125045 158.779171 
L 247.227609 160.053842 
L 248.146707 160.865756 
L 249.076389 161.33401 
L 250.907529 161.726244 
L 251.588473 161.575428 
L 253.059735 160.859252 
L 254.213458 160.244842 
L 254.76033 160.191216 
L 255.314259 160.276503 
L 255.959921 160.649695 
L 256.566772 161.235499 
L 257.251244 162.215715 
L 258.551388 164.532869 
L 259.828599 167.308592 
L 260.818261 170.155103 
L 262.215431 174.256723 
L 263.74138 178.109337 
L 264.505237 179.657097 
L 265.535473 181.355326 
L 266.179371 182.072538 
L 266.967925 182.582809 
L 267.791761 182.65489 
L 268.520336 182.452215 
L 269.764029 181.844519 
L 270.295024 181.684727 
L 271.180604 181.561197 
L 272.078532 181.875569 
L 273.018799 182.803588 
L 274.650595 185.290882 
L 277.455519 190.655478 
L 278.129407 192.875663 
L 278.757427 195.846004 
L 279.650064 201.273682 
L 280.630905 208.509173 
L 281.70348 218.112908 
L 284.13265 240.56767 
L 284.942374 245.564479 
L 285.595092 248.285814 
L 286.060815 249.503398 
L 286.4154 249.895554 
L 286.75058 249.972575 
L 287.062826 249.809265 
L 287.443872 249.323691 
L 287.89019 248.377014 
L 288.458232 246.600734 
L 290.561043 239.371655 
L 291.189063 238.133226 
L 291.674192 237.613228 
L 292.062295 237.490903 
L 292.416879 237.61131 
L 292.810274 238.000542 
L 293.233659 238.745689 
L 293.6641 240.044479 
L 294.219793 242.499496 
L 294.958952 246.873789 
L 296.19206 255.749611 
L 296.753045 260.190761 
L 296.753045 260.190761 
" style="fill:none;stroke:#9467bd;stroke-linecap:square;stroke-width:2;"/>
   </g>
   <g id="line2d_24">
    <path clip-path="url(#p7828b08348)" d="M 77.3868 269.597516 
L 79.646616 258.545473 
L 80.682145 254.317334 
L 84.399111 239.769339 
L 85.411706 235.744959 
L 86.482517 232.228289 
L 88.087851 228.120062 
L 90.39177 222.184928 
L 91.843627 216.845477 
L 94.161658 206.929158 
L 95.839321 200.057102 
L 96.634931 197.737508 
L 97.546973 195.872022 
L 98.139711 194.967635 
L 99.326953 193.6338 
L 100.741764 192.06286 
L 101.443877 190.479181 
L 102.064841 188.476833 
L 102.906318 185.115971 
L 104.183529 179.051779 
L 106.718546 166.092464 
L 107.939305 161.111508 
L 108.966013 157.841443 
L 109.706937 156.137298 
L 110.428455 154.870802 
L 111.529255 153.505873 
L 112.573604 152.61227 
L 117.183206 150.058004 
L 118.954366 149.244413 
L 119.854059 148.484573 
L 122.112111 146.068833 
L 123.055906 144.579588 
L 124.049096 142.608545 
L 125.889056 138.492141 
L 129.096196 130.996069 
L 130.295786 128.780135 
L 131.816443 126.577216 
L 134.150352 123.394287 
L 135.099439 121.871103 
L 137.202251 118.474128 
L 138.572959 116.5887 
L 139.589082 115.492091 
L 140.635196 114.645089 
L 141.656611 114.070043 
L 142.263463 113.940983 
L 142.861494 114.012672 
L 143.932305 114.430251 
L 147.035362 115.930025 
L 147.84685 115.79811 
L 148.517209 115.453661 
L 149.083486 114.935759 
L 149.775015 113.95945 
L 150.470071 112.617572 
L 151.528533 110.157423 
L 154.663345 102.517703 
L 155.776494 100.293961 
L 159.574609 93.308458 
L 161.64743 90.164832 
L 162.996969 88.580192 
L 163.849031 87.875072 
L 164.54938 87.579135 
L 165.154467 87.505217 
L 165.798365 87.603037 
L 167.961156 87.92281 
L 169.042551 87.460388 
L 170.005751 86.608548 
L 170.979536 85.31731 
L 171.978019 83.666551 
L 173.09646 81.247915 
L 175.368625 76.135437 
L 176.137774 74.961249 
L 176.783436 74.380804 
L 177.240339 74.203529 
L 177.856011 74.195615 
L 178.623396 74.410603 
L 179.489571 74.936247 
L 180.840874 75.662607 
L 181.9011 75.961107 
L 182.834311 76.003488 
L 183.898065 75.841125 
L 185.04826 75.542784 
L 188.834026 74.286681 
L 190.596365 74.028348 
L 191.485473 73.653948 
L 193.330725 72.679981 
L 194.929003 71.701061 
L 195.774008 71.305521 
L 196.977127 71.073009 
L 197.783322 71.095742 
L 198.640676 71.121856 
L 201.551447 70.940011 
L 204.028248 70.540062 
L 205.300166 70.763297 
L 206.199859 71.120599 
L 207.344762 71.73314 
L 209.241173 72.59678 
L 209.870958 72.591784 
L 210.645399 72.260928 
L 211.246958 71.765117 
L 212.143123 70.71947 
L 214.581114 67.979584 
L 215.156211 67.743956 
L 215.727781 67.754544 
L 216.35933 68.044673 
L 217.169053 68.775534 
L 218.042284 69.906162 
L 219.474736 72.021658 
L 222.424317 76.554604 
L 223.872646 78.331787 
L 226.928073 81.973632 
L 228.519294 83.653528 
L 229.468381 84.285803 
L 230.325736 84.582789 
L 231.449469 84.686834 
L 234.623091 84.471598 
L 235.517492 84.425129 
L 236.711789 84.702476 
L 237.495051 85.263118 
L 238.075441 85.918171 
L 238.73698 86.901352 
L 239.550232 88.484057 
L 241.192612 92.324947 
L 243.258377 96.985412 
L 244.092798 98.397758 
L 244.962501 99.437325 
L 245.479383 99.761925 
L 246.049188 99.939847 
L 247.153517 100.059989 
L 248.660061 100.227586 
L 249.663836 100.776356 
L 250.277744 101.374755 
L 250.891652 102.188574 
L 251.65198 103.509185 
L 252.692801 105.775948 
L 255.473028 111.791904 
L 256.272167 112.812468 
L 256.857849 113.31207 
L 257.469993 113.624632 
L 258.285009 113.79939 
L 259.179409 113.877567 
L 262.330098 114.187422 
L 264.68694 115.077233 
L 266.147617 115.489213 
L 267.133751 115.774298 
L 267.763536 116.157808 
L 268.373915 116.73922 
L 269.021341 117.624283 
L 269.730511 118.99569 
L 270.510245 121.084808 
L 271.940932 125.883571 
L 273.175805 129.798425 
L 274.35599 132.883276 
L 275.679067 135.572737 
L 276.980975 137.777464 
L 279.620074 142.281987 
L 284.296712 151.138507 
L 286.676487 155.130778 
L 287.706724 157.631528 
L 289.322642 162.417632 
L 291.434274 168.590033 
L 294.960716 177.636919 
L 295.803958 179.180583 
L 296.858891 180.865831 
L 297.680964 181.880983 
L 298.675918 182.799007 
L 299.774954 183.75756 
L 300.699344 184.828265 
L 301.233868 185.864704 
L 302.182955 188.454282 
L 303.181438 192.117821 
L 304.88909 199.432681 
L 307.260044 209.053741 
L 308.355553 212.261957 
L 310.049092 217.514434 
L 311.305133 221.624767 
L 312.441216 226.313328 
L 314.027145 233.670174 
L 315.695986 242.730339 
L 317.343659 252.897942 
L 318.684377 262.422722 
L 318.684377 262.422722 
" style="fill:none;stroke:#2ca02c;stroke-linecap:square;stroke-width:2;"/>
   </g>
   <g id="line2d_25">
    <path clip-path="url(#p7828b08348)" d="M 164.501749 275.703686 
L 165.655473 270.989154 
L 167.188478 264.91999 
L 169.642346 257.0303 
L 170.326818 255.674462 
L 170.854285 255.071112 
L 171.372931 254.821099 
L 171.951557 254.699902 
L 172.33084 254.891242 
L 173.763291 255.836679 
L 174.11964 255.853399 
L 174.472461 255.636061 
L 174.872912 255.10594 
L 175.246902 254.194095 
L 175.730267 252.366121 
L 176.358287 249.032691 
L 177.332072 242.453433 
L 181.124895 215.44176 
L 181.936382 211.268291 
L 182.617326 208.82037 
L 183.418229 206.73294 
L 184.167973 205.414186 
L 185.494578 203.405026 
L 185.873861 203.217743 
L 186.201984 203.295957 
L 186.538928 203.619611 
L 186.870579 204.303352 
L 187.30102 205.757496 
L 188.043708 209.263438 
L 188.952221 214.868939 
L 190.328221 224.464867 
L 191.183812 229.664357 
L 191.887689 232.834007 
L 192.45573 234.335604 
L 192.787381 234.697589 
L 193.027299 234.674349 
L 193.327197 234.365736 
L 193.72412 233.6151 
L 194.184551 232.239948 
L 194.847854 229.446863 
L 195.867506 224.03493 
L 197.508122 215.587762 
L 198.227876 212.969662 
L 198.750051 211.921176 
L 199.196369 211.451499 
L 199.549189 211.369888 
L 199.877313 211.525972 
L 200.491221 212.169749 
L 201.648472 213.685024 
L 202.179467 214.787656 
L 203.304965 217.753338 
L 204.58394 221.409931 
L 205.698853 223.7396 
L 209.507552 229.268014 
L 209.897419 229.327766 
L 210.290814 229.134546 
L 210.737132 228.646462 
L 211.485112 227.405981 
L 212.183697 225.793153 
L 213.041051 223.234727 
L 214.133031 219.36231 
L 215.226775 215.378168 
L 215.937709 213.551646 
L 216.735084 212.189774 
L 217.144356 211.917839 
L 217.484828 211.942515 
L 217.812951 212.19702 
L 218.146366 212.800616 
L 218.709115 214.316556 
L 219.425341 216.935592 
L 220.097465 220.33104 
L 221.623414 228.04863 
L 222.413732 230.64767 
L 223.080563 232.107195 
L 224.165487 233.983107 
L 224.950513 235.617276 
L 225.931354 238.183698 
L 227.259724 242.192884 
L 228.080032 245.561332 
L 228.937386 250.25801 
L 230.883192 262.580124 
L 232.502639 272.619593 
L 233.772793 279.183056 
L 234.854189 283.427422 
L 235.494558 285.224408 
L 236.157861 286.521696 
L 236.671215 287.090003 
L 237.084015 287.247194 
L 237.456241 287.154334 
L 237.858457 286.806897 
L 238.340057 286.069203 
L 238.945144 284.697124 
L 240.95975 279.704951 
L 241.450171 279.231075 
L 241.848858 279.128061 
L 242.21932 279.262829 
L 242.630356 279.667587 
L 243.138418 280.511758 
L 244.223341 282.321146 
L 244.962501 283.154348 
L 245.557003 283.513524 
L 246.07565 283.577617 
L 246.580183 283.413155 
L 247.134112 282.985137 
L 247.79565 282.171158 
L 248.668882 280.70981 
L 249.476841 279.443667 
L 249.923159 279.153285 
L 250.103098 279.126785 
L 250.103098 279.126785 
" style="fill:none;stroke:#7f7f7f;stroke-linecap:square;stroke-width:2;"/>
   </g>
   <g id="line2d_26">
    <path clip-path="url(#p7828b08348)" d="M 174.190204 275.532901 
L 175.086369 273.182196 
L 175.733795 272.049131 
L 176.238328 271.568001 
L 176.651129 271.456415 
L 177.033939 271.583927 
L 177.45556 271.977019 
L 177.963621 272.782592 
L 178.605755 274.256368 
L 179.491335 276.906956 
L 182.820198 288.171658 
L 184.141511 292.540995 
L 184.893019 294.315576 
L 185.462825 295.150428 
L 185.912671 295.456363 
L 186.37663 295.488 
L 191.803012 295.376955 
L 192.208756 295.004249 
L 192.610971 294.331485 
L 193.043176 293.084267 
L 193.598869 290.732147 
L 194.338028 286.538711 
L 195.583485 277.947949 
L 197.158829 267.537573 
L 198.277271 261.311632 
L 198.988205 258.495593 
L 199.522728 257.182321 
L 199.924943 256.703356 
L 200.388903 256.543054 
L 200.814051 256.628537 
L 201.265662 256.959302 
L 201.796657 257.645946 
L 202.504062 258.968622 
L 203.214996 260.090332 
L 203.770689 260.589969 
L 204.232884 260.72754 
L 204.659797 260.624246 
L 205.118463 260.271094 
L 205.691797 259.517767 
L 207.187757 257.613973 
L 207.716988 257.30735 
L 208.179183 257.286187 
L 208.63785 257.493814 
L 209.154732 257.989592 
L 209.780989 258.924224 
L 210.606589 260.595298 
L 211.137584 262.084766 
L 211.830877 264.755344 
L 212.875226 269.786396 
L 215.706611 283.698767 
L 216.683925 287.601311 
L 218.134018 292.461564 
L 218.894346 294.278853 
L 219.361834 294.931286 
L 219.656439 295.004055 
L 219.926347 294.831199 
L 220.265054 294.308938 
L 220.868378 292.93484 
L 221.676337 290.484296 
L 224.744113 280.572568 
L 225.345672 279.583695 
L 225.816687 279.19171 
L 226.098944 279.126785 
L 226.098944 279.126785 
" style="fill:none;stroke:#9edae5;stroke-linecap:square;stroke-width:2;"/>
   </g>
   <g id="line2d_27">
    <path clip-path="url(#p7828b08348)" d="M 94.249863 269.06169 
L 95.8993 257.442934 
L 98.134419 242.044706 
L 101.489743 221.993002 
L 102.315344 217.930924 
L 103.17799 214.91603 
L 104.608678 211.007931 
L 105.974094 207.869418 
L 107.473582 205.511417 
L 108.787839 203.99113 
L 109.893932 202.805304 
L 111.495737 200.478701 
L 112.633584 197.971181 
L 113.644415 196.021513 
L 116.361134 191.414987 
L 117.20614 188.965826 
L 118.585668 184.105518 
L 121.635803 172.959793 
L 122.685445 170.411188 
L 123.59043 168.800145 
L 124.292543 167.990651 
L 125.405692 166.994812 
L 127.284462 165.138463 
L 129.920032 161.520291 
L 131.110802 159.487639 
L 132.712608 156.759766 
L 137.491564 148.392147 
L 138.218374 147.554884 
L 139.437369 146.394955 
L 141.04976 144.882131 
L 142.413412 143.139153 
L 146.193885 137.35172 
L 148.254358 135.249739 
L 149.422194 134.086987 
L 151.202174 131.864233 
L 152.28357 130.042888 
L 153.92595 126.78795 
L 155.90351 122.191305 
L 158.115695 117.037584 
L 158.823101 115.912501 
L 159.412311 115.31042 
L 159.987409 115.043699 
L 160.659532 115.08487 
L 161.33342 115.503287 
L 162.16784 116.460111 
L 164.985113 120.177661 
L 165.722509 120.586371 
L 166.202345 120.620794 
L 166.623965 120.435381 
L 167.126735 119.966332 
L 167.816499 118.965733 
L 168.657977 117.339928 
L 169.78171 114.672773 
L 172.581342 108.034462 
L 173.549835 106.496175 
L 174.453056 105.526939 
L 175.299825 104.984784 
L 176.808134 104.417305 
L 177.716647 104.224077 
L 180.36633 104.206442 
L 181.345407 104.459198 
L 182.767275 104.873844 
L 183.935111 105.283272 
L 185.879153 106.092607 
L 186.937615 106.135646 
L 187.611502 105.913099 
L 188.398292 105.333634 
L 189.345616 104.282022 
L 192.099381 100.392188 
L 194.636162 96.666169 
L 195.484695 95.798427 
L 196.313824 95.257229 
L 197.037106 95.013926 
L 198.764163 94.837251 
L 202.077149 94.941684 
L 202.990955 95.091721 
L 206.476823 96.261903 
L 208.269152 97.308593 
L 209.043593 97.548682 
L 210.488394 97.850409 
L 212.240149 98.217883 
L 213.847247 98.393081 
L 215.658981 98.625478 
L 216.556909 98.893502 
L 217.49894 99.491525 
L 218.966674 100.636539 
L 220.291516 101.702621 
L 221.14887 102.193496 
L 222.468419 102.580443 
L 224.632974 103.094987 
L 227.302062 102.978376 
L 228.027109 103.27104 
L 229.281386 104.189667 
L 230.131684 105.210542 
L 231.116054 106.721282 
L 232.243316 108.847956 
L 234.737758 113.62238 
L 236.138456 115.625149 
L 237.223379 116.722761 
L 237.95019 117.159687 
L 241.384899 118.965211 
L 242.5545 120.30552 
L 243.953434 122.539882 
L 245.265926 124.602703 
L 245.969804 125.378754 
L 246.569599 125.796466 
L 247.278768 126.055755 
L 247.970297 126.078063 
L 248.649476 125.87616 
L 249.782031 125.24445 
L 251.482626 124.188092 
L 251.914832 124.165579 
L 252.339981 124.297562 
L 252.925663 124.798109 
L 253.528986 125.632054 
L 254.208166 126.93157 
L 255.136084 129.203062 
L 257.369439 135.453484 
L 259.37346 140.885791 
L 261.283984 145.455783 
L 262.672334 148.180715 
L 263.467944 149.434117 
L 264.417032 150.638114 
L 265.281442 151.429823 
L 265.950038 151.795969 
L 266.532192 151.93883 
L 268.541505 152.115462 
L 269.539988 152.745022 
L 270.201526 153.488089 
L 271.341137 155.193034 
L 272.337856 157.327975 
L 274.805836 164.027567 
L 277.231478 171.769222 
L 278.678043 176.389817 
L 280.02229 180.375186 
L 281.255398 183.34265 
L 282.082762 184.742876 
L 282.793696 185.475721 
L 283.525799 186.029295 
L 285.609205 186.995606 
L 286.000836 187.531757 
L 286.530067 188.686866 
L 287.145739 190.547079 
L 287.754354 193.064409 
L 288.692857 198.238792 
L 290.040632 206.795948 
L 291.284325 214.087663 
L 292.307505 218.612522 
L 293.348326 222.337629 
L 293.985167 223.929844 
L 294.951896 225.674081 
L 295.646952 226.49663 
L 297.298153 228.097205 
L 298.241948 229.322511 
L 298.9176 230.675788 
L 300.224801 233.10492 
L 301.226811 234.871999 
L 302.02595 236.319755 
L 303.733602 238.813395 
L 304.370443 240.291102 
L 305.818772 244.102089 
L 307.706363 250.292975 
L 308.972989 255.447406 
L 309.897379 259.983686 
L 311.192231 266.995565 
L 311.192231 266.995565 
" style="fill:none;stroke:#98df8a;stroke-linecap:square;stroke-width:2;"/>
   </g>
   <g id="line2d_28">
    <path clip-path="url(#p7828b08348)" d="M 150.882872 259.952699 
L 151.600862 256.615418 
L 152.153026 254.99794 
L 152.742237 253.908521 
L 153.227365 253.440285 
L 154.236432 252.818915 
L 155.335468 252.194789 
L 155.878812 251.440471 
L 156.295141 250.494623 
L 156.8279 248.676986 
L 157.519428 245.453337 
L 158.214485 241.085967 
L 160.070322 229.239487 
L 160.811245 226.202354 
L 161.455143 224.469944 
L 162.136087 223.180943 
L 162.64062 222.64196 
L 163.05342 222.549268 
L 163.441523 222.69244 
L 163.926651 223.143089 
L 164.925134 223.987831 
L 165.500232 224.235325 
L 165.826591 224.111967 
L 166.209401 223.700253 
L 167.013832 222.480395 
L 168.319269 219.585328 
L 169.2613 217.209063 
L 172.406696 209.81529 
L 173.149384 208.670783 
L 174.788235 206.883234 
L 175.779662 206.151473 
L 177.060401 205.365215 
L 178.161201 204.684355 
L 179.323745 204.689856 
L 180.149345 204.884631 
L 180.757961 204.949827 
L 182.319192 204.362279 
L 183.730475 203.238116 
L 184.815399 202.591827 
L 185.676281 202.296065 
L 187.076979 201.774641 
L 187.433328 201.295593 
L 188.239523 199.64586 
L 188.82697 197.963509 
L 190.906847 191.187726 
L 192.025289 187.892894 
L 193.979915 182.651368 
L 194.916654 180.87129 
L 197.155301 178.004629 
L 198.09204 177.182627 
L 198.832963 176.89905 
L 199.589764 176.909248 
L 200.118995 177.074648 
L 200.762892 177.535284 
L 201.389149 178.275369 
L 202.366462 180.004723 
L 204.363427 183.702775 
L 205.407776 185.08226 
L 206.333931 185.896884 
L 207.972783 186.756237 
L 208.609624 186.804619 
L 209.048886 186.729121 
L 210.678917 186.171159 
L 211.151697 185.942057 
L 213.951329 184.052963 
L 214.415288 184.06664 
L 214.898652 184.326462 
L 215.519617 184.947225 
L 216.167042 185.806559 
L 217.814715 188.174314 
L 218.792028 189.239542 
L 219.758757 189.844543 
L 220.646101 189.922792 
L 221.113588 189.646665 
L 221.939188 188.963999 
L 223.054102 187.846769 
L 223.849712 187.494384 
L 224.18842 187.601338 
L 224.560646 187.973118 
L 225.119867 188.914102 
L 225.696728 190.408854 
L 226.656401 193.615476 
L 227.600196 197.626179 
L 228.739807 202.309209 
L 229.584812 204.774523 
L 230.918474 207.946084 
L 232.105716 210.101416 
L 234.864773 213.847389 
L 236.004384 214.964365 
L 236.967584 215.527202 
L 237.671462 215.704638 
L 238.415913 215.675949 
L 239.245042 215.632309 
L 239.69136 215.923735 
L 240.329965 216.60593 
L 240.956222 217.678744 
L 241.651279 219.315392 
L 242.238725 221.395186 
L 242.785597 224.130687 
L 243.745269 230.373278 
L 247.966769 257.974223 
L 248.660061 260.830952 
L 249.42039 263.089196 
L 250.200123 264.65787 
L 251.189785 266.260079 
L 251.865437 267.434176 
L 252.805704 269.56471 
L 254.331653 273.620603 
L 254.460433 274.045937 
L 254.460433 274.045937 
" style="fill:none;stroke:#e377c2;stroke-linecap:square;stroke-width:2;"/>
   </g>
   <g id="line2d_29">
    <path clip-path="url(#p7828b08348)" d="M 207.963962 279.126785 
" style="fill:none;stroke:#17becf;stroke-linecap:square;stroke-width:2;"/>
   </g>
   <g id="line2d_30">
    <path clip-path="url(#p7828b08348)" d="M 162.585933 242.894632 
L 163.524436 233.057708 
L 164.17539 228.332533 
L 164.699329 226.005638 
L 165.135062 224.928009 
L 165.445544 224.650681 
L 165.674878 224.712384 
L 165.981832 225.086843 
L 166.38934 225.961796 
L 166.90975 227.659203 
L 167.590694 230.715043 
L 169.007269 237.322653 
L 169.513567 238.694925 
L 169.899905 239.185515 
L 170.176869 239.22912 
L 170.437957 239.028647 
L 170.760788 238.460917 
L 171.335885 236.86077 
L 171.859824 234.808183 
L 172.531947 231.169654 
L 174.251948 221.43264 
L 174.879969 219.012298 
L 175.421549 217.807235 
L 175.970185 217.145088 
L 177.824257 215.238931 
L 178.314678 214.153871 
L 180.623889 207.710089 
L 181.957551 203.533109 
L 183.569942 198.40432 
L 184.766004 195.234082 
L 185.720384 193.226282 
L 186.41544 192.307246 
L 186.967605 191.91392 
L 188.320672 191.464249 
L 188.759934 191.609513 
L 189.155093 191.968109 
L 189.744303 192.936106 
L 190.225903 194.198243 
L 190.936837 196.648499 
L 193.452448 206.48971 
L 193.889946 207.148911 
L 194.293926 207.414205 
L 194.623813 207.368404 
L 194.976634 207.07998 
L 195.400018 206.417633 
L 196.042152 204.916016 
L 196.696634 202.78097 
L 197.740983 198.357338 
L 199.034071 193.044888 
L 200.448882 188.430155 
L 201.043385 187.273048 
L 201.650236 186.487448 
L 202.004821 186.371689 
L 202.325888 186.501586 
L 203.07916 187.181129 
L 203.610155 187.90948 
L 205.621233 191.169087 
L 206.489172 191.998526 
L 207.170116 192.374617 
L 207.755798 192.430104 
L 208.315019 192.264665 
L 208.851306 191.788412 
L 209.516373 190.934967 
L 210.045604 189.776918 
L 211.576846 185.839048 
L 212.845236 182.525419 
L 213.667308 180.871006 
L 215.560191 177.71022 
L 216.551617 175.740538 
L 217.710633 172.852022 
L 218.929628 169.936242 
L 219.442982 169.161485 
L 219.801095 168.981005 
L 220.108049 169.068241 
L 220.444993 169.418449 
L 220.856029 170.178823 
L 221.367619 171.635209 
L 221.953301 174.099718 
L 222.768317 178.448736 
L 223.627435 184.472112 
L 224.565938 192.82168 
L 226.696975 214.443923 
L 228.665714 233.556359 
L 229.86354 242.992498 
L 230.983746 249.841041 
L 232.186864 255.943648 
L 234.822435 268.804894 
L 234.822435 268.804894 
" style="fill:none;stroke:#17becf;stroke-linecap:square;stroke-width:2;"/>
   </g>
   <g id="line2d_31">
    <path clip-path="url(#p7828b08348)" d="M 0 0 
" style="fill:none;stroke:#9edae5;stroke-linecap:square;stroke-width:2;"/>
   </g>
   <g id="line2d_32">
    <path clip-path="url(#p7828b08348)" d="M 149.051732 266.699318 
L 150.937559 254.786452 
L 154.021211 233.384951 
L 155.289602 225.571372 
L 156.288084 220.49176 
L 156.960208 218.226872 
L 157.468269 217.203713 
L 158.098054 216.497522 
L 159.05949 215.872156 
L 159.52345 215.726174 
L 159.976824 215.82255 
L 160.707163 215.932052 
L 161.098794 215.816181 
L 161.463963 215.431257 
L 161.950856 214.546887 
L 162.504784 213.107559 
L 163.300395 210.328547 
L 164.637585 204.829476 
L 165.861873 200.283095 
L 166.62573 198.401899 
L 167.17613 197.564517 
L 167.625976 197.246997 
L 168.014079 197.232342 
L 169.303638 197.549203 
L 170.199803 197.734272 
L 170.660234 197.494235 
L 171.173588 197.062991 
L 171.671065 196.274463 
L 172.37847 194.790453 
L 173.687435 191.188722 
L 174.497158 188.254329 
L 177.624914 177.082888 
L 178.55636 174.90635 
L 179.191437 173.835864 
L 180.482761 172.346805 
L 181.617079 171.5544 
L 183.531131 170.640795 
L 184.686619 170.310658 
L 186.180815 169.862599 
L 186.803543 170.003603 
L 187.433328 170.37615 
L 188.352426 171.207675 
L 190.626355 173.442423 
L 191.485473 173.712994 
L 192.372817 173.525482 
L 193.452448 172.826771 
L 194.696141 171.591659 
L 196.633127 169.617395 
L 197.575158 169.207002 
L 198.238461 169.200067 
L 198.864717 169.436906 
L 200.466523 170.173124 
L 200.916369 170.055194 
L 202.107139 169.573504 
L 202.706934 169.506529 
L 203.160309 169.655386 
L 203.716001 170.052589 
L 204.419879 171.022722 
L 205.040843 172.248719 
L 206.124002 174.757721 
L 207.10308 177.344778 
L 208.868947 181.880461 
L 209.54107 182.95875 
L 209.969748 183.359186 
L 210.393132 183.441997 
L 210.894138 183.358544 
L 211.523923 182.857504 
L 212.065502 182.204069 
L 215.068006 178.107505 
L 216.943248 176.480531 
L 218.679126 174.177364 
L 219.245403 173.591049 
L 219.935167 173.285974 
L 220.319742 173.346896 
L 220.723721 173.650582 
L 221.533445 174.661802 
L 222.097958 175.848742 
L 222.854758 178.197033 
L 223.496892 180.902149 
L 224.551825 186.449242 
L 226.70756 198.075369 
L 228.284668 205.332941 
L 229.434863 209.801298 
L 230.551541 213.339267 
L 233.042455 219.904381 
L 233.705757 220.941004 
L 234.499604 221.879784 
L 234.905348 222.003858 
L 235.434579 221.93191 
L 235.829738 221.59636 
L 236.306046 220.870554 
L 238.929267 216.376484 
L 239.234457 216.338522 
L 239.585514 216.556337 
L 240.118273 217.143768 
L 240.696899 218.121043 
L 241.183791 219.472286 
L 241.834745 222.011162 
L 243.332469 228.82105 
L 244.369762 233.07496 
L 245.318849 236.270231 
L 245.807506 237.183917 
L 246.324388 237.736128 
L 246.795404 237.922711 
L 248.398974 238.514172 
L 249.556226 239.614102 
L 250.094277 240.526682 
L 250.782277 242.173485 
L 251.50556 244.463933 
L 253.860638 253.081142 
L 256.065767 260.060965 
L 257.836926 264.853775 
L 258.828353 266.798094 
L 260.668312 269.995451 
L 263.78019 276.522112 
L 263.78019 276.522112 
" style="fill:none;stroke:#f7b6d2;stroke-linecap:square;stroke-width:2;"/>
   </g>
   <g id="line2d_33">
    <path clip-path="url(#p7828b08348)" d="M 146.068634 259.518093 
L 147.859199 244.390872 
L 149.108184 235.932445 
L 149.923199 231.857522 
L 150.745272 228.727644 
L 151.465026 226.851613 
L 154.887386 218.583191 
L 155.850587 215.453228 
L 157.491203 209.559549 
L 161.081153 196.682412 
L 162.312497 193.659912 
L 163.076354 192.453268 
L 164.369441 191.029672 
L 165.346755 190.096646 
L 166.976786 188.553389 
L 171.013054 185.376485 
L 171.656952 184.854666 
L 172.457855 184.499199 
L 173.115866 184.54646 
L 173.622163 184.793183 
L 175.012277 185.639977 
L 176.095436 185.950027 
L 176.615846 185.819566 
L 177.127436 185.452922 
L 177.764278 184.693398 
L 178.397591 183.590786 
L 179.302576 181.38928 
L 181.225448 176.044402 
L 181.9699 174.491622 
L 182.994844 173.022051 
L 183.629921 172.585968 
L 184.01626 172.516097 
L 184.45905 172.691382 
L 184.852445 173.025638 
L 185.45224 173.895179 
L 186.688876 175.926925 
L 187.733225 177.358363 
L 188.303031 177.743274 
L 188.756405 177.805573 
L 189.234477 177.615354 
L 189.765472 177.149116 
L 190.405842 176.268279 
L 191.164406 175.251721 
L 192.099381 174.276454 
L 192.683299 174.080794 
L 193.089043 174.208974 
L 193.531833 174.596975 
L 194.103402 175.431739 
L 195.588777 177.923261 
L 196.788368 180.026906 
L 197.333476 180.734092 
L 197.970317 181.201162 
L 198.342543 181.182391 
L 198.838256 180.907513 
L 199.284574 180.337638 
L 199.859672 179.269436 
L 200.531795 177.485277 
L 201.366216 174.608932 
L 203.21676 168.00337 
L 204.010607 166.033139 
L 204.605109 165.092969 
L 205.418361 164.33101 
L 206.139879 164.109521 
L 206.69028 164.077719 
L 207.688762 164.207768 
L 208.44027 164.501734 
L 209.849789 165.453288 
L 210.631286 166.153309 
L 211.742671 166.939515 
L 212.471246 167.254982 
L 213.42739 167.376843 
L 214.298857 167.171083 
L 216.241135 166.39644 
L 218.989608 166.07351 
L 220.023372 166.317744 
L 221.104768 166.974663 
L 222.039742 167.967599 
L 224.662964 171.328221 
L 225.259231 171.821756 
L 226.312401 172.682203 
L 227.73074 174.162158 
L 229.650084 176.284441 
L 230.29751 176.749706 
L 231.258946 177.080542 
L 231.800526 177.248254 
L 232.671993 177.820272 
L 233.33706 178.518714 
L 233.797491 179.373073 
L 234.589573 181.287001 
L 235.93382 185.314449 
L 239.991257 198.794634 
L 240.982684 200.549966 
L 242.000571 201.882129 
L 242.699156 202.783179 
L 243.334233 203.936477 
L 244.214521 205.996401 
L 244.897229 208.335246 
L 245.530542 211.383027 
L 247.16763 220.59577 
L 248.111425 225.519071 
L 248.783548 228.055371 
L 249.520944 230.049414 
L 250.096041 231.021712 
L 251.27799 232.471761 
L 252.071837 233.217613 
L 253.172637 234.130931 
L 253.705397 234.980503 
L 254.194053 236.28193 
L 255.682956 241.38431 
L 256.796106 246.022089 
L 258.136824 252.400302 
L 261.328087 268.716308 
L 261.328087 268.716308 
" style="fill:none;stroke:#7f7f7f;stroke-linecap:square;stroke-width:2;"/>
   </g>
   <g id="line2d_34">
    <path clip-path="url(#p7828b08348)" d="M 76.280707 254.609549 
L 78.171826 235.498665 
L 79.08916 228.256201 
L 79.907704 223.354176 
L 80.645099 220.295464 
L 81.283704 218.471365 
L 82.130474 216.745671 
L 82.762023 215.916787 
L 83.368874 215.491261 
L 83.822249 215.334265 
L 84.249162 215.422276 
L 85.057121 215.587656 
L 85.565183 215.504382 
L 86.438414 214.901875 
L 86.842394 214.387224 
L 87.645061 212.858758 
L 88.281902 211.260663 
L 89.458559 207.763869 
L 90.338846 204.418269 
L 92.046498 197.328581 
L 94.440387 187.520188 
L 95.198951 185.501173 
L 95.789926 184.378997 
L 96.476162 183.514703 
L 97.299998 182.382896 
L 98.234973 180.638948 
L 99.362235 177.626572 
L 101.470338 170.50892 
L 104.860945 158.166056 
L 105.55953 156.57699 
L 106.094053 155.813298 
L 106.614463 155.461503 
L 106.981397 155.416069 
L 107.418895 155.622191 
L 108.360926 156.278229 
L 109.361172 156.954362 
L 110.155019 157.280421 
L 110.705419 157.342544 
L 111.282281 157.227995 
L 112.18903 156.632801 
L 113.245728 155.597782 
L 113.773195 154.871509 
L 115.240929 152.100118 
L 117.222017 147.442938 
L 119.749977 141.2561 
L 121.981567 135.389068 
L 124.027927 129.861964 
L 125.001712 127.874246 
L 125.691477 126.921291 
L 126.891067 125.792475 
L 128.016565 125.121753 
L 131.932874 123.259045 
L 133.001921 123.044551 
L 133.786947 122.575552 
L 135.48225 120.948151 
L 136.447214 119.795701 
L 138.678805 116.792055 
L 139.772549 114.709876 
L 141.741288 110.659372 
L 142.656858 109.158338 
L 143.394253 108.332619 
L 144.173987 107.847123 
L 146.0457 107.152376 
L 146.948921 106.964101 
L 147.483445 107.019623 
L 148.511917 107.295451 
L 149.466297 107.398523 
L 150.145476 107.303533 
L 150.828184 106.961089 
L 151.650257 106.166789 
L 152.276513 105.29007 
L 153.07918 103.924399 
L 155.169643 100.384255 
L 156.503305 98.719173 
L 159.084188 96.164252 
L 160.102076 95.593625 
L 161.640374 94.778687 
L 162.413051 93.984089 
L 163.261585 92.780096 
L 164.148928 91.155049 
L 166.87976 85.586353 
L 167.800622 84.382299 
L 168.463925 83.918877 
L 169.208377 83.745791 
L 169.914018 83.812666 
L 170.478531 84.039304 
L 173.345199 85.040894 
L 173.930881 84.83633 
L 174.546553 84.258322 
L 175.24161 83.225747 
L 176.010759 81.722413 
L 177.300319 78.522705 
L 179.838863 72.347166 
L 180.735028 70.913482 
L 181.846413 69.657235 
L 183.305326 68.507478 
L 184.392014 68.068305 
L 185.72744 67.886969 
L 188.135441 67.695445 
L 190.328221 67.069929 
L 191.494294 66.769524 
L 193.043176 66.517937 
L 194.106931 66.704767 
L 195.599362 67.354171 
L 196.947137 67.933792 
L 197.626317 68.00741 
L 198.478379 67.904049 
L 199.843795 67.449308 
L 201.140411 66.972 
L 202.188288 66.855956 
L 203.440801 67.077047 
L 204.215243 67.370445 
L 206.182218 68.509966 
L 207.074854 68.954298 
L 207.762854 69.068123 
L 208.447326 68.929618 
L 209.232352 68.531744 
L 210.58542 67.631145 
L 211.682692 67.001774 
L 214.782221 65.471161 
L 215.854796 65.298127 
L 217.022633 65.303408 
L 218.619146 65.565977 
L 221.044788 66.250241 
L 222.942963 67.125588 
L 224.230759 68.072348 
L 225.045774 68.887295 
L 226.280647 70.542591 
L 227.15917 72.107222 
L 229.65714 76.805498 
L 234.958271 85.944248 
L 236.367789 87.884477 
L 237.664405 89.161577 
L 238.546457 89.669029 
L 239.264447 89.765233 
L 240.183545 89.628265 
L 242.058787 89.099243 
L 242.676223 89.243828 
L 243.38892 89.672387 
L 244.085741 90.333244 
L 244.849598 91.330357 
L 248.46601 96.531138 
L 249.789087 97.638294 
L 251.913068 98.865596 
L 252.936247 99.575022 
L 253.742443 100.351498 
L 255.982854 103.155066 
L 258.44907 106.005543 
L 260.047348 107.224037 
L 261.345728 107.839621 
L 262.400662 108.024032 
L 264.438201 108.362087 
L 265.145606 108.865879 
L 265.84772 109.76636 
L 266.645094 111.253104 
L 267.544787 113.443847 
L 268.469177 116.358708 
L 269.370634 119.883319 
L 272.041486 130.639258 
L 272.955292 133.288626 
L 273.696215 134.787462 
L 274.313651 135.544803 
L 274.902862 135.935228 
L 275.569693 136.078559 
L 276.262985 136.034942 
L 278.471643 135.850788 
L 279.856464 136.196065 
L 282.617286 137.099934 
L 283.093593 137.095506 
L 285.166415 136.891433 
L 285.762682 137.010213 
L 286.447154 137.391106 
L 287.168672 138.066953 
L 287.819626 138.948703 
L 288.558785 140.263423 
L 289.31735 141.970402 
L 290.531053 145.422634 
L 291.748284 149.602167 
L 293.956942 156.969706 
L 295.220039 159.832362 
L 296.010358 161.105711 
L 296.663076 161.757648 
L 297.566297 162.225681 
L 298.266646 162.450562 
L 298.933477 162.891504 
L 299.524452 163.498277 
L 300.350052 164.816375 
L 301.138606 166.752914 
L 302.16355 170.033038 
L 305.483592 181.303197 
L 306.081623 182.594837 
L 307.034239 183.917287 
L 307.979799 184.788034 
L 308.597235 185.204312 
L 309.232312 185.591449 
L 309.680394 186.112587 
L 310.123184 187.048575 
L 310.587143 188.552258 
L 311.296313 191.631803 
L 312.077811 196.215706 
L 314.662222 211.49959 
L 315.618366 215.829227 
L 316.856766 220.180908 
L 318.569711 225.614987 
L 319.989814 229.851823 
L 321.048276 234.265586 
L 322.383702 240.48366 
L 324.551785 251.207443 
L 325.373857 253.496223 
L 326.081263 254.821457 
L 327.668956 257.8069 
L 328.519253 260.244228 
L 329.388956 263.351112 
L 330.23749 267.392259 
L 330.23749 267.392259 
" style="fill:none;stroke:#1f77b4;stroke-linecap:square;stroke-width:2;"/>
   </g>
   <g id="line2d_35">
    <path clip-path="url(#p7828b08348)" d="M 70.586182 268.864378 
L 71.98688 258.31598 
L 73.645137 243.890424 
L 77.028687 214.45214 
L 78.083621 207.346896 
L 78.72399 204.366997 
L 79.353775 202.514928 
L 79.84596 201.670103 
L 80.274637 201.349452 
L 80.821509 201.19168 
L 81.632997 201.257319 
L 83.017818 201.509952 
L 84.256218 201.097517 
L 84.894824 200.419845 
L 85.672793 199.249258 
L 91.887729 188.082848 
L 93.766499 184.134466 
L 96.245064 178.024196 
L 98.861229 171.334301 
L 99.83325 168.225925 
L 100.88642 164.20513 
L 102.946893 154.735649 
L 104.442852 148.320753 
L 105.316083 145.344787 
L 106.094053 143.337221 
L 106.794402 142.11148 
L 107.380084 141.50737 
L 107.925192 141.161101 
L 108.849582 141.033113 
L 110.054465 141.237953 
L 111.95264 141.462462 
L 113.078138 141.207885 
L 113.896682 140.698736 
L 114.748744 139.717373 
L 115.574344 138.343444 
L 116.414057 136.516376 
L 119.727043 128.746606 
L 121.1101 126.466054 
L 122.059188 125.43172 
L 122.60606 125.061658 
L 123.329342 124.807609 
L 124.102019 124.788693 
L 125.250451 124.981543 
L 126.183661 125.100455 
L 126.809918 124.990027 
L 127.284462 124.731603 
L 127.827806 124.195536 
L 128.538739 123.082878 
L 129.263786 121.470272 
L 130.140545 119.029693 
L 134.545511 105.882597 
L 135.424034 104.284892 
L 136.30785 103.102527 
L 138.21661 101.247362 
L 140.181821 99.361854 
L 141.908878 97.895424 
L 143.124345 97.184114 
L 145.246562 96.086433 
L 147.125332 94.765277 
L 147.938583 94.358462 
L 150.126071 93.806772 
L 151.087508 93.507684 
L 153.036842 92.67093 
L 153.843037 92.022223 
L 154.568083 91.191616 
L 155.633602 89.485995 
L 159.368209 82.654757 
L 160.368455 81.5941 
L 161.728579 80.556189 
L 163.210426 79.37119 
L 165.029216 77.687035 
L 166.100027 76.441046 
L 169.358326 72.495584 
L 170.160993 72.033254 
L 170.852521 71.889749 
L 171.637547 71.965397 
L 172.833609 72.084384 
L 173.911476 71.925288 
L 174.580071 71.517748 
L 175.181631 70.902029 
L 175.917262 69.838761 
L 176.9228 67.927471 
L 178.164729 65.064918 
L 179.706555 61.688076 
L 180.724443 59.968464 
L 181.567684 58.999172 
L 182.183356 58.530868 
L 182.922516 58.168758 
L 184.259706 57.781752 
L 185.801532 57.216309 
L 187.036405 56.777644 
L 188.694662 56.523698 
L 189.564365 56.626294 
L 192.716817 57.253837 
L 193.38012 57.094987 
L 194.156326 56.704627 
L 195.011916 56.094216 
L 197.268204 54.242048 
L 198.16084 53.707405 
L 198.912348 53.568806 
L 199.52802 53.704304 
L 200.394195 54.1815 
L 201.595549 55.185118 
L 204.280514 57.66602 
L 205.716495 58.655338 
L 207.044864 59.253421 
L 208.098034 59.520764 
L 209.447573 59.661477 
L 210.490158 59.498118 
L 211.927902 59.048467 
L 213.520887 58.291098 
L 214.861606 57.80676 
L 216.075309 57.624553 
L 218.837895 57.398787 
L 220.434408 56.734481 
L 221.406429 56.472763 
L 222.207332 56.526767 
L 222.916502 56.779927 
L 223.551579 57.230653 
L 224.211353 58.005617 
L 225.238062 59.626448 
L 226.340626 61.930656 
L 229.41193 68.728628 
L 230.242823 69.862147 
L 231.087828 70.612961 
L 231.994577 71.055791 
L 234.783625 72.272243 
L 235.842087 73.161566 
L 236.925246 74.406756 
L 240.187073 78.287865 
L 243.939321 82.150399 
L 245.743998 84.487368 
L 248.614194 88.665315 
L 249.672656 89.677564 
L 250.457682 90.142723 
L 251.703139 90.555271 
L 253.18675 91.076111 
L 254.211694 91.718607 
L 255.383059 92.870262 
L 256.7767 94.599276 
L 257.939244 96.439824 
L 259.731573 99.240356 
L 260.581871 100.081353 
L 261.238118 100.443163 
L 261.756764 100.534894 
L 262.534734 100.461658 
L 263.632006 100.125561 
L 264.418796 99.92634 
L 265.089155 100.022242 
L 265.840663 100.478178 
L 266.518079 101.209536 
L 267.174325 102.224533 
L 267.904664 103.71114 
L 268.961362 106.33056 
L 271.311147 112.24885 
L 272.126163 113.558366 
L 272.704789 114.144286 
L 273.175805 114.40986 
L 273.803825 114.513268 
L 274.668236 114.338948 
L 275.470903 114.03042 
L 276.370596 113.765963 
L 277.210309 113.74706 
L 277.732483 113.921079 
L 278.325222 114.303052 
L 279.071438 115.046317 
L 279.817654 116.083897 
L 280.523295 117.335313 
L 281.3683 119.132969 
L 286.270743 130.141813 
L 287.625575 132.245738 
L 289.795422 135.63925 
L 290.788612 137.88557 
L 292.441577 142.413155 
L 296.324368 153.942501 
L 297.338728 155.873728 
L 297.991446 156.655499 
L 298.80999 157.154683 
L 299.778482 157.386791 
L 300.612903 157.595319 
L 301.075098 157.830694 
L 301.680186 158.471548 
L 302.225294 159.292863 
L 302.856843 160.666127 
L 303.72831 163.11141 
L 305.042567 167.549161 
L 306.42386 172.948076 
L 307.514075 176.727548 
L 308.842445 180.546461 
L 309.740374 182.609675 
L 311.490364 186.129137 
L 313.072765 189.126045 
L 314.877443 193.01013 
L 315.851228 195.831822 
L 317.140787 200.215846 
L 319.054839 208.371166 
L 321.016522 218.600061 
L 322.657138 228.593693 
L 325.470883 246.440508 
L 327.263212 255.646934 
L 329.711787 268.311658 
L 330.309818 271.424324 
L 330.309818 271.424324 
" style="fill:none;stroke:#1f77b4;stroke-linecap:square;stroke-width:2;"/>
   </g>
   <g id="line2d_36">
    <path clip-path="url(#p7828b08348)" d="M 157.662321 255.672866 
L 158.629049 248.961373 
L 159.486403 244.629397 
L 160.162055 242.207629 
L 160.754794 240.877219 
L 161.391635 239.915978 
L 161.894404 239.52076 
L 162.316025 239.453858 
L 162.721769 239.619576 
L 163.628518 240.070227 
L 163.967226 240.03389 
L 164.318282 239.756923 
L 164.739903 239.112593 
L 165.40497 237.623487 
L 166.006529 235.645015 
L 166.837422 231.829665 
L 167.664786 227.018352 
L 168.463925 221.095263 
L 169.686449 210.041364 
L 173.523373 173.829116 
L 174.987579 163.127464 
L 176.693467 152.808884 
L 178.607519 141.512404 
L 180.144053 134.068198 
L 181.094905 130.603173 
L 181.805838 128.782765 
L 182.28391 128.022845 
L 182.654372 127.801465 
L 182.959562 127.863715 
L 183.285921 128.178912 
L 183.633449 128.835926 
L 184.143275 130.293862 
L 184.642516 132.429557 
L 185.473409 137.022594 
L 188.474149 154.924641 
L 189.465575 159.174487 
L 190.141226 161.292691 
L 190.651052 162.330414 
L 191.176755 162.960283 
L 191.621309 163.10282 
L 191.896509 162.992622 
L 192.277556 162.542631 
L 192.683299 161.764445 
L 193.388941 159.811994 
L 194.51091 155.786899 
L 197.026522 145.8916 
L 198.850604 138.002713 
L 201.210975 127.593063 
L 201.736677 126.415123 
L 202.197108 125.834996 
L 202.555221 125.738733 
L 202.923919 125.840419 
L 203.237929 126.205588 
L 203.742463 127.223057 
L 204.23994 128.757173 
L 204.869725 131.415759 
L 205.963469 137.205549 
L 208.563757 152.513711 
L 209.147675 154.386972 
L 209.706896 155.44219 
L 210.084414 155.736371 
L 210.474281 155.790894 
L 210.795348 155.582172 
L 211.225789 155.042947 
L 211.813236 153.790621 
L 214.201831 148.157727 
L 214.859842 147.486551 
L 215.390837 147.237294 
L 216.541032 146.914824 
L 217.94173 146.648346 
L 218.393341 146.358038 
L 218.993136 145.765182 
L 220.226244 143.995583 
L 221.743373 141.248406 
L 222.189691 141.033183 
L 222.586614 141.094024 
L 222.944727 141.370592 
L 223.385753 142.100541 
L 223.934389 143.410976 
L 224.624154 145.855653 
L 225.377426 149.318807 
L 226.44118 155.253412 
L 229.38194 171.93031 
L 230.001141 173.944003 
L 230.558597 175.046579 
L 231.137223 175.676881 
L 231.648813 175.820235 
L 232.476177 175.808577 
L 233.248855 175.800315 
L 234.088568 175.918038 
L 234.489019 176.253566 
L 234.896527 176.967895 
L 235.745061 178.943441 
L 236.325451 180.8551 
L 236.861738 183.398016 
L 237.502108 187.564005 
L 238.548221 196.399907 
L 239.744283 208.612048 
L 242.526274 238.220368 
L 243.581208 246.169249 
L 245.059526 255.442443 
L 246.476101 262.802382 
L 247.905025 269.642476 
L 247.905025 269.642476 
" style="fill:none;stroke:#bcbd22;stroke-linecap:square;stroke-width:2;"/>
   </g>
   <g id="patch_3">
    <path d="M 57.6 307.584 
L 57.6 41.472 
" style="fill:none;stroke:#000000;stroke-linecap:square;stroke-linejoin:miter;stroke-width:0.8;"/>
   </g>
   <g id="patch_4">
    <path d="M 343.296 307.584 
L 343.296 41.472 
" style="fill:none;stroke:#000000;stroke-linecap:square;stroke-linejoin:miter;stroke-width:0.8;"/>
   </g>
   <g id="patch_5">
    <path d="M 57.6 307.584 
L 343.296 307.584 
" style="fill:none;stroke:#000000;stroke-linecap:square;stroke-linejoin:miter;stroke-width:0.8;"/>
   </g>
   <g id="patch_6">
    <path d="M 57.6 41.472 
L 343.296 41.472 
" style="fill:none;stroke:#000000;stroke-linecap:square;stroke-linejoin:miter;stroke-width:0.8;"/>
   </g>
  </g>
  <g id="axes_2">
   <g id="patch_7">
    <path clip-path="url(#pfd61f8060b)" d="M 361.152 307.584 
L 361.152 294.2784 
L 361.152 54.7776 
L 361.152 41.472 
L 374.4576 41.472 
L 374.4576 54.7776 
L 374.4576 294.2784 
L 374.4576 307.584 
z
" style="fill:#ffffff;stroke:#ffffff;stroke-linejoin:miter;stroke-width:0.01;"/>
   </g>
   <g id="QuadMesh_1">
    <path clip-path="url(#pfd61f8060b)" d="M 361.152 307.584 
L 374.4576 307.584 
L 374.4576 294.2784 
L 361.152 294.2784 
L 361.152 307.584 
" style="fill:#1f77b4;"/>
    <path clip-path="url(#pfd61f8060b)" d="M 361.152 294.2784 
L 374.4576 294.2784 
L 374.4576 280.9728 
L 361.152 280.9728 
L 361.152 294.2784 
" style="fill:#aec7e8;"/>
    <path clip-path="url(#pfd61f8060b)" d="M 361.152 280.9728 
L 374.4576 280.9728 
L 374.4576 267.6672 
L 361.152 267.6672 
L 361.152 280.9728 
" style="fill:#ff7f0e;"/>
    <path clip-path="url(#pfd61f8060b)" d="M 361.152 267.6672 
L 374.4576 267.6672 
L 374.4576 254.3616 
L 361.152 254.3616 
L 361.152 267.6672 
" style="fill:#ffbb78;"/>
    <path clip-path="url(#pfd61f8060b)" d="M 361.152 254.3616 
L 374.4576 254.3616 
L 374.4576 241.056 
L 361.152 241.056 
L 361.152 254.3616 
" style="fill:#2ca02c;"/>
    <path clip-path="url(#pfd61f8060b)" d="M 361.152 241.056 
L 374.4576 241.056 
L 374.4576 227.7504 
L 361.152 227.7504 
L 361.152 241.056 
" style="fill:#98df8a;"/>
    <path clip-path="url(#pfd61f8060b)" d="M 361.152 227.7504 
L 374.4576 227.7504 
L 374.4576 214.4448 
L 361.152 214.4448 
L 361.152 227.7504 
" style="fill:#d62728;"/>
    <path clip-path="url(#pfd61f8060b)" d="M 361.152 214.4448 
L 374.4576 214.4448 
L 374.4576 201.1392 
L 361.152 201.1392 
L 361.152 214.4448 
" style="fill:#ff9896;"/>
    <path clip-path="url(#pfd61f8060b)" d="M 361.152 201.1392 
L 374.4576 201.1392 
L 374.4576 187.8336 
L 361.152 187.8336 
L 361.152 201.1392 
" style="fill:#9467bd;"/>
    <path clip-path="url(#pfd61f8060b)" d="M 361.152 187.8336 
L 374.4576 187.8336 
L 374.4576 174.528 
L 361.152 174.528 
L 361.152 187.8336 
" style="fill:#c5b0d5;"/>
    <path clip-path="url(#pfd61f8060b)" d="M 361.152 174.528 
L 374.4576 174.528 
L 374.4576 161.2224 
L 361.152 161.2224 
L 361.152 174.528 
" style="fill:#8c564b;"/>
    <path clip-path="url(#pfd61f8060b)" d="M 361.152 161.2224 
L 374.4576 161.2224 
L 374.4576 147.9168 
L 361.152 147.9168 
L 361.152 161.2224 
" style="fill:#c49c94;"/>
    <path clip-path="url(#pfd61f8060b)" d="M 361.152 147.9168 
L 374.4576 147.9168 
L 374.4576 134.6112 
L 361.152 134.6112 
L 361.152 147.9168 
" style="fill:#e377c2;"/>
    <path clip-path="url(#pfd61f8060b)" d="M 361.152 134.6112 
L 374.4576 134.6112 
L 374.4576 121.3056 
L 361.152 121.3056 
L 361.152 134.6112 
" style="fill:#f7b6d2;"/>
    <path clip-path="url(#pfd61f8060b)" d="M 361.152 121.3056 
L 374.4576 121.3056 
L 374.4576 108 
L 361.152 108 
L 361.152 121.3056 
" style="fill:#7f7f7f;"/>
    <path clip-path="url(#pfd61f8060b)" d="M 361.152 108 
L 374.4576 108 
L 374.4576 94.6944 
L 361.152 94.6944 
L 361.152 108 
" style="fill:#c7c7c7;"/>
    <path clip-path="url(#pfd61f8060b)" d="M 361.152 94.6944 
L 374.4576 94.6944 
L 374.4576 81.3888 
L 361.152 81.3888 
L 361.152 94.6944 
" style="fill:#bcbd22;"/>
    <path clip-path="url(#pfd61f8060b)" d="M 361.152 81.3888 
L 374.4576 81.3888 
L 374.4576 68.0832 
L 361.152 68.0832 
L 361.152 81.3888 
" style="fill:#dbdb8d;"/>
    <path clip-path="url(#pfd61f8060b)" d="M 361.152 68.0832 
L 374.4576 68.0832 
L 374.4576 54.7776 
L 361.152 54.7776 
L 361.152 68.0832 
" style="fill:#17becf;"/>
    <path clip-path="url(#pfd61f8060b)" d="M 361.152 54.7776 
L 374.4576 54.7776 
L 374.4576 41.472 
L 361.152 41.472 
L 361.152 54.7776 
" style="fill:#9edae5;"/>
   </g>
   <g id="matplotlib.axis_3"/>
   <g id="matplotlib.axis_4">
    <g id="ytick_9">
     <g id="line2d_37">
      <defs>
       <path d="M 0 0 
L 3.5 0 
" id="m4580a5d815" style="stroke:#000000;stroke-width:0.8;"/>
      </defs>
      <g>
       <use style="stroke:#000000;stroke-width:0.8;" x="374.4576" xlink:href="#m4580a5d815" y="254.916"/>
      </g>
     </g>
     <g id="text_19">
      <!-- 20 -->
      <g transform="translate(381.4576 258.715219)scale(0.1 -0.1)">
       <use xlink:href="#DejaVuSans-50"/>
       <use x="63.623047" xlink:href="#DejaVuSans-48"/>
      </g>
     </g>
    </g>
    <g id="ytick_10">
     <g id="line2d_38">
      <g>
       <use style="stroke:#000000;stroke-width:0.8;" x="374.4576" xlink:href="#m4580a5d815" y="199.476"/>
      </g>
     </g>
     <g id="text_20">
      <!-- 40 -->
      <g transform="translate(381.4576 203.275219)scale(0.1 -0.1)">
       <use xlink:href="#DejaVuSans-52"/>
       <use x="63.623047" xlink:href="#DejaVuSans-48"/>
      </g>
     </g>
    </g>
    <g id="ytick_11">
     <g id="line2d_39">
      <g>
       <use style="stroke:#000000;stroke-width:0.8;" x="374.4576" xlink:href="#m4580a5d815" y="144.036"/>
      </g>
     </g>
     <g id="text_21">
      <!-- 60 -->
      <g transform="translate(381.4576 147.835219)scale(0.1 -0.1)">
       <use xlink:href="#DejaVuSans-54"/>
       <use x="63.623047" xlink:href="#DejaVuSans-48"/>
      </g>
     </g>
    </g>
    <g id="ytick_12">
     <g id="line2d_40">
      <g>
       <use style="stroke:#000000;stroke-width:0.8;" x="374.4576" xlink:href="#m4580a5d815" y="88.596"/>
      </g>
     </g>
     <g id="text_22">
      <!-- 80 -->
      <g transform="translate(381.4576 92.395219)scale(0.1 -0.1)">
       <use xlink:href="#DejaVuSans-56"/>
       <use x="63.623047" xlink:href="#DejaVuSans-48"/>
      </g>
     </g>
    </g>
   </g>
   <g id="patch_8">
    <path d="M 361.152 307.584 
L 361.152 294.2784 
L 361.152 54.7776 
L 361.152 41.472 
L 374.4576 41.472 
L 374.4576 54.7776 
L 374.4576 294.2784 
L 374.4576 307.584 
z
" style="fill:none;stroke:#000000;stroke-linejoin:miter;stroke-width:0.8;"/>
   </g>
  </g>
 </g>
 <defs>
  <clipPath id="p7828b08348">
   <rect height="266.112" width="285.696" x="57.6" y="41.472"/>
  </clipPath>
  <clipPath id="pfd61f8060b">
   <rect height="266.112" width="13.3056" x="361.152" y="41.472"/>
  </clipPath>
 </defs>
</svg>
