<?xml version="1.0" encoding="utf-8" standalone="no"?>
<!DOCTYPE svg PUBLIC "-//W3C//DTD SVG 1.1//EN"
  "http://www.w3.org/Graphics/SVG/1.1/DTD/svg11.dtd">
<!-- Created with matplotlib (https://matplotlib.org/) -->
<svg height="345.6pt" version="1.1" viewBox="0 0 460.8 345.6" width="460.8pt" xmlns="http://www.w3.org/2000/svg" xmlns:xlink="http://www.w3.org/1999/xlink">
 <defs>
  <style type="text/css">
*{stroke-linecap:butt;stroke-linejoin:round;}
  </style>
 </defs>
 <g id="figure_1">
  <g id="patch_1">
   <path d="M 0 345.6 
L 460.8 345.6 
L 460.8 0 
L 0 0 
z
" style="fill:#ffffff;"/>
  </g>
  <g id="axes_1">
   <g id="patch_2">
    <path d="M 57.6 307.584 
L 343.296 307.584 
L 343.296 41.472 
L 57.6 41.472 
z
" style="fill:#ffffff;"/>
   </g>
   <g id="matplotlib.axis_1">
    <g id="xtick_1">
     <g id="line2d_1">
      <defs>
       <path d="M 0 0 
L 0 3.5 
" id="md48bc5d86c" style="stroke:#000000;stroke-width:0.8;"/>
      </defs>
      <g>
       <use style="stroke:#000000;stroke-width:0.8;" x="71.414053" xlink:href="#md48bc5d86c" y="307.584"/>
      </g>
     </g>
     <g id="text_1">
      <!-- 1000 -->
      <defs>
       <path d="M 12.40625 8.296875 
L 28.515625 8.296875 
L 28.515625 63.921875 
L 10.984375 60.40625 
L 10.984375 69.390625 
L 28.421875 72.90625 
L 38.28125 72.90625 
L 38.28125 8.296875 
L 54.390625 8.296875 
L 54.390625 0 
L 12.40625 0 
z
" id="DejaVuSans-49"/>
       <path d="M 31.78125 66.40625 
Q 24.171875 66.40625 20.328125 58.90625 
Q 16.5 51.421875 16.5 36.375 
Q 16.5 21.390625 20.328125 13.890625 
Q 24.171875 6.390625 31.78125 6.390625 
Q 39.453125 6.390625 43.28125 13.890625 
Q 47.125 21.390625 47.125 36.375 
Q 47.125 51.421875 43.28125 58.90625 
Q 39.453125 66.40625 31.78125 66.40625 
z
M 31.78125 74.21875 
Q 44.046875 74.21875 50.515625 64.515625 
Q 56.984375 54.828125 56.984375 36.375 
Q 56.984375 17.96875 50.515625 8.265625 
Q 44.046875 -1.421875 31.78125 -1.421875 
Q 19.53125 -1.421875 13.0625 8.265625 
Q 6.59375 17.96875 6.59375 36.375 
Q 6.59375 54.828125 13.0625 64.515625 
Q 19.53125 74.21875 31.78125 74.21875 
z
" id="DejaVuSans-48"/>
      </defs>
      <g transform="translate(58.689053 322.182437)scale(0.1 -0.1)">
       <use xlink:href="#DejaVuSans-49"/>
       <use x="63.623047" xlink:href="#DejaVuSans-48"/>
       <use x="127.246094" xlink:href="#DejaVuSans-48"/>
       <use x="190.869141" xlink:href="#DejaVuSans-48"/>
      </g>
     </g>
    </g>
    <g id="xtick_2">
     <g id="line2d_2">
      <g>
       <use style="stroke:#000000;stroke-width:0.8;" x="108.789738" xlink:href="#md48bc5d86c" y="307.584"/>
      </g>
     </g>
     <g id="text_2">
      <!-- 2000 -->
      <defs>
       <path d="M 19.1875 8.296875 
L 53.609375 8.296875 
L 53.609375 0 
L 7.328125 0 
L 7.328125 8.296875 
Q 12.9375 14.109375 22.625 23.890625 
Q 32.328125 33.6875 34.8125 36.53125 
Q 39.546875 41.84375 41.421875 45.53125 
Q 43.3125 49.21875 43.3125 52.78125 
Q 43.3125 58.59375 39.234375 62.25 
Q 35.15625 65.921875 28.609375 65.921875 
Q 23.96875 65.921875 18.8125 64.3125 
Q 13.671875 62.703125 7.8125 59.421875 
L 7.8125 69.390625 
Q 13.765625 71.78125 18.9375 73 
Q 24.125 74.21875 28.421875 74.21875 
Q 39.75 74.21875 46.484375 68.546875 
Q 53.21875 62.890625 53.21875 53.421875 
Q 53.21875 48.921875 51.53125 44.890625 
Q 49.859375 40.875 45.40625 35.40625 
Q 44.1875 33.984375 37.640625 27.21875 
Q 31.109375 20.453125 19.1875 8.296875 
z
" id="DejaVuSans-50"/>
      </defs>
      <g transform="translate(96.064738 322.182437)scale(0.1 -0.1)">
       <use xlink:href="#DejaVuSans-50"/>
       <use x="63.623047" xlink:href="#DejaVuSans-48"/>
       <use x="127.246094" xlink:href="#DejaVuSans-48"/>
       <use x="190.869141" xlink:href="#DejaVuSans-48"/>
      </g>
     </g>
    </g>
    <g id="xtick_3">
     <g id="line2d_3">
      <g>
       <use style="stroke:#000000;stroke-width:0.8;" x="146.165424" xlink:href="#md48bc5d86c" y="307.584"/>
      </g>
     </g>
     <g id="text_3">
      <!-- 3000 -->
      <defs>
       <path d="M 40.578125 39.3125 
Q 47.65625 37.796875 51.625 33 
Q 55.609375 28.21875 55.609375 21.1875 
Q 55.609375 10.40625 48.1875 4.484375 
Q 40.765625 -1.421875 27.09375 -1.421875 
Q 22.515625 -1.421875 17.65625 -0.515625 
Q 12.796875 0.390625 7.625 2.203125 
L 7.625 11.71875 
Q 11.71875 9.328125 16.59375 8.109375 
Q 21.484375 6.890625 26.8125 6.890625 
Q 36.078125 6.890625 40.9375 10.546875 
Q 45.796875 14.203125 45.796875 21.1875 
Q 45.796875 27.640625 41.28125 31.265625 
Q 36.765625 34.90625 28.71875 34.90625 
L 20.21875 34.90625 
L 20.21875 43.015625 
L 29.109375 43.015625 
Q 36.375 43.015625 40.234375 45.921875 
Q 44.09375 48.828125 44.09375 54.296875 
Q 44.09375 59.90625 40.109375 62.90625 
Q 36.140625 65.921875 28.71875 65.921875 
Q 24.65625 65.921875 20.015625 65.03125 
Q 15.375 64.15625 9.8125 62.3125 
L 9.8125 71.09375 
Q 15.4375 72.65625 20.34375 73.4375 
Q 25.25 74.21875 29.59375 74.21875 
Q 40.828125 74.21875 47.359375 69.109375 
Q 53.90625 64.015625 53.90625 55.328125 
Q 53.90625 49.265625 50.4375 45.09375 
Q 46.96875 40.921875 40.578125 39.3125 
z
" id="DejaVuSans-51"/>
      </defs>
      <g transform="translate(133.440424 322.182437)scale(0.1 -0.1)">
       <use xlink:href="#DejaVuSans-51"/>
       <use x="63.623047" xlink:href="#DejaVuSans-48"/>
       <use x="127.246094" xlink:href="#DejaVuSans-48"/>
       <use x="190.869141" xlink:href="#DejaVuSans-48"/>
      </g>
     </g>
    </g>
    <g id="xtick_4">
     <g id="line2d_4">
      <g>
       <use style="stroke:#000000;stroke-width:0.8;" x="183.541109" xlink:href="#md48bc5d86c" y="307.584"/>
      </g>
     </g>
     <g id="text_4">
      <!-- 4000 -->
      <defs>
       <path d="M 37.796875 64.3125 
L 12.890625 25.390625 
L 37.796875 25.390625 
z
M 35.203125 72.90625 
L 47.609375 72.90625 
L 47.609375 25.390625 
L 58.015625 25.390625 
L 58.015625 17.1875 
L 47.609375 17.1875 
L 47.609375 0 
L 37.796875 0 
L 37.796875 17.1875 
L 4.890625 17.1875 
L 4.890625 26.703125 
z
" id="DejaVuSans-52"/>
      </defs>
      <g transform="translate(170.816109 322.182437)scale(0.1 -0.1)">
       <use xlink:href="#DejaVuSans-52"/>
       <use x="63.623047" xlink:href="#DejaVuSans-48"/>
       <use x="127.246094" xlink:href="#DejaVuSans-48"/>
       <use x="190.869141" xlink:href="#DejaVuSans-48"/>
      </g>
     </g>
    </g>
    <g id="xtick_5">
     <g id="line2d_5">
      <g>
       <use style="stroke:#000000;stroke-width:0.8;" x="220.916794" xlink:href="#md48bc5d86c" y="307.584"/>
      </g>
     </g>
     <g id="text_5">
      <!-- 5000 -->
      <defs>
       <path d="M 10.796875 72.90625 
L 49.515625 72.90625 
L 49.515625 64.59375 
L 19.828125 64.59375 
L 19.828125 46.734375 
Q 21.96875 47.46875 24.109375 47.828125 
Q 26.265625 48.1875 28.421875 48.1875 
Q 40.625 48.1875 47.75 41.5 
Q 54.890625 34.8125 54.890625 23.390625 
Q 54.890625 11.625 47.5625 5.09375 
Q 40.234375 -1.421875 26.90625 -1.421875 
Q 22.3125 -1.421875 17.546875 -0.640625 
Q 12.796875 0.140625 7.71875 1.703125 
L 7.71875 11.625 
Q 12.109375 9.234375 16.796875 8.0625 
Q 21.484375 6.890625 26.703125 6.890625 
Q 35.15625 6.890625 40.078125 11.328125 
Q 45.015625 15.765625 45.015625 23.390625 
Q 45.015625 31 40.078125 35.4375 
Q 35.15625 39.890625 26.703125 39.890625 
Q 22.75 39.890625 18.8125 39.015625 
Q 14.890625 38.140625 10.796875 36.28125 
z
" id="DejaVuSans-53"/>
      </defs>
      <g transform="translate(208.191794 322.182437)scale(0.1 -0.1)">
       <use xlink:href="#DejaVuSans-53"/>
       <use x="63.623047" xlink:href="#DejaVuSans-48"/>
       <use x="127.246094" xlink:href="#DejaVuSans-48"/>
       <use x="190.869141" xlink:href="#DejaVuSans-48"/>
      </g>
     </g>
    </g>
    <g id="xtick_6">
     <g id="line2d_6">
      <g>
       <use style="stroke:#000000;stroke-width:0.8;" x="258.292479" xlink:href="#md48bc5d86c" y="307.584"/>
      </g>
     </g>
     <g id="text_6">
      <!-- 6000 -->
      <defs>
       <path d="M 33.015625 40.375 
Q 26.375 40.375 22.484375 35.828125 
Q 18.609375 31.296875 18.609375 23.390625 
Q 18.609375 15.53125 22.484375 10.953125 
Q 26.375 6.390625 33.015625 6.390625 
Q 39.65625 6.390625 43.53125 10.953125 
Q 47.40625 15.53125 47.40625 23.390625 
Q 47.40625 31.296875 43.53125 35.828125 
Q 39.65625 40.375 33.015625 40.375 
z
M 52.59375 71.296875 
L 52.59375 62.3125 
Q 48.875 64.0625 45.09375 64.984375 
Q 41.3125 65.921875 37.59375 65.921875 
Q 27.828125 65.921875 22.671875 59.328125 
Q 17.53125 52.734375 16.796875 39.40625 
Q 19.671875 43.65625 24.015625 45.921875 
Q 28.375 48.1875 33.59375 48.1875 
Q 44.578125 48.1875 50.953125 41.515625 
Q 57.328125 34.859375 57.328125 23.390625 
Q 57.328125 12.15625 50.6875 5.359375 
Q 44.046875 -1.421875 33.015625 -1.421875 
Q 20.359375 -1.421875 13.671875 8.265625 
Q 6.984375 17.96875 6.984375 36.375 
Q 6.984375 53.65625 15.1875 63.9375 
Q 23.390625 74.21875 37.203125 74.21875 
Q 40.921875 74.21875 44.703125 73.484375 
Q 48.484375 72.75 52.59375 71.296875 
z
" id="DejaVuSans-54"/>
      </defs>
      <g transform="translate(245.567479 322.182437)scale(0.1 -0.1)">
       <use xlink:href="#DejaVuSans-54"/>
       <use x="63.623047" xlink:href="#DejaVuSans-48"/>
       <use x="127.246094" xlink:href="#DejaVuSans-48"/>
       <use x="190.869141" xlink:href="#DejaVuSans-48"/>
      </g>
     </g>
    </g>
    <g id="xtick_7">
     <g id="line2d_7">
      <g>
       <use style="stroke:#000000;stroke-width:0.8;" x="295.668164" xlink:href="#md48bc5d86c" y="307.584"/>
      </g>
     </g>
     <g id="text_7">
      <!-- 7000 -->
      <defs>
       <path d="M 8.203125 72.90625 
L 55.078125 72.90625 
L 55.078125 68.703125 
L 28.609375 0 
L 18.3125 0 
L 43.21875 64.59375 
L 8.203125 64.59375 
z
" id="DejaVuSans-55"/>
      </defs>
      <g transform="translate(282.943164 322.182437)scale(0.1 -0.1)">
       <use xlink:href="#DejaVuSans-55"/>
       <use x="63.623047" xlink:href="#DejaVuSans-48"/>
       <use x="127.246094" xlink:href="#DejaVuSans-48"/>
       <use x="190.869141" xlink:href="#DejaVuSans-48"/>
      </g>
     </g>
    </g>
    <g id="xtick_8">
     <g id="line2d_8">
      <g>
       <use style="stroke:#000000;stroke-width:0.8;" x="333.04385" xlink:href="#md48bc5d86c" y="307.584"/>
      </g>
     </g>
     <g id="text_8">
      <!-- 8000 -->
      <defs>
       <path d="M 31.78125 34.625 
Q 24.75 34.625 20.71875 30.859375 
Q 16.703125 27.09375 16.703125 20.515625 
Q 16.703125 13.921875 20.71875 10.15625 
Q 24.75 6.390625 31.78125 6.390625 
Q 38.8125 6.390625 42.859375 10.171875 
Q 46.921875 13.96875 46.921875 20.515625 
Q 46.921875 27.09375 42.890625 30.859375 
Q 38.875 34.625 31.78125 34.625 
z
M 21.921875 38.8125 
Q 15.578125 40.375 12.03125 44.71875 
Q 8.5 49.078125 8.5 55.328125 
Q 8.5 64.0625 14.71875 69.140625 
Q 20.953125 74.21875 31.78125 74.21875 
Q 42.671875 74.21875 48.875 69.140625 
Q 55.078125 64.0625 55.078125 55.328125 
Q 55.078125 49.078125 51.53125 44.71875 
Q 48 40.375 41.703125 38.8125 
Q 48.828125 37.15625 52.796875 32.3125 
Q 56.78125 27.484375 56.78125 20.515625 
Q 56.78125 9.90625 50.3125 4.234375 
Q 43.84375 -1.421875 31.78125 -1.421875 
Q 19.734375 -1.421875 13.25 4.234375 
Q 6.78125 9.90625 6.78125 20.515625 
Q 6.78125 27.484375 10.78125 32.3125 
Q 14.796875 37.15625 21.921875 38.8125 
z
M 18.3125 54.390625 
Q 18.3125 48.734375 21.84375 45.5625 
Q 25.390625 42.390625 31.78125 42.390625 
Q 38.140625 42.390625 41.71875 45.5625 
Q 45.3125 48.734375 45.3125 54.390625 
Q 45.3125 60.0625 41.71875 63.234375 
Q 38.140625 66.40625 31.78125 66.40625 
Q 25.390625 66.40625 21.84375 63.234375 
Q 18.3125 60.0625 18.3125 54.390625 
z
" id="DejaVuSans-56"/>
      </defs>
      <g transform="translate(320.31885 322.182437)scale(0.1 -0.1)">
       <use xlink:href="#DejaVuSans-56"/>
       <use x="63.623047" xlink:href="#DejaVuSans-48"/>
       <use x="127.246094" xlink:href="#DejaVuSans-48"/>
       <use x="190.869141" xlink:href="#DejaVuSans-48"/>
      </g>
     </g>
    </g>
    <g id="text_9">
     <!-- Tempo (ms) -->
     <defs>
      <path d="M -0.296875 72.90625 
L 61.375 72.90625 
L 61.375 64.59375 
L 35.5 64.59375 
L 35.5 0 
L 25.59375 0 
L 25.59375 64.59375 
L -0.296875 64.59375 
z
" id="DejaVuSans-84"/>
      <path d="M 56.203125 29.59375 
L 56.203125 25.203125 
L 14.890625 25.203125 
Q 15.484375 15.921875 20.484375 11.0625 
Q 25.484375 6.203125 34.421875 6.203125 
Q 39.59375 6.203125 44.453125 7.46875 
Q 49.3125 8.734375 54.109375 11.28125 
L 54.109375 2.78125 
Q 49.265625 0.734375 44.1875 -0.34375 
Q 39.109375 -1.421875 33.890625 -1.421875 
Q 20.796875 -1.421875 13.15625 6.1875 
Q 5.515625 13.8125 5.515625 26.8125 
Q 5.515625 40.234375 12.765625 48.109375 
Q 20.015625 56 32.328125 56 
Q 43.359375 56 49.78125 48.890625 
Q 56.203125 41.796875 56.203125 29.59375 
z
M 47.21875 32.234375 
Q 47.125 39.59375 43.09375 43.984375 
Q 39.0625 48.390625 32.421875 48.390625 
Q 24.90625 48.390625 20.390625 44.140625 
Q 15.875 39.890625 15.1875 32.171875 
z
" id="DejaVuSans-101"/>
      <path d="M 52 44.1875 
Q 55.375 50.25 60.0625 53.125 
Q 64.75 56 71.09375 56 
Q 79.640625 56 84.28125 50.015625 
Q 88.921875 44.046875 88.921875 33.015625 
L 88.921875 0 
L 79.890625 0 
L 79.890625 32.71875 
Q 79.890625 40.578125 77.09375 44.375 
Q 74.3125 48.1875 68.609375 48.1875 
Q 61.625 48.1875 57.5625 43.546875 
Q 53.515625 38.921875 53.515625 30.90625 
L 53.515625 0 
L 44.484375 0 
L 44.484375 32.71875 
Q 44.484375 40.625 41.703125 44.40625 
Q 38.921875 48.1875 33.109375 48.1875 
Q 26.21875 48.1875 22.15625 43.53125 
Q 18.109375 38.875 18.109375 30.90625 
L 18.109375 0 
L 9.078125 0 
L 9.078125 54.6875 
L 18.109375 54.6875 
L 18.109375 46.1875 
Q 21.1875 51.21875 25.484375 53.609375 
Q 29.78125 56 35.6875 56 
Q 41.65625 56 45.828125 52.96875 
Q 50 49.953125 52 44.1875 
z
" id="DejaVuSans-109"/>
      <path d="M 18.109375 8.203125 
L 18.109375 -20.796875 
L 9.078125 -20.796875 
L 9.078125 54.6875 
L 18.109375 54.6875 
L 18.109375 46.390625 
Q 20.953125 51.265625 25.265625 53.625 
Q 29.59375 56 35.59375 56 
Q 45.5625 56 51.78125 48.09375 
Q 58.015625 40.1875 58.015625 27.296875 
Q 58.015625 14.40625 51.78125 6.484375 
Q 45.5625 -1.421875 35.59375 -1.421875 
Q 29.59375 -1.421875 25.265625 0.953125 
Q 20.953125 3.328125 18.109375 8.203125 
z
M 48.6875 27.296875 
Q 48.6875 37.203125 44.609375 42.84375 
Q 40.53125 48.484375 33.40625 48.484375 
Q 26.265625 48.484375 22.1875 42.84375 
Q 18.109375 37.203125 18.109375 27.296875 
Q 18.109375 17.390625 22.1875 11.75 
Q 26.265625 6.109375 33.40625 6.109375 
Q 40.53125 6.109375 44.609375 11.75 
Q 48.6875 17.390625 48.6875 27.296875 
z
" id="DejaVuSans-112"/>
      <path d="M 30.609375 48.390625 
Q 23.390625 48.390625 19.1875 42.75 
Q 14.984375 37.109375 14.984375 27.296875 
Q 14.984375 17.484375 19.15625 11.84375 
Q 23.34375 6.203125 30.609375 6.203125 
Q 37.796875 6.203125 41.984375 11.859375 
Q 46.1875 17.53125 46.1875 27.296875 
Q 46.1875 37.015625 41.984375 42.703125 
Q 37.796875 48.390625 30.609375 48.390625 
z
M 30.609375 56 
Q 42.328125 56 49.015625 48.375 
Q 55.71875 40.765625 55.71875 27.296875 
Q 55.71875 13.875 49.015625 6.21875 
Q 42.328125 -1.421875 30.609375 -1.421875 
Q 18.84375 -1.421875 12.171875 6.21875 
Q 5.515625 13.875 5.515625 27.296875 
Q 5.515625 40.765625 12.171875 48.375 
Q 18.84375 56 30.609375 56 
z
" id="DejaVuSans-111"/>
      <path id="DejaVuSans-32"/>
      <path d="M 31 75.875 
Q 24.46875 64.65625 21.28125 53.65625 
Q 18.109375 42.671875 18.109375 31.390625 
Q 18.109375 20.125 21.3125 9.0625 
Q 24.515625 -2 31 -13.1875 
L 23.1875 -13.1875 
Q 15.875 -1.703125 12.234375 9.375 
Q 8.59375 20.453125 8.59375 31.390625 
Q 8.59375 42.28125 12.203125 53.3125 
Q 15.828125 64.359375 23.1875 75.875 
z
" id="DejaVuSans-40"/>
      <path d="M 44.28125 53.078125 
L 44.28125 44.578125 
Q 40.484375 46.53125 36.375 47.5 
Q 32.28125 48.484375 27.875 48.484375 
Q 21.1875 48.484375 17.84375 46.4375 
Q 14.5 44.390625 14.5 40.28125 
Q 14.5 37.15625 16.890625 35.375 
Q 19.28125 33.59375 26.515625 31.984375 
L 29.59375 31.296875 
Q 39.15625 29.25 43.1875 25.515625 
Q 47.21875 21.78125 47.21875 15.09375 
Q 47.21875 7.46875 41.1875 3.015625 
Q 35.15625 -1.421875 24.609375 -1.421875 
Q 20.21875 -1.421875 15.453125 -0.5625 
Q 10.6875 0.296875 5.421875 2 
L 5.421875 11.28125 
Q 10.40625 8.6875 15.234375 7.390625 
Q 20.0625 6.109375 24.8125 6.109375 
Q 31.15625 6.109375 34.5625 8.28125 
Q 37.984375 10.453125 37.984375 14.40625 
Q 37.984375 18.0625 35.515625 20.015625 
Q 33.0625 21.96875 24.703125 23.78125 
L 21.578125 24.515625 
Q 13.234375 26.265625 9.515625 29.90625 
Q 5.8125 33.546875 5.8125 39.890625 
Q 5.8125 47.609375 11.28125 51.796875 
Q 16.75 56 26.8125 56 
Q 31.78125 56 36.171875 55.265625 
Q 40.578125 54.546875 44.28125 53.078125 
z
" id="DejaVuSans-115"/>
      <path d="M 8.015625 75.875 
L 15.828125 75.875 
Q 23.140625 64.359375 26.78125 53.3125 
Q 30.421875 42.28125 30.421875 31.390625 
Q 30.421875 20.453125 26.78125 9.375 
Q 23.140625 -1.703125 15.828125 -13.1875 
L 8.015625 -13.1875 
Q 14.5 -2 17.703125 9.0625 
Q 20.90625 20.125 20.90625 31.390625 
Q 20.90625 42.671875 17.703125 53.65625 
Q 14.5 64.65625 8.015625 75.875 
z
" id="DejaVuSans-41"/>
     </defs>
     <g transform="translate(170.261281 335.860562)scale(0.1 -0.1)">
      <use xlink:href="#DejaVuSans-84"/>
      <use x="60.818359" xlink:href="#DejaVuSans-101"/>
      <use x="122.341797" xlink:href="#DejaVuSans-109"/>
      <use x="219.753906" xlink:href="#DejaVuSans-112"/>
      <use x="283.230469" xlink:href="#DejaVuSans-111"/>
      <use x="344.412109" xlink:href="#DejaVuSans-32"/>
      <use x="376.199219" xlink:href="#DejaVuSans-40"/>
      <use x="415.212891" xlink:href="#DejaVuSans-109"/>
      <use x="512.625" xlink:href="#DejaVuSans-115"/>
      <use x="564.724609" xlink:href="#DejaVuSans-41"/>
     </g>
    </g>
   </g>
   <g id="matplotlib.axis_2">
    <g id="ytick_1">
     <g id="line2d_9">
      <defs>
       <path d="M 0 0 
L -3.5 0 
" id="m67c616e93b" style="stroke:#000000;stroke-width:0.8;"/>
      </defs>
      <g>
       <use style="stroke:#000000;stroke-width:0.8;" x="57.6" xlink:href="#m67c616e93b" y="299.960298"/>
      </g>
     </g>
     <g id="text_10">
      <!-- 0 -->
      <g transform="translate(44.2375 303.759516)scale(0.1 -0.1)">
       <use xlink:href="#DejaVuSans-48"/>
      </g>
     </g>
    </g>
    <g id="ytick_2">
     <g id="line2d_10">
      <g>
       <use style="stroke:#000000;stroke-width:0.8;" x="57.6" xlink:href="#m67c616e93b" y="270.281648"/>
      </g>
     </g>
     <g id="text_11">
      <!-- 10 -->
      <g transform="translate(37.875 274.080866)scale(0.1 -0.1)">
       <use xlink:href="#DejaVuSans-49"/>
       <use x="63.623047" xlink:href="#DejaVuSans-48"/>
      </g>
     </g>
    </g>
    <g id="ytick_3">
     <g id="line2d_11">
      <g>
       <use style="stroke:#000000;stroke-width:0.8;" x="57.6" xlink:href="#m67c616e93b" y="240.602997"/>
      </g>
     </g>
     <g id="text_12">
      <!-- 20 -->
      <g transform="translate(37.875 244.402216)scale(0.1 -0.1)">
       <use xlink:href="#DejaVuSans-50"/>
       <use x="63.623047" xlink:href="#DejaVuSans-48"/>
      </g>
     </g>
    </g>
    <g id="ytick_4">
     <g id="line2d_12">
      <g>
       <use style="stroke:#000000;stroke-width:0.8;" x="57.6" xlink:href="#m67c616e93b" y="210.924347"/>
      </g>
     </g>
     <g id="text_13">
      <!-- 30 -->
      <g transform="translate(37.875 214.723566)scale(0.1 -0.1)">
       <use xlink:href="#DejaVuSans-51"/>
       <use x="63.623047" xlink:href="#DejaVuSans-48"/>
      </g>
     </g>
    </g>
    <g id="ytick_5">
     <g id="line2d_13">
      <g>
       <use style="stroke:#000000;stroke-width:0.8;" x="57.6" xlink:href="#m67c616e93b" y="181.245697"/>
      </g>
     </g>
     <g id="text_14">
      <!-- 40 -->
      <g transform="translate(37.875 185.044916)scale(0.1 -0.1)">
       <use xlink:href="#DejaVuSans-52"/>
       <use x="63.623047" xlink:href="#DejaVuSans-48"/>
      </g>
     </g>
    </g>
    <g id="ytick_6">
     <g id="line2d_14">
      <g>
       <use style="stroke:#000000;stroke-width:0.8;" x="57.6" xlink:href="#m67c616e93b" y="151.567047"/>
      </g>
     </g>
     <g id="text_15">
      <!-- 50 -->
      <g transform="translate(37.875 155.366266)scale(0.1 -0.1)">
       <use xlink:href="#DejaVuSans-53"/>
       <use x="63.623047" xlink:href="#DejaVuSans-48"/>
      </g>
     </g>
    </g>
    <g id="ytick_7">
     <g id="line2d_15">
      <g>
       <use style="stroke:#000000;stroke-width:0.8;" x="57.6" xlink:href="#m67c616e93b" y="121.888397"/>
      </g>
     </g>
     <g id="text_16">
      <!-- 60 -->
      <g transform="translate(37.875 125.687616)scale(0.1 -0.1)">
       <use xlink:href="#DejaVuSans-54"/>
       <use x="63.623047" xlink:href="#DejaVuSans-48"/>
      </g>
     </g>
    </g>
    <g id="ytick_8">
     <g id="line2d_16">
      <g>
       <use style="stroke:#000000;stroke-width:0.8;" x="57.6" xlink:href="#m67c616e93b" y="92.209747"/>
      </g>
     </g>
     <g id="text_17">
      <!-- 70 -->
      <g transform="translate(37.875 96.008966)scale(0.1 -0.1)">
       <use xlink:href="#DejaVuSans-55"/>
       <use x="63.623047" xlink:href="#DejaVuSans-48"/>
      </g>
     </g>
    </g>
    <g id="ytick_9">
     <g id="line2d_17">
      <g>
       <use style="stroke:#000000;stroke-width:0.8;" x="57.6" xlink:href="#m67c616e93b" y="62.531097"/>
      </g>
     </g>
     <g id="text_18">
      <!-- 80 -->
      <g transform="translate(37.875 66.330315)scale(0.1 -0.1)">
       <use xlink:href="#DejaVuSans-56"/>
       <use x="63.623047" xlink:href="#DejaVuSans-48"/>
      </g>
     </g>
    </g>
    <g id="text_19">
     <!-- Taxa de disparo (pps) -->
     <defs>
      <path d="M 34.28125 27.484375 
Q 23.390625 27.484375 19.1875 25 
Q 14.984375 22.515625 14.984375 16.5 
Q 14.984375 11.71875 18.140625 8.90625 
Q 21.296875 6.109375 26.703125 6.109375 
Q 34.1875 6.109375 38.703125 11.40625 
Q 43.21875 16.703125 43.21875 25.484375 
L 43.21875 27.484375 
z
M 52.203125 31.203125 
L 52.203125 0 
L 43.21875 0 
L 43.21875 8.296875 
Q 40.140625 3.328125 35.546875 0.953125 
Q 30.953125 -1.421875 24.3125 -1.421875 
Q 15.921875 -1.421875 10.953125 3.296875 
Q 6 8.015625 6 15.921875 
Q 6 25.140625 12.171875 29.828125 
Q 18.359375 34.515625 30.609375 34.515625 
L 43.21875 34.515625 
L 43.21875 35.40625 
Q 43.21875 41.609375 39.140625 45 
Q 35.0625 48.390625 27.6875 48.390625 
Q 23 48.390625 18.546875 47.265625 
Q 14.109375 46.140625 10.015625 43.890625 
L 10.015625 52.203125 
Q 14.9375 54.109375 19.578125 55.046875 
Q 24.21875 56 28.609375 56 
Q 40.484375 56 46.34375 49.84375 
Q 52.203125 43.703125 52.203125 31.203125 
z
" id="DejaVuSans-97"/>
      <path d="M 54.890625 54.6875 
L 35.109375 28.078125 
L 55.90625 0 
L 45.3125 0 
L 29.390625 21.484375 
L 13.484375 0 
L 2.875 0 
L 24.125 28.609375 
L 4.6875 54.6875 
L 15.28125 54.6875 
L 29.78125 35.203125 
L 44.28125 54.6875 
z
" id="DejaVuSans-120"/>
      <path d="M 45.40625 46.390625 
L 45.40625 75.984375 
L 54.390625 75.984375 
L 54.390625 0 
L 45.40625 0 
L 45.40625 8.203125 
Q 42.578125 3.328125 38.25 0.953125 
Q 33.9375 -1.421875 27.875 -1.421875 
Q 17.96875 -1.421875 11.734375 6.484375 
Q 5.515625 14.40625 5.515625 27.296875 
Q 5.515625 40.1875 11.734375 48.09375 
Q 17.96875 56 27.875 56 
Q 33.9375 56 38.25 53.625 
Q 42.578125 51.265625 45.40625 46.390625 
z
M 14.796875 27.296875 
Q 14.796875 17.390625 18.875 11.75 
Q 22.953125 6.109375 30.078125 6.109375 
Q 37.203125 6.109375 41.296875 11.75 
Q 45.40625 17.390625 45.40625 27.296875 
Q 45.40625 37.203125 41.296875 42.84375 
Q 37.203125 48.484375 30.078125 48.484375 
Q 22.953125 48.484375 18.875 42.84375 
Q 14.796875 37.203125 14.796875 27.296875 
z
" id="DejaVuSans-100"/>
      <path d="M 9.421875 54.6875 
L 18.40625 54.6875 
L 18.40625 0 
L 9.421875 0 
z
M 9.421875 75.984375 
L 18.40625 75.984375 
L 18.40625 64.59375 
L 9.421875 64.59375 
z
" id="DejaVuSans-105"/>
      <path d="M 41.109375 46.296875 
Q 39.59375 47.171875 37.8125 47.578125 
Q 36.03125 48 33.890625 48 
Q 26.265625 48 22.1875 43.046875 
Q 18.109375 38.09375 18.109375 28.8125 
L 18.109375 0 
L 9.078125 0 
L 9.078125 54.6875 
L 18.109375 54.6875 
L 18.109375 46.1875 
Q 20.953125 51.171875 25.484375 53.578125 
Q 30.03125 56 36.53125 56 
Q 37.453125 56 38.578125 55.875 
Q 39.703125 55.765625 41.0625 55.515625 
z
" id="DejaVuSans-114"/>
     </defs>
     <g transform="translate(31.795312 229.049094)rotate(-90)scale(0.1 -0.1)">
      <use xlink:href="#DejaVuSans-84"/>
      <use x="60.833984" xlink:href="#DejaVuSans-97"/>
      <use x="122.113281" xlink:href="#DejaVuSans-120"/>
      <use x="181.292969" xlink:href="#DejaVuSans-97"/>
      <use x="242.572266" xlink:href="#DejaVuSans-32"/>
      <use x="274.359375" xlink:href="#DejaVuSans-100"/>
      <use x="337.835938" xlink:href="#DejaVuSans-101"/>
      <use x="399.359375" xlink:href="#DejaVuSans-32"/>
      <use x="431.146484" xlink:href="#DejaVuSans-100"/>
      <use x="494.623047" xlink:href="#DejaVuSans-105"/>
      <use x="522.40625" xlink:href="#DejaVuSans-115"/>
      <use x="574.505859" xlink:href="#DejaVuSans-112"/>
      <use x="637.982422" xlink:href="#DejaVuSans-97"/>
      <use x="699.261719" xlink:href="#DejaVuSans-114"/>
      <use x="740.34375" xlink:href="#DejaVuSans-111"/>
      <use x="801.525391" xlink:href="#DejaVuSans-32"/>
      <use x="833.3125" xlink:href="#DejaVuSans-40"/>
      <use x="872.326172" xlink:href="#DejaVuSans-112"/>
      <use x="935.802734" xlink:href="#DejaVuSans-112"/>
      <use x="999.279297" xlink:href="#DejaVuSans-115"/>
      <use x="1051.378906" xlink:href="#DejaVuSans-41"/>
     </g>
    </g>
   </g>
   <g id="line2d_18">
    <path clip-path="url(#pb4c554ce4a)" d="M 101.228637 274.033013 
L 102.286369 270.108093 
L 103.828116 265.33835 
L 104.62235 263.565441 
L 105.384814 262.42313 
L 107.289105 259.541891 
L 107.909541 257.994069 
L 108.569222 255.631306 
L 109.348505 251.950996 
L 110.518364 245.412163 
L 111.604128 237.962843 
L 113.173906 227.249669 
L 114.753029 218.003354 
L 115.775254 213.301084 
L 116.470442 211.156151 
L 117.201136 209.545676 
L 117.737477 208.803132 
L 118.212149 208.508392 
L 118.955925 208.295313 
L 119.50161 208.120131 
L 120.028607 207.704642 
L 120.708844 206.829482 
L 121.176041 205.916813 
L 121.932898 203.833301 
L 122.79067 200.695032 
L 124.022199 195.378277 
L 126.821638 183.297236 
L 128.075592 179.350853 
L 128.894119 177.45086 
L 130.075191 175.411462 
L 134.25753 168.729395 
L 135.840391 165.714648 
L 138.950048 159.169868 
L 141.009448 154.685666 
L 142.403561 152.009908 
L 144.791867 147.754273 
L 152.220285 136.530899 
L 155.464494 130.896703 
L 156.886639 128.536693 
L 157.824769 127.299069 
L 158.921745 126.209107 
L 160.2355 125.281914 
L 161.280151 124.926428 
L 162.814423 124.863562 
L 163.773109 124.674992 
L 165.370919 124.0816 
L 166.634218 123.296442 
L 168.005905 122.165125 
L 169.173895 120.98398 
L 170.197989 119.71081 
L 171.904189 117.282022 
L 174.849393 112.84033 
L 177.153604 109.351425 
L 179.089665 106.238712 
L 181.47984 102.574528 
L 183.763494 99.717144 
L 185.219277 98.241544 
L 186.090131 97.638379 
L 186.884364 97.355773 
L 187.611321 97.331444 
L 188.300902 97.52451 
L 189.113823 98.017911 
L 189.975333 98.807016 
L 190.915331 99.980796 
L 191.829167 101.406387 
L 194.865941 106.655135 
L 195.74427 107.605083 
L 196.34415 107.988881 
L 196.940292 108.177175 
L 197.586891 108.180066 
L 198.549315 107.919564 
L 199.334205 107.502281 
L 200.515276 106.630818 
L 201.890701 105.299847 
L 204.473361 102.913916 
L 206.347752 101.430311 
L 207.784847 100.697759 
L 208.491247 100.56359 
L 209.04067 100.612553 
L 209.584486 100.785929 
L 210.118959 101.087796 
L 210.745001 101.631758 
L 211.513072 102.490321 
L 213.133308 104.669949 
L 215.200183 107.457945 
L 216.20372 108.302002 
L 216.855926 108.61445 
L 217.474493 108.658837 
L 218.304234 108.441135 
L 220.316914 107.748621 
L 221.301764 107.844405 
L 221.9521 108.064751 
L 222.632338 108.48959 
L 223.759215 109.49684 
L 226.412888 111.901412 
L 227.30243 112.279173 
L 227.995749 112.377159 
L 228.612448 112.29864 
L 229.311373 112.087791 
L 231.032523 111.621265 
L 231.789381 111.70345 
L 232.456537 112.047252 
L 233.205919 112.761994 
L 233.990809 113.85183 
L 235.063491 115.755596 
L 237.059352 120.012016 
L 238.468416 122.664355 
L 239.528016 124.10601 
L 240.619386 125.258031 
L 242.215328 126.859778 
L 243.317911 128.302446 
L 244.461607 130.200948 
L 248.490706 137.227159 
L 249.365297 138.341207 
L 250.368834 139.295804 
L 251.392928 139.934124 
L 253.299088 141.315018 
L 254.188629 142.426919 
L 255.152922 143.971876 
L 256.079839 145.791607 
L 260.206114 154.639662 
L 261.432037 156.777432 
L 263.825949 160.318523 
L 267.148648 164.695077 
L 268.518467 167.066625 
L 269.837828 169.684714 
L 273.194165 177.258007 
L 274.302354 179.525254 
L 277.408273 184.636356 
L 279.633995 188.173334 
L 282.79411 193.813445 
L 284.846035 198.06743 
L 285.664562 200.241988 
L 287.454858 205.864979 
L 289.21899 211.878233 
L 290.207577 216.495817 
L 292.184751 227.154476 
L 296.017627 248.688369 
L 299.065614 265.752612 
L 300.203704 272.378249 
L 300.203704 272.378249 
" style="fill:none;stroke:#c5b0d5;stroke-linecap:square;stroke-width:2;"/>
   </g>
   <g id="line2d_19">
    <path clip-path="url(#pb4c554ce4a)" d="M 76.872772 281.888036 
L 79.48907 274.851972 
L 80.554277 270.739286 
L 81.498013 266.071942 
L 82.479125 260.220479 
L 83.50135 252.792672 
L 85.900869 234.671624 
L 87.074465 227.832477 
L 88.332157 221.705184 
L 90.07947 214.290258 
L 91.040026 211.206983 
L 92.794814 206.813695 
L 97.064986 196.932671 
L 98.898263 191.29452 
L 100.206412 186.529438 
L 102.989032 176.227075 
L 104.534517 171.68286 
L 107.26481 164.638183 
L 109.098088 160.334622 
L 110.735143 157.153337 
L 111.970409 155.142231 
L 114.211082 151.881269 
L 115.605195 149.227987 
L 117.274019 145.304998 
L 118.955925 140.620127 
L 120.929361 135.426135 
L 122.882241 130.738512 
L 125.17337 126.140567 
L 126.892652 123.292152 
L 127.787799 122.105006 
L 129.221157 120.711711 
L 130.759166 119.556279 
L 133.650175 117.66634 
L 134.468703 116.949253 
L 135.593711 115.666905 
L 137.198997 113.579963 
L 143.661253 104.344038 
L 147.030671 100.631051 
L 148.308919 99.630682 
L 150.117902 98.572088 
L 150.930823 98.006474 
L 152.323068 96.619274 
L 153.259329 95.483335 
L 154.786125 93.302969 
L 160.242975 85.196285 
L 161.579156 83.758647 
L 163.027464 82.54807 
L 164.950443 81.181626 
L 167.114495 79.812071 
L 167.953579 78.966598 
L 168.953379 77.611048 
L 170.097075 75.645911 
L 173.417904 69.859651 
L 174.744741 68.193809 
L 175.940763 67.085734 
L 178.226286 64.95469 
L 181.717175 61.332125 
L 182.776776 60.534136 
L 183.741069 60.060183 
L 184.64556 59.834385 
L 185.559396 59.775399 
L 187.022654 59.837565 
L 188.926945 59.904117 
L 190.414497 60.149328 
L 192.576681 60.491333 
L 194.239899 60.745747 
L 196.902916 61.186717 
L 198.842714 61.672577 
L 202.256983 62.73461 
L 203.516544 62.754039 
L 204.447198 62.572045 
L 205.439523 62.205414 
L 207.351289 61.531506 
L 209.638681 61.176142 
L 211.301899 60.850863 
L 212.879153 60.634031 
L 214.291954 60.765425 
L 215.861733 61.212834 
L 216.822288 61.776055 
L 218.078111 62.888051 
L 220.208525 65.050009 
L 223.19858 68.211626 
L 225.794321 70.535936 
L 227.031456 71.307368 
L 227.930341 71.58143 
L 228.73205 71.57423 
L 230.227077 71.236482 
L 231.064293 71.122837 
L 232.03606 71.17523 
L 232.862063 71.454708 
L 233.787111 72.103 
L 234.628064 73.028395 
L 235.446592 74.219817 
L 236.620188 76.371414 
L 239.694338 82.374525 
L 240.886623 84.227864 
L 242.942285 86.97142 
L 244.312104 88.496017 
L 247.188163 91.123112 
L 248.71496 92.563933 
L 250.176349 94.280646 
L 251.985332 96.419343 
L 253.969981 98.575893 
L 256.008825 101.172299 
L 259.937009 106.435893 
L 263.891357 112.692858 
L 264.936007 113.600854 
L 265.890956 114.036939 
L 268.187692 115.009698 
L 269.243555 115.841311 
L 270.086377 116.856313 
L 271.043194 118.455764 
L 272.005618 120.571271 
L 273.422157 124.356389 
L 275.591815 130.372811 
L 277.298015 134.581544 
L 278.652884 137.261423 
L 280.123617 139.637976 
L 281.007552 140.673069 
L 282.254031 141.651341 
L 285.001144 143.481622 
L 285.92993 144.370104 
L 287.039987 145.957052 
L 287.824877 147.450837 
L 288.856446 149.837793 
L 292.592145 159.454137 
L 296.871661 170.332965 
L 298.622712 174.149009 
L 299.693526 175.890097 
L 300.663425 177.014379 
L 301.62398 177.751917 
L 302.642467 178.39777 
L 303.651611 179.193538 
L 304.384174 179.999522 
L 305.348467 181.464931 
L 306.576258 184.146454 
L 308.396454 189.31535 
L 309.530806 193.012299 
L 310.575456 197.273359 
L 311.818198 203.227273 
L 314.165391 215.44855 
L 316.738707 228.321601 
L 319.084031 239.378647 
L 320.128682 245.499747 
L 321.352735 253.902808 
L 322.462793 262.406089 
L 322.462793 262.406089 
" style="fill:none;stroke:#ffbb78;stroke-linecap:square;stroke-width:2;"/>
   </g>
   <g id="line2d_20">
    <path clip-path="url(#pb4c554ce4a)" d="M 113.15335 284.903006 
L 114.767979 283.833024 
L 115.711715 283.212203 
L 116.300382 282.427325 
L 116.79561 281.428915 
L 117.361852 279.705747 
L 117.943044 277.234723 
L 118.643838 273.145066 
L 119.374532 267.611936 
L 120.450952 257.529866 
L 122.895322 233.826157 
L 123.945579 226.181465 
L 124.89679 220.865742 
L 125.762037 217.340528 
L 126.47965 215.230439 
L 127.438337 213.147408 
L 128.251258 211.790626 
L 129.019328 211.019906 
L 129.910738 209.995559 
L 131.039484 207.999598 
L 132.016858 205.698804 
L 133.416577 201.775021 
L 135.943174 194.052255 
L 137.93156 187.18621 
L 139.736806 180.922566 
L 140.755293 178.003167 
L 141.781256 175.728046 
L 142.646503 174.363983 
L 143.780855 173.173271 
L 144.997433 172.355733 
L 147.841723 170.729544 
L 148.497666 170.040305 
L 149.220886 168.967389 
L 150.162753 167.03245 
L 154.666523 156.609334 
L 156.329741 153.91235 
L 158.663853 150.581567 
L 159.988821 149.163778 
L 161.885637 147.643427 
L 162.724721 147.248391 
L 163.860942 146.937869 
L 165.055095 146.767365 
L 165.838116 146.627982 
L 166.581892 146.355029 
L 167.342487 145.844541 
L 168.30678 144.895153 
L 169.22809 143.717967 
L 170.491388 141.566605 
L 172.816156 137.524231 
L 175.225019 133.852215 
L 179.463422 128.522198 
L 181.106083 126.839936 
L 182.408626 125.828861 
L 186.456412 123.466258 
L 188.106549 122.844724 
L 189.212869 122.807274 
L 189.728653 122.956626 
L 190.289289 123.261088 
L 191.13211 124.036417 
L 191.877755 125.001515 
L 192.778509 126.489538 
L 195.445265 131.207923 
L 196.415164 132.458079 
L 197.071107 132.965818 
L 197.646692 133.145902 
L 198.194246 133.090015 
L 198.779176 132.795424 
L 199.386531 132.235115 
L 200.089193 131.248885 
L 201.057224 129.441058 
L 203.434317 124.770104 
L 204.411691 123.50356 
L 205.076979 122.902011 
L 205.830099 122.423754 
L 206.360833 122.274694 
L 206.880355 122.275765 
L 207.704489 122.52614 
L 208.347351 122.905819 
L 209.038801 123.48419 
L 210.175022 124.610358 
L 211.156134 125.374369 
L 212.26806 126.006672 
L 213.699549 126.489762 
L 215.022648 126.684407 
L 216.087855 126.773878 
L 217.622127 126.993017 
L 218.904113 127.419367 
L 220.574806 128.335364 
L 222.10721 129.535924 
L 227.031456 133.400605 
L 229.832764 135.209908 
L 231.185763 136.442602 
L 232.264052 137.689531 
L 234.213194 140.099597 
L 235.839036 141.952754 
L 238.070365 144.405005 
L 239.619587 145.786419 
L 241.112745 147.220053 
L 242.404075 149.057311 
L 243.61131 151.246906 
L 245.024111 154.378135 
L 248.230945 161.678672 
L 249.42136 163.566743 
L 250.286607 164.635508 
L 253.532686 168.595767 
L 254.40167 170.274602 
L 255.356619 172.690119 
L 256.621786 176.423725 
L 258.432638 181.562409 
L 259.408143 183.709757 
L 260.19677 184.947872 
L 260.802256 185.56951 
L 261.684323 186.119898 
L 262.697204 186.397717 
L 263.898832 186.585452 
L 265.507855 187.135523 
L 266.494573 187.612082 
L 266.916919 187.989433 
L 267.748528 189.162465 
L 268.43624 190.65489 
L 269.264112 192.900032 
L 270.641406 197.386185 
L 272.964304 205.179785 
L 274.033249 208.119259 
L 274.997542 210.127732 
L 275.969309 211.50212 
L 276.894358 212.959684 
L 278.406204 215.964265 
L 279.01169 217.773304 
L 280.018965 221.608379 
L 280.91785 225.941103 
L 284.10039 242.756737 
L 289.015292 266.805183 
L 291.00181 274.211171 
L 292.025904 277.322208 
L 293.767611 281.947759 
L 294.21425 282.912083 
L 294.21425 282.912083 
" style="fill:none;stroke:#8c564b;stroke-linecap:square;stroke-width:2;"/>
   </g>
   <g id="line2d_21">
    <path clip-path="url(#pb4c554ce4a)" d="M 155.219683 262.138797 
L 156.69976 252.12988 
L 157.507075 248.122546 
L 158.319996 245.116281 
L 158.927351 243.634817 
L 159.66739 242.513085 
L 160.250451 241.997636 
L 161.969732 240.871648 
L 162.463091 240.190665 
L 163.251718 238.633359 
L 164.055295 236.552082 
L 166.096008 230.376217 
L 168.387137 221.861462 
L 170.667054 212.813531 
L 172.941364 205.470713 
L 177.316188 192.720879 
L 178.908393 189.054732 
L 179.919405 187.192616 
L 181.248111 185.254383 
L 182.900116 183.464936 
L 183.470095 183.116855 
L 184.198921 182.909018 
L 185.110888 183.072103 
L 185.652835 183.417481 
L 186.396611 184.069556 
L 187.572076 185.205586 
L 188.829768 186.07184 
L 189.689409 186.361193 
L 190.5341 186.234606 
L 191.410559 185.697355 
L 193.152266 184.295991 
L 194.88276 183.289938 
L 196.151665 183.10152 
L 196.891704 183.152725 
L 197.887766 183.572118 
L 198.909991 184.548131 
L 200.477901 186.326949 
L 201.475831 187.040167 
L 202.326128 187.334046 
L 203.219407 187.383153 
L 204.168749 187.077972 
L 205.146124 186.442676 
L 208.6258 183.824923 
L 209.414427 183.562046 
L 211.359831 183.39318 
L 215.40388 184.362558 
L 215.921534 184.818061 
L 216.68026 185.942534 
L 217.197913 187.05238 
L 218.216401 189.815779 
L 220.64582 197.522965 
L 222.335201 203.054506 
L 223.398539 205.668146 
L 224.342276 207.222049 
L 225.056151 207.951885 
L 225.805534 208.377724 
L 226.412888 208.431618 
L 226.919329 208.357348 
L 228.45547 207.675697 
L 229.571134 207.030381 
L 230.157932 206.907781 
L 230.731649 207.017895 
L 231.527751 207.365045 
L 232.488306 208.160863 
L 233.25077 209.06949 
L 234.276733 210.720495 
L 234.910251 212.265795 
L 237.147185 218.884946 
L 238.720702 223.45661 
L 239.812072 225.860222 
L 240.953899 228.615383 
L 242.10507 232.281262 
L 244.599897 241.109744 
L 246.4556 247.203504 
L 247.412417 249.675468 
L 249.746529 255.653599 
L 250.864062 259.183184 
L 252.134835 264.180627 
L 253.243024 269.613523 
L 253.551374 271.347488 
L 253.551374 271.347488 
" style="fill:none;stroke:#f7b6d2;stroke-linecap:square;stroke-width:2;"/>
   </g>
   <g id="line2d_22">
    <path clip-path="url(#pb4c554ce4a)" d="M 173.574882 284.859115 
L 175.475436 283.158965 
L 176.047284 282.114002 
L 176.578019 280.587067 
L 177.153604 278.247123 
L 177.817023 274.470196 
L 178.747677 267.739821 
L 180.175428 255.689697 
L 182.061032 239.858216 
L 182.98608 234.308761 
L 183.64763 231.557899 
L 184.150332 230.305163 
L 184.524089 229.882599 
L 184.808145 229.856865 
L 185.157607 230.072001 
L 185.566871 230.611477 
L 186.091999 231.714854 
L 187.706629 235.228955 
L 188.282214 235.798208 
L 188.94937 236.205689 
L 189.298833 236.159975 
L 189.665115 235.871633 
L 190.562131 234.711149 
L 191.348889 233.766239 
L 191.810479 233.552285 
L 192.105747 233.650728 
L 192.434653 234.020383 
L 192.843917 234.851987 
L 193.582087 237.014056 
L 194.583755 240.608841 
L 195.89751 246.586346 
L 196.873016 250.538181 
L 197.72705 252.974571 
L 198.222278 253.820417 
L 198.532496 254.005078 
L 198.779176 253.899628 
L 199.0651 253.499058 
L 199.43325 252.552803 
L 199.889234 250.713342 
L 200.502195 247.211526 
L 201.225414 241.747056 
L 202.944696 226.467418 
L 204.015509 218.170732 
L 204.742466 214.117163 
L 205.432048 211.430947 
L 205.99642 210.056099 
L 206.562662 209.188965 
L 207.009302 208.867283 
L 207.383058 208.853628 
L 207.754946 209.071792 
L 208.117491 209.544722 
L 208.665044 210.722638 
L 209.367707 212.811204 
L 211.014106 218.735836 
L 211.941023 222.701748 
L 213.432313 230.151563 
L 214.91239 237.323328 
L 216.022448 241.416646 
L 217.866938 247.440616 
L 218.580814 249.140905 
L 221.002758 253.914136 
L 221.688602 256.24366 
L 222.662238 260.432249 
L 223.848916 266.46063 
L 226.248435 279.352508 
L 226.790383 281.002593 
L 227.195909 281.62698 
L 227.493046 281.739556 
L 227.752807 281.597218 
L 228.14712 281.067807 
L 228.636742 280.001237 
L 229.696342 276.916782 
L 231.066161 273.224093 
L 231.856657 271.688786 
L 232.449062 270.972194 
L 232.779836 270.869598 
L 233.078842 271.013559 
L 233.409617 271.431836 
L 233.409617 271.431836 
" style="fill:none;stroke:#dbdb8d;stroke-linecap:square;stroke-width:2;"/>
   </g>
   <g id="line2d_23">
    <path clip-path="url(#pb4c554ce4a)" d="M 110.740749 261.291575 
L 111.690092 254.489157 
L 112.394623 250.926356 
L 113.050567 248.62223 
L 113.581301 247.497689 
L 114.126986 246.80428 
L 114.58297 246.556876 
L 115.509887 246.351814 
L 116.236844 246.176211 
L 116.752628 245.751864 
L 117.227299 245.084377 
L 117.709446 243.940872 
L 118.316801 241.874577 
L 119.142803 238.158021 
L 119.994969 233.371132 
L 122.986892 215.211924 
L 123.835321 211.665553 
L 124.453888 210.040093 
L 125.040686 209.03515 
L 125.87977 208.168439 
L 127.07953 207.006597 
L 128.243783 205.369463 
L 129.275351 203.28581 
L 130.579763 199.822535 
L 132.450416 193.773589 
L 137.279354 178.130414 
L 138.763169 174.52619 
L 139.912471 172.201231 
L 140.691755 170.999895 
L 141.663522 169.901149 
L 145.752422 166.166829 
L 147.428722 163.790014 
L 150.626212 158.198683 
L 152.554797 154.291752 
L 153.801276 151.925125 
L 155.066443 149.921733 
L 158.486318 145.002864 
L 159.381466 144.27917 
L 160.263532 143.891942 
L 161.018521 143.816333 
L 163.038677 143.733351 
L 163.887105 143.348118 
L 164.492591 142.876361 
L 165.367182 141.964578 
L 166.221216 140.778264 
L 167.3537 138.817527 
L 169.200058 135.054788 
L 170.78105 132.090607 
L 171.545383 131.121763 
L 172.291028 130.531718 
L 173.11703 130.186942 
L 175.281082 129.542573 
L 175.938894 129.092599 
L 176.510742 128.508724 
L 177.224618 127.549826 
L 178.007639 126.22874 
L 179.482109 123.283643 
L 180.878091 120.656689 
L 182.0629 118.824719 
L 183.002899 117.767643 
L 184.036337 116.956166 
L 184.909059 116.471254 
L 185.792994 116.211513 
L 188.330803 115.918748 
L 189.8875 116.108229 
L 191.076047 116.580412 
L 192.281413 117.346695 
L 193.800734 118.614753 
L 194.656638 119.18511 
L 195.914329 119.618005 
L 196.94403 119.634216 
L 198.616591 119.421638 
L 200.612453 119.235085 
L 201.991616 118.783014 
L 202.834437 118.297597 
L 203.712766 117.536711 
L 206.413159 114.931527 
L 207.541905 114.357155 
L 208.332401 114.249627 
L 209.115421 114.437721 
L 209.709695 114.799544 
L 210.554385 115.557361 
L 211.79152 117.018686 
L 213.725712 119.2977 
L 214.572271 120.012976 
L 215.37398 120.415476 
L 216.474694 120.640409 
L 218.04821 120.496423 
L 221.972657 120.000122 
L 222.839773 120.190933 
L 223.871342 120.654538 
L 225.069233 121.397971 
L 226.470821 122.554687 
L 231.680991 127.770807 
L 234.420629 131.395774 
L 236.089453 134.038598 
L 241.241692 142.763727 
L 242.889959 145.01641 
L 244.231746 146.390182 
L 245.825819 147.685396 
L 247.382517 149.122654 
L 248.328122 150.376598 
L 249.32979 152.059238 
L 252.822548 158.326555 
L 253.583143 159.108459 
L 254.104534 159.407615 
L 254.642744 159.532735 
L 255.41642 159.33565 
L 256.552641 158.564579 
L 257.681387 157.849123 
L 258.357887 157.81343 
L 258.744725 158.001584 
L 259.260509 158.542516 
L 259.789375 159.442897 
L 260.419156 160.982216 
L 261.177882 163.417772 
L 262.209451 167.478886 
L 264.799586 177.698977 
L 265.651752 179.794964 
L 266.326383 180.891872 
L 266.956163 181.564229 
L 267.909243 182.086223 
L 270.448921 183.034386 
L 271.246892 183.875019 
L 271.942079 184.969578 
L 272.829752 186.799543 
L 276.380442 195.698701 
L 277.61384 199.214584 
L 278.70521 202.818001 
L 281.16453 211.983273 
L 283.349139 219.748839 
L 286.976449 232.269615 
L 289.224596 241.983018 
L 290.536483 249.170355 
L 292.053936 258.56746 
L 294.182481 271.943487 
L 294.182481 271.943487 
" style="fill:none;stroke:#9467bd;stroke-linecap:square;stroke-width:2;"/>
   </g>
   <g id="line2d_24">
    <path clip-path="url(#pb4c554ce4a)" d="M 108.292642 260.44864 
L 109.729737 248.074248 
L 110.836057 240.318643 
L 111.755499 235.208008 
L 112.699235 231.305153 
L 113.902732 227.51298 
L 115.459429 222.79971 
L 118.802684 210.611488 
L 119.780059 207.388972 
L 120.834053 204.824804 
L 121.542322 203.500354 
L 123.392419 200.292136 
L 124.29691 198.253706 
L 125.748956 194.49503 
L 129.355709 185.236152 
L 130.348034 183.556541 
L 131.237575 182.544732 
L 132.114035 181.795166 
L 132.726996 181.40501 
L 134.379001 180.369538 
L 135.261067 179.383623 
L 136.258998 177.785546 
L 137.458758 175.228869 
L 139.095813 171.29138 
L 140.523564 167.019937 
L 143.825706 156.984751 
L 144.636758 155.330182 
L 145.29457 154.413795 
L 146.182243 153.57347 
L 147.081128 153.118977 
L 149.843191 152.129163 
L 150.85981 151.146316 
L 151.53631 150.211137 
L 152.311855 148.805279 
L 153.205134 146.735682 
L 157.251052 136.862281 
L 158.473237 134.662053 
L 159.596376 133.1056 
L 160.616732 132.027912 
L 161.693152 131.25909 
L 163.178836 130.400295 
L 166.256723 128.401843 
L 167.396682 127.391614 
L 168.633817 125.989809 
L 170.001767 123.933997 
L 172.788124 119.732665 
L 175.327802 116.750868 
L 176.656508 115.1043 
L 178.299169 112.779709 
L 181.347156 107.770337 
L 182.816021 105.394327 
L 183.871884 104.045148 
L 185.032399 102.90338 
L 185.779912 102.349356 
L 186.495657 102.067155 
L 187.360904 102.024813 
L 187.906589 102.159501 
L 188.5345 102.492528 
L 189.154937 103.006765 
L 189.909926 103.876453 
L 190.90225 105.356376 
L 193.107415 109.222872 
L 194.348288 111.122104 
L 195.140653 111.967313 
L 195.933017 112.487926 
L 196.577748 112.668042 
L 197.134646 112.65655 
L 197.777507 112.477759 
L 198.414763 112.155364 
L 200.758218 111.066419 
L 202.669984 110.686555 
L 203.765092 110.674083 
L 205.327396 110.579419 
L 206.073041 110.350197 
L 207.328864 109.720926 
L 209.522816 108.498521 
L 211.045876 108.081369 
L 211.901779 108.080914 
L 213.009968 108.269686 
L 215.29736 108.901826 
L 217.224076 109.083224 
L 219.378785 109.420184 
L 220.662639 109.918861 
L 221.563393 110.716661 
L 222.591225 111.966762 
L 224.190904 114.193939 
L 225.889629 116.402107 
L 226.889428 117.379101 
L 227.866803 118.06812 
L 229.752406 118.961628 
L 233.852519 120.648318 
L 235.816611 120.924556 
L 237.390127 121.00188 
L 238.397402 121.31836 
L 239.313106 121.800602 
L 239.95223 122.340745 
L 240.559585 123.075838 
L 241.217397 124.143411 
L 241.946223 125.700375 
L 243.000218 128.568333 
L 244.093456 132.098799 
L 246.595759 140.227013 
L 247.617983 142.721145 
L 248.507525 144.430947 
L 249.5148 145.826255 
L 250.286607 146.544512 
L 251.069628 146.989749 
L 252.545968 147.430723 
L 253.543898 147.722754 
L 254.680119 148.424413 
L 255.466877 149.248782 
L 256.283536 150.408358 
L 257.56926 152.728203 
L 259.389456 156.741461 
L 260.763012 159.561877 
L 262.482293 162.600077 
L 266.492705 168.772237 
L 272.622317 180.664094 
L 274.304223 183.097324 
L 275.760006 185.182333 
L 277.169069 187.775892 
L 278.325846 190.915352 
L 280.740316 198.865496 
L 282.553036 204.646505 
L 285.236611 211.865009 
L 286.111202 214.450473 
L 290.932665 230.408532 
L 294.644071 243.665839 
L 295.830749 247.84872 
L 296.752059 251.675178 
L 297.684583 256.453369 
L 299.110465 265.317797 
L 299.80939 269.998459 
L 299.80939 269.998459 
" style="fill:none;stroke:#9467bd;stroke-linecap:square;stroke-width:2;"/>
   </g>
   <g id="line2d_25">
    <path clip-path="url(#pb4c554ce4a)" d="M 89.625356 256.077977 
L 91.408176 240.061849 
L 92.540659 231.796534 
L 93.613341 225.485133 
L 94.646779 220.620891 
L 101.312733 192.501432 
L 102.441478 189.063137 
L 104.848472 182.203267 
L 110.804288 164.732943 
L 112.192795 161.513031 
L 113.760705 158.407576 
L 115.302452 155.795404 
L 120.652781 147.387997 
L 121.873097 145.095239 
L 125.87977 137.33979 
L 126.859013 135.962743 
L 128.040085 134.737211 
L 129.193125 133.794135 
L 130.090141 133.008524 
L 132.424253 130.513431 
L 133.756696 128.668984 
L 137.307386 123.396555 
L 140.450681 119.680763 
L 142.23537 117.199638 
L 146.584031 110.405877 
L 147.542718 109.305845 
L 149.540448 107.606777 
L 150.893448 106.341981 
L 151.82784 105.069487 
L 152.646367 103.665611 
L 157.393079 94.798705 
L 158.303177 93.659177 
L 159.286158 92.741076 
L 161.225956 91.456086 
L 162.876092 90.376193 
L 163.801141 89.509748 
L 164.597243 88.579433 
L 166.125908 86.332246 
L 168.390875 82.45975 
L 171.07258 77.9478 
L 172.341485 76.17134 
L 173.91687 74.37464 
L 175.402553 73.002332 
L 176.828436 71.816532 
L 178.043146 70.451657 
L 180.605249 67.556335 
L 181.851728 66.611723 
L 182.984211 66.054698 
L 185.221146 65.357799 
L 187.258121 65.084966 
L 188.691478 65.090407 
L 190.291158 65.574837 
L 191.388134 66.181015 
L 192.290757 66.941358 
L 195.136915 69.417136 
L 196.164746 69.757555 
L 197.147727 69.780681 
L 199.904184 69.609508 
L 201.535632 70.015694 
L 204.361234 70.873615 
L 205.146124 70.775073 
L 206.102941 70.321576 
L 207.470891 69.309199 
L 211.34675 66.252927 
L 212.211997 65.86594 
L 213.25291 65.705053 
L 214.120026 65.810912 
L 216.046742 66.489918 
L 218.152862 67.506762 
L 220.612182 68.421445 
L 221.993214 69.147117 
L 223.488241 70.119202 
L 224.725376 71.211539 
L 225.747601 72.340094 
L 229.219802 76.169155 
L 231.95944 78.501459 
L 233.149856 79.6186 
L 234.871006 81.626963 
L 240.354019 88.098341 
L 241.637874 89.611771 
L 242.884353 91.385768 
L 244.106538 93.589206 
L 247.737586 100.797838 
L 248.808399 102.304323 
L 249.684859 103.155582 
L 250.462273 103.653231 
L 251.226606 103.913577 
L 252.31237 104.003785 
L 255.61638 103.783258 
L 256.259242 103.958469 
L 256.918923 104.363125 
L 257.701943 105.135998 
L 258.548503 106.279004 
L 259.346474 107.73358 
L 260.527545 110.443288 
L 263.874538 118.855727 
L 264.956564 120.741752 
L 265.719028 121.71667 
L 266.619782 122.479479 
L 268.099859 123.346506 
L 269.002482 124.053539 
L 269.983594 125.233901 
L 270.820809 126.646882 
L 271.753332 128.651127 
L 273.272654 132.547445 
L 274.500445 135.539098 
L 275.360086 137.219559 
L 276.219727 138.42185 
L 277.350341 139.55647 
L 278.970577 140.871467 
L 280.293676 141.743145 
L 282.519398 143.487821 
L 283.463134 144.597758 
L 284.505916 146.350025 
L 285.548698 148.495029 
L 287.133427 152.410357 
L 289.88054 158.898395 
L 291.536282 162.285377 
L 293.197632 165.137944 
L 294.382441 167.174184 
L 295.456992 169.422542 
L 296.253094 171.515338 
L 297.036114 174.375153 
L 297.935 178.463858 
L 299.663625 187.859508 
L 301.876266 199.724774 
L 303.087238 204.947321 
L 303.987992 207.94278 
L 304.627116 209.406101 
L 305.324173 210.510757 
L 305.849301 210.980587 
L 306.385642 211.149944 
L 306.791168 211.061952 
L 307.555501 210.562949 
L 308.146037 209.99402 
L 309.426154 208.873922 
L 310.095179 208.524962 
L 310.453985 208.601435 
L 310.837086 208.926838 
L 311.564043 209.950712 
L 312.102253 211.000424 
L 312.788097 212.870579 
L 313.369289 215.048455 
L 314.109327 218.752797 
L 314.868054 223.804505 
L 315.832347 231.775735 
L 317.144233 244.851656 
L 318.415006 258.482772 
L 318.415006 258.482772 
" style="fill:none;stroke:#2ca02c;stroke-linecap:square;stroke-width:2;"/>
   </g>
   <g id="line2d_26">
    <path clip-path="url(#pb4c554ce4a)" d="M 151.282155 271.045196 
L 155.414037 241.086369 
L 156.348429 236.19311 
L 157.015585 233.767447 
L 157.611727 232.410713 
L 158.168625 231.618659 
L 158.620871 231.32713 
L 159.106755 231.252199 
L 159.478643 231.448287 
L 159.904725 231.946584 
L 160.456017 232.97515 
L 162.066909 236.02467 
L 162.866749 236.96778 
L 163.240505 237.11443 
L 163.573149 237.009587 
L 163.997363 236.60211 
L 164.425315 235.947508 
L 164.963524 234.67007 
L 166.06237 231.405517 
L 166.963124 227.841925 
L 168.882365 219.07479 
L 170.988485 209.714057 
L 172.99369 202.21448 
L 174.171025 198.604933 
L 175.165218 196.310625 
L 176.069709 194.546502 
L 177.304976 192.086688 
L 178.762627 189.315712 
L 179.547517 188.291544 
L 181.201391 186.840313 
L 184.626872 184.542745 
L 185.755618 184.257177 
L 187.160944 184.106654 
L 188.573745 184.27444 
L 189.125036 184.544159 
L 192.059027 186.719287 
L 194.273537 188.794034 
L 195.080852 188.969604 
L 195.594767 188.867952 
L 196.293693 188.574564 
L 197.229954 187.813674 
L 198.229753 186.576491 
L 199.390268 184.790761 
L 200.778775 182.477404 
L 201.627203 181.234779 
L 202.496188 180.335024 
L 203.453005 179.812092 
L 204.29022 179.687237 
L 204.869544 179.908561 
L 205.415229 180.284431 
L 206.372046 181.445713 
L 209.412558 186.167363 
L 210.049814 186.712012 
L 210.666512 187.032818 
L 211.522416 187.101161 
L 214.176089 186.820512 
L 215.345948 187.20443 
L 216.461612 188.091855 
L 218.416361 190.038975 
L 219.421767 190.867351 
L 220.212262 191.218913 
L 221.137311 191.355117 
L 222.019377 191.199564 
L 222.763153 191.050858 
L 223.886292 191.111409 
L 224.710426 191.62621 
L 226.085851 193.065891 
L 227.278136 194.837019 
L 233.448861 205.30974 
L 234.1889 207.015831 
L 234.809336 208.937737 
L 236.199712 214.258079 
L 238.664638 223.677274 
L 239.296287 225.14919 
L 239.987737 226.247563 
L 240.910917 227.381942 
L 241.649087 227.752403 
L 243.4263 228.53837 
L 243.998148 229.014575 
L 245.629597 230.892901 
L 246.246296 231.978972 
L 247.119018 234.188536 
L 248.458936 237.916868 
L 250.172612 243.771711 
L 252.691733 252.930572 
L 254.093321 258.46498 
L 255.756539 266.426814 
L 257.849577 277.108577 
L 257.849577 277.108577 
" style="fill:none;stroke:#7f7f7f;stroke-linecap:square;stroke-width:2;"/>
   </g>
   <g id="line2d_27">
    <path clip-path="url(#pb4c554ce4a)" d="M 183.455145 279.115584 
L 184.92214 271.584298 
L 187.076849 260.215609 
L 188.261658 254.929545 
L 189.01104 252.51576 
L 189.579151 251.354776 
L 190.018315 250.902547 
L 190.365909 250.832308 
L 190.692946 251.000215 
L 191.05549 251.458108 
L 191.427378 252.343584 
L 191.903918 254.113296 
L 192.51688 257.32708 
L 193.344751 262.976278 
L 196.766495 287.815514 
L 197.798064 292.820783 
L 198.362437 294.559524 
L 198.78852 295.249921 
L 199.182833 295.475706 
L 199.534164 295.437257 
L 199.900446 295.158098 
L 200.261122 294.59965 
L 200.679729 293.471644 
L 201.21607 291.321349 
L 202.382192 285.350131 
L 203.527756 278.366487 
L 205.716103 265.06463 
L 206.727115 260.031168 
L 207.736259 256.270389 
L 208.498723 254.177493 
L 209.078046 253.170001 
L 209.530292 252.778914 
L 209.900311 252.728773 
L 210.257249 252.912133 
L 210.666512 253.396857 
L 211.167347 254.367886 
L 211.800864 256.12593 
L 212.600704 259.045235 
L 213.340743 262.693352 
L 214.611516 270.318831 
L 215.757081 276.353687 
L 216.66531 280.162076 
L 217.336203 282.102181 
L 218.145387 283.764989 
L 218.763955 284.574687 
L 219.261051 284.891975 
L 219.808605 284.953233 
L 221.684864 285.115455 
L 221.684864 285.115455 
" style="fill:none;stroke:#9edae5;stroke-linecap:square;stroke-width:2;"/>
   </g>
   <g id="line2d_28">
    <path clip-path="url(#pb4c554ce4a)" d="M 93.981492 272.962816 
L 96.304391 260.556767 
L 97.563951 255.139383 
L 101.180049 240.362455 
L 102.932969 230.764286 
L 104.356982 221.937915 
L 106.706044 206.850099 
L 108.232841 198.017 
L 109.441944 192.354678 
L 110.540789 188.435371 
L 111.643372 185.135092 
L 112.807625 182.355145 
L 114.069054 180.131637 
L 115.171637 178.678594 
L 116.149011 177.780138 
L 117.91875 176.586019 
L 119.049364 175.813058 
L 120.387414 174.639752 
L 122.205741 172.812822 
L 123.046694 171.537513 
L 123.966135 169.769362 
L 125.115438 167.022694 
L 127.582233 160.235395 
L 130.037815 153.436514 
L 132.037415 149.096304 
L 133.067115 147.4879 
L 133.853873 146.607575 
L 134.818166 145.798842 
L 135.877766 144.704443 
L 136.999037 143.203651 
L 139.718118 138.80969 
L 142.325072 134.444766 
L 143.782724 132.424744 
L 146.541049 129.15194 
L 147.989357 128.104689 
L 149.551661 126.947097 
L 150.667325 125.957064 
L 151.796071 124.819439 
L 152.788395 123.45758 
L 153.750819 121.686806 
L 157.890176 113.567526 
L 158.906795 112.201349 
L 159.678603 111.567781 
L 160.441067 111.237844 
L 161.412834 111.085345 
L 162.709771 111.055378 
L 165.079389 110.833935 
L 165.952111 110.288678 
L 166.680937 109.537932 
L 167.708769 108.117934 
L 169.102882 105.835456 
L 170.36618 103.249005 
L 173.064704 97.271295 
L 174.156074 95.491084 
L 175.148399 94.311787 
L 176.088397 93.481974 
L 178.798134 91.423387 
L 179.839047 90.883131 
L 182.417969 89.690896 
L 183.729856 88.715794 
L 185.217408 87.308904 
L 187.848657 84.993674 
L 188.822293 84.534993 
L 189.511875 84.479863 
L 190.236963 84.685651 
L 190.814417 85.053692 
L 191.449804 85.661018 
L 192.529961 87.061897 
L 193.980138 89.044193 
L 194.905186 89.871976 
L 195.72932 90.287383 
L 196.338543 90.403801 
L 197.05055 90.360265 
L 198.474564 89.92613 
L 202.496188 88.096542 
L 204.114555 87.693203 
L 205.161074 87.300755 
L 206.368309 86.642642 
L 207.807272 85.889161 
L 208.807072 85.603933 
L 209.842378 85.646403 
L 211.806471 86.103023 
L 213.337005 86.766094 
L 216.138313 88.106399 
L 217.179225 88.265676 
L 218.003359 88.246329 
L 219.455405 88.165371 
L 220.193574 88.273648 
L 220.999021 88.619805 
L 221.882955 89.197817 
L 223.619056 90.738986 
L 226.786645 93.923765 
L 227.848115 94.664745 
L 228.844177 95.027731 
L 230.165407 95.465095 
L 230.952165 95.974093 
L 231.740792 96.775751 
L 232.768624 98.160101 
L 234.919594 101.595467 
L 236.369771 103.709821 
L 239.047739 106.901931 
L 241.335131 109.411658 
L 242.374175 110.932103 
L 243.368368 112.708484 
L 244.992342 116.115071 
L 246.539695 119.155477 
L 247.995478 121.506469 
L 249.387722 123.34019 
L 252.721633 127.798483 
L 256.601229 133.281184 
L 260.02858 137.198778 
L 261.353548 138.413039 
L 263.08778 139.930305 
L 264.224 141.274398 
L 265.50038 143.021382 
L 267.997076 146.894162 
L 270.729238 151.68378 
L 272.558778 154.402239 
L 273.711818 155.719301 
L 276.163663 158.133268 
L 277.55217 160.152568 
L 278.462268 161.775862 
L 283.692995 171.490875 
L 286.35975 175.084042 
L 287.630523 176.476395 
L 291.418549 180.141809 
L 292.343597 181.415964 
L 293.582601 183.838466 
L 294.487093 186.066264 
L 295.32057 188.666431 
L 296.195162 191.865231 
L 297.008083 195.637896 
L 297.929393 201.104575 
L 299.291737 210.486412 
L 304.169264 246.535522 
L 305.230733 252.551909 
L 305.931528 255.476492 
L 306.660353 257.504851 
L 307.217251 258.466356 
L 307.936733 259.171994 
L 309.611164 260.575745 
L 310.115735 261.361527 
L 310.687583 262.729446 
L 311.429491 265.136213 
L 312.532074 269.565952 
L 312.56758 269.724668 
L 312.56758 269.724668 
" style="fill:none;stroke:#98df8a;stroke-linecap:square;stroke-width:2;"/>
   </g>
   <g id="line2d_29">
    <path clip-path="url(#pb4c554ce4a)" d="M 128.950183 285.119118 
L 129.363184 285.230144 
L 129.807955 285.595193 
L 130.334952 286.33942 
L 130.992764 287.687868 
L 131.929025 290.18251 
L 132.723258 291.996182 
L 133.263337 292.757288 
L 133.588506 292.872837 
L 133.876298 292.738958 
L 134.208942 292.310633 
L 134.586436 291.439938 
L 135.025601 289.773217 
L 135.589973 286.669223 
L 136.324406 281.272558 
L 137.404563 271.297814 
L 139.804082 249.184655 
L 140.617003 243.771474 
L 141.364517 240.15229 
L 141.92889 238.397315 
L 142.444674 237.495121 
L 142.88197 237.117539 
L 143.237039 237.08087 
L 143.642565 237.292633 
L 144.339621 237.899763 
L 145.481449 238.939318 
L 145.939301 239.0119 
L 146.251388 238.825437 
L 146.619538 238.317217 
L 147.264269 236.930385 
L 147.837986 235.138006 
L 148.761165 231.364805 
L 149.716114 226.45892 
L 152.095076 214.028258 
L 153.236903 209.436186 
L 154.059168 206.983101 
L 155.505607 203.418993 
L 159.413235 194.846234 
L 160.624207 192.619161 
L 161.681939 190.987705 
L 163.214342 189.158654 
L 164.275812 188.259523 
L 164.965393 188.046552 
L 166.099745 187.636473 
L 166.563204 187.326304 
L 167.619067 186.199218 
L 168.753419 184.459092 
L 169.710237 182.49284 
L 171.038942 179.203411 
L 172.836713 174.905509 
L 174.292496 172.233524 
L 175.256788 170.964317 
L 176.107085 170.202476 
L 177.370383 169.251478 
L 179.186841 167.481407 
L 179.908192 166.457394 
L 180.835109 164.896594 
L 182.492721 161.665371 
L 183.896178 159.030403 
L 184.823095 157.947296 
L 185.561265 157.476328 
L 186.355498 157.38068 
L 187.295496 157.58597 
L 190.055691 158.359594 
L 190.919069 158.357235 
L 191.803004 158.182489 
L 193.148529 157.946811 
L 195.695682 157.847311 
L 196.654368 158.103344 
L 197.760688 158.643635 
L 201.397342 160.881891 
L 202.649428 161.672229 
L 204.204256 162.311298 
L 204.807874 162.262963 
L 205.480636 161.973126 
L 206.594431 161.175435 
L 208.446397 159.718688 
L 209.107946 159.506718 
L 209.539635 159.557416 
L 210.279674 159.913156 
L 211.28508 160.917705 
L 212.182096 162.273661 
L 213.064163 163.972449 
L 215.841176 169.374904 
L 216.637278 170.193889 
L 217.323122 170.594564 
L 217.89497 170.710307 
L 218.849919 170.662501 
L 219.436717 170.519055 
L 220.361765 170.349704 
L 221.161605 170.393468 
L 221.899775 170.605502 
L 222.606175 170.965308 
L 223.663907 171.616454 
L 225.130902 172.500412 
L 226.665174 173.339414 
L 227.64068 173.70366 
L 228.307836 173.814661 
L 229.496383 173.832306 
L 230.311172 173.918645 
L 230.821351 174.107693 
L 231.802462 174.643854 
L 232.675185 175.473465 
L 233.792718 177.100704 
L 234.572001 178.788513 
L 235.792317 181.976302 
L 237.687264 186.925359 
L 238.668376 189.057279 
L 239.253305 189.94411 
L 240.058751 190.726139 
L 240.858591 190.999228 
L 241.458471 190.973026 
L 242.351749 190.707636 
L 243.938347 190.137273 
L 244.50272 190.216594 
L 245.044668 190.410787 
L 245.556714 190.864943 
L 245.958503 191.531922 
L 246.769555 193.443274 
L 247.406811 195.568765 
L 248.462674 199.920866 
L 249.5148 205.261047 
L 253.076702 224.946307 
L 254.900636 233.495539 
L 256.143377 238.209828 
L 257.027312 240.641283 
L 259.170808 246.302363 
L 262.394461 256.739916 
L 264.414616 263.296198 
L 265.68539 265.862821 
L 267.11501 268.621289 
L 269.099659 273.333905 
L 270.159259 276.611671 
L 270.262042 276.951921 
L 270.262042 276.951921 
" style="fill:none;stroke:#e377c2;stroke-linecap:square;stroke-width:2;"/>
   </g>
   <g id="line2d_30">
    <path clip-path="url(#pb4c554ce4a)" d="M 178.377658 259.834394 
L 179.259724 253.873184 
L 179.900717 250.904461 
L 180.384732 249.581101 
L 180.754751 249.126647 
L 181.089264 249.026902 
L 181.392007 249.171998 
L 181.74147 249.614319 
L 182.176896 250.562867 
L 182.767432 252.453068 
L 185.682736 262.290395 
L 186.493788 263.926633 
L 187.007704 264.513264 
L 187.368379 264.641481 
L 187.644959 264.490912 
L 188.000028 264.000396 
L 188.549451 262.849447 
L 189.14933 261.06886 
L 190.147261 257.320397 
L 191.842248 250.937913 
L 192.376721 249.848608 
L 192.785985 249.454763 
L 193.107415 249.422649 
L 193.419502 249.625778 
L 193.789522 250.160664 
L 194.25298 251.260742 
L 194.843516 253.290709 
L 195.62093 256.836243 
L 196.766495 263.331299 
L 199.179095 276.78837 
L 200.077981 280.707886 
L 200.655435 282.385128 
L 201.031061 282.883083 
L 201.378655 282.98831 
L 201.694479 282.849035 
L 202.025254 282.445448 
L 202.449468 281.47864 
L 203.036266 279.560034 
L 203.839843 276.08106 
L 205.133042 270.676607 
L 205.902981 268.340364 
L 206.486042 267.208151 
L 206.942025 266.753948 
L 207.583018 266.470716 
L 208.16421 266.451195 
L 208.745402 266.65891 
L 209.388264 267.138059 
L 210.161941 268.012483 
L 210.986074 269.271658 
L 211.57661 270.685613 
L 212.350287 273.171489 
L 213.613585 278.110983 
L 214.805869 282.479321 
L 215.351554 283.64542 
L 215.97386 284.458496 
L 216.474694 284.780469 
L 216.92694 284.813885 
L 218.885426 284.800176 
L 221.081247 285.022761 
L 221.70729 285.11115 
L 221.70729 285.11115 
" style="fill:none;stroke:#17becf;stroke-linecap:square;stroke-width:2;"/>
   </g>
   <g id="line2d_31">
    <path clip-path="url(#pb4c554ce4a)" d="M 170.470832 270.392214 
L 173.528163 248.267345 
L 175.00824 239.618557 
L 177.35917 226.446089 
L 181.595704 198.342956 
L 182.819758 192.724393 
L 183.866277 188.712882 
L 184.514745 186.975468 
L 185.077249 186.023318 
L 185.516414 185.667002 
L 185.923809 185.619668 
L 186.273271 185.784292 
L 186.680666 186.248731 
L 187.801937 187.990519 
L 188.880225 189.561056 
L 189.637083 190.262092 
L 190.175293 190.377572 
L 190.547181 190.270156 
L 192.266463 189.386003 
L 193.477435 189.120184 
L 194.409958 188.684316 
L 196.093733 187.245856 
L 196.736594 186.788658 
L 197.323393 186.690735 
L 197.777507 186.90894 
L 198.334405 187.367416 
L 199.322992 188.523463 
L 199.89484 189.640362 
L 201.135713 192.202922 
L 202.159806 193.763261 
L 203.017578 194.662098 
L 203.652965 194.977007 
L 204.103342 194.963962 
L 204.888231 194.627526 
L 206.265525 193.47303 
L 209.154666 190.310077 
L 209.625599 190.338866 
L 210.109615 190.60027 
L 210.851522 191.271042 
L 211.711163 192.495281 
L 212.585754 193.959655 
L 213.492114 195.832682 
L 218.03326 207.187907 
L 219.318983 209.705229 
L 221.490511 213.156626 
L 222.219337 215.09108 
L 223.159335 218.184305 
L 225.220604 225.048972 
L 226.057819 227.188111 
L 226.812808 228.420783 
L 228.651692 230.899598 
L 229.860795 232.29036 
L 230.567196 233.387981 
L 231.251171 234.994159 
L 232.626596 238.711672 
L 233.400273 241.433642 
L 234.138443 244.867478 
L 235.020509 250.230628 
L 238.513267 273.288169 
L 238.513267 273.288169 
" style="fill:none;stroke:#17becf;stroke-linecap:square;stroke-width:2;"/>
   </g>
   <g id="line2d_32">
    <path clip-path="url(#pb4c554ce4a)" d="M 0 0 
" style="fill:none;stroke:#9edae5;stroke-linecap:square;stroke-width:2;"/>
   </g>
   <g id="line2d_33">
    <path clip-path="url(#pb4c554ce4a)" d="M 141.295372 254.409514 
L 142.334416 246.57547 
L 143.225826 241.337207 
L 143.885507 238.665048 
L 144.547056 236.845888 
L 145.053497 236.028135 
L 145.449679 235.761005 
L 145.97107 235.702685 
L 146.705502 235.898369 
L 147.387609 235.908152 
L 147.895918 235.718925 
L 148.295838 235.277698 
L 148.748083 234.428578 
L 149.370389 232.612852 
L 149.992694 230.152782 
L 151.084064 224.559184 
L 152.702431 214.548809 
L 154.175033 205.898299 
L 155.343023 200.389279 
L 156.142863 197.367912 
L 156.912802 195.344255 
L 157.379998 194.645325 
L 157.835981 194.31156 
L 158.248983 194.278695 
L 158.903057 194.438653 
L 159.402023 194.87794 
L 161.239037 196.53058 
L 162.281819 197.094147 
L 162.685476 197.023662 
L 163.236768 196.718712 
L 163.782453 196.067306 
L 164.597243 194.842041 
L 166.542647 191.252282 
L 168.108688 187.653492 
L 169.218746 184.792479 
L 170.693217 180.370826 
L 172.519019 174.067021 
L 174.436392 167.77642 
L 175.389472 165.440384 
L 176.297701 163.872087 
L 177.136785 162.87329 
L 177.818891 162.40896 
L 178.409427 162.229485 
L 180.823896 161.905295 
L 181.532166 161.434261 
L 182.436657 160.563388 
L 183.741069 158.774816 
L 185.043611 157.094607 
L 185.852795 156.356583 
L 186.592834 156.001383 
L 187.353429 155.894947 
L 188.000028 155.979306 
L 188.67279 156.286593 
L 190.298633 157.361065 
L 191.915131 158.811225 
L 192.541174 159.640166 
L 193.647494 161.344311 
L 195.480771 164.165694 
L 196.510472 165.327977 
L 197.628005 166.179348 
L 198.244703 166.411423 
L 199.031462 166.458001 
L 199.885496 166.219194 
L 200.591896 165.767015 
L 201.500126 164.755201 
L 204.955508 160.409968 
L 206.250575 159.449485 
L 210.150728 157.079278 
L 212.08492 156.355641 
L 213.148258 156.212953 
L 214.392868 156.08651 
L 215.616922 155.858788 
L 216.794256 155.931619 
L 217.538032 156.198928 
L 218.33974 156.615726 
L 219.137711 157.177407 
L 220.025384 158.086841 
L 221.152261 159.70713 
L 222.314645 161.718642 
L 224.893567 166.47697 
L 226.125096 168.442282 
L 227.207122 169.745718 
L 228.37885 170.77 
L 229.178689 171.256034 
L 229.911253 171.536413 
L 231.989341 171.99598 
L 233.377847 172.387912 
L 234.295421 173.021832 
L 235.573669 174.235748 
L 236.272594 175.099261 
L 237.111678 176.384928 
L 238.298356 178.882005 
L 239.529885 182.215834 
L 241.583679 188.784676 
L 243.469282 195.611876 
L 244.590553 200.37644 
L 247.072298 210.976615 
L 248.025378 213.811422 
L 248.8383 215.35025 
L 250.323983 217.523371 
L 251.149986 218.406072 
L 252.415153 219.323912 
L 254.082108 220.260975 
L 254.624056 221.04826 
L 255.106202 222.217748 
L 255.756539 224.453692 
L 256.565723 227.993797 
L 257.612242 233.600824 
L 258.965242 242.467492 
L 260.957366 256.95428 
L 262.960702 272.080405 
L 262.960702 272.080405 
" style="fill:none;stroke:#f7b6d2;stroke-linecap:square;stroke-width:2;"/>
   </g>
   <g id="line2d_34">
    <path clip-path="url(#pb4c554ce4a)" d="M 138.421182 275.947053 
L 139.731199 269.468757 
L 142.594177 255.423214 
L 144.175168 248.202715 
L 146.06264 241.108876 
L 146.841924 238.79823 
L 148.13886 235.799955 
L 149.192854 233.052948 
L 150.65985 228.114471 
L 151.683944 223.896219 
L 152.523028 219.424223 
L 156.727792 195.948632 
L 157.495863 193.197688 
L 158.209738 191.449824 
L 159.22075 189.550811 
L 159.82063 188.764331 
L 160.740072 188.056499 
L 161.504405 187.911746 
L 162.06504 187.948054 
L 163.100347 188.315691 
L 164.481378 188.874493 
L 165.111158 188.962169 
L 165.789527 188.868767 
L 166.381932 188.436674 
L 166.90706 187.767831 
L 167.602248 186.589785 
L 168.559065 184.380933 
L 169.444869 181.751357 
L 173.13198 170.62743 
L 173.907526 169.358721 
L 174.5616 168.723172 
L 175.342752 168.320528 
L 176.265932 168.256992 
L 177.82076 168.54155 
L 178.846723 168.574539 
L 179.57368 168.410129 
L 180.3567 167.898525 
L 181.283617 166.836844 
L 182.810414 164.522084 
L 184.961385 160.957003 
L 186.063968 159.687232 
L 186.620865 159.320647 
L 187.418836 159.183609 
L 187.867344 159.346022 
L 188.384998 159.715934 
L 189.039072 160.54296 
L 189.771636 161.897322 
L 190.74901 164.155258 
L 192.903718 169.216737 
L 193.787653 170.694434 
L 194.449203 171.392104 
L 194.996756 171.640023 
L 195.587292 171.645493 
L 196.168484 171.395402 
L 196.714169 170.949129 
L 197.613054 169.847626 
L 198.554922 168.431057 
L 200.380724 165.256581 
L 202.712967 161.257079 
L 203.591295 160.064511 
L 204.611651 158.999026 
L 206.543974 157.351146 
L 207.629738 156.786506 
L 208.644488 156.508793 
L 209.356495 156.529377 
L 210.090927 156.787158 
L 211.139315 157.425539 
L 212.127902 158.430957 
L 213.551915 160.320261 
L 216.097199 164.113883 
L 216.919464 164.998493 
L 217.588489 165.422632 
L 218.050079 165.507058 
L 218.700416 165.371282 
L 221.329795 164.054361 
L 222.026852 164.094984 
L 222.72204 164.374222 
L 223.56673 165.090483 
L 224.659969 166.547977 
L 226.156865 169.001501 
L 227.868671 171.756356 
L 228.859127 172.980299 
L 232.366835 177.130255 
L 233.1891 178.607379 
L 234.381385 181.08191 
L 236.207187 184.830891 
L 237.177086 186.475818 
L 237.975057 187.618506 
L 240.869804 191.737385 
L 243.166539 196.209805 
L 243.945822 198.353241 
L 245.050274 201.802419 
L 248.008559 211.499432 
L 249.025178 214.901989 
L 252.38899 225.478146 
L 254.655825 232.17127 
L 255.429502 235.21015 
L 256.324649 239.61833 
L 257.324449 245.888212 
L 258.477489 254.758186 
L 261.772155 280.453332 
L 262.570126 284.429288 
L 263.1644 286.38387 
L 263.629727 287.238603 
L 264.093186 287.670032 
L 264.47068 287.742981 
L 264.831355 287.579103 
L 265.659227 286.862459 
L 267.52988 285.125669 
L 267.628925 285.119118 
L 267.628925 285.119118 
" style="fill:none;stroke:#7f7f7f;stroke-linecap:square;stroke-width:2;"/>
   </g>
   <g id="line2d_35">
    <path clip-path="url(#pb4c554ce4a)" d="M 77.319412 264.935253 
L 79.180721 251.851775 
L 80.326285 245.739822 
L 81.498013 240.93135 
L 83.049104 235.871455 
L 84.843137 229.477589 
L 86.059715 225.188502 
L 88.384483 217.667031 
L 89.957999 212.602785 
L 91.710919 207.116452 
L 93.704912 201.110906 
L 94.848608 197.032669 
L 97.636834 186.93731 
L 98.468443 184.713414 
L 99.767248 181.889475 
L 102.850742 175.684625 
L 103.91408 172.761395 
L 104.859685 169.614558 
L 106.137934 164.639943 
L 109.819439 150.159256 
L 110.720193 148.04137 
L 111.434068 146.946072 
L 112.144206 146.282586 
L 112.747823 145.976893 
L 113.362654 145.81598 
L 114.676409 145.504142 
L 115.48933 145.083268 
L 116.391953 144.261074 
L 117.105828 143.347403 
L 117.761772 142.266116 
L 118.559743 140.660716 
L 119.991231 137.286372 
L 121.751626 133.405224 
L 122.80562 131.542201 
L 123.883909 130.196506 
L 124.60526 129.53591 
L 128.90907 125.615824 
L 130.56855 123.560394 
L 132.543855 120.59781 
L 133.982819 118.747088 
L 135.475978 117.190352 
L 136.464565 116.019824 
L 137.628817 114.318592 
L 139.254659 111.490609 
L 140.708574 109.164885 
L 142.997834 106.096646 
L 144.292902 104.711162 
L 145.81783 103.423958 
L 148.443472 101.08247 
L 149.615199 99.566521 
L 152.233366 95.698687 
L 154.522627 92.480142 
L 156.933359 89.473795 
L 158.163019 88.352717 
L 160.276614 86.911694 
L 164.122572 84.429926 
L 165.051357 83.484308 
L 168.994492 79.438548 
L 170.685742 77.758703 
L 172.100412 75.972397 
L 173.692616 73.517514 
L 175.563269 70.24063 
L 178.557061 65.035148 
L 179.300837 64.214863 
L 179.947437 63.815355 
L 180.715507 63.648298 
L 181.459283 63.730531 
L 182.642224 64.075016 
L 183.965323 64.389487 
L 186.506869 64.88591 
L 187.90472 65.110215 
L 192.17863 66.1481 
L 193.383995 66.5848 
L 194.751946 66.760968 
L 195.712501 66.547746 
L 197.102876 65.904347 
L 201.079649 63.319712 
L 202.69241 62.251026 
L 203.626802 61.890254 
L 204.482705 61.781362 
L 205.405885 61.907363 
L 206.508467 62.369106 
L 209.444327 63.729097 
L 210.989812 64.009413 
L 212.060625 63.980967 
L 214.523683 63.833421 
L 215.360898 64.026627 
L 216.244833 64.430373 
L 220.881287 67.038115 
L 222.325857 67.46409 
L 224.106809 68.110157 
L 227.653761 69.627771 
L 229.786044 71.063849 
L 231.000754 72.20584 
L 232.609777 74.025143 
L 234.861662 76.388983 
L 236.001621 77.304222 
L 237.423765 78.185513 
L 238.853385 78.728571 
L 239.909248 79.202019 
L 240.671712 79.763221 
L 241.619186 80.749492 
L 242.820814 82.44691 
L 243.869202 84.438737 
L 245.382918 87.992633 
L 248.174881 94.561659 
L 249.346609 96.655769 
L 250.292214 97.916594 
L 251.232212 98.732409 
L 252.383383 99.255507 
L 254.51006 100.044497 
L 255.767752 100.820171 
L 256.818008 101.821418 
L 257.877609 103.288343 
L 260.606034 107.224661 
L 261.923527 108.461462 
L 264.025909 110.04189 
L 266.937475 112.257354 
L 267.881211 113.471326 
L 269.641606 116.269026 
L 271.207647 119.28515 
L 274.556509 125.591102 
L 276.176745 127.981241 
L 277.473681 129.536495 
L 279.357415 131.36361 
L 283.726633 135.661148 
L 288.366824 141.722276 
L 290.286066 144.069245 
L 291.556839 146.022974 
L 293.178944 149.121789 
L 294.702003 152.645338 
L 295.615838 155.227445 
L 296.759534 159.042675 
L 298.68812 166.211017 
L 303.208709 182.941811 
L 304.059006 185.109249 
L 304.961628 186.891018 
L 306.017492 188.367089 
L 307.153712 189.467719 
L 310.233469 192.123285 
L 310.964164 193.078406 
L 312.554499 195.472212 
L 313.681376 197.588536 
L 315.624911 202.484747 
L 318.478545 210.413266 
L 320.186614 215.911678 
L 320.950947 219.159111 
L 321.870388 224.086394 
L 322.823468 230.600769 
L 323.91297 239.832876 
L 325.473405 255.399353 
L 325.477142 255.438366 
L 325.477142 255.438366 
" style="fill:none;stroke:#1f77b4;stroke-linecap:square;stroke-width:2;"/>
   </g>
   <g id="line2d_36">
    <path clip-path="url(#pb4c554ce4a)" d="M 70.586182 271.520601 
L 72.20268 264.265285 
L 73.054846 261.349757 
L 73.684626 259.90779 
L 74.295719 259.069303 
L 74.9853 258.44419 
L 76.865297 257.094326 
L 77.345574 256.428313 
L 77.908079 255.217515 
L 79.391893 251.155978 
L 80.309466 247.979298 
L 82.172644 239.956175 
L 83.213557 234.343746 
L 84.559082 225.522758 
L 87.05204 209.432359 
L 88.831123 200.325369 
L 90.352313 193.136359 
L 91.649249 187.728641 
L 92.852746 183.396497 
L 96.752899 170.816736 
L 97.524707 169.11979 
L 98.371266 167.764636 
L 100.174643 165.734255 
L 101.467842 164.157274 
L 102.176111 162.941728 
L 103.043227 161.034614 
L 104.398095 157.418435 
L 106.760239 150.795892 
L 108.52624 146.357085 
L 109.400831 144.640199 
L 110.32401 143.178618 
L 113.205676 138.625858 
L 115.808892 133.91751 
L 117.453422 131.363785 
L 119.481053 128.626148 
L 121.254529 126.511178 
L 122.209478 125.679019 
L 123.255997 125.096563 
L 125.537783 123.861885 
L 126.733805 122.751839 
L 128.197063 121.11704 
L 129.152012 119.836875 
L 131.04509 116.791309 
L 133.715583 112.556834 
L 135.292837 110.42942 
L 137.36345 107.346 
L 143.268808 97.270568 
L 145.188049 94.383177 
L 148.792934 89.957094 
L 151.014919 87.753736 
L 152.293167 86.783496 
L 153.874159 85.558247 
L 155.600915 83.845758 
L 156.824969 82.367277 
L 158.884369 80.015022 
L 163.178836 76.03688 
L 165.841853 73.416175 
L 168.323599 70.907586 
L 170.10455 68.859646 
L 172.877826 65.721711 
L 175.768835 63.114675 
L 177.768434 61.599293 
L 179.106484 60.27985 
L 182.561866 56.549645 
L 183.886834 55.643538 
L 185.256653 55.064256 
L 190.935888 53.569171 
L 191.834773 53.657662 
L 192.645826 53.952765 
L 193.707295 54.604181 
L 196.960849 56.802288 
L 197.751344 56.945248 
L 198.571741 56.871944 
L 199.810745 56.502537 
L 201.931815 55.964398 
L 202.716704 56.0154 
L 203.495987 56.233483 
L 204.720041 56.922648 
L 206.962582 58.243753 
L 208.268862 58.675216 
L 209.500391 58.733982 
L 210.401145 58.556133 
L 211.406551 58.104616 
L 214.288216 56.640397 
L 216.011235 56.011712 
L 217.014772 55.871346 
L 217.977196 55.90102 
L 220.578544 56.191634 
L 221.580212 56.52308 
L 222.467885 56.958414 
L 223.394802 57.54758 
L 224.665575 58.493049 
L 228.096663 60.905917 
L 232.669578 63.497017 
L 234.46548 65.201054 
L 235.844643 66.881866 
L 237.356489 69.058156 
L 239.864398 72.653906 
L 243.209521 77.134973 
L 244.143914 78.771177 
L 245.168007 80.890149 
L 246.416355 83.796481 
L 249.174681 90.197527 
L 250.127761 91.897272 
L 251.12756 93.22921 
L 252.035789 94.030765 
L 252.912249 94.438758 
L 254.134434 94.700313 
L 255.356619 95.048835 
L 256.659162 95.827156 
L 257.586079 96.635371 
L 260.44345 99.297765 
L 261.618915 99.936711 
L 262.790643 100.274597 
L 264.466942 100.639745 
L 265.481692 101.250554 
L 266.246025 102.026707 
L 267.131829 103.33947 
L 268.015764 105.157747 
L 269.363157 108.482899 
L 271.930867 114.961909 
L 273.265179 117.694586 
L 274.150982 119.009754 
L 275.051736 119.908964 
L 275.916984 120.449645 
L 278.079167 121.56893 
L 278.804255 122.230686 
L 279.61157 123.251244 
L 281.562581 126.338803 
L 282.773553 128.264388 
L 285.354344 132.48889 
L 288.181815 137.379698 
L 289.768412 140.946568 
L 292.8463 148.40978 
L 293.827412 150.239932 
L 297.53508 156.360765 
L 298.480685 158.607169 
L 299.514122 161.598929 
L 300.984856 166.518863 
L 302.685449 171.969118 
L 303.574991 174.147509 
L 304.285129 175.441892 
L 305.006479 176.416686 
L 305.873595 177.206371 
L 307.598483 178.26672 
L 308.560907 178.826993 
L 309.398122 179.719579 
L 309.930726 180.533068 
L 310.825873 182.327319 
L 311.887343 185.25628 
L 312.634857 187.950745 
L 313.883205 193.656727 
L 315.976243 204.615372 
L 317.751588 215.320553 
L 319.644666 227.681262 
L 322.051661 243.879634 
L 323.653209 253.126781 
L 324.621239 257.224652 
L 325.645333 260.453434 
L 327.579524 265.507193 
L 328.790497 268.733388 
L 329.694988 271.738993 
L 330.309818 274.2764 
L 330.309818 274.2764 
" style="fill:none;stroke:#1f77b4;stroke-linecap:square;stroke-width:2;"/>
   </g>
   <g id="line2d_37">
    <path clip-path="url(#pb4c554ce4a)" d="M 155.210339 264.214604 
L 156.189582 259.426062 
L 157.329541 254.973391 
L 158.839518 249.061326 
L 159.749616 244.308922 
L 160.648502 238.385337 
L 161.769772 229.544361 
L 165.249448 200.782152 
L 166.185709 195.689874 
L 167.189247 191.381162 
L 168.170358 188.31129 
L 169.433656 184.280259 
L 170.569877 179.370411 
L 171.997628 171.991498 
L 173.279614 165.76121 
L 174.122436 162.737354 
L 174.944701 160.630754 
L 175.658577 159.439341 
L 176.688277 158.107753 
L 177.321795 157.181026 
L 178.130978 155.711486 
L 180.590298 150.784154 
L 183.993355 143.411436 
L 185.379993 140.565539 
L 186.26019 139.212446 
L 188.149531 137.031898 
L 189.128774 136.156661 
L 189.73426 135.911848 
L 190.34909 135.856798 
L 191.023721 135.94886 
L 191.545112 136.214833 
L 192.096403 136.660504 
L 192.845786 137.606843 
L 193.836241 139.476778 
L 195.88256 143.402233 
L 196.721644 144.525133 
L 197.839177 145.628567 
L 198.519415 145.963028 
L 199.917265 146.333137 
L 200.591896 146.324577 
L 201.044142 146.106865 
L 202.028991 145.388296 
L 203.567001 143.982011 
L 204.845249 142.45882 
L 205.9198 141.164921 
L 206.515942 140.73066 
L 207.10461 140.585487 
L 207.639082 140.759205 
L 208.491247 141.299907 
L 211.206591 143.315375 
L 212.297961 143.589151 
L 213.284679 144.02454 
L 214.839508 144.719389 
L 215.730918 144.754884 
L 216.349485 144.582647 
L 217.138112 144.001495 
L 218.102405 142.885505 
L 219.890831 140.822606 
L 220.296358 140.776342 
L 220.675721 140.90756 
L 221.170949 141.389673 
L 221.666176 142.110763 
L 222.53703 143.892019 
L 223.458341 146.451811 
L 224.469353 149.878707 
L 225.560723 154.263094 
L 227.889228 163.724792 
L 228.971254 166.994309 
L 230.488707 171.760481 
L 231.59129 176.152134 
L 232.82095 181.798654 
L 234.31224 190.193429 
L 236.308101 201.28204 
L 237.881617 208.994035 
L 239.694338 216.441804 
L 240.770758 221.55912 
L 241.607973 226.751136 
L 242.559185 233.9939 
L 245.965978 261.429923 
L 247.36196 269.971017 
L 248.39166 275.046512 
L 249.602632 279.987105 
L 249.998815 281.480746 
L 249.998815 281.480746 
" style="fill:none;stroke:#bcbd22;stroke-linecap:square;stroke-width:2;"/>
   </g>
   <g id="patch_3">
    <path d="M 57.6 307.584 
L 57.6 41.472 
" style="fill:none;stroke:#000000;stroke-linecap:square;stroke-linejoin:miter;stroke-width:0.8;"/>
   </g>
   <g id="patch_4">
    <path d="M 343.296 307.584 
L 343.296 41.472 
" style="fill:none;stroke:#000000;stroke-linecap:square;stroke-linejoin:miter;stroke-width:0.8;"/>
   </g>
   <g id="patch_5">
    <path d="M 57.6 307.584 
L 343.296 307.584 
" style="fill:none;stroke:#000000;stroke-linecap:square;stroke-linejoin:miter;stroke-width:0.8;"/>
   </g>
   <g id="patch_6">
    <path d="M 57.6 41.472 
L 343.296 41.472 
" style="fill:none;stroke:#000000;stroke-linecap:square;stroke-linejoin:miter;stroke-width:0.8;"/>
   </g>
  </g>
  <g id="axes_2">
   <g id="patch_7">
    <path clip-path="url(#p0120796216)" d="M 361.152 307.584 
L 361.152 294.2784 
L 361.152 54.7776 
L 361.152 41.472 
L 374.4576 41.472 
L 374.4576 54.7776 
L 374.4576 294.2784 
L 374.4576 307.584 
z
" style="fill:#ffffff;stroke:#ffffff;stroke-linejoin:miter;stroke-width:0.01;"/>
   </g>
   <g id="QuadMesh_1">
    <path clip-path="url(#p0120796216)" d="M 361.152 307.584 
L 374.4576 307.584 
L 374.4576 294.2784 
L 361.152 294.2784 
L 361.152 307.584 
" style="fill:#1f77b4;"/>
    <path clip-path="url(#p0120796216)" d="M 361.152 294.2784 
L 374.4576 294.2784 
L 374.4576 280.9728 
L 361.152 280.9728 
L 361.152 294.2784 
" style="fill:#aec7e8;"/>
    <path clip-path="url(#p0120796216)" d="M 361.152 280.9728 
L 374.4576 280.9728 
L 374.4576 267.6672 
L 361.152 267.6672 
L 361.152 280.9728 
" style="fill:#ff7f0e;"/>
    <path clip-path="url(#p0120796216)" d="M 361.152 267.6672 
L 374.4576 267.6672 
L 374.4576 254.3616 
L 361.152 254.3616 
L 361.152 267.6672 
" style="fill:#ffbb78;"/>
    <path clip-path="url(#p0120796216)" d="M 361.152 254.3616 
L 374.4576 254.3616 
L 374.4576 241.056 
L 361.152 241.056 
L 361.152 254.3616 
" style="fill:#2ca02c;"/>
    <path clip-path="url(#p0120796216)" d="M 361.152 241.056 
L 374.4576 241.056 
L 374.4576 227.7504 
L 361.152 227.7504 
L 361.152 241.056 
" style="fill:#98df8a;"/>
    <path clip-path="url(#p0120796216)" d="M 361.152 227.7504 
L 374.4576 227.7504 
L 374.4576 214.4448 
L 361.152 214.4448 
L 361.152 227.7504 
" style="fill:#d62728;"/>
    <path clip-path="url(#p0120796216)" d="M 361.152 214.4448 
L 374.4576 214.4448 
L 374.4576 201.1392 
L 361.152 201.1392 
L 361.152 214.4448 
" style="fill:#ff9896;"/>
    <path clip-path="url(#p0120796216)" d="M 361.152 201.1392 
L 374.4576 201.1392 
L 374.4576 187.8336 
L 361.152 187.8336 
L 361.152 201.1392 
" style="fill:#9467bd;"/>
    <path clip-path="url(#p0120796216)" d="M 361.152 187.8336 
L 374.4576 187.8336 
L 374.4576 174.528 
L 361.152 174.528 
L 361.152 187.8336 
" style="fill:#c5b0d5;"/>
    <path clip-path="url(#p0120796216)" d="M 361.152 174.528 
L 374.4576 174.528 
L 374.4576 161.2224 
L 361.152 161.2224 
L 361.152 174.528 
" style="fill:#8c564b;"/>
    <path clip-path="url(#p0120796216)" d="M 361.152 161.2224 
L 374.4576 161.2224 
L 374.4576 147.9168 
L 361.152 147.9168 
L 361.152 161.2224 
" style="fill:#c49c94;"/>
    <path clip-path="url(#p0120796216)" d="M 361.152 147.9168 
L 374.4576 147.9168 
L 374.4576 134.6112 
L 361.152 134.6112 
L 361.152 147.9168 
" style="fill:#e377c2;"/>
    <path clip-path="url(#p0120796216)" d="M 361.152 134.6112 
L 374.4576 134.6112 
L 374.4576 121.3056 
L 361.152 121.3056 
L 361.152 134.6112 
" style="fill:#f7b6d2;"/>
    <path clip-path="url(#p0120796216)" d="M 361.152 121.3056 
L 374.4576 121.3056 
L 374.4576 108 
L 361.152 108 
L 361.152 121.3056 
" style="fill:#7f7f7f;"/>
    <path clip-path="url(#p0120796216)" d="M 361.152 108 
L 374.4576 108 
L 374.4576 94.6944 
L 361.152 94.6944 
L 361.152 108 
" style="fill:#c7c7c7;"/>
    <path clip-path="url(#p0120796216)" d="M 361.152 94.6944 
L 374.4576 94.6944 
L 374.4576 81.3888 
L 361.152 81.3888 
L 361.152 94.6944 
" style="fill:#bcbd22;"/>
    <path clip-path="url(#p0120796216)" d="M 361.152 81.3888 
L 374.4576 81.3888 
L 374.4576 68.0832 
L 361.152 68.0832 
L 361.152 81.3888 
" style="fill:#dbdb8d;"/>
    <path clip-path="url(#p0120796216)" d="M 361.152 68.0832 
L 374.4576 68.0832 
L 374.4576 54.7776 
L 361.152 54.7776 
L 361.152 68.0832 
" style="fill:#17becf;"/>
    <path clip-path="url(#p0120796216)" d="M 361.152 54.7776 
L 374.4576 54.7776 
L 374.4576 41.472 
L 361.152 41.472 
L 361.152 54.7776 
" style="fill:#9edae5;"/>
   </g>
   <g id="matplotlib.axis_3"/>
   <g id="matplotlib.axis_4">
    <g id="ytick_10">
     <g id="line2d_38">
      <defs>
       <path d="M 0 0 
L 3.5 0 
" id="m7f850a4c6c" style="stroke:#000000;stroke-width:0.8;"/>
      </defs>
      <g>
       <use style="stroke:#000000;stroke-width:0.8;" x="374.4576" xlink:href="#m7f850a4c6c" y="254.916"/>
      </g>
     </g>
     <g id="text_20">
      <!-- 20 -->
      <g transform="translate(381.4576 258.715219)scale(0.1 -0.1)">
       <use xlink:href="#DejaVuSans-50"/>
       <use x="63.623047" xlink:href="#DejaVuSans-48"/>
      </g>
     </g>
    </g>
    <g id="ytick_11">
     <g id="line2d_39">
      <g>
       <use style="stroke:#000000;stroke-width:0.8;" x="374.4576" xlink:href="#m7f850a4c6c" y="199.476"/>
      </g>
     </g>
     <g id="text_21">
      <!-- 40 -->
      <g transform="translate(381.4576 203.275219)scale(0.1 -0.1)">
       <use xlink:href="#DejaVuSans-52"/>
       <use x="63.623047" xlink:href="#DejaVuSans-48"/>
      </g>
     </g>
    </g>
    <g id="ytick_12">
     <g id="line2d_40">
      <g>
       <use style="stroke:#000000;stroke-width:0.8;" x="374.4576" xlink:href="#m7f850a4c6c" y="144.036"/>
      </g>
     </g>
     <g id="text_22">
      <!-- 60 -->
      <g transform="translate(381.4576 147.835219)scale(0.1 -0.1)">
       <use xlink:href="#DejaVuSans-54"/>
       <use x="63.623047" xlink:href="#DejaVuSans-48"/>
      </g>
     </g>
    </g>
    <g id="ytick_13">
     <g id="line2d_41">
      <g>
       <use style="stroke:#000000;stroke-width:0.8;" x="374.4576" xlink:href="#m7f850a4c6c" y="88.596"/>
      </g>
     </g>
     <g id="text_23">
      <!-- 80 -->
      <g transform="translate(381.4576 92.395219)scale(0.1 -0.1)">
       <use xlink:href="#DejaVuSans-56"/>
       <use x="63.623047" xlink:href="#DejaVuSans-48"/>
      </g>
     </g>
    </g>
   </g>
   <g id="patch_8">
    <path d="M 361.152 307.584 
L 361.152 294.2784 
L 361.152 54.7776 
L 361.152 41.472 
L 374.4576 41.472 
L 374.4576 54.7776 
L 374.4576 294.2784 
L 374.4576 307.584 
z
" style="fill:none;stroke:#000000;stroke-linejoin:miter;stroke-width:0.8;"/>
   </g>
  </g>
 </g>
 <defs>
  <clipPath id="pb4c554ce4a">
   <rect height="266.112" width="285.696" x="57.6" y="41.472"/>
  </clipPath>
  <clipPath id="p0120796216">
   <rect height="266.112" width="13.3056" x="361.152" y="41.472"/>
  </clipPath>
 </defs>
</svg>
