<?xml version="1.0" encoding="utf-8" standalone="no"?>
<!DOCTYPE svg PUBLIC "-//W3C//DTD SVG 1.1//EN"
  "http://www.w3.org/Graphics/SVG/1.1/DTD/svg11.dtd">
<!-- Created with matplotlib (https://matplotlib.org/) -->
<svg height="345.6pt" version="1.1" viewBox="0 0 460.8 345.6" width="460.8pt" xmlns="http://www.w3.org/2000/svg" xmlns:xlink="http://www.w3.org/1999/xlink">
 <defs>
  <style type="text/css">
*{stroke-linecap:butt;stroke-linejoin:round;}
  </style>
 </defs>
 <g id="figure_1">
  <g id="patch_1">
   <path d="M 0 345.6 
L 460.8 345.6 
L 460.8 0 
L 0 0 
z
" style="fill:#ffffff;"/>
  </g>
  <g id="axes_1">
   <g id="patch_2">
    <path d="M 57.6 307.584 
L 343.296 307.584 
L 343.296 41.472 
L 57.6 41.472 
z
" style="fill:#ffffff;"/>
   </g>
   <g id="matplotlib.axis_1">
    <g id="xtick_1">
     <g id="line2d_1">
      <defs>
       <path d="M 0 0 
L 0 3.5 
" id="m88a848f43b" style="stroke:#000000;stroke-width:0.8;"/>
      </defs>
      <g>
       <use style="stroke:#000000;stroke-width:0.8;" x="62.705838" xlink:href="#m88a848f43b" y="307.584"/>
      </g>
     </g>
     <g id="text_1">
      <!-- 0 -->
      <defs>
       <path d="M 31.78125 66.40625 
Q 24.171875 66.40625 20.328125 58.90625 
Q 16.5 51.421875 16.5 36.375 
Q 16.5 21.390625 20.328125 13.890625 
Q 24.171875 6.390625 31.78125 6.390625 
Q 39.453125 6.390625 43.28125 13.890625 
Q 47.125 21.390625 47.125 36.375 
Q 47.125 51.421875 43.28125 58.90625 
Q 39.453125 66.40625 31.78125 66.40625 
z
M 31.78125 74.21875 
Q 44.046875 74.21875 50.515625 64.515625 
Q 56.984375 54.828125 56.984375 36.375 
Q 56.984375 17.96875 50.515625 8.265625 
Q 44.046875 -1.421875 31.78125 -1.421875 
Q 19.53125 -1.421875 13.0625 8.265625 
Q 6.59375 17.96875 6.59375 36.375 
Q 6.59375 54.828125 13.0625 64.515625 
Q 19.53125 74.21875 31.78125 74.21875 
z
" id="DejaVuSans-48"/>
      </defs>
      <g transform="translate(59.524588 322.182437)scale(0.1 -0.1)">
       <use xlink:href="#DejaVuSans-48"/>
      </g>
     </g>
    </g>
    <g id="xtick_2">
     <g id="line2d_2">
      <g>
       <use style="stroke:#000000;stroke-width:0.8;" x="123.959968" xlink:href="#m88a848f43b" y="307.584"/>
      </g>
     </g>
     <g id="text_2">
      <!-- 2000 -->
      <defs>
       <path d="M 19.1875 8.296875 
L 53.609375 8.296875 
L 53.609375 0 
L 7.328125 0 
L 7.328125 8.296875 
Q 12.9375 14.109375 22.625 23.890625 
Q 32.328125 33.6875 34.8125 36.53125 
Q 39.546875 41.84375 41.421875 45.53125 
Q 43.3125 49.21875 43.3125 52.78125 
Q 43.3125 58.59375 39.234375 62.25 
Q 35.15625 65.921875 28.609375 65.921875 
Q 23.96875 65.921875 18.8125 64.3125 
Q 13.671875 62.703125 7.8125 59.421875 
L 7.8125 69.390625 
Q 13.765625 71.78125 18.9375 73 
Q 24.125 74.21875 28.421875 74.21875 
Q 39.75 74.21875 46.484375 68.546875 
Q 53.21875 62.890625 53.21875 53.421875 
Q 53.21875 48.921875 51.53125 44.890625 
Q 49.859375 40.875 45.40625 35.40625 
Q 44.1875 33.984375 37.640625 27.21875 
Q 31.109375 20.453125 19.1875 8.296875 
z
" id="DejaVuSans-50"/>
      </defs>
      <g transform="translate(111.234968 322.182437)scale(0.1 -0.1)">
       <use xlink:href="#DejaVuSans-50"/>
       <use x="63.623047" xlink:href="#DejaVuSans-48"/>
       <use x="127.246094" xlink:href="#DejaVuSans-48"/>
       <use x="190.869141" xlink:href="#DejaVuSans-48"/>
      </g>
     </g>
    </g>
    <g id="xtick_3">
     <g id="line2d_3">
      <g>
       <use style="stroke:#000000;stroke-width:0.8;" x="185.214098" xlink:href="#m88a848f43b" y="307.584"/>
      </g>
     </g>
     <g id="text_3">
      <!-- 4000 -->
      <defs>
       <path d="M 37.796875 64.3125 
L 12.890625 25.390625 
L 37.796875 25.390625 
z
M 35.203125 72.90625 
L 47.609375 72.90625 
L 47.609375 25.390625 
L 58.015625 25.390625 
L 58.015625 17.1875 
L 47.609375 17.1875 
L 47.609375 0 
L 37.796875 0 
L 37.796875 17.1875 
L 4.890625 17.1875 
L 4.890625 26.703125 
z
" id="DejaVuSans-52"/>
      </defs>
      <g transform="translate(172.489098 322.182437)scale(0.1 -0.1)">
       <use xlink:href="#DejaVuSans-52"/>
       <use x="63.623047" xlink:href="#DejaVuSans-48"/>
       <use x="127.246094" xlink:href="#DejaVuSans-48"/>
       <use x="190.869141" xlink:href="#DejaVuSans-48"/>
      </g>
     </g>
    </g>
    <g id="xtick_4">
     <g id="line2d_4">
      <g>
       <use style="stroke:#000000;stroke-width:0.8;" x="246.468228" xlink:href="#m88a848f43b" y="307.584"/>
      </g>
     </g>
     <g id="text_4">
      <!-- 6000 -->
      <defs>
       <path d="M 33.015625 40.375 
Q 26.375 40.375 22.484375 35.828125 
Q 18.609375 31.296875 18.609375 23.390625 
Q 18.609375 15.53125 22.484375 10.953125 
Q 26.375 6.390625 33.015625 6.390625 
Q 39.65625 6.390625 43.53125 10.953125 
Q 47.40625 15.53125 47.40625 23.390625 
Q 47.40625 31.296875 43.53125 35.828125 
Q 39.65625 40.375 33.015625 40.375 
z
M 52.59375 71.296875 
L 52.59375 62.3125 
Q 48.875 64.0625 45.09375 64.984375 
Q 41.3125 65.921875 37.59375 65.921875 
Q 27.828125 65.921875 22.671875 59.328125 
Q 17.53125 52.734375 16.796875 39.40625 
Q 19.671875 43.65625 24.015625 45.921875 
Q 28.375 48.1875 33.59375 48.1875 
Q 44.578125 48.1875 50.953125 41.515625 
Q 57.328125 34.859375 57.328125 23.390625 
Q 57.328125 12.15625 50.6875 5.359375 
Q 44.046875 -1.421875 33.015625 -1.421875 
Q 20.359375 -1.421875 13.671875 8.265625 
Q 6.984375 17.96875 6.984375 36.375 
Q 6.984375 53.65625 15.1875 63.9375 
Q 23.390625 74.21875 37.203125 74.21875 
Q 40.921875 74.21875 44.703125 73.484375 
Q 48.484375 72.75 52.59375 71.296875 
z
" id="DejaVuSans-54"/>
      </defs>
      <g transform="translate(233.743228 322.182437)scale(0.1 -0.1)">
       <use xlink:href="#DejaVuSans-54"/>
       <use x="63.623047" xlink:href="#DejaVuSans-48"/>
       <use x="127.246094" xlink:href="#DejaVuSans-48"/>
       <use x="190.869141" xlink:href="#DejaVuSans-48"/>
      </g>
     </g>
    </g>
    <g id="xtick_5">
     <g id="line2d_5">
      <g>
       <use style="stroke:#000000;stroke-width:0.8;" x="307.722358" xlink:href="#m88a848f43b" y="307.584"/>
      </g>
     </g>
     <g id="text_5">
      <!-- 8000 -->
      <defs>
       <path d="M 31.78125 34.625 
Q 24.75 34.625 20.71875 30.859375 
Q 16.703125 27.09375 16.703125 20.515625 
Q 16.703125 13.921875 20.71875 10.15625 
Q 24.75 6.390625 31.78125 6.390625 
Q 38.8125 6.390625 42.859375 10.171875 
Q 46.921875 13.96875 46.921875 20.515625 
Q 46.921875 27.09375 42.890625 30.859375 
Q 38.875 34.625 31.78125 34.625 
z
M 21.921875 38.8125 
Q 15.578125 40.375 12.03125 44.71875 
Q 8.5 49.078125 8.5 55.328125 
Q 8.5 64.0625 14.71875 69.140625 
Q 20.953125 74.21875 31.78125 74.21875 
Q 42.671875 74.21875 48.875 69.140625 
Q 55.078125 64.0625 55.078125 55.328125 
Q 55.078125 49.078125 51.53125 44.71875 
Q 48 40.375 41.703125 38.8125 
Q 48.828125 37.15625 52.796875 32.3125 
Q 56.78125 27.484375 56.78125 20.515625 
Q 56.78125 9.90625 50.3125 4.234375 
Q 43.84375 -1.421875 31.78125 -1.421875 
Q 19.734375 -1.421875 13.25 4.234375 
Q 6.78125 9.90625 6.78125 20.515625 
Q 6.78125 27.484375 10.78125 32.3125 
Q 14.796875 37.15625 21.921875 38.8125 
z
M 18.3125 54.390625 
Q 18.3125 48.734375 21.84375 45.5625 
Q 25.390625 42.390625 31.78125 42.390625 
Q 38.140625 42.390625 41.71875 45.5625 
Q 45.3125 48.734375 45.3125 54.390625 
Q 45.3125 60.0625 41.71875 63.234375 
Q 38.140625 66.40625 31.78125 66.40625 
Q 25.390625 66.40625 21.84375 63.234375 
Q 18.3125 60.0625 18.3125 54.390625 
z
" id="DejaVuSans-56"/>
      </defs>
      <g transform="translate(294.997358 322.182437)scale(0.1 -0.1)">
       <use xlink:href="#DejaVuSans-56"/>
       <use x="63.623047" xlink:href="#DejaVuSans-48"/>
       <use x="127.246094" xlink:href="#DejaVuSans-48"/>
       <use x="190.869141" xlink:href="#DejaVuSans-48"/>
      </g>
     </g>
    </g>
    <g id="text_6">
     <!-- Tempo (ms) -->
     <defs>
      <path d="M -0.296875 72.90625 
L 61.375 72.90625 
L 61.375 64.59375 
L 35.5 64.59375 
L 35.5 0 
L 25.59375 0 
L 25.59375 64.59375 
L -0.296875 64.59375 
z
" id="DejaVuSans-84"/>
      <path d="M 56.203125 29.59375 
L 56.203125 25.203125 
L 14.890625 25.203125 
Q 15.484375 15.921875 20.484375 11.0625 
Q 25.484375 6.203125 34.421875 6.203125 
Q 39.59375 6.203125 44.453125 7.46875 
Q 49.3125 8.734375 54.109375 11.28125 
L 54.109375 2.78125 
Q 49.265625 0.734375 44.1875 -0.34375 
Q 39.109375 -1.421875 33.890625 -1.421875 
Q 20.796875 -1.421875 13.15625 6.1875 
Q 5.515625 13.8125 5.515625 26.8125 
Q 5.515625 40.234375 12.765625 48.109375 
Q 20.015625 56 32.328125 56 
Q 43.359375 56 49.78125 48.890625 
Q 56.203125 41.796875 56.203125 29.59375 
z
M 47.21875 32.234375 
Q 47.125 39.59375 43.09375 43.984375 
Q 39.0625 48.390625 32.421875 48.390625 
Q 24.90625 48.390625 20.390625 44.140625 
Q 15.875 39.890625 15.1875 32.171875 
z
" id="DejaVuSans-101"/>
      <path d="M 52 44.1875 
Q 55.375 50.25 60.0625 53.125 
Q 64.75 56 71.09375 56 
Q 79.640625 56 84.28125 50.015625 
Q 88.921875 44.046875 88.921875 33.015625 
L 88.921875 0 
L 79.890625 0 
L 79.890625 32.71875 
Q 79.890625 40.578125 77.09375 44.375 
Q 74.3125 48.1875 68.609375 48.1875 
Q 61.625 48.1875 57.5625 43.546875 
Q 53.515625 38.921875 53.515625 30.90625 
L 53.515625 0 
L 44.484375 0 
L 44.484375 32.71875 
Q 44.484375 40.625 41.703125 44.40625 
Q 38.921875 48.1875 33.109375 48.1875 
Q 26.21875 48.1875 22.15625 43.53125 
Q 18.109375 38.875 18.109375 30.90625 
L 18.109375 0 
L 9.078125 0 
L 9.078125 54.6875 
L 18.109375 54.6875 
L 18.109375 46.1875 
Q 21.1875 51.21875 25.484375 53.609375 
Q 29.78125 56 35.6875 56 
Q 41.65625 56 45.828125 52.96875 
Q 50 49.953125 52 44.1875 
z
" id="DejaVuSans-109"/>
      <path d="M 18.109375 8.203125 
L 18.109375 -20.796875 
L 9.078125 -20.796875 
L 9.078125 54.6875 
L 18.109375 54.6875 
L 18.109375 46.390625 
Q 20.953125 51.265625 25.265625 53.625 
Q 29.59375 56 35.59375 56 
Q 45.5625 56 51.78125 48.09375 
Q 58.015625 40.1875 58.015625 27.296875 
Q 58.015625 14.40625 51.78125 6.484375 
Q 45.5625 -1.421875 35.59375 -1.421875 
Q 29.59375 -1.421875 25.265625 0.953125 
Q 20.953125 3.328125 18.109375 8.203125 
z
M 48.6875 27.296875 
Q 48.6875 37.203125 44.609375 42.84375 
Q 40.53125 48.484375 33.40625 48.484375 
Q 26.265625 48.484375 22.1875 42.84375 
Q 18.109375 37.203125 18.109375 27.296875 
Q 18.109375 17.390625 22.1875 11.75 
Q 26.265625 6.109375 33.40625 6.109375 
Q 40.53125 6.109375 44.609375 11.75 
Q 48.6875 17.390625 48.6875 27.296875 
z
" id="DejaVuSans-112"/>
      <path d="M 30.609375 48.390625 
Q 23.390625 48.390625 19.1875 42.75 
Q 14.984375 37.109375 14.984375 27.296875 
Q 14.984375 17.484375 19.15625 11.84375 
Q 23.34375 6.203125 30.609375 6.203125 
Q 37.796875 6.203125 41.984375 11.859375 
Q 46.1875 17.53125 46.1875 27.296875 
Q 46.1875 37.015625 41.984375 42.703125 
Q 37.796875 48.390625 30.609375 48.390625 
z
M 30.609375 56 
Q 42.328125 56 49.015625 48.375 
Q 55.71875 40.765625 55.71875 27.296875 
Q 55.71875 13.875 49.015625 6.21875 
Q 42.328125 -1.421875 30.609375 -1.421875 
Q 18.84375 -1.421875 12.171875 6.21875 
Q 5.515625 13.875 5.515625 27.296875 
Q 5.515625 40.765625 12.171875 48.375 
Q 18.84375 56 30.609375 56 
z
" id="DejaVuSans-111"/>
      <path id="DejaVuSans-32"/>
      <path d="M 31 75.875 
Q 24.46875 64.65625 21.28125 53.65625 
Q 18.109375 42.671875 18.109375 31.390625 
Q 18.109375 20.125 21.3125 9.0625 
Q 24.515625 -2 31 -13.1875 
L 23.1875 -13.1875 
Q 15.875 -1.703125 12.234375 9.375 
Q 8.59375 20.453125 8.59375 31.390625 
Q 8.59375 42.28125 12.203125 53.3125 
Q 15.828125 64.359375 23.1875 75.875 
z
" id="DejaVuSans-40"/>
      <path d="M 44.28125 53.078125 
L 44.28125 44.578125 
Q 40.484375 46.53125 36.375 47.5 
Q 32.28125 48.484375 27.875 48.484375 
Q 21.1875 48.484375 17.84375 46.4375 
Q 14.5 44.390625 14.5 40.28125 
Q 14.5 37.15625 16.890625 35.375 
Q 19.28125 33.59375 26.515625 31.984375 
L 29.59375 31.296875 
Q 39.15625 29.25 43.1875 25.515625 
Q 47.21875 21.78125 47.21875 15.09375 
Q 47.21875 7.46875 41.1875 3.015625 
Q 35.15625 -1.421875 24.609375 -1.421875 
Q 20.21875 -1.421875 15.453125 -0.5625 
Q 10.6875 0.296875 5.421875 2 
L 5.421875 11.28125 
Q 10.40625 8.6875 15.234375 7.390625 
Q 20.0625 6.109375 24.8125 6.109375 
Q 31.15625 6.109375 34.5625 8.28125 
Q 37.984375 10.453125 37.984375 14.40625 
Q 37.984375 18.0625 35.515625 20.015625 
Q 33.0625 21.96875 24.703125 23.78125 
L 21.578125 24.515625 
Q 13.234375 26.265625 9.515625 29.90625 
Q 5.8125 33.546875 5.8125 39.890625 
Q 5.8125 47.609375 11.28125 51.796875 
Q 16.75 56 26.8125 56 
Q 31.78125 56 36.171875 55.265625 
Q 40.578125 54.546875 44.28125 53.078125 
z
" id="DejaVuSans-115"/>
      <path d="M 8.015625 75.875 
L 15.828125 75.875 
Q 23.140625 64.359375 26.78125 53.3125 
Q 30.421875 42.28125 30.421875 31.390625 
Q 30.421875 20.453125 26.78125 9.375 
Q 23.140625 -1.703125 15.828125 -13.1875 
L 8.015625 -13.1875 
Q 14.5 -2 17.703125 9.0625 
Q 20.90625 20.125 20.90625 31.390625 
Q 20.90625 42.671875 17.703125 53.65625 
Q 14.5 64.65625 8.015625 75.875 
z
" id="DejaVuSans-41"/>
     </defs>
     <g transform="translate(170.261281 335.860562)scale(0.1 -0.1)">
      <use xlink:href="#DejaVuSans-84"/>
      <use x="60.818359" xlink:href="#DejaVuSans-101"/>
      <use x="122.341797" xlink:href="#DejaVuSans-109"/>
      <use x="219.753906" xlink:href="#DejaVuSans-112"/>
      <use x="283.230469" xlink:href="#DejaVuSans-111"/>
      <use x="344.412109" xlink:href="#DejaVuSans-32"/>
      <use x="376.199219" xlink:href="#DejaVuSans-40"/>
      <use x="415.212891" xlink:href="#DejaVuSans-109"/>
      <use x="512.625" xlink:href="#DejaVuSans-115"/>
      <use x="564.724609" xlink:href="#DejaVuSans-41"/>
     </g>
    </g>
   </g>
   <g id="matplotlib.axis_2">
    <g id="ytick_1">
     <g id="line2d_6">
      <defs>
       <path d="M 0 0 
L -3.5 0 
" id="mfd9536d15d" style="stroke:#000000;stroke-width:0.8;"/>
      </defs>
      <g>
       <use style="stroke:#000000;stroke-width:0.8;" x="57.6" xlink:href="#mfd9536d15d" y="307.584"/>
      </g>
     </g>
     <g id="text_7">
      <!-- 0 -->
      <g transform="translate(44.2375 311.383219)scale(0.1 -0.1)">
       <use xlink:href="#DejaVuSans-48"/>
      </g>
     </g>
    </g>
    <g id="ytick_2">
     <g id="line2d_7">
      <g>
       <use style="stroke:#000000;stroke-width:0.8;" x="57.6" xlink:href="#mfd9536d15d" y="272.1024"/>
      </g>
     </g>
     <g id="text_8">
      <!-- 20 -->
      <g transform="translate(37.875 275.901619)scale(0.1 -0.1)">
       <use xlink:href="#DejaVuSans-50"/>
       <use x="63.623047" xlink:href="#DejaVuSans-48"/>
      </g>
     </g>
    </g>
    <g id="ytick_3">
     <g id="line2d_8">
      <g>
       <use style="stroke:#000000;stroke-width:0.8;" x="57.6" xlink:href="#mfd9536d15d" y="236.6208"/>
      </g>
     </g>
     <g id="text_9">
      <!-- 40 -->
      <g transform="translate(37.875 240.420019)scale(0.1 -0.1)">
       <use xlink:href="#DejaVuSans-52"/>
       <use x="63.623047" xlink:href="#DejaVuSans-48"/>
      </g>
     </g>
    </g>
    <g id="ytick_4">
     <g id="line2d_9">
      <g>
       <use style="stroke:#000000;stroke-width:0.8;" x="57.6" xlink:href="#mfd9536d15d" y="201.1392"/>
      </g>
     </g>
     <g id="text_10">
      <!-- 60 -->
      <g transform="translate(37.875 204.938419)scale(0.1 -0.1)">
       <use xlink:href="#DejaVuSans-54"/>
       <use x="63.623047" xlink:href="#DejaVuSans-48"/>
      </g>
     </g>
    </g>
    <g id="ytick_5">
     <g id="line2d_10">
      <g>
       <use style="stroke:#000000;stroke-width:0.8;" x="57.6" xlink:href="#mfd9536d15d" y="165.6576"/>
      </g>
     </g>
     <g id="text_11">
      <!-- 80 -->
      <g transform="translate(37.875 169.456819)scale(0.1 -0.1)">
       <use xlink:href="#DejaVuSans-56"/>
       <use x="63.623047" xlink:href="#DejaVuSans-48"/>
      </g>
     </g>
    </g>
    <g id="ytick_6">
     <g id="line2d_11">
      <g>
       <use style="stroke:#000000;stroke-width:0.8;" x="57.6" xlink:href="#mfd9536d15d" y="130.176"/>
      </g>
     </g>
     <g id="text_12">
      <!-- 100 -->
      <defs>
       <path d="M 12.40625 8.296875 
L 28.515625 8.296875 
L 28.515625 63.921875 
L 10.984375 60.40625 
L 10.984375 69.390625 
L 28.421875 72.90625 
L 38.28125 72.90625 
L 38.28125 8.296875 
L 54.390625 8.296875 
L 54.390625 0 
L 12.40625 0 
z
" id="DejaVuSans-49"/>
      </defs>
      <g transform="translate(31.5125 133.975219)scale(0.1 -0.1)">
       <use xlink:href="#DejaVuSans-49"/>
       <use x="63.623047" xlink:href="#DejaVuSans-48"/>
       <use x="127.246094" xlink:href="#DejaVuSans-48"/>
      </g>
     </g>
    </g>
    <g id="ytick_7">
     <g id="line2d_12">
      <g>
       <use style="stroke:#000000;stroke-width:0.8;" x="57.6" xlink:href="#mfd9536d15d" y="94.6944"/>
      </g>
     </g>
     <g id="text_13">
      <!-- 120 -->
      <g transform="translate(31.5125 98.493619)scale(0.1 -0.1)">
       <use xlink:href="#DejaVuSans-49"/>
       <use x="63.623047" xlink:href="#DejaVuSans-50"/>
       <use x="127.246094" xlink:href="#DejaVuSans-48"/>
      </g>
     </g>
    </g>
    <g id="ytick_8">
     <g id="line2d_13">
      <g>
       <use style="stroke:#000000;stroke-width:0.8;" x="57.6" xlink:href="#mfd9536d15d" y="59.2128"/>
      </g>
     </g>
     <g id="text_14">
      <!-- 140 -->
      <g transform="translate(31.5125 63.012019)scale(0.1 -0.1)">
       <use xlink:href="#DejaVuSans-49"/>
       <use x="63.623047" xlink:href="#DejaVuSans-52"/>
       <use x="127.246094" xlink:href="#DejaVuSans-48"/>
      </g>
     </g>
    </g>
    <g id="text_15">
     <!-- Taxa de disparo (pps) -->
     <defs>
      <path d="M 34.28125 27.484375 
Q 23.390625 27.484375 19.1875 25 
Q 14.984375 22.515625 14.984375 16.5 
Q 14.984375 11.71875 18.140625 8.90625 
Q 21.296875 6.109375 26.703125 6.109375 
Q 34.1875 6.109375 38.703125 11.40625 
Q 43.21875 16.703125 43.21875 25.484375 
L 43.21875 27.484375 
z
M 52.203125 31.203125 
L 52.203125 0 
L 43.21875 0 
L 43.21875 8.296875 
Q 40.140625 3.328125 35.546875 0.953125 
Q 30.953125 -1.421875 24.3125 -1.421875 
Q 15.921875 -1.421875 10.953125 3.296875 
Q 6 8.015625 6 15.921875 
Q 6 25.140625 12.171875 29.828125 
Q 18.359375 34.515625 30.609375 34.515625 
L 43.21875 34.515625 
L 43.21875 35.40625 
Q 43.21875 41.609375 39.140625 45 
Q 35.0625 48.390625 27.6875 48.390625 
Q 23 48.390625 18.546875 47.265625 
Q 14.109375 46.140625 10.015625 43.890625 
L 10.015625 52.203125 
Q 14.9375 54.109375 19.578125 55.046875 
Q 24.21875 56 28.609375 56 
Q 40.484375 56 46.34375 49.84375 
Q 52.203125 43.703125 52.203125 31.203125 
z
" id="DejaVuSans-97"/>
      <path d="M 54.890625 54.6875 
L 35.109375 28.078125 
L 55.90625 0 
L 45.3125 0 
L 29.390625 21.484375 
L 13.484375 0 
L 2.875 0 
L 24.125 28.609375 
L 4.6875 54.6875 
L 15.28125 54.6875 
L 29.78125 35.203125 
L 44.28125 54.6875 
z
" id="DejaVuSans-120"/>
      <path d="M 45.40625 46.390625 
L 45.40625 75.984375 
L 54.390625 75.984375 
L 54.390625 0 
L 45.40625 0 
L 45.40625 8.203125 
Q 42.578125 3.328125 38.25 0.953125 
Q 33.9375 -1.421875 27.875 -1.421875 
Q 17.96875 -1.421875 11.734375 6.484375 
Q 5.515625 14.40625 5.515625 27.296875 
Q 5.515625 40.1875 11.734375 48.09375 
Q 17.96875 56 27.875 56 
Q 33.9375 56 38.25 53.625 
Q 42.578125 51.265625 45.40625 46.390625 
z
M 14.796875 27.296875 
Q 14.796875 17.390625 18.875 11.75 
Q 22.953125 6.109375 30.078125 6.109375 
Q 37.203125 6.109375 41.296875 11.75 
Q 45.40625 17.390625 45.40625 27.296875 
Q 45.40625 37.203125 41.296875 42.84375 
Q 37.203125 48.484375 30.078125 48.484375 
Q 22.953125 48.484375 18.875 42.84375 
Q 14.796875 37.203125 14.796875 27.296875 
z
" id="DejaVuSans-100"/>
      <path d="M 9.421875 54.6875 
L 18.40625 54.6875 
L 18.40625 0 
L 9.421875 0 
z
M 9.421875 75.984375 
L 18.40625 75.984375 
L 18.40625 64.59375 
L 9.421875 64.59375 
z
" id="DejaVuSans-105"/>
      <path d="M 41.109375 46.296875 
Q 39.59375 47.171875 37.8125 47.578125 
Q 36.03125 48 33.890625 48 
Q 26.265625 48 22.1875 43.046875 
Q 18.109375 38.09375 18.109375 28.8125 
L 18.109375 0 
L 9.078125 0 
L 9.078125 54.6875 
L 18.109375 54.6875 
L 18.109375 46.1875 
Q 20.953125 51.171875 25.484375 53.578125 
Q 30.03125 56 36.53125 56 
Q 37.453125 56 38.578125 55.875 
Q 39.703125 55.765625 41.0625 55.515625 
z
" id="DejaVuSans-114"/>
     </defs>
     <g transform="translate(25.432812 229.049094)rotate(-90)scale(0.1 -0.1)">
      <use xlink:href="#DejaVuSans-84"/>
      <use x="60.833984" xlink:href="#DejaVuSans-97"/>
      <use x="122.113281" xlink:href="#DejaVuSans-120"/>
      <use x="181.292969" xlink:href="#DejaVuSans-97"/>
      <use x="242.572266" xlink:href="#DejaVuSans-32"/>
      <use x="274.359375" xlink:href="#DejaVuSans-100"/>
      <use x="337.835938" xlink:href="#DejaVuSans-101"/>
      <use x="399.359375" xlink:href="#DejaVuSans-32"/>
      <use x="431.146484" xlink:href="#DejaVuSans-100"/>
      <use x="494.623047" xlink:href="#DejaVuSans-105"/>
      <use x="522.40625" xlink:href="#DejaVuSans-115"/>
      <use x="574.505859" xlink:href="#DejaVuSans-112"/>
      <use x="637.982422" xlink:href="#DejaVuSans-97"/>
      <use x="699.261719" xlink:href="#DejaVuSans-114"/>
      <use x="740.34375" xlink:href="#DejaVuSans-111"/>
      <use x="801.525391" xlink:href="#DejaVuSans-32"/>
      <use x="833.3125" xlink:href="#DejaVuSans-40"/>
      <use x="872.326172" xlink:href="#DejaVuSans-112"/>
      <use x="935.802734" xlink:href="#DejaVuSans-112"/>
      <use x="999.279297" xlink:href="#DejaVuSans-115"/>
      <use x="1051.378906" xlink:href="#DejaVuSans-41"/>
     </g>
    </g>
   </g>
   <g id="line2d_14">
    <path clip-path="url(#p72384b30c3)" d="M 130.149698 274.608083 
L 132.621302 249.930007 
L 133.742252 241.162839 
L 134.586028 236.163274 
L 135.487995 232.192605 
L 137.005566 226.756118 
L 139.037672 220.596126 
L 141.686913 212.09955 
L 145.114082 199.129655 
L 146.10793 196.454925 
L 148.65457 190.367936 
L 149.87659 188.085198 
L 151.959231 184.707728 
L 153.130716 183.242493 
L 154.011244 182.560452 
L 155.452247 181.979909 
L 156.294492 181.461397 
L 157.294465 180.526613 
L 158.404697 179.085305 
L 159.657344 177.160319 
L 161.406149 173.85103 
L 163.5577 169.717798 
L 166.591311 164.373452 
L 168.286519 161.339342 
L 169.706084 159.330403 
L 172.629437 155.970196 
L 175.453252 153.198048 
L 177.32916 150.641479 
L 180.466903 146.007496 
L 183.126863 141.936385 
L 184.090085 140.934479 
L 185.025741 140.243474 
L 185.995088 139.749024 
L 186.995062 139.455023 
L 188.05629 139.377068 
L 193.595194 139.104823 
L 194.673267 138.687178 
L 195.964198 137.868037 
L 197.411327 136.938637 
L 198.304105 136.681821 
L 199.285703 136.656158 
L 200.086601 136.877176 
L 200.843089 137.301315 
L 201.57967 137.940325 
L 202.336159 138.899207 
L 204.859829 142.244458 
L 205.764858 142.917083 
L 206.418746 143.117757 
L 207.110918 143.059751 
L 207.847499 142.705565 
L 208.625426 142.082961 
L 209.708093 140.903283 
L 211.225664 139.241709 
L 211.980621 138.782253 
L 212.561004 138.64045 
L 213.159763 138.699793 
L 214.060199 139.066913 
L 215.885572 140.132475 
L 219.173388 142.121829 
L 220.592952 142.367999 
L 221.542391 142.607476 
L 222.26519 143.027681 
L 223.231474 143.884644 
L 224.937401 145.731715 
L 228.027672 149.436962 
L 230.941837 153.274256 
L 232.324649 155.600285 
L 236.797732 163.266861 
L 240.059514 168.169126 
L 242.67966 171.962073 
L 243.849614 174.12087 
L 245.365653 177.463789 
L 248.014895 183.283829 
L 249.654974 186.466986 
L 252.059199 190.831379 
L 255.673192 198.051999 
L 257.052941 200.704749 
L 258.738961 204.48741 
L 259.820097 207.233824 
L 260.538301 209.819726 
L 261.331542 213.51549 
L 262.424929 219.819392 
L 263.983846 228.655162 
L 264.933285 232.687811 
L 265.819939 235.499529 
L 269.325206 245.66679 
L 270.142949 249.069338 
L 271.096982 254.174541 
L 272.989735 265.933856 
L 275.93759 283.247749 
L 277.138171 289.639759 
L 278.003385 293.15356 
L 278.850224 295.678735 
L 279.444389 296.823929 
L 280.162593 297.658431 
L 280.726131 297.999082 
L 282.006343 298.544138 
L 282.134976 298.607152 
L 282.134976 298.607152 
" style="fill:none;stroke:#8c564b;stroke-linecap:square;stroke-width:2;"/>
   </g>
   <g id="line2d_15">
    <path clip-path="url(#p72384b30c3)" d="M 73.025628 281.454132 
L 74.795872 270.307538 
L 76.23075 262.642262 
L 78.1771 253.486216 
L 81.62877 238.056368 
L 82.742064 234.356501 
L 85.565879 225.961754 
L 88.538236 218.026135 
L 92.519754 208.036252 
L 93.899504 204.727799 
L 95.170527 202.280296 
L 104.058501 187.392331 
L 107.943544 181.530792 
L 109.050713 180.357412 
L 110.31561 179.011618 
L 111.505472 177.368139 
L 112.650924 175.346689 
L 115.26035 170.055325 
L 117.342991 166.151328 
L 121.468456 158.962175 
L 123.263202 156.331473 
L 124.489816 155.032141 
L 125.645988 154.162335 
L 127.754661 152.973678 
L 129.191071 152.15017 
L 130.230859 151.286662 
L 131.232365 150.056811 
L 132.192523 148.473706 
L 133.546239 145.767775 
L 135.601315 141.753143 
L 136.64723 140.208004 
L 137.647203 139.109549 
L 139.536893 137.463249 
L 140.622623 136.385314 
L 141.904365 134.784355 
L 145.380537 130.259332 
L 151.198148 123.802013 
L 153.812168 121.047449 
L 156.680393 118.265178 
L 159.899297 114.829345 
L 161.150413 113.998788 
L 162.779773 113.236718 
L 165.046176 112.312113 
L 166.317199 111.522363 
L 167.378427 110.622677 
L 171.039892 107.479715 
L 175.124011 104.79594 
L 179.650692 102.07968 
L 182.446943 99.79877 
L 185.10384 97.335718 
L 186.371801 96.514791 
L 187.593821 96.028046 
L 188.786745 95.723706 
L 190.174151 95.654859 
L 191.484989 95.821584 
L 193.881557 96.054579 
L 196.575208 96.171672 
L 200.758865 96.491723 
L 202.62099 96.31752 
L 209.101677 95.121043 
L 211.297638 94.446588 
L 212.217981 94.435046 
L 213.199579 94.637358 
L 214.317466 95.131196 
L 215.416978 95.860019 
L 217.063183 97.174781 
L 218.461308 98.264825 
L 225.755144 103.332608 
L 227.009322 104.73553 
L 229.947989 108.0676 
L 231.338458 109.144364 
L 234.649243 111.456195 
L 235.984583 112.703002 
L 239.332122 115.974631 
L 240.782313 116.675176 
L 242.188095 117.397101 
L 243.42696 118.302308 
L 244.503502 119.364937 
L 245.993508 121.164615 
L 249.091436 125.016103 
L 250.373179 126.1266 
L 257.115727 131.738462 
L 258.74815 133.492324 
L 260.719001 135.911485 
L 262.225853 138.182354 
L 264.443252 141.467974 
L 270.943847 149.758235 
L 272.887134 152.002519 
L 275.006527 154.004226 
L 276.147385 155.264042 
L 277.208613 156.820374 
L 278.363253 158.944644 
L 282.141102 166.276552 
L 283.179359 167.582816 
L 284.430475 168.765749 
L 285.880666 169.9326 
L 288.612601 172.144262 
L 290.133234 173.792053 
L 291.160772 175.224505 
L 292.133182 176.966366 
L 293.215848 179.369806 
L 296.832905 188.1019 
L 298.240218 190.609806 
L 301.396337 195.76283 
L 302.517288 198.143514 
L 306.151189 206.272484 
L 308.258331 210.469093 
L 310.040827 214.587909 
L 313.469527 222.627548 
L 316.236682 228.790641 
L 317.210622 231.494551 
L 317.916576 234.216751 
L 318.872141 238.864568 
L 320.994596 250.878778 
L 325.285448 275.959039 
L 326.427838 283.540558 
L 326.427838 283.540558 
" style="fill:none;stroke:#1f77b4;stroke-linecap:square;stroke-width:2;"/>
   </g>
   <g id="line2d_16">
    <path clip-path="url(#p72384b30c3)" d="M 91.211979 283.078829 
L 92.561101 275.336298 
L 93.738712 269.909905 
L 94.76625 266.26462 
L 97.672758 256.785302 
L 99.155108 250.769129 
L 100.479729 245.921624 
L 103.47965 236.889273 
L 105.958911 230.048999 
L 107.767439 225.6371 
L 108.727597 223.729395 
L 110.736733 220.58635 
L 112.076667 219.037982 
L 117.609446 212.34458 
L 118.675268 210.382761 
L 120.358225 206.76016 
L 123.581724 199.452759 
L 125.090107 196.662735 
L 126.321315 194.874944 
L 127.54946 193.498855 
L 130.021064 191.1647 
L 131.371718 189.9451 
L 134.593685 186.773894 
L 138.359283 182.928858 
L 141.689976 179.484789 
L 143.435719 177.629086 
L 147.383547 174.019201 
L 150.400313 171.267332 
L 151.887257 169.536227 
L 154.536498 166.400427 
L 155.994347 164.964127 
L 159.844169 161.578782 
L 161.29436 159.749583 
L 164.778189 154.968251 
L 165.837885 153.985015 
L 166.765885 153.367536 
L 168.240578 152.716663 
L 169.738242 151.964895 
L 171.047549 151.074194 
L 172.286414 149.997745 
L 173.78714 148.327118 
L 176.776341 144.944884 
L 180.903338 140.91759 
L 183.932355 137.315706 
L 185.258507 136.112345 
L 186.284514 135.523298 
L 187.168105 135.247053 
L 192.030151 134.324066 
L 192.846362 134.403663 
L 193.811115 134.775142 
L 195.135736 135.604177 
L 198.429676 137.892654 
L 199.276515 138.072294 
L 200.052911 137.984591 
L 201.14936 137.622281 
L 203.227406 136.881319 
L 204.346825 136.796437 
L 205.574971 136.930112 
L 207.545822 137.219006 
L 208.75406 137.194102 
L 209.698905 136.969866 
L 210.793823 136.488051 
L 212.26239 135.842177 
L 213.387935 135.580571 
L 214.175051 135.624002 
L 215.194932 135.942836 
L 216.179592 136.474703 
L 217.299011 137.345302 
L 219.265269 139.176284 
L 223.165625 142.661127 
L 225.029282 144.10226 
L 227.229837 145.736832 
L 229.050616 147.518829 
L 233.934101 152.510331 
L 234.923356 153.251165 
L 236.347514 154.024985 
L 237.393428 154.648645 
L 238.664452 155.558524 
L 240.610802 157.251612 
L 241.846604 158.709567 
L 244.887871 162.570791 
L 246.224743 163.820842 
L 248.120558 165.561185 
L 249.769825 167.429257 
L 253.921324 172.418983 
L 254.800321 172.93097 
L 256.592004 173.806687 
L 258.022288 174.76113 
L 259.460229 176.036607 
L 260.669998 177.391658 
L 262.898117 180.133076 
L 266.507516 185.065873 
L 269.769299 190.07428 
L 271.995886 192.839014 
L 273.060177 194.332068 
L 275.130567 197.815364 
L 278.075359 202.768094 
L 279.295847 204.205002 
L 281.118158 206.188826 
L 282.033907 207.528531 
L 282.906778 209.227977 
L 286.306383 216.319123 
L 287.522277 218.169008 
L 289.116416 219.911863 
L 290.630924 221.532643 
L 291.359848 222.6173 
L 292.079584 224.044464 
L 293.306198 227.004552 
L 294.883492 231.599624 
L 298.099334 241.378413 
L 299.126872 243.726769 
L 300.699572 246.490996 
L 301.596945 248.231465 
L 302.255427 250.036475 
L 303.154331 253.123184 
L 303.993513 256.681986 
L 305.319665 263.500623 
L 310.250622 289.618839 
L 310.250622 289.618839 
" style="fill:none;stroke:#2ca02c;stroke-linecap:square;stroke-width:2;"/>
   </g>
   <g id="line2d_17">
    <path clip-path="url(#p72384b30c3)" d="M 76.956611 291.139569 
L 78.060717 284.615058 
L 80.394499 269.125484 
L 82.279595 257.525879 
L 83.679252 250.055622 
L 84.677694 245.958715 
L 88.369787 231.98702 
L 92.42481 215.418746 
L 93.835187 210.932821 
L 94.821378 208.593581 
L 95.931609 206.528156 
L 97.7432 203.872967 
L 101.011108 199.170215 
L 102.983491 196.220477 
L 105.583729 192.274041 
L 106.775122 190.160194 
L 113.047545 178.489447 
L 114.324693 176.864056 
L 116.116377 174.961506 
L 118.799307 172.072938 
L 120.96311 169.169607 
L 123.667479 165.644401 
L 124.907876 164.294419 
L 128.414675 160.44583 
L 131.887784 155.947063 
L 134.9168 151.957583 
L 137.830966 148.503317 
L 141.095811 144.807632 
L 142.607256 142.600516 
L 145.319283 138.729892 
L 147.158438 136.558302 
L 149.686703 133.600102 
L 150.997541 131.721158 
L 152.925515 128.980693 
L 154.090874 127.701783 
L 155.368023 126.70452 
L 157.861066 124.909145 
L 159.058584 123.764704 
L 160.519495 122.074786 
L 163.294307 118.836821 
L 164.617397 117.817131 
L 165.719971 117.239975 
L 170.229806 115.049968 
L 172.683034 113.516664 
L 174.611008 112.02202 
L 175.8805 110.726954 
L 177.854414 108.767576 
L 179.18516 107.768839 
L 180.989094 106.447425 
L 182.399471 105.154127 
L 185.321293 102.378321 
L 186.335048 101.760606 
L 187.155854 101.496226 
L 187.941438 101.461769 
L 189.218587 101.645225 
L 190.428356 101.786265 
L 191.299696 101.636394 
L 192.146534 101.263523 
L 193.487999 100.405445 
L 195.464977 99.12717 
L 196.510891 98.767296 
L 197.195406 98.775486 
L 197.853888 98.999724 
L 198.872238 99.635777 
L 200.726706 100.898283 
L 201.513822 101.161534 
L 202.299406 101.204531 
L 203.545928 101.079141 
L 205.458588 100.924298 
L 208.976106 100.808871 
L 210.464582 100.527969 
L 214.052542 99.759575 
L 215.305189 99.946599 
L 217.815077 100.510028 
L 218.717044 101.00517 
L 219.542444 101.726855 
L 220.741493 103.07937 
L 224.061467 106.896106 
L 227.239025 110.609833 
L 228.802537 112.779799 
L 231.810115 117.218786 
L 232.826933 118.199018 
L 233.721243 118.762516 
L 234.56655 119.063792 
L 236.169877 119.381988 
L 237.102471 119.672617 
L 238.050379 120.178005 
L 239.036571 120.95683 
L 240.344346 122.324415 
L 242.641376 124.768422 
L 243.609191 125.469366 
L 245.240083 126.358828 
L 246.30131 127.026649 
L 247.275251 127.936069 
L 248.814261 129.76805 
L 250.688637 131.982068 
L 252.181707 133.372273 
L 254.535397 134.99752 
L 255.633377 135.826833 
L 256.676229 136.934216 
L 257.86609 138.635182 
L 259.562829 141.470568 
L 262.657694 146.572146 
L 263.881246 148.119869 
L 264.826091 149.001512 
L 266.193589 149.951123 
L 267.421734 150.881436 
L 268.806078 152.225695 
L 270.057193 153.781448 
L 271.908599 156.564683 
L 275.044811 161.226523 
L 276.510316 163.48218 
L 277.773682 165.767044 
L 279.447451 169.284063 
L 282.476468 175.610648 
L 283.692363 177.556307 
L 284.657115 178.777023 
L 285.758158 179.758214 
L 287.252759 180.708928 
L 288.650884 181.739786 
L 289.327743 182.581041 
L 290.169987 183.992786 
L 291.264904 186.404808 
L 295.126977 195.803328 
L 296.174423 197.522135 
L 297.319875 198.949861 
L 300.004337 202.389554 
L 301.158978 204.270951 
L 302.351902 206.527939 
L 304.083862 210.253228 
L 305.861764 214.823746 
L 307.596787 219.179916 
L 308.726925 221.328722 
L 309.673302 222.74998 
L 311.771256 225.571497 
L 312.602781 227.285598 
L 313.506279 229.66473 
L 314.795678 233.79307 
L 316.247401 239.410649 
L 317.155494 243.812047 
L 318.077368 249.463618 
L 319.057435 256.933991 
L 320.305487 268.382279 
L 320.887402 274.162457 
L 320.887402 274.162457 
" style="fill:none;stroke:#ff7f0e;stroke-linecap:square;stroke-width:2;"/>
   </g>
   <g id="line2d_18">
    <path clip-path="url(#p72384b30c3)" d="M 70.586182 275.434473 
L 72.460558 258.921663 
L 73.485034 251.875423 
L 74.37475 247.219835 
L 75.466605 242.798578 
L 77.726882 234.045308 
L 80.109668 224.55955 
L 81.886037 218.276577 
L 83.700691 212.674185 
L 87.429536 201.741327 
L 91.005246 191.013951 
L 92.570289 187.051902 
L 94.055702 183.88897 
L 95.156745 182.038404 
L 96.285352 180.574973 
L 98.880996 177.391728 
L 99.759993 175.847055 
L 100.804375 173.55773 
L 102.62056 168.860565 
L 104.210105 164.989257 
L 105.361683 162.710869 
L 106.468851 161.011466 
L 108.451954 158.60534 
L 110.324799 156.066976 
L 114.249657 150.40012 
L 116.30167 147.998262 
L 119.13008 144.747449 
L 120.422542 142.76744 
L 123.21573 138.292427 
L 124.376496 136.96198 
L 125.462225 136.069704 
L 127.777632 134.24924 
L 128.717882 133.168892 
L 129.740826 131.657324 
L 131.281368 128.884944 
L 133.066926 125.864491 
L 134.216972 124.430566 
L 135.389989 123.327729 
L 136.922873 122.220039 
L 138.657896 120.921654 
L 139.630306 119.890372 
L 140.765038 118.337362 
L 144.911943 112.239361 
L 145.98389 111.222121 
L 149.369712 108.288761 
L 151.973013 105.289393 
L 154.652881 102.275715 
L 158.196433 98.215448 
L 159.99271 96.255008 
L 161.292829 95.176324 
L 167.917463 90.322437 
L 170.470229 88.72844 
L 171.915826 87.651341 
L 173.087312 86.559127 
L 174.970876 84.489451 
L 176.917226 82.514065 
L 178.857451 80.975056 
L 180.453121 80.054553 
L 182.374969 78.988649 
L 184.201873 77.627431 
L 186.286045 76.110285 
L 187.247735 75.697488 
L 188.184923 75.541431 
L 189.469729 75.589443 
L 190.944422 75.882725 
L 193.207762 76.3344 
L 195.046917 76.48105 
L 196.173993 76.288424 
L 197.325571 75.837636 
L 199.206073 74.785932 
L 200.653201 74.086352 
L 201.44338 73.915518 
L 202.225901 73.968331 
L 203.163089 74.319911 
L 204.342231 75.084439 
L 206.498377 76.615539 
L 207.409532 76.915503 
L 208.207367 76.940907 
L 209.064925 76.736894 
L 210.279288 76.15745 
L 212.620727 74.912214 
L 213.560978 74.67193 
L 214.476727 74.658036 
L 215.415447 74.817517 
L 216.531803 75.175425 
L 219.859434 76.634695 
L 221.182523 77.555834 
L 222.945111 79.087134 
L 226.266616 82.250733 
L 228.395197 84.586732 
L 232.987725 89.966622 
L 234.414946 91.169128 
L 239.690458 95.346693 
L 243.86799 99.271698 
L 250.844835 106.291382 
L 252.382314 107.749906 
L 253.755938 109.425656 
L 256.115753 112.879763 
L 258.858407 116.873068 
L 260.006922 118.125656 
L 261.400453 119.268585 
L 263.46778 120.923359 
L 265.100203 122.514374 
L 266.190526 123.859484 
L 267.629998 126.019719 
L 270.384903 130.322491 
L 271.516573 131.58566 
L 272.639055 132.495387 
L 275.498091 134.62876 
L 276.508785 135.883701 
L 277.790527 137.919992 
L 280.256006 141.995381 
L 281.6526 143.823194 
L 283.118105 145.372233 
L 284.589736 146.918655 
L 285.926607 148.65238 
L 287.479399 151.071168 
L 290.549762 155.787 
L 294.018278 161.022182 
L 296.06876 164.727272 
L 299.737882 171.417043 
L 302.108417 175.100731 
L 304.887823 179.242324 
L 306.628972 182.360433 
L 308.074569 185.344537 
L 309.221553 188.145742 
L 310.615084 192.06925 
L 314.48022 203.462393 
L 318.79251 214.786983 
L 320.1156 219.398228 
L 321.369778 224.737568 
L 324.398795 238.836468 
L 326.495217 249.939377 
L 327.640669 257.645929 
L 329.000511 268.538072 
L 330.309818 279.833351 
L 330.309818 279.833351 
" style="fill:none;stroke:#1f77b4;stroke-linecap:square;stroke-width:2;"/>
   </g>
   <g id="line2d_19">
    <path clip-path="url(#p72384b30c3)" d="M 82.118803 290.759779 
L 86.640889 266.249465 
L 89.348322 253.402435 
L 90.962368 245.107249 
L 93.683583 230.239447 
L 94.516639 227.128688 
L 95.328256 224.876397 
L 96.133748 223.292351 
L 97.299108 221.68331 
L 98.586976 220.033693 
L 99.688019 218.194892 
L 101.01264 215.419815 
L 104.508719 207.595962 
L 106.092138 204.945691 
L 107.389194 202.613014 
L 109.690818 198.361164 
L 110.66629 196.929427 
L 111.453406 196.056534 
L 112.552918 195.17501 
L 114.598806 193.676857 
L 115.439518 192.688513 
L 116.355268 191.149046 
L 117.672232 188.295354 
L 120.359756 182.383211 
L 121.541961 180.45517 
L 123.414806 177.991417 
L 125.253961 175.974546 
L 128.338107 172.632446 
L 130.036378 170.070761 
L 134.593685 162.57457 
L 135.703916 161.293567 
L 137.353183 159.692159 
L 141.697633 155.489494 
L 146.561211 150.101836 
L 148.290108 148.78257 
L 149.611666 147.670405 
L 150.764775 146.348576 
L 153.008208 143.465788 
L 155.147508 140.958873 
L 157.701805 138.566284 
L 159.847231 136.848528 
L 162.72005 134.742568 
L 164.053859 133.691991 
L 165.24372 132.496791 
L 166.700037 130.602434 
L 168.854651 127.716372 
L 169.897503 126.714667 
L 170.820909 126.122652 
L 171.738189 125.802724 
L 173.949463 125.161132 
L 174.954031 124.504693 
L 175.995351 123.522929 
L 177.407259 121.830002 
L 180.301517 118.346887 
L 181.603167 117.135 
L 183.670494 115.555819 
L 186.007339 114.00777 
L 187.348804 113.403422 
L 188.454441 113.189678 
L 189.933729 113.105312 
L 191.492646 113.017289 
L 192.555405 112.744041 
L 193.889214 112.164237 
L 195.644145 111.428093 
L 196.660963 111.250491 
L 197.373043 111.362885 
L 198.075934 111.693661 
L 200.693017 113.116577 
L 201.472475 113.204186 
L 202.268779 113.076466 
L 203.428013 112.639486 
L 204.813888 112.165946 
L 205.679103 112.087853 
L 206.691327 112.210581 
L 209.775473 112.666804 
L 210.793823 112.443943 
L 212.458404 111.802622 
L 213.796806 111.361882 
L 214.781466 111.270524 
L 215.730905 111.416859 
L 216.642061 111.781952 
L 217.862549 112.546338 
L 219.09682 113.590415 
L 220.729242 115.255888 
L 223.41983 117.890676 
L 225.499408 119.775529 
L 227.056794 121.414155 
L 228.732095 123.468744 
L 231.159289 126.492922 
L 232.509943 127.760161 
L 233.987699 128.854413 
L 237.310735 131.330698 
L 238.224953 132.280622 
L 239.494445 133.892348 
L 242.946115 138.365653 
L 244.10535 139.398974 
L 245.29368 140.16374 
L 248.045522 141.713032 
L 249.056215 142.695689 
L 250.210855 144.149286 
L 252.095951 146.961076 
L 254.379199 150.394994 
L 255.290354 151.318481 
L 256.328611 152.023232 
L 257.296427 152.360389 
L 259.639397 152.940204 
L 260.256532 153.39253 
L 261.040585 154.262822 
L 261.884361 155.520514 
L 263.009906 157.62861 
L 264.774025 160.869586 
L 265.773998 162.288983 
L 267.613153 164.454858 
L 269.905589 167.358485 
L 271.119952 169.388265 
L 274.841141 175.774325 
L 280.594435 184.532889 
L 285.075175 191.569649 
L 286.601934 193.229723 
L 288.707544 195.486359 
L 291.779439 199.291572 
L 293.98765 202.556773 
L 294.81305 204.18423 
L 295.716548 206.466542 
L 297.321407 211.381218 
L 299.454582 217.768334 
L 300.509684 220.125594 
L 301.408588 221.54279 
L 302.459097 222.689479 
L 305.014925 225.181568 
L 305.935269 226.702405 
L 306.739229 228.392927 
L 308.013315 231.483915 
L 308.723863 233.61687 
L 309.442067 236.530286 
L 310.408351 241.386741 
L 312.252101 252.302926 
L 313.80183 263.041345 
L 316.486292 283.393922 
L 316.486292 283.393922 
" style="fill:none;stroke:#2ca02c;stroke-linecap:square;stroke-width:2;"/>
   </g>
   <g id="line2d_20">
    <path clip-path="url(#p72384b30c3)" d="M 121.848232 288.535059 
L 122.970714 279.841574 
L 124.970661 262.813512 
L 128.595374 231.639145 
L 129.607599 225.167044 
L 130.982754 217.984071 
L 134.451269 201.803612 
L 136.201606 195.436624 
L 137.146451 192.73188 
L 138.183177 190.490735 
L 139.977923 187.391481 
L 141.634847 184.576872 
L 144.360656 179.708132 
L 145.305501 178.520408 
L 146.192154 177.717172 
L 147.199785 177.06418 
L 148.136973 176.317626 
L 149.03894 175.279667 
L 150.216551 173.477578 
L 152.303785 169.703914 
L 157.021885 160.186248 
L 157.905475 159.242145 
L 158.893198 158.56853 
L 161.834928 156.545557 
L 163.687865 154.736245 
L 165.144182 153.472766 
L 166.462677 152.200678 
L 168.148697 150.29913 
L 172.209846 145.145988 
L 173.51609 144.20295 
L 175.26949 143.057149 
L 176.918757 141.636575 
L 181.139167 137.481244 
L 182.981385 135.85185 
L 184.462203 134.24609 
L 188.025662 130.266105 
L 188.711709 129.890361 
L 189.394692 129.747958 
L 190.198653 129.862554 
L 190.955141 130.181468 
L 192.356329 131.077252 
L 194.751366 132.686818 
L 195.478759 132.848981 
L 196.301095 132.768803 
L 197.186218 132.420043 
L 199.976343 131.096889 
L 202.034482 130.506443 
L 202.947169 130.518861 
L 203.901202 130.811032 
L 205.467776 131.379256 
L 206.447842 131.467716 
L 207.544291 131.34388 
L 208.763248 131.027494 
L 212.505875 129.847351 
L 213.544133 129.832702 
L 214.424661 130.019246 
L 215.692622 130.542466 
L 216.919236 131.294594 
L 218.182602 132.340412 
L 219.90078 134.182859 
L 222.058457 136.77884 
L 224.033903 139.014267 
L 227.759685 143.122987 
L 229.098088 144.146189 
L 234.001481 147.7569 
L 236.330669 149.541804 
L 238.463844 150.955895 
L 239.252491 151.784294 
L 240.18968 153.094992 
L 243.137535 157.998602 
L 246.282934 163.307293 
L 248.353324 166.912565 
L 249.702446 169.708825 
L 252.357812 175.275592 
L 255.02543 179.805229 
L 256.351582 181.744641 
L 257.351555 183.352191 
L 258.777245 186.075227 
L 259.843067 188.601065 
L 261.354513 192.899634 
L 263.493813 198.817112 
L 264.484599 200.926758 
L 265.339094 202.267433 
L 266.478421 203.653436 
L 267.830606 204.866991 
L 269.322144 206.249427 
L 269.766236 207.010229 
L 270.204203 208.220268 
L 270.772335 210.545593 
L 271.380282 213.982477 
L 272.057141 219.126866 
L 272.943794 227.70478 
L 274.219411 242.237286 
L 276.347992 266.578242 
L 277.335715 275.182455 
L 278.193273 280.815989 
L 278.98192 284.608807 
L 280.017115 288.422179 
L 281.049247 292.047791 
L 281.049247 292.047791 
" style="fill:none;stroke:#c49c94;stroke-linecap:square;stroke-width:2;"/>
   </g>
   <g id="line2d_21">
    <path clip-path="url(#p72384b30c3)" d="M 83.507741 273.310683 
L 84.908929 260.960615 
L 85.869087 254.303921 
L 86.703675 249.975235 
L 87.562764 246.699449 
L 90.250289 237.399016 
L 91.845959 229.916302 
L 93.049603 224.889082 
L 94.029669 221.714295 
L 94.810659 219.826708 
L 95.983675 217.66243 
L 97.694197 215.070558 
L 98.809022 213.130541 
L 99.907002 210.649443 
L 101.393946 206.650849 
L 103.384706 201.524431 
L 104.562316 199.249656 
L 105.807307 197.330092 
L 106.946633 196.066352 
L 108.695439 194.585591 
L 111.536099 192.061385 
L 113.321657 190.025429 
L 118.067321 184.258201 
L 119.966199 181.38411 
L 121.226502 179.144841 
L 122.799202 175.807268 
L 124.603136 172.207647 
L 125.508166 170.921597 
L 126.575519 169.886896 
L 128.079308 168.813295 
L 129.218635 167.92353 
L 130.045566 167.070645 
L 131.0241 165.724071 
L 133.045487 162.501521 
L 133.981144 161.280726 
L 134.918332 160.450006 
L 135.734543 160.031526 
L 137.758992 159.128243 
L 138.633395 158.348088 
L 139.506266 157.230202 
L 140.591996 155.486542 
L 141.997778 152.863862 
L 143.902781 149.507598 
L 145.498451 147.208636 
L 146.891983 145.657063 
L 149.501409 143.074187 
L 152.691218 139.940983 
L 154.99131 137.15387 
L 157.381753 134.444161 
L 158.913106 133.109507 
L 160.525621 132.063384 
L 163.762902 130.174781 
L 164.670994 129.381382 
L 165.592869 128.272032 
L 166.710757 126.527031 
L 169.609608 121.791089 
L 170.506981 120.826834 
L 171.298691 120.297035 
L 172.211377 119.979027 
L 175.137794 119.195697 
L 176.151549 118.448189 
L 178.189781 116.540821 
L 180.649134 114.076767 
L 182.62458 111.670386 
L 184.776131 109.121132 
L 185.834296 108.295804 
L 186.697979 107.900942 
L 187.667326 107.762986 
L 188.756118 107.85732 
L 191.54165 108.169709 
L 193.354772 107.973804 
L 195.177082 107.885131 
L 196.771221 107.989237 
L 198.010086 108.270322 
L 200.011564 109.003863 
L 204.751103 110.735366 
L 205.769453 110.845413 
L 206.836806 110.690318 
L 209.887261 109.716851 
L 213.380278 108.464596 
L 214.400159 108.296503 
L 215.718655 108.333142 
L 216.614496 108.587213 
L 217.588437 109.146583 
L 218.355645 109.82515 
L 219.337242 110.973329 
L 223.53315 116.289414 
L 224.719949 117.269443 
L 225.811804 117.873019 
L 226.733679 118.144067 
L 227.931197 118.233112 
L 229.363012 118.375953 
L 230.490088 118.693246 
L 231.343052 119.18313 
L 232.241956 120.005064 
L 233.269494 121.27235 
L 234.75797 123.5365 
L 237.659884 128.14573 
L 238.779303 129.498562 
L 239.834406 130.48817 
L 243.240135 133.451609 
L 244.471343 135.041014 
L 246.013416 137.425067 
L 247.945984 140.264852 
L 248.941363 141.367222 
L 249.791264 142.003178 
L 251.711581 143.004215 
L 253.639555 144.041506 
L 255.094341 145.105595 
L 258.218301 147.942431 
L 259.6884 149.509395 
L 261.579622 151.993196 
L 263.130883 154.389541 
L 266.665246 159.955809 
L 267.943926 161.30857 
L 269.277734 162.386215 
L 270.802962 163.710324 
L 272.363411 165.339907 
L 273.709471 167.062865 
L 275.544032 169.868069 
L 278.873194 175.53283 
L 282.680138 182.191634 
L 284.185458 184.251705 
L 286.026145 186.354665 
L 288.03528 188.808958 
L 294.310766 197.919538 
L 295.737987 200.69831 
L 297.362753 204.451383 
L 300.163598 210.854041 
L 301.505064 213.364899 
L 304.184932 218.327445 
L 305.887797 222.200503 
L 307.033249 225.291499 
L 310.007137 234.390339 
L 312.925896 245.800113 
L 313.852365 250.416513 
L 314.74055 256.012625 
L 315.784933 264.08761 
L 317.078926 275.58744 
L 317.078926 275.58744 
" style="fill:none;stroke:#ffbb78;stroke-linecap:square;stroke-width:2;"/>
   </g>
   <g id="line2d_22">
    <path clip-path="url(#p72384b30c3)" d="M 79.515503 281.924609 
L 82.546051 258.341099 
L 83.761945 250.727179 
L 84.951807 244.6049 
L 86.495411 237.77411 
L 88.30547 231.139902 
L 89.257972 228.379705 
L 90.821484 224.378163 
L 92.6392 219.465266 
L 95.505893 211.460665 
L 96.980586 208.05492 
L 98.112256 205.880785 
L 99.392468 203.87187 
L 101.681841 200.826083 
L 107.306501 193.34288 
L 108.598964 191.224357 
L 114.791756 180.267876 
L 116.286357 178.357979 
L 117.565037 177.071792 
L 119.051981 175.562071 
L 120.466951 173.793963 
L 121.860483 171.682119 
L 125.907849 165.403905 
L 129.341143 160.70503 
L 131.429909 157.424505 
L 134.474239 152.638261 
L 136.016312 150.898478 
L 137.411375 149.699738 
L 140.480207 147.251875 
L 141.57053 146.053018 
L 143.365276 143.619316 
L 145.639336 140.620002 
L 150.117013 135.196866 
L 151.522795 134.061964 
L 153.080181 132.807336 
L 154.597752 131.321582 
L 156.692644 128.917196 
L 159.165779 126.165262 
L 160.654254 124.906147 
L 162.216235 123.506008 
L 163.441317 122.201118 
L 168.203826 116.794481 
L 169.546823 115.658281 
L 170.937292 114.762614 
L 172.084275 114.259815 
L 173.506902 113.952786 
L 174.609477 113.610338 
L 175.681424 113.025064 
L 176.875879 112.121091 
L 180.228012 109.427541 
L 182.076355 108.08208 
L 183.829755 106.48984 
L 185.218692 104.955149 
L 186.941464 103.122202 
L 187.961346 102.353717 
L 188.832686 101.963735 
L 189.684118 101.824772 
L 190.751471 101.923047 
L 192.264448 102.378519 
L 194.299617 103.209978 
L 195.624237 103.618634 
L 196.737531 103.68606 
L 198.252039 103.502577 
L 200.942627 103.175531 
L 202.882852 103.209842 
L 207.33909 103.406468 
L 209.320661 103.102472 
L 211.881083 102.680114 
L 212.910153 102.702954 
L 213.743209 102.951234 
L 214.577796 103.463461 
L 215.640556 104.458395 
L 217.963618 106.739868 
L 219.095289 107.466142 
L 220.370906 108.02028 
L 222.505612 108.915173 
L 223.915989 109.815389 
L 225.462655 111.237553 
L 227.523857 113.099482 
L 230.376768 115.429913 
L 235.016768 119.665884 
L 237.009059 121.20878 
L 238.872716 122.964564 
L 240.569455 124.447164 
L 241.63834 125.123511 
L 243.333548 125.864971 
L 244.561693 126.46328 
L 245.625984 127.235551 
L 246.460571 128.125203 
L 247.235436 129.309359 
L 248.422235 131.645326 
L 250.881588 136.464441 
L 251.996413 138.101969 
L 253.420572 139.728825 
L 254.615027 140.767928 
L 264.11248 148.263994 
L 265.908757 150.32866 
L 267.515147 152.652632 
L 268.917866 155.184663 
L 270.951504 159.509671 
L 272.205682 161.929825 
L 273.363385 163.705619 
L 274.357233 164.8478 
L 275.53025 165.864637 
L 278.998765 168.682307 
L 280.099808 170.099519 
L 281.234541 171.862405 
L 282.733735 174.502099 
L 284.675491 177.774201 
L 286.09965 179.727881 
L 287.906647 181.752107 
L 290.503822 184.42759 
L 291.901947 186.29051 
L 293.316918 188.673597 
L 294.630819 191.14442 
L 295.843651 193.786598 
L 297.247902 197.410964 
L 300.603097 206.142337 
L 302.162014 209.105907 
L 306.368641 216.776015 
L 307.749922 219.823137 
L 309.066886 223.172563 
L 310.399163 227.233772 
L 312.403705 233.929148 
L 314.91053 243.739548 
L 316.760405 252.239886 
L 319.408114 264.900862 
L 320.890464 273.834349 
L 322.441725 283.806814 
L 322.441725 283.806814 
" style="fill:none;stroke:#ff7f0e;stroke-linecap:square;stroke-width:2;"/>
   </g>
   <g id="line2d_23">
    <path clip-path="url(#p72384b30c3)" d="M 0 0 
" style="fill:none;stroke:#9edae5;stroke-linecap:square;stroke-width:2;"/>
   </g>
   <g id="line2d_24">
    <path clip-path="url(#p72384b30c3)" d="M 90.651503 280.686986 
L 92.867372 264.137806 
L 93.875002 258.114522 
L 94.700401 254.513395 
L 95.510487 251.999597 
L 96.760072 248.955638 
L 100.387847 239.734462 
L 104.038594 228.612356 
L 104.957405 226.568315 
L 105.980349 224.862932 
L 107.842475 221.452633 
L 109.061432 218.694504 
L 113.0307 209.365701 
L 113.742779 208.413263 
L 114.574304 207.67137 
L 115.47474 207.200853 
L 117.686014 205.961807 
L 118.453222 205.235064 
L 119.451664 203.866725 
L 120.695123 201.609175 
L 123.149882 196.975798 
L 124.302991 195.302181 
L 125.875691 193.474145 
L 128.708694 190.459507 
L 129.746952 189.310922 
L 130.716298 187.944629 
L 131.789777 186.058026 
L 134.484959 181.201991 
L 135.930556 179.123862 
L 137.239863 177.657523 
L 138.755903 176.331319 
L 141.780326 173.597777 
L 144.971666 170.043986 
L 146.507613 168.658052 
L 147.718914 167.862589 
L 149.927125 166.482204 
L 150.865845 165.584013 
L 151.985264 164.145964 
L 153.715693 161.350633 
L 155.767706 158.148699 
L 157.205647 156.367972 
L 158.666558 154.933942 
L 160.929898 152.767774 
L 162.237674 151.178944 
L 165.516301 146.888387 
L 166.502493 146.04492 
L 167.491747 145.489118 
L 169.822466 144.561842 
L 171.235905 143.888489 
L 178.202031 139.900116 
L 179.130031 138.905182 
L 180.333675 137.22994 
L 182.604672 133.915417 
L 183.822098 132.491106 
L 184.802164 131.681225 
L 185.913926 131.120095 
L 186.780672 130.906816 
L 187.696421 130.872314 
L 190.89695 130.887601 
L 196.619617 130.318648 
L 197.783445 130.489883 
L 199.097346 130.941145 
L 202.481637 132.251697 
L 204.129373 132.686076 
L 205.329954 132.728628 
L 206.741862 132.433914 
L 208.124674 131.872549 
L 210.071024 131.088385 
L 212.017374 130.615929 
L 213.390998 130.483861 
L 214.364938 130.586037 
L 215.980516 130.938591 
L 217.937585 131.637249 
L 219.274457 132.366877 
L 220.3755 133.191592 
L 222.370853 135.025017 
L 227.670867 139.757372 
L 230.31092 142.32177 
L 234.261811 146.452622 
L 236.734947 148.729125 
L 238.488346 150.650773 
L 240.650617 153.480455 
L 243.299858 157.104951 
L 244.35496 158.0261 
L 245.241614 158.510773 
L 246.339594 158.812724 
L 247.717812 159.193489 
L 248.544743 159.697353 
L 249.419146 160.478978 
L 250.426776 161.71175 
L 251.809588 163.797802 
L 254.569087 167.98683 
L 255.676255 169.178728 
L 256.91512 170.25789 
L 262.457087 174.900905 
L 263.957813 176.895151 
L 265.463134 179.181328 
L 267.706566 182.949751 
L 269.675886 186.228525 
L 271.132203 188.147002 
L 272.48592 189.617308 
L 275.795174 192.861349 
L 276.890091 194.497852 
L 278.596019 197.571461 
L 280.83792 201.324957 
L 282.87462 204.746973 
L 285.695373 210.100581 
L 288.131756 214.778533 
L 289.483941 216.82225 
L 291.70134 219.910235 
L 292.78707 221.679905 
L 294.28167 224.55472 
L 298.443888 233.449713 
L 301.457592 238.500719 
L 302.163545 240.456086 
L 302.950661 243.188098 
L 303.792905 246.989709 
L 305.276787 254.784497 
L 307.648853 266.821022 
L 309.745275 278.014986 
L 310.786596 284.242602 
L 310.786596 284.242602 
" style="fill:none;stroke:#98df8a;stroke-linecap:square;stroke-width:2;"/>
   </g>
   <g id="line2d_25">
    <path clip-path="url(#p72384b30c3)" d="M 83.72213 282.933126 
L 86.379028 263.425735 
L 87.870566 254.294469 
L 88.976203 248.811472 
L 90.400362 242.85183 
L 91.633101 238.801539 
L 92.913312 234.972579 
L 94.237933 231.74041 
L 96.963742 225.327225 
L 100.629801 216.397449 
L 102.174937 213.332407 
L 103.856362 210.627844 
L 105.893062 207.703301 
L 107.017076 205.646808 
L 108.609683 202.229895 
L 111.715267 195.283878 
L 112.970977 193.294536 
L 114.223624 191.566568 
L 116.926462 187.757156 
L 119.18674 184.113183 
L 122.356641 178.960207 
L 124.549539 176.053071 
L 125.62608 174.98533 
L 127.339665 173.226329 
L 129.924589 170.341741 
L 133.449764 166.322557 
L 137.700801 161.84237 
L 141.11725 157.522299 
L 143.666953 154.107633 
L 145.8476 151.79864 
L 148.359019 149.243795 
L 154.626848 142.703211 
L 157.271495 140.366835 
L 158.645119 138.698646 
L 160.88702 135.920451 
L 163.934413 132.45081 
L 166.119654 130.328711 
L 167.338611 129.401277 
L 168.977159 128.130769 
L 170.761186 126.362698 
L 174.542097 122.368085 
L 175.500724 121.680416 
L 176.707431 121.161355 
L 179.03815 120.311918 
L 180.186665 119.433408 
L 182.129952 117.53621 
L 183.793002 115.98757 
L 186.140567 114.124212 
L 187.792897 113.22783 
L 189.307405 112.658527 
L 190.276752 112.558796 
L 190.996488 112.692027 
L 192.025557 113.135422 
L 195.49101 114.897283 
L 196.489452 115.044375 
L 198.026931 115.02016 
L 199.748172 114.804819 
L 203.251908 114.231277 
L 206.666826 114.137073 
L 207.879657 114.022494 
L 209.573334 113.6439 
L 210.776978 113.131063 
L 213.066351 112.076844 
L 213.986694 111.980651 
L 214.850377 112.12432 
L 215.78144 112.532149 
L 216.786008 113.206402 
L 218.472028 114.71148 
L 219.793586 115.84083 
L 220.906879 116.530404 
L 224.272794 118.378177 
L 225.995566 119.775551 
L 228.344662 122.052982 
L 229.89286 123.948972 
L 231.931091 126.667112 
L 235.127026 131.085462 
L 236.84061 132.876244 
L 241.544927 137.458168 
L 246.050168 141.817991 
L 248.91533 143.98877 
L 250.028624 145.111713 
L 255.905958 151.617209 
L 256.936559 152.857205 
L 258.164704 154.786633 
L 261.571965 160.313719 
L 262.568876 161.286586 
L 263.587226 162.009783 
L 264.669893 162.506266 
L 267.048084 163.441368 
L 267.793853 164.082719 
L 268.873457 165.336907 
L 270.478315 167.550645 
L 272.907042 171.47226 
L 279.58221 181.992447 
L 281.563782 184.339759 
L 282.605102 185.720651 
L 283.677049 187.52233 
L 284.69693 189.726317 
L 286.33701 193.929775 
L 287.87602 197.707514 
L 288.886713 199.679386 
L 289.905063 201.16594 
L 291.177617 202.565602 
L 291.999954 203.629715 
L 292.967769 205.226176 
L 294.672165 208.522515 
L 299.332073 218.330258 
L 301.788364 223.418121 
L 303.433037 226.260407 
L 304.293658 227.317605 
L 305.864826 228.761516 
L 306.83111 229.724129 
L 307.999533 231.178093 
L 308.849434 232.77362 
L 309.656457 234.850386 
L 310.510952 237.608354 
L 311.215375 240.636871 
L 311.959612 244.796235 
L 313.137223 252.682352 
L 314.791084 265.428923 
L 316.062108 274.387786 
L 317.164682 280.562108 
L 318.187626 285.091499 
L 319.365237 289.304364 
L 320.582662 293.2218 
L 320.582662 293.2218 
" style="fill:none;stroke:#2ca02c;stroke-linecap:square;stroke-width:2;"/>
   </g>
   <g id="line2d_26">
    <path clip-path="url(#p72384b30c3)" d="M 91.893431 286.70864 
L 95.153682 265.564568 
L 96.7126 257.448937 
L 98.50122 249.340782 
L 99.677299 245.077919 
L 101.063174 240.664647 
L 103.622065 233.435834 
L 105.171795 229.757193 
L 106.684772 226.166597 
L 108.281973 222.523427 
L 109.343201 220.775586 
L 110.31561 219.550178 
L 112.338528 217.173109 
L 116.451743 212.110639 
L 119.742621 208.371359 
L 120.920232 206.735792 
L 122.0274 204.676949 
L 123.642978 201.58211 
L 124.580166 200.158597 
L 125.714899 198.804695 
L 127.590806 197.024923 
L 129.125222 195.411009 
L 130.347242 193.717797 
L 131.739242 191.456609 
L 133.37779 188.803559 
L 134.956616 186.794855 
L 137.566042 183.576005 
L 139.723718 180.881419 
L 143.054412 177.188599 
L 144.64855 175.092597 
L 146.329976 172.455901 
L 148.149224 169.808128 
L 149.124696 168.760857 
L 150.458505 167.672855 
L 151.646835 166.718866 
L 153.20269 165.20727 
L 155.424683 162.728753 
L 157.884036 159.8108 
L 159.857951 157.862312 
L 162.099852 155.985023 
L 164.06611 154.779062 
L 165.834823 153.682655 
L 167.266638 152.473377 
L 170.473292 149.792568 
L 172.367575 148.789055 
L 174.730454 147.500638 
L 176.292434 146.347999 
L 178.32454 144.418576 
L 182.472976 140.295867 
L 184.094679 139.148948 
L 187.1972 137.37867 
L 188.327339 136.952428 
L 189.420725 136.763726 
L 190.420699 136.802892 
L 194.2353 137.361231 
L 194.942785 137.156066 
L 195.863128 136.662914 
L 197.90136 135.570569 
L 198.723696 135.385586 
L 199.817082 135.407109 
L 201.582733 135.724074 
L 204.032898 136.340646 
L 206.947063 137.165925 
L 208.12008 137.320002 
L 209.045017 137.211115 
L 210.097057 136.794298 
L 211.066403 136.174437 
L 213.776899 134.395569 
L 214.386377 134.337862 
L 215.064767 134.472993 
L 215.787565 134.815232 
L 216.648186 135.46511 
L 217.833453 136.614985 
L 223.245256 142.501372 
L 225.83018 145.362893 
L 227.44882 146.754704 
L 233.756465 151.006801 
L 238.064161 153.330416 
L 239.491382 154.522543 
L 243.348861 158.240102 
L 244.861838 159.853486 
L 246.028729 161.37859 
L 247.354881 163.559038 
L 250.56766 168.94614 
L 252.792717 171.821705 
L 254.628809 173.790329 
L 257.036097 175.881346 
L 259.696057 177.879431 
L 261.516836 179.312691 
L 263.132414 181.0886 
L 266.453919 185.157202 
L 267.979147 187.257062 
L 272.141365 193.087631 
L 273.761537 194.965498 
L 275.703293 197.070009 
L 277.412283 199.217829 
L 278.395412 200.892349 
L 279.453577 203.109079 
L 283.200798 211.166907 
L 284.433538 213.17328 
L 285.730594 214.898654 
L 286.961802 216.24103 
L 290.594172 219.927436 
L 292.17606 221.516425 
L 292.937142 222.685644 
L 293.666066 224.198497 
L 294.528218 226.610048 
L 295.737987 230.899391 
L 297.232588 237.109434 
L 299.63375 247.057607 
L 300.449961 249.514309 
L 301.056377 250.741484 
L 301.861869 251.83177 
L 303.053262 253.455532 
L 303.759216 254.693755 
L 304.42076 256.380008 
L 305.082305 258.785784 
L 305.768351 262.174585 
L 306.606001 267.443574 
L 307.67948 275.734118 
L 308.357869 281.488508 
L 308.357869 281.488508 
" style="fill:none;stroke:#98df8a;stroke-linecap:square;stroke-width:2;"/>
   </g>
   <g id="line2d_27">
    <path clip-path="url(#p72384b30c3)" d="M 72.423806 284.562314 
L 76.311912 255.719962 
L 77.685535 247.972115 
L 79.780427 237.480585 
L 81.677773 229.145816 
L 82.870698 224.842246 
L 83.90283 221.777083 
L 85.040625 219.158506 
L 88.141615 212.537639 
L 89.271754 209.04011 
L 91.052718 202.80224 
L 92.384995 198.702682 
L 93.449286 196.198599 
L 94.487543 194.334662 
L 95.378791 193.239639 
L 96.606936 192.079959 
L 98.067847 190.627712 
L 99.328151 188.925712 
L 100.335781 187.153593 
L 101.544019 184.617543 
L 103.357141 180.273024 
L 106.056917 173.834684 
L 108.188561 169.312974 
L 109.556059 166.926484 
L 110.981749 164.881846 
L 112.225208 163.417636 
L 113.382911 162.410573 
L 114.595743 161.571612 
L 116.248073 160.4145 
L 117.483875 159.268027 
L 118.687519 157.822968 
L 119.894225 156.018488 
L 121.515928 153.070382 
L 125.085513 146.328108 
L 126.263123 144.69505 
L 127.609183 143.259562 
L 128.86183 142.332444 
L 130.119071 141.33449 
L 131.030226 140.385104 
L 132.102173 138.963308 
L 133.578398 136.5843 
L 135.18785 134.051916 
L 137.558385 130.889117 
L 139.916669 127.689989 
L 143.457158 122.572178 
L 144.651613 121.433155 
L 146.182966 120.342952 
L 147.228881 119.491886 
L 148.682135 117.925298 
L 152.432419 113.573635 
L 153.449237 112.895285 
L 155.28533 111.774973 
L 156.113792 111.003535 
L 156.965225 109.930733 
L 158.262281 107.900944 
L 160.024868 105.210751 
L 161.470466 103.465906 
L 162.528631 102.541102 
L 165.811852 99.969555 
L 167.159443 98.366498 
L 168.72908 96.62181 
L 169.764275 95.838018 
L 171.024579 95.257862 
L 174.679919 93.876997 
L 175.908064 93.072398 
L 177.290876 91.824087 
L 178.8452 90.072237 
L 183.721028 84.442114 
L 185.243194 83.138665 
L 186.511154 82.330925 
L 187.443748 81.952761 
L 188.468224 81.758857 
L 189.440633 81.788644 
L 190.276752 82.008932 
L 191.261412 82.537092 
L 194.491036 84.581873 
L 195.469571 84.83948 
L 196.693122 84.89139 
L 198.111155 84.674419 
L 200.836964 83.946419 
L 202.539829 83.629271 
L 203.754192 83.528579 
L 204.774073 83.612282 
L 205.930245 83.893172 
L 207.313057 84.427931 
L 208.841347 85.007297 
L 209.914826 85.151498 
L 210.899486 85.047515 
L 211.977559 84.727376 
L 214.204146 84.02108 
L 215.054047 84.026413 
L 216.070866 84.261298 
L 217.367922 84.817988 
L 218.643539 85.613675 
L 219.788992 86.639745 
L 221.436728 88.438306 
L 224.565282 91.91754 
L 226.01088 93.214426 
L 227.34622 94.178687 
L 231.232794 96.968043 
L 236.094841 101.086126 
L 237.437838 102.650353 
L 239.780808 105.484086 
L 241.19731 106.812173 
L 242.789917 107.955928 
L 245.739304 109.841816 
L 246.590736 110.750062 
L 247.777535 112.385674 
L 249.997997 115.452695 
L 251.64267 117.20109 
L 252.993324 118.286999 
L 255.677786 120.257336 
L 256.921245 121.600792 
L 260.435701 125.534635 
L 261.930302 126.672118 
L 264.96085 128.748078 
L 265.893444 129.814971 
L 266.674434 131.045757 
L 269.049563 135.519378 
L 270.786117 138.512788 
L 272.15821 140.370747 
L 273.48283 141.777841 
L 275.438369 143.741654 
L 277.014131 145.765673 
L 278.102923 147.521579 
L 280.920613 152.540931 
L 283.205392 157.346489 
L 285.726 162.529995 
L 286.954145 164.526564 
L 288.212917 166.101285 
L 289.656983 167.496331 
L 292.34604 169.974258 
L 293.796231 171.807309 
L 297.843598 177.458934 
L 298.953829 179.651144 
L 300.485182 183.165937 
L 303.486635 190.09776 
L 308.111321 199.06683 
L 311.203124 204.51412 
L 312.249038 207.227241 
L 313.267388 210.526668 
L 314.634886 215.737187 
L 317.210622 226.006373 
L 318.277976 229.19497 
L 319.69754 232.606668 
L 320.844524 235.65651 
L 321.601012 238.32795 
L 322.67296 243.007564 
L 323.550425 247.855532 
L 324.505989 254.377075 
L 325.70657 264.285626 
L 327.535006 281.039344 
L 327.535006 281.039344 
" style="fill:none;stroke:#aec7e8;stroke-linecap:square;stroke-width:2;"/>
   </g>
   <g id="line2d_28">
    <path clip-path="url(#p72384b30c3)" d="M 0 0 
" style="fill:none;stroke:#17becf;stroke-linecap:square;stroke-width:2;"/>
   </g>
   <g id="line2d_29">
    <path clip-path="url(#p72384b30c3)" d="M 83.478645 287.396001 
L 90.072652 248.079751 
L 91.437088 241.296318 
L 92.381933 237.470002 
L 93.982197 232.105401 
L 95.421669 228.028862 
L 97.706448 222.011383 
L 99.753867 216.59475 
L 100.839597 214.297665 
L 101.600679 213.082865 
L 102.41689 212.187676 
L 103.354079 211.487937 
L 104.571504 210.548419 
L 105.315742 209.720896 
L 106.176363 208.387246 
L 107.053828 206.624671 
L 108.755162 202.619239 
L 109.879175 200.299942 
L 110.837802 198.716821 
L 112.704522 196.244994 
L 114.130211 194.732674 
L 115.95099 192.826325 
L 118.543572 189.804972 
L 119.523638 188.330298 
L 120.667558 186.184339 
L 122.194318 182.773696 
L 123.730265 179.52622 
L 124.7088 178.054474 
L 125.763902 176.897823 
L 126.950701 175.978687 
L 129.858741 173.938166 
L 130.840338 172.795331 
L 131.820404 171.368434 
L 133.334913 168.725414 
L 135.308827 165.265918 
L 136.360867 163.854895 
L 137.305712 162.954913 
L 138.275058 162.30325 
L 140.343916 161.105626 
L 141.025369 160.451858 
L 141.81861 159.430368 
L 142.830834 157.786033 
L 146.596432 151.337806 
L 147.654597 150.2499 
L 148.855178 149.298497 
L 152.821383 146.727467 
L 154.002056 145.883139 
L 155.19498 144.733454 
L 156.227112 143.371689 
L 157.957541 140.67823 
L 160.207099 137.313048 
L 161.208604 136.215176 
L 162.282083 135.37601 
L 164.465793 133.832936 
L 165.889951 132.378713 
L 169.627985 128.33857 
L 170.899008 127.504166 
L 173.514559 125.994863 
L 174.880526 124.896973 
L 178.463893 121.870998 
L 182.509728 119.579327 
L 186.341174 116.392807 
L 187.195669 116.0958 
L 188.039445 116.011441 
L 189.217055 116.142118 
L 191.717755 116.491929 
L 192.857082 116.392392 
L 194.514006 116.021467 
L 199.213729 114.938196 
L 200.466376 114.841105 
L 202.815472 114.874808 
L 205.12169 114.983661 
L 206.389651 114.807544 
L 210.323697 114.142543 
L 211.891803 114.206137 
L 212.94078 114.411998 
L 214.41241 115.053385 
L 216.939143 116.188215 
L 218.629757 116.99164 
L 219.905374 117.836395 
L 221.432134 119.148607 
L 222.8762 120.793604 
L 225.205388 123.482944 
L 226.222207 124.188597 
L 227.214523 124.613998 
L 229.393639 125.403244 
L 230.362986 125.996478 
L 231.117943 126.718784 
L 232.035223 127.932743 
L 233.23121 129.96768 
L 235.744161 134.272589 
L 237.02131 135.923293 
L 238.168293 137.05016 
L 239.154485 137.740081 
L 240.172835 138.193688 
L 243.080874 139.457148 
L 244.397838 140.317453 
L 245.471317 141.192622 
L 246.578485 142.419323 
L 247.935264 144.288317 
L 250.958156 148.500744 
L 252.667146 150.373923 
L 255.022367 152.637842 
L 256.250512 153.966641 
L 257.590446 155.823483 
L 260.213655 159.62413 
L 261.84914 161.469984 
L 266.803068 166.456651 
L 274.032586 176.198785 
L 277.15961 181.245216 
L 279.684811 186.254346 
L 282.075254 191.03961 
L 283.053788 192.61801 
L 284.023135 193.852702 
L 285.292627 195.107691 
L 287.06134 196.825224 
L 287.92196 197.963916 
L 289.049036 199.917664 
L 291.006106 204.056084 
L 292.444046 206.775506 
L 293.563466 208.430819 
L 294.450119 209.42228 
L 295.564944 210.333967 
L 296.528166 210.849556 
L 298.074832 211.529244 
L 298.699624 212.102119 
L 299.618436 213.293417 
L 300.355017 214.590125 
L 301.615321 217.374074 
L 302.769961 220.449368 
L 307.880087 235.23092 
L 308.907625 239.168332 
L 311.236813 249.349311 
L 312.291916 254.707279 
L 313.418992 261.593429 
L 314.619573 270.401382 
L 315.662424 278.80081 
L 315.662424 278.80081 
" style="fill:none;stroke:#ffbb78;stroke-linecap:square;stroke-width:2;"/>
   </g>
   <g id="line2d_30">
    <path clip-path="url(#p72384b30c3)" d="M 170.496262 281.334962 
L 173.676883 258.429931 
L 174.503813 254.447554 
L 175.369028 251.26279 
L 177.840632 242.898452 
L 178.474612 239.666619 
L 179.221913 234.50731 
L 180.425556 224.510712 
L 183.198837 201.256365 
L 183.857319 197.755386 
L 184.407075 195.95517 
L 184.872606 195.077424 
L 185.22788 194.818076 
L 185.554058 194.856948 
L 185.936897 195.129549 
L 186.402428 195.763472 
L 186.881742 196.797964 
L 187.742362 199.292658 
L 189.148144 203.311911 
L 189.681055 204.118481 
L 190.132805 204.426466 
L 190.544739 204.421365 
L 191.184844 204.055906 
L 192.00565 203.391413 
L 193.599788 201.811126 
L 194.213861 201.355278 
L 194.720739 201.216793 
L 195.215366 201.302416 
L 195.834033 201.651739 
L 196.478732 202.297617 
L 196.936607 203.112375 
L 197.487894 204.52183 
L 198.222944 207.071527 
L 200.642482 215.605696 
L 201.276462 216.902127 
L 201.824687 217.577487 
L 202.288687 217.818737 
L 202.657743 217.787624 
L 203.160027 217.49014 
L 203.5934 216.935862 
L 204.135499 215.868441 
L 205.054311 213.489784 
L 207.476911 207.290884 
L 207.983789 206.601101 
L 208.450852 206.340212 
L 208.933228 206.399037 
L 210.36045 206.786724 
L 211.142971 206.359475 
L 213.237862 204.68306 
L 213.907064 204.567349 
L 214.527262 204.782305 
L 214.994325 205.245527 
L 215.64515 206.268229 
L 216.364886 207.84956 
L 220.038602 217.173194 
L 221.415289 221.353427 
L 222.193216 224.488296 
L 222.879262 228.297905 
L 224.024715 235.963838 
L 225.447342 247.114819 
L 228.272689 269.182232 
L 231.133256 289.092685 
L 231.194511 289.474402 
L 231.194511 289.474402 
" style="fill:none;stroke:#17becf;stroke-linecap:square;stroke-width:2;"/>
   </g>
   <g id="line2d_31">
    <path clip-path="url(#p72384b30c3)" d="M 136.123507 298.712491 
L 136.561474 298.823566 
L 137.034662 299.187414 
L 137.602794 299.928156 
L 138.353157 301.309169 
L 140.870702 306.268022 
L 141.239758 306.397359 
L 141.506213 306.280908 
L 141.812484 305.870856 
L 142.187666 304.960978 
L 142.688418 303.025809 
L 143.405091 299.294471 
L 144.717461 291.021724 
L 146.210531 280.305737 
L 147.73729 267.486098 
L 149.283957 252.296529 
L 150.983759 233.135555 
L 153.530399 204.17619 
L 154.412459 196.57555 
L 155.132195 192.117565 
L 155.825898 189.110636 
L 156.691112 186.414456 
L 157.709462 183.972407 
L 158.727812 182.113027 
L 159.660406 180.312798 
L 160.439865 178.366763 
L 161.171852 175.858742 
L 162.093727 171.800441 
L 163.427535 164.664066 
L 166.975681 144.968986 
L 167.68776 142.596886 
L 168.352367 141.105895 
L 168.937344 140.313907 
L 169.470255 139.928439 
L 170.402849 139.585421 
L 171.318599 139.151552 
L 171.921952 138.573489 
L 172.529899 137.680343 
L 173.214414 136.224683 
L 173.963246 134.049767 
L 174.889714 130.586885 
L 178.065741 117.983557 
L 179.292355 114.62124 
L 180.40718 111.265116 
L 181.659827 106.715575 
L 184.074771 97.847767 
L 185.013491 95.280841 
L 185.724039 93.932539 
L 186.227854 93.402311 
L 186.662758 93.240218 
L 187.076223 93.3292 
L 187.508065 93.65888 
L 188.093042 94.403145 
L 192.013306 99.807436 
L 193.224607 101.011773 
L 193.849399 101.343311 
L 194.356277 101.362163 
L 194.878468 101.16446 
L 195.449663 100.701612 
L 196.086706 99.901368 
L 197.316383 97.905186 
L 199.172383 94.991031 
L 200.604198 92.988937 
L 201.80631 91.790101 
L 203.054363 90.661493 
L 203.807789 90.315083 
L 204.447895 90.283369 
L 205.040528 90.462774 
L 205.694416 90.89508 
L 206.392713 91.623135 
L 207.409532 92.992994 
L 208.458509 94.82569 
L 209.740252 97.01504 
L 210.455393 97.763901 
L 211.10775 98.138827 
L 211.663631 98.219818 
L 212.201136 98.068218 
L 212.858087 97.607698 
L 213.933097 96.825615 
L 214.455288 96.737669 
L 214.991262 96.863478 
L 215.557863 97.215115 
L 216.461361 98.134619 
L 220.370906 102.736298 
L 221.145771 103.998621 
L 221.773625 105.484389 
L 222.577586 108.040555 
L 223.617375 112.143769 
L 224.900649 118.115682 
L 227.620332 131.429909 
L 228.408979 134.002416 
L 229.543712 136.827169 
L 231.059751 140.620109 
L 231.851461 143.395141 
L 232.632451 146.977662 
L 233.725837 153.088187 
L 236.085653 166.471013 
L 237.240293 171.463025 
L 238.234141 174.803141 
L 239.174392 177.239689 
L 240.891039 181.25625 
L 241.656716 184.120887 
L 242.364201 187.574288 
L 243.557125 194.773506 
L 245.071634 203.382289 
L 246.678023 210.931072 
L 248.115964 218.022458 
L 249.298169 225.242514 
L 250.607476 234.712431 
L 251.740677 244.243843 
L 253.344004 260.05467 
L 255.45574 280.194802 
L 255.735978 282.576007 
L 255.735978 282.576007 
" style="fill:none;stroke:#c7c7c7;stroke-linecap:square;stroke-width:2;"/>
   </g>
   <g id="line2d_32">
    <path clip-path="url(#p72384b30c3)" d="M 161.302017 287.007003 
L 162.542413 278.184371 
L 163.871628 266.905342 
L 165.693938 251.730003 
L 166.548433 246.171105 
L 167.25745 242.884857 
L 167.808737 241.288961 
L 168.283456 240.554771 
L 168.805648 240.148061 
L 170.032262 239.297798 
L 170.575892 238.644801 
L 171.067457 237.637494 
L 171.721344 235.679314 
L 172.347668 233.028269 
L 173.053622 229.096272 
L 173.975496 222.642388 
L 177.179087 198.81328 
L 178.105556 194.167571 
L 180.823708 182.306235 
L 181.580197 179.955738 
L 182.148329 178.872378 
L 182.707273 178.260692 
L 183.163616 178.064505 
L 183.610771 178.090566 
L 184.83126 178.424046 
L 185.610718 178.539115 
L 186.207946 178.408575 
L 186.969029 177.968895 
L 187.480501 177.410812 
L 188.171141 176.292858 
L 188.762243 174.937337 
L 189.503418 172.614444 
L 192.088343 164.052576 
L 192.789702 162.690976 
L 193.419089 161.963747 
L 193.913716 161.698723 
L 194.377716 161.689969 
L 194.855498 161.936494 
L 195.553795 162.594317 
L 196.319472 163.60594 
L 196.990204 164.91451 
L 197.959551 167.35936 
L 199.438838 171.079403 
L 200.157043 172.246757 
L 200.631762 172.613696 
L 201.043696 172.698239 
L 203.115617 172.807972 
L 204.031367 173.239802 
L 205.176819 174.073999 
L 206.144634 175.105314 
L 207.072634 175.983709 
L 207.726522 176.341435 
L 208.259433 176.410986 
L 208.700463 176.23888 
L 209.164463 175.788372 
L 209.672872 174.946393 
L 210.401796 173.16753 
L 212.453809 168.084377 
L 212.991314 167.315763 
L 213.417031 167.035074 
L 213.867249 166.977803 
L 214.42313 167.181642 
L 215.02342 167.64835 
L 216.593057 169.223429 
L 219.81043 172.749787 
L 220.583764 174.232737 
L 221.453573 176.429621 
L 222.142681 178.814938 
L 223.259038 183.613416 
L 224.145692 188.462694 
L 225.608134 198.03609 
L 230.698352 233.525575 
L 237.126973 285.654317 
L 238.032003 290.549792 
L 238.802273 293.469185 
L 239.434722 295.047873 
L 240.422445 296.823816 
L 241.154432 297.744673 
L 241.721033 298.130042 
L 242.886393 298.620306 
L 242.886393 298.620306 
" style="fill:none;stroke:#dbdb8d;stroke-linecap:square;stroke-width:2;"/>
   </g>
   <g id="line2d_33">
    <path clip-path="url(#p72384b30c3)" d="M 168.614229 298.712491 
L 169.052196 298.823566 
L 170.191523 299.277304 
L 170.604988 299.117934 
L 171.067457 298.683338 
L 171.634057 297.818111 
L 172.275694 296.423258 
L 172.912737 294.39698 
L 173.802453 290.755192 
L 174.588038 286.562563 
L 176.996856 272.689892 
L 177.978454 268.655236 
L 180.345926 259.333291 
L 181.120791 254.975888 
L 182.068698 248.210532 
L 184.454547 230.995489 
L 185.316699 226.207864 
L 185.946085 223.867487 
L 186.379458 222.973739 
L 186.659695 222.815793 
L 186.907775 222.919408 
L 187.20792 223.327209 
L 187.645887 224.321853 
L 188.131326 226.051587 
L 189.163458 230.731906 
L 190.662653 237.14861 
L 191.195564 238.494977 
L 191.58759 238.950362 
L 191.88161 238.994718 
L 192.14194 238.805253 
L 192.477306 238.211968 
L 192.890772 237.010218 
L 193.414495 234.775505 
L 194.092884 230.804529 
L 195.094389 223.638895 
L 196.196963 216.270182 
L 196.919762 212.846196 
L 197.46033 211.279312 
L 197.889109 210.644702 
L 198.250508 210.4717 
L 198.56903 210.557919 
L 198.896739 210.892667 
L 199.252013 211.632705 
L 199.677729 213.07219 
L 200.30099 216.043975 
L 201.192238 221.457396 
L 202.532172 229.529795 
L 203.55971 234.281822 
L 204.300885 236.809995 
L 204.878205 238.086139 
L 205.357519 238.629317 
L 205.767921 238.765161 
L 206.16301 238.698118 
L 206.558099 238.373493 
L 207.026694 237.671178 
L 207.617796 236.345176 
L 210.93777 228.004581 
L 212.757017 224.70549 
L 213.150575 224.477926 
L 213.458377 224.53493 
L 213.795275 224.83034 
L 214.144423 225.483766 
L 214.596173 226.854205 
L 215.194932 229.464857 
L 217.539434 241.682868 
L 221.661837 263.370661 
L 222.951236 269.668412 
L 224.096688 276.5894 
L 226.263553 291.130639 
L 226.263553 291.130639 
" style="fill:none;stroke:#7f7f7f;stroke-linecap:square;stroke-width:2;"/>
   </g>
   <g id="patch_3">
    <path d="M 57.6 307.584 
L 57.6 41.472 
" style="fill:none;stroke:#000000;stroke-linecap:square;stroke-linejoin:miter;stroke-width:0.8;"/>
   </g>
   <g id="patch_4">
    <path d="M 343.296 307.584 
L 343.296 41.472 
" style="fill:none;stroke:#000000;stroke-linecap:square;stroke-linejoin:miter;stroke-width:0.8;"/>
   </g>
   <g id="patch_5">
    <path d="M 57.6 307.584 
L 343.296 307.584 
" style="fill:none;stroke:#000000;stroke-linecap:square;stroke-linejoin:miter;stroke-width:0.8;"/>
   </g>
   <g id="patch_6">
    <path d="M 57.6 41.472 
L 343.296 41.472 
" style="fill:none;stroke:#000000;stroke-linecap:square;stroke-linejoin:miter;stroke-width:0.8;"/>
   </g>
  </g>
  <g id="axes_2">
   <g id="patch_7">
    <path clip-path="url(#pe7e9bd88c6)" d="M 361.152 307.584 
L 361.152 294.2784 
L 361.152 54.7776 
L 361.152 41.472 
L 374.4576 41.472 
L 374.4576 54.7776 
L 374.4576 294.2784 
L 374.4576 307.584 
z
" style="fill:#ffffff;stroke:#ffffff;stroke-linejoin:miter;stroke-width:0.01;"/>
   </g>
   <g id="QuadMesh_1">
    <path clip-path="url(#pe7e9bd88c6)" d="M 361.152 307.584 
L 374.4576 307.584 
L 374.4576 294.2784 
L 361.152 294.2784 
L 361.152 307.584 
" style="fill:#1f77b4;"/>
    <path clip-path="url(#pe7e9bd88c6)" d="M 361.152 294.2784 
L 374.4576 294.2784 
L 374.4576 280.9728 
L 361.152 280.9728 
L 361.152 294.2784 
" style="fill:#aec7e8;"/>
    <path clip-path="url(#pe7e9bd88c6)" d="M 361.152 280.9728 
L 374.4576 280.9728 
L 374.4576 267.6672 
L 361.152 267.6672 
L 361.152 280.9728 
" style="fill:#ff7f0e;"/>
    <path clip-path="url(#pe7e9bd88c6)" d="M 361.152 267.6672 
L 374.4576 267.6672 
L 374.4576 254.3616 
L 361.152 254.3616 
L 361.152 267.6672 
" style="fill:#ffbb78;"/>
    <path clip-path="url(#pe7e9bd88c6)" d="M 361.152 254.3616 
L 374.4576 254.3616 
L 374.4576 241.056 
L 361.152 241.056 
L 361.152 254.3616 
" style="fill:#2ca02c;"/>
    <path clip-path="url(#pe7e9bd88c6)" d="M 361.152 241.056 
L 374.4576 241.056 
L 374.4576 227.7504 
L 361.152 227.7504 
L 361.152 241.056 
" style="fill:#98df8a;"/>
    <path clip-path="url(#pe7e9bd88c6)" d="M 361.152 227.7504 
L 374.4576 227.7504 
L 374.4576 214.4448 
L 361.152 214.4448 
L 361.152 227.7504 
" style="fill:#d62728;"/>
    <path clip-path="url(#pe7e9bd88c6)" d="M 361.152 214.4448 
L 374.4576 214.4448 
L 374.4576 201.1392 
L 361.152 201.1392 
L 361.152 214.4448 
" style="fill:#ff9896;"/>
    <path clip-path="url(#pe7e9bd88c6)" d="M 361.152 201.1392 
L 374.4576 201.1392 
L 374.4576 187.8336 
L 361.152 187.8336 
L 361.152 201.1392 
" style="fill:#9467bd;"/>
    <path clip-path="url(#pe7e9bd88c6)" d="M 361.152 187.8336 
L 374.4576 187.8336 
L 374.4576 174.528 
L 361.152 174.528 
L 361.152 187.8336 
" style="fill:#c5b0d5;"/>
    <path clip-path="url(#pe7e9bd88c6)" d="M 361.152 174.528 
L 374.4576 174.528 
L 374.4576 161.2224 
L 361.152 161.2224 
L 361.152 174.528 
" style="fill:#8c564b;"/>
    <path clip-path="url(#pe7e9bd88c6)" d="M 361.152 161.2224 
L 374.4576 161.2224 
L 374.4576 147.9168 
L 361.152 147.9168 
L 361.152 161.2224 
" style="fill:#c49c94;"/>
    <path clip-path="url(#pe7e9bd88c6)" d="M 361.152 147.9168 
L 374.4576 147.9168 
L 374.4576 134.6112 
L 361.152 134.6112 
L 361.152 147.9168 
" style="fill:#e377c2;"/>
    <path clip-path="url(#pe7e9bd88c6)" d="M 361.152 134.6112 
L 374.4576 134.6112 
L 374.4576 121.3056 
L 361.152 121.3056 
L 361.152 134.6112 
" style="fill:#f7b6d2;"/>
    <path clip-path="url(#pe7e9bd88c6)" d="M 361.152 121.3056 
L 374.4576 121.3056 
L 374.4576 108 
L 361.152 108 
L 361.152 121.3056 
" style="fill:#7f7f7f;"/>
    <path clip-path="url(#pe7e9bd88c6)" d="M 361.152 108 
L 374.4576 108 
L 374.4576 94.6944 
L 361.152 94.6944 
L 361.152 108 
" style="fill:#c7c7c7;"/>
    <path clip-path="url(#pe7e9bd88c6)" d="M 361.152 94.6944 
L 374.4576 94.6944 
L 374.4576 81.3888 
L 361.152 81.3888 
L 361.152 94.6944 
" style="fill:#bcbd22;"/>
    <path clip-path="url(#pe7e9bd88c6)" d="M 361.152 81.3888 
L 374.4576 81.3888 
L 374.4576 68.0832 
L 361.152 68.0832 
L 361.152 81.3888 
" style="fill:#dbdb8d;"/>
    <path clip-path="url(#pe7e9bd88c6)" d="M 361.152 68.0832 
L 374.4576 68.0832 
L 374.4576 54.7776 
L 361.152 54.7776 
L 361.152 68.0832 
" style="fill:#17becf;"/>
    <path clip-path="url(#pe7e9bd88c6)" d="M 361.152 54.7776 
L 374.4576 54.7776 
L 374.4576 41.472 
L 361.152 41.472 
L 361.152 54.7776 
" style="fill:#9edae5;"/>
   </g>
   <g id="matplotlib.axis_3"/>
   <g id="matplotlib.axis_4">
    <g id="ytick_9">
     <g id="line2d_34">
      <defs>
       <path d="M 0 0 
L 3.5 0 
" id="mdbc3b0e3a1" style="stroke:#000000;stroke-width:0.8;"/>
      </defs>
      <g>
       <use style="stroke:#000000;stroke-width:0.8;" x="374.4576" xlink:href="#mdbc3b0e3a1" y="278.016"/>
      </g>
     </g>
     <g id="text_16">
      <!-- 25 -->
      <defs>
       <path d="M 10.796875 72.90625 
L 49.515625 72.90625 
L 49.515625 64.59375 
L 19.828125 64.59375 
L 19.828125 46.734375 
Q 21.96875 47.46875 24.109375 47.828125 
Q 26.265625 48.1875 28.421875 48.1875 
Q 40.625 48.1875 47.75 41.5 
Q 54.890625 34.8125 54.890625 23.390625 
Q 54.890625 11.625 47.5625 5.09375 
Q 40.234375 -1.421875 26.90625 -1.421875 
Q 22.3125 -1.421875 17.546875 -0.640625 
Q 12.796875 0.140625 7.71875 1.703125 
L 7.71875 11.625 
Q 12.109375 9.234375 16.796875 8.0625 
Q 21.484375 6.890625 26.703125 6.890625 
Q 35.15625 6.890625 40.078125 11.328125 
Q 45.015625 15.765625 45.015625 23.390625 
Q 45.015625 31 40.078125 35.4375 
Q 35.15625 39.890625 26.703125 39.890625 
Q 22.75 39.890625 18.8125 39.015625 
Q 14.890625 38.140625 10.796875 36.28125 
z
" id="DejaVuSans-53"/>
      </defs>
      <g transform="translate(381.4576 281.815219)scale(0.1 -0.1)">
       <use xlink:href="#DejaVuSans-50"/>
       <use x="63.623047" xlink:href="#DejaVuSans-53"/>
      </g>
     </g>
    </g>
    <g id="ytick_10">
     <g id="line2d_35">
      <g>
       <use style="stroke:#000000;stroke-width:0.8;" x="374.4576" xlink:href="#mdbc3b0e3a1" y="245.87687"/>
      </g>
     </g>
     <g id="text_17">
      <!-- 50 -->
      <g transform="translate(381.4576 249.676088)scale(0.1 -0.1)">
       <use xlink:href="#DejaVuSans-53"/>
       <use x="63.623047" xlink:href="#DejaVuSans-48"/>
      </g>
     </g>
    </g>
    <g id="ytick_11">
     <g id="line2d_36">
      <g>
       <use style="stroke:#000000;stroke-width:0.8;" x="374.4576" xlink:href="#mdbc3b0e3a1" y="213.737739"/>
      </g>
     </g>
     <g id="text_18">
      <!-- 75 -->
      <defs>
       <path d="M 8.203125 72.90625 
L 55.078125 72.90625 
L 55.078125 68.703125 
L 28.609375 0 
L 18.3125 0 
L 43.21875 64.59375 
L 8.203125 64.59375 
z
" id="DejaVuSans-55"/>
      </defs>
      <g transform="translate(381.4576 217.536958)scale(0.1 -0.1)">
       <use xlink:href="#DejaVuSans-55"/>
       <use x="63.623047" xlink:href="#DejaVuSans-53"/>
      </g>
     </g>
    </g>
    <g id="ytick_12">
     <g id="line2d_37">
      <g>
       <use style="stroke:#000000;stroke-width:0.8;" x="374.4576" xlink:href="#mdbc3b0e3a1" y="181.598609"/>
      </g>
     </g>
     <g id="text_19">
      <!-- 100 -->
      <g transform="translate(381.4576 185.397827)scale(0.1 -0.1)">
       <use xlink:href="#DejaVuSans-49"/>
       <use x="63.623047" xlink:href="#DejaVuSans-48"/>
       <use x="127.246094" xlink:href="#DejaVuSans-48"/>
      </g>
     </g>
    </g>
    <g id="ytick_13">
     <g id="line2d_38">
      <g>
       <use style="stroke:#000000;stroke-width:0.8;" x="374.4576" xlink:href="#mdbc3b0e3a1" y="149.459478"/>
      </g>
     </g>
     <g id="text_20">
      <!-- 125 -->
      <g transform="translate(381.4576 153.258697)scale(0.1 -0.1)">
       <use xlink:href="#DejaVuSans-49"/>
       <use x="63.623047" xlink:href="#DejaVuSans-50"/>
       <use x="127.246094" xlink:href="#DejaVuSans-53"/>
      </g>
     </g>
    </g>
    <g id="ytick_14">
     <g id="line2d_39">
      <g>
       <use style="stroke:#000000;stroke-width:0.8;" x="374.4576" xlink:href="#mdbc3b0e3a1" y="117.320348"/>
      </g>
     </g>
     <g id="text_21">
      <!-- 150 -->
      <g transform="translate(381.4576 121.119567)scale(0.1 -0.1)">
       <use xlink:href="#DejaVuSans-49"/>
       <use x="63.623047" xlink:href="#DejaVuSans-53"/>
       <use x="127.246094" xlink:href="#DejaVuSans-48"/>
      </g>
     </g>
    </g>
    <g id="ytick_15">
     <g id="line2d_40">
      <g>
       <use style="stroke:#000000;stroke-width:0.8;" x="374.4576" xlink:href="#mdbc3b0e3a1" y="85.181217"/>
      </g>
     </g>
     <g id="text_22">
      <!-- 175 -->
      <g transform="translate(381.4576 88.980436)scale(0.1 -0.1)">
       <use xlink:href="#DejaVuSans-49"/>
       <use x="63.623047" xlink:href="#DejaVuSans-55"/>
       <use x="127.246094" xlink:href="#DejaVuSans-53"/>
      </g>
     </g>
    </g>
    <g id="ytick_16">
     <g id="line2d_41">
      <g>
       <use style="stroke:#000000;stroke-width:0.8;" x="374.4576" xlink:href="#mdbc3b0e3a1" y="53.042087"/>
      </g>
     </g>
     <g id="text_23">
      <!-- 200 -->
      <g transform="translate(381.4576 56.841306)scale(0.1 -0.1)">
       <use xlink:href="#DejaVuSans-50"/>
       <use x="63.623047" xlink:href="#DejaVuSans-48"/>
       <use x="127.246094" xlink:href="#DejaVuSans-48"/>
      </g>
     </g>
    </g>
   </g>
   <g id="patch_8">
    <path d="M 361.152 307.584 
L 361.152 294.2784 
L 361.152 54.7776 
L 361.152 41.472 
L 374.4576 41.472 
L 374.4576 54.7776 
L 374.4576 294.2784 
L 374.4576 307.584 
z
" style="fill:none;stroke:#000000;stroke-linejoin:miter;stroke-width:0.8;"/>
   </g>
  </g>
 </g>
 <defs>
  <clipPath id="p72384b30c3">
   <rect height="266.112" width="285.696" x="57.6" y="41.472"/>
  </clipPath>
  <clipPath id="pe7e9bd88c6">
   <rect height="266.112" width="13.3056" x="361.152" y="41.472"/>
  </clipPath>
 </defs>
</svg>
