<?xml version="1.0" encoding="utf-8" standalone="no"?>
<!DOCTYPE svg PUBLIC "-//W3C//DTD SVG 1.1//EN"
  "http://www.w3.org/Graphics/SVG/1.1/DTD/svg11.dtd">
<!-- Created with matplotlib (https://matplotlib.org/) -->
<svg height="345.6pt" version="1.1" viewBox="0 0 460.8 345.6" width="460.8pt" xmlns="http://www.w3.org/2000/svg" xmlns:xlink="http://www.w3.org/1999/xlink">
 <defs>
  <style type="text/css">
*{stroke-linecap:butt;stroke-linejoin:round;}
  </style>
 </defs>
 <g id="figure_1">
  <g id="patch_1">
   <path d="M 0 345.6 
L 460.8 345.6 
L 460.8 0 
L 0 0 
z
" style="fill:#ffffff;"/>
  </g>
  <g id="axes_1">
   <g id="patch_2">
    <path d="M 57.6 307.584 
L 414.72 307.584 
L 414.72 41.472 
L 57.6 41.472 
z
" style="fill:#ffffff;"/>
   </g>
   <g id="matplotlib.axis_1">
    <g id="xtick_1">
     <g id="line2d_1">
      <defs>
       <path d="M 0 0 
L 0 3.5 
" id="m77524dce65" style="stroke:#000000;stroke-width:0.8;"/>
      </defs>
      <g>
       <use style="stroke:#000000;stroke-width:0.8;" x="123.599209" xlink:href="#m77524dce65" y="307.584"/>
      </g>
     </g>
     <g id="text_1">
      <!-- 200 -->
      <defs>
       <path d="M 19.1875 8.296875 
L 53.609375 8.296875 
L 53.609375 0 
L 7.328125 0 
L 7.328125 8.296875 
Q 12.9375 14.109375 22.625 23.890625 
Q 32.328125 33.6875 34.8125 36.53125 
Q 39.546875 41.84375 41.421875 45.53125 
Q 43.3125 49.21875 43.3125 52.78125 
Q 43.3125 58.59375 39.234375 62.25 
Q 35.15625 65.921875 28.609375 65.921875 
Q 23.96875 65.921875 18.8125 64.3125 
Q 13.671875 62.703125 7.8125 59.421875 
L 7.8125 69.390625 
Q 13.765625 71.78125 18.9375 73 
Q 24.125 74.21875 28.421875 74.21875 
Q 39.75 74.21875 46.484375 68.546875 
Q 53.21875 62.890625 53.21875 53.421875 
Q 53.21875 48.921875 51.53125 44.890625 
Q 49.859375 40.875 45.40625 35.40625 
Q 44.1875 33.984375 37.640625 27.21875 
Q 31.109375 20.453125 19.1875 8.296875 
z
" id="DejaVuSans-50"/>
       <path d="M 31.78125 66.40625 
Q 24.171875 66.40625 20.328125 58.90625 
Q 16.5 51.421875 16.5 36.375 
Q 16.5 21.390625 20.328125 13.890625 
Q 24.171875 6.390625 31.78125 6.390625 
Q 39.453125 6.390625 43.28125 13.890625 
Q 47.125 21.390625 47.125 36.375 
Q 47.125 51.421875 43.28125 58.90625 
Q 39.453125 66.40625 31.78125 66.40625 
z
M 31.78125 74.21875 
Q 44.046875 74.21875 50.515625 64.515625 
Q 56.984375 54.828125 56.984375 36.375 
Q 56.984375 17.96875 50.515625 8.265625 
Q 44.046875 -1.421875 31.78125 -1.421875 
Q 19.53125 -1.421875 13.0625 8.265625 
Q 6.59375 17.96875 6.59375 36.375 
Q 6.59375 54.828125 13.0625 64.515625 
Q 19.53125 74.21875 31.78125 74.21875 
z
" id="DejaVuSans-48"/>
      </defs>
      <g transform="translate(114.055459 322.182437)scale(0.1 -0.1)">
       <use xlink:href="#DejaVuSans-50"/>
       <use x="63.623047" xlink:href="#DejaVuSans-48"/>
       <use x="127.246094" xlink:href="#DejaVuSans-48"/>
      </g>
     </g>
    </g>
    <g id="xtick_2">
     <g id="line2d_2">
      <g>
       <use style="stroke:#000000;stroke-width:0.8;" x="193.59426" xlink:href="#m77524dce65" y="307.584"/>
      </g>
     </g>
     <g id="text_2">
      <!-- 400 -->
      <defs>
       <path d="M 37.796875 64.3125 
L 12.890625 25.390625 
L 37.796875 25.390625 
z
M 35.203125 72.90625 
L 47.609375 72.90625 
L 47.609375 25.390625 
L 58.015625 25.390625 
L 58.015625 17.1875 
L 47.609375 17.1875 
L 47.609375 0 
L 37.796875 0 
L 37.796875 17.1875 
L 4.890625 17.1875 
L 4.890625 26.703125 
z
" id="DejaVuSans-52"/>
      </defs>
      <g transform="translate(184.05051 322.182437)scale(0.1 -0.1)">
       <use xlink:href="#DejaVuSans-52"/>
       <use x="63.623047" xlink:href="#DejaVuSans-48"/>
       <use x="127.246094" xlink:href="#DejaVuSans-48"/>
      </g>
     </g>
    </g>
    <g id="xtick_3">
     <g id="line2d_3">
      <g>
       <use style="stroke:#000000;stroke-width:0.8;" x="263.589311" xlink:href="#m77524dce65" y="307.584"/>
      </g>
     </g>
     <g id="text_3">
      <!-- 600 -->
      <defs>
       <path d="M 33.015625 40.375 
Q 26.375 40.375 22.484375 35.828125 
Q 18.609375 31.296875 18.609375 23.390625 
Q 18.609375 15.53125 22.484375 10.953125 
Q 26.375 6.390625 33.015625 6.390625 
Q 39.65625 6.390625 43.53125 10.953125 
Q 47.40625 15.53125 47.40625 23.390625 
Q 47.40625 31.296875 43.53125 35.828125 
Q 39.65625 40.375 33.015625 40.375 
z
M 52.59375 71.296875 
L 52.59375 62.3125 
Q 48.875 64.0625 45.09375 64.984375 
Q 41.3125 65.921875 37.59375 65.921875 
Q 27.828125 65.921875 22.671875 59.328125 
Q 17.53125 52.734375 16.796875 39.40625 
Q 19.671875 43.65625 24.015625 45.921875 
Q 28.375 48.1875 33.59375 48.1875 
Q 44.578125 48.1875 50.953125 41.515625 
Q 57.328125 34.859375 57.328125 23.390625 
Q 57.328125 12.15625 50.6875 5.359375 
Q 44.046875 -1.421875 33.015625 -1.421875 
Q 20.359375 -1.421875 13.671875 8.265625 
Q 6.984375 17.96875 6.984375 36.375 
Q 6.984375 53.65625 15.1875 63.9375 
Q 23.390625 74.21875 37.203125 74.21875 
Q 40.921875 74.21875 44.703125 73.484375 
Q 48.484375 72.75 52.59375 71.296875 
z
" id="DejaVuSans-54"/>
      </defs>
      <g transform="translate(254.045561 322.182437)scale(0.1 -0.1)">
       <use xlink:href="#DejaVuSans-54"/>
       <use x="63.623047" xlink:href="#DejaVuSans-48"/>
       <use x="127.246094" xlink:href="#DejaVuSans-48"/>
      </g>
     </g>
    </g>
    <g id="xtick_4">
     <g id="line2d_4">
      <g>
       <use style="stroke:#000000;stroke-width:0.8;" x="333.584362" xlink:href="#m77524dce65" y="307.584"/>
      </g>
     </g>
     <g id="text_4">
      <!-- 800 -->
      <defs>
       <path d="M 31.78125 34.625 
Q 24.75 34.625 20.71875 30.859375 
Q 16.703125 27.09375 16.703125 20.515625 
Q 16.703125 13.921875 20.71875 10.15625 
Q 24.75 6.390625 31.78125 6.390625 
Q 38.8125 6.390625 42.859375 10.171875 
Q 46.921875 13.96875 46.921875 20.515625 
Q 46.921875 27.09375 42.890625 30.859375 
Q 38.875 34.625 31.78125 34.625 
z
M 21.921875 38.8125 
Q 15.578125 40.375 12.03125 44.71875 
Q 8.5 49.078125 8.5 55.328125 
Q 8.5 64.0625 14.71875 69.140625 
Q 20.953125 74.21875 31.78125 74.21875 
Q 42.671875 74.21875 48.875 69.140625 
Q 55.078125 64.0625 55.078125 55.328125 
Q 55.078125 49.078125 51.53125 44.71875 
Q 48 40.375 41.703125 38.8125 
Q 48.828125 37.15625 52.796875 32.3125 
Q 56.78125 27.484375 56.78125 20.515625 
Q 56.78125 9.90625 50.3125 4.234375 
Q 43.84375 -1.421875 31.78125 -1.421875 
Q 19.734375 -1.421875 13.25 4.234375 
Q 6.78125 9.90625 6.78125 20.515625 
Q 6.78125 27.484375 10.78125 32.3125 
Q 14.796875 37.15625 21.921875 38.8125 
z
M 18.3125 54.390625 
Q 18.3125 48.734375 21.84375 45.5625 
Q 25.390625 42.390625 31.78125 42.390625 
Q 38.140625 42.390625 41.71875 45.5625 
Q 45.3125 48.734375 45.3125 54.390625 
Q 45.3125 60.0625 41.71875 63.234375 
Q 38.140625 66.40625 31.78125 66.40625 
Q 25.390625 66.40625 21.84375 63.234375 
Q 18.3125 60.0625 18.3125 54.390625 
z
" id="DejaVuSans-56"/>
      </defs>
      <g transform="translate(324.040612 322.182437)scale(0.1 -0.1)">
       <use xlink:href="#DejaVuSans-56"/>
       <use x="63.623047" xlink:href="#DejaVuSans-48"/>
       <use x="127.246094" xlink:href="#DejaVuSans-48"/>
      </g>
     </g>
    </g>
    <g id="xtick_5">
     <g id="line2d_5">
      <g>
       <use style="stroke:#000000;stroke-width:0.8;" x="403.579413" xlink:href="#m77524dce65" y="307.584"/>
      </g>
     </g>
     <g id="text_5">
      <!-- 1000 -->
      <defs>
       <path d="M 12.40625 8.296875 
L 28.515625 8.296875 
L 28.515625 63.921875 
L 10.984375 60.40625 
L 10.984375 69.390625 
L 28.421875 72.90625 
L 38.28125 72.90625 
L 38.28125 8.296875 
L 54.390625 8.296875 
L 54.390625 0 
L 12.40625 0 
z
" id="DejaVuSans-49"/>
      </defs>
      <g transform="translate(390.854413 322.182437)scale(0.1 -0.1)">
       <use xlink:href="#DejaVuSans-49"/>
       <use x="63.623047" xlink:href="#DejaVuSans-48"/>
       <use x="127.246094" xlink:href="#DejaVuSans-48"/>
       <use x="190.869141" xlink:href="#DejaVuSans-48"/>
      </g>
     </g>
    </g>
    <g id="text_6">
     <!-- Tempo (ms) -->
     <defs>
      <path d="M -0.296875 72.90625 
L 61.375 72.90625 
L 61.375 64.59375 
L 35.5 64.59375 
L 35.5 0 
L 25.59375 0 
L 25.59375 64.59375 
L -0.296875 64.59375 
z
" id="DejaVuSans-84"/>
      <path d="M 56.203125 29.59375 
L 56.203125 25.203125 
L 14.890625 25.203125 
Q 15.484375 15.921875 20.484375 11.0625 
Q 25.484375 6.203125 34.421875 6.203125 
Q 39.59375 6.203125 44.453125 7.46875 
Q 49.3125 8.734375 54.109375 11.28125 
L 54.109375 2.78125 
Q 49.265625 0.734375 44.1875 -0.34375 
Q 39.109375 -1.421875 33.890625 -1.421875 
Q 20.796875 -1.421875 13.15625 6.1875 
Q 5.515625 13.8125 5.515625 26.8125 
Q 5.515625 40.234375 12.765625 48.109375 
Q 20.015625 56 32.328125 56 
Q 43.359375 56 49.78125 48.890625 
Q 56.203125 41.796875 56.203125 29.59375 
z
M 47.21875 32.234375 
Q 47.125 39.59375 43.09375 43.984375 
Q 39.0625 48.390625 32.421875 48.390625 
Q 24.90625 48.390625 20.390625 44.140625 
Q 15.875 39.890625 15.1875 32.171875 
z
" id="DejaVuSans-101"/>
      <path d="M 52 44.1875 
Q 55.375 50.25 60.0625 53.125 
Q 64.75 56 71.09375 56 
Q 79.640625 56 84.28125 50.015625 
Q 88.921875 44.046875 88.921875 33.015625 
L 88.921875 0 
L 79.890625 0 
L 79.890625 32.71875 
Q 79.890625 40.578125 77.09375 44.375 
Q 74.3125 48.1875 68.609375 48.1875 
Q 61.625 48.1875 57.5625 43.546875 
Q 53.515625 38.921875 53.515625 30.90625 
L 53.515625 0 
L 44.484375 0 
L 44.484375 32.71875 
Q 44.484375 40.625 41.703125 44.40625 
Q 38.921875 48.1875 33.109375 48.1875 
Q 26.21875 48.1875 22.15625 43.53125 
Q 18.109375 38.875 18.109375 30.90625 
L 18.109375 0 
L 9.078125 0 
L 9.078125 54.6875 
L 18.109375 54.6875 
L 18.109375 46.1875 
Q 21.1875 51.21875 25.484375 53.609375 
Q 29.78125 56 35.6875 56 
Q 41.65625 56 45.828125 52.96875 
Q 50 49.953125 52 44.1875 
z
" id="DejaVuSans-109"/>
      <path d="M 18.109375 8.203125 
L 18.109375 -20.796875 
L 9.078125 -20.796875 
L 9.078125 54.6875 
L 18.109375 54.6875 
L 18.109375 46.390625 
Q 20.953125 51.265625 25.265625 53.625 
Q 29.59375 56 35.59375 56 
Q 45.5625 56 51.78125 48.09375 
Q 58.015625 40.1875 58.015625 27.296875 
Q 58.015625 14.40625 51.78125 6.484375 
Q 45.5625 -1.421875 35.59375 -1.421875 
Q 29.59375 -1.421875 25.265625 0.953125 
Q 20.953125 3.328125 18.109375 8.203125 
z
M 48.6875 27.296875 
Q 48.6875 37.203125 44.609375 42.84375 
Q 40.53125 48.484375 33.40625 48.484375 
Q 26.265625 48.484375 22.1875 42.84375 
Q 18.109375 37.203125 18.109375 27.296875 
Q 18.109375 17.390625 22.1875 11.75 
Q 26.265625 6.109375 33.40625 6.109375 
Q 40.53125 6.109375 44.609375 11.75 
Q 48.6875 17.390625 48.6875 27.296875 
z
" id="DejaVuSans-112"/>
      <path d="M 30.609375 48.390625 
Q 23.390625 48.390625 19.1875 42.75 
Q 14.984375 37.109375 14.984375 27.296875 
Q 14.984375 17.484375 19.15625 11.84375 
Q 23.34375 6.203125 30.609375 6.203125 
Q 37.796875 6.203125 41.984375 11.859375 
Q 46.1875 17.53125 46.1875 27.296875 
Q 46.1875 37.015625 41.984375 42.703125 
Q 37.796875 48.390625 30.609375 48.390625 
z
M 30.609375 56 
Q 42.328125 56 49.015625 48.375 
Q 55.71875 40.765625 55.71875 27.296875 
Q 55.71875 13.875 49.015625 6.21875 
Q 42.328125 -1.421875 30.609375 -1.421875 
Q 18.84375 -1.421875 12.171875 6.21875 
Q 5.515625 13.875 5.515625 27.296875 
Q 5.515625 40.765625 12.171875 48.375 
Q 18.84375 56 30.609375 56 
z
" id="DejaVuSans-111"/>
      <path id="DejaVuSans-32"/>
      <path d="M 31 75.875 
Q 24.46875 64.65625 21.28125 53.65625 
Q 18.109375 42.671875 18.109375 31.390625 
Q 18.109375 20.125 21.3125 9.0625 
Q 24.515625 -2 31 -13.1875 
L 23.1875 -13.1875 
Q 15.875 -1.703125 12.234375 9.375 
Q 8.59375 20.453125 8.59375 31.390625 
Q 8.59375 42.28125 12.203125 53.3125 
Q 15.828125 64.359375 23.1875 75.875 
z
" id="DejaVuSans-40"/>
      <path d="M 44.28125 53.078125 
L 44.28125 44.578125 
Q 40.484375 46.53125 36.375 47.5 
Q 32.28125 48.484375 27.875 48.484375 
Q 21.1875 48.484375 17.84375 46.4375 
Q 14.5 44.390625 14.5 40.28125 
Q 14.5 37.15625 16.890625 35.375 
Q 19.28125 33.59375 26.515625 31.984375 
L 29.59375 31.296875 
Q 39.15625 29.25 43.1875 25.515625 
Q 47.21875 21.78125 47.21875 15.09375 
Q 47.21875 7.46875 41.1875 3.015625 
Q 35.15625 -1.421875 24.609375 -1.421875 
Q 20.21875 -1.421875 15.453125 -0.5625 
Q 10.6875 0.296875 5.421875 2 
L 5.421875 11.28125 
Q 10.40625 8.6875 15.234375 7.390625 
Q 20.0625 6.109375 24.8125 6.109375 
Q 31.15625 6.109375 34.5625 8.28125 
Q 37.984375 10.453125 37.984375 14.40625 
Q 37.984375 18.0625 35.515625 20.015625 
Q 33.0625 21.96875 24.703125 23.78125 
L 21.578125 24.515625 
Q 13.234375 26.265625 9.515625 29.90625 
Q 5.8125 33.546875 5.8125 39.890625 
Q 5.8125 47.609375 11.28125 51.796875 
Q 16.75 56 26.8125 56 
Q 31.78125 56 36.171875 55.265625 
Q 40.578125 54.546875 44.28125 53.078125 
z
" id="DejaVuSans-115"/>
      <path d="M 8.015625 75.875 
L 15.828125 75.875 
Q 23.140625 64.359375 26.78125 53.3125 
Q 30.421875 42.28125 30.421875 31.390625 
Q 30.421875 20.453125 26.78125 9.375 
Q 23.140625 -1.703125 15.828125 -13.1875 
L 8.015625 -13.1875 
Q 14.5 -2 17.703125 9.0625 
Q 20.90625 20.125 20.90625 31.390625 
Q 20.90625 42.671875 17.703125 53.65625 
Q 14.5 64.65625 8.015625 75.875 
z
" id="DejaVuSans-41"/>
     </defs>
     <g transform="translate(205.973281 335.860562)scale(0.1 -0.1)">
      <use xlink:href="#DejaVuSans-84"/>
      <use x="60.818359" xlink:href="#DejaVuSans-101"/>
      <use x="122.341797" xlink:href="#DejaVuSans-109"/>
      <use x="219.753906" xlink:href="#DejaVuSans-112"/>
      <use x="283.230469" xlink:href="#DejaVuSans-111"/>
      <use x="344.412109" xlink:href="#DejaVuSans-32"/>
      <use x="376.199219" xlink:href="#DejaVuSans-40"/>
      <use x="415.212891" xlink:href="#DejaVuSans-109"/>
      <use x="512.625" xlink:href="#DejaVuSans-115"/>
      <use x="564.724609" xlink:href="#DejaVuSans-41"/>
     </g>
    </g>
   </g>
   <g id="matplotlib.axis_2">
    <g id="ytick_1">
     <g id="line2d_6">
      <defs>
       <path d="M 0 0 
L -3.5 0 
" id="m47beffc1d2" style="stroke:#000000;stroke-width:0.8;"/>
      </defs>
      <g>
       <use style="stroke:#000000;stroke-width:0.8;" x="57.6" xlink:href="#m47beffc1d2" y="296.322207"/>
      </g>
     </g>
     <g id="text_7">
      <!-- 0 -->
      <g transform="translate(44.2375 300.121426)scale(0.1 -0.1)">
       <use xlink:href="#DejaVuSans-48"/>
      </g>
     </g>
    </g>
    <g id="ytick_2">
     <g id="line2d_7">
      <g>
       <use style="stroke:#000000;stroke-width:0.8;" x="57.6" xlink:href="#m47beffc1d2" y="254.611862"/>
      </g>
     </g>
     <g id="text_8">
      <!-- 50 -->
      <defs>
       <path d="M 10.796875 72.90625 
L 49.515625 72.90625 
L 49.515625 64.59375 
L 19.828125 64.59375 
L 19.828125 46.734375 
Q 21.96875 47.46875 24.109375 47.828125 
Q 26.265625 48.1875 28.421875 48.1875 
Q 40.625 48.1875 47.75 41.5 
Q 54.890625 34.8125 54.890625 23.390625 
Q 54.890625 11.625 47.5625 5.09375 
Q 40.234375 -1.421875 26.90625 -1.421875 
Q 22.3125 -1.421875 17.546875 -0.640625 
Q 12.796875 0.140625 7.71875 1.703125 
L 7.71875 11.625 
Q 12.109375 9.234375 16.796875 8.0625 
Q 21.484375 6.890625 26.703125 6.890625 
Q 35.15625 6.890625 40.078125 11.328125 
Q 45.015625 15.765625 45.015625 23.390625 
Q 45.015625 31 40.078125 35.4375 
Q 35.15625 39.890625 26.703125 39.890625 
Q 22.75 39.890625 18.8125 39.015625 
Q 14.890625 38.140625 10.796875 36.28125 
z
" id="DejaVuSans-53"/>
      </defs>
      <g transform="translate(37.875 258.411081)scale(0.1 -0.1)">
       <use xlink:href="#DejaVuSans-53"/>
       <use x="63.623047" xlink:href="#DejaVuSans-48"/>
      </g>
     </g>
    </g>
    <g id="ytick_3">
     <g id="line2d_8">
      <g>
       <use style="stroke:#000000;stroke-width:0.8;" x="57.6" xlink:href="#m47beffc1d2" y="212.901517"/>
      </g>
     </g>
     <g id="text_9">
      <!-- 100 -->
      <g transform="translate(31.5125 216.700736)scale(0.1 -0.1)">
       <use xlink:href="#DejaVuSans-49"/>
       <use x="63.623047" xlink:href="#DejaVuSans-48"/>
       <use x="127.246094" xlink:href="#DejaVuSans-48"/>
      </g>
     </g>
    </g>
    <g id="ytick_4">
     <g id="line2d_9">
      <g>
       <use style="stroke:#000000;stroke-width:0.8;" x="57.6" xlink:href="#m47beffc1d2" y="171.191172"/>
      </g>
     </g>
     <g id="text_10">
      <!-- 150 -->
      <g transform="translate(31.5125 174.990391)scale(0.1 -0.1)">
       <use xlink:href="#DejaVuSans-49"/>
       <use x="63.623047" xlink:href="#DejaVuSans-53"/>
       <use x="127.246094" xlink:href="#DejaVuSans-48"/>
      </g>
     </g>
    </g>
    <g id="ytick_5">
     <g id="line2d_10">
      <g>
       <use style="stroke:#000000;stroke-width:0.8;" x="57.6" xlink:href="#m47beffc1d2" y="129.480828"/>
      </g>
     </g>
     <g id="text_11">
      <!-- 200 -->
      <g transform="translate(31.5125 133.280046)scale(0.1 -0.1)">
       <use xlink:href="#DejaVuSans-50"/>
       <use x="63.623047" xlink:href="#DejaVuSans-48"/>
       <use x="127.246094" xlink:href="#DejaVuSans-48"/>
      </g>
     </g>
    </g>
    <g id="ytick_6">
     <g id="line2d_11">
      <g>
       <use style="stroke:#000000;stroke-width:0.8;" x="57.6" xlink:href="#m47beffc1d2" y="87.770483"/>
      </g>
     </g>
     <g id="text_12">
      <!-- 250 -->
      <g transform="translate(31.5125 91.569702)scale(0.1 -0.1)">
       <use xlink:href="#DejaVuSans-50"/>
       <use x="63.623047" xlink:href="#DejaVuSans-53"/>
       <use x="127.246094" xlink:href="#DejaVuSans-48"/>
      </g>
     </g>
    </g>
    <g id="ytick_7">
     <g id="line2d_12">
      <g>
       <use style="stroke:#000000;stroke-width:0.8;" x="57.6" xlink:href="#m47beffc1d2" y="46.060138"/>
      </g>
     </g>
     <g id="text_13">
      <!-- 300 -->
      <defs>
       <path d="M 40.578125 39.3125 
Q 47.65625 37.796875 51.625 33 
Q 55.609375 28.21875 55.609375 21.1875 
Q 55.609375 10.40625 48.1875 4.484375 
Q 40.765625 -1.421875 27.09375 -1.421875 
Q 22.515625 -1.421875 17.65625 -0.515625 
Q 12.796875 0.390625 7.625 2.203125 
L 7.625 11.71875 
Q 11.71875 9.328125 16.59375 8.109375 
Q 21.484375 6.890625 26.8125 6.890625 
Q 36.078125 6.890625 40.9375 10.546875 
Q 45.796875 14.203125 45.796875 21.1875 
Q 45.796875 27.640625 41.28125 31.265625 
Q 36.765625 34.90625 28.71875 34.90625 
L 20.21875 34.90625 
L 20.21875 43.015625 
L 29.109375 43.015625 
Q 36.375 43.015625 40.234375 45.921875 
Q 44.09375 48.828125 44.09375 54.296875 
Q 44.09375 59.90625 40.109375 62.90625 
Q 36.140625 65.921875 28.71875 65.921875 
Q 24.65625 65.921875 20.015625 65.03125 
Q 15.375 64.15625 9.8125 62.3125 
L 9.8125 71.09375 
Q 15.4375 72.65625 20.34375 73.4375 
Q 25.25 74.21875 29.59375 74.21875 
Q 40.828125 74.21875 47.359375 69.109375 
Q 53.90625 64.015625 53.90625 55.328125 
Q 53.90625 49.265625 50.4375 45.09375 
Q 46.96875 40.921875 40.578125 39.3125 
z
" id="DejaVuSans-51"/>
      </defs>
      <g transform="translate(31.5125 49.859357)scale(0.1 -0.1)">
       <use xlink:href="#DejaVuSans-51"/>
       <use x="63.623047" xlink:href="#DejaVuSans-48"/>
       <use x="127.246094" xlink:href="#DejaVuSans-48"/>
      </g>
     </g>
    </g>
    <g id="text_14">
     <!-- Índice do motoneurônio -->
     <defs>
      <path d="M 9.8125 72.90625 
L 19.671875 72.90625 
L 19.671875 0 
L 9.8125 0 
z
M 17.484375 92.734375 
L 26.515625 92.734375 
L 15.375 79.84375 
L 7.90625 79.84375 
z
" id="DejaVuSans-205"/>
      <path d="M 54.890625 33.015625 
L 54.890625 0 
L 45.90625 0 
L 45.90625 32.71875 
Q 45.90625 40.484375 42.875 44.328125 
Q 39.84375 48.1875 33.796875 48.1875 
Q 26.515625 48.1875 22.3125 43.546875 
Q 18.109375 38.921875 18.109375 30.90625 
L 18.109375 0 
L 9.078125 0 
L 9.078125 54.6875 
L 18.109375 54.6875 
L 18.109375 46.1875 
Q 21.34375 51.125 25.703125 53.5625 
Q 30.078125 56 35.796875 56 
Q 45.21875 56 50.046875 50.171875 
Q 54.890625 44.34375 54.890625 33.015625 
z
" id="DejaVuSans-110"/>
      <path d="M 45.40625 46.390625 
L 45.40625 75.984375 
L 54.390625 75.984375 
L 54.390625 0 
L 45.40625 0 
L 45.40625 8.203125 
Q 42.578125 3.328125 38.25 0.953125 
Q 33.9375 -1.421875 27.875 -1.421875 
Q 17.96875 -1.421875 11.734375 6.484375 
Q 5.515625 14.40625 5.515625 27.296875 
Q 5.515625 40.1875 11.734375 48.09375 
Q 17.96875 56 27.875 56 
Q 33.9375 56 38.25 53.625 
Q 42.578125 51.265625 45.40625 46.390625 
z
M 14.796875 27.296875 
Q 14.796875 17.390625 18.875 11.75 
Q 22.953125 6.109375 30.078125 6.109375 
Q 37.203125 6.109375 41.296875 11.75 
Q 45.40625 17.390625 45.40625 27.296875 
Q 45.40625 37.203125 41.296875 42.84375 
Q 37.203125 48.484375 30.078125 48.484375 
Q 22.953125 48.484375 18.875 42.84375 
Q 14.796875 37.203125 14.796875 27.296875 
z
" id="DejaVuSans-100"/>
      <path d="M 9.421875 54.6875 
L 18.40625 54.6875 
L 18.40625 0 
L 9.421875 0 
z
M 9.421875 75.984375 
L 18.40625 75.984375 
L 18.40625 64.59375 
L 9.421875 64.59375 
z
" id="DejaVuSans-105"/>
      <path d="M 48.78125 52.59375 
L 48.78125 44.1875 
Q 44.96875 46.296875 41.140625 47.34375 
Q 37.3125 48.390625 33.40625 48.390625 
Q 24.65625 48.390625 19.8125 42.84375 
Q 14.984375 37.3125 14.984375 27.296875 
Q 14.984375 17.28125 19.8125 11.734375 
Q 24.65625 6.203125 33.40625 6.203125 
Q 37.3125 6.203125 41.140625 7.25 
Q 44.96875 8.296875 48.78125 10.40625 
L 48.78125 2.09375 
Q 45.015625 0.34375 40.984375 -0.53125 
Q 36.96875 -1.421875 32.421875 -1.421875 
Q 20.0625 -1.421875 12.78125 6.34375 
Q 5.515625 14.109375 5.515625 27.296875 
Q 5.515625 40.671875 12.859375 48.328125 
Q 20.21875 56 33.015625 56 
Q 37.15625 56 41.109375 55.140625 
Q 45.0625 54.296875 48.78125 52.59375 
z
" id="DejaVuSans-99"/>
      <path d="M 18.3125 70.21875 
L 18.3125 54.6875 
L 36.8125 54.6875 
L 36.8125 47.703125 
L 18.3125 47.703125 
L 18.3125 18.015625 
Q 18.3125 11.328125 20.140625 9.421875 
Q 21.96875 7.515625 27.59375 7.515625 
L 36.8125 7.515625 
L 36.8125 0 
L 27.59375 0 
Q 17.1875 0 13.234375 3.875 
Q 9.28125 7.765625 9.28125 18.015625 
L 9.28125 47.703125 
L 2.6875 47.703125 
L 2.6875 54.6875 
L 9.28125 54.6875 
L 9.28125 70.21875 
z
" id="DejaVuSans-116"/>
      <path d="M 8.5 21.578125 
L 8.5 54.6875 
L 17.484375 54.6875 
L 17.484375 21.921875 
Q 17.484375 14.15625 20.5 10.265625 
Q 23.53125 6.390625 29.59375 6.390625 
Q 36.859375 6.390625 41.078125 11.03125 
Q 45.3125 15.671875 45.3125 23.6875 
L 45.3125 54.6875 
L 54.296875 54.6875 
L 54.296875 0 
L 45.3125 0 
L 45.3125 8.40625 
Q 42.046875 3.421875 37.71875 1 
Q 33.40625 -1.421875 27.6875 -1.421875 
Q 18.265625 -1.421875 13.375 4.4375 
Q 8.5 10.296875 8.5 21.578125 
z
M 31.109375 56 
z
" id="DejaVuSans-117"/>
      <path d="M 41.109375 46.296875 
Q 39.59375 47.171875 37.8125 47.578125 
Q 36.03125 48 33.890625 48 
Q 26.265625 48 22.1875 43.046875 
Q 18.109375 38.09375 18.109375 28.8125 
L 18.109375 0 
L 9.078125 0 
L 9.078125 54.6875 
L 18.109375 54.6875 
L 18.109375 46.1875 
Q 20.953125 51.171875 25.484375 53.578125 
Q 30.03125 56 36.53125 56 
Q 37.453125 56 38.578125 55.875 
Q 39.703125 55.765625 41.0625 55.515625 
z
" id="DejaVuSans-114"/>
      <path d="M 30.609375 48.390625 
Q 23.390625 48.390625 19.1875 42.75 
Q 14.984375 37.109375 14.984375 27.296875 
Q 14.984375 17.484375 19.15625 11.84375 
Q 23.34375 6.203125 30.609375 6.203125 
Q 37.796875 6.203125 41.984375 11.859375 
Q 46.1875 17.53125 46.1875 27.296875 
Q 46.1875 37.015625 41.984375 42.703125 
Q 37.796875 48.390625 30.609375 48.390625 
z
M 30.609375 56 
Q 42.328125 56 49.015625 48.375 
Q 55.71875 40.765625 55.71875 27.296875 
Q 55.71875 13.875 49.015625 6.21875 
Q 42.328125 -1.421875 30.609375 -1.421875 
Q 18.84375 -1.421875 12.171875 6.21875 
Q 5.515625 13.875 5.515625 27.296875 
Q 5.515625 40.765625 12.171875 48.375 
Q 18.84375 56 30.609375 56 
z
M 27 79.984375 
L 34.234375 79.984375 
L 46.1875 61.625 
L 39.40625 61.625 
L 30.609375 73.578125 
L 21.828125 61.625 
L 15.046875 61.625 
z
" id="DejaVuSans-244"/>
     </defs>
     <g transform="translate(25.432812 234.066281)rotate(-90)scale(0.1 -0.1)">
      <use xlink:href="#DejaVuSans-205"/>
      <use x="29.492188" xlink:href="#DejaVuSans-110"/>
      <use x="92.871094" xlink:href="#DejaVuSans-100"/>
      <use x="156.347656" xlink:href="#DejaVuSans-105"/>
      <use x="184.130859" xlink:href="#DejaVuSans-99"/>
      <use x="239.111328" xlink:href="#DejaVuSans-101"/>
      <use x="300.634766" xlink:href="#DejaVuSans-32"/>
      <use x="332.421875" xlink:href="#DejaVuSans-100"/>
      <use x="395.898438" xlink:href="#DejaVuSans-111"/>
      <use x="457.080078" xlink:href="#DejaVuSans-32"/>
      <use x="488.867188" xlink:href="#DejaVuSans-109"/>
      <use x="586.279297" xlink:href="#DejaVuSans-111"/>
      <use x="647.460938" xlink:href="#DejaVuSans-116"/>
      <use x="686.669922" xlink:href="#DejaVuSans-111"/>
      <use x="747.851562" xlink:href="#DejaVuSans-110"/>
      <use x="811.230469" xlink:href="#DejaVuSans-101"/>
      <use x="872.753906" xlink:href="#DejaVuSans-117"/>
      <use x="936.132812" xlink:href="#DejaVuSans-114"/>
      <use x="977.214844" xlink:href="#DejaVuSans-244"/>
      <use x="1038.396484" xlink:href="#DejaVuSans-110"/>
      <use x="1101.775391" xlink:href="#DejaVuSans-105"/>
      <use x="1129.558594" xlink:href="#DejaVuSans-111"/>
     </g>
    </g>
   </g>
   <g id="line2d_13">
    <defs>
     <path d="M 0 1.5 
C 0.397805 1.5 0.77937 1.341951 1.06066 1.06066 
C 1.341951 0.77937 1.5 0.397805 1.5 0 
C 1.5 -0.397805 1.341951 -0.77937 1.06066 -1.06066 
C 0.77937 -1.341951 0.397805 -1.5 0 -1.5 
C -0.397805 -1.5 -0.77937 -1.341951 -1.06066 -1.06066 
C -1.341951 -0.77937 -1.5 -0.397805 -1.5 0 
C -1.5 0.397805 -1.341951 0.77937 -1.06066 1.06066 
C -0.77937 1.341951 -0.397805 1.5 0 1.5 
z
" id="m886187c35a" style="stroke:#1f77b4;"/>
    </defs>
    <g clip-path="url(#p1a37d61c1d)">
     <use style="fill:#1f77b4;stroke:#1f77b4;" x="74.970147" xlink:href="#m886187c35a" y="295.488"/>
     <use style="fill:#1f77b4;stroke:#1f77b4;" x="74.882653" xlink:href="#m886187c35a" y="294.653793"/>
     <use style="fill:#1f77b4;stroke:#1f77b4;" x="74.07771" xlink:href="#m886187c35a" y="293.819586"/>
     <use style="fill:#1f77b4;stroke:#1f77b4;" x="73.93772" xlink:href="#m886187c35a" y="292.985379"/>
     <use style="fill:#1f77b4;stroke:#1f77b4;" x="74.410186" xlink:href="#m886187c35a" y="292.151172"/>
     <use style="fill:#1f77b4;stroke:#1f77b4;" x="74.795159" xlink:href="#m886187c35a" y="291.316966"/>
     <use style="fill:#1f77b4;stroke:#1f77b4;" x="73.832727" xlink:href="#m886187c35a" y="290.482759"/>
     <use style="fill:#1f77b4;stroke:#1f77b4;" x="78.067428" xlink:href="#m886187c35a" y="289.648552"/>
     <use style="fill:#1f77b4;stroke:#1f77b4;" x="74.830157" xlink:href="#m886187c35a" y="288.814345"/>
     <use style="fill:#1f77b4;stroke:#1f77b4;" x="74.182703" xlink:href="#m886187c35a" y="287.980138"/>
     <use style="fill:#1f77b4;stroke:#1f77b4;" x="79.274842" xlink:href="#m886187c35a" y="287.145931"/>
     <use style="fill:#1f77b4;stroke:#1f77b4;" x="80.237274" xlink:href="#m886187c35a" y="286.311724"/>
     <use style="fill:#1f77b4;stroke:#1f77b4;" x="74.672668" xlink:href="#m886187c35a" y="285.477517"/>
     <use style="fill:#1f77b4;stroke:#1f77b4;" x="80.482257" xlink:href="#m886187c35a" y="284.64331"/>
     <use style="fill:#1f77b4;stroke:#1f77b4;" x="79.554823" xlink:href="#m886187c35a" y="283.809103"/>
     <use style="fill:#1f77b4;stroke:#1f77b4;" x="89.161643" xlink:href="#m886187c35a" y="282.974897"/>
     <use style="fill:#1f77b4;stroke:#1f77b4;" x="80.482257" xlink:href="#m886187c35a" y="282.14069"/>
     <use style="fill:#1f77b4;stroke:#1f77b4;" x="80.482257" xlink:href="#m886187c35a" y="281.306483"/>
     <use style="fill:#1f77b4;stroke:#1f77b4;" x="83.089573" xlink:href="#m886187c35a" y="280.472276"/>
     <use style="fill:#1f77b4;stroke:#1f77b4;" x="78.977364" xlink:href="#m886187c35a" y="279.638069"/>
     <use style="fill:#1f77b4;stroke:#1f77b4;" x="82.687101" xlink:href="#m886187c35a" y="278.803862"/>
     <use style="fill:#1f77b4;stroke:#1f77b4;" x="82.862089" xlink:href="#m886187c35a" y="277.969655"/>
     <use style="fill:#1f77b4;stroke:#1f77b4;" x="89.581614" xlink:href="#m886187c35a" y="277.135448"/>
     <use style="fill:#1f77b4;stroke:#1f77b4;" x="83.247062" xlink:href="#m886187c35a" y="276.301241"/>
     <use style="fill:#1f77b4;stroke:#1f77b4;" x="82.967081" xlink:href="#m886187c35a" y="275.467034"/>
     <use style="fill:#1f77b4;stroke:#1f77b4;" x="87.254278" xlink:href="#m886187c35a" y="274.632828"/>
     <use style="fill:#1f77b4;stroke:#1f77b4;" x="86.23935" xlink:href="#m886187c35a" y="273.798621"/>
     <use style="fill:#1f77b4;stroke:#1f77b4;" x="83.509543" xlink:href="#m886187c35a" y="272.964414"/>
     <use style="fill:#1f77b4;stroke:#1f77b4;" x="89.319132" xlink:href="#m886187c35a" y="272.130207"/>
     <use style="fill:#1f77b4;stroke:#1f77b4;" x="87.341772" xlink:href="#m886187c35a" y="271.296"/>
     <use style="fill:#1f77b4;stroke:#1f77b4;" x="86.904303" xlink:href="#m886187c35a" y="270.461793"/>
     <use style="fill:#1f77b4;stroke:#1f77b4;" x="89.336631" xlink:href="#m886187c35a" y="269.627586"/>
     <use style="fill:#1f77b4;stroke:#1f77b4;" x="92.853882" xlink:href="#m886187c35a" y="268.793379"/>
     <use style="fill:#1f77b4;stroke:#1f77b4;" x="95.671183" xlink:href="#m886187c35a" y="267.959172"/>
     <use style="fill:#1f77b4;stroke:#1f77b4;" x="99.065943" xlink:href="#m886187c35a" y="267.124966"/>
     <use style="fill:#1f77b4;stroke:#1f77b4;" x="97.963521" xlink:href="#m886187c35a" y="266.290759"/>
     <use style="fill:#1f77b4;stroke:#1f77b4;" x="87.324273" xlink:href="#m886187c35a" y="265.456552"/>
     <use style="fill:#1f77b4;stroke:#1f77b4;" x="98.960951" xlink:href="#m886187c35a" y="264.622345"/>
     <use style="fill:#1f77b4;stroke:#1f77b4;" x="93.02887" xlink:href="#m886187c35a" y="263.788138"/>
     <use style="fill:#1f77b4;stroke:#1f77b4;" x="95.076225" xlink:href="#m886187c35a" y="262.953931"/>
     <use style="fill:#1f77b4;stroke:#1f77b4;" x="89.284135" xlink:href="#m886187c35a" y="262.119724"/>
     <use style="fill:#1f77b4;stroke:#1f77b4;" x="98.698469" xlink:href="#m886187c35a" y="261.285517"/>
     <use style="fill:#1f77b4;stroke:#1f77b4;" x="108.58527" xlink:href="#m886187c35a" y="260.45131"/>
     <use style="fill:#1f77b4;stroke:#1f77b4;" x="92.573902" xlink:href="#m886187c35a" y="259.617103"/>
     <use style="fill:#1f77b4;stroke:#1f77b4;" x="98.838459" xlink:href="#m886187c35a" y="258.782897"/>
     <use style="fill:#1f77b4;stroke:#1f77b4;" x="98.698469" xlink:href="#m886187c35a" y="257.94869"/>
     <use style="fill:#1f77b4;stroke:#1f77b4;" x="99.030946" xlink:href="#m886187c35a" y="257.114483"/>
     <use style="fill:#1f77b4;stroke:#1f77b4;" x="98.82096" xlink:href="#m886187c35a" y="256.280276"/>
     <use style="fill:#1f77b4;stroke:#1f77b4;" x="102.740683" xlink:href="#m886187c35a" y="255.446069"/>
     <use style="fill:#1f77b4;stroke:#1f77b4;" x="104.858034" xlink:href="#m886187c35a" y="254.611862"/>
     <use style="fill:#1f77b4;stroke:#1f77b4;" x="104.63055" xlink:href="#m886187c35a" y="253.777655"/>
     <use style="fill:#1f77b4;stroke:#1f77b4;" x="105.033021" xlink:href="#m886187c35a" y="252.943448"/>
     <use style="fill:#1f77b4;stroke:#1f77b4;" x="112.067524" xlink:href="#m886187c35a" y="252.109241"/>
     <use style="fill:#1f77b4;stroke:#1f77b4;" x="111.752546" xlink:href="#m886187c35a" y="251.275034"/>
     <use style="fill:#1f77b4;stroke:#1f77b4;" x="117.387148" xlink:href="#m886187c35a" y="250.440828"/>
     <use style="fill:#1f77b4;stroke:#1f77b4;" x="104.805537" xlink:href="#m886187c35a" y="249.606621"/>
     <use style="fill:#1f77b4;stroke:#1f77b4;" x="104.805537" xlink:href="#m886187c35a" y="248.772414"/>
     <use style="fill:#1f77b4;stroke:#1f77b4;" x="111.735047" xlink:href="#m886187c35a" y="247.938207"/>
     <use style="fill:#1f77b4;stroke:#1f77b4;" x="98.82096" xlink:href="#m886187c35a" y="247.104"/>
     <use style="fill:#1f77b4;stroke:#1f77b4;" x="104.245577" xlink:href="#m886187c35a" y="246.269793"/>
     <use style="fill:#1f77b4;stroke:#1f77b4;" x="113.712408" xlink:href="#m886187c35a" y="245.435586"/>
     <use style="fill:#1f77b4;stroke:#1f77b4;" x="104.805537" xlink:href="#m886187c35a" y="244.601379"/>
     <use style="fill:#1f77b4;stroke:#1f77b4;" x="104.63055" xlink:href="#m886187c35a" y="243.767172"/>
     <use style="fill:#1f77b4;stroke:#1f77b4;" x="98.470985" xlink:href="#m886187c35a" y="242.932966"/>
     <use style="fill:#1f77b4;stroke:#1f77b4;" x="113.869896" xlink:href="#m886187c35a" y="242.098759"/>
     <use style="fill:#1f77b4;stroke:#1f77b4;" x="114.219872" xlink:href="#m886187c35a" y="241.264552"/>
     <use style="fill:#1f77b4;stroke:#1f77b4;" x="108.760258" xlink:href="#m886187c35a" y="240.430345"/>
     <use style="fill:#1f77b4;stroke:#1f77b4;" x="125.944043" xlink:href="#m886187c35a" y="239.596138"/>
     <use style="fill:#1f77b4;stroke:#1f77b4;" x="146.715074" xlink:href="#m886187c35a" y="238.761931"/>
     <use style="fill:#1f77b4;stroke:#1f77b4;" x="108.620268" xlink:href="#m886187c35a" y="237.927724"/>
     <use style="fill:#1f77b4;stroke:#1f77b4;" x="120.309441" xlink:href="#m886187c35a" y="237.093517"/>
     <use style="fill:#1f77b4;stroke:#1f77b4;" x="124.246663" xlink:href="#m886187c35a" y="236.25931"/>
     <use style="fill:#1f77b4;stroke:#1f77b4;" x="134.04597" xlink:href="#m886187c35a" y="235.425103"/>
     <use style="fill:#1f77b4;stroke:#1f77b4;" x="114.132378" xlink:href="#m886187c35a" y="234.590897"/>
     <use style="fill:#1f77b4;stroke:#1f77b4;" x="119.714483" xlink:href="#m886187c35a" y="233.75669"/>
     <use style="fill:#1f77b4;stroke:#1f77b4;" x="126.416509" xlink:href="#m886187c35a" y="232.922483"/>
     <use style="fill:#1f77b4;stroke:#1f77b4;" x="114.202373" xlink:href="#m886187c35a" y="232.088276"/>
     <use style="fill:#1f77b4;stroke:#1f77b4;" x="148.989913" xlink:href="#m886187c35a" y="231.254069"/>
     <use style="fill:#1f77b4;stroke:#1f77b4;" x="137.458229" xlink:href="#m886187c35a" y="230.419862"/>
     <use style="fill:#1f77b4;stroke:#1f77b4;" x="121.446861" xlink:href="#m886187c35a" y="229.585655"/>
     <use style="fill:#1f77b4;stroke:#1f77b4;" x="141.972909" xlink:href="#m886187c35a" y="228.751448"/>
     <use style="fill:#1f77b4;stroke:#1f77b4;" x="125.69906" xlink:href="#m886187c35a" y="227.917241"/>
     <use style="fill:#1f77b4;stroke:#1f77b4;" x="141.552939" xlink:href="#m886187c35a" y="227.083034"/>
     <use style="fill:#1f77b4;stroke:#1f77b4;" x="120.851903" xlink:href="#m886187c35a" y="226.248828"/>
     <use style="fill:#1f77b4;stroke:#1f77b4;" x="133.888481" xlink:href="#m886187c35a" y="225.414621"/>
     <use style="fill:#1f77b4;stroke:#1f77b4;" x="141.465445" xlink:href="#m886187c35a" y="224.580414"/>
     <use style="fill:#1f77b4;stroke:#1f77b4;" x="131.123677" xlink:href="#m886187c35a" y="223.746207"/>
     <use style="fill:#1f77b4;stroke:#1f77b4;" x="133.416014" xlink:href="#m886187c35a" y="222.912"/>
     <use style="fill:#1f77b4;stroke:#1f77b4;" x="141.552939" xlink:href="#m886187c35a" y="222.077793"/>
     <use style="fill:#1f77b4;stroke:#1f77b4;" x="126.381512" xlink:href="#m886187c35a" y="221.243586"/>
     <use style="fill:#1f77b4;stroke:#1f77b4;" x="126.539001" xlink:href="#m886187c35a" y="220.409379"/>
     <use style="fill:#1f77b4;stroke:#1f77b4;" x="146.855064" xlink:href="#m886187c35a" y="219.575172"/>
     <use style="fill:#1f77b4;stroke:#1f77b4;" x="137.003261" xlink:href="#m886187c35a" y="218.740966"/>
     <use style="fill:#1f77b4;stroke:#1f77b4;" x="150.337318" xlink:href="#m886187c35a" y="217.906759"/>
     <use style="fill:#1f77b4;stroke:#1f77b4;" x="129.111319" xlink:href="#m886187c35a" y="217.072552"/>
     <use style="fill:#1f77b4;stroke:#1f77b4;" x="133.381017" xlink:href="#m886187c35a" y="216.238345"/>
     <use style="fill:#1f77b4;stroke:#1f77b4;" x="150.424812" xlink:href="#m886187c35a" y="215.404138"/>
     <use style="fill:#1f77b4;stroke:#1f77b4;" x="141.710428" xlink:href="#m886187c35a" y="214.569931"/>
     <use style="fill:#1f77b4;stroke:#1f77b4;" x="150.214827" xlink:href="#m886187c35a" y="213.735724"/>
     <use style="fill:#1f77b4;stroke:#1f77b4;" x="150.354817" xlink:href="#m886187c35a" y="212.901517"/>
     <use style="fill:#1f77b4;stroke:#1f77b4;" x="136.863271" xlink:href="#m886187c35a" y="212.06731"/>
     <use style="fill:#1f77b4;stroke:#1f77b4;" x="155.779433" xlink:href="#m886187c35a" y="211.233103"/>
     <use style="fill:#1f77b4;stroke:#1f77b4;" x="114.429857" xlink:href="#m886187c35a" y="210.398897"/>
     <use style="fill:#1f77b4;stroke:#1f77b4;" x="137.230745" xlink:href="#m886187c35a" y="209.56469"/>
     <use style="fill:#1f77b4;stroke:#1f77b4;" x="146.575084" xlink:href="#m886187c35a" y="208.730483"/>
     <use style="fill:#1f77b4;stroke:#1f77b4;" x="157.756793" xlink:href="#m886187c35a" y="207.896276"/>
     <use style="fill:#1f77b4;stroke:#1f77b4;" x="161.606521" xlink:href="#m886187c35a" y="207.062069"/>
     <use style="fill:#1f77b4;stroke:#1f77b4;" x="150.337318" xlink:href="#m886187c35a" y="206.227862"/>
     <use style="fill:#1f77b4;stroke:#1f77b4;" x="150.389814" xlink:href="#m886187c35a" y="205.393655"/>
     <use style="fill:#1f77b4;stroke:#1f77b4;" x="150.389814" xlink:href="#m886187c35a" y="204.559448"/>
     <use style="fill:#1f77b4;stroke:#1f77b4;" x="163.286402" xlink:href="#m886187c35a" y="203.725241"/>
     <use style="fill:#1f77b4;stroke:#1f77b4;" x="146.785069" xlink:href="#m886187c35a" y="202.891034"/>
     <use style="fill:#1f77b4;stroke:#1f77b4;" x="173.750663" xlink:href="#m886187c35a" y="202.056828"/>
     <use style="fill:#1f77b4;stroke:#1f77b4;" x="189.867023" xlink:href="#m886187c35a" y="201.222621"/>
     <use style="fill:#1f77b4;stroke:#1f77b4;" x="166.71616" xlink:href="#m886187c35a" y="200.388414"/>
     <use style="fill:#1f77b4;stroke:#1f77b4;" x="163.373896" xlink:href="#m886187c35a" y="199.554207"/>
     <use style="fill:#1f77b4;stroke:#1f77b4;" x="173.943149" xlink:href="#m886187c35a" y="198.72"/>
     <use style="fill:#1f77b4;stroke:#1f77b4;" x="166.681162" xlink:href="#m886187c35a" y="197.885793"/>
     <use style="fill:#1f77b4;stroke:#1f77b4;" x="168.711019" xlink:href="#m886187c35a" y="197.051586"/>
     <use style="fill:#1f77b4;stroke:#1f77b4;" x="173.663169" xlink:href="#m886187c35a" y="196.217379"/>
     <use style="fill:#1f77b4;stroke:#1f77b4;" x="173.593174" xlink:href="#m886187c35a" y="195.383172"/>
     <use style="fill:#1f77b4;stroke:#1f77b4;" x="157.861786" xlink:href="#m886187c35a" y="194.548966"/>
     <use style="fill:#1f77b4;stroke:#1f77b4;" x="163.478889" xlink:href="#m886187c35a" y="193.714759"/>
     <use style="fill:#1f77b4;stroke:#1f77b4;" x="168.623525" xlink:href="#m886187c35a" y="192.880552"/>
     <use style="fill:#1f77b4;stroke:#1f77b4;" x="209.798114" xlink:href="#m886187c35a" y="192.046345"/>
     <use style="fill:#1f77b4;stroke:#1f77b4;" x="173.78566" xlink:href="#m886187c35a" y="191.212138"/>
     <use style="fill:#1f77b4;stroke:#1f77b4;" x="160.696586" xlink:href="#m886187c35a" y="190.377931"/>
     <use style="fill:#1f77b4;stroke:#1f77b4;" x="187.50469" xlink:href="#m886187c35a" y="189.543724"/>
     <use style="fill:#1f77b4;stroke:#1f77b4;" x="190.514477" xlink:href="#m886187c35a" y="188.709517"/>
     <use style="fill:#1f77b4;stroke:#1f77b4;" x="190.986944" xlink:href="#m886187c35a" y="187.87531"/>
     <use style="fill:#1f77b4;stroke:#1f77b4;" x="190.969445" xlink:href="#m886187c35a" y="187.041103"/>
     <use style="fill:#1f77b4;stroke:#1f77b4;" x="187.802169" xlink:href="#m886187c35a" y="186.206897"/>
     <use style="fill:#1f77b4;stroke:#1f77b4;" x="173.733164" xlink:href="#m886187c35a" y="185.37269"/>
     <use style="fill:#1f77b4;stroke:#1f77b4;" x="204.950957" xlink:href="#m886187c35a" y="184.538483"/>
     <use style="fill:#1f77b4;stroke:#1f77b4;" x="184.302417" xlink:href="#m886187c35a" y="183.704276"/>
     <use style="fill:#1f77b4;stroke:#1f77b4;" x="173.820658" xlink:href="#m886187c35a" y="182.870069"/>
     <use style="fill:#1f77b4;stroke:#1f77b4;" x="209.798114" xlink:href="#m886187c35a" y="182.035862"/>
     <use style="fill:#1f77b4;stroke:#1f77b4;" x="203.603552" xlink:href="#m886187c35a" y="181.201655"/>
     <use style="fill:#1f77b4;stroke:#1f77b4;" x="237.463658" xlink:href="#m886187c35a" y="180.367448"/>
     <use style="fill:#1f77b4;stroke:#1f77b4;" x="220.752339" xlink:href="#m886187c35a" y="179.533241"/>
     <use style="fill:#1f77b4;stroke:#1f77b4;" x="220.577352" xlink:href="#m886187c35a" y="178.699034"/>
     <use style="fill:#1f77b4;stroke:#1f77b4;" x="220.629848" xlink:href="#m886187c35a" y="177.864828"/>
     <use style="fill:#1f77b4;stroke:#1f77b4;" x="229.431726" xlink:href="#m886187c35a" y="177.030621"/>
     <use style="fill:#1f77b4;stroke:#1f77b4;" x="206.823324" xlink:href="#m886187c35a" y="176.196414"/>
     <use style="fill:#1f77b4;stroke:#1f77b4;" x="210.113092" xlink:href="#m886187c35a" y="175.362207"/>
     <use style="fill:#1f77b4;stroke:#1f77b4;" x="184.302417" xlink:href="#m886187c35a" y="174.528"/>
     <use style="fill:#1f77b4;stroke:#1f77b4;" x="271.09628" xlink:href="#m886187c35a" y="173.693793"/>
     <use style="fill:#1f77b4;stroke:#1f77b4;" x="262.346898" xlink:href="#m886187c35a" y="172.859586"/>
     <use style="fill:#1f77b4;stroke:#1f77b4;" x="209.780615" xlink:href="#m886187c35a" y="172.025379"/>
     <use style="fill:#1f77b4;stroke:#1f77b4;" x="220.804836" xlink:href="#m886187c35a" y="171.191172"/>
     <use style="fill:#1f77b4;stroke:#1f77b4;" x="190.881951" xlink:href="#m886187c35a" y="170.356966"/>
     <use style="fill:#1f77b4;stroke:#1f77b4;" x="249.362817" xlink:href="#m886187c35a" y="169.522759"/>
     <use style="fill:#1f77b4;stroke:#1f77b4;" x="177.740381" xlink:href="#m886187c35a" y="168.688552"/>
     <use style="fill:#1f77b4;stroke:#1f77b4;" x="237.28867" xlink:href="#m886187c35a" y="167.854345"/>
     <use style="fill:#1f77b4;stroke:#1f77b4;" x="209.955603" xlink:href="#m886187c35a" y="167.020138"/>
     <use style="fill:#1f77b4;stroke:#1f77b4;" x="214.645271" xlink:href="#m886187c35a" y="166.185931"/>
     <use style="fill:#1f77b4;stroke:#1f77b4;" x="244.918131" xlink:href="#m886187c35a" y="165.351724"/>
     <use style="fill:#1f77b4;stroke:#1f77b4;" x="240.088472" xlink:href="#m886187c35a" y="164.517517"/>
     <use style="fill:#1f77b4;stroke:#1f77b4;" x="199.211362" xlink:href="#m886187c35a" y="163.68331"/>
     <use style="fill:#1f77b4;stroke:#1f77b4;" x="220.892329" xlink:href="#m886187c35a" y="162.849103"/>
     <use style="fill:#1f77b4;stroke:#1f77b4;" x="263.431822" xlink:href="#m886187c35a" y="162.014897"/>
     <use style="fill:#1f77b4;stroke:#1f77b4;" x="196.236573" xlink:href="#m886187c35a" y="161.18069"/>
     <use style="fill:#1f77b4;stroke:#1f77b4;" x="257.219761" xlink:href="#m886187c35a" y="160.346483"/>
     <use style="fill:#1f77b4;stroke:#1f77b4;" x="247.05298" xlink:href="#m886187c35a" y="159.512276"/>
     <use style="fill:#1f77b4;stroke:#1f77b4;" x="249.117834" xlink:href="#m886187c35a" y="158.678069"/>
     <use style="fill:#1f77b4;stroke:#1f77b4;" x="234.576362" xlink:href="#m886187c35a" y="157.843862"/>
     <use style="fill:#1f77b4;stroke:#1f77b4;" x="240.350954" xlink:href="#m886187c35a" y="157.009655"/>
     <use style="fill:#1f77b4;stroke:#1f77b4;" x="204.915959" xlink:href="#m886187c35a" y="156.175448"/>
     <use style="fill:#1f77b4;stroke:#1f77b4;" x="234.261384" xlink:href="#m886187c35a" y="155.341241"/>
     <use style="fill:#1f77b4;stroke:#1f77b4;" x="212.562918" xlink:href="#m886187c35a" y="154.507034"/>
     <use style="fill:#1f77b4;stroke:#1f77b4;" x="237.551152" xlink:href="#m886187c35a" y="153.672828"/>
     <use style="fill:#1f77b4;stroke:#1f77b4;" x="220.839833" xlink:href="#m886187c35a" y="152.838621"/>
     <use style="fill:#1f77b4;stroke:#1f77b4;" x="256.747294" xlink:href="#m886187c35a" y="152.004414"/>
     <use style="fill:#1f77b4;stroke:#1f77b4;" x="285.690248" xlink:href="#m886187c35a" y="151.170207"/>
     <use style="fill:#1f77b4;stroke:#1f77b4;" x="252.547591" xlink:href="#m886187c35a" y="150.336"/>
     <use style="fill:#1f77b4;stroke:#1f77b4;" x="237.481157" xlink:href="#m886187c35a" y="149.501793"/>
     <use style="fill:#1f77b4;stroke:#1f77b4;" x="263.641807" xlink:href="#m886187c35a" y="148.667586"/>
     <use style="fill:#1f77b4;stroke:#1f77b4;" x="240.088472" xlink:href="#m886187c35a" y="147.833379"/>
     <use style="fill:#1f77b4;stroke:#1f77b4;" x="215.100239" xlink:href="#m886187c35a" y="146.999172"/>
     <use style="fill:#1f77b4;stroke:#1f77b4;" x="288.35006" xlink:href="#m886187c35a" y="146.164966"/>
     <use style="fill:#1f77b4;stroke:#1f77b4;" x="237.498655" xlink:href="#m886187c35a" y="145.330759"/>
     <use style="fill:#1f77b4;stroke:#1f77b4;" x="245.425595" xlink:href="#m886187c35a" y="144.496552"/>
     <use style="fill:#1f77b4;stroke:#1f77b4;" x="187.714675" xlink:href="#m886187c35a" y="143.662345"/>
     <use style="fill:#1f77b4;stroke:#1f77b4;" x="294.894597" xlink:href="#m886187c35a" y="142.828138"/>
     <use style="fill:#1f77b4;stroke:#1f77b4;" x="278.148281" xlink:href="#m886187c35a" y="141.993931"/>
     <use style="fill:#1f77b4;stroke:#1f77b4;" x="226.106961" xlink:href="#m886187c35a" y="141.159724"/>
     <use style="fill:#1f77b4;stroke:#1f77b4;" x="265.951644" xlink:href="#m886187c35a" y="140.325517"/>
     <use style="fill:#1f77b4;stroke:#1f77b4;" x="275.76845" xlink:href="#m886187c35a" y="139.49131"/>
     <use style="fill:#1f77b4;stroke:#1f77b4;" x="259.844575" xlink:href="#m886187c35a" y="138.657103"/>
     <use style="fill:#1f77b4;stroke:#1f77b4;" x="277.763308" xlink:href="#m886187c35a" y="137.822897"/>
     <use style="fill:#1f77b4;stroke:#1f77b4;" x="240.350954" xlink:href="#m886187c35a" y="136.98869"/>
     <use style="fill:#1f77b4;stroke:#1f77b4;" x="305.88382" xlink:href="#m886187c35a" y="136.154483"/>
     <use style="fill:#1f77b4;stroke:#1f77b4;" x="288.192571" xlink:href="#m886187c35a" y="135.320276"/>
     <use style="fill:#1f77b4;stroke:#1f77b4;" x="220.664846" xlink:href="#m886187c35a" y="134.486069"/>
     <use style="fill:#1f77b4;stroke:#1f77b4;" x="320.950255" xlink:href="#m886187c35a" y="133.651862"/>
     <use style="fill:#1f77b4;stroke:#1f77b4;" x="269.223912" xlink:href="#m886187c35a" y="132.817655"/>
     <use style="fill:#1f77b4;stroke:#1f77b4;" x="226.316946" xlink:href="#m886187c35a" y="131.983448"/>
     <use style="fill:#1f77b4;stroke:#1f77b4;" x="312.760834" xlink:href="#m886187c35a" y="131.149241"/>
     <use style="fill:#1f77b4;stroke:#1f77b4;" x="331.729493" xlink:href="#m886187c35a" y="130.315034"/>
     <use style="fill:#1f77b4;stroke:#1f77b4;" x="268.751446" xlink:href="#m886187c35a" y="129.480828"/>
     <use style="fill:#1f77b4;stroke:#1f77b4;" x="299.479273" xlink:href="#m886187c35a" y="128.646621"/>
     <use style="fill:#1f77b4;stroke:#1f77b4;" x="249.817784" xlink:href="#m886187c35a" y="127.812414"/>
     <use style="fill:#1f77b4;stroke:#1f77b4;" x="240.210964" xlink:href="#m886187c35a" y="126.978207"/>
     <use style="fill:#1f77b4;stroke:#1f77b4;" x="288.017583" xlink:href="#m886187c35a" y="126.144"/>
     <use style="fill:#1f77b4;stroke:#1f77b4;" x="263.851792" xlink:href="#m886187c35a" y="125.309793"/>
     <use style="fill:#1f77b4;stroke:#1f77b4;" x="305.60384" xlink:href="#m886187c35a" y="124.475586"/>
     <use style="fill:#1f77b4;stroke:#1f77b4;" x="334.424302" xlink:href="#m886187c35a" y="123.641379"/>
     <use style="fill:#1f77b4;stroke:#1f77b4;" x="317.06553" xlink:href="#m886187c35a" y="122.807172"/>
     <use style="fill:#1f77b4;stroke:#1f77b4;" x="273.21363" xlink:href="#m886187c35a" y="121.972966"/>
     <use style="fill:#1f77b4;stroke:#1f77b4;" x="303.171512" xlink:href="#m886187c35a" y="121.138759"/>
     <use style="fill:#1f77b4;stroke:#1f77b4;" x="295.122081" xlink:href="#m886187c35a" y="120.304552"/>
     <use style="fill:#1f77b4;stroke:#1f77b4;" x="286.040223" xlink:href="#m886187c35a" y="119.470345"/>
     <use style="fill:#1f77b4;stroke:#1f77b4;" x="303.084018" xlink:href="#m886187c35a" y="118.636138"/>
     <use style="fill:#1f77b4;stroke:#1f77b4;" x="356.52524" xlink:href="#m886187c35a" y="117.801931"/>
     <use style="fill:#1f77b4;stroke:#1f77b4;" x="290.204929" xlink:href="#m886187c35a" y="116.967724"/>
     <use style="fill:#1f77b4;stroke:#1f77b4;" x="220.052389" xlink:href="#m886187c35a" y="116.133517"/>
     <use style="fill:#1f77b4;stroke:#1f77b4;" x="290.729892" xlink:href="#m886187c35a" y="115.29931"/>
     <use style="fill:#1f77b4;stroke:#1f77b4;" x="316.978036" xlink:href="#m886187c35a" y="114.465103"/>
     <use style="fill:#1f77b4;stroke:#1f77b4;" x="343.138686" xlink:href="#m886187c35a" y="113.630897"/>
     <use style="fill:#1f77b4;stroke:#1f77b4;" x="262.399395" xlink:href="#m886187c35a" y="112.79669"/>
     <use style="fill:#1f77b4;stroke:#1f77b4;" x="301.421636" xlink:href="#m886187c35a" y="111.962483"/>
     <use style="fill:#1f77b4;stroke:#1f77b4;" x="361.512387" xlink:href="#m886187c35a" y="111.128276"/>
     <use style="fill:#1f77b4;stroke:#1f77b4;" x="308.158659" xlink:href="#m886187c35a" y="110.294069"/>
     <use style="fill:#1f77b4;stroke:#1f77b4;" x="273.038643" xlink:href="#m886187c35a" y="109.459862"/>
     <use style="fill:#1f77b4;stroke:#1f77b4;" x="290.432413" xlink:href="#m886187c35a" y="108.625655"/>
     <use style="fill:#1f77b4;stroke:#1f77b4;" x="377.086286" xlink:href="#m886187c35a" y="106.957241"/>
     <use style="fill:#1f77b4;stroke:#1f77b4;" x="372.274126" xlink:href="#m886187c35a" y="106.123034"/>
     <use style="fill:#1f77b4;stroke:#1f77b4;" x="252.110122" xlink:href="#m886187c35a" y="105.288828"/>
     <use style="fill:#1f77b4;stroke:#1f77b4;" x="343.401168" xlink:href="#m886187c35a" y="104.454621"/>
     <use style="fill:#1f77b4;stroke:#1f77b4;" x="364.049708" xlink:href="#m886187c35a" y="103.620414"/>
     <use style="fill:#1f77b4;stroke:#1f77b4;" x="309.611057" xlink:href="#m886187c35a" y="102.786207"/>
     <use style="fill:#1f77b4;stroke:#1f77b4;" x="343.488661" xlink:href="#m886187c35a" y="101.952"/>
     <use style="fill:#1f77b4;stroke:#1f77b4;" x="346.743431" xlink:href="#m886187c35a" y="101.117793"/>
     <use style="fill:#1f77b4;stroke:#1f77b4;" x="269.311406" xlink:href="#m886187c35a" y="100.283586"/>
     <use style="fill:#1f77b4;stroke:#1f77b4;" x="340.53137" xlink:href="#m886187c35a" y="99.449379"/>
     <use style="fill:#1f77b4;stroke:#1f77b4;" x="273.651099" xlink:href="#m886187c35a" y="98.615172"/>
     <use style="fill:#1f77b4;stroke:#1f77b4;" x="316.873043" xlink:href="#m886187c35a" y="97.780966"/>
     <use style="fill:#1f77b4;stroke:#1f77b4;" x="331.432014" xlink:href="#m886187c35a" y="96.946759"/>
     <use style="fill:#1f77b4;stroke:#1f77b4;" x="303.48649" xlink:href="#m886187c35a" y="96.112552"/>
     <use style="fill:#1f77b4;stroke:#1f77b4;" x="397.017377" xlink:href="#m886187c35a" y="95.278345"/>
     <use style="fill:#1f77b4;stroke:#1f77b4;" x="273.423615" xlink:href="#m886187c35a" y="94.444138"/>
     <use style="fill:#1f77b4;stroke:#1f77b4;" x="366.657023" xlink:href="#m886187c35a" y="93.609931"/>
     <use style="fill:#1f77b4;stroke:#1f77b4;" x="337.381593" xlink:href="#m886187c35a" y="92.775724"/>
     <use style="fill:#1f77b4;stroke:#1f77b4;" x="331.274525" xlink:href="#m886187c35a" y="91.941517"/>
     <use style="fill:#1f77b4;stroke:#1f77b4;" x="372.904082" xlink:href="#m886187c35a" y="90.273103"/>
     <use style="fill:#1f77b4;stroke:#1f77b4;" x="398.487273" xlink:href="#m886187c35a" y="89.438897"/>
     <use style="fill:#1f77b4;stroke:#1f77b4;" x="331.6245" xlink:href="#m886187c35a" y="88.60469"/>
     <use style="fill:#1f77b4;stroke:#1f77b4;" x="294.894597" xlink:href="#m886187c35a" y="87.770483"/>
     <use style="fill:#1f77b4;stroke:#1f77b4;" x="290.764889" xlink:href="#m886187c35a" y="86.936276"/>
     <use style="fill:#1f77b4;stroke:#1f77b4;" x="398.294786" xlink:href="#m886187c35a" y="86.102069"/>
     <use style="fill:#1f77b4;stroke:#1f77b4;" x="327.337303" xlink:href="#m886187c35a" y="85.267862"/>
     <use style="fill:#1f77b4;stroke:#1f77b4;" x="387.235568" xlink:href="#m886187c35a" y="82.765241"/>
     <use style="fill:#1f77b4;stroke:#1f77b4;" x="316.575564" xlink:href="#m886187c35a" y="81.931034"/>
     <use style="fill:#1f77b4;stroke:#1f77b4;" x="366.027068" xlink:href="#m886187c35a" y="80.262621"/>
     <use style="fill:#1f77b4;stroke:#1f77b4;" x="358.660089" xlink:href="#m886187c35a" y="78.594207"/>
     <use style="fill:#1f77b4;stroke:#1f77b4;" x="331.537006" xlink:href="#m886187c35a" y="76.091586"/>
     <use style="fill:#1f77b4;stroke:#1f77b4;" x="325.377442" xlink:href="#m886187c35a" y="75.257379"/>
     <use style="fill:#1f77b4;stroke:#1f77b4;" x="325.324946" xlink:href="#m886187c35a" y="73.588966"/>
     <use style="fill:#1f77b4;stroke:#1f77b4;" x="341.66879" xlink:href="#m886187c35a" y="72.754759"/>
     <use style="fill:#1f77b4;stroke:#1f77b4;" x="346.515947" xlink:href="#m886187c35a" y="69.417931"/>
     <use style="fill:#1f77b4;stroke:#1f77b4;" x="394.182577" xlink:href="#m886187c35a" y="67.749517"/>
     <use style="fill:#1f77b4;stroke:#1f77b4;" x="346.725932" xlink:href="#m886187c35a" y="66.081103"/>
     <use style="fill:#1f77b4;stroke:#1f77b4;" x="370.069282" xlink:href="#m886187c35a" y="64.41269"/>
     <use style="fill:#1f77b4;stroke:#1f77b4;" x="367.076994" xlink:href="#m886187c35a" y="62.744276"/>
     <use style="fill:#1f77b4;stroke:#1f77b4;" x="382.143428" xlink:href="#m886187c35a" y="61.910069"/>
     <use style="fill:#1f77b4;stroke:#1f77b4;" x="337.819062" xlink:href="#m886187c35a" y="59.407448"/>
     <use style="fill:#1f77b4;stroke:#1f77b4;" x="387.078079" xlink:href="#m886187c35a" y="56.904828"/>
     <use style="fill:#1f77b4;stroke:#1f77b4;" x="386.815598" xlink:href="#m886187c35a" y="54.402207"/>
     <use style="fill:#1f77b4;stroke:#1f77b4;" x="358.607592" xlink:href="#m886187c35a" y="53.568"/>
    </g>
   </g>
   <g id="patch_3">
    <path d="M 57.6 307.584 
L 57.6 41.472 
" style="fill:none;stroke:#000000;stroke-linecap:square;stroke-linejoin:miter;stroke-width:0.8;"/>
   </g>
   <g id="patch_4">
    <path d="M 414.72 307.584 
L 414.72 41.472 
" style="fill:none;stroke:#000000;stroke-linecap:square;stroke-linejoin:miter;stroke-width:0.8;"/>
   </g>
   <g id="patch_5">
    <path d="M 57.6 307.584 
L 414.72 307.584 
" style="fill:none;stroke:#000000;stroke-linecap:square;stroke-linejoin:miter;stroke-width:0.8;"/>
   </g>
   <g id="patch_6">
    <path d="M 57.6 41.472 
L 414.72 41.472 
" style="fill:none;stroke:#000000;stroke-linecap:square;stroke-linejoin:miter;stroke-width:0.8;"/>
   </g>
  </g>
 </g>
 <defs>
  <clipPath id="p1a37d61c1d">
   <rect height="266.112" width="357.12" x="57.6" y="41.472"/>
  </clipPath>
 </defs>
</svg>
