<?xml version="1.0" encoding="utf-8" standalone="no"?>
<!DOCTYPE svg PUBLIC "-//W3C//DTD SVG 1.1//EN"
  "http://www.w3.org/Graphics/SVG/1.1/DTD/svg11.dtd">
<!-- Created with matplotlib (https://matplotlib.org/) -->
<svg height="345.6pt" version="1.1" viewBox="0 0 460.8 345.6" width="460.8pt" xmlns="http://www.w3.org/2000/svg" xmlns:xlink="http://www.w3.org/1999/xlink">
 <defs>
  <style type="text/css">
*{stroke-linecap:butt;stroke-linejoin:round;}
  </style>
 </defs>
 <g id="figure_1">
  <g id="patch_1">
   <path d="M 0 345.6 
L 460.8 345.6 
L 460.8 0 
L 0 0 
z
" style="fill:#ffffff;"/>
  </g>
  <g id="axes_1">
   <g id="patch_2">
    <path d="M 57.6 307.584 
L 414.72 307.584 
L 414.72 41.472 
L 57.6 41.472 
z
" style="fill:#ffffff;"/>
   </g>
   <g id="matplotlib.axis_1">
    <g id="xtick_1">
     <g id="line2d_1">
      <defs>
       <path d="M 0 0 
L 0 3.5 
" id="m61a1564987" style="stroke:#000000;stroke-width:0.8;"/>
      </defs>
      <g>
       <use style="stroke:#000000;stroke-width:0.8;" x="57.110917" xlink:href="#m61a1564987" y="307.584"/>
      </g>
     </g>
     <g id="text_1">
      <!-- 0 -->
      <defs>
       <path d="M 31.78125 66.40625 
Q 24.171875 66.40625 20.328125 58.90625 
Q 16.5 51.421875 16.5 36.375 
Q 16.5 21.390625 20.328125 13.890625 
Q 24.171875 6.390625 31.78125 6.390625 
Q 39.453125 6.390625 43.28125 13.890625 
Q 47.125 21.390625 47.125 36.375 
Q 47.125 51.421875 43.28125 58.90625 
Q 39.453125 66.40625 31.78125 66.40625 
z
M 31.78125 74.21875 
Q 44.046875 74.21875 50.515625 64.515625 
Q 56.984375 54.828125 56.984375 36.375 
Q 56.984375 17.96875 50.515625 8.265625 
Q 44.046875 -1.421875 31.78125 -1.421875 
Q 19.53125 -1.421875 13.0625 8.265625 
Q 6.59375 17.96875 6.59375 36.375 
Q 6.59375 54.828125 13.0625 64.515625 
Q 19.53125 74.21875 31.78125 74.21875 
z
" id="DejaVuSans-48"/>
      </defs>
      <g transform="translate(53.929667 322.182437)scale(0.1 -0.1)">
       <use xlink:href="#DejaVuSans-48"/>
      </g>
     </g>
    </g>
    <g id="xtick_2">
     <g id="line2d_2">
      <g>
       <use style="stroke:#000000;stroke-width:0.8;" x="125.99582" xlink:href="#m61a1564987" y="307.584"/>
      </g>
     </g>
     <g id="text_2">
      <!-- 200 -->
      <defs>
       <path d="M 19.1875 8.296875 
L 53.609375 8.296875 
L 53.609375 0 
L 7.328125 0 
L 7.328125 8.296875 
Q 12.9375 14.109375 22.625 23.890625 
Q 32.328125 33.6875 34.8125 36.53125 
Q 39.546875 41.84375 41.421875 45.53125 
Q 43.3125 49.21875 43.3125 52.78125 
Q 43.3125 58.59375 39.234375 62.25 
Q 35.15625 65.921875 28.609375 65.921875 
Q 23.96875 65.921875 18.8125 64.3125 
Q 13.671875 62.703125 7.8125 59.421875 
L 7.8125 69.390625 
Q 13.765625 71.78125 18.9375 73 
Q 24.125 74.21875 28.421875 74.21875 
Q 39.75 74.21875 46.484375 68.546875 
Q 53.21875 62.890625 53.21875 53.421875 
Q 53.21875 48.921875 51.53125 44.890625 
Q 49.859375 40.875 45.40625 35.40625 
Q 44.1875 33.984375 37.640625 27.21875 
Q 31.109375 20.453125 19.1875 8.296875 
z
" id="DejaVuSans-50"/>
      </defs>
      <g transform="translate(116.45207 322.182437)scale(0.1 -0.1)">
       <use xlink:href="#DejaVuSans-50"/>
       <use x="63.623047" xlink:href="#DejaVuSans-48"/>
       <use x="127.246094" xlink:href="#DejaVuSans-48"/>
      </g>
     </g>
    </g>
    <g id="xtick_3">
     <g id="line2d_3">
      <g>
       <use style="stroke:#000000;stroke-width:0.8;" x="194.880722" xlink:href="#m61a1564987" y="307.584"/>
      </g>
     </g>
     <g id="text_3">
      <!-- 400 -->
      <defs>
       <path d="M 37.796875 64.3125 
L 12.890625 25.390625 
L 37.796875 25.390625 
z
M 35.203125 72.90625 
L 47.609375 72.90625 
L 47.609375 25.390625 
L 58.015625 25.390625 
L 58.015625 17.1875 
L 47.609375 17.1875 
L 47.609375 0 
L 37.796875 0 
L 37.796875 17.1875 
L 4.890625 17.1875 
L 4.890625 26.703125 
z
" id="DejaVuSans-52"/>
      </defs>
      <g transform="translate(185.336972 322.182437)scale(0.1 -0.1)">
       <use xlink:href="#DejaVuSans-52"/>
       <use x="63.623047" xlink:href="#DejaVuSans-48"/>
       <use x="127.246094" xlink:href="#DejaVuSans-48"/>
      </g>
     </g>
    </g>
    <g id="xtick_4">
     <g id="line2d_4">
      <g>
       <use style="stroke:#000000;stroke-width:0.8;" x="263.765625" xlink:href="#m61a1564987" y="307.584"/>
      </g>
     </g>
     <g id="text_4">
      <!-- 600 -->
      <defs>
       <path d="M 33.015625 40.375 
Q 26.375 40.375 22.484375 35.828125 
Q 18.609375 31.296875 18.609375 23.390625 
Q 18.609375 15.53125 22.484375 10.953125 
Q 26.375 6.390625 33.015625 6.390625 
Q 39.65625 6.390625 43.53125 10.953125 
Q 47.40625 15.53125 47.40625 23.390625 
Q 47.40625 31.296875 43.53125 35.828125 
Q 39.65625 40.375 33.015625 40.375 
z
M 52.59375 71.296875 
L 52.59375 62.3125 
Q 48.875 64.0625 45.09375 64.984375 
Q 41.3125 65.921875 37.59375 65.921875 
Q 27.828125 65.921875 22.671875 59.328125 
Q 17.53125 52.734375 16.796875 39.40625 
Q 19.671875 43.65625 24.015625 45.921875 
Q 28.375 48.1875 33.59375 48.1875 
Q 44.578125 48.1875 50.953125 41.515625 
Q 57.328125 34.859375 57.328125 23.390625 
Q 57.328125 12.15625 50.6875 5.359375 
Q 44.046875 -1.421875 33.015625 -1.421875 
Q 20.359375 -1.421875 13.671875 8.265625 
Q 6.984375 17.96875 6.984375 36.375 
Q 6.984375 53.65625 15.1875 63.9375 
Q 23.390625 74.21875 37.203125 74.21875 
Q 40.921875 74.21875 44.703125 73.484375 
Q 48.484375 72.75 52.59375 71.296875 
z
" id="DejaVuSans-54"/>
      </defs>
      <g transform="translate(254.221875 322.182437)scale(0.1 -0.1)">
       <use xlink:href="#DejaVuSans-54"/>
       <use x="63.623047" xlink:href="#DejaVuSans-48"/>
       <use x="127.246094" xlink:href="#DejaVuSans-48"/>
      </g>
     </g>
    </g>
    <g id="xtick_5">
     <g id="line2d_5">
      <g>
       <use style="stroke:#000000;stroke-width:0.8;" x="332.650527" xlink:href="#m61a1564987" y="307.584"/>
      </g>
     </g>
     <g id="text_5">
      <!-- 800 -->
      <defs>
       <path d="M 31.78125 34.625 
Q 24.75 34.625 20.71875 30.859375 
Q 16.703125 27.09375 16.703125 20.515625 
Q 16.703125 13.921875 20.71875 10.15625 
Q 24.75 6.390625 31.78125 6.390625 
Q 38.8125 6.390625 42.859375 10.171875 
Q 46.921875 13.96875 46.921875 20.515625 
Q 46.921875 27.09375 42.890625 30.859375 
Q 38.875 34.625 31.78125 34.625 
z
M 21.921875 38.8125 
Q 15.578125 40.375 12.03125 44.71875 
Q 8.5 49.078125 8.5 55.328125 
Q 8.5 64.0625 14.71875 69.140625 
Q 20.953125 74.21875 31.78125 74.21875 
Q 42.671875 74.21875 48.875 69.140625 
Q 55.078125 64.0625 55.078125 55.328125 
Q 55.078125 49.078125 51.53125 44.71875 
Q 48 40.375 41.703125 38.8125 
Q 48.828125 37.15625 52.796875 32.3125 
Q 56.78125 27.484375 56.78125 20.515625 
Q 56.78125 9.90625 50.3125 4.234375 
Q 43.84375 -1.421875 31.78125 -1.421875 
Q 19.734375 -1.421875 13.25 4.234375 
Q 6.78125 9.90625 6.78125 20.515625 
Q 6.78125 27.484375 10.78125 32.3125 
Q 14.796875 37.15625 21.921875 38.8125 
z
M 18.3125 54.390625 
Q 18.3125 48.734375 21.84375 45.5625 
Q 25.390625 42.390625 31.78125 42.390625 
Q 38.140625 42.390625 41.71875 45.5625 
Q 45.3125 48.734375 45.3125 54.390625 
Q 45.3125 60.0625 41.71875 63.234375 
Q 38.140625 66.40625 31.78125 66.40625 
Q 25.390625 66.40625 21.84375 63.234375 
Q 18.3125 60.0625 18.3125 54.390625 
z
" id="DejaVuSans-56"/>
      </defs>
      <g transform="translate(323.106777 322.182437)scale(0.1 -0.1)">
       <use xlink:href="#DejaVuSans-56"/>
       <use x="63.623047" xlink:href="#DejaVuSans-48"/>
       <use x="127.246094" xlink:href="#DejaVuSans-48"/>
      </g>
     </g>
    </g>
    <g id="xtick_6">
     <g id="line2d_6">
      <g>
       <use style="stroke:#000000;stroke-width:0.8;" x="401.53543" xlink:href="#m61a1564987" y="307.584"/>
      </g>
     </g>
     <g id="text_6">
      <!-- 1000 -->
      <defs>
       <path d="M 12.40625 8.296875 
L 28.515625 8.296875 
L 28.515625 63.921875 
L 10.984375 60.40625 
L 10.984375 69.390625 
L 28.421875 72.90625 
L 38.28125 72.90625 
L 38.28125 8.296875 
L 54.390625 8.296875 
L 54.390625 0 
L 12.40625 0 
z
" id="DejaVuSans-49"/>
      </defs>
      <g transform="translate(388.81043 322.182437)scale(0.1 -0.1)">
       <use xlink:href="#DejaVuSans-49"/>
       <use x="63.623047" xlink:href="#DejaVuSans-48"/>
       <use x="127.246094" xlink:href="#DejaVuSans-48"/>
       <use x="190.869141" xlink:href="#DejaVuSans-48"/>
      </g>
     </g>
    </g>
    <g id="text_7">
     <!-- Tempo (ms) -->
     <defs>
      <path d="M -0.296875 72.90625 
L 61.375 72.90625 
L 61.375 64.59375 
L 35.5 64.59375 
L 35.5 0 
L 25.59375 0 
L 25.59375 64.59375 
L -0.296875 64.59375 
z
" id="DejaVuSans-84"/>
      <path d="M 56.203125 29.59375 
L 56.203125 25.203125 
L 14.890625 25.203125 
Q 15.484375 15.921875 20.484375 11.0625 
Q 25.484375 6.203125 34.421875 6.203125 
Q 39.59375 6.203125 44.453125 7.46875 
Q 49.3125 8.734375 54.109375 11.28125 
L 54.109375 2.78125 
Q 49.265625 0.734375 44.1875 -0.34375 
Q 39.109375 -1.421875 33.890625 -1.421875 
Q 20.796875 -1.421875 13.15625 6.1875 
Q 5.515625 13.8125 5.515625 26.8125 
Q 5.515625 40.234375 12.765625 48.109375 
Q 20.015625 56 32.328125 56 
Q 43.359375 56 49.78125 48.890625 
Q 56.203125 41.796875 56.203125 29.59375 
z
M 47.21875 32.234375 
Q 47.125 39.59375 43.09375 43.984375 
Q 39.0625 48.390625 32.421875 48.390625 
Q 24.90625 48.390625 20.390625 44.140625 
Q 15.875 39.890625 15.1875 32.171875 
z
" id="DejaVuSans-101"/>
      <path d="M 52 44.1875 
Q 55.375 50.25 60.0625 53.125 
Q 64.75 56 71.09375 56 
Q 79.640625 56 84.28125 50.015625 
Q 88.921875 44.046875 88.921875 33.015625 
L 88.921875 0 
L 79.890625 0 
L 79.890625 32.71875 
Q 79.890625 40.578125 77.09375 44.375 
Q 74.3125 48.1875 68.609375 48.1875 
Q 61.625 48.1875 57.5625 43.546875 
Q 53.515625 38.921875 53.515625 30.90625 
L 53.515625 0 
L 44.484375 0 
L 44.484375 32.71875 
Q 44.484375 40.625 41.703125 44.40625 
Q 38.921875 48.1875 33.109375 48.1875 
Q 26.21875 48.1875 22.15625 43.53125 
Q 18.109375 38.875 18.109375 30.90625 
L 18.109375 0 
L 9.078125 0 
L 9.078125 54.6875 
L 18.109375 54.6875 
L 18.109375 46.1875 
Q 21.1875 51.21875 25.484375 53.609375 
Q 29.78125 56 35.6875 56 
Q 41.65625 56 45.828125 52.96875 
Q 50 49.953125 52 44.1875 
z
" id="DejaVuSans-109"/>
      <path d="M 18.109375 8.203125 
L 18.109375 -20.796875 
L 9.078125 -20.796875 
L 9.078125 54.6875 
L 18.109375 54.6875 
L 18.109375 46.390625 
Q 20.953125 51.265625 25.265625 53.625 
Q 29.59375 56 35.59375 56 
Q 45.5625 56 51.78125 48.09375 
Q 58.015625 40.1875 58.015625 27.296875 
Q 58.015625 14.40625 51.78125 6.484375 
Q 45.5625 -1.421875 35.59375 -1.421875 
Q 29.59375 -1.421875 25.265625 0.953125 
Q 20.953125 3.328125 18.109375 8.203125 
z
M 48.6875 27.296875 
Q 48.6875 37.203125 44.609375 42.84375 
Q 40.53125 48.484375 33.40625 48.484375 
Q 26.265625 48.484375 22.1875 42.84375 
Q 18.109375 37.203125 18.109375 27.296875 
Q 18.109375 17.390625 22.1875 11.75 
Q 26.265625 6.109375 33.40625 6.109375 
Q 40.53125 6.109375 44.609375 11.75 
Q 48.6875 17.390625 48.6875 27.296875 
z
" id="DejaVuSans-112"/>
      <path d="M 30.609375 48.390625 
Q 23.390625 48.390625 19.1875 42.75 
Q 14.984375 37.109375 14.984375 27.296875 
Q 14.984375 17.484375 19.15625 11.84375 
Q 23.34375 6.203125 30.609375 6.203125 
Q 37.796875 6.203125 41.984375 11.859375 
Q 46.1875 17.53125 46.1875 27.296875 
Q 46.1875 37.015625 41.984375 42.703125 
Q 37.796875 48.390625 30.609375 48.390625 
z
M 30.609375 56 
Q 42.328125 56 49.015625 48.375 
Q 55.71875 40.765625 55.71875 27.296875 
Q 55.71875 13.875 49.015625 6.21875 
Q 42.328125 -1.421875 30.609375 -1.421875 
Q 18.84375 -1.421875 12.171875 6.21875 
Q 5.515625 13.875 5.515625 27.296875 
Q 5.515625 40.765625 12.171875 48.375 
Q 18.84375 56 30.609375 56 
z
" id="DejaVuSans-111"/>
      <path id="DejaVuSans-32"/>
      <path d="M 31 75.875 
Q 24.46875 64.65625 21.28125 53.65625 
Q 18.109375 42.671875 18.109375 31.390625 
Q 18.109375 20.125 21.3125 9.0625 
Q 24.515625 -2 31 -13.1875 
L 23.1875 -13.1875 
Q 15.875 -1.703125 12.234375 9.375 
Q 8.59375 20.453125 8.59375 31.390625 
Q 8.59375 42.28125 12.203125 53.3125 
Q 15.828125 64.359375 23.1875 75.875 
z
" id="DejaVuSans-40"/>
      <path d="M 44.28125 53.078125 
L 44.28125 44.578125 
Q 40.484375 46.53125 36.375 47.5 
Q 32.28125 48.484375 27.875 48.484375 
Q 21.1875 48.484375 17.84375 46.4375 
Q 14.5 44.390625 14.5 40.28125 
Q 14.5 37.15625 16.890625 35.375 
Q 19.28125 33.59375 26.515625 31.984375 
L 29.59375 31.296875 
Q 39.15625 29.25 43.1875 25.515625 
Q 47.21875 21.78125 47.21875 15.09375 
Q 47.21875 7.46875 41.1875 3.015625 
Q 35.15625 -1.421875 24.609375 -1.421875 
Q 20.21875 -1.421875 15.453125 -0.5625 
Q 10.6875 0.296875 5.421875 2 
L 5.421875 11.28125 
Q 10.40625 8.6875 15.234375 7.390625 
Q 20.0625 6.109375 24.8125 6.109375 
Q 31.15625 6.109375 34.5625 8.28125 
Q 37.984375 10.453125 37.984375 14.40625 
Q 37.984375 18.0625 35.515625 20.015625 
Q 33.0625 21.96875 24.703125 23.78125 
L 21.578125 24.515625 
Q 13.234375 26.265625 9.515625 29.90625 
Q 5.8125 33.546875 5.8125 39.890625 
Q 5.8125 47.609375 11.28125 51.796875 
Q 16.75 56 26.8125 56 
Q 31.78125 56 36.171875 55.265625 
Q 40.578125 54.546875 44.28125 53.078125 
z
" id="DejaVuSans-115"/>
      <path d="M 8.015625 75.875 
L 15.828125 75.875 
Q 23.140625 64.359375 26.78125 53.3125 
Q 30.421875 42.28125 30.421875 31.390625 
Q 30.421875 20.453125 26.78125 9.375 
Q 23.140625 -1.703125 15.828125 -13.1875 
L 8.015625 -13.1875 
Q 14.5 -2 17.703125 9.0625 
Q 20.90625 20.125 20.90625 31.390625 
Q 20.90625 42.671875 17.703125 53.65625 
Q 14.5 64.65625 8.015625 75.875 
z
" id="DejaVuSans-41"/>
     </defs>
     <g transform="translate(205.973281 335.860562)scale(0.1 -0.1)">
      <use xlink:href="#DejaVuSans-84"/>
      <use x="60.818359" xlink:href="#DejaVuSans-101"/>
      <use x="122.341797" xlink:href="#DejaVuSans-109"/>
      <use x="219.753906" xlink:href="#DejaVuSans-112"/>
      <use x="283.230469" xlink:href="#DejaVuSans-111"/>
      <use x="344.412109" xlink:href="#DejaVuSans-32"/>
      <use x="376.199219" xlink:href="#DejaVuSans-40"/>
      <use x="415.212891" xlink:href="#DejaVuSans-109"/>
      <use x="512.625" xlink:href="#DejaVuSans-115"/>
      <use x="564.724609" xlink:href="#DejaVuSans-41"/>
     </g>
    </g>
   </g>
   <g id="matplotlib.axis_2">
    <g id="ytick_1">
     <g id="line2d_7">
      <defs>
       <path d="M 0 0 
L -3.5 0 
" id="mbd8ce202dc" style="stroke:#000000;stroke-width:0.8;"/>
      </defs>
      <g>
       <use style="stroke:#000000;stroke-width:0.8;" x="57.6" xlink:href="#mbd8ce202dc" y="296.352"/>
      </g>
     </g>
     <g id="text_8">
      <!-- 0 -->
      <g transform="translate(44.2375 300.151219)scale(0.1 -0.1)">
       <use xlink:href="#DejaVuSans-48"/>
      </g>
     </g>
    </g>
    <g id="ytick_2">
     <g id="line2d_8">
      <g>
       <use style="stroke:#000000;stroke-width:0.8;" x="57.6" xlink:href="#mbd8ce202dc" y="253.152"/>
      </g>
     </g>
     <g id="text_9">
      <!-- 50 -->
      <defs>
       <path d="M 10.796875 72.90625 
L 49.515625 72.90625 
L 49.515625 64.59375 
L 19.828125 64.59375 
L 19.828125 46.734375 
Q 21.96875 47.46875 24.109375 47.828125 
Q 26.265625 48.1875 28.421875 48.1875 
Q 40.625 48.1875 47.75 41.5 
Q 54.890625 34.8125 54.890625 23.390625 
Q 54.890625 11.625 47.5625 5.09375 
Q 40.234375 -1.421875 26.90625 -1.421875 
Q 22.3125 -1.421875 17.546875 -0.640625 
Q 12.796875 0.140625 7.71875 1.703125 
L 7.71875 11.625 
Q 12.109375 9.234375 16.796875 8.0625 
Q 21.484375 6.890625 26.703125 6.890625 
Q 35.15625 6.890625 40.078125 11.328125 
Q 45.015625 15.765625 45.015625 23.390625 
Q 45.015625 31 40.078125 35.4375 
Q 35.15625 39.890625 26.703125 39.890625 
Q 22.75 39.890625 18.8125 39.015625 
Q 14.890625 38.140625 10.796875 36.28125 
z
" id="DejaVuSans-53"/>
      </defs>
      <g transform="translate(37.875 256.951219)scale(0.1 -0.1)">
       <use xlink:href="#DejaVuSans-53"/>
       <use x="63.623047" xlink:href="#DejaVuSans-48"/>
      </g>
     </g>
    </g>
    <g id="ytick_3">
     <g id="line2d_9">
      <g>
       <use style="stroke:#000000;stroke-width:0.8;" x="57.6" xlink:href="#mbd8ce202dc" y="209.952"/>
      </g>
     </g>
     <g id="text_10">
      <!-- 100 -->
      <g transform="translate(31.5125 213.751219)scale(0.1 -0.1)">
       <use xlink:href="#DejaVuSans-49"/>
       <use x="63.623047" xlink:href="#DejaVuSans-48"/>
       <use x="127.246094" xlink:href="#DejaVuSans-48"/>
      </g>
     </g>
    </g>
    <g id="ytick_4">
     <g id="line2d_10">
      <g>
       <use style="stroke:#000000;stroke-width:0.8;" x="57.6" xlink:href="#mbd8ce202dc" y="166.752"/>
      </g>
     </g>
     <g id="text_11">
      <!-- 150 -->
      <g transform="translate(31.5125 170.551219)scale(0.1 -0.1)">
       <use xlink:href="#DejaVuSans-49"/>
       <use x="63.623047" xlink:href="#DejaVuSans-53"/>
       <use x="127.246094" xlink:href="#DejaVuSans-48"/>
      </g>
     </g>
    </g>
    <g id="ytick_5">
     <g id="line2d_11">
      <g>
       <use style="stroke:#000000;stroke-width:0.8;" x="57.6" xlink:href="#mbd8ce202dc" y="123.552"/>
      </g>
     </g>
     <g id="text_12">
      <!-- 200 -->
      <g transform="translate(31.5125 127.351219)scale(0.1 -0.1)">
       <use xlink:href="#DejaVuSans-50"/>
       <use x="63.623047" xlink:href="#DejaVuSans-48"/>
       <use x="127.246094" xlink:href="#DejaVuSans-48"/>
      </g>
     </g>
    </g>
    <g id="ytick_6">
     <g id="line2d_12">
      <g>
       <use style="stroke:#000000;stroke-width:0.8;" x="57.6" xlink:href="#mbd8ce202dc" y="80.352"/>
      </g>
     </g>
     <g id="text_13">
      <!-- 250 -->
      <g transform="translate(31.5125 84.151219)scale(0.1 -0.1)">
       <use xlink:href="#DejaVuSans-50"/>
       <use x="63.623047" xlink:href="#DejaVuSans-53"/>
       <use x="127.246094" xlink:href="#DejaVuSans-48"/>
      </g>
     </g>
    </g>
    <g id="text_14">
     <!-- Índice do motoneurônio -->
     <defs>
      <path d="M 9.8125 72.90625 
L 19.671875 72.90625 
L 19.671875 0 
L 9.8125 0 
z
M 17.484375 92.734375 
L 26.515625 92.734375 
L 15.375 79.84375 
L 7.90625 79.84375 
z
" id="DejaVuSans-205"/>
      <path d="M 54.890625 33.015625 
L 54.890625 0 
L 45.90625 0 
L 45.90625 32.71875 
Q 45.90625 40.484375 42.875 44.328125 
Q 39.84375 48.1875 33.796875 48.1875 
Q 26.515625 48.1875 22.3125 43.546875 
Q 18.109375 38.921875 18.109375 30.90625 
L 18.109375 0 
L 9.078125 0 
L 9.078125 54.6875 
L 18.109375 54.6875 
L 18.109375 46.1875 
Q 21.34375 51.125 25.703125 53.5625 
Q 30.078125 56 35.796875 56 
Q 45.21875 56 50.046875 50.171875 
Q 54.890625 44.34375 54.890625 33.015625 
z
" id="DejaVuSans-110"/>
      <path d="M 45.40625 46.390625 
L 45.40625 75.984375 
L 54.390625 75.984375 
L 54.390625 0 
L 45.40625 0 
L 45.40625 8.203125 
Q 42.578125 3.328125 38.25 0.953125 
Q 33.9375 -1.421875 27.875 -1.421875 
Q 17.96875 -1.421875 11.734375 6.484375 
Q 5.515625 14.40625 5.515625 27.296875 
Q 5.515625 40.1875 11.734375 48.09375 
Q 17.96875 56 27.875 56 
Q 33.9375 56 38.25 53.625 
Q 42.578125 51.265625 45.40625 46.390625 
z
M 14.796875 27.296875 
Q 14.796875 17.390625 18.875 11.75 
Q 22.953125 6.109375 30.078125 6.109375 
Q 37.203125 6.109375 41.296875 11.75 
Q 45.40625 17.390625 45.40625 27.296875 
Q 45.40625 37.203125 41.296875 42.84375 
Q 37.203125 48.484375 30.078125 48.484375 
Q 22.953125 48.484375 18.875 42.84375 
Q 14.796875 37.203125 14.796875 27.296875 
z
" id="DejaVuSans-100"/>
      <path d="M 9.421875 54.6875 
L 18.40625 54.6875 
L 18.40625 0 
L 9.421875 0 
z
M 9.421875 75.984375 
L 18.40625 75.984375 
L 18.40625 64.59375 
L 9.421875 64.59375 
z
" id="DejaVuSans-105"/>
      <path d="M 48.78125 52.59375 
L 48.78125 44.1875 
Q 44.96875 46.296875 41.140625 47.34375 
Q 37.3125 48.390625 33.40625 48.390625 
Q 24.65625 48.390625 19.8125 42.84375 
Q 14.984375 37.3125 14.984375 27.296875 
Q 14.984375 17.28125 19.8125 11.734375 
Q 24.65625 6.203125 33.40625 6.203125 
Q 37.3125 6.203125 41.140625 7.25 
Q 44.96875 8.296875 48.78125 10.40625 
L 48.78125 2.09375 
Q 45.015625 0.34375 40.984375 -0.53125 
Q 36.96875 -1.421875 32.421875 -1.421875 
Q 20.0625 -1.421875 12.78125 6.34375 
Q 5.515625 14.109375 5.515625 27.296875 
Q 5.515625 40.671875 12.859375 48.328125 
Q 20.21875 56 33.015625 56 
Q 37.15625 56 41.109375 55.140625 
Q 45.0625 54.296875 48.78125 52.59375 
z
" id="DejaVuSans-99"/>
      <path d="M 18.3125 70.21875 
L 18.3125 54.6875 
L 36.8125 54.6875 
L 36.8125 47.703125 
L 18.3125 47.703125 
L 18.3125 18.015625 
Q 18.3125 11.328125 20.140625 9.421875 
Q 21.96875 7.515625 27.59375 7.515625 
L 36.8125 7.515625 
L 36.8125 0 
L 27.59375 0 
Q 17.1875 0 13.234375 3.875 
Q 9.28125 7.765625 9.28125 18.015625 
L 9.28125 47.703125 
L 2.6875 47.703125 
L 2.6875 54.6875 
L 9.28125 54.6875 
L 9.28125 70.21875 
z
" id="DejaVuSans-116"/>
      <path d="M 8.5 21.578125 
L 8.5 54.6875 
L 17.484375 54.6875 
L 17.484375 21.921875 
Q 17.484375 14.15625 20.5 10.265625 
Q 23.53125 6.390625 29.59375 6.390625 
Q 36.859375 6.390625 41.078125 11.03125 
Q 45.3125 15.671875 45.3125 23.6875 
L 45.3125 54.6875 
L 54.296875 54.6875 
L 54.296875 0 
L 45.3125 0 
L 45.3125 8.40625 
Q 42.046875 3.421875 37.71875 1 
Q 33.40625 -1.421875 27.6875 -1.421875 
Q 18.265625 -1.421875 13.375 4.4375 
Q 8.5 10.296875 8.5 21.578125 
z
M 31.109375 56 
z
" id="DejaVuSans-117"/>
      <path d="M 41.109375 46.296875 
Q 39.59375 47.171875 37.8125 47.578125 
Q 36.03125 48 33.890625 48 
Q 26.265625 48 22.1875 43.046875 
Q 18.109375 38.09375 18.109375 28.8125 
L 18.109375 0 
L 9.078125 0 
L 9.078125 54.6875 
L 18.109375 54.6875 
L 18.109375 46.1875 
Q 20.953125 51.171875 25.484375 53.578125 
Q 30.03125 56 36.53125 56 
Q 37.453125 56 38.578125 55.875 
Q 39.703125 55.765625 41.0625 55.515625 
z
" id="DejaVuSans-114"/>
      <path d="M 30.609375 48.390625 
Q 23.390625 48.390625 19.1875 42.75 
Q 14.984375 37.109375 14.984375 27.296875 
Q 14.984375 17.484375 19.15625 11.84375 
Q 23.34375 6.203125 30.609375 6.203125 
Q 37.796875 6.203125 41.984375 11.859375 
Q 46.1875 17.53125 46.1875 27.296875 
Q 46.1875 37.015625 41.984375 42.703125 
Q 37.796875 48.390625 30.609375 48.390625 
z
M 30.609375 56 
Q 42.328125 56 49.015625 48.375 
Q 55.71875 40.765625 55.71875 27.296875 
Q 55.71875 13.875 49.015625 6.21875 
Q 42.328125 -1.421875 30.609375 -1.421875 
Q 18.84375 -1.421875 12.171875 6.21875 
Q 5.515625 13.875 5.515625 27.296875 
Q 5.515625 40.765625 12.171875 48.375 
Q 18.84375 56 30.609375 56 
z
M 27 79.984375 
L 34.234375 79.984375 
L 46.1875 61.625 
L 39.40625 61.625 
L 30.609375 73.578125 
L 21.828125 61.625 
L 15.046875 61.625 
z
" id="DejaVuSans-244"/>
     </defs>
     <g transform="translate(25.432812 234.066281)rotate(-90)scale(0.1 -0.1)">
      <use xlink:href="#DejaVuSans-205"/>
      <use x="29.492188" xlink:href="#DejaVuSans-110"/>
      <use x="92.871094" xlink:href="#DejaVuSans-100"/>
      <use x="156.347656" xlink:href="#DejaVuSans-105"/>
      <use x="184.130859" xlink:href="#DejaVuSans-99"/>
      <use x="239.111328" xlink:href="#DejaVuSans-101"/>
      <use x="300.634766" xlink:href="#DejaVuSans-32"/>
      <use x="332.421875" xlink:href="#DejaVuSans-100"/>
      <use x="395.898438" xlink:href="#DejaVuSans-111"/>
      <use x="457.080078" xlink:href="#DejaVuSans-32"/>
      <use x="488.867188" xlink:href="#DejaVuSans-109"/>
      <use x="586.279297" xlink:href="#DejaVuSans-111"/>
      <use x="647.460938" xlink:href="#DejaVuSans-116"/>
      <use x="686.669922" xlink:href="#DejaVuSans-111"/>
      <use x="747.851562" xlink:href="#DejaVuSans-110"/>
      <use x="811.230469" xlink:href="#DejaVuSans-101"/>
      <use x="872.753906" xlink:href="#DejaVuSans-117"/>
      <use x="936.132812" xlink:href="#DejaVuSans-114"/>
      <use x="977.214844" xlink:href="#DejaVuSans-244"/>
      <use x="1038.396484" xlink:href="#DejaVuSans-110"/>
      <use x="1101.775391" xlink:href="#DejaVuSans-105"/>
      <use x="1129.558594" xlink:href="#DejaVuSans-111"/>
     </g>
    </g>
   </g>
   <g id="line2d_13">
    <defs>
     <path d="M 0 1.5 
C 0.397805 1.5 0.77937 1.341951 1.06066 1.06066 
C 1.341951 0.77937 1.5 0.397805 1.5 0 
C 1.5 -0.397805 1.341951 -0.77937 1.06066 -1.06066 
C 0.77937 -1.341951 0.397805 -1.5 0 -1.5 
C -0.397805 -1.5 -0.77937 -1.341951 -1.06066 -1.06066 
C -1.341951 -0.77937 -1.5 -0.397805 -1.5 0 
C -1.5 0.397805 -1.341951 0.77937 -1.06066 1.06066 
C -0.77937 1.341951 -0.397805 1.5 0 1.5 
z
" id="mff93aab7ea" style="stroke:#000000;"/>
    </defs>
    <g clip-path="url(#pd4c2942823)">
     <use style="stroke:#000000;" x="75.778726" xlink:href="#mff93aab7ea" y="295.488"/>
     <use style="stroke:#000000;" x="79.464068" xlink:href="#mff93aab7ea" y="294.624"/>
     <use style="stroke:#000000;" x="73.832727" xlink:href="#mff93aab7ea" y="293.76"/>
     <use style="stroke:#000000;" x="74.504355" xlink:href="#mff93aab7ea" y="292.896"/>
     <use style="stroke:#000000;" x="76.278141" xlink:href="#mff93aab7ea" y="292.032"/>
     <use style="stroke:#000000;" x="82.839428" xlink:href="#mff93aab7ea" y="291.168"/>
     <use style="stroke:#000000;" x="83.252738" xlink:href="#mff93aab7ea" y="290.304"/>
     <use style="stroke:#000000;" x="76.226478" xlink:href="#mff93aab7ea" y="289.44"/>
     <use style="stroke:#000000;" x="82.322792" xlink:href="#mff93aab7ea" y="288.576"/>
     <use style="stroke:#000000;" x="79.894599" xlink:href="#mff93aab7ea" y="287.712"/>
     <use style="stroke:#000000;" x="79.464068" xlink:href="#mff93aab7ea" y="286.848"/>
     <use style="stroke:#000000;" x="89.262945" xlink:href="#mff93aab7ea" y="285.984"/>
     <use style="stroke:#000000;" x="85.215957" xlink:href="#mff93aab7ea" y="285.12"/>
     <use style="stroke:#000000;" x="91.536147" xlink:href="#mff93aab7ea" y="284.256"/>
     <use style="stroke:#000000;" x="82.477783" xlink:href="#mff93aab7ea" y="283.392"/>
     <use style="stroke:#000000;" x="92.500536" xlink:href="#mff93aab7ea" y="282.528"/>
     <use style="stroke:#000000;" x="83.114968" xlink:href="#mff93aab7ea" y="281.664"/>
     <use style="stroke:#000000;" x="92.603863" xlink:href="#mff93aab7ea" y="280.8"/>
     <use style="stroke:#000000;" x="78.775219" xlink:href="#mff93aab7ea" y="279.936"/>
     <use style="stroke:#000000;" x="87.265283" xlink:href="#mff93aab7ea" y="279.072"/>
     <use style="stroke:#000000;" x="85.302064" xlink:href="#mff93aab7ea" y="278.208"/>
     <use style="stroke:#000000;" x="99.337362" xlink:href="#mff93aab7ea" y="277.344"/>
     <use style="stroke:#000000;" x="94.343207" xlink:href="#mff93aab7ea" y="276.48"/>
     <use style="stroke:#000000;" x="87.248062" xlink:href="#mff93aab7ea" y="275.616"/>
     <use style="stroke:#000000;" x="83.132189" xlink:href="#mff93aab7ea" y="274.752"/>
     <use style="stroke:#000000;" x="101.645007" xlink:href="#mff93aab7ea" y="273.888"/>
     <use style="stroke:#000000;" x="89.521264" xlink:href="#mff93aab7ea" y="273.024"/>
     <use style="stroke:#000000;" x="86.042576" xlink:href="#mff93aab7ea" y="272.16"/>
     <use style="stroke:#000000;" x="92.121669" xlink:href="#mff93aab7ea" y="271.296"/>
     <use style="stroke:#000000;" x="97.322479" xlink:href="#mff93aab7ea" y="270.432"/>
     <use style="stroke:#000000;" x="105.864207" xlink:href="#mff93aab7ea" y="269.568"/>
     <use style="stroke:#000000;" x="94.377649" xlink:href="#mff93aab7ea" y="268.704"/>
     <use style="stroke:#000000;" x="99.57846" xlink:href="#mff93aab7ea" y="267.84"/>
     <use style="stroke:#000000;" x="95.548693" xlink:href="#mff93aab7ea" y="266.976"/>
     <use style="stroke:#000000;" x="89.211282" xlink:href="#mff93aab7ea" y="266.112"/>
     <use style="stroke:#000000;" x="89.176839" xlink:href="#mff93aab7ea" y="265.248"/>
     <use style="stroke:#000000;" x="105.62311" xlink:href="#mff93aab7ea" y="264.384"/>
     <use style="stroke:#000000;" x="94.480977" xlink:href="#mff93aab7ea" y="263.52"/>
     <use style="stroke:#000000;" x="96.978055" xlink:href="#mff93aab7ea" y="262.656"/>
     <use style="stroke:#000000;" x="101.438352" xlink:href="#mff93aab7ea" y="261.792"/>
     <use style="stroke:#000000;" x="105.846986" xlink:href="#mff93aab7ea" y="260.928"/>
     <use style="stroke:#000000;" x="117.764074" xlink:href="#mff93aab7ea" y="260.064"/>
     <use style="stroke:#000000;" x="101.283361" xlink:href="#mff93aab7ea" y="259.2"/>
     <use style="stroke:#000000;" x="97.3397" xlink:href="#mff93aab7ea" y="258.336"/>
     <use style="stroke:#000000;" x="94.739295" xlink:href="#mff93aab7ea" y="257.472"/>
     <use style="stroke:#000000;" x="101.369467" xlink:href="#mff93aab7ea" y="256.608"/>
     <use style="stroke:#000000;" x="110.11785" xlink:href="#mff93aab7ea" y="255.744"/>
     <use style="stroke:#000000;" x="104.813712" xlink:href="#mff93aab7ea" y="254.88"/>
     <use style="stroke:#000000;" x="107.655214" xlink:href="#mff93aab7ea" y="254.016"/>
     <use style="stroke:#000000;" x="118.625135" xlink:href="#mff93aab7ea" y="253.152"/>
     <use style="stroke:#000000;" x="101.662228" xlink:href="#mff93aab7ea" y="252.288"/>
     <use style="stroke:#000000;" x="95.204268" xlink:href="#mff93aab7ea" y="251.424"/>
     <use style="stroke:#000000;" x="125.668616" xlink:href="#mff93aab7ea" y="250.56"/>
     <use style="stroke:#000000;" x="115.542536" xlink:href="#mff93aab7ea" y="249.696"/>
     <use style="stroke:#000000;" x="115.594199" xlink:href="#mff93aab7ea" y="248.832"/>
     <use style="stroke:#000000;" x="132.092134" xlink:href="#mff93aab7ea" y="247.968"/>
     <use style="stroke:#000000;" x="107.792984" xlink:href="#mff93aab7ea" y="247.104"/>
     <use style="stroke:#000000;" x="104.77927" xlink:href="#mff93aab7ea" y="246.24"/>
     <use style="stroke:#000000;" x="110.100628" xlink:href="#mff93aab7ea" y="245.376"/>
     <use style="stroke:#000000;" x="107.379675" xlink:href="#mff93aab7ea" y="244.512"/>
     <use style="stroke:#000000;" x="123.515963" xlink:href="#mff93aab7ea" y="243.648"/>
     <use style="stroke:#000000;" x="110.445053" xlink:href="#mff93aab7ea" y="242.784"/>
     <use style="stroke:#000000;" x="101.799998" xlink:href="#mff93aab7ea" y="241.92"/>
     <use style="stroke:#000000;" x="110.152292" xlink:href="#mff93aab7ea" y="241.056"/>
     <use style="stroke:#000000;" x="110.186735" xlink:href="#mff93aab7ea" y="240.192"/>
     <use style="stroke:#000000;" x="122.603238" xlink:href="#mff93aab7ea" y="239.328"/>
     <use style="stroke:#000000;" x="118.935117" xlink:href="#mff93aab7ea" y="238.464"/>
     <use style="stroke:#000000;" x="136.225228" xlink:href="#mff93aab7ea" y="237.6"/>
     <use style="stroke:#000000;" x="141.219383" xlink:href="#mff93aab7ea" y="236.736"/>
     <use style="stroke:#000000;" x="131.575497" xlink:href="#mff93aab7ea" y="235.872"/>
     <use style="stroke:#000000;" x="115.766412" xlink:href="#mff93aab7ea" y="235.008"/>
     <use style="stroke:#000000;" x="130.283905" xlink:href="#mff93aab7ea" y="234.144"/>
     <use style="stroke:#000000;" x="124.910882" xlink:href="#mff93aab7ea" y="233.28"/>
     <use style="stroke:#000000;" x="134.020911" xlink:href="#mff93aab7ea" y="232.416"/>
     <use style="stroke:#000000;" x="110.100628" xlink:href="#mff93aab7ea" y="231.552"/>
     <use style="stroke:#000000;" x="146.351308" xlink:href="#mff93aab7ea" y="230.688"/>
     <use style="stroke:#000000;" x="118.935117" xlink:href="#mff93aab7ea" y="229.824"/>
     <use style="stroke:#000000;" x="132.126576" xlink:href="#mff93aab7ea" y="228.96"/>
     <use style="stroke:#000000;" x="138.188447" xlink:href="#mff93aab7ea" y="228.096"/>
     <use style="stroke:#000000;" x="146.265202" xlink:href="#mff93aab7ea" y="227.232"/>
     <use style="stroke:#000000;" x="138.773969" xlink:href="#mff93aab7ea" y="226.368"/>
     <use style="stroke:#000000;" x="140.668304" xlink:href="#mff93aab7ea" y="225.504"/>
     <use style="stroke:#000000;" x="118.745684" xlink:href="#mff93aab7ea" y="224.64"/>
     <use style="stroke:#000000;" x="146.075769" xlink:href="#mff93aab7ea" y="223.776"/>
     <use style="stroke:#000000;" x="138.963403" xlink:href="#mff93aab7ea" y="222.912"/>
     <use style="stroke:#000000;" x="145.989663" xlink:href="#mff93aab7ea" y="222.048"/>
     <use style="stroke:#000000;" x="134.468663" xlink:href="#mff93aab7ea" y="221.184"/>
     <use style="stroke:#000000;" x="151.259358" xlink:href="#mff93aab7ea" y="220.32"/>
     <use style="stroke:#000000;" x="137.10351" xlink:href="#mff93aab7ea" y="219.456"/>
     <use style="stroke:#000000;" x="128.131252" xlink:href="#mff93aab7ea" y="218.592"/>
     <use style="stroke:#000000;" x="125.703059" xlink:href="#mff93aab7ea" y="217.728"/>
     <use style="stroke:#000000;" x="151.362685" xlink:href="#mff93aab7ea" y="216.864"/>
     <use style="stroke:#000000;" x="160.679368" xlink:href="#mff93aab7ea" y="216"/>
     <use style="stroke:#000000;" x="141.253826" xlink:href="#mff93aab7ea" y="215.136"/>
     <use style="stroke:#000000;" x="138.860075" xlink:href="#mff93aab7ea" y="214.272"/>
     <use style="stroke:#000000;" x="125.806386" xlink:href="#mff93aab7ea" y="213.408"/>
     <use style="stroke:#000000;" x="151.552119" xlink:href="#mff93aab7ea" y="212.544"/>
     <use style="stroke:#000000;" x="165.105223" xlink:href="#mff93aab7ea" y="211.68"/>
     <use style="stroke:#000000;" x="141.064392" xlink:href="#mff93aab7ea" y="210.816"/>
     <use style="stroke:#000000;" x="149.278917" xlink:href="#mff93aab7ea" y="209.952"/>
     <use style="stroke:#000000;" x="134.038132" xlink:href="#mff93aab7ea" y="209.088"/>
     <use style="stroke:#000000;" x="146.179096" xlink:href="#mff93aab7ea" y="208.224"/>
     <use style="stroke:#000000;" x="143.768125" xlink:href="#mff93aab7ea" y="207.36"/>
     <use style="stroke:#000000;" x="149.571678" xlink:href="#mff93aab7ea" y="206.496"/>
     <use style="stroke:#000000;" x="172.200368" xlink:href="#mff93aab7ea" y="205.632"/>
     <use style="stroke:#000000;" x="176.212914" xlink:href="#mff93aab7ea" y="204.768"/>
     <use style="stroke:#000000;" x="191.557026" xlink:href="#mff93aab7ea" y="203.904"/>
     <use style="stroke:#000000;" x="151.397127" xlink:href="#mff93aab7ea" y="203.04"/>
     <use style="stroke:#000000;" x="140.564977" xlink:href="#mff93aab7ea" y="202.176"/>
     <use style="stroke:#000000;" x="157.407335" xlink:href="#mff93aab7ea" y="201.312"/>
     <use style="stroke:#000000;" x="151.345464" xlink:href="#mff93aab7ea" y="200.448"/>
     <use style="stroke:#000000;" x="185.443491" xlink:href="#mff93aab7ea" y="199.584"/>
     <use style="stroke:#000000;" x="165.397984" xlink:href="#mff93aab7ea" y="198.72"/>
     <use style="stroke:#000000;" x="153.343126" xlink:href="#mff93aab7ea" y="197.856"/>
     <use style="stroke:#000000;" x="153.498117" xlink:href="#mff93aab7ea" y="196.992"/>
     <use style="stroke:#000000;" x="176.040701" xlink:href="#mff93aab7ea" y="196.128"/>
     <use style="stroke:#000000;" x="197.601676" xlink:href="#mff93aab7ea" y="195.264"/>
     <use style="stroke:#000000;" x="174.008597" xlink:href="#mff93aab7ea" y="194.4"/>
     <use style="stroke:#000000;" x="158.199512" xlink:href="#mff93aab7ea" y="193.536"/>
     <use style="stroke:#000000;" x="212.239718" xlink:href="#mff93aab7ea" y="192.672"/>
     <use style="stroke:#000000;" x="158.233954" xlink:href="#mff93aab7ea" y="191.808"/>
     <use style="stroke:#000000;" x="185.701809" xlink:href="#mff93aab7ea" y="190.944"/>
     <use style="stroke:#000000;" x="153.446453" xlink:href="#mff93aab7ea" y="190.08"/>
     <use style="stroke:#000000;" x="187.716692" xlink:href="#mff93aab7ea" y="189.216"/>
     <use style="stroke:#000000;" x="165.466869" xlink:href="#mff93aab7ea" y="188.352"/>
     <use style="stroke:#000000;" x="218.301589" xlink:href="#mff93aab7ea" y="187.488"/>
     <use style="stroke:#000000;" x="199.582117" xlink:href="#mff93aab7ea" y="186.624"/>
     <use style="stroke:#000000;" x="230.718093" xlink:href="#mff93aab7ea" y="185.76"/>
     <use style="stroke:#000000;" x="223.812381" xlink:href="#mff93aab7ea" y="184.896"/>
     <use style="stroke:#000000;" x="177.315072" xlink:href="#mff93aab7ea" y="184.032"/>
     <use style="stroke:#000000;" x="193.1586" xlink:href="#mff93aab7ea" y="183.168"/>
     <use style="stroke:#000000;" x="175.627392" xlink:href="#mff93aab7ea" y="182.304"/>
     <use style="stroke:#000000;" x="212.842461" xlink:href="#mff93aab7ea" y="181.44"/>
     <use style="stroke:#000000;" x="244.236755" xlink:href="#mff93aab7ea" y="180.576"/>
     <use style="stroke:#000000;" x="186.046233" xlink:href="#mff93aab7ea" y="179.712"/>
     <use style="stroke:#000000;" x="193.399697" xlink:href="#mff93aab7ea" y="178.848"/>
     <use style="stroke:#000000;" x="227.738821" xlink:href="#mff93aab7ea" y="177.984"/>
     <use style="stroke:#000000;" x="223.502399" xlink:href="#mff93aab7ea" y="177.12"/>
     <use style="stroke:#000000;" x="278.007578" xlink:href="#mff93aab7ea" y="176.256"/>
     <use style="stroke:#000000;" x="200.167638" xlink:href="#mff93aab7ea" y="175.392"/>
     <use style="stroke:#000000;" x="197.171145" xlink:href="#mff93aab7ea" y="174.528"/>
     <use style="stroke:#000000;" x="215.253432" xlink:href="#mff93aab7ea" y="173.664"/>
     <use style="stroke:#000000;" x="243.978436" xlink:href="#mff93aab7ea" y="172.8"/>
     <use style="stroke:#000000;" x="204.524609" xlink:href="#mff93aab7ea" y="171.936"/>
     <use style="stroke:#000000;" x="197.756667" xlink:href="#mff93aab7ea" y="171.072"/>
     <use style="stroke:#000000;" x="216.958333" xlink:href="#mff93aab7ea" y="170.208"/>
     <use style="stroke:#000000;" x="206.866695" xlink:href="#mff93aab7ea" y="169.344"/>
     <use style="stroke:#000000;" x="249.575335" xlink:href="#mff93aab7ea" y="168.48"/>
     <use style="stroke:#000000;" x="218.45658" xlink:href="#mff93aab7ea" y="167.616"/>
     <use style="stroke:#000000;" x="227.669936" xlink:href="#mff93aab7ea" y="166.752"/>
     <use style="stroke:#000000;" x="200.064311" xlink:href="#mff93aab7ea" y="165.888"/>
     <use style="stroke:#000000;" x="200.167638" xlink:href="#mff93aab7ea" y="165.024"/>
     <use style="stroke:#000000;" x="199.719887" xlink:href="#mff93aab7ea" y="164.16"/>
     <use style="stroke:#000000;" x="220.764224" xlink:href="#mff93aab7ea" y="163.296"/>
     <use style="stroke:#000000;" x="248.817601" xlink:href="#mff93aab7ea" y="162.432"/>
     <use style="stroke:#000000;" x="280.177453" xlink:href="#mff93aab7ea" y="161.568"/>
     <use style="stroke:#000000;" x="275.476058" xlink:href="#mff93aab7ea" y="160.704"/>
     <use style="stroke:#000000;" x="212.963009" xlink:href="#mff93aab7ea" y="159.84"/>
     <use style="stroke:#000000;" x="272.944538" xlink:href="#mff93aab7ea" y="158.976"/>
     <use style="stroke:#000000;" x="206.832253" xlink:href="#mff93aab7ea" y="158.112"/>
     <use style="stroke:#000000;" x="295.159919" xlink:href="#mff93aab7ea" y="157.248"/>
     <use style="stroke:#000000;" x="223.691833" xlink:href="#mff93aab7ea" y="156.384"/>
     <use style="stroke:#000000;" x="232.870746" xlink:href="#mff93aab7ea" y="155.52"/>
     <use style="stroke:#000000;" x="248.748716" xlink:href="#mff93aab7ea" y="154.656"/>
     <use style="stroke:#000000;" x="258.461487" xlink:href="#mff93aab7ea" y="153.792"/>
     <use style="stroke:#000000;" x="234.61009" xlink:href="#mff93aab7ea" y="152.928"/>
     <use style="stroke:#000000;" x="218.491023" xlink:href="#mff93aab7ea" y="152.064"/>
     <use style="stroke:#000000;" x="204.352396" xlink:href="#mff93aab7ea" y="151.2"/>
     <use style="stroke:#000000;" x="203.921866" xlink:href="#mff93aab7ea" y="150.336"/>
     <use style="stroke:#000000;" x="235.161169" xlink:href="#mff93aab7ea" y="149.472"/>
     <use style="stroke:#000000;" x="210.138728" xlink:href="#mff93aab7ea" y="148.608"/>
     <use style="stroke:#000000;" x="204.54183" xlink:href="#mff93aab7ea" y="147.744"/>
     <use style="stroke:#000000;" x="227.325511" xlink:href="#mff93aab7ea" y="146.88"/>
     <use style="stroke:#000000;" x="239.587024" xlink:href="#mff93aab7ea" y="146.016"/>
     <use style="stroke:#000000;" x="256.239949" xlink:href="#mff93aab7ea" y="145.152"/>
     <use style="stroke:#000000;" x="227.635493" xlink:href="#mff93aab7ea" y="144.288"/>
     <use style="stroke:#000000;" x="233.680144" xlink:href="#mff93aab7ea" y="143.424"/>
     <use style="stroke:#000000;" x="281.951239" xlink:href="#mff93aab7ea" y="142.56"/>
     <use style="stroke:#000000;" x="297.467563" xlink:href="#mff93aab7ea" y="141.696"/>
     <use style="stroke:#000000;" x="224.122363" xlink:href="#mff93aab7ea" y="140.832"/>
     <use style="stroke:#000000;" x="233.421825" xlink:href="#mff93aab7ea" y="139.968"/>
     <use style="stroke:#000000;" x="218.404916" xlink:href="#mff93aab7ea" y="139.104"/>
     <use style="stroke:#000000;" x="304.132178" xlink:href="#mff93aab7ea" y="138.24"/>
     <use style="stroke:#000000;" x="291.474577" xlink:href="#mff93aab7ea" y="137.376"/>
     <use style="stroke:#000000;" x="265.625517" xlink:href="#mff93aab7ea" y="136.512"/>
     <use style="stroke:#000000;" x="227.652715" xlink:href="#mff93aab7ea" y="135.648"/>
     <use style="stroke:#000000;" x="292.680062" xlink:href="#mff93aab7ea" y="134.784"/>
     <use style="stroke:#000000;" x="268.931992" xlink:href="#mff93aab7ea" y="133.92"/>
     <use style="stroke:#000000;" x="263.403979" xlink:href="#mff93aab7ea" y="133.056"/>
     <use style="stroke:#000000;" x="241.412474" xlink:href="#mff93aab7ea" y="131.328"/>
     <use style="stroke:#000000;" x="263.248988" xlink:href="#mff93aab7ea" y="130.464"/>
     <use style="stroke:#000000;" x="280.315222" xlink:href="#mff93aab7ea" y="129.6"/>
     <use style="stroke:#000000;" x="291.870665" xlink:href="#mff93aab7ea" y="128.736"/>
     <use style="stroke:#000000;" x="237.503256" xlink:href="#mff93aab7ea" y="127.872"/>
     <use style="stroke:#000000;" x="297.84643" xlink:href="#mff93aab7ea" y="127.008"/>
     <use style="stroke:#000000;" x="338.574629" xlink:href="#mff93aab7ea" y="126.144"/>
     <use style="stroke:#000000;" x="272.789547" xlink:href="#mff93aab7ea" y="125.28"/>
     <use style="stroke:#000000;" x="270.034151" xlink:href="#mff93aab7ea" y="124.416"/>
     <use style="stroke:#000000;" x="263.025112" xlink:href="#mff93aab7ea" y="123.552"/>
     <use style="stroke:#000000;" x="338.695177" xlink:href="#mff93aab7ea" y="122.688"/>
     <use style="stroke:#000000;" x="239.035945" xlink:href="#mff93aab7ea" y="121.824"/>
     <use style="stroke:#000000;" x="253.966747" xlink:href="#mff93aab7ea" y="120.96"/>
     <use style="stroke:#000000;" x="223.79516" xlink:href="#mff93aab7ea" y="120.096"/>
     <use style="stroke:#000000;" x="292.835054" xlink:href="#mff93aab7ea" y="119.232"/>
     <use style="stroke:#000000;" x="254.380057" xlink:href="#mff93aab7ea" y="118.368"/>
     <use style="stroke:#000000;" x="275.579385" xlink:href="#mff93aab7ea" y="117.504"/>
     <use style="stroke:#000000;" x="297.880873" xlink:href="#mff93aab7ea" y="116.64"/>
     <use style="stroke:#000000;" x="253.209013" xlink:href="#mff93aab7ea" y="115.776"/>
     <use style="stroke:#000000;" x="256.343276" xlink:href="#mff93aab7ea" y="114.912"/>
     <use style="stroke:#000000;" x="352.489379" xlink:href="#mff93aab7ea" y="114.048"/>
     <use style="stroke:#000000;" x="254.087296" xlink:href="#mff93aab7ea" y="113.184"/>
     <use style="stroke:#000000;" x="285.791572" xlink:href="#mff93aab7ea" y="112.32"/>
     <use style="stroke:#000000;" x="275.562164" xlink:href="#mff93aab7ea" y="111.456"/>
     <use style="stroke:#000000;" x="282.020124" xlink:href="#mff93aab7ea" y="110.592"/>
     <use style="stroke:#000000;" x="398.280618" xlink:href="#mff93aab7ea" y="109.728"/>
     <use style="stroke:#000000;" x="263.455643" xlink:href="#mff93aab7ea" y="108.864"/>
     <use style="stroke:#000000;" x="286.015448" xlink:href="#mff93aab7ea" y="108"/>
     <use style="stroke:#000000;" x="349.871753" xlink:href="#mff93aab7ea" y="107.136"/>
     <use style="stroke:#000000;" x="349.768425" xlink:href="#mff93aab7ea" y="106.272"/>
     <use style="stroke:#000000;" x="349.906195" xlink:href="#mff93aab7ea" y="105.408"/>
     <use style="stroke:#000000;" x="294.918822" xlink:href="#mff93aab7ea" y="104.544"/>
     <use style="stroke:#000000;" x="372.982638" xlink:href="#mff93aab7ea" y="103.68"/>
     <use style="stroke:#000000;" x="288.01311" xlink:href="#mff93aab7ea" y="102.816"/>
     <use style="stroke:#000000;" x="254.018411" xlink:href="#mff93aab7ea" y="101.952"/>
     <use style="stroke:#000000;" x="298.018642" xlink:href="#mff93aab7ea" y="101.088"/>
     <use style="stroke:#000000;" x="288.374756" xlink:href="#mff93aab7ea" y="100.224"/>
     <use style="stroke:#000000;" x="311.950614" xlink:href="#mff93aab7ea" y="99.36"/>
     <use style="stroke:#000000;" x="326.640319" xlink:href="#mff93aab7ea" y="98.496"/>
     <use style="stroke:#000000;" x="320.32013" xlink:href="#mff93aab7ea" y="97.632"/>
     <use style="stroke:#000000;" x="365.818608" xlink:href="#mff93aab7ea" y="96.768"/>
     <use style="stroke:#000000;" x="362.408805" xlink:href="#mff93aab7ea" y="95.904"/>
     <use style="stroke:#000000;" x="332.512757" xlink:href="#mff93aab7ea" y="95.04"/>
     <use style="stroke:#000000;" x="352.403273" xlink:href="#mff93aab7ea" y="94.176"/>
     <use style="stroke:#000000;" x="398.487273" xlink:href="#mff93aab7ea" y="93.312"/>
     <use style="stroke:#000000;" x="337.851337" xlink:href="#mff93aab7ea" y="92.448"/>
     <use style="stroke:#000000;" x="377.684032" xlink:href="#mff93aab7ea" y="91.584"/>
     <use style="stroke:#000000;" x="323.230517" xlink:href="#mff93aab7ea" y="90.72"/>
     <use style="stroke:#000000;" x="319.975705" xlink:href="#mff93aab7ea" y="89.856"/>
     <use style="stroke:#000000;" x="386.776839" xlink:href="#mff93aab7ea" y="88.992"/>
     <use style="stroke:#000000;" x="350.11285" xlink:href="#mff93aab7ea" y="88.128"/>
     <use style="stroke:#000000;" x="350.11285" xlink:href="#mff93aab7ea" y="87.264"/>
     <use style="stroke:#000000;" x="306.233167" xlink:href="#mff93aab7ea" y="86.4"/>
     <use style="stroke:#000000;" x="317.719725" xlink:href="#mff93aab7ea" y="85.536"/>
     <use style="stroke:#000000;" x="340.761724" xlink:href="#mff93aab7ea" y="84.672"/>
     <use style="stroke:#000000;" x="315.291532" xlink:href="#mff93aab7ea" y="83.808"/>
     <use style="stroke:#000000;" x="306.12984" xlink:href="#mff93aab7ea" y="82.944"/>
     <use style="stroke:#000000;" x="375.11807" xlink:href="#mff93aab7ea" y="82.08"/>
     <use style="stroke:#000000;" x="319.803493" xlink:href="#mff93aab7ea" y="81.216"/>
     <use style="stroke:#000000;" x="357.931286" xlink:href="#mff93aab7ea" y="79.488"/>
     <use style="stroke:#000000;" x="362.305478" xlink:href="#mff93aab7ea" y="78.624"/>
     <use style="stroke:#000000;" x="297.674218" xlink:href="#mff93aab7ea" y="77.76"/>
     <use style="stroke:#000000;" x="350.026744" xlink:href="#mff93aab7ea" y="76.896"/>
     <use style="stroke:#000000;" x="394.870815" xlink:href="#mff93aab7ea" y="75.168"/>
     <use style="stroke:#000000;" x="312.794454" xlink:href="#mff93aab7ea" y="73.44"/>
     <use style="stroke:#000000;" x="333.442704" xlink:href="#mff93aab7ea" y="72.576"/>
     <use style="stroke:#000000;" x="386.432415" xlink:href="#mff93aab7ea" y="69.984"/>
     <use style="stroke:#000000;" x="352.988795" xlink:href="#mff93aab7ea" y="68.256"/>
     <use style="stroke:#000000;" x="362.288256" xlink:href="#mff93aab7ea" y="66.528"/>
     <use style="stroke:#000000;" x="352.747697" xlink:href="#mff93aab7ea" y="65.664"/>
     <use style="stroke:#000000;" x="375.445273" xlink:href="#mff93aab7ea" y="62.208"/>
     <use style="stroke:#000000;" x="319.958484" xlink:href="#mff93aab7ea" y="60.48"/>
     <use style="stroke:#000000;" x="393.079808" xlink:href="#mff93aab7ea" y="57.024"/>
     <use style="stroke:#000000;" x="388.120095" xlink:href="#mff93aab7ea" y="56.16"/>
     <use style="stroke:#000000;" x="377.632368" xlink:href="#mff93aab7ea" y="53.568"/>
    </g>
   </g>
   <g id="patch_3">
    <path d="M 57.6 307.584 
L 57.6 41.472 
" style="fill:none;stroke:#000000;stroke-linecap:square;stroke-linejoin:miter;stroke-width:0.8;"/>
   </g>
   <g id="patch_4">
    <path d="M 414.72 307.584 
L 414.72 41.472 
" style="fill:none;stroke:#000000;stroke-linecap:square;stroke-linejoin:miter;stroke-width:0.8;"/>
   </g>
   <g id="patch_5">
    <path d="M 57.6 307.584 
L 414.72 307.584 
" style="fill:none;stroke:#000000;stroke-linecap:square;stroke-linejoin:miter;stroke-width:0.8;"/>
   </g>
   <g id="patch_6">
    <path d="M 57.6 41.472 
L 414.72 41.472 
" style="fill:none;stroke:#000000;stroke-linecap:square;stroke-linejoin:miter;stroke-width:0.8;"/>
   </g>
  </g>
 </g>
 <defs>
  <clipPath id="pd4c2942823">
   <rect height="266.112" width="357.12" x="57.6" y="41.472"/>
  </clipPath>
 </defs>
</svg>
