<?xml version="1.0" encoding="utf-8" standalone="no"?>
<!DOCTYPE svg PUBLIC "-//W3C//DTD SVG 1.1//EN"
  "http://www.w3.org/Graphics/SVG/1.1/DTD/svg11.dtd">
<!-- Created with matplotlib (https://matplotlib.org/) -->
<svg height="345.6pt" version="1.1" viewBox="0 0 460.8 345.6" width="460.8pt" xmlns="http://www.w3.org/2000/svg" xmlns:xlink="http://www.w3.org/1999/xlink">
 <defs>
  <style type="text/css">
*{stroke-linecap:butt;stroke-linejoin:round;}
  </style>
 </defs>
 <g id="figure_1">
  <g id="patch_1">
   <path d="M 0 345.6 
L 460.8 345.6 
L 460.8 0 
L 0 0 
z
" style="fill:#ffffff;"/>
  </g>
  <g id="axes_1">
   <g id="patch_2">
    <path d="M 57.6 307.584 
L 414.72 307.584 
L 414.72 41.472 
L 57.6 41.472 
z
" style="fill:#ffffff;"/>
   </g>
   <g id="matplotlib.axis_1">
    <g id="xtick_1">
     <g id="line2d_1">
      <defs>
       <path d="M 0 0 
L 0 3.5 
" id="m571dea76cf" style="stroke:#000000;stroke-width:0.8;"/>
      </defs>
      <g>
       <use style="stroke:#000000;stroke-width:0.8;" x="57.122183" xlink:href="#m571dea76cf" y="307.584"/>
      </g>
     </g>
     <g id="text_1">
      <!-- 0 -->
      <defs>
       <path d="M 31.78125 66.40625 
Q 24.171875 66.40625 20.328125 58.90625 
Q 16.5 51.421875 16.5 36.375 
Q 16.5 21.390625 20.328125 13.890625 
Q 24.171875 6.390625 31.78125 6.390625 
Q 39.453125 6.390625 43.28125 13.890625 
Q 47.125 21.390625 47.125 36.375 
Q 47.125 51.421875 43.28125 58.90625 
Q 39.453125 66.40625 31.78125 66.40625 
z
M 31.78125 74.21875 
Q 44.046875 74.21875 50.515625 64.515625 
Q 56.984375 54.828125 56.984375 36.375 
Q 56.984375 17.96875 50.515625 8.265625 
Q 44.046875 -1.421875 31.78125 -1.421875 
Q 19.53125 -1.421875 13.0625 8.265625 
Q 6.59375 17.96875 6.59375 36.375 
Q 6.59375 54.828125 13.0625 64.515625 
Q 19.53125 74.21875 31.78125 74.21875 
z
" id="DejaVuSans-48"/>
      </defs>
      <g transform="translate(53.940933 322.182437)scale(0.1 -0.1)">
       <use xlink:href="#DejaVuSans-48"/>
      </g>
     </g>
    </g>
    <g id="xtick_2">
     <g id="line2d_2">
      <g>
       <use style="stroke:#000000;stroke-width:0.8;" x="126.749451" xlink:href="#m571dea76cf" y="307.584"/>
      </g>
     </g>
     <g id="text_2">
      <!-- 200 -->
      <defs>
       <path d="M 19.1875 8.296875 
L 53.609375 8.296875 
L 53.609375 0 
L 7.328125 0 
L 7.328125 8.296875 
Q 12.9375 14.109375 22.625 23.890625 
Q 32.328125 33.6875 34.8125 36.53125 
Q 39.546875 41.84375 41.421875 45.53125 
Q 43.3125 49.21875 43.3125 52.78125 
Q 43.3125 58.59375 39.234375 62.25 
Q 35.15625 65.921875 28.609375 65.921875 
Q 23.96875 65.921875 18.8125 64.3125 
Q 13.671875 62.703125 7.8125 59.421875 
L 7.8125 69.390625 
Q 13.765625 71.78125 18.9375 73 
Q 24.125 74.21875 28.421875 74.21875 
Q 39.75 74.21875 46.484375 68.546875 
Q 53.21875 62.890625 53.21875 53.421875 
Q 53.21875 48.921875 51.53125 44.890625 
Q 49.859375 40.875 45.40625 35.40625 
Q 44.1875 33.984375 37.640625 27.21875 
Q 31.109375 20.453125 19.1875 8.296875 
z
" id="DejaVuSans-50"/>
      </defs>
      <g transform="translate(117.205701 322.182437)scale(0.1 -0.1)">
       <use xlink:href="#DejaVuSans-50"/>
       <use x="63.623047" xlink:href="#DejaVuSans-48"/>
       <use x="127.246094" xlink:href="#DejaVuSans-48"/>
      </g>
     </g>
    </g>
    <g id="xtick_3">
     <g id="line2d_3">
      <g>
       <use style="stroke:#000000;stroke-width:0.8;" x="196.37672" xlink:href="#m571dea76cf" y="307.584"/>
      </g>
     </g>
     <g id="text_3">
      <!-- 400 -->
      <defs>
       <path d="M 37.796875 64.3125 
L 12.890625 25.390625 
L 37.796875 25.390625 
z
M 35.203125 72.90625 
L 47.609375 72.90625 
L 47.609375 25.390625 
L 58.015625 25.390625 
L 58.015625 17.1875 
L 47.609375 17.1875 
L 47.609375 0 
L 37.796875 0 
L 37.796875 17.1875 
L 4.890625 17.1875 
L 4.890625 26.703125 
z
" id="DejaVuSans-52"/>
      </defs>
      <g transform="translate(186.83297 322.182437)scale(0.1 -0.1)">
       <use xlink:href="#DejaVuSans-52"/>
       <use x="63.623047" xlink:href="#DejaVuSans-48"/>
       <use x="127.246094" xlink:href="#DejaVuSans-48"/>
      </g>
     </g>
    </g>
    <g id="xtick_4">
     <g id="line2d_4">
      <g>
       <use style="stroke:#000000;stroke-width:0.8;" x="266.003988" xlink:href="#m571dea76cf" y="307.584"/>
      </g>
     </g>
     <g id="text_4">
      <!-- 600 -->
      <defs>
       <path d="M 33.015625 40.375 
Q 26.375 40.375 22.484375 35.828125 
Q 18.609375 31.296875 18.609375 23.390625 
Q 18.609375 15.53125 22.484375 10.953125 
Q 26.375 6.390625 33.015625 6.390625 
Q 39.65625 6.390625 43.53125 10.953125 
Q 47.40625 15.53125 47.40625 23.390625 
Q 47.40625 31.296875 43.53125 35.828125 
Q 39.65625 40.375 33.015625 40.375 
z
M 52.59375 71.296875 
L 52.59375 62.3125 
Q 48.875 64.0625 45.09375 64.984375 
Q 41.3125 65.921875 37.59375 65.921875 
Q 27.828125 65.921875 22.671875 59.328125 
Q 17.53125 52.734375 16.796875 39.40625 
Q 19.671875 43.65625 24.015625 45.921875 
Q 28.375 48.1875 33.59375 48.1875 
Q 44.578125 48.1875 50.953125 41.515625 
Q 57.328125 34.859375 57.328125 23.390625 
Q 57.328125 12.15625 50.6875 5.359375 
Q 44.046875 -1.421875 33.015625 -1.421875 
Q 20.359375 -1.421875 13.671875 8.265625 
Q 6.984375 17.96875 6.984375 36.375 
Q 6.984375 53.65625 15.1875 63.9375 
Q 23.390625 74.21875 37.203125 74.21875 
Q 40.921875 74.21875 44.703125 73.484375 
Q 48.484375 72.75 52.59375 71.296875 
z
" id="DejaVuSans-54"/>
      </defs>
      <g transform="translate(256.460238 322.182437)scale(0.1 -0.1)">
       <use xlink:href="#DejaVuSans-54"/>
       <use x="63.623047" xlink:href="#DejaVuSans-48"/>
       <use x="127.246094" xlink:href="#DejaVuSans-48"/>
      </g>
     </g>
    </g>
    <g id="xtick_5">
     <g id="line2d_5">
      <g>
       <use style="stroke:#000000;stroke-width:0.8;" x="335.631256" xlink:href="#m571dea76cf" y="307.584"/>
      </g>
     </g>
     <g id="text_5">
      <!-- 800 -->
      <defs>
       <path d="M 31.78125 34.625 
Q 24.75 34.625 20.71875 30.859375 
Q 16.703125 27.09375 16.703125 20.515625 
Q 16.703125 13.921875 20.71875 10.15625 
Q 24.75 6.390625 31.78125 6.390625 
Q 38.8125 6.390625 42.859375 10.171875 
Q 46.921875 13.96875 46.921875 20.515625 
Q 46.921875 27.09375 42.890625 30.859375 
Q 38.875 34.625 31.78125 34.625 
z
M 21.921875 38.8125 
Q 15.578125 40.375 12.03125 44.71875 
Q 8.5 49.078125 8.5 55.328125 
Q 8.5 64.0625 14.71875 69.140625 
Q 20.953125 74.21875 31.78125 74.21875 
Q 42.671875 74.21875 48.875 69.140625 
Q 55.078125 64.0625 55.078125 55.328125 
Q 55.078125 49.078125 51.53125 44.71875 
Q 48 40.375 41.703125 38.8125 
Q 48.828125 37.15625 52.796875 32.3125 
Q 56.78125 27.484375 56.78125 20.515625 
Q 56.78125 9.90625 50.3125 4.234375 
Q 43.84375 -1.421875 31.78125 -1.421875 
Q 19.734375 -1.421875 13.25 4.234375 
Q 6.78125 9.90625 6.78125 20.515625 
Q 6.78125 27.484375 10.78125 32.3125 
Q 14.796875 37.15625 21.921875 38.8125 
z
M 18.3125 54.390625 
Q 18.3125 48.734375 21.84375 45.5625 
Q 25.390625 42.390625 31.78125 42.390625 
Q 38.140625 42.390625 41.71875 45.5625 
Q 45.3125 48.734375 45.3125 54.390625 
Q 45.3125 60.0625 41.71875 63.234375 
Q 38.140625 66.40625 31.78125 66.40625 
Q 25.390625 66.40625 21.84375 63.234375 
Q 18.3125 60.0625 18.3125 54.390625 
z
" id="DejaVuSans-56"/>
      </defs>
      <g transform="translate(326.087506 322.182437)scale(0.1 -0.1)">
       <use xlink:href="#DejaVuSans-56"/>
       <use x="63.623047" xlink:href="#DejaVuSans-48"/>
       <use x="127.246094" xlink:href="#DejaVuSans-48"/>
      </g>
     </g>
    </g>
    <g id="xtick_6">
     <g id="line2d_6">
      <g>
       <use style="stroke:#000000;stroke-width:0.8;" x="405.258525" xlink:href="#m571dea76cf" y="307.584"/>
      </g>
     </g>
     <g id="text_6">
      <!-- 1000 -->
      <defs>
       <path d="M 12.40625 8.296875 
L 28.515625 8.296875 
L 28.515625 63.921875 
L 10.984375 60.40625 
L 10.984375 69.390625 
L 28.421875 72.90625 
L 38.28125 72.90625 
L 38.28125 8.296875 
L 54.390625 8.296875 
L 54.390625 0 
L 12.40625 0 
z
" id="DejaVuSans-49"/>
      </defs>
      <g transform="translate(392.533525 322.182437)scale(0.1 -0.1)">
       <use xlink:href="#DejaVuSans-49"/>
       <use x="63.623047" xlink:href="#DejaVuSans-48"/>
       <use x="127.246094" xlink:href="#DejaVuSans-48"/>
       <use x="190.869141" xlink:href="#DejaVuSans-48"/>
      </g>
     </g>
    </g>
    <g id="text_7">
     <!-- Tempo (ms) -->
     <defs>
      <path d="M -0.296875 72.90625 
L 61.375 72.90625 
L 61.375 64.59375 
L 35.5 64.59375 
L 35.5 0 
L 25.59375 0 
L 25.59375 64.59375 
L -0.296875 64.59375 
z
" id="DejaVuSans-84"/>
      <path d="M 56.203125 29.59375 
L 56.203125 25.203125 
L 14.890625 25.203125 
Q 15.484375 15.921875 20.484375 11.0625 
Q 25.484375 6.203125 34.421875 6.203125 
Q 39.59375 6.203125 44.453125 7.46875 
Q 49.3125 8.734375 54.109375 11.28125 
L 54.109375 2.78125 
Q 49.265625 0.734375 44.1875 -0.34375 
Q 39.109375 -1.421875 33.890625 -1.421875 
Q 20.796875 -1.421875 13.15625 6.1875 
Q 5.515625 13.8125 5.515625 26.8125 
Q 5.515625 40.234375 12.765625 48.109375 
Q 20.015625 56 32.328125 56 
Q 43.359375 56 49.78125 48.890625 
Q 56.203125 41.796875 56.203125 29.59375 
z
M 47.21875 32.234375 
Q 47.125 39.59375 43.09375 43.984375 
Q 39.0625 48.390625 32.421875 48.390625 
Q 24.90625 48.390625 20.390625 44.140625 
Q 15.875 39.890625 15.1875 32.171875 
z
" id="DejaVuSans-101"/>
      <path d="M 52 44.1875 
Q 55.375 50.25 60.0625 53.125 
Q 64.75 56 71.09375 56 
Q 79.640625 56 84.28125 50.015625 
Q 88.921875 44.046875 88.921875 33.015625 
L 88.921875 0 
L 79.890625 0 
L 79.890625 32.71875 
Q 79.890625 40.578125 77.09375 44.375 
Q 74.3125 48.1875 68.609375 48.1875 
Q 61.625 48.1875 57.5625 43.546875 
Q 53.515625 38.921875 53.515625 30.90625 
L 53.515625 0 
L 44.484375 0 
L 44.484375 32.71875 
Q 44.484375 40.625 41.703125 44.40625 
Q 38.921875 48.1875 33.109375 48.1875 
Q 26.21875 48.1875 22.15625 43.53125 
Q 18.109375 38.875 18.109375 30.90625 
L 18.109375 0 
L 9.078125 0 
L 9.078125 54.6875 
L 18.109375 54.6875 
L 18.109375 46.1875 
Q 21.1875 51.21875 25.484375 53.609375 
Q 29.78125 56 35.6875 56 
Q 41.65625 56 45.828125 52.96875 
Q 50 49.953125 52 44.1875 
z
" id="DejaVuSans-109"/>
      <path d="M 18.109375 8.203125 
L 18.109375 -20.796875 
L 9.078125 -20.796875 
L 9.078125 54.6875 
L 18.109375 54.6875 
L 18.109375 46.390625 
Q 20.953125 51.265625 25.265625 53.625 
Q 29.59375 56 35.59375 56 
Q 45.5625 56 51.78125 48.09375 
Q 58.015625 40.1875 58.015625 27.296875 
Q 58.015625 14.40625 51.78125 6.484375 
Q 45.5625 -1.421875 35.59375 -1.421875 
Q 29.59375 -1.421875 25.265625 0.953125 
Q 20.953125 3.328125 18.109375 8.203125 
z
M 48.6875 27.296875 
Q 48.6875 37.203125 44.609375 42.84375 
Q 40.53125 48.484375 33.40625 48.484375 
Q 26.265625 48.484375 22.1875 42.84375 
Q 18.109375 37.203125 18.109375 27.296875 
Q 18.109375 17.390625 22.1875 11.75 
Q 26.265625 6.109375 33.40625 6.109375 
Q 40.53125 6.109375 44.609375 11.75 
Q 48.6875 17.390625 48.6875 27.296875 
z
" id="DejaVuSans-112"/>
      <path d="M 30.609375 48.390625 
Q 23.390625 48.390625 19.1875 42.75 
Q 14.984375 37.109375 14.984375 27.296875 
Q 14.984375 17.484375 19.15625 11.84375 
Q 23.34375 6.203125 30.609375 6.203125 
Q 37.796875 6.203125 41.984375 11.859375 
Q 46.1875 17.53125 46.1875 27.296875 
Q 46.1875 37.015625 41.984375 42.703125 
Q 37.796875 48.390625 30.609375 48.390625 
z
M 30.609375 56 
Q 42.328125 56 49.015625 48.375 
Q 55.71875 40.765625 55.71875 27.296875 
Q 55.71875 13.875 49.015625 6.21875 
Q 42.328125 -1.421875 30.609375 -1.421875 
Q 18.84375 -1.421875 12.171875 6.21875 
Q 5.515625 13.875 5.515625 27.296875 
Q 5.515625 40.765625 12.171875 48.375 
Q 18.84375 56 30.609375 56 
z
" id="DejaVuSans-111"/>
      <path id="DejaVuSans-32"/>
      <path d="M 31 75.875 
Q 24.46875 64.65625 21.28125 53.65625 
Q 18.109375 42.671875 18.109375 31.390625 
Q 18.109375 20.125 21.3125 9.0625 
Q 24.515625 -2 31 -13.1875 
L 23.1875 -13.1875 
Q 15.875 -1.703125 12.234375 9.375 
Q 8.59375 20.453125 8.59375 31.390625 
Q 8.59375 42.28125 12.203125 53.3125 
Q 15.828125 64.359375 23.1875 75.875 
z
" id="DejaVuSans-40"/>
      <path d="M 44.28125 53.078125 
L 44.28125 44.578125 
Q 40.484375 46.53125 36.375 47.5 
Q 32.28125 48.484375 27.875 48.484375 
Q 21.1875 48.484375 17.84375 46.4375 
Q 14.5 44.390625 14.5 40.28125 
Q 14.5 37.15625 16.890625 35.375 
Q 19.28125 33.59375 26.515625 31.984375 
L 29.59375 31.296875 
Q 39.15625 29.25 43.1875 25.515625 
Q 47.21875 21.78125 47.21875 15.09375 
Q 47.21875 7.46875 41.1875 3.015625 
Q 35.15625 -1.421875 24.609375 -1.421875 
Q 20.21875 -1.421875 15.453125 -0.5625 
Q 10.6875 0.296875 5.421875 2 
L 5.421875 11.28125 
Q 10.40625 8.6875 15.234375 7.390625 
Q 20.0625 6.109375 24.8125 6.109375 
Q 31.15625 6.109375 34.5625 8.28125 
Q 37.984375 10.453125 37.984375 14.40625 
Q 37.984375 18.0625 35.515625 20.015625 
Q 33.0625 21.96875 24.703125 23.78125 
L 21.578125 24.515625 
Q 13.234375 26.265625 9.515625 29.90625 
Q 5.8125 33.546875 5.8125 39.890625 
Q 5.8125 47.609375 11.28125 51.796875 
Q 16.75 56 26.8125 56 
Q 31.78125 56 36.171875 55.265625 
Q 40.578125 54.546875 44.28125 53.078125 
z
" id="DejaVuSans-115"/>
      <path d="M 8.015625 75.875 
L 15.828125 75.875 
Q 23.140625 64.359375 26.78125 53.3125 
Q 30.421875 42.28125 30.421875 31.390625 
Q 30.421875 20.453125 26.78125 9.375 
Q 23.140625 -1.703125 15.828125 -13.1875 
L 8.015625 -13.1875 
Q 14.5 -2 17.703125 9.0625 
Q 20.90625 20.125 20.90625 31.390625 
Q 20.90625 42.671875 17.703125 53.65625 
Q 14.5 64.65625 8.015625 75.875 
z
" id="DejaVuSans-41"/>
     </defs>
     <g transform="translate(205.973281 335.860562)scale(0.1 -0.1)">
      <use xlink:href="#DejaVuSans-84"/>
      <use x="60.818359" xlink:href="#DejaVuSans-101"/>
      <use x="122.341797" xlink:href="#DejaVuSans-109"/>
      <use x="219.753906" xlink:href="#DejaVuSans-112"/>
      <use x="283.230469" xlink:href="#DejaVuSans-111"/>
      <use x="344.412109" xlink:href="#DejaVuSans-32"/>
      <use x="376.199219" xlink:href="#DejaVuSans-40"/>
      <use x="415.212891" xlink:href="#DejaVuSans-109"/>
      <use x="512.625" xlink:href="#DejaVuSans-115"/>
      <use x="564.724609" xlink:href="#DejaVuSans-41"/>
     </g>
    </g>
   </g>
   <g id="matplotlib.axis_2">
    <g id="ytick_1">
     <g id="line2d_7">
      <defs>
       <path d="M 0 0 
L -3.5 0 
" id="md093279f6e" style="stroke:#000000;stroke-width:0.8;"/>
      </defs>
      <g>
       <use style="stroke:#000000;stroke-width:0.8;" x="57.6" xlink:href="#md093279f6e" y="296.297097"/>
      </g>
     </g>
     <g id="text_8">
      <!-- 0 -->
      <g transform="translate(44.2375 300.096316)scale(0.1 -0.1)">
       <use xlink:href="#DejaVuSans-48"/>
      </g>
     </g>
    </g>
    <g id="ytick_2">
     <g id="line2d_8">
      <g>
       <use style="stroke:#000000;stroke-width:0.8;" x="57.6" xlink:href="#md093279f6e" y="255.842247"/>
      </g>
     </g>
     <g id="text_9">
      <!-- 50 -->
      <defs>
       <path d="M 10.796875 72.90625 
L 49.515625 72.90625 
L 49.515625 64.59375 
L 19.828125 64.59375 
L 19.828125 46.734375 
Q 21.96875 47.46875 24.109375 47.828125 
Q 26.265625 48.1875 28.421875 48.1875 
Q 40.625 48.1875 47.75 41.5 
Q 54.890625 34.8125 54.890625 23.390625 
Q 54.890625 11.625 47.5625 5.09375 
Q 40.234375 -1.421875 26.90625 -1.421875 
Q 22.3125 -1.421875 17.546875 -0.640625 
Q 12.796875 0.140625 7.71875 1.703125 
L 7.71875 11.625 
Q 12.109375 9.234375 16.796875 8.0625 
Q 21.484375 6.890625 26.703125 6.890625 
Q 35.15625 6.890625 40.078125 11.328125 
Q 45.015625 15.765625 45.015625 23.390625 
Q 45.015625 31 40.078125 35.4375 
Q 35.15625 39.890625 26.703125 39.890625 
Q 22.75 39.890625 18.8125 39.015625 
Q 14.890625 38.140625 10.796875 36.28125 
z
" id="DejaVuSans-53"/>
      </defs>
      <g transform="translate(37.875 259.641466)scale(0.1 -0.1)">
       <use xlink:href="#DejaVuSans-53"/>
       <use x="63.623047" xlink:href="#DejaVuSans-48"/>
      </g>
     </g>
    </g>
    <g id="ytick_3">
     <g id="line2d_9">
      <g>
       <use style="stroke:#000000;stroke-width:0.8;" x="57.6" xlink:href="#md093279f6e" y="215.387398"/>
      </g>
     </g>
     <g id="text_10">
      <!-- 100 -->
      <g transform="translate(31.5125 219.186617)scale(0.1 -0.1)">
       <use xlink:href="#DejaVuSans-49"/>
       <use x="63.623047" xlink:href="#DejaVuSans-48"/>
       <use x="127.246094" xlink:href="#DejaVuSans-48"/>
      </g>
     </g>
    </g>
    <g id="ytick_4">
     <g id="line2d_10">
      <g>
       <use style="stroke:#000000;stroke-width:0.8;" x="57.6" xlink:href="#md093279f6e" y="174.932548"/>
      </g>
     </g>
     <g id="text_11">
      <!-- 150 -->
      <g transform="translate(31.5125 178.731767)scale(0.1 -0.1)">
       <use xlink:href="#DejaVuSans-49"/>
       <use x="63.623047" xlink:href="#DejaVuSans-53"/>
       <use x="127.246094" xlink:href="#DejaVuSans-48"/>
      </g>
     </g>
    </g>
    <g id="ytick_5">
     <g id="line2d_11">
      <g>
       <use style="stroke:#000000;stroke-width:0.8;" x="57.6" xlink:href="#md093279f6e" y="134.477699"/>
      </g>
     </g>
     <g id="text_12">
      <!-- 200 -->
      <g transform="translate(31.5125 138.276918)scale(0.1 -0.1)">
       <use xlink:href="#DejaVuSans-50"/>
       <use x="63.623047" xlink:href="#DejaVuSans-48"/>
       <use x="127.246094" xlink:href="#DejaVuSans-48"/>
      </g>
     </g>
    </g>
    <g id="ytick_6">
     <g id="line2d_12">
      <g>
       <use style="stroke:#000000;stroke-width:0.8;" x="57.6" xlink:href="#md093279f6e" y="94.022849"/>
      </g>
     </g>
     <g id="text_13">
      <!-- 250 -->
      <g transform="translate(31.5125 97.822068)scale(0.1 -0.1)">
       <use xlink:href="#DejaVuSans-50"/>
       <use x="63.623047" xlink:href="#DejaVuSans-53"/>
       <use x="127.246094" xlink:href="#DejaVuSans-48"/>
      </g>
     </g>
    </g>
    <g id="ytick_7">
     <g id="line2d_13">
      <g>
       <use style="stroke:#000000;stroke-width:0.8;" x="57.6" xlink:href="#md093279f6e" y="53.568"/>
      </g>
     </g>
     <g id="text_14">
      <!-- 300 -->
      <defs>
       <path d="M 40.578125 39.3125 
Q 47.65625 37.796875 51.625 33 
Q 55.609375 28.21875 55.609375 21.1875 
Q 55.609375 10.40625 48.1875 4.484375 
Q 40.765625 -1.421875 27.09375 -1.421875 
Q 22.515625 -1.421875 17.65625 -0.515625 
Q 12.796875 0.390625 7.625 2.203125 
L 7.625 11.71875 
Q 11.71875 9.328125 16.59375 8.109375 
Q 21.484375 6.890625 26.8125 6.890625 
Q 36.078125 6.890625 40.9375 10.546875 
Q 45.796875 14.203125 45.796875 21.1875 
Q 45.796875 27.640625 41.28125 31.265625 
Q 36.765625 34.90625 28.71875 34.90625 
L 20.21875 34.90625 
L 20.21875 43.015625 
L 29.109375 43.015625 
Q 36.375 43.015625 40.234375 45.921875 
Q 44.09375 48.828125 44.09375 54.296875 
Q 44.09375 59.90625 40.109375 62.90625 
Q 36.140625 65.921875 28.71875 65.921875 
Q 24.65625 65.921875 20.015625 65.03125 
Q 15.375 64.15625 9.8125 62.3125 
L 9.8125 71.09375 
Q 15.4375 72.65625 20.34375 73.4375 
Q 25.25 74.21875 29.59375 74.21875 
Q 40.828125 74.21875 47.359375 69.109375 
Q 53.90625 64.015625 53.90625 55.328125 
Q 53.90625 49.265625 50.4375 45.09375 
Q 46.96875 40.921875 40.578125 39.3125 
z
" id="DejaVuSans-51"/>
      </defs>
      <g transform="translate(31.5125 57.367219)scale(0.1 -0.1)">
       <use xlink:href="#DejaVuSans-51"/>
       <use x="63.623047" xlink:href="#DejaVuSans-48"/>
       <use x="127.246094" xlink:href="#DejaVuSans-48"/>
      </g>
     </g>
    </g>
    <g id="text_15">
     <!-- Índice do motoneurônio -->
     <defs>
      <path d="M 9.8125 72.90625 
L 19.671875 72.90625 
L 19.671875 0 
L 9.8125 0 
z
M 17.484375 92.734375 
L 26.515625 92.734375 
L 15.375 79.84375 
L 7.90625 79.84375 
z
" id="DejaVuSans-205"/>
      <path d="M 54.890625 33.015625 
L 54.890625 0 
L 45.90625 0 
L 45.90625 32.71875 
Q 45.90625 40.484375 42.875 44.328125 
Q 39.84375 48.1875 33.796875 48.1875 
Q 26.515625 48.1875 22.3125 43.546875 
Q 18.109375 38.921875 18.109375 30.90625 
L 18.109375 0 
L 9.078125 0 
L 9.078125 54.6875 
L 18.109375 54.6875 
L 18.109375 46.1875 
Q 21.34375 51.125 25.703125 53.5625 
Q 30.078125 56 35.796875 56 
Q 45.21875 56 50.046875 50.171875 
Q 54.890625 44.34375 54.890625 33.015625 
z
" id="DejaVuSans-110"/>
      <path d="M 45.40625 46.390625 
L 45.40625 75.984375 
L 54.390625 75.984375 
L 54.390625 0 
L 45.40625 0 
L 45.40625 8.203125 
Q 42.578125 3.328125 38.25 0.953125 
Q 33.9375 -1.421875 27.875 -1.421875 
Q 17.96875 -1.421875 11.734375 6.484375 
Q 5.515625 14.40625 5.515625 27.296875 
Q 5.515625 40.1875 11.734375 48.09375 
Q 17.96875 56 27.875 56 
Q 33.9375 56 38.25 53.625 
Q 42.578125 51.265625 45.40625 46.390625 
z
M 14.796875 27.296875 
Q 14.796875 17.390625 18.875 11.75 
Q 22.953125 6.109375 30.078125 6.109375 
Q 37.203125 6.109375 41.296875 11.75 
Q 45.40625 17.390625 45.40625 27.296875 
Q 45.40625 37.203125 41.296875 42.84375 
Q 37.203125 48.484375 30.078125 48.484375 
Q 22.953125 48.484375 18.875 42.84375 
Q 14.796875 37.203125 14.796875 27.296875 
z
" id="DejaVuSans-100"/>
      <path d="M 9.421875 54.6875 
L 18.40625 54.6875 
L 18.40625 0 
L 9.421875 0 
z
M 9.421875 75.984375 
L 18.40625 75.984375 
L 18.40625 64.59375 
L 9.421875 64.59375 
z
" id="DejaVuSans-105"/>
      <path d="M 48.78125 52.59375 
L 48.78125 44.1875 
Q 44.96875 46.296875 41.140625 47.34375 
Q 37.3125 48.390625 33.40625 48.390625 
Q 24.65625 48.390625 19.8125 42.84375 
Q 14.984375 37.3125 14.984375 27.296875 
Q 14.984375 17.28125 19.8125 11.734375 
Q 24.65625 6.203125 33.40625 6.203125 
Q 37.3125 6.203125 41.140625 7.25 
Q 44.96875 8.296875 48.78125 10.40625 
L 48.78125 2.09375 
Q 45.015625 0.34375 40.984375 -0.53125 
Q 36.96875 -1.421875 32.421875 -1.421875 
Q 20.0625 -1.421875 12.78125 6.34375 
Q 5.515625 14.109375 5.515625 27.296875 
Q 5.515625 40.671875 12.859375 48.328125 
Q 20.21875 56 33.015625 56 
Q 37.15625 56 41.109375 55.140625 
Q 45.0625 54.296875 48.78125 52.59375 
z
" id="DejaVuSans-99"/>
      <path d="M 18.3125 70.21875 
L 18.3125 54.6875 
L 36.8125 54.6875 
L 36.8125 47.703125 
L 18.3125 47.703125 
L 18.3125 18.015625 
Q 18.3125 11.328125 20.140625 9.421875 
Q 21.96875 7.515625 27.59375 7.515625 
L 36.8125 7.515625 
L 36.8125 0 
L 27.59375 0 
Q 17.1875 0 13.234375 3.875 
Q 9.28125 7.765625 9.28125 18.015625 
L 9.28125 47.703125 
L 2.6875 47.703125 
L 2.6875 54.6875 
L 9.28125 54.6875 
L 9.28125 70.21875 
z
" id="DejaVuSans-116"/>
      <path d="M 8.5 21.578125 
L 8.5 54.6875 
L 17.484375 54.6875 
L 17.484375 21.921875 
Q 17.484375 14.15625 20.5 10.265625 
Q 23.53125 6.390625 29.59375 6.390625 
Q 36.859375 6.390625 41.078125 11.03125 
Q 45.3125 15.671875 45.3125 23.6875 
L 45.3125 54.6875 
L 54.296875 54.6875 
L 54.296875 0 
L 45.3125 0 
L 45.3125 8.40625 
Q 42.046875 3.421875 37.71875 1 
Q 33.40625 -1.421875 27.6875 -1.421875 
Q 18.265625 -1.421875 13.375 4.4375 
Q 8.5 10.296875 8.5 21.578125 
z
M 31.109375 56 
z
" id="DejaVuSans-117"/>
      <path d="M 41.109375 46.296875 
Q 39.59375 47.171875 37.8125 47.578125 
Q 36.03125 48 33.890625 48 
Q 26.265625 48 22.1875 43.046875 
Q 18.109375 38.09375 18.109375 28.8125 
L 18.109375 0 
L 9.078125 0 
L 9.078125 54.6875 
L 18.109375 54.6875 
L 18.109375 46.1875 
Q 20.953125 51.171875 25.484375 53.578125 
Q 30.03125 56 36.53125 56 
Q 37.453125 56 38.578125 55.875 
Q 39.703125 55.765625 41.0625 55.515625 
z
" id="DejaVuSans-114"/>
      <path d="M 30.609375 48.390625 
Q 23.390625 48.390625 19.1875 42.75 
Q 14.984375 37.109375 14.984375 27.296875 
Q 14.984375 17.484375 19.15625 11.84375 
Q 23.34375 6.203125 30.609375 6.203125 
Q 37.796875 6.203125 41.984375 11.859375 
Q 46.1875 17.53125 46.1875 27.296875 
Q 46.1875 37.015625 41.984375 42.703125 
Q 37.796875 48.390625 30.609375 48.390625 
z
M 30.609375 56 
Q 42.328125 56 49.015625 48.375 
Q 55.71875 40.765625 55.71875 27.296875 
Q 55.71875 13.875 49.015625 6.21875 
Q 42.328125 -1.421875 30.609375 -1.421875 
Q 18.84375 -1.421875 12.171875 6.21875 
Q 5.515625 13.875 5.515625 27.296875 
Q 5.515625 40.765625 12.171875 48.375 
Q 18.84375 56 30.609375 56 
z
M 27 79.984375 
L 34.234375 79.984375 
L 46.1875 61.625 
L 39.40625 61.625 
L 30.609375 73.578125 
L 21.828125 61.625 
L 15.046875 61.625 
z
" id="DejaVuSans-244"/>
     </defs>
     <g transform="translate(25.432812 234.066281)rotate(-90)scale(0.1 -0.1)">
      <use xlink:href="#DejaVuSans-205"/>
      <use x="29.492188" xlink:href="#DejaVuSans-110"/>
      <use x="92.871094" xlink:href="#DejaVuSans-100"/>
      <use x="156.347656" xlink:href="#DejaVuSans-105"/>
      <use x="184.130859" xlink:href="#DejaVuSans-99"/>
      <use x="239.111328" xlink:href="#DejaVuSans-101"/>
      <use x="300.634766" xlink:href="#DejaVuSans-32"/>
      <use x="332.421875" xlink:href="#DejaVuSans-100"/>
      <use x="395.898438" xlink:href="#DejaVuSans-111"/>
      <use x="457.080078" xlink:href="#DejaVuSans-32"/>
      <use x="488.867188" xlink:href="#DejaVuSans-109"/>
      <use x="586.279297" xlink:href="#DejaVuSans-111"/>
      <use x="647.460938" xlink:href="#DejaVuSans-116"/>
      <use x="686.669922" xlink:href="#DejaVuSans-111"/>
      <use x="747.851562" xlink:href="#DejaVuSans-110"/>
      <use x="811.230469" xlink:href="#DejaVuSans-101"/>
      <use x="872.753906" xlink:href="#DejaVuSans-117"/>
      <use x="936.132812" xlink:href="#DejaVuSans-114"/>
      <use x="977.214844" xlink:href="#DejaVuSans-244"/>
      <use x="1038.396484" xlink:href="#DejaVuSans-110"/>
      <use x="1101.775391" xlink:href="#DejaVuSans-105"/>
      <use x="1129.558594" xlink:href="#DejaVuSans-111"/>
     </g>
    </g>
   </g>
   <g id="line2d_14">
    <defs>
     <path d="M 0 1.5 
C 0.397805 1.5 0.77937 1.341951 1.06066 1.06066 
C 1.341951 0.77937 1.5 0.397805 1.5 0 
C 1.5 -0.397805 1.341951 -0.77937 1.06066 -1.06066 
C 0.77937 -1.341951 0.397805 -1.5 0 -1.5 
C -0.397805 -1.5 -0.77937 -1.341951 -1.06066 -1.06066 
C -1.341951 -0.77937 -1.5 -0.397805 -1.5 0 
C -1.5 0.397805 -1.341951 0.77937 -1.06066 1.06066 
C -0.77937 1.341951 -0.397805 1.5 0 1.5 
z
" id="m01131c942e" style="stroke:#000000;"/>
    </defs>
    <g clip-path="url(#p41367183fb)">
     <use style="stroke:#000000;" x="76.635225" xlink:href="#m01131c942e" y="295.488"/>
     <use style="stroke:#000000;" x="73.832727" xlink:href="#m01131c942e" y="294.678903"/>
     <use style="stroke:#000000;" x="79.298468" xlink:href="#m01131c942e" y="293.869806"/>
     <use style="stroke:#000000;" x="75.973766" xlink:href="#m01131c942e" y="293.060709"/>
     <use style="stroke:#000000;" x="75.381934" xlink:href="#m01131c942e" y="292.251612"/>
     <use style="stroke:#000000;" x="75.643036" xlink:href="#m01131c942e" y="291.442515"/>
     <use style="stroke:#000000;" x="78.306279" xlink:href="#m01131c942e" y="290.633418"/>
     <use style="stroke:#000000;" x="75.242679" xlink:href="#m01131c942e" y="289.824321"/>
     <use style="stroke:#000000;" x="76.147834" xlink:href="#m01131c942e" y="289.015224"/>
     <use style="stroke:#000000;" x="77.435938" xlink:href="#m01131c942e" y="288.206127"/>
     <use style="stroke:#000000;" x="75.242679" xlink:href="#m01131c942e" y="287.39703"/>
     <use style="stroke:#000000;" x="79.576977" xlink:href="#m01131c942e" y="286.587933"/>
     <use style="stroke:#000000;" x="79.246247" xlink:href="#m01131c942e" y="285.778836"/>
     <use style="stroke:#000000;" x="77.018175" xlink:href="#m01131c942e" y="284.969739"/>
     <use style="stroke:#000000;" x="79.803266" xlink:href="#m01131c942e" y="284.160642"/>
     <use style="stroke:#000000;" x="82.901679" xlink:href="#m01131c942e" y="283.351545"/>
     <use style="stroke:#000000;" x="78.02777" xlink:href="#m01131c942e" y="282.542448"/>
     <use style="stroke:#000000;" x="83.44129" xlink:href="#m01131c942e" y="281.733351"/>
     <use style="stroke:#000000;" x="82.083559" xlink:href="#m01131c942e" y="280.924254"/>
     <use style="stroke:#000000;" x="77.888516" xlink:href="#m01131c942e" y="280.115157"/>
     <use style="stroke:#000000;" x="79.054772" xlink:href="#m01131c942e" y="279.30606"/>
     <use style="stroke:#000000;" x="78.341093" xlink:href="#m01131c942e" y="278.496963"/>
     <use style="stroke:#000000;" x="79.977334" xlink:href="#m01131c942e" y="277.687866"/>
     <use style="stroke:#000000;" x="79.455129" xlink:href="#m01131c942e" y="276.878769"/>
     <use style="stroke:#000000;" x="79.681418" xlink:href="#m01131c942e" y="276.069672"/>
     <use style="stroke:#000000;" x="79.855486" xlink:href="#m01131c942e" y="275.260575"/>
     <use style="stroke:#000000;" x="84.886056" xlink:href="#m01131c942e" y="274.451478"/>
     <use style="stroke:#000000;" x="81.700609" xlink:href="#m01131c942e" y="273.642381"/>
     <use style="stroke:#000000;" x="84.59014" xlink:href="#m01131c942e" y="272.833284"/>
     <use style="stroke:#000000;" x="84.20719" xlink:href="#m01131c942e" y="272.024187"/>
     <use style="stroke:#000000;" x="83.545731" xlink:href="#m01131c942e" y="271.21509"/>
     <use style="stroke:#000000;" x="86.104533" xlink:href="#m01131c942e" y="270.405993"/>
     <use style="stroke:#000000;" x="86.992281" xlink:href="#m01131c942e" y="269.596896"/>
     <use style="stroke:#000000;" x="82.518729" xlink:href="#m01131c942e" y="268.787799"/>
     <use style="stroke:#000000;" x="84.833836" xlink:href="#m01131c942e" y="267.978702"/>
     <use style="stroke:#000000;" x="84.572733" xlink:href="#m01131c942e" y="267.169605"/>
     <use style="stroke:#000000;" x="83.145374" xlink:href="#m01131c942e" y="266.360508"/>
     <use style="stroke:#000000;" x="84.067936" xlink:href="#m01131c942e" y="265.551411"/>
     <use style="stroke:#000000;" x="85.321227" xlink:href="#m01131c942e" y="264.742314"/>
     <use style="stroke:#000000;" x="85.68677" xlink:href="#m01131c942e" y="263.933217"/>
     <use style="stroke:#000000;" x="85.756397" xlink:href="#m01131c942e" y="263.12412"/>
     <use style="stroke:#000000;" x="89.968847" xlink:href="#m01131c942e" y="262.315023"/>
     <use style="stroke:#000000;" x="89.255167" xlink:href="#m01131c942e" y="261.505926"/>
     <use style="stroke:#000000;" x="87.810401" xlink:href="#m01131c942e" y="260.696829"/>
     <use style="stroke:#000000;" x="89.063692" xlink:href="#m01131c942e" y="259.887732"/>
     <use style="stroke:#000000;" x="84.607547" xlink:href="#m01131c942e" y="259.078635"/>
     <use style="stroke:#000000;" x="88.680742" xlink:href="#m01131c942e" y="258.269538"/>
     <use style="stroke:#000000;" x="88.524081" xlink:href="#m01131c942e" y="257.460441"/>
     <use style="stroke:#000000;" x="92.370987" xlink:href="#m01131c942e" y="256.651344"/>
     <use style="stroke:#000000;" x="88.558895" xlink:href="#m01131c942e" y="255.842247"/>
     <use style="stroke:#000000;" x="90.073288" xlink:href="#m01131c942e" y="255.033151"/>
     <use style="stroke:#000000;" x="98.358933" xlink:href="#m01131c942e" y="254.224054"/>
     <use style="stroke:#000000;" x="91.169917" xlink:href="#m01131c942e" y="253.414957"/>
     <use style="stroke:#000000;" x="89.725151" xlink:href="#m01131c942e" y="252.60586"/>
     <use style="stroke:#000000;" x="89.481456" xlink:href="#m01131c942e" y="251.796763"/>
     <use style="stroke:#000000;" x="91.813969" xlink:href="#m01131c942e" y="250.987666"/>
     <use style="stroke:#000000;" x="92.840972" xlink:href="#m01131c942e" y="250.178569"/>
     <use style="stroke:#000000;" x="91.15251" xlink:href="#m01131c942e" y="249.369472"/>
     <use style="stroke:#000000;" x="94.285737" xlink:href="#m01131c942e" y="248.560375"/>
     <use style="stroke:#000000;" x="94.059449" xlink:href="#m01131c942e" y="247.751278"/>
     <use style="stroke:#000000;" x="96.774912" xlink:href="#m01131c942e" y="246.942181"/>
     <use style="stroke:#000000;" x="92.806158" xlink:href="#m01131c942e" y="246.133084"/>
     <use style="stroke:#000000;" x="97.036014" xlink:href="#m01131c942e" y="245.323987"/>
     <use style="stroke:#000000;" x="98.358933" xlink:href="#m01131c942e" y="244.51489"/>
     <use style="stroke:#000000;" x="99.699257" xlink:href="#m01131c942e" y="243.705793"/>
     <use style="stroke:#000000;" x="100.256276" xlink:href="#m01131c942e" y="242.896696"/>
     <use style="stroke:#000000;" x="90.560678" xlink:href="#m01131c942e" y="242.087599"/>
     <use style="stroke:#000000;" x="91.761749" xlink:href="#m01131c942e" y="241.278502"/>
     <use style="stroke:#000000;" x="94.494619" xlink:href="#m01131c942e" y="240.469405"/>
     <use style="stroke:#000000;" x="96.94898" xlink:href="#m01131c942e" y="239.660308"/>
     <use style="stroke:#000000;" x="97.244896" xlink:href="#m01131c942e" y="238.851211"/>
     <use style="stroke:#000000;" x="106.279034" xlink:href="#m01131c942e" y="238.042114"/>
     <use style="stroke:#000000;" x="96.914167" xlink:href="#m01131c942e" y="237.233017"/>
     <use style="stroke:#000000;" x="101.909923" xlink:href="#m01131c942e" y="236.42392"/>
     <use style="stroke:#000000;" x="97.244896" xlink:href="#m01131c942e" y="235.614823"/>
     <use style="stroke:#000000;" x="99.24668" xlink:href="#m01131c942e" y="234.805726"/>
     <use style="stroke:#000000;" x="107.236409" xlink:href="#m01131c942e" y="233.996629"/>
     <use style="stroke:#000000;" x="101.909923" xlink:href="#m01131c942e" y="233.187532"/>
     <use style="stroke:#000000;" x="108.263411" xlink:href="#m01131c942e" y="232.378435"/>
     <use style="stroke:#000000;" x="106.000525" xlink:href="#m01131c942e" y="231.569338"/>
     <use style="stroke:#000000;" x="108.715989" xlink:href="#m01131c942e" y="230.760241"/>
     <use style="stroke:#000000;" x="106.383475" xlink:href="#m01131c942e" y="229.951144"/>
     <use style="stroke:#000000;" x="108.071936" xlink:href="#m01131c942e" y="229.142047"/>
     <use style="stroke:#000000;" x="108.646361" xlink:href="#m01131c942e" y="228.33295"/>
     <use style="stroke:#000000;" x="110.07372" xlink:href="#m01131c942e" y="227.523853"/>
     <use style="stroke:#000000;" x="107.984902" xlink:href="#m01131c942e" y="226.714756"/>
     <use style="stroke:#000000;" x="111.152943" xlink:href="#m01131c942e" y="225.905659"/>
     <use style="stroke:#000000;" x="117.471618" xlink:href="#m01131c942e" y="225.096562"/>
     <use style="stroke:#000000;" x="120.865947" xlink:href="#m01131c942e" y="224.287465"/>
     <use style="stroke:#000000;" x="117.976415" xlink:href="#m01131c942e" y="223.478368"/>
     <use style="stroke:#000000;" x="108.176377" xlink:href="#m01131c942e" y="222.669271"/>
     <use style="stroke:#000000;" x="107.271223" xlink:href="#m01131c942e" y="221.860174"/>
     <use style="stroke:#000000;" x="117.993822" xlink:href="#m01131c942e" y="221.051077"/>
     <use style="stroke:#000000;" x="109.30782" xlink:href="#m01131c942e" y="220.24198"/>
     <use style="stroke:#000000;" x="115.278359" xlink:href="#m01131c942e" y="219.432883"/>
     <use style="stroke:#000000;" x="121.161863" xlink:href="#m01131c942e" y="218.623786"/>
     <use style="stroke:#000000;" x="121.283711" xlink:href="#m01131c942e" y="217.814689"/>
     <use style="stroke:#000000;" x="113.763966" xlink:href="#m01131c942e" y="217.005592"/>
     <use style="stroke:#000000;" x="119.595249" xlink:href="#m01131c942e" y="216.196495"/>
     <use style="stroke:#000000;" x="118.463806" xlink:href="#m01131c942e" y="215.387398"/>
     <use style="stroke:#000000;" x="111.971064" xlink:href="#m01131c942e" y="214.578301"/>
     <use style="stroke:#000000;" x="122.067017" xlink:href="#m01131c942e" y="213.769204"/>
     <use style="stroke:#000000;" x="129.27344" xlink:href="#m01131c942e" y="212.960107"/>
     <use style="stroke:#000000;" x="119.769318" xlink:href="#m01131c942e" y="212.15101"/>
     <use style="stroke:#000000;" x="123.372529" xlink:href="#m01131c942e" y="211.341913"/>
     <use style="stroke:#000000;" x="140.413803" xlink:href="#m01131c942e" y="210.532816"/>
     <use style="stroke:#000000;" x="122.832917" xlink:href="#m01131c942e" y="209.723719"/>
     <use style="stroke:#000000;" x="126.766858" xlink:href="#m01131c942e" y="208.914622"/>
     <use style="stroke:#000000;" x="126.175026" xlink:href="#m01131c942e" y="208.105525"/>
     <use style="stroke:#000000;" x="128.194217" xlink:href="#m01131c942e" y="207.296428"/>
     <use style="stroke:#000000;" x="121.109642" xlink:href="#m01131c942e" y="206.487331"/>
     <use style="stroke:#000000;" x="148.455752" xlink:href="#m01131c942e" y="205.678234"/>
     <use style="stroke:#000000;" x="132.528514" xlink:href="#m01131c942e" y="204.869137"/>
     <use style="stroke:#000000;" x="132.894058" xlink:href="#m01131c942e" y="204.06004"/>
     <use style="stroke:#000000;" x="137.385016" xlink:href="#m01131c942e" y="203.250943"/>
     <use style="stroke:#000000;" x="127.02796" xlink:href="#m01131c942e" y="202.441846"/>
     <use style="stroke:#000000;" x="139.804564" xlink:href="#m01131c942e" y="201.632749"/>
     <use style="stroke:#000000;" x="129.27344" xlink:href="#m01131c942e" y="200.823652"/>
     <use style="stroke:#000000;" x="139.682716" xlink:href="#m01131c942e" y="200.014555"/>
     <use style="stroke:#000000;" x="146.732477" xlink:href="#m01131c942e" y="199.205458"/>
     <use style="stroke:#000000;" x="151.832675" xlink:href="#m01131c942e" y="198.396361"/>
     <use style="stroke:#000000;" x="143.738505" xlink:href="#m01131c942e" y="197.587264"/>
     <use style="stroke:#000000;" x="140.048259" xlink:href="#m01131c942e" y="196.778167"/>
     <use style="stroke:#000000;" x="143.59925" xlink:href="#m01131c942e" y="195.96907"/>
     <use style="stroke:#000000;" x="142.920384" xlink:href="#m01131c942e" y="195.159973"/>
     <use style="stroke:#000000;" x="152.563761" xlink:href="#m01131c942e" y="194.350876"/>
     <use style="stroke:#000000;" x="159.195758" xlink:href="#m01131c942e" y="193.541779"/>
     <use style="stroke:#000000;" x="146.697664" xlink:href="#m01131c942e" y="192.732682"/>
     <use style="stroke:#000000;" x="146.854325" xlink:href="#m01131c942e" y="191.923585"/>
     <use style="stroke:#000000;" x="153.956306" xlink:href="#m01131c942e" y="191.114488"/>
     <use style="stroke:#000000;" x="156.28882" xlink:href="#m01131c942e" y="190.305391"/>
     <use style="stroke:#000000;" x="164.348176" xlink:href="#m01131c942e" y="189.496294"/>
     <use style="stroke:#000000;" x="156.34104" xlink:href="#m01131c942e" y="188.687197"/>
     <use style="stroke:#000000;" x="169.343933" xlink:href="#m01131c942e" y="187.8781"/>
     <use style="stroke:#000000;" x="166.73291" xlink:href="#m01131c942e" y="187.069003"/>
     <use style="stroke:#000000;" x="152.128591" xlink:href="#m01131c942e" y="186.259906"/>
     <use style="stroke:#000000;" x="158.360231" xlink:href="#m01131c942e" y="185.450809"/>
     <use style="stroke:#000000;" x="168.717287" xlink:href="#m01131c942e" y="184.641712"/>
     <use style="stroke:#000000;" x="169.448374" xlink:href="#m01131c942e" y="183.832615"/>
     <use style="stroke:#000000;" x="169.430967" xlink:href="#m01131c942e" y="183.023518"/>
     <use style="stroke:#000000;" x="171.833107" xlink:href="#m01131c942e" y="182.214421"/>
     <use style="stroke:#000000;" x="168.682474" xlink:href="#m01131c942e" y="181.405324"/>
     <use style="stroke:#000000;" x="172.129023" xlink:href="#m01131c942e" y="180.596227"/>
     <use style="stroke:#000000;" x="173.660823" xlink:href="#m01131c942e" y="179.78713"/>
     <use style="stroke:#000000;" x="169.483187" xlink:href="#m01131c942e" y="178.978033"/>
     <use style="stroke:#000000;" x="193.347933" xlink:href="#m01131c942e" y="178.168936"/>
     <use style="stroke:#000000;" x="180.049125" xlink:href="#m01131c942e" y="177.359839"/>
     <use style="stroke:#000000;" x="192.425372" xlink:href="#m01131c942e" y="176.550742"/>
     <use style="stroke:#000000;" x="169.396153" xlink:href="#m01131c942e" y="175.741645"/>
     <use style="stroke:#000000;" x="188.160702" xlink:href="#m01131c942e" y="174.932548"/>
     <use style="stroke:#000000;" x="183.808998" xlink:href="#m01131c942e" y="174.123452"/>
     <use style="stroke:#000000;" x="175.15781" xlink:href="#m01131c942e" y="173.314355"/>
     <use style="stroke:#000000;" x="173.208246" xlink:href="#m01131c942e" y="172.505258"/>
     <use style="stroke:#000000;" x="207.343014" xlink:href="#m01131c942e" y="171.696161"/>
     <use style="stroke:#000000;" x="200.867678" xlink:href="#m01131c942e" y="170.887064"/>
     <use style="stroke:#000000;" x="200.867678" xlink:href="#m01131c942e" y="170.077967"/>
     <use style="stroke:#000000;" x="190.075452" xlink:href="#m01131c942e" y="169.26887"/>
     <use style="stroke:#000000;" x="192.912763" xlink:href="#m01131c942e" y="168.459773"/>
     <use style="stroke:#000000;" x="217.125646" xlink:href="#m01131c942e" y="167.650676"/>
     <use style="stroke:#000000;" x="188.073668" xlink:href="#m01131c942e" y="166.841579"/>
     <use style="stroke:#000000;" x="188.299956" xlink:href="#m01131c942e" y="166.032482"/>
     <use style="stroke:#000000;" x="187.986634" xlink:href="#m01131c942e" y="165.223385"/>
     <use style="stroke:#000000;" x="191.763913" xlink:href="#m01131c942e" y="164.414288"/>
     <use style="stroke:#000000;" x="209.954037" xlink:href="#m01131c942e" y="163.605191"/>
     <use style="stroke:#000000;" x="184.487863" xlink:href="#m01131c942e" y="162.796094"/>
     <use style="stroke:#000000;" x="214.218707" xlink:href="#m01131c942e" y="161.986997"/>
     <use style="stroke:#000000;" x="189.796943" xlink:href="#m01131c942e" y="161.1779"/>
     <use style="stroke:#000000;" x="205.706774" xlink:href="#m01131c942e" y="160.368803"/>
     <use style="stroke:#000000;" x="184.191948" xlink:href="#m01131c942e" y="159.559706"/>
     <use style="stroke:#000000;" x="242.539598" xlink:href="#m01131c942e" y="158.750609"/>
     <use style="stroke:#000000;" x="193.069424" xlink:href="#m01131c942e" y="157.941512"/>
     <use style="stroke:#000000;" x="214.218707" xlink:href="#m01131c942e" y="157.132415"/>
     <use style="stroke:#000000;" x="210.441428" xlink:href="#m01131c942e" y="156.323318"/>
     <use style="stroke:#000000;" x="210.441428" xlink:href="#m01131c942e" y="155.514221"/>
     <use style="stroke:#000000;" x="180.170973" xlink:href="#m01131c942e" y="154.705124"/>
     <use style="stroke:#000000;" x="198.361097" xlink:href="#m01131c942e" y="153.896027"/>
     <use style="stroke:#000000;" x="179.85765" xlink:href="#m01131c942e" y="153.08693"/>
     <use style="stroke:#000000;" x="224.384288" xlink:href="#m01131c942e" y="152.277833"/>
     <use style="stroke:#000000;" x="206.263792" xlink:href="#m01131c942e" y="151.468736"/>
     <use style="stroke:#000000;" x="224.767238" xlink:href="#m01131c942e" y="150.659639"/>
     <use style="stroke:#000000;" x="210.249953" xlink:href="#m01131c942e" y="149.850542"/>
     <use style="stroke:#000000;" x="208.230762" xlink:href="#m01131c942e" y="149.041445"/>
     <use style="stroke:#000000;" x="203.896465" xlink:href="#m01131c942e" y="148.232348"/>
     <use style="stroke:#000000;" x="215.524218" xlink:href="#m01131c942e" y="147.423251"/>
     <use style="stroke:#000000;" x="201.059153" xlink:href="#m01131c942e" y="146.614154"/>
     <use style="stroke:#000000;" x="203.113158" xlink:href="#m01131c942e" y="145.805057"/>
     <use style="stroke:#000000;" x="223.879491" xlink:href="#m01131c942e" y="144.99596"/>
     <use style="stroke:#000000;" x="216.533814" xlink:href="#m01131c942e" y="144.186863"/>
     <use style="stroke:#000000;" x="232.182542" xlink:href="#m01131c942e" y="143.377766"/>
     <use style="stroke:#000000;" x="216.411966" xlink:href="#m01131c942e" y="142.568669"/>
     <use style="stroke:#000000;" x="230.093724" xlink:href="#m01131c942e" y="141.759572"/>
     <use style="stroke:#000000;" x="210.806971" xlink:href="#m01131c942e" y="140.950475"/>
     <use style="stroke:#000000;" x="232.35661" xlink:href="#m01131c942e" y="140.141378"/>
     <use style="stroke:#000000;" x="232.809188" xlink:href="#m01131c942e" y="139.332281"/>
     <use style="stroke:#000000;" x="222.469538" xlink:href="#m01131c942e" y="138.523184"/>
     <use style="stroke:#000000;" x="201.041747" xlink:href="#m01131c942e" y="137.714087"/>
     <use style="stroke:#000000;" x="220.049991" xlink:href="#m01131c942e" y="136.90499"/>
     <use style="stroke:#000000;" x="218.674852" xlink:href="#m01131c942e" y="136.095893"/>
     <use style="stroke:#000000;" x="232.461051" xlink:href="#m01131c942e" y="135.286796"/>
     <use style="stroke:#000000;" x="216.847136" xlink:href="#m01131c942e" y="134.477699"/>
     <use style="stroke:#000000;" x="232.809188" xlink:href="#m01131c942e" y="133.668602"/>
     <use style="stroke:#000000;" x="232.35661" xlink:href="#m01131c942e" y="132.859505"/>
     <use style="stroke:#000000;" x="240.207085" xlink:href="#m01131c942e" y="132.050408"/>
     <use style="stroke:#000000;" x="224.436509" xlink:href="#m01131c942e" y="131.241311"/>
     <use style="stroke:#000000;" x="224.523543" xlink:href="#m01131c942e" y="130.432214"/>
     <use style="stroke:#000000;" x="216.551221" xlink:href="#m01131c942e" y="129.623117"/>
     <use style="stroke:#000000;" x="243.932144" xlink:href="#m01131c942e" y="128.81402"/>
     <use style="stroke:#000000;" x="235.072074" xlink:href="#m01131c942e" y="128.004923"/>
     <use style="stroke:#000000;" x="254.324014" xlink:href="#m01131c942e" y="127.195826"/>
     <use style="stroke:#000000;" x="239.458592" xlink:href="#m01131c942e" y="126.386729"/>
     <use style="stroke:#000000;" x="280.573494" xlink:href="#m01131c942e" y="125.577632"/>
     <use style="stroke:#000000;" x="250.773023" xlink:href="#m01131c942e" y="124.768535"/>
     <use style="stroke:#000000;" x="261.652284" xlink:href="#m01131c942e" y="123.959438"/>
     <use style="stroke:#000000;" x="253.122943" xlink:href="#m01131c942e" y="123.150341"/>
     <use style="stroke:#000000;" x="232.217356" xlink:href="#m01131c942e" y="122.341244"/>
     <use style="stroke:#000000;" x="252.739993" xlink:href="#m01131c942e" y="121.532147"/>
     <use style="stroke:#000000;" x="253.505893" xlink:href="#m01131c942e" y="120.72305"/>
     <use style="stroke:#000000;" x="253.784402" xlink:href="#m01131c942e" y="119.913953"/>
     <use style="stroke:#000000;" x="235.455024" xlink:href="#m01131c942e" y="119.104856"/>
     <use style="stroke:#000000;" x="282.000853" xlink:href="#m01131c942e" y="118.295759"/>
     <use style="stroke:#000000;" x="254.846218" xlink:href="#m01131c942e" y="117.486662"/>
     <use style="stroke:#000000;" x="258.014259" xlink:href="#m01131c942e" y="116.677565"/>
     <use style="stroke:#000000;" x="261.843759" xlink:href="#m01131c942e" y="115.868468"/>
     <use style="stroke:#000000;" x="261.23452" xlink:href="#m01131c942e" y="115.059371"/>
     <use style="stroke:#000000;" x="244.593603" xlink:href="#m01131c942e" y="114.250274"/>
     <use style="stroke:#000000;" x="261.861165" xlink:href="#m01131c942e" y="113.441177"/>
     <use style="stroke:#000000;" x="253.732182" xlink:href="#m01131c942e" y="112.63208"/>
     <use style="stroke:#000000;" x="282.906007" xlink:href="#m01131c942e" y="111.822983"/>
     <use style="stroke:#000000;" x="276.291417" xlink:href="#m01131c942e" y="111.013886"/>
     <use style="stroke:#000000;" x="228.823027" xlink:href="#m01131c942e" y="110.204789"/>
     <use style="stroke:#000000;" x="255.507677" xlink:href="#m01131c942e" y="109.395692"/>
     <use style="stroke:#000000;" x="262.122268" xlink:href="#m01131c942e" y="108.586595"/>
     <use style="stroke:#000000;" x="300.016908" xlink:href="#m01131c942e" y="107.777498"/>
     <use style="stroke:#000000;" x="259.528652" xlink:href="#m01131c942e" y="106.968401"/>
     <use style="stroke:#000000;" x="262.557438" xlink:href="#m01131c942e" y="106.159304"/>
     <use style="stroke:#000000;" x="240.694476" xlink:href="#m01131c942e" y="105.350207"/>
     <use style="stroke:#000000;" x="258.049072" xlink:href="#m01131c942e" y="104.54111"/>
     <use style="stroke:#000000;" x="258.031666" xlink:href="#m01131c942e" y="103.732013"/>
     <use style="stroke:#000000;" x="273.001528" xlink:href="#m01131c942e" y="102.922916"/>
     <use style="stroke:#000000;" x="271.29566" xlink:href="#m01131c942e" y="102.113819"/>
     <use style="stroke:#000000;" x="269.659419" xlink:href="#m01131c942e" y="101.304722"/>
     <use style="stroke:#000000;" x="310.356558" xlink:href="#m01131c942e" y="100.495625"/>
     <use style="stroke:#000000;" x="288.928766" xlink:href="#m01131c942e" y="99.686528"/>
     <use style="stroke:#000000;" x="244.767671" xlink:href="#m01131c942e" y="98.877431"/>
     <use style="stroke:#000000;" x="313.159055" xlink:href="#m01131c942e" y="98.068334"/>
     <use style="stroke:#000000;" x="325.517896" xlink:href="#m01131c942e" y="97.259237"/>
     <use style="stroke:#000000;" x="293.019368" xlink:href="#m01131c942e" y="96.45014"/>
     <use style="stroke:#000000;" x="314.220871" xlink:href="#m01131c942e" y="95.641043"/>
     <use style="stroke:#000000;" x="290.512786" xlink:href="#m01131c942e" y="94.831946"/>
     <use style="stroke:#000000;" x="324.438673" xlink:href="#m01131c942e" y="94.022849"/>
     <use style="stroke:#000000;" x="304.38602" xlink:href="#m01131c942e" y="93.213753"/>
     <use style="stroke:#000000;" x="313.246089" xlink:href="#m01131c942e" y="92.404656"/>
     <use style="stroke:#000000;" x="310.704694" xlink:href="#m01131c942e" y="91.595559"/>
     <use style="stroke:#000000;" x="312.984987" xlink:href="#m01131c942e" y="90.786462"/>
     <use style="stroke:#000000;" x="291.400534" xlink:href="#m01131c942e" y="89.977365"/>
     <use style="stroke:#000000;" x="326.0401" xlink:href="#m01131c942e" y="89.168268"/>
     <use style="stroke:#000000;" x="313.193869" xlink:href="#m01131c942e" y="88.359171"/>
     <use style="stroke:#000000;" x="313.768294" xlink:href="#m01131c942e" y="87.550074"/>
     <use style="stroke:#000000;" x="342.976933" xlink:href="#m01131c942e" y="86.740977"/>
     <use style="stroke:#000000;" x="337.476379" xlink:href="#m01131c942e" y="85.93188"/>
     <use style="stroke:#000000;" x="289.572818" xlink:href="#m01131c942e" y="85.122783"/>
     <use style="stroke:#000000;" x="289.137648" xlink:href="#m01131c942e" y="84.313686"/>
     <use style="stroke:#000000;" x="320.731021" xlink:href="#m01131c942e" y="83.504589"/>
     <use style="stroke:#000000;" x="320.852869" xlink:href="#m01131c942e" y="82.695492"/>
     <use style="stroke:#000000;" x="314.656042" xlink:href="#m01131c942e" y="81.886395"/>
     <use style="stroke:#000000;" x="328.999259" xlink:href="#m01131c942e" y="81.077298"/>
     <use style="stroke:#000000;" x="307.519247" xlink:href="#m01131c942e" y="80.268201"/>
     <use style="stroke:#000000;" x="342.541763" xlink:href="#m01131c942e" y="79.459104"/>
     <use style="stroke:#000000;" x="374.866222" xlink:href="#m01131c942e" y="78.650007"/>
     <use style="stroke:#000000;" x="278.780592" xlink:href="#m01131c942e" y="77.84091"/>
     <use style="stroke:#000000;" x="313.106835" xlink:href="#m01131c942e" y="77.031813"/>
     <use style="stroke:#000000;" x="320.800648" xlink:href="#m01131c942e" y="76.222716"/>
     <use style="stroke:#000000;" x="370.06194" xlink:href="#m01131c942e" y="75.413619"/>
     <use style="stroke:#000000;" x="348.964878" xlink:href="#m01131c942e" y="74.604522"/>
     <use style="stroke:#000000;" x="329.051479" xlink:href="#m01131c942e" y="73.795425"/>
     <use style="stroke:#000000;" x="377.39021" xlink:href="#m01131c942e" y="72.986328"/>
     <use style="stroke:#000000;" x="375.475461" xlink:href="#m01131c942e" y="72.177231"/>
     <use style="stroke:#000000;" x="351.610714" xlink:href="#m01131c942e" y="71.368134"/>
     <use style="stroke:#000000;" x="382.560035" xlink:href="#m01131c942e" y="69.74994"/>
     <use style="stroke:#000000;" x="332.289147" xlink:href="#m01131c942e" y="68.940843"/>
     <use style="stroke:#000000;" x="392.151191" xlink:href="#m01131c942e" y="68.131746"/>
     <use style="stroke:#000000;" x="350.984069" xlink:href="#m01131c942e" y="67.322649"/>
     <use style="stroke:#000000;" x="338.224872" xlink:href="#m01131c942e" y="66.513552"/>
     <use style="stroke:#000000;" x="371.802622" xlink:href="#m01131c942e" y="65.704455"/>
     <use style="stroke:#000000;" x="385.014396" xlink:href="#m01131c942e" y="64.895358"/>
     <use style="stroke:#000000;" x="313.333124" xlink:href="#m01131c942e" y="64.086261"/>
     <use style="stroke:#000000;" x="374.622527" xlink:href="#m01131c942e" y="63.277164"/>
     <use style="stroke:#000000;" x="389.052778" xlink:href="#m01131c942e" y="62.468067"/>
     <use style="stroke:#000000;" x="354.569873" xlink:href="#m01131c942e" y="61.65897"/>
     <use style="stroke:#000000;" x="398.487273" xlink:href="#m01131c942e" y="60.849873"/>
     <use style="stroke:#000000;" x="375.405833" xlink:href="#m01131c942e" y="60.040776"/>
     <use style="stroke:#000000;" x="313.193869" xlink:href="#m01131c942e" y="59.231679"/>
     <use style="stroke:#000000;" x="328.529275" xlink:href="#m01131c942e" y="58.422582"/>
     <use style="stroke:#000000;" x="388.756862" xlink:href="#m01131c942e" y="56.804388"/>
     <use style="stroke:#000000;" x="361.497786" xlink:href="#m01131c942e" y="55.995291"/>
     <use style="stroke:#000000;" x="382.647069" xlink:href="#m01131c942e" y="55.186194"/>
     <use style="stroke:#000000;" x="374.135136" xlink:href="#m01131c942e" y="54.377097"/>
     <use style="stroke:#000000;" x="378.069076" xlink:href="#m01131c942e" y="53.568"/>
    </g>
   </g>
   <g id="patch_3">
    <path d="M 57.6 307.584 
L 57.6 41.472 
" style="fill:none;stroke:#000000;stroke-linecap:square;stroke-linejoin:miter;stroke-width:0.8;"/>
   </g>
   <g id="patch_4">
    <path d="M 414.72 307.584 
L 414.72 41.472 
" style="fill:none;stroke:#000000;stroke-linecap:square;stroke-linejoin:miter;stroke-width:0.8;"/>
   </g>
   <g id="patch_5">
    <path d="M 57.6 307.584 
L 414.72 307.584 
" style="fill:none;stroke:#000000;stroke-linecap:square;stroke-linejoin:miter;stroke-width:0.8;"/>
   </g>
   <g id="patch_6">
    <path d="M 57.6 41.472 
L 414.72 41.472 
" style="fill:none;stroke:#000000;stroke-linecap:square;stroke-linejoin:miter;stroke-width:0.8;"/>
   </g>
  </g>
 </g>
 <defs>
  <clipPath id="p41367183fb">
   <rect height="266.112" width="357.12" x="57.6" y="41.472"/>
  </clipPath>
 </defs>
</svg>
