<?xml version="1.0" encoding="utf-8" standalone="no"?>
<!DOCTYPE svg PUBLIC "-//W3C//DTD SVG 1.1//EN"
  "http://www.w3.org/Graphics/SVG/1.1/DTD/svg11.dtd">
<!-- Created with matplotlib (https://matplotlib.org/) -->
<svg height="345.6pt" version="1.1" viewBox="0 0 460.8 345.6" width="460.8pt" xmlns="http://www.w3.org/2000/svg" xmlns:xlink="http://www.w3.org/1999/xlink">
 <defs>
  <style type="text/css">
*{stroke-linecap:butt;stroke-linejoin:round;}
  </style>
 </defs>
 <g id="figure_1">
  <g id="patch_1">
   <path d="M 0 345.6 
L 460.8 345.6 
L 460.8 0 
L 0 0 
z
" style="fill:#ffffff;"/>
  </g>
  <g id="axes_1">
   <g id="patch_2">
    <path d="M 57.6 307.584 
L 414.72 307.584 
L 414.72 41.472 
L 57.6 41.472 
z
" style="fill:#ffffff;"/>
   </g>
   <g id="matplotlib.axis_1">
    <g id="xtick_1">
     <g id="line2d_1">
      <defs>
       <path d="M 0 0 
L 0 3.5 
" id="m541d7b3c68" style="stroke:#000000;stroke-width:0.8;"/>
      </defs>
      <g>
       <use style="stroke:#000000;stroke-width:0.8;" x="124.845455" xlink:href="#m541d7b3c68" y="307.584"/>
      </g>
     </g>
     <g id="text_1">
      <!-- 200 -->
      <defs>
       <path d="M 19.1875 8.296875 
L 53.609375 8.296875 
L 53.609375 0 
L 7.328125 0 
L 7.328125 8.296875 
Q 12.9375 14.109375 22.625 23.890625 
Q 32.328125 33.6875 34.8125 36.53125 
Q 39.546875 41.84375 41.421875 45.53125 
Q 43.3125 49.21875 43.3125 52.78125 
Q 43.3125 58.59375 39.234375 62.25 
Q 35.15625 65.921875 28.609375 65.921875 
Q 23.96875 65.921875 18.8125 64.3125 
Q 13.671875 62.703125 7.8125 59.421875 
L 7.8125 69.390625 
Q 13.765625 71.78125 18.9375 73 
Q 24.125 74.21875 28.421875 74.21875 
Q 39.75 74.21875 46.484375 68.546875 
Q 53.21875 62.890625 53.21875 53.421875 
Q 53.21875 48.921875 51.53125 44.890625 
Q 49.859375 40.875 45.40625 35.40625 
Q 44.1875 33.984375 37.640625 27.21875 
Q 31.109375 20.453125 19.1875 8.296875 
z
" id="DejaVuSans-50"/>
       <path d="M 31.78125 66.40625 
Q 24.171875 66.40625 20.328125 58.90625 
Q 16.5 51.421875 16.5 36.375 
Q 16.5 21.390625 20.328125 13.890625 
Q 24.171875 6.390625 31.78125 6.390625 
Q 39.453125 6.390625 43.28125 13.890625 
Q 47.125 21.390625 47.125 36.375 
Q 47.125 51.421875 43.28125 58.90625 
Q 39.453125 66.40625 31.78125 66.40625 
z
M 31.78125 74.21875 
Q 44.046875 74.21875 50.515625 64.515625 
Q 56.984375 54.828125 56.984375 36.375 
Q 56.984375 17.96875 50.515625 8.265625 
Q 44.046875 -1.421875 31.78125 -1.421875 
Q 19.53125 -1.421875 13.0625 8.265625 
Q 6.59375 17.96875 6.59375 36.375 
Q 6.59375 54.828125 13.0625 64.515625 
Q 19.53125 74.21875 31.78125 74.21875 
z
" id="DejaVuSans-48"/>
      </defs>
      <g transform="translate(115.301705 322.182437)scale(0.1 -0.1)">
       <use xlink:href="#DejaVuSans-50"/>
       <use x="63.623047" xlink:href="#DejaVuSans-48"/>
       <use x="127.246094" xlink:href="#DejaVuSans-48"/>
      </g>
     </g>
    </g>
    <g id="xtick_2">
     <g id="line2d_2">
      <g>
       <use style="stroke:#000000;stroke-width:0.8;" x="193.52634" xlink:href="#m541d7b3c68" y="307.584"/>
      </g>
     </g>
     <g id="text_2">
      <!-- 400 -->
      <defs>
       <path d="M 37.796875 64.3125 
L 12.890625 25.390625 
L 37.796875 25.390625 
z
M 35.203125 72.90625 
L 47.609375 72.90625 
L 47.609375 25.390625 
L 58.015625 25.390625 
L 58.015625 17.1875 
L 47.609375 17.1875 
L 47.609375 0 
L 37.796875 0 
L 37.796875 17.1875 
L 4.890625 17.1875 
L 4.890625 26.703125 
z
" id="DejaVuSans-52"/>
      </defs>
      <g transform="translate(183.98259 322.182437)scale(0.1 -0.1)">
       <use xlink:href="#DejaVuSans-52"/>
       <use x="63.623047" xlink:href="#DejaVuSans-48"/>
       <use x="127.246094" xlink:href="#DejaVuSans-48"/>
      </g>
     </g>
    </g>
    <g id="xtick_3">
     <g id="line2d_3">
      <g>
       <use style="stroke:#000000;stroke-width:0.8;" x="262.207226" xlink:href="#m541d7b3c68" y="307.584"/>
      </g>
     </g>
     <g id="text_3">
      <!-- 600 -->
      <defs>
       <path d="M 33.015625 40.375 
Q 26.375 40.375 22.484375 35.828125 
Q 18.609375 31.296875 18.609375 23.390625 
Q 18.609375 15.53125 22.484375 10.953125 
Q 26.375 6.390625 33.015625 6.390625 
Q 39.65625 6.390625 43.53125 10.953125 
Q 47.40625 15.53125 47.40625 23.390625 
Q 47.40625 31.296875 43.53125 35.828125 
Q 39.65625 40.375 33.015625 40.375 
z
M 52.59375 71.296875 
L 52.59375 62.3125 
Q 48.875 64.0625 45.09375 64.984375 
Q 41.3125 65.921875 37.59375 65.921875 
Q 27.828125 65.921875 22.671875 59.328125 
Q 17.53125 52.734375 16.796875 39.40625 
Q 19.671875 43.65625 24.015625 45.921875 
Q 28.375 48.1875 33.59375 48.1875 
Q 44.578125 48.1875 50.953125 41.515625 
Q 57.328125 34.859375 57.328125 23.390625 
Q 57.328125 12.15625 50.6875 5.359375 
Q 44.046875 -1.421875 33.015625 -1.421875 
Q 20.359375 -1.421875 13.671875 8.265625 
Q 6.984375 17.96875 6.984375 36.375 
Q 6.984375 53.65625 15.1875 63.9375 
Q 23.390625 74.21875 37.203125 74.21875 
Q 40.921875 74.21875 44.703125 73.484375 
Q 48.484375 72.75 52.59375 71.296875 
z
" id="DejaVuSans-54"/>
      </defs>
      <g transform="translate(252.663476 322.182437)scale(0.1 -0.1)">
       <use xlink:href="#DejaVuSans-54"/>
       <use x="63.623047" xlink:href="#DejaVuSans-48"/>
       <use x="127.246094" xlink:href="#DejaVuSans-48"/>
      </g>
     </g>
    </g>
    <g id="xtick_4">
     <g id="line2d_4">
      <g>
       <use style="stroke:#000000;stroke-width:0.8;" x="330.888111" xlink:href="#m541d7b3c68" y="307.584"/>
      </g>
     </g>
     <g id="text_4">
      <!-- 800 -->
      <defs>
       <path d="M 31.78125 34.625 
Q 24.75 34.625 20.71875 30.859375 
Q 16.703125 27.09375 16.703125 20.515625 
Q 16.703125 13.921875 20.71875 10.15625 
Q 24.75 6.390625 31.78125 6.390625 
Q 38.8125 6.390625 42.859375 10.171875 
Q 46.921875 13.96875 46.921875 20.515625 
Q 46.921875 27.09375 42.890625 30.859375 
Q 38.875 34.625 31.78125 34.625 
z
M 21.921875 38.8125 
Q 15.578125 40.375 12.03125 44.71875 
Q 8.5 49.078125 8.5 55.328125 
Q 8.5 64.0625 14.71875 69.140625 
Q 20.953125 74.21875 31.78125 74.21875 
Q 42.671875 74.21875 48.875 69.140625 
Q 55.078125 64.0625 55.078125 55.328125 
Q 55.078125 49.078125 51.53125 44.71875 
Q 48 40.375 41.703125 38.8125 
Q 48.828125 37.15625 52.796875 32.3125 
Q 56.78125 27.484375 56.78125 20.515625 
Q 56.78125 9.90625 50.3125 4.234375 
Q 43.84375 -1.421875 31.78125 -1.421875 
Q 19.734375 -1.421875 13.25 4.234375 
Q 6.78125 9.90625 6.78125 20.515625 
Q 6.78125 27.484375 10.78125 32.3125 
Q 14.796875 37.15625 21.921875 38.8125 
z
M 18.3125 54.390625 
Q 18.3125 48.734375 21.84375 45.5625 
Q 25.390625 42.390625 31.78125 42.390625 
Q 38.140625 42.390625 41.71875 45.5625 
Q 45.3125 48.734375 45.3125 54.390625 
Q 45.3125 60.0625 41.71875 63.234375 
Q 38.140625 66.40625 31.78125 66.40625 
Q 25.390625 66.40625 21.84375 63.234375 
Q 18.3125 60.0625 18.3125 54.390625 
z
" id="DejaVuSans-56"/>
      </defs>
      <g transform="translate(321.344361 322.182437)scale(0.1 -0.1)">
       <use xlink:href="#DejaVuSans-56"/>
       <use x="63.623047" xlink:href="#DejaVuSans-48"/>
       <use x="127.246094" xlink:href="#DejaVuSans-48"/>
      </g>
     </g>
    </g>
    <g id="xtick_5">
     <g id="line2d_5">
      <g>
       <use style="stroke:#000000;stroke-width:0.8;" x="399.568997" xlink:href="#m541d7b3c68" y="307.584"/>
      </g>
     </g>
     <g id="text_5">
      <!-- 1000 -->
      <defs>
       <path d="M 12.40625 8.296875 
L 28.515625 8.296875 
L 28.515625 63.921875 
L 10.984375 60.40625 
L 10.984375 69.390625 
L 28.421875 72.90625 
L 38.28125 72.90625 
L 38.28125 8.296875 
L 54.390625 8.296875 
L 54.390625 0 
L 12.40625 0 
z
" id="DejaVuSans-49"/>
      </defs>
      <g transform="translate(386.843997 322.182437)scale(0.1 -0.1)">
       <use xlink:href="#DejaVuSans-49"/>
       <use x="63.623047" xlink:href="#DejaVuSans-48"/>
       <use x="127.246094" xlink:href="#DejaVuSans-48"/>
       <use x="190.869141" xlink:href="#DejaVuSans-48"/>
      </g>
     </g>
    </g>
    <g id="text_6">
     <!-- Tempo (ms) -->
     <defs>
      <path d="M -0.296875 72.90625 
L 61.375 72.90625 
L 61.375 64.59375 
L 35.5 64.59375 
L 35.5 0 
L 25.59375 0 
L 25.59375 64.59375 
L -0.296875 64.59375 
z
" id="DejaVuSans-84"/>
      <path d="M 56.203125 29.59375 
L 56.203125 25.203125 
L 14.890625 25.203125 
Q 15.484375 15.921875 20.484375 11.0625 
Q 25.484375 6.203125 34.421875 6.203125 
Q 39.59375 6.203125 44.453125 7.46875 
Q 49.3125 8.734375 54.109375 11.28125 
L 54.109375 2.78125 
Q 49.265625 0.734375 44.1875 -0.34375 
Q 39.109375 -1.421875 33.890625 -1.421875 
Q 20.796875 -1.421875 13.15625 6.1875 
Q 5.515625 13.8125 5.515625 26.8125 
Q 5.515625 40.234375 12.765625 48.109375 
Q 20.015625 56 32.328125 56 
Q 43.359375 56 49.78125 48.890625 
Q 56.203125 41.796875 56.203125 29.59375 
z
M 47.21875 32.234375 
Q 47.125 39.59375 43.09375 43.984375 
Q 39.0625 48.390625 32.421875 48.390625 
Q 24.90625 48.390625 20.390625 44.140625 
Q 15.875 39.890625 15.1875 32.171875 
z
" id="DejaVuSans-101"/>
      <path d="M 52 44.1875 
Q 55.375 50.25 60.0625 53.125 
Q 64.75 56 71.09375 56 
Q 79.640625 56 84.28125 50.015625 
Q 88.921875 44.046875 88.921875 33.015625 
L 88.921875 0 
L 79.890625 0 
L 79.890625 32.71875 
Q 79.890625 40.578125 77.09375 44.375 
Q 74.3125 48.1875 68.609375 48.1875 
Q 61.625 48.1875 57.5625 43.546875 
Q 53.515625 38.921875 53.515625 30.90625 
L 53.515625 0 
L 44.484375 0 
L 44.484375 32.71875 
Q 44.484375 40.625 41.703125 44.40625 
Q 38.921875 48.1875 33.109375 48.1875 
Q 26.21875 48.1875 22.15625 43.53125 
Q 18.109375 38.875 18.109375 30.90625 
L 18.109375 0 
L 9.078125 0 
L 9.078125 54.6875 
L 18.109375 54.6875 
L 18.109375 46.1875 
Q 21.1875 51.21875 25.484375 53.609375 
Q 29.78125 56 35.6875 56 
Q 41.65625 56 45.828125 52.96875 
Q 50 49.953125 52 44.1875 
z
" id="DejaVuSans-109"/>
      <path d="M 18.109375 8.203125 
L 18.109375 -20.796875 
L 9.078125 -20.796875 
L 9.078125 54.6875 
L 18.109375 54.6875 
L 18.109375 46.390625 
Q 20.953125 51.265625 25.265625 53.625 
Q 29.59375 56 35.59375 56 
Q 45.5625 56 51.78125 48.09375 
Q 58.015625 40.1875 58.015625 27.296875 
Q 58.015625 14.40625 51.78125 6.484375 
Q 45.5625 -1.421875 35.59375 -1.421875 
Q 29.59375 -1.421875 25.265625 0.953125 
Q 20.953125 3.328125 18.109375 8.203125 
z
M 48.6875 27.296875 
Q 48.6875 37.203125 44.609375 42.84375 
Q 40.53125 48.484375 33.40625 48.484375 
Q 26.265625 48.484375 22.1875 42.84375 
Q 18.109375 37.203125 18.109375 27.296875 
Q 18.109375 17.390625 22.1875 11.75 
Q 26.265625 6.109375 33.40625 6.109375 
Q 40.53125 6.109375 44.609375 11.75 
Q 48.6875 17.390625 48.6875 27.296875 
z
" id="DejaVuSans-112"/>
      <path d="M 30.609375 48.390625 
Q 23.390625 48.390625 19.1875 42.75 
Q 14.984375 37.109375 14.984375 27.296875 
Q 14.984375 17.484375 19.15625 11.84375 
Q 23.34375 6.203125 30.609375 6.203125 
Q 37.796875 6.203125 41.984375 11.859375 
Q 46.1875 17.53125 46.1875 27.296875 
Q 46.1875 37.015625 41.984375 42.703125 
Q 37.796875 48.390625 30.609375 48.390625 
z
M 30.609375 56 
Q 42.328125 56 49.015625 48.375 
Q 55.71875 40.765625 55.71875 27.296875 
Q 55.71875 13.875 49.015625 6.21875 
Q 42.328125 -1.421875 30.609375 -1.421875 
Q 18.84375 -1.421875 12.171875 6.21875 
Q 5.515625 13.875 5.515625 27.296875 
Q 5.515625 40.765625 12.171875 48.375 
Q 18.84375 56 30.609375 56 
z
" id="DejaVuSans-111"/>
      <path id="DejaVuSans-32"/>
      <path d="M 31 75.875 
Q 24.46875 64.65625 21.28125 53.65625 
Q 18.109375 42.671875 18.109375 31.390625 
Q 18.109375 20.125 21.3125 9.0625 
Q 24.515625 -2 31 -13.1875 
L 23.1875 -13.1875 
Q 15.875 -1.703125 12.234375 9.375 
Q 8.59375 20.453125 8.59375 31.390625 
Q 8.59375 42.28125 12.203125 53.3125 
Q 15.828125 64.359375 23.1875 75.875 
z
" id="DejaVuSans-40"/>
      <path d="M 44.28125 53.078125 
L 44.28125 44.578125 
Q 40.484375 46.53125 36.375 47.5 
Q 32.28125 48.484375 27.875 48.484375 
Q 21.1875 48.484375 17.84375 46.4375 
Q 14.5 44.390625 14.5 40.28125 
Q 14.5 37.15625 16.890625 35.375 
Q 19.28125 33.59375 26.515625 31.984375 
L 29.59375 31.296875 
Q 39.15625 29.25 43.1875 25.515625 
Q 47.21875 21.78125 47.21875 15.09375 
Q 47.21875 7.46875 41.1875 3.015625 
Q 35.15625 -1.421875 24.609375 -1.421875 
Q 20.21875 -1.421875 15.453125 -0.5625 
Q 10.6875 0.296875 5.421875 2 
L 5.421875 11.28125 
Q 10.40625 8.6875 15.234375 7.390625 
Q 20.0625 6.109375 24.8125 6.109375 
Q 31.15625 6.109375 34.5625 8.28125 
Q 37.984375 10.453125 37.984375 14.40625 
Q 37.984375 18.0625 35.515625 20.015625 
Q 33.0625 21.96875 24.703125 23.78125 
L 21.578125 24.515625 
Q 13.234375 26.265625 9.515625 29.90625 
Q 5.8125 33.546875 5.8125 39.890625 
Q 5.8125 47.609375 11.28125 51.796875 
Q 16.75 56 26.8125 56 
Q 31.78125 56 36.171875 55.265625 
Q 40.578125 54.546875 44.28125 53.078125 
z
" id="DejaVuSans-115"/>
      <path d="M 8.015625 75.875 
L 15.828125 75.875 
Q 23.140625 64.359375 26.78125 53.3125 
Q 30.421875 42.28125 30.421875 31.390625 
Q 30.421875 20.453125 26.78125 9.375 
Q 23.140625 -1.703125 15.828125 -13.1875 
L 8.015625 -13.1875 
Q 14.5 -2 17.703125 9.0625 
Q 20.90625 20.125 20.90625 31.390625 
Q 20.90625 42.671875 17.703125 53.65625 
Q 14.5 64.65625 8.015625 75.875 
z
" id="DejaVuSans-41"/>
     </defs>
     <g transform="translate(205.973281 335.860562)scale(0.1 -0.1)">
      <use xlink:href="#DejaVuSans-84"/>
      <use x="60.818359" xlink:href="#DejaVuSans-101"/>
      <use x="122.341797" xlink:href="#DejaVuSans-109"/>
      <use x="219.753906" xlink:href="#DejaVuSans-112"/>
      <use x="283.230469" xlink:href="#DejaVuSans-111"/>
      <use x="344.412109" xlink:href="#DejaVuSans-32"/>
      <use x="376.199219" xlink:href="#DejaVuSans-40"/>
      <use x="415.212891" xlink:href="#DejaVuSans-109"/>
      <use x="512.625" xlink:href="#DejaVuSans-115"/>
      <use x="564.724609" xlink:href="#DejaVuSans-41"/>
     </g>
    </g>
   </g>
   <g id="matplotlib.axis_2">
    <g id="ytick_1">
     <g id="line2d_6">
      <defs>
       <path d="M 0 0 
L -3.5 0 
" id="mb328b9a972" style="stroke:#000000;stroke-width:0.8;"/>
      </defs>
      <g>
       <use style="stroke:#000000;stroke-width:0.8;" x="57.6" xlink:href="#mb328b9a972" y="296.305297"/>
      </g>
     </g>
     <g id="text_7">
      <!-- 0 -->
      <g transform="translate(44.2375 300.104516)scale(0.1 -0.1)">
       <use xlink:href="#DejaVuSans-48"/>
      </g>
     </g>
    </g>
    <g id="ytick_2">
     <g id="line2d_7">
      <g>
       <use style="stroke:#000000;stroke-width:0.8;" x="57.6" xlink:href="#mb328b9a972" y="255.440432"/>
      </g>
     </g>
     <g id="text_8">
      <!-- 50 -->
      <defs>
       <path d="M 10.796875 72.90625 
L 49.515625 72.90625 
L 49.515625 64.59375 
L 19.828125 64.59375 
L 19.828125 46.734375 
Q 21.96875 47.46875 24.109375 47.828125 
Q 26.265625 48.1875 28.421875 48.1875 
Q 40.625 48.1875 47.75 41.5 
Q 54.890625 34.8125 54.890625 23.390625 
Q 54.890625 11.625 47.5625 5.09375 
Q 40.234375 -1.421875 26.90625 -1.421875 
Q 22.3125 -1.421875 17.546875 -0.640625 
Q 12.796875 0.140625 7.71875 1.703125 
L 7.71875 11.625 
Q 12.109375 9.234375 16.796875 8.0625 
Q 21.484375 6.890625 26.703125 6.890625 
Q 35.15625 6.890625 40.078125 11.328125 
Q 45.015625 15.765625 45.015625 23.390625 
Q 45.015625 31 40.078125 35.4375 
Q 35.15625 39.890625 26.703125 39.890625 
Q 22.75 39.890625 18.8125 39.015625 
Q 14.890625 38.140625 10.796875 36.28125 
z
" id="DejaVuSans-53"/>
      </defs>
      <g transform="translate(37.875 259.239651)scale(0.1 -0.1)">
       <use xlink:href="#DejaVuSans-53"/>
       <use x="63.623047" xlink:href="#DejaVuSans-48"/>
      </g>
     </g>
    </g>
    <g id="ytick_3">
     <g id="line2d_8">
      <g>
       <use style="stroke:#000000;stroke-width:0.8;" x="57.6" xlink:href="#mb328b9a972" y="214.575568"/>
      </g>
     </g>
     <g id="text_9">
      <!-- 100 -->
      <g transform="translate(31.5125 218.374786)scale(0.1 -0.1)">
       <use xlink:href="#DejaVuSans-49"/>
       <use x="63.623047" xlink:href="#DejaVuSans-48"/>
       <use x="127.246094" xlink:href="#DejaVuSans-48"/>
      </g>
     </g>
    </g>
    <g id="ytick_4">
     <g id="line2d_9">
      <g>
       <use style="stroke:#000000;stroke-width:0.8;" x="57.6" xlink:href="#mb328b9a972" y="173.710703"/>
      </g>
     </g>
     <g id="text_10">
      <!-- 150 -->
      <g transform="translate(31.5125 177.509921)scale(0.1 -0.1)">
       <use xlink:href="#DejaVuSans-49"/>
       <use x="63.623047" xlink:href="#DejaVuSans-53"/>
       <use x="127.246094" xlink:href="#DejaVuSans-48"/>
      </g>
     </g>
    </g>
    <g id="ytick_5">
     <g id="line2d_10">
      <g>
       <use style="stroke:#000000;stroke-width:0.8;" x="57.6" xlink:href="#mb328b9a972" y="132.845838"/>
      </g>
     </g>
     <g id="text_11">
      <!-- 200 -->
      <g transform="translate(31.5125 136.645057)scale(0.1 -0.1)">
       <use xlink:href="#DejaVuSans-50"/>
       <use x="63.623047" xlink:href="#DejaVuSans-48"/>
       <use x="127.246094" xlink:href="#DejaVuSans-48"/>
      </g>
     </g>
    </g>
    <g id="ytick_6">
     <g id="line2d_11">
      <g>
       <use style="stroke:#000000;stroke-width:0.8;" x="57.6" xlink:href="#mb328b9a972" y="91.980973"/>
      </g>
     </g>
     <g id="text_12">
      <!-- 250 -->
      <g transform="translate(31.5125 95.780192)scale(0.1 -0.1)">
       <use xlink:href="#DejaVuSans-50"/>
       <use x="63.623047" xlink:href="#DejaVuSans-53"/>
       <use x="127.246094" xlink:href="#DejaVuSans-48"/>
      </g>
     </g>
    </g>
    <g id="ytick_7">
     <g id="line2d_12">
      <g>
       <use style="stroke:#000000;stroke-width:0.8;" x="57.6" xlink:href="#mb328b9a972" y="51.116108"/>
      </g>
     </g>
     <g id="text_13">
      <!-- 300 -->
      <defs>
       <path d="M 40.578125 39.3125 
Q 47.65625 37.796875 51.625 33 
Q 55.609375 28.21875 55.609375 21.1875 
Q 55.609375 10.40625 48.1875 4.484375 
Q 40.765625 -1.421875 27.09375 -1.421875 
Q 22.515625 -1.421875 17.65625 -0.515625 
Q 12.796875 0.390625 7.625 2.203125 
L 7.625 11.71875 
Q 11.71875 9.328125 16.59375 8.109375 
Q 21.484375 6.890625 26.8125 6.890625 
Q 36.078125 6.890625 40.9375 10.546875 
Q 45.796875 14.203125 45.796875 21.1875 
Q 45.796875 27.640625 41.28125 31.265625 
Q 36.765625 34.90625 28.71875 34.90625 
L 20.21875 34.90625 
L 20.21875 43.015625 
L 29.109375 43.015625 
Q 36.375 43.015625 40.234375 45.921875 
Q 44.09375 48.828125 44.09375 54.296875 
Q 44.09375 59.90625 40.109375 62.90625 
Q 36.140625 65.921875 28.71875 65.921875 
Q 24.65625 65.921875 20.015625 65.03125 
Q 15.375 64.15625 9.8125 62.3125 
L 9.8125 71.09375 
Q 15.4375 72.65625 20.34375 73.4375 
Q 25.25 74.21875 29.59375 74.21875 
Q 40.828125 74.21875 47.359375 69.109375 
Q 53.90625 64.015625 53.90625 55.328125 
Q 53.90625 49.265625 50.4375 45.09375 
Q 46.96875 40.921875 40.578125 39.3125 
z
" id="DejaVuSans-51"/>
      </defs>
      <g transform="translate(31.5125 54.915327)scale(0.1 -0.1)">
       <use xlink:href="#DejaVuSans-51"/>
       <use x="63.623047" xlink:href="#DejaVuSans-48"/>
       <use x="127.246094" xlink:href="#DejaVuSans-48"/>
      </g>
     </g>
    </g>
    <g id="text_14">
     <!-- Índice do motoneurônio -->
     <defs>
      <path d="M 9.8125 72.90625 
L 19.671875 72.90625 
L 19.671875 0 
L 9.8125 0 
z
M 17.484375 92.734375 
L 26.515625 92.734375 
L 15.375 79.84375 
L 7.90625 79.84375 
z
" id="DejaVuSans-205"/>
      <path d="M 54.890625 33.015625 
L 54.890625 0 
L 45.90625 0 
L 45.90625 32.71875 
Q 45.90625 40.484375 42.875 44.328125 
Q 39.84375 48.1875 33.796875 48.1875 
Q 26.515625 48.1875 22.3125 43.546875 
Q 18.109375 38.921875 18.109375 30.90625 
L 18.109375 0 
L 9.078125 0 
L 9.078125 54.6875 
L 18.109375 54.6875 
L 18.109375 46.1875 
Q 21.34375 51.125 25.703125 53.5625 
Q 30.078125 56 35.796875 56 
Q 45.21875 56 50.046875 50.171875 
Q 54.890625 44.34375 54.890625 33.015625 
z
" id="DejaVuSans-110"/>
      <path d="M 45.40625 46.390625 
L 45.40625 75.984375 
L 54.390625 75.984375 
L 54.390625 0 
L 45.40625 0 
L 45.40625 8.203125 
Q 42.578125 3.328125 38.25 0.953125 
Q 33.9375 -1.421875 27.875 -1.421875 
Q 17.96875 -1.421875 11.734375 6.484375 
Q 5.515625 14.40625 5.515625 27.296875 
Q 5.515625 40.1875 11.734375 48.09375 
Q 17.96875 56 27.875 56 
Q 33.9375 56 38.25 53.625 
Q 42.578125 51.265625 45.40625 46.390625 
z
M 14.796875 27.296875 
Q 14.796875 17.390625 18.875 11.75 
Q 22.953125 6.109375 30.078125 6.109375 
Q 37.203125 6.109375 41.296875 11.75 
Q 45.40625 17.390625 45.40625 27.296875 
Q 45.40625 37.203125 41.296875 42.84375 
Q 37.203125 48.484375 30.078125 48.484375 
Q 22.953125 48.484375 18.875 42.84375 
Q 14.796875 37.203125 14.796875 27.296875 
z
" id="DejaVuSans-100"/>
      <path d="M 9.421875 54.6875 
L 18.40625 54.6875 
L 18.40625 0 
L 9.421875 0 
z
M 9.421875 75.984375 
L 18.40625 75.984375 
L 18.40625 64.59375 
L 9.421875 64.59375 
z
" id="DejaVuSans-105"/>
      <path d="M 48.78125 52.59375 
L 48.78125 44.1875 
Q 44.96875 46.296875 41.140625 47.34375 
Q 37.3125 48.390625 33.40625 48.390625 
Q 24.65625 48.390625 19.8125 42.84375 
Q 14.984375 37.3125 14.984375 27.296875 
Q 14.984375 17.28125 19.8125 11.734375 
Q 24.65625 6.203125 33.40625 6.203125 
Q 37.3125 6.203125 41.140625 7.25 
Q 44.96875 8.296875 48.78125 10.40625 
L 48.78125 2.09375 
Q 45.015625 0.34375 40.984375 -0.53125 
Q 36.96875 -1.421875 32.421875 -1.421875 
Q 20.0625 -1.421875 12.78125 6.34375 
Q 5.515625 14.109375 5.515625 27.296875 
Q 5.515625 40.671875 12.859375 48.328125 
Q 20.21875 56 33.015625 56 
Q 37.15625 56 41.109375 55.140625 
Q 45.0625 54.296875 48.78125 52.59375 
z
" id="DejaVuSans-99"/>
      <path d="M 18.3125 70.21875 
L 18.3125 54.6875 
L 36.8125 54.6875 
L 36.8125 47.703125 
L 18.3125 47.703125 
L 18.3125 18.015625 
Q 18.3125 11.328125 20.140625 9.421875 
Q 21.96875 7.515625 27.59375 7.515625 
L 36.8125 7.515625 
L 36.8125 0 
L 27.59375 0 
Q 17.1875 0 13.234375 3.875 
Q 9.28125 7.765625 9.28125 18.015625 
L 9.28125 47.703125 
L 2.6875 47.703125 
L 2.6875 54.6875 
L 9.28125 54.6875 
L 9.28125 70.21875 
z
" id="DejaVuSans-116"/>
      <path d="M 8.5 21.578125 
L 8.5 54.6875 
L 17.484375 54.6875 
L 17.484375 21.921875 
Q 17.484375 14.15625 20.5 10.265625 
Q 23.53125 6.390625 29.59375 6.390625 
Q 36.859375 6.390625 41.078125 11.03125 
Q 45.3125 15.671875 45.3125 23.6875 
L 45.3125 54.6875 
L 54.296875 54.6875 
L 54.296875 0 
L 45.3125 0 
L 45.3125 8.40625 
Q 42.046875 3.421875 37.71875 1 
Q 33.40625 -1.421875 27.6875 -1.421875 
Q 18.265625 -1.421875 13.375 4.4375 
Q 8.5 10.296875 8.5 21.578125 
z
M 31.109375 56 
z
" id="DejaVuSans-117"/>
      <path d="M 41.109375 46.296875 
Q 39.59375 47.171875 37.8125 47.578125 
Q 36.03125 48 33.890625 48 
Q 26.265625 48 22.1875 43.046875 
Q 18.109375 38.09375 18.109375 28.8125 
L 18.109375 0 
L 9.078125 0 
L 9.078125 54.6875 
L 18.109375 54.6875 
L 18.109375 46.1875 
Q 20.953125 51.171875 25.484375 53.578125 
Q 30.03125 56 36.53125 56 
Q 37.453125 56 38.578125 55.875 
Q 39.703125 55.765625 41.0625 55.515625 
z
" id="DejaVuSans-114"/>
      <path d="M 30.609375 48.390625 
Q 23.390625 48.390625 19.1875 42.75 
Q 14.984375 37.109375 14.984375 27.296875 
Q 14.984375 17.484375 19.15625 11.84375 
Q 23.34375 6.203125 30.609375 6.203125 
Q 37.796875 6.203125 41.984375 11.859375 
Q 46.1875 17.53125 46.1875 27.296875 
Q 46.1875 37.015625 41.984375 42.703125 
Q 37.796875 48.390625 30.609375 48.390625 
z
M 30.609375 56 
Q 42.328125 56 49.015625 48.375 
Q 55.71875 40.765625 55.71875 27.296875 
Q 55.71875 13.875 49.015625 6.21875 
Q 42.328125 -1.421875 30.609375 -1.421875 
Q 18.84375 -1.421875 12.171875 6.21875 
Q 5.515625 13.875 5.515625 27.296875 
Q 5.515625 40.765625 12.171875 48.375 
Q 18.84375 56 30.609375 56 
z
M 27 79.984375 
L 34.234375 79.984375 
L 46.1875 61.625 
L 39.40625 61.625 
L 30.609375 73.578125 
L 21.828125 61.625 
L 15.046875 61.625 
z
" id="DejaVuSans-244"/>
     </defs>
     <g transform="translate(25.432812 234.066281)rotate(-90)scale(0.1 -0.1)">
      <use xlink:href="#DejaVuSans-205"/>
      <use x="29.492188" xlink:href="#DejaVuSans-110"/>
      <use x="92.871094" xlink:href="#DejaVuSans-100"/>
      <use x="156.347656" xlink:href="#DejaVuSans-105"/>
      <use x="184.130859" xlink:href="#DejaVuSans-99"/>
      <use x="239.111328" xlink:href="#DejaVuSans-101"/>
      <use x="300.634766" xlink:href="#DejaVuSans-32"/>
      <use x="332.421875" xlink:href="#DejaVuSans-100"/>
      <use x="395.898438" xlink:href="#DejaVuSans-111"/>
      <use x="457.080078" xlink:href="#DejaVuSans-32"/>
      <use x="488.867188" xlink:href="#DejaVuSans-109"/>
      <use x="586.279297" xlink:href="#DejaVuSans-111"/>
      <use x="647.460938" xlink:href="#DejaVuSans-116"/>
      <use x="686.669922" xlink:href="#DejaVuSans-111"/>
      <use x="747.851562" xlink:href="#DejaVuSans-110"/>
      <use x="811.230469" xlink:href="#DejaVuSans-101"/>
      <use x="872.753906" xlink:href="#DejaVuSans-117"/>
      <use x="936.132812" xlink:href="#DejaVuSans-114"/>
      <use x="977.214844" xlink:href="#DejaVuSans-244"/>
      <use x="1038.396484" xlink:href="#DejaVuSans-110"/>
      <use x="1101.775391" xlink:href="#DejaVuSans-105"/>
      <use x="1129.558594" xlink:href="#DejaVuSans-111"/>
     </g>
    </g>
   </g>
   <g id="line2d_13">
    <defs>
     <path d="M 0 1.5 
C 0.397805 1.5 0.77937 1.341951 1.06066 1.06066 
C 1.341951 0.77937 1.5 0.397805 1.5 0 
C 1.5 -0.397805 1.341951 -0.77937 1.06066 -1.06066 
C 0.77937 -1.341951 0.397805 -1.5 0 -1.5 
C -0.397805 -1.5 -0.77937 -1.341951 -1.06066 -1.06066 
C -1.341951 -0.77937 -1.5 -0.397805 -1.5 0 
C -1.5 0.397805 -1.341951 0.77937 -1.06066 1.06066 
C -0.77937 1.341951 -0.397805 1.5 0 1.5 
z
" id="mf50043ec24" style="stroke:#000000;"/>
    </defs>
    <g clip-path="url(#p36de6b873e)">
     <use style="stroke:#000000;" x="78.657559" xlink:href="#mf50043ec24" y="295.488"/>
     <use style="stroke:#000000;" x="73.901408" xlink:href="#mf50043ec24" y="294.670703"/>
     <use style="stroke:#000000;" x="78.932283" xlink:href="#mf50043ec24" y="293.853405"/>
     <use style="stroke:#000000;" x="73.832727" xlink:href="#mf50043ec24" y="293.036108"/>
     <use style="stroke:#000000;" x="74.399345" xlink:href="#mf50043ec24" y="292.218811"/>
     <use style="stroke:#000000;" x="81.439135" xlink:href="#mf50043ec24" y="291.401514"/>
     <use style="stroke:#000000;" x="82.366327" xlink:href="#mf50043ec24" y="290.584216"/>
     <use style="stroke:#000000;" x="74.107451" xlink:href="#mf50043ec24" y="289.766919"/>
     <use style="stroke:#000000;" x="81.490646" xlink:href="#mf50043ec24" y="288.949622"/>
     <use style="stroke:#000000;" x="79.344368" xlink:href="#mf50043ec24" y="288.132324"/>
     <use style="stroke:#000000;" x="74.519536" xlink:href="#mf50043ec24" y="287.315027"/>
     <use style="stroke:#000000;" x="81.83405" xlink:href="#mf50043ec24" y="286.49773"/>
     <use style="stroke:#000000;" x="84.564116" xlink:href="#mf50043ec24" y="285.680432"/>
     <use style="stroke:#000000;" x="74.983132" xlink:href="#mf50043ec24" y="284.863135"/>
     <use style="stroke:#000000;" x="86.538691" xlink:href="#mf50043ec24" y="284.045838"/>
     <use style="stroke:#000000;" x="91.569566" xlink:href="#mf50043ec24" y="283.228541"/>
     <use style="stroke:#000000;" x="84.066179" xlink:href="#mf50043ec24" y="282.411243"/>
     <use style="stroke:#000000;" x="96.686292" xlink:href="#mf50043ec24" y="281.593946"/>
     <use style="stroke:#000000;" x="91.552396" xlink:href="#mf50043ec24" y="280.776649"/>
     <use style="stroke:#000000;" x="86.057925" xlink:href="#mf50043ec24" y="279.959351"/>
     <use style="stroke:#000000;" x="88.513267" xlink:href="#mf50043ec24" y="279.142054"/>
     <use style="stroke:#000000;" x="78.623219" xlink:href="#mf50043ec24" y="278.324757"/>
     <use style="stroke:#000000;" x="82.228966" xlink:href="#mf50043ec24" y="277.507459"/>
     <use style="stroke:#000000;" x="81.902731" xlink:href="#mf50043ec24" y="276.690162"/>
     <use style="stroke:#000000;" x="88.667799" xlink:href="#mf50043ec24" y="275.872865"/>
     <use style="stroke:#000000;" x="79.172666" xlink:href="#mf50043ec24" y="275.055568"/>
     <use style="stroke:#000000;" x="92.908843" xlink:href="#mf50043ec24" y="274.23827"/>
     <use style="stroke:#000000;" x="86.641712" xlink:href="#mf50043ec24" y="273.420973"/>
     <use style="stroke:#000000;" x="86.43567" xlink:href="#mf50043ec24" y="272.603676"/>
     <use style="stroke:#000000;" x="88.547607" xlink:href="#mf50043ec24" y="271.786378"/>
     <use style="stroke:#000000;" x="91.14031" xlink:href="#mf50043ec24" y="270.969081"/>
     <use style="stroke:#000000;" x="96.497419" xlink:href="#mf50043ec24" y="270.151784"/>
     <use style="stroke:#000000;" x="99.004272" xlink:href="#mf50043ec24" y="269.334486"/>
     <use style="stroke:#000000;" x="94.677376" xlink:href="#mf50043ec24" y="268.517189"/>
     <use style="stroke:#000000;" x="98.12859" xlink:href="#mf50043ec24" y="267.699892"/>
     <use style="stroke:#000000;" x="95.930802" xlink:href="#mf50043ec24" y="266.882595"/>
     <use style="stroke:#000000;" x="92.68563" xlink:href="#mf50043ec24" y="266.065297"/>
     <use style="stroke:#000000;" x="86.641712" xlink:href="#mf50043ec24" y="265.248"/>
     <use style="stroke:#000000;" x="94.042078" xlink:href="#mf50043ec24" y="264.430703"/>
     <use style="stroke:#000000;" x="96.171185" xlink:href="#mf50043ec24" y="263.613405"/>
     <use style="stroke:#000000;" x="96.463079" xlink:href="#mf50043ec24" y="262.796108"/>
     <use style="stroke:#000000;" x="100.721294" xlink:href="#mf50043ec24" y="261.978811"/>
     <use style="stroke:#000000;" x="100.686953" xlink:href="#mf50043ec24" y="261.161514"/>
     <use style="stroke:#000000;" x="100.841485" xlink:href="#mf50043ec24" y="260.344216"/>
     <use style="stroke:#000000;" x="96.54893" xlink:href="#mf50043ec24" y="259.526919"/>
     <use style="stroke:#000000;" x="88.839501" xlink:href="#mf50043ec24" y="258.709622"/>
     <use style="stroke:#000000;" x="95.982313" xlink:href="#mf50043ec24" y="257.892324"/>
     <use style="stroke:#000000;" x="104.447232" xlink:href="#mf50043ec24" y="257.075027"/>
     <use style="stroke:#000000;" x="111.984959" xlink:href="#mf50043ec24" y="256.25773"/>
     <use style="stroke:#000000;" x="103.090784" xlink:href="#mf50043ec24" y="255.440432"/>
     <use style="stroke:#000000;" x="111.384001" xlink:href="#mf50043ec24" y="254.623135"/>
     <use style="stroke:#000000;" x="124.862625" xlink:href="#mf50043ec24" y="253.805838"/>
     <use style="stroke:#000000;" x="106.696531" xlink:href="#mf50043ec24" y="252.988541"/>
     <use style="stroke:#000000;" x="104.361381" xlink:href="#mf50043ec24" y="252.171243"/>
     <use style="stroke:#000000;" x="100.996017" xlink:href="#mf50043ec24" y="251.353946"/>
     <use style="stroke:#000000;" x="108.293362" xlink:href="#mf50043ec24" y="250.536649"/>
     <use style="stroke:#000000;" x="108.602426" xlink:href="#mf50043ec24" y="249.719351"/>
     <use style="stroke:#000000;" x="108.20751" xlink:href="#mf50043ec24" y="248.902054"/>
     <use style="stroke:#000000;" x="108.344872" xlink:href="#mf50043ec24" y="248.084757"/>
     <use style="stroke:#000000;" x="114.526152" xlink:href="#mf50043ec24" y="247.267459"/>
     <use style="stroke:#000000;" x="111.469852" xlink:href="#mf50043ec24" y="246.450162"/>
     <use style="stroke:#000000;" x="124.845455" xlink:href="#mf50043ec24" y="245.632865"/>
     <use style="stroke:#000000;" x="118.28643" xlink:href="#mf50043ec24" y="244.815568"/>
     <use style="stroke:#000000;" x="111.366831" xlink:href="#mf50043ec24" y="243.99827"/>
     <use style="stroke:#000000;" x="116.638089" xlink:href="#mf50043ec24" y="243.180973"/>
     <use style="stroke:#000000;" x="122.424454" xlink:href="#mf50043ec24" y="242.363676"/>
     <use style="stroke:#000000;" x="103.193806" xlink:href="#mf50043ec24" y="241.546378"/>
     <use style="stroke:#000000;" x="107.761085" xlink:href="#mf50043ec24" y="240.729081"/>
     <use style="stroke:#000000;" x="115.728067" xlink:href="#mf50043ec24" y="239.911784"/>
     <use style="stroke:#000000;" x="111.538533" xlink:href="#mf50043ec24" y="239.094486"/>
     <use style="stroke:#000000;" x="118.389452" xlink:href="#mf50043ec24" y="238.277189"/>
     <use style="stroke:#000000;" x="122.544645" xlink:href="#mf50043ec24" y="237.459892"/>
     <use style="stroke:#000000;" x="108.602426" xlink:href="#mf50043ec24" y="236.642595"/>
     <use style="stroke:#000000;" x="120.793283" xlink:href="#mf50043ec24" y="235.825297"/>
     <use style="stroke:#000000;" x="115.350323" xlink:href="#mf50043ec24" y="235.008"/>
     <use style="stroke:#000000;" x="118.25209" xlink:href="#mf50043ec24" y="234.190703"/>
     <use style="stroke:#000000;" x="133.01848" xlink:href="#mf50043ec24" y="233.373405"/>
     <use style="stroke:#000000;" x="128.622904" xlink:href="#mf50043ec24" y="232.556108"/>
     <use style="stroke:#000000;" x="126.974562" xlink:href="#mf50043ec24" y="231.738811"/>
     <use style="stroke:#000000;" x="118.28643" xlink:href="#mf50043ec24" y="230.921514"/>
     <use style="stroke:#000000;" x="128.622904" xlink:href="#mf50043ec24" y="230.104216"/>
     <use style="stroke:#000000;" x="118.080388" xlink:href="#mf50043ec24" y="229.286919"/>
     <use style="stroke:#000000;" x="128.485542" xlink:href="#mf50043ec24" y="228.469622"/>
     <use style="stroke:#000000;" x="139.852228" xlink:href="#mf50043ec24" y="227.652324"/>
     <use style="stroke:#000000;" x="141.51774" xlink:href="#mf50043ec24" y="226.835027"/>
     <use style="stroke:#000000;" x="122.355773" xlink:href="#mf50043ec24" y="226.01773"/>
     <use style="stroke:#000000;" x="137.379717" xlink:href="#mf50043ec24" y="225.200432"/>
     <use style="stroke:#000000;" x="152.678384" xlink:href="#mf50043ec24" y="224.383135"/>
     <use style="stroke:#000000;" x="152.678384" xlink:href="#mf50043ec24" y="223.565838"/>
     <use style="stroke:#000000;" x="159.992898" xlink:href="#mf50043ec24" y="222.748541"/>
     <use style="stroke:#000000;" x="130.889373" xlink:href="#mf50043ec24" y="221.931243"/>
     <use style="stroke:#000000;" x="122.630496" xlink:href="#mf50043ec24" y="221.113946"/>
     <use style="stroke:#000000;" x="149.484723" xlink:href="#mf50043ec24" y="220.296649"/>
     <use style="stroke:#000000;" x="136.84744" xlink:href="#mf50043ec24" y="219.479351"/>
     <use style="stroke:#000000;" x="139.869399" xlink:href="#mf50043ec24" y="218.662054"/>
     <use style="stroke:#000000;" x="149.519063" xlink:href="#mf50043ec24" y="217.844757"/>
     <use style="stroke:#000000;" x="143.81855" xlink:href="#mf50043ec24" y="217.027459"/>
     <use style="stroke:#000000;" x="152.815746" xlink:href="#mf50043ec24" y="216.210162"/>
     <use style="stroke:#000000;" x="132.692246" xlink:href="#mf50043ec24" y="215.392865"/>
     <use style="stroke:#000000;" x="143.166081" xlink:href="#mf50043ec24" y="214.575568"/>
     <use style="stroke:#000000;" x="138.684653" xlink:href="#mf50043ec24" y="213.75827"/>
     <use style="stroke:#000000;" x="162.860325" xlink:href="#mf50043ec24" y="212.940973"/>
     <use style="stroke:#000000;" x="156.541684" xlink:href="#mf50043ec24" y="212.123676"/>
     <use style="stroke:#000000;" x="143.88723" xlink:href="#mf50043ec24" y="211.306378"/>
     <use style="stroke:#000000;" x="157.84662" xlink:href="#mf50043ec24" y="210.489081"/>
     <use style="stroke:#000000;" x="183.619123" xlink:href="#mf50043ec24" y="209.671784"/>
     <use style="stroke:#000000;" x="152.523852" xlink:href="#mf50043ec24" y="208.854486"/>
     <use style="stroke:#000000;" x="162.808814" xlink:href="#mf50043ec24" y="208.037189"/>
     <use style="stroke:#000000;" x="157.743599" xlink:href="#mf50043ec24" y="207.219892"/>
     <use style="stroke:#000000;" x="160.198941" xlink:href="#mf50043ec24" y="206.402595"/>
     <use style="stroke:#000000;" x="144.179124" xlink:href="#mf50043ec24" y="205.585297"/>
     <use style="stroke:#000000;" x="192.805191" xlink:href="#mf50043ec24" y="204.768"/>
     <use style="stroke:#000000;" x="164.886411" xlink:href="#mf50043ec24" y="203.950703"/>
     <use style="stroke:#000000;" x="152.40366" xlink:href="#mf50043ec24" y="203.133405"/>
     <use style="stroke:#000000;" x="164.989432" xlink:href="#mf50043ec24" y="202.316108"/>
     <use style="stroke:#000000;" x="147.527317" xlink:href="#mf50043ec24" y="201.498811"/>
     <use style="stroke:#000000;" x="159.992898" xlink:href="#mf50043ec24" y="200.681514"/>
     <use style="stroke:#000000;" x="152.918767" xlink:href="#mf50043ec24" y="199.864216"/>
     <use style="stroke:#000000;" x="164.80056" xlink:href="#mf50043ec24" y="199.046919"/>
     <use style="stroke:#000000;" x="186.641082" xlink:href="#mf50043ec24" y="198.229622"/>
     <use style="stroke:#000000;" x="193.577851" xlink:href="#mf50043ec24" y="197.412324"/>
     <use style="stroke:#000000;" x="170.037478" xlink:href="#mf50043ec24" y="196.595027"/>
     <use style="stroke:#000000;" x="152.472341" xlink:href="#mf50043ec24" y="195.77773"/>
     <use style="stroke:#000000;" x="179.910355" xlink:href="#mf50043ec24" y="194.960432"/>
     <use style="stroke:#000000;" x="171.977713" xlink:href="#mf50043ec24" y="194.143135"/>
     <use style="stroke:#000000;" x="192.685" xlink:href="#mf50043ec24" y="193.325838"/>
     <use style="stroke:#000000;" x="214.45684" xlink:href="#mf50043ec24" y="192.508541"/>
     <use style="stroke:#000000;" x="169.917286" xlink:href="#mf50043ec24" y="191.691243"/>
     <use style="stroke:#000000;" x="176.562162" xlink:href="#mf50043ec24" y="190.873946"/>
     <use style="stroke:#000000;" x="192.169893" xlink:href="#mf50043ec24" y="190.056649"/>
     <use style="stroke:#000000;" x="176.648013" xlink:href="#mf50043ec24" y="189.239351"/>
     <use style="stroke:#000000;" x="218.32014" xlink:href="#mf50043ec24" y="188.422054"/>
     <use style="stroke:#000000;" x="196.119044" xlink:href="#mf50043ec24" y="187.604757"/>
     <use style="stroke:#000000;" x="214.45684" xlink:href="#mf50043ec24" y="186.787459"/>
     <use style="stroke:#000000;" x="187.242039" xlink:href="#mf50043ec24" y="185.970162"/>
     <use style="stroke:#000000;" x="180.391121" xlink:href="#mf50043ec24" y="185.152865"/>
     <use style="stroke:#000000;" x="199.312705" xlink:href="#mf50043ec24" y="184.335568"/>
     <use style="stroke:#000000;" x="218.577693" xlink:href="#mf50043ec24" y="183.51827"/>
     <use style="stroke:#000000;" x="199.089492" xlink:href="#mf50043ec24" y="182.700973"/>
     <use style="stroke:#000000;" x="225.359931" xlink:href="#mf50043ec24" y="181.883676"/>
     <use style="stroke:#000000;" x="208.000837" xlink:href="#mf50043ec24" y="181.066378"/>
     <use style="stroke:#000000;" x="184.18574" xlink:href="#mf50043ec24" y="180.249081"/>
     <use style="stroke:#000000;" x="230.957423" xlink:href="#mf50043ec24" y="179.431784"/>
     <use style="stroke:#000000;" x="205.734368" xlink:href="#mf50043ec24" y="178.614486"/>
     <use style="stroke:#000000;" x="214.199287" xlink:href="#mf50043ec24" y="177.797189"/>
     <use style="stroke:#000000;" x="286.640451" xlink:href="#mf50043ec24" y="176.979892"/>
     <use style="stroke:#000000;" x="251.252625" xlink:href="#mf50043ec24" y="176.162595"/>
     <use style="stroke:#000000;" x="258.446947" xlink:href="#mf50043ec24" y="175.345297"/>
     <use style="stroke:#000000;" x="188.632827" xlink:href="#mf50043ec24" y="174.528"/>
     <use style="stroke:#000000;" x="252.729264" xlink:href="#mf50043ec24" y="173.710703"/>
     <use style="stroke:#000000;" x="227.557719" xlink:href="#mf50043ec24" y="172.893405"/>
     <use style="stroke:#000000;" x="188.546976" xlink:href="#mf50043ec24" y="172.076108"/>
     <use style="stroke:#000000;" x="202.369004" xlink:href="#mf50043ec24" y="171.258811"/>
     <use style="stroke:#000000;" x="255.631031" xlink:href="#mf50043ec24" y="170.441514"/>
     <use style="stroke:#000000;" x="252.832285" xlink:href="#mf50043ec24" y="169.624216"/>
     <use style="stroke:#000000;" x="236.709447" xlink:href="#mf50043ec24" y="168.806919"/>
     <use style="stroke:#000000;" x="208.876518" xlink:href="#mf50043ec24" y="167.989622"/>
     <use style="stroke:#000000;" x="214.645713" xlink:href="#mf50043ec24" y="167.172324"/>
     <use style="stroke:#000000;" x="305.064098" xlink:href="#mf50043ec24" y="166.355027"/>
     <use style="stroke:#000000;" x="224.072164" xlink:href="#mf50043ec24" y="165.53773"/>
     <use style="stroke:#000000;" x="223.436866" xlink:href="#mf50043ec24" y="164.720432"/>
     <use style="stroke:#000000;" x="222.063248" xlink:href="#mf50043ec24" y="163.903135"/>
     <use style="stroke:#000000;" x="217.083884" xlink:href="#mf50043ec24" y="163.085838"/>
     <use style="stroke:#000000;" x="286.915174" xlink:href="#mf50043ec24" y="162.268541"/>
     <use style="stroke:#000000;" x="205.785878" xlink:href="#mf50043ec24" y="161.451243"/>
     <use style="stroke:#000000;" x="263.30612" xlink:href="#mf50043ec24" y="160.633946"/>
     <use style="stroke:#000000;" x="218.388821" xlink:href="#mf50043ec24" y="159.816649"/>
     <use style="stroke:#000000;" x="260.661906" xlink:href="#mf50043ec24" y="158.999351"/>
     <use style="stroke:#000000;" x="212.379243" xlink:href="#mf50043ec24" y="158.182054"/>
     <use style="stroke:#000000;" x="336.777497" xlink:href="#mf50043ec24" y="157.364757"/>
     <use style="stroke:#000000;" x="217.461629" xlink:href="#mf50043ec24" y="156.547459"/>
     <use style="stroke:#000000;" x="279.016873" xlink:href="#mf50043ec24" y="155.730162"/>
     <use style="stroke:#000000;" x="241.60296" xlink:href="#mf50043ec24" y="154.912865"/>
     <use style="stroke:#000000;" x="243.405833" xlink:href="#mf50043ec24" y="154.095568"/>
     <use style="stroke:#000000;" x="199.312705" xlink:href="#mf50043ec24" y="153.27827"/>
     <use style="stroke:#000000;" x="218.30297" xlink:href="#mf50043ec24" y="152.460973"/>
     <use style="stroke:#000000;" x="185.919932" xlink:href="#mf50043ec24" y="151.643676"/>
     <use style="stroke:#000000;" x="284.854748" xlink:href="#mf50043ec24" y="150.826378"/>
     <use style="stroke:#000000;" x="227.454698" xlink:href="#mf50043ec24" y="150.009081"/>
     <use style="stroke:#000000;" x="287.224238" xlink:href="#mf50043ec24" y="149.191784"/>
     <use style="stroke:#000000;" x="240.143491" xlink:href="#mf50043ec24" y="148.374486"/>
     <use style="stroke:#000000;" x="234.374297" xlink:href="#mf50043ec24" y="147.557189"/>
     <use style="stroke:#000000;" x="214.336649" xlink:href="#mf50043ec24" y="146.739892"/>
     <use style="stroke:#000000;" x="243.594706" xlink:href="#mf50043ec24" y="145.922595"/>
     <use style="stroke:#000000;" x="214.182117" xlink:href="#mf50043ec24" y="145.105297"/>
     <use style="stroke:#000000;" x="214.954777" xlink:href="#mf50043ec24" y="144.288"/>
     <use style="stroke:#000000;" x="284.356811" xlink:href="#mf50043ec24" y="143.470703"/>
     <use style="stroke:#000000;" x="263.477822" xlink:href="#mf50043ec24" y="142.653405"/>
     <use style="stroke:#000000;" x="293.079284" xlink:href="#mf50043ec24" y="141.836108"/>
     <use style="stroke:#000000;" x="246.324771" xlink:href="#mf50043ec24" y="141.018811"/>
     <use style="stroke:#000000;" x="278.707809" xlink:href="#mf50043ec24" y="140.201514"/>
     <use style="stroke:#000000;" x="237.070022" xlink:href="#mf50043ec24" y="139.384216"/>
     <use style="stroke:#000000;" x="316.533806" xlink:href="#mf50043ec24" y="138.566919"/>
     <use style="stroke:#000000;" x="319.023488" xlink:href="#mf50043ec24" y="137.749622"/>
     <use style="stroke:#000000;" x="249.810326" xlink:href="#mf50043ec24" y="136.932324"/>
     <use style="stroke:#000000;" x="209.511816" xlink:href="#mf50043ec24" y="136.115027"/>
     <use style="stroke:#000000;" x="264.301993" xlink:href="#mf50043ec24" y="135.29773"/>
     <use style="stroke:#000000;" x="252.677753" xlink:href="#mf50043ec24" y="134.480432"/>
     <use style="stroke:#000000;" x="302.231012" xlink:href="#mf50043ec24" y="133.663135"/>
     <use style="stroke:#000000;" x="246.23892" xlink:href="#mf50043ec24" y="132.845838"/>
     <use style="stroke:#000000;" x="264.027269" xlink:href="#mf50043ec24" y="132.028541"/>
     <use style="stroke:#000000;" x="284.305301" xlink:href="#mf50043ec24" y="131.211243"/>
     <use style="stroke:#000000;" x="290.967347" xlink:href="#mf50043ec24" y="130.393946"/>
     <use style="stroke:#000000;" x="256.781436" xlink:href="#mf50043ec24" y="129.576649"/>
     <use style="stroke:#000000;" x="271.564996" xlink:href="#mf50043ec24" y="128.759351"/>
     <use style="stroke:#000000;" x="234.322786" xlink:href="#mf50043ec24" y="127.942054"/>
     <use style="stroke:#000000;" x="278.982532" xlink:href="#mf50043ec24" y="127.124757"/>
     <use style="stroke:#000000;" x="296.393137" xlink:href="#mf50043ec24" y="126.307459"/>
     <use style="stroke:#000000;" x="314.456209" xlink:href="#mf50043ec24" y="125.490162"/>
     <use style="stroke:#000000;" x="290.744134" xlink:href="#mf50043ec24" y="124.672865"/>
     <use style="stroke:#000000;" x="391.842397" xlink:href="#mf50043ec24" y="123.855568"/>
     <use style="stroke:#000000;" x="328.690323" xlink:href="#mf50043ec24" y="123.03827"/>
     <use style="stroke:#000000;" x="353.29525" xlink:href="#mf50043ec24" y="122.220973"/>
     <use style="stroke:#000000;" x="311.640293" xlink:href="#mf50043ec24" y="121.403676"/>
     <use style="stroke:#000000;" x="248.883134" xlink:href="#mf50043ec24" y="120.586378"/>
     <use style="stroke:#000000;" x="301.956288" xlink:href="#mf50043ec24" y="119.769081"/>
     <use style="stroke:#000000;" x="299.037351" xlink:href="#mf50043ec24" y="118.951784"/>
     <use style="stroke:#000000;" x="286.898004" xlink:href="#mf50043ec24" y="118.134486"/>
     <use style="stroke:#000000;" x="284.23662" xlink:href="#mf50043ec24" y="117.317189"/>
     <use style="stroke:#000000;" x="351.69842" xlink:href="#mf50043ec24" y="116.499892"/>
     <use style="stroke:#000000;" x="319.607276" xlink:href="#mf50043ec24" y="115.682595"/>
     <use style="stroke:#000000;" x="284.391152" xlink:href="#mf50043ec24" y="114.865297"/>
     <use style="stroke:#000000;" x="314.49055" xlink:href="#mf50043ec24" y="114.048"/>
     <use style="stroke:#000000;" x="284.408322" xlink:href="#mf50043ec24" y="113.230703"/>
     <use style="stroke:#000000;" x="263.907078" xlink:href="#mf50043ec24" y="112.413405"/>
     <use style="stroke:#000000;" x="307.691142" xlink:href="#mf50043ec24" y="111.596108"/>
     <use style="stroke:#000000;" x="302.334033" xlink:href="#mf50043ec24" y="110.778811"/>
     <use style="stroke:#000000;" x="358.463487" xlink:href="#mf50043ec24" y="109.961514"/>
     <use style="stroke:#000000;" x="333.326283" xlink:href="#mf50043ec24" y="109.144216"/>
     <use style="stroke:#000000;" x="246.99441" xlink:href="#mf50043ec24" y="108.326919"/>
     <use style="stroke:#000000;" x="302.299693" xlink:href="#mf50043ec24" y="107.509622"/>
     <use style="stroke:#000000;" x="335.506901" xlink:href="#mf50043ec24" y="106.692324"/>
     <use style="stroke:#000000;" x="383.325967" xlink:href="#mf50043ec24" y="105.875027"/>
     <use style="stroke:#000000;" x="305.321652" xlink:href="#mf50043ec24" y="105.05773"/>
     <use style="stroke:#000000;" x="325.221938" xlink:href="#mf50043ec24" y="104.240432"/>
     <use style="stroke:#000000;" x="269.693442" xlink:href="#mf50043ec24" y="103.423135"/>
     <use style="stroke:#000000;" x="299.123202" xlink:href="#mf50043ec24" y="102.605838"/>
     <use style="stroke:#000000;" x="286.743472" xlink:href="#mf50043ec24" y="101.788541"/>
     <use style="stroke:#000000;" x="324.758342" xlink:href="#mf50043ec24" y="100.971243"/>
     <use style="stroke:#000000;" x="311.314059" xlink:href="#mf50043ec24" y="100.153946"/>
     <use style="stroke:#000000;" x="316.241912" xlink:href="#mf50043ec24" y="99.336649"/>
     <use style="stroke:#000000;" x="381.918009" xlink:href="#mf50043ec24" y="98.519351"/>
     <use style="stroke:#000000;" x="373.710643" xlink:href="#mf50043ec24" y="97.702054"/>
     <use style="stroke:#000000;" x="284.27096" xlink:href="#mf50043ec24" y="96.884757"/>
     <use style="stroke:#000000;" x="371.169451" xlink:href="#mf50043ec24" y="94.432865"/>
     <use style="stroke:#000000;" x="355.561719" xlink:href="#mf50043ec24" y="92.79827"/>
     <use style="stroke:#000000;" x="371.598706" xlink:href="#mf50043ec24" y="91.163676"/>
     <use style="stroke:#000000;" x="394.091696" xlink:href="#mf50043ec24" y="90.346378"/>
     <use style="stroke:#000000;" x="381.729137" xlink:href="#mf50043ec24" y="89.529081"/>
     <use style="stroke:#000000;" x="393.919994" xlink:href="#mf50043ec24" y="88.711784"/>
     <use style="stroke:#000000;" x="328.707493" xlink:href="#mf50043ec24" y="87.894486"/>
     <use style="stroke:#000000;" x="391.636354" xlink:href="#mf50043ec24" y="86.259892"/>
     <use style="stroke:#000000;" x="337.00071" xlink:href="#mf50043ec24" y="82.990703"/>
     <use style="stroke:#000000;" x="328.759004" xlink:href="#mf50043ec24" y="82.173405"/>
     <use style="stroke:#000000;" x="382.828031" xlink:href="#mf50043ec24" y="81.356108"/>
     <use style="stroke:#000000;" x="383.085584" xlink:href="#mf50043ec24" y="80.538811"/>
     <use style="stroke:#000000;" x="379.926263" xlink:href="#mf50043ec24" y="79.721514"/>
     <use style="stroke:#000000;" x="330.973962" xlink:href="#mf50043ec24" y="78.086919"/>
     <use style="stroke:#000000;" x="394.194717" xlink:href="#mf50043ec24" y="77.269622"/>
     <use style="stroke:#000000;" x="291.053198" xlink:href="#mf50043ec24" y="75.635027"/>
     <use style="stroke:#000000;" x="373.710643" xlink:href="#mf50043ec24" y="74.81773"/>
     <use style="stroke:#000000;" x="359.45936" xlink:href="#mf50043ec24" y="74.000432"/>
     <use style="stroke:#000000;" x="380.115136" xlink:href="#mf50043ec24" y="71.548541"/>
     <use style="stroke:#000000;" x="398.487273" xlink:href="#mf50043ec24" y="66.644757"/>
     <use style="stroke:#000000;" x="383.034074" xlink:href="#mf50043ec24" y="64.192865"/>
     <use style="stroke:#000000;" x="340.09135" xlink:href="#mf50043ec24" y="61.740973"/>
     <use style="stroke:#000000;" x="364.370043" xlink:href="#mf50043ec24" y="56.837189"/>
     <use style="stroke:#000000;" x="352.556931" xlink:href="#mf50043ec24" y="56.019892"/>
     <use style="stroke:#000000;" x="394.229058" xlink:href="#mf50043ec24" y="53.568"/>
    </g>
   </g>
   <g id="patch_3">
    <path d="M 57.6 307.584 
L 57.6 41.472 
" style="fill:none;stroke:#000000;stroke-linecap:square;stroke-linejoin:miter;stroke-width:0.8;"/>
   </g>
   <g id="patch_4">
    <path d="M 414.72 307.584 
L 414.72 41.472 
" style="fill:none;stroke:#000000;stroke-linecap:square;stroke-linejoin:miter;stroke-width:0.8;"/>
   </g>
   <g id="patch_5">
    <path d="M 57.6 307.584 
L 414.72 307.584 
" style="fill:none;stroke:#000000;stroke-linecap:square;stroke-linejoin:miter;stroke-width:0.8;"/>
   </g>
   <g id="patch_6">
    <path d="M 57.6 41.472 
L 414.72 41.472 
" style="fill:none;stroke:#000000;stroke-linecap:square;stroke-linejoin:miter;stroke-width:0.8;"/>
   </g>
  </g>
 </g>
 <defs>
  <clipPath id="p36de6b873e">
   <rect height="266.112" width="357.12" x="57.6" y="41.472"/>
  </clipPath>
 </defs>
</svg>
