<?xml version="1.0" encoding="utf-8" standalone="no"?>
<!DOCTYPE svg PUBLIC "-//W3C//DTD SVG 1.1//EN"
  "http://www.w3.org/Graphics/SVG/1.1/DTD/svg11.dtd">
<!-- Created with matplotlib (https://matplotlib.org/) -->
<svg height="345.6pt" version="1.1" viewBox="0 0 460.8 345.6" width="460.8pt" xmlns="http://www.w3.org/2000/svg" xmlns:xlink="http://www.w3.org/1999/xlink">
 <defs>
  <style type="text/css">
*{stroke-linecap:butt;stroke-linejoin:round;}
  </style>
 </defs>
 <g id="figure_1">
  <g id="patch_1">
   <path d="M 0 345.6 
L 460.8 345.6 
L 460.8 0 
L 0 0 
z
" style="fill:#ffffff;"/>
  </g>
  <g id="axes_1">
   <g id="patch_2">
    <path d="M 57.6 307.584 
L 414.72 307.584 
L 414.72 41.472 
L 57.6 41.472 
z
" style="fill:#ffffff;"/>
   </g>
   <g id="matplotlib.axis_1">
    <g id="xtick_1">
     <g id="line2d_1">
      <defs>
       <path d="M 0 0 
L 0 3.5 
" id="mb15f99966f" style="stroke:#000000;stroke-width:0.8;"/>
      </defs>
      <g>
       <use style="stroke:#000000;stroke-width:0.8;" x="58.486411" xlink:href="#mb15f99966f" y="307.584"/>
      </g>
     </g>
     <g id="text_1">
      <!-- 0 -->
      <defs>
       <path d="M 31.78125 66.40625 
Q 24.171875 66.40625 20.328125 58.90625 
Q 16.5 51.421875 16.5 36.375 
Q 16.5 21.390625 20.328125 13.890625 
Q 24.171875 6.390625 31.78125 6.390625 
Q 39.453125 6.390625 43.28125 13.890625 
Q 47.125 21.390625 47.125 36.375 
Q 47.125 51.421875 43.28125 58.90625 
Q 39.453125 66.40625 31.78125 66.40625 
z
M 31.78125 74.21875 
Q 44.046875 74.21875 50.515625 64.515625 
Q 56.984375 54.828125 56.984375 36.375 
Q 56.984375 17.96875 50.515625 8.265625 
Q 44.046875 -1.421875 31.78125 -1.421875 
Q 19.53125 -1.421875 13.0625 8.265625 
Q 6.59375 17.96875 6.59375 36.375 
Q 6.59375 54.828125 13.0625 64.515625 
Q 19.53125 74.21875 31.78125 74.21875 
z
" id="DejaVuSans-48"/>
      </defs>
      <g transform="translate(55.305161 322.182437)scale(0.1 -0.1)">
       <use xlink:href="#DejaVuSans-48"/>
      </g>
     </g>
    </g>
    <g id="xtick_2">
     <g id="line2d_2">
      <g>
       <use style="stroke:#000000;stroke-width:0.8;" x="126.541027" xlink:href="#mb15f99966f" y="307.584"/>
      </g>
     </g>
     <g id="text_2">
      <!-- 200 -->
      <defs>
       <path d="M 19.1875 8.296875 
L 53.609375 8.296875 
L 53.609375 0 
L 7.328125 0 
L 7.328125 8.296875 
Q 12.9375 14.109375 22.625 23.890625 
Q 32.328125 33.6875 34.8125 36.53125 
Q 39.546875 41.84375 41.421875 45.53125 
Q 43.3125 49.21875 43.3125 52.78125 
Q 43.3125 58.59375 39.234375 62.25 
Q 35.15625 65.921875 28.609375 65.921875 
Q 23.96875 65.921875 18.8125 64.3125 
Q 13.671875 62.703125 7.8125 59.421875 
L 7.8125 69.390625 
Q 13.765625 71.78125 18.9375 73 
Q 24.125 74.21875 28.421875 74.21875 
Q 39.75 74.21875 46.484375 68.546875 
Q 53.21875 62.890625 53.21875 53.421875 
Q 53.21875 48.921875 51.53125 44.890625 
Q 49.859375 40.875 45.40625 35.40625 
Q 44.1875 33.984375 37.640625 27.21875 
Q 31.109375 20.453125 19.1875 8.296875 
z
" id="DejaVuSans-50"/>
      </defs>
      <g transform="translate(116.997277 322.182437)scale(0.1 -0.1)">
       <use xlink:href="#DejaVuSans-50"/>
       <use x="63.623047" xlink:href="#DejaVuSans-48"/>
       <use x="127.246094" xlink:href="#DejaVuSans-48"/>
      </g>
     </g>
    </g>
    <g id="xtick_3">
     <g id="line2d_3">
      <g>
       <use style="stroke:#000000;stroke-width:0.8;" x="194.595643" xlink:href="#mb15f99966f" y="307.584"/>
      </g>
     </g>
     <g id="text_3">
      <!-- 400 -->
      <defs>
       <path d="M 37.796875 64.3125 
L 12.890625 25.390625 
L 37.796875 25.390625 
z
M 35.203125 72.90625 
L 47.609375 72.90625 
L 47.609375 25.390625 
L 58.015625 25.390625 
L 58.015625 17.1875 
L 47.609375 17.1875 
L 47.609375 0 
L 37.796875 0 
L 37.796875 17.1875 
L 4.890625 17.1875 
L 4.890625 26.703125 
z
" id="DejaVuSans-52"/>
      </defs>
      <g transform="translate(185.051893 322.182437)scale(0.1 -0.1)">
       <use xlink:href="#DejaVuSans-52"/>
       <use x="63.623047" xlink:href="#DejaVuSans-48"/>
       <use x="127.246094" xlink:href="#DejaVuSans-48"/>
      </g>
     </g>
    </g>
    <g id="xtick_4">
     <g id="line2d_4">
      <g>
       <use style="stroke:#000000;stroke-width:0.8;" x="262.650259" xlink:href="#mb15f99966f" y="307.584"/>
      </g>
     </g>
     <g id="text_4">
      <!-- 600 -->
      <defs>
       <path d="M 33.015625 40.375 
Q 26.375 40.375 22.484375 35.828125 
Q 18.609375 31.296875 18.609375 23.390625 
Q 18.609375 15.53125 22.484375 10.953125 
Q 26.375 6.390625 33.015625 6.390625 
Q 39.65625 6.390625 43.53125 10.953125 
Q 47.40625 15.53125 47.40625 23.390625 
Q 47.40625 31.296875 43.53125 35.828125 
Q 39.65625 40.375 33.015625 40.375 
z
M 52.59375 71.296875 
L 52.59375 62.3125 
Q 48.875 64.0625 45.09375 64.984375 
Q 41.3125 65.921875 37.59375 65.921875 
Q 27.828125 65.921875 22.671875 59.328125 
Q 17.53125 52.734375 16.796875 39.40625 
Q 19.671875 43.65625 24.015625 45.921875 
Q 28.375 48.1875 33.59375 48.1875 
Q 44.578125 48.1875 50.953125 41.515625 
Q 57.328125 34.859375 57.328125 23.390625 
Q 57.328125 12.15625 50.6875 5.359375 
Q 44.046875 -1.421875 33.015625 -1.421875 
Q 20.359375 -1.421875 13.671875 8.265625 
Q 6.984375 17.96875 6.984375 36.375 
Q 6.984375 53.65625 15.1875 63.9375 
Q 23.390625 74.21875 37.203125 74.21875 
Q 40.921875 74.21875 44.703125 73.484375 
Q 48.484375 72.75 52.59375 71.296875 
z
" id="DejaVuSans-54"/>
      </defs>
      <g transform="translate(253.106509 322.182437)scale(0.1 -0.1)">
       <use xlink:href="#DejaVuSans-54"/>
       <use x="63.623047" xlink:href="#DejaVuSans-48"/>
       <use x="127.246094" xlink:href="#DejaVuSans-48"/>
      </g>
     </g>
    </g>
    <g id="xtick_5">
     <g id="line2d_5">
      <g>
       <use style="stroke:#000000;stroke-width:0.8;" x="330.704875" xlink:href="#mb15f99966f" y="307.584"/>
      </g>
     </g>
     <g id="text_5">
      <!-- 800 -->
      <defs>
       <path d="M 31.78125 34.625 
Q 24.75 34.625 20.71875 30.859375 
Q 16.703125 27.09375 16.703125 20.515625 
Q 16.703125 13.921875 20.71875 10.15625 
Q 24.75 6.390625 31.78125 6.390625 
Q 38.8125 6.390625 42.859375 10.171875 
Q 46.921875 13.96875 46.921875 20.515625 
Q 46.921875 27.09375 42.890625 30.859375 
Q 38.875 34.625 31.78125 34.625 
z
M 21.921875 38.8125 
Q 15.578125 40.375 12.03125 44.71875 
Q 8.5 49.078125 8.5 55.328125 
Q 8.5 64.0625 14.71875 69.140625 
Q 20.953125 74.21875 31.78125 74.21875 
Q 42.671875 74.21875 48.875 69.140625 
Q 55.078125 64.0625 55.078125 55.328125 
Q 55.078125 49.078125 51.53125 44.71875 
Q 48 40.375 41.703125 38.8125 
Q 48.828125 37.15625 52.796875 32.3125 
Q 56.78125 27.484375 56.78125 20.515625 
Q 56.78125 9.90625 50.3125 4.234375 
Q 43.84375 -1.421875 31.78125 -1.421875 
Q 19.734375 -1.421875 13.25 4.234375 
Q 6.78125 9.90625 6.78125 20.515625 
Q 6.78125 27.484375 10.78125 32.3125 
Q 14.796875 37.15625 21.921875 38.8125 
z
M 18.3125 54.390625 
Q 18.3125 48.734375 21.84375 45.5625 
Q 25.390625 42.390625 31.78125 42.390625 
Q 38.140625 42.390625 41.71875 45.5625 
Q 45.3125 48.734375 45.3125 54.390625 
Q 45.3125 60.0625 41.71875 63.234375 
Q 38.140625 66.40625 31.78125 66.40625 
Q 25.390625 66.40625 21.84375 63.234375 
Q 18.3125 60.0625 18.3125 54.390625 
z
" id="DejaVuSans-56"/>
      </defs>
      <g transform="translate(321.161125 322.182437)scale(0.1 -0.1)">
       <use xlink:href="#DejaVuSans-56"/>
       <use x="63.623047" xlink:href="#DejaVuSans-48"/>
       <use x="127.246094" xlink:href="#DejaVuSans-48"/>
      </g>
     </g>
    </g>
    <g id="xtick_6">
     <g id="line2d_6">
      <g>
       <use style="stroke:#000000;stroke-width:0.8;" x="398.759491" xlink:href="#mb15f99966f" y="307.584"/>
      </g>
     </g>
     <g id="text_6">
      <!-- 1000 -->
      <defs>
       <path d="M 12.40625 8.296875 
L 28.515625 8.296875 
L 28.515625 63.921875 
L 10.984375 60.40625 
L 10.984375 69.390625 
L 28.421875 72.90625 
L 38.28125 72.90625 
L 38.28125 8.296875 
L 54.390625 8.296875 
L 54.390625 0 
L 12.40625 0 
z
" id="DejaVuSans-49"/>
      </defs>
      <g transform="translate(386.034491 322.182437)scale(0.1 -0.1)">
       <use xlink:href="#DejaVuSans-49"/>
       <use x="63.623047" xlink:href="#DejaVuSans-48"/>
       <use x="127.246094" xlink:href="#DejaVuSans-48"/>
       <use x="190.869141" xlink:href="#DejaVuSans-48"/>
      </g>
     </g>
    </g>
    <g id="text_7">
     <!-- Tempo (ms) -->
     <defs>
      <path d="M -0.296875 72.90625 
L 61.375 72.90625 
L 61.375 64.59375 
L 35.5 64.59375 
L 35.5 0 
L 25.59375 0 
L 25.59375 64.59375 
L -0.296875 64.59375 
z
" id="DejaVuSans-84"/>
      <path d="M 56.203125 29.59375 
L 56.203125 25.203125 
L 14.890625 25.203125 
Q 15.484375 15.921875 20.484375 11.0625 
Q 25.484375 6.203125 34.421875 6.203125 
Q 39.59375 6.203125 44.453125 7.46875 
Q 49.3125 8.734375 54.109375 11.28125 
L 54.109375 2.78125 
Q 49.265625 0.734375 44.1875 -0.34375 
Q 39.109375 -1.421875 33.890625 -1.421875 
Q 20.796875 -1.421875 13.15625 6.1875 
Q 5.515625 13.8125 5.515625 26.8125 
Q 5.515625 40.234375 12.765625 48.109375 
Q 20.015625 56 32.328125 56 
Q 43.359375 56 49.78125 48.890625 
Q 56.203125 41.796875 56.203125 29.59375 
z
M 47.21875 32.234375 
Q 47.125 39.59375 43.09375 43.984375 
Q 39.0625 48.390625 32.421875 48.390625 
Q 24.90625 48.390625 20.390625 44.140625 
Q 15.875 39.890625 15.1875 32.171875 
z
" id="DejaVuSans-101"/>
      <path d="M 52 44.1875 
Q 55.375 50.25 60.0625 53.125 
Q 64.75 56 71.09375 56 
Q 79.640625 56 84.28125 50.015625 
Q 88.921875 44.046875 88.921875 33.015625 
L 88.921875 0 
L 79.890625 0 
L 79.890625 32.71875 
Q 79.890625 40.578125 77.09375 44.375 
Q 74.3125 48.1875 68.609375 48.1875 
Q 61.625 48.1875 57.5625 43.546875 
Q 53.515625 38.921875 53.515625 30.90625 
L 53.515625 0 
L 44.484375 0 
L 44.484375 32.71875 
Q 44.484375 40.625 41.703125 44.40625 
Q 38.921875 48.1875 33.109375 48.1875 
Q 26.21875 48.1875 22.15625 43.53125 
Q 18.109375 38.875 18.109375 30.90625 
L 18.109375 0 
L 9.078125 0 
L 9.078125 54.6875 
L 18.109375 54.6875 
L 18.109375 46.1875 
Q 21.1875 51.21875 25.484375 53.609375 
Q 29.78125 56 35.6875 56 
Q 41.65625 56 45.828125 52.96875 
Q 50 49.953125 52 44.1875 
z
" id="DejaVuSans-109"/>
      <path d="M 18.109375 8.203125 
L 18.109375 -20.796875 
L 9.078125 -20.796875 
L 9.078125 54.6875 
L 18.109375 54.6875 
L 18.109375 46.390625 
Q 20.953125 51.265625 25.265625 53.625 
Q 29.59375 56 35.59375 56 
Q 45.5625 56 51.78125 48.09375 
Q 58.015625 40.1875 58.015625 27.296875 
Q 58.015625 14.40625 51.78125 6.484375 
Q 45.5625 -1.421875 35.59375 -1.421875 
Q 29.59375 -1.421875 25.265625 0.953125 
Q 20.953125 3.328125 18.109375 8.203125 
z
M 48.6875 27.296875 
Q 48.6875 37.203125 44.609375 42.84375 
Q 40.53125 48.484375 33.40625 48.484375 
Q 26.265625 48.484375 22.1875 42.84375 
Q 18.109375 37.203125 18.109375 27.296875 
Q 18.109375 17.390625 22.1875 11.75 
Q 26.265625 6.109375 33.40625 6.109375 
Q 40.53125 6.109375 44.609375 11.75 
Q 48.6875 17.390625 48.6875 27.296875 
z
" id="DejaVuSans-112"/>
      <path d="M 30.609375 48.390625 
Q 23.390625 48.390625 19.1875 42.75 
Q 14.984375 37.109375 14.984375 27.296875 
Q 14.984375 17.484375 19.15625 11.84375 
Q 23.34375 6.203125 30.609375 6.203125 
Q 37.796875 6.203125 41.984375 11.859375 
Q 46.1875 17.53125 46.1875 27.296875 
Q 46.1875 37.015625 41.984375 42.703125 
Q 37.796875 48.390625 30.609375 48.390625 
z
M 30.609375 56 
Q 42.328125 56 49.015625 48.375 
Q 55.71875 40.765625 55.71875 27.296875 
Q 55.71875 13.875 49.015625 6.21875 
Q 42.328125 -1.421875 30.609375 -1.421875 
Q 18.84375 -1.421875 12.171875 6.21875 
Q 5.515625 13.875 5.515625 27.296875 
Q 5.515625 40.765625 12.171875 48.375 
Q 18.84375 56 30.609375 56 
z
" id="DejaVuSans-111"/>
      <path id="DejaVuSans-32"/>
      <path d="M 31 75.875 
Q 24.46875 64.65625 21.28125 53.65625 
Q 18.109375 42.671875 18.109375 31.390625 
Q 18.109375 20.125 21.3125 9.0625 
Q 24.515625 -2 31 -13.1875 
L 23.1875 -13.1875 
Q 15.875 -1.703125 12.234375 9.375 
Q 8.59375 20.453125 8.59375 31.390625 
Q 8.59375 42.28125 12.203125 53.3125 
Q 15.828125 64.359375 23.1875 75.875 
z
" id="DejaVuSans-40"/>
      <path d="M 44.28125 53.078125 
L 44.28125 44.578125 
Q 40.484375 46.53125 36.375 47.5 
Q 32.28125 48.484375 27.875 48.484375 
Q 21.1875 48.484375 17.84375 46.4375 
Q 14.5 44.390625 14.5 40.28125 
Q 14.5 37.15625 16.890625 35.375 
Q 19.28125 33.59375 26.515625 31.984375 
L 29.59375 31.296875 
Q 39.15625 29.25 43.1875 25.515625 
Q 47.21875 21.78125 47.21875 15.09375 
Q 47.21875 7.46875 41.1875 3.015625 
Q 35.15625 -1.421875 24.609375 -1.421875 
Q 20.21875 -1.421875 15.453125 -0.5625 
Q 10.6875 0.296875 5.421875 2 
L 5.421875 11.28125 
Q 10.40625 8.6875 15.234375 7.390625 
Q 20.0625 6.109375 24.8125 6.109375 
Q 31.15625 6.109375 34.5625 8.28125 
Q 37.984375 10.453125 37.984375 14.40625 
Q 37.984375 18.0625 35.515625 20.015625 
Q 33.0625 21.96875 24.703125 23.78125 
L 21.578125 24.515625 
Q 13.234375 26.265625 9.515625 29.90625 
Q 5.8125 33.546875 5.8125 39.890625 
Q 5.8125 47.609375 11.28125 51.796875 
Q 16.75 56 26.8125 56 
Q 31.78125 56 36.171875 55.265625 
Q 40.578125 54.546875 44.28125 53.078125 
z
" id="DejaVuSans-115"/>
      <path d="M 8.015625 75.875 
L 15.828125 75.875 
Q 23.140625 64.359375 26.78125 53.3125 
Q 30.421875 42.28125 30.421875 31.390625 
Q 30.421875 20.453125 26.78125 9.375 
Q 23.140625 -1.703125 15.828125 -13.1875 
L 8.015625 -13.1875 
Q 14.5 -2 17.703125 9.0625 
Q 20.90625 20.125 20.90625 31.390625 
Q 20.90625 42.671875 17.703125 53.65625 
Q 14.5 64.65625 8.015625 75.875 
z
" id="DejaVuSans-41"/>
     </defs>
     <g transform="translate(205.973281 335.860562)scale(0.1 -0.1)">
      <use xlink:href="#DejaVuSans-84"/>
      <use x="60.818359" xlink:href="#DejaVuSans-101"/>
      <use x="122.341797" xlink:href="#DejaVuSans-109"/>
      <use x="219.753906" xlink:href="#DejaVuSans-112"/>
      <use x="283.230469" xlink:href="#DejaVuSans-111"/>
      <use x="344.412109" xlink:href="#DejaVuSans-32"/>
      <use x="376.199219" xlink:href="#DejaVuSans-40"/>
      <use x="415.212891" xlink:href="#DejaVuSans-109"/>
      <use x="512.625" xlink:href="#DejaVuSans-115"/>
      <use x="564.724609" xlink:href="#DejaVuSans-41"/>
     </g>
    </g>
   </g>
   <g id="matplotlib.axis_2">
    <g id="ytick_1">
     <g id="line2d_7">
      <defs>
       <path d="M 0 0 
L -3.5 0 
" id="m014f0ae5d4" style="stroke:#000000;stroke-width:0.8;"/>
      </defs>
      <g>
       <use style="stroke:#000000;stroke-width:0.8;" x="57.6" xlink:href="#m014f0ae5d4" y="296.299812"/>
      </g>
     </g>
     <g id="text_8">
      <!-- 0 -->
      <g transform="translate(44.2375 300.099031)scale(0.1 -0.1)">
       <use xlink:href="#DejaVuSans-48"/>
      </g>
     </g>
    </g>
    <g id="ytick_2">
     <g id="line2d_8">
      <g>
       <use style="stroke:#000000;stroke-width:0.8;" x="57.6" xlink:href="#m014f0ae5d4" y="255.709208"/>
      </g>
     </g>
     <g id="text_9">
      <!-- 50 -->
      <defs>
       <path d="M 10.796875 72.90625 
L 49.515625 72.90625 
L 49.515625 64.59375 
L 19.828125 64.59375 
L 19.828125 46.734375 
Q 21.96875 47.46875 24.109375 47.828125 
Q 26.265625 48.1875 28.421875 48.1875 
Q 40.625 48.1875 47.75 41.5 
Q 54.890625 34.8125 54.890625 23.390625 
Q 54.890625 11.625 47.5625 5.09375 
Q 40.234375 -1.421875 26.90625 -1.421875 
Q 22.3125 -1.421875 17.546875 -0.640625 
Q 12.796875 0.140625 7.71875 1.703125 
L 7.71875 11.625 
Q 12.109375 9.234375 16.796875 8.0625 
Q 21.484375 6.890625 26.703125 6.890625 
Q 35.15625 6.890625 40.078125 11.328125 
Q 45.015625 15.765625 45.015625 23.390625 
Q 45.015625 31 40.078125 35.4375 
Q 35.15625 39.890625 26.703125 39.890625 
Q 22.75 39.890625 18.8125 39.015625 
Q 14.890625 38.140625 10.796875 36.28125 
z
" id="DejaVuSans-53"/>
      </defs>
      <g transform="translate(37.875 259.508427)scale(0.1 -0.1)">
       <use xlink:href="#DejaVuSans-53"/>
       <use x="63.623047" xlink:href="#DejaVuSans-48"/>
      </g>
     </g>
    </g>
    <g id="ytick_3">
     <g id="line2d_9">
      <g>
       <use style="stroke:#000000;stroke-width:0.8;" x="57.6" xlink:href="#m014f0ae5d4" y="215.118604"/>
      </g>
     </g>
     <g id="text_10">
      <!-- 100 -->
      <g transform="translate(31.5125 218.917823)scale(0.1 -0.1)">
       <use xlink:href="#DejaVuSans-49"/>
       <use x="63.623047" xlink:href="#DejaVuSans-48"/>
       <use x="127.246094" xlink:href="#DejaVuSans-48"/>
      </g>
     </g>
    </g>
    <g id="ytick_4">
     <g id="line2d_10">
      <g>
       <use style="stroke:#000000;stroke-width:0.8;" x="57.6" xlink:href="#m014f0ae5d4" y="174.528"/>
      </g>
     </g>
     <g id="text_11">
      <!-- 150 -->
      <g transform="translate(31.5125 178.327219)scale(0.1 -0.1)">
       <use xlink:href="#DejaVuSans-49"/>
       <use x="63.623047" xlink:href="#DejaVuSans-53"/>
       <use x="127.246094" xlink:href="#DejaVuSans-48"/>
      </g>
     </g>
    </g>
    <g id="ytick_5">
     <g id="line2d_11">
      <g>
       <use style="stroke:#000000;stroke-width:0.8;" x="57.6" xlink:href="#m014f0ae5d4" y="133.937396"/>
      </g>
     </g>
     <g id="text_12">
      <!-- 200 -->
      <g transform="translate(31.5125 137.736615)scale(0.1 -0.1)">
       <use xlink:href="#DejaVuSans-50"/>
       <use x="63.623047" xlink:href="#DejaVuSans-48"/>
       <use x="127.246094" xlink:href="#DejaVuSans-48"/>
      </g>
     </g>
    </g>
    <g id="ytick_6">
     <g id="line2d_12">
      <g>
       <use style="stroke:#000000;stroke-width:0.8;" x="57.6" xlink:href="#m014f0ae5d4" y="93.346792"/>
      </g>
     </g>
     <g id="text_13">
      <!-- 250 -->
      <g transform="translate(31.5125 97.146011)scale(0.1 -0.1)">
       <use xlink:href="#DejaVuSans-50"/>
       <use x="63.623047" xlink:href="#DejaVuSans-53"/>
       <use x="127.246094" xlink:href="#DejaVuSans-48"/>
      </g>
     </g>
    </g>
    <g id="ytick_7">
     <g id="line2d_13">
      <g>
       <use style="stroke:#000000;stroke-width:0.8;" x="57.6" xlink:href="#m014f0ae5d4" y="52.756188"/>
      </g>
     </g>
     <g id="text_14">
      <!-- 300 -->
      <defs>
       <path d="M 40.578125 39.3125 
Q 47.65625 37.796875 51.625 33 
Q 55.609375 28.21875 55.609375 21.1875 
Q 55.609375 10.40625 48.1875 4.484375 
Q 40.765625 -1.421875 27.09375 -1.421875 
Q 22.515625 -1.421875 17.65625 -0.515625 
Q 12.796875 0.390625 7.625 2.203125 
L 7.625 11.71875 
Q 11.71875 9.328125 16.59375 8.109375 
Q 21.484375 6.890625 26.8125 6.890625 
Q 36.078125 6.890625 40.9375 10.546875 
Q 45.796875 14.203125 45.796875 21.1875 
Q 45.796875 27.640625 41.28125 31.265625 
Q 36.765625 34.90625 28.71875 34.90625 
L 20.21875 34.90625 
L 20.21875 43.015625 
L 29.109375 43.015625 
Q 36.375 43.015625 40.234375 45.921875 
Q 44.09375 48.828125 44.09375 54.296875 
Q 44.09375 59.90625 40.109375 62.90625 
Q 36.140625 65.921875 28.71875 65.921875 
Q 24.65625 65.921875 20.015625 65.03125 
Q 15.375 64.15625 9.8125 62.3125 
L 9.8125 71.09375 
Q 15.4375 72.65625 20.34375 73.4375 
Q 25.25 74.21875 29.59375 74.21875 
Q 40.828125 74.21875 47.359375 69.109375 
Q 53.90625 64.015625 53.90625 55.328125 
Q 53.90625 49.265625 50.4375 45.09375 
Q 46.96875 40.921875 40.578125 39.3125 
z
" id="DejaVuSans-51"/>
      </defs>
      <g transform="translate(31.5125 56.555407)scale(0.1 -0.1)">
       <use xlink:href="#DejaVuSans-51"/>
       <use x="63.623047" xlink:href="#DejaVuSans-48"/>
       <use x="127.246094" xlink:href="#DejaVuSans-48"/>
      </g>
     </g>
    </g>
    <g id="text_15">
     <!-- Índice do motoneurônio -->
     <defs>
      <path d="M 9.8125 72.90625 
L 19.671875 72.90625 
L 19.671875 0 
L 9.8125 0 
z
M 17.484375 92.734375 
L 26.515625 92.734375 
L 15.375 79.84375 
L 7.90625 79.84375 
z
" id="DejaVuSans-205"/>
      <path d="M 54.890625 33.015625 
L 54.890625 0 
L 45.90625 0 
L 45.90625 32.71875 
Q 45.90625 40.484375 42.875 44.328125 
Q 39.84375 48.1875 33.796875 48.1875 
Q 26.515625 48.1875 22.3125 43.546875 
Q 18.109375 38.921875 18.109375 30.90625 
L 18.109375 0 
L 9.078125 0 
L 9.078125 54.6875 
L 18.109375 54.6875 
L 18.109375 46.1875 
Q 21.34375 51.125 25.703125 53.5625 
Q 30.078125 56 35.796875 56 
Q 45.21875 56 50.046875 50.171875 
Q 54.890625 44.34375 54.890625 33.015625 
z
" id="DejaVuSans-110"/>
      <path d="M 45.40625 46.390625 
L 45.40625 75.984375 
L 54.390625 75.984375 
L 54.390625 0 
L 45.40625 0 
L 45.40625 8.203125 
Q 42.578125 3.328125 38.25 0.953125 
Q 33.9375 -1.421875 27.875 -1.421875 
Q 17.96875 -1.421875 11.734375 6.484375 
Q 5.515625 14.40625 5.515625 27.296875 
Q 5.515625 40.1875 11.734375 48.09375 
Q 17.96875 56 27.875 56 
Q 33.9375 56 38.25 53.625 
Q 42.578125 51.265625 45.40625 46.390625 
z
M 14.796875 27.296875 
Q 14.796875 17.390625 18.875 11.75 
Q 22.953125 6.109375 30.078125 6.109375 
Q 37.203125 6.109375 41.296875 11.75 
Q 45.40625 17.390625 45.40625 27.296875 
Q 45.40625 37.203125 41.296875 42.84375 
Q 37.203125 48.484375 30.078125 48.484375 
Q 22.953125 48.484375 18.875 42.84375 
Q 14.796875 37.203125 14.796875 27.296875 
z
" id="DejaVuSans-100"/>
      <path d="M 9.421875 54.6875 
L 18.40625 54.6875 
L 18.40625 0 
L 9.421875 0 
z
M 9.421875 75.984375 
L 18.40625 75.984375 
L 18.40625 64.59375 
L 9.421875 64.59375 
z
" id="DejaVuSans-105"/>
      <path d="M 48.78125 52.59375 
L 48.78125 44.1875 
Q 44.96875 46.296875 41.140625 47.34375 
Q 37.3125 48.390625 33.40625 48.390625 
Q 24.65625 48.390625 19.8125 42.84375 
Q 14.984375 37.3125 14.984375 27.296875 
Q 14.984375 17.28125 19.8125 11.734375 
Q 24.65625 6.203125 33.40625 6.203125 
Q 37.3125 6.203125 41.140625 7.25 
Q 44.96875 8.296875 48.78125 10.40625 
L 48.78125 2.09375 
Q 45.015625 0.34375 40.984375 -0.53125 
Q 36.96875 -1.421875 32.421875 -1.421875 
Q 20.0625 -1.421875 12.78125 6.34375 
Q 5.515625 14.109375 5.515625 27.296875 
Q 5.515625 40.671875 12.859375 48.328125 
Q 20.21875 56 33.015625 56 
Q 37.15625 56 41.109375 55.140625 
Q 45.0625 54.296875 48.78125 52.59375 
z
" id="DejaVuSans-99"/>
      <path d="M 18.3125 70.21875 
L 18.3125 54.6875 
L 36.8125 54.6875 
L 36.8125 47.703125 
L 18.3125 47.703125 
L 18.3125 18.015625 
Q 18.3125 11.328125 20.140625 9.421875 
Q 21.96875 7.515625 27.59375 7.515625 
L 36.8125 7.515625 
L 36.8125 0 
L 27.59375 0 
Q 17.1875 0 13.234375 3.875 
Q 9.28125 7.765625 9.28125 18.015625 
L 9.28125 47.703125 
L 2.6875 47.703125 
L 2.6875 54.6875 
L 9.28125 54.6875 
L 9.28125 70.21875 
z
" id="DejaVuSans-116"/>
      <path d="M 8.5 21.578125 
L 8.5 54.6875 
L 17.484375 54.6875 
L 17.484375 21.921875 
Q 17.484375 14.15625 20.5 10.265625 
Q 23.53125 6.390625 29.59375 6.390625 
Q 36.859375 6.390625 41.078125 11.03125 
Q 45.3125 15.671875 45.3125 23.6875 
L 45.3125 54.6875 
L 54.296875 54.6875 
L 54.296875 0 
L 45.3125 0 
L 45.3125 8.40625 
Q 42.046875 3.421875 37.71875 1 
Q 33.40625 -1.421875 27.6875 -1.421875 
Q 18.265625 -1.421875 13.375 4.4375 
Q 8.5 10.296875 8.5 21.578125 
z
M 31.109375 56 
z
" id="DejaVuSans-117"/>
      <path d="M 41.109375 46.296875 
Q 39.59375 47.171875 37.8125 47.578125 
Q 36.03125 48 33.890625 48 
Q 26.265625 48 22.1875 43.046875 
Q 18.109375 38.09375 18.109375 28.8125 
L 18.109375 0 
L 9.078125 0 
L 9.078125 54.6875 
L 18.109375 54.6875 
L 18.109375 46.1875 
Q 20.953125 51.171875 25.484375 53.578125 
Q 30.03125 56 36.53125 56 
Q 37.453125 56 38.578125 55.875 
Q 39.703125 55.765625 41.0625 55.515625 
z
" id="DejaVuSans-114"/>
      <path d="M 30.609375 48.390625 
Q 23.390625 48.390625 19.1875 42.75 
Q 14.984375 37.109375 14.984375 27.296875 
Q 14.984375 17.484375 19.15625 11.84375 
Q 23.34375 6.203125 30.609375 6.203125 
Q 37.796875 6.203125 41.984375 11.859375 
Q 46.1875 17.53125 46.1875 27.296875 
Q 46.1875 37.015625 41.984375 42.703125 
Q 37.796875 48.390625 30.609375 48.390625 
z
M 30.609375 56 
Q 42.328125 56 49.015625 48.375 
Q 55.71875 40.765625 55.71875 27.296875 
Q 55.71875 13.875 49.015625 6.21875 
Q 42.328125 -1.421875 30.609375 -1.421875 
Q 18.84375 -1.421875 12.171875 6.21875 
Q 5.515625 13.875 5.515625 27.296875 
Q 5.515625 40.765625 12.171875 48.375 
Q 18.84375 56 30.609375 56 
z
M 27 79.984375 
L 34.234375 79.984375 
L 46.1875 61.625 
L 39.40625 61.625 
L 30.609375 73.578125 
L 21.828125 61.625 
L 15.046875 61.625 
z
" id="DejaVuSans-244"/>
     </defs>
     <g transform="translate(25.432812 234.066281)rotate(-90)scale(0.1 -0.1)">
      <use xlink:href="#DejaVuSans-205"/>
      <use x="29.492188" xlink:href="#DejaVuSans-110"/>
      <use x="92.871094" xlink:href="#DejaVuSans-100"/>
      <use x="156.347656" xlink:href="#DejaVuSans-105"/>
      <use x="184.130859" xlink:href="#DejaVuSans-99"/>
      <use x="239.111328" xlink:href="#DejaVuSans-101"/>
      <use x="300.634766" xlink:href="#DejaVuSans-32"/>
      <use x="332.421875" xlink:href="#DejaVuSans-100"/>
      <use x="395.898438" xlink:href="#DejaVuSans-111"/>
      <use x="457.080078" xlink:href="#DejaVuSans-32"/>
      <use x="488.867188" xlink:href="#DejaVuSans-109"/>
      <use x="586.279297" xlink:href="#DejaVuSans-111"/>
      <use x="647.460938" xlink:href="#DejaVuSans-116"/>
      <use x="686.669922" xlink:href="#DejaVuSans-111"/>
      <use x="747.851562" xlink:href="#DejaVuSans-110"/>
      <use x="811.230469" xlink:href="#DejaVuSans-101"/>
      <use x="872.753906" xlink:href="#DejaVuSans-117"/>
      <use x="936.132812" xlink:href="#DejaVuSans-114"/>
      <use x="977.214844" xlink:href="#DejaVuSans-244"/>
      <use x="1038.396484" xlink:href="#DejaVuSans-110"/>
      <use x="1101.775391" xlink:href="#DejaVuSans-105"/>
      <use x="1129.558594" xlink:href="#DejaVuSans-111"/>
     </g>
    </g>
   </g>
   <g id="line2d_14">
    <defs>
     <path d="M 0 1.5 
C 0.397805 1.5 0.77937 1.341951 1.06066 1.06066 
C 1.341951 0.77937 1.5 0.397805 1.5 0 
C 1.5 -0.397805 1.341951 -0.77937 1.06066 -1.06066 
C 0.77937 -1.341951 0.397805 -1.5 0 -1.5 
C -0.397805 -1.5 -0.77937 -1.341951 -1.06066 -1.06066 
C -1.341951 -0.77937 -1.5 -0.397805 -1.5 0 
C -1.5 0.397805 -1.341951 0.77937 -1.06066 1.06066 
C -0.77937 1.341951 -0.397805 1.5 0 1.5 
z
" id="m0ea3e9c4e0" style="stroke:#000000;"/>
    </defs>
    <g clip-path="url(#p27ec56108d)">
     <use style="stroke:#000000;" x="76.010475" xlink:href="#m0ea3e9c4e0" y="295.488"/>
     <use style="stroke:#000000;" x="77.84795" xlink:href="#m0ea3e9c4e0" y="294.676188"/>
     <use style="stroke:#000000;" x="73.832727" xlink:href="#m0ea3e9c4e0" y="293.864376"/>
     <use style="stroke:#000000;" x="75.738257" xlink:href="#m0ea3e9c4e0" y="293.052564"/>
     <use style="stroke:#000000;" x="77.439622" xlink:href="#m0ea3e9c4e0" y="292.240752"/>
     <use style="stroke:#000000;" x="77.660799" xlink:href="#m0ea3e9c4e0" y="291.42894"/>
     <use style="stroke:#000000;" x="78.086141" xlink:href="#m0ea3e9c4e0" y="290.617128"/>
     <use style="stroke:#000000;" x="76.435816" xlink:href="#m0ea3e9c4e0" y="289.805315"/>
     <use style="stroke:#000000;" x="80.195834" xlink:href="#m0ea3e9c4e0" y="288.993503"/>
     <use style="stroke:#000000;" x="77.048308" xlink:href="#m0ea3e9c4e0" y="288.181691"/>
     <use style="stroke:#000000;" x="76.316721" xlink:href="#m0ea3e9c4e0" y="287.369879"/>
     <use style="stroke:#000000;" x="80.638189" xlink:href="#m0ea3e9c4e0" y="286.558067"/>
     <use style="stroke:#000000;" x="80.553121" xlink:href="#m0ea3e9c4e0" y="285.746255"/>
     <use style="stroke:#000000;" x="78.579537" xlink:href="#m0ea3e9c4e0" y="284.934443"/>
     <use style="stroke:#000000;" x="78.239264" xlink:href="#m0ea3e9c4e0" y="284.122631"/>
     <use style="stroke:#000000;" x="83.683633" xlink:href="#m0ea3e9c4e0" y="283.310819"/>
     <use style="stroke:#000000;" x="78.834742" xlink:href="#m0ea3e9c4e0" y="282.499007"/>
     <use style="stroke:#000000;" x="79.089946" xlink:href="#m0ea3e9c4e0" y="281.687195"/>
     <use style="stroke:#000000;" x="78.0351" xlink:href="#m0ea3e9c4e0" y="280.875383"/>
     <use style="stroke:#000000;" x="81.556926" xlink:href="#m0ea3e9c4e0" y="280.06357"/>
     <use style="stroke:#000000;" x="78.256277" xlink:href="#m0ea3e9c4e0" y="279.251758"/>
     <use style="stroke:#000000;" x="83.564537" xlink:href="#m0ea3e9c4e0" y="278.439946"/>
     <use style="stroke:#000000;" x="85.29993" xlink:href="#m0ea3e9c4e0" y="277.628134"/>
     <use style="stroke:#000000;" x="81.693035" xlink:href="#m0ea3e9c4e0" y="276.816322"/>
     <use style="stroke:#000000;" x="80.468052" xlink:href="#m0ea3e9c4e0" y="276.00451"/>
     <use style="stroke:#000000;" x="86.133599" xlink:href="#m0ea3e9c4e0" y="275.192698"/>
     <use style="stroke:#000000;" x="81.420817" xlink:href="#m0ea3e9c4e0" y="274.380886"/>
     <use style="stroke:#000000;" x="79.80452" xlink:href="#m0ea3e9c4e0" y="273.569074"/>
     <use style="stroke:#000000;" x="82.560732" xlink:href="#m0ea3e9c4e0" y="272.757262"/>
     <use style="stroke:#000000;" x="84.347165" xlink:href="#m0ea3e9c4e0" y="271.94545"/>
     <use style="stroke:#000000;" x="90.863395" xlink:href="#m0ea3e9c4e0" y="271.133638"/>
     <use style="stroke:#000000;" x="87.120391" xlink:href="#m0ea3e9c4e0" y="270.321826"/>
     <use style="stroke:#000000;" x="91.067559" xlink:href="#m0ea3e9c4e0" y="269.510013"/>
     <use style="stroke:#000000;" x="90.216876" xlink:href="#m0ea3e9c4e0" y="268.698201"/>
     <use style="stroke:#000000;" x="86.984282" xlink:href="#m0ea3e9c4e0" y="267.886389"/>
     <use style="stroke:#000000;" x="83.853769" xlink:href="#m0ea3e9c4e0" y="267.074577"/>
     <use style="stroke:#000000;" x="87.749896" xlink:href="#m0ea3e9c4e0" y="266.262765"/>
     <use style="stroke:#000000;" x="87.732883" xlink:href="#m0ea3e9c4e0" y="265.450953"/>
     <use style="stroke:#000000;" x="88.192251" xlink:href="#m0ea3e9c4e0" y="264.639141"/>
     <use style="stroke:#000000;" x="88.46447" xlink:href="#m0ea3e9c4e0" y="263.827329"/>
     <use style="stroke:#000000;" x="92.513719" xlink:href="#m0ea3e9c4e0" y="263.015517"/>
     <use style="stroke:#000000;" x="93.432457" xlink:href="#m0ea3e9c4e0" y="262.203705"/>
     <use style="stroke:#000000;" x="92.275528" xlink:href="#m0ea3e9c4e0" y="261.391893"/>
     <use style="stroke:#000000;" x="87.971074" xlink:href="#m0ea3e9c4e0" y="260.580081"/>
     <use style="stroke:#000000;" x="89.468275" xlink:href="#m0ea3e9c4e0" y="259.768268"/>
     <use style="stroke:#000000;" x="91.475886" xlink:href="#m0ea3e9c4e0" y="258.956456"/>
     <use style="stroke:#000000;" x="94.640426" xlink:href="#m0ea3e9c4e0" y="258.144644"/>
     <use style="stroke:#000000;" x="90.863395" xlink:href="#m0ea3e9c4e0" y="257.332832"/>
     <use style="stroke:#000000;" x="94.402235" xlink:href="#m0ea3e9c4e0" y="256.52102"/>
     <use style="stroke:#000000;" x="96.699078" xlink:href="#m0ea3e9c4e0" y="255.709208"/>
     <use style="stroke:#000000;" x="94.215085" xlink:href="#m0ea3e9c4e0" y="254.897396"/>
     <use style="stroke:#000000;" x="92.088378" xlink:href="#m0ea3e9c4e0" y="254.085584"/>
     <use style="stroke:#000000;" x="95.899436" xlink:href="#m0ea3e9c4e0" y="253.273772"/>
     <use style="stroke:#000000;" x="98.060171" xlink:href="#m0ea3e9c4e0" y="252.46196"/>
     <use style="stroke:#000000;" x="94.84459" xlink:href="#m0ea3e9c4e0" y="251.650148"/>
     <use style="stroke:#000000;" x="104.899659" xlink:href="#m0ea3e9c4e0" y="250.838336"/>
     <use style="stroke:#000000;" x="96.835187" xlink:href="#m0ea3e9c4e0" y="250.026523"/>
     <use style="stroke:#000000;" x="92.275528" xlink:href="#m0ea3e9c4e0" y="249.214711"/>
     <use style="stroke:#000000;" x="93.466484" xlink:href="#m0ea3e9c4e0" y="248.402899"/>
     <use style="stroke:#000000;" x="94.708481" xlink:href="#m0ea3e9c4e0" y="247.591087"/>
     <use style="stroke:#000000;" x="97.243515" xlink:href="#m0ea3e9c4e0" y="246.779275"/>
     <use style="stroke:#000000;" x="98.621621" xlink:href="#m0ea3e9c4e0" y="245.967463"/>
     <use style="stroke:#000000;" x="92.275528" xlink:href="#m0ea3e9c4e0" y="245.155651"/>
     <use style="stroke:#000000;" x="96.920256" xlink:href="#m0ea3e9c4e0" y="244.343839"/>
     <use style="stroke:#000000;" x="95.797355" xlink:href="#m0ea3e9c4e0" y="243.532027"/>
     <use style="stroke:#000000;" x="101.054574" xlink:href="#m0ea3e9c4e0" y="242.720215"/>
     <use style="stroke:#000000;" x="96.256723" xlink:href="#m0ea3e9c4e0" y="241.908403"/>
     <use style="stroke:#000000;" x="106.941298" xlink:href="#m0ea3e9c4e0" y="241.096591"/>
     <use style="stroke:#000000;" x="108.506554" xlink:href="#m0ea3e9c4e0" y="240.284779"/>
     <use style="stroke:#000000;" x="100.357014" xlink:href="#m0ea3e9c4e0" y="239.472966"/>
     <use style="stroke:#000000;" x="102.364625" xlink:href="#m0ea3e9c4e0" y="238.661154"/>
     <use style="stroke:#000000;" x="101.92227" xlink:href="#m0ea3e9c4e0" y="237.849342"/>
     <use style="stroke:#000000;" x="107.213516" xlink:href="#m0ea3e9c4e0" y="237.03753"/>
     <use style="stroke:#000000;" x="107.536776" xlink:href="#m0ea3e9c4e0" y="236.225718"/>
     <use style="stroke:#000000;" x="100.357014" xlink:href="#m0ea3e9c4e0" y="235.413906"/>
     <use style="stroke:#000000;" x="109.51036" xlink:href="#m0ea3e9c4e0" y="234.602094"/>
     <use style="stroke:#000000;" x="107.04338" xlink:href="#m0ea3e9c4e0" y="233.790282"/>
     <use style="stroke:#000000;" x="105.103823" xlink:href="#m0ea3e9c4e0" y="232.97847"/>
     <use style="stroke:#000000;" x="111.262766" xlink:href="#m0ea3e9c4e0" y="232.166658"/>
     <use style="stroke:#000000;" x="111.024575" xlink:href="#m0ea3e9c4e0" y="231.354846"/>
     <use style="stroke:#000000;" x="107.996144" xlink:href="#m0ea3e9c4e0" y="230.543034"/>
     <use style="stroke:#000000;" x="113.185309" xlink:href="#m0ea3e9c4e0" y="229.731221"/>
     <use style="stroke:#000000;" x="103.980922" xlink:href="#m0ea3e9c4e0" y="228.919409"/>
     <use style="stroke:#000000;" x="110.854438" xlink:href="#m0ea3e9c4e0" y="228.107597"/>
     <use style="stroke:#000000;" x="111.586025" xlink:href="#m0ea3e9c4e0" y="227.295785"/>
     <use style="stroke:#000000;" x="111.569012" xlink:href="#m0ea3e9c4e0" y="226.483973"/>
     <use style="stroke:#000000;" x="110.07181" xlink:href="#m0ea3e9c4e0" y="225.672161"/>
     <use style="stroke:#000000;" x="114.920702" xlink:href="#m0ea3e9c4e0" y="224.860349"/>
     <use style="stroke:#000000;" x="108.778773" xlink:href="#m0ea3e9c4e0" y="224.048537"/>
     <use style="stroke:#000000;" x="108.081213" xlink:href="#m0ea3e9c4e0" y="223.236725"/>
     <use style="stroke:#000000;" x="109.204114" xlink:href="#m0ea3e9c4e0" y="222.424913"/>
     <use style="stroke:#000000;" x="117.404695" xlink:href="#m0ea3e9c4e0" y="221.613101"/>
     <use style="stroke:#000000;" x="118.782801" xlink:href="#m0ea3e9c4e0" y="220.801289"/>
     <use style="stroke:#000000;" x="117.404695" xlink:href="#m0ea3e9c4e0" y="219.989477"/>
     <use style="stroke:#000000;" x="110.667288" xlink:href="#m0ea3e9c4e0" y="219.177664"/>
     <use style="stroke:#000000;" x="109.629455" xlink:href="#m0ea3e9c4e0" y="218.365852"/>
     <use style="stroke:#000000;" x="118.391487" xlink:href="#m0ea3e9c4e0" y="217.55404"/>
     <use style="stroke:#000000;" x="126.217768" xlink:href="#m0ea3e9c4e0" y="216.742228"/>
     <use style="stroke:#000000;" x="117.319627" xlink:href="#m0ea3e9c4e0" y="215.930416"/>
     <use style="stroke:#000000;" x="118.799815" xlink:href="#m0ea3e9c4e0" y="215.118604"/>
     <use style="stroke:#000000;" x="114.30821" xlink:href="#m0ea3e9c4e0" y="214.306792"/>
     <use style="stroke:#000000;" x="119.735566" xlink:href="#m0ea3e9c4e0" y="213.49498"/>
     <use style="stroke:#000000;" x="115.567221" xlink:href="#m0ea3e9c4e0" y="212.683168"/>
     <use style="stroke:#000000;" x="120.280003" xlink:href="#m0ea3e9c4e0" y="211.871356"/>
     <use style="stroke:#000000;" x="128.922939" xlink:href="#m0ea3e9c4e0" y="211.059544"/>
     <use style="stroke:#000000;" x="128.123297" xlink:href="#m0ea3e9c4e0" y="210.247732"/>
     <use style="stroke:#000000;" x="134.928759" xlink:href="#m0ea3e9c4e0" y="209.435919"/>
     <use style="stroke:#000000;" x="123.886897" xlink:href="#m0ea3e9c4e0" y="208.624107"/>
     <use style="stroke:#000000;" x="125.928536" xlink:href="#m0ea3e9c4e0" y="207.812295"/>
     <use style="stroke:#000000;" x="127.612888" xlink:href="#m0ea3e9c4e0" y="207.000483"/>
     <use style="stroke:#000000;" x="126.064645" xlink:href="#m0ea3e9c4e0" y="206.188671"/>
     <use style="stroke:#000000;" x="135.745414" xlink:href="#m0ea3e9c4e0" y="205.376859"/>
     <use style="stroke:#000000;" x="128.208365" xlink:href="#m0ea3e9c4e0" y="204.565047"/>
     <use style="stroke:#000000;" x="125.928536" xlink:href="#m0ea3e9c4e0" y="203.753235"/>
     <use style="stroke:#000000;" x="130.947564" xlink:href="#m0ea3e9c4e0" y="202.941423"/>
     <use style="stroke:#000000;" x="134.996813" xlink:href="#m0ea3e9c4e0" y="202.129611"/>
     <use style="stroke:#000000;" x="139.862718" xlink:href="#m0ea3e9c4e0" y="201.317799"/>
     <use style="stroke:#000000;" x="137.31067" xlink:href="#m0ea3e9c4e0" y="200.505987"/>
     <use style="stroke:#000000;" x="127.493792" xlink:href="#m0ea3e9c4e0" y="199.694174"/>
     <use style="stroke:#000000;" x="149.543488" xlink:href="#m0ea3e9c4e0" y="198.882362"/>
     <use style="stroke:#000000;" x="131.81526" xlink:href="#m0ea3e9c4e0" y="198.07055"/>
     <use style="stroke:#000000;" x="142.023452" xlink:href="#m0ea3e9c4e0" y="197.258738"/>
     <use style="stroke:#000000;" x="134.962786" xlink:href="#m0ea3e9c4e0" y="196.446926"/>
     <use style="stroke:#000000;" x="145.664374" xlink:href="#m0ea3e9c4e0" y="195.635114"/>
     <use style="stroke:#000000;" x="138.756831" xlink:href="#m0ea3e9c4e0" y="194.823302"/>
     <use style="stroke:#000000;" x="158.577738" xlink:href="#m0ea3e9c4e0" y="194.01149"/>
     <use style="stroke:#000000;" x="153.37156" xlink:href="#m0ea3e9c4e0" y="193.199678"/>
     <use style="stroke:#000000;" x="156.893386" xlink:href="#m0ea3e9c4e0" y="192.387866"/>
     <use style="stroke:#000000;" x="158.986065" xlink:href="#m0ea3e9c4e0" y="191.576054"/>
     <use style="stroke:#000000;" x="137.378725" xlink:href="#m0ea3e9c4e0" y="190.764242"/>
     <use style="stroke:#000000;" x="153.099341" xlink:href="#m0ea3e9c4e0" y="189.95243"/>
     <use style="stroke:#000000;" x="147.791081" xlink:href="#m0ea3e9c4e0" y="189.140617"/>
     <use style="stroke:#000000;" x="158.832943" xlink:href="#m0ea3e9c4e0" y="188.328805"/>
     <use style="stroke:#000000;" x="169.347381" xlink:href="#m0ea3e9c4e0" y="187.516993"/>
     <use style="stroke:#000000;" x="150.309102" xlink:href="#m0ea3e9c4e0" y="186.705181"/>
     <use style="stroke:#000000;" x="159.904803" xlink:href="#m0ea3e9c4e0" y="185.893369"/>
     <use style="stroke:#000000;" x="168.394616" xlink:href="#m0ea3e9c4e0" y="185.081557"/>
     <use style="stroke:#000000;" x="163.868984" xlink:href="#m0ea3e9c4e0" y="184.269745"/>
     <use style="stroke:#000000;" x="190.818612" xlink:href="#m0ea3e9c4e0" y="183.457933"/>
     <use style="stroke:#000000;" x="163.851971" xlink:href="#m0ea3e9c4e0" y="182.646121"/>
     <use style="stroke:#000000;" x="163.98808" xlink:href="#m0ea3e9c4e0" y="181.834309"/>
     <use style="stroke:#000000;" x="164.073148" xlink:href="#m0ea3e9c4e0" y="181.022497"/>
     <use style="stroke:#000000;" x="176.799361" xlink:href="#m0ea3e9c4e0" y="180.210685"/>
     <use style="stroke:#000000;" x="160.466253" xlink:href="#m0ea3e9c4e0" y="179.398872"/>
     <use style="stroke:#000000;" x="161.963455" xlink:href="#m0ea3e9c4e0" y="178.58706"/>
     <use style="stroke:#000000;" x="164.345367" xlink:href="#m0ea3e9c4e0" y="177.775248"/>
     <use style="stroke:#000000;" x="164.192244" xlink:href="#m0ea3e9c4e0" y="176.963436"/>
     <use style="stroke:#000000;" x="175.778542" xlink:href="#m0ea3e9c4e0" y="176.151624"/>
     <use style="stroke:#000000;" x="164.073148" xlink:href="#m0ea3e9c4e0" y="175.339812"/>
     <use style="stroke:#000000;" x="181.137843" xlink:href="#m0ea3e9c4e0" y="174.528"/>
     <use style="stroke:#000000;" x="176.680266" xlink:href="#m0ea3e9c4e0" y="173.716188"/>
     <use style="stroke:#000000;" x="176.56117" xlink:href="#m0ea3e9c4e0" y="172.904376"/>
     <use style="stroke:#000000;" x="176.952484" xlink:href="#m0ea3e9c4e0" y="172.092564"/>
     <use style="stroke:#000000;" x="179.011136" xlink:href="#m0ea3e9c4e0" y="171.280752"/>
     <use style="stroke:#000000;" x="198.389688" xlink:href="#m0ea3e9c4e0" y="170.46894"/>
     <use style="stroke:#000000;" x="207.355884" xlink:href="#m0ea3e9c4e0" y="169.657128"/>
     <use style="stroke:#000000;" x="208.529826" xlink:href="#m0ea3e9c4e0" y="168.845315"/>
     <use style="stroke:#000000;" x="185.306188" xlink:href="#m0ea3e9c4e0" y="168.033503"/>
     <use style="stroke:#000000;" x="208.087471" xlink:href="#m0ea3e9c4e0" y="167.221691"/>
     <use style="stroke:#000000;" x="180.270147" xlink:href="#m0ea3e9c4e0" y="166.409879"/>
     <use style="stroke:#000000;" x="214.263427" xlink:href="#m0ea3e9c4e0" y="165.598067"/>
     <use style="stroke:#000000;" x="191.754363" xlink:href="#m0ea3e9c4e0" y="164.786255"/>
     <use style="stroke:#000000;" x="189.45752" xlink:href="#m0ea3e9c4e0" y="163.974443"/>
     <use style="stroke:#000000;" x="202.35387" xlink:href="#m0ea3e9c4e0" y="163.162631"/>
     <use style="stroke:#000000;" x="208.938154" xlink:href="#m0ea3e9c4e0" y="162.350819"/>
     <use style="stroke:#000000;" x="191.669295" xlink:href="#m0ea3e9c4e0" y="161.539007"/>
     <use style="stroke:#000000;" x="187.092622" xlink:href="#m0ea3e9c4e0" y="160.727195"/>
     <use style="stroke:#000000;" x="185.799584" xlink:href="#m0ea3e9c4e0" y="159.915383"/>
     <use style="stroke:#000000;" x="175.183064" xlink:href="#m0ea3e9c4e0" y="159.10357"/>
     <use style="stroke:#000000;" x="191.363049" xlink:href="#m0ea3e9c4e0" y="158.291758"/>
     <use style="stroke:#000000;" x="185.03397" xlink:href="#m0ea3e9c4e0" y="157.479946"/>
     <use style="stroke:#000000;" x="185.016956" xlink:href="#m0ea3e9c4e0" y="156.668134"/>
     <use style="stroke:#000000;" x="191.618254" xlink:href="#m0ea3e9c4e0" y="155.856322"/>
     <use style="stroke:#000000;" x="199.716753" xlink:href="#m0ea3e9c4e0" y="155.04451"/>
     <use style="stroke:#000000;" x="202.932334" xlink:href="#m0ea3e9c4e0" y="154.232698"/>
     <use style="stroke:#000000;" x="192.11165" xlink:href="#m0ea3e9c4e0" y="153.420886"/>
     <use style="stroke:#000000;" x="192.707128" xlink:href="#m0ea3e9c4e0" y="152.609074"/>
     <use style="stroke:#000000;" x="219.639742" xlink:href="#m0ea3e9c4e0" y="151.797262"/>
     <use style="stroke:#000000;" x="216.083888" xlink:href="#m0ea3e9c4e0" y="150.98545"/>
     <use style="stroke:#000000;" x="202.115678" xlink:href="#m0ea3e9c4e0" y="150.173638"/>
     <use style="stroke:#000000;" x="192.2988" xlink:href="#m0ea3e9c4e0" y="149.361826"/>
     <use style="stroke:#000000;" x="201.316037" xlink:href="#m0ea3e9c4e0" y="148.550013"/>
     <use style="stroke:#000000;" x="228.912183" xlink:href="#m0ea3e9c4e0" y="147.738201"/>
     <use style="stroke:#000000;" x="218.772046" xlink:href="#m0ea3e9c4e0" y="146.926389"/>
     <use style="stroke:#000000;" x="230.681603" xlink:href="#m0ea3e9c4e0" y="146.114577"/>
     <use style="stroke:#000000;" x="203.408716" xlink:href="#m0ea3e9c4e0" y="145.302765"/>
     <use style="stroke:#000000;" x="227.6872" xlink:href="#m0ea3e9c4e0" y="144.490953"/>
     <use style="stroke:#000000;" x="221.596312" xlink:href="#m0ea3e9c4e0" y="143.679141"/>
     <use style="stroke:#000000;" x="216.985612" xlink:href="#m0ea3e9c4e0" y="142.867329"/>
     <use style="stroke:#000000;" x="275.682718" xlink:href="#m0ea3e9c4e0" y="142.055517"/>
     <use style="stroke:#000000;" x="206.845474" xlink:href="#m0ea3e9c4e0" y="141.243705"/>
     <use style="stroke:#000000;" x="221.715408" xlink:href="#m0ea3e9c4e0" y="140.431893"/>
     <use style="stroke:#000000;" x="227.159777" xlink:href="#m0ea3e9c4e0" y="139.620081"/>
     <use style="stroke:#000000;" x="231.157986" xlink:href="#m0ea3e9c4e0" y="138.808268"/>
     <use style="stroke:#000000;" x="214.73981" xlink:href="#m0ea3e9c4e0" y="137.996456"/>
     <use style="stroke:#000000;" x="238.252679" xlink:href="#m0ea3e9c4e0" y="137.184644"/>
     <use style="stroke:#000000;" x="248.511913" xlink:href="#m0ea3e9c4e0" y="136.372832"/>
     <use style="stroke:#000000;" x="224.488633" xlink:href="#m0ea3e9c4e0" y="135.56102"/>
     <use style="stroke:#000000;" x="227.210818" xlink:href="#m0ea3e9c4e0" y="134.749208"/>
     <use style="stroke:#000000;" x="218.755032" xlink:href="#m0ea3e9c4e0" y="133.937396"/>
     <use style="stroke:#000000;" x="255.742716" xlink:href="#m0ea3e9c4e0" y="133.125584"/>
     <use style="stroke:#000000;" x="217.649144" xlink:href="#m0ea3e9c4e0" y="132.313772"/>
     <use style="stroke:#000000;" x="226.189999" xlink:href="#m0ea3e9c4e0" y="131.50196"/>
     <use style="stroke:#000000;" x="208.563853" xlink:href="#m0ea3e9c4e0" y="130.690148"/>
     <use style="stroke:#000000;" x="238.371775" xlink:href="#m0ea3e9c4e0" y="129.878336"/>
     <use style="stroke:#000000;" x="225.934794" xlink:href="#m0ea3e9c4e0" y="129.066523"/>
     <use style="stroke:#000000;" x="234.747867" xlink:href="#m0ea3e9c4e0" y="128.254711"/>
     <use style="stroke:#000000;" x="240.95785" xlink:href="#m0ea3e9c4e0" y="127.442899"/>
     <use style="stroke:#000000;" x="218.925169" xlink:href="#m0ea3e9c4e0" y="126.631087"/>
     <use style="stroke:#000000;" x="224.948002" xlink:href="#m0ea3e9c4e0" y="125.819275"/>
     <use style="stroke:#000000;" x="263.671079" xlink:href="#m0ea3e9c4e0" y="125.007463"/>
     <use style="stroke:#000000;" x="228.486842" xlink:href="#m0ea3e9c4e0" y="124.195651"/>
     <use style="stroke:#000000;" x="238.456843" xlink:href="#m0ea3e9c4e0" y="123.383839"/>
     <use style="stroke:#000000;" x="240.889796" xlink:href="#m0ea3e9c4e0" y="122.572027"/>
     <use style="stroke:#000000;" x="238.150598" xlink:href="#m0ea3e9c4e0" y="121.760215"/>
     <use style="stroke:#000000;" x="282.48818" xlink:href="#m0ea3e9c4e0" y="120.948403"/>
     <use style="stroke:#000000;" x="235.071126" xlink:href="#m0ea3e9c4e0" y="120.136591"/>
     <use style="stroke:#000000;" x="238.337748" xlink:href="#m0ea3e9c4e0" y="119.324779"/>
     <use style="stroke:#000000;" x="265.389458" xlink:href="#m0ea3e9c4e0" y="118.512966"/>
     <use style="stroke:#000000;" x="265.695703" xlink:href="#m0ea3e9c4e0" y="117.701154"/>
     <use style="stroke:#000000;" x="273.675107" xlink:href="#m0ea3e9c4e0" y="116.889342"/>
     <use style="stroke:#000000;" x="242.267902" xlink:href="#m0ea3e9c4e0" y="116.07753"/>
     <use style="stroke:#000000;" x="282.454153" xlink:href="#m0ea3e9c4e0" y="115.265718"/>
     <use style="stroke:#000000;" x="252.186862" xlink:href="#m0ea3e9c4e0" y="114.453906"/>
     <use style="stroke:#000000;" x="228.486842" xlink:href="#m0ea3e9c4e0" y="113.642094"/>
     <use style="stroke:#000000;" x="254.960088" xlink:href="#m0ea3e9c4e0" y="112.830282"/>
     <use style="stroke:#000000;" x="253.820173" xlink:href="#m0ea3e9c4e0" y="112.01847"/>
     <use style="stroke:#000000;" x="254.04135" xlink:href="#m0ea3e9c4e0" y="111.206658"/>
     <use style="stroke:#000000;" x="270.136267" xlink:href="#m0ea3e9c4e0" y="110.394846"/>
     <use style="stroke:#000000;" x="261.697495" xlink:href="#m0ea3e9c4e0" y="109.583034"/>
     <use style="stroke:#000000;" x="273.31782" xlink:href="#m0ea3e9c4e0" y="108.771221"/>
     <use style="stroke:#000000;" x="283.815245" xlink:href="#m0ea3e9c4e0" y="107.959409"/>
     <use style="stroke:#000000;" x="277.247974" xlink:href="#m0ea3e9c4e0" y="107.147597"/>
     <use style="stroke:#000000;" x="281.348265" xlink:href="#m0ea3e9c4e0" y="106.335785"/>
     <use style="stroke:#000000;" x="293.768232" xlink:href="#m0ea3e9c4e0" y="105.523973"/>
     <use style="stroke:#000000;" x="282.335057" xlink:href="#m0ea3e9c4e0" y="104.712161"/>
     <use style="stroke:#000000;" x="284.189545" xlink:href="#m0ea3e9c4e0" y="103.900349"/>
     <use style="stroke:#000000;" x="272.739356" xlink:href="#m0ea3e9c4e0" y="103.088537"/>
     <use style="stroke:#000000;" x="276.788606" xlink:href="#m0ea3e9c4e0" y="102.276725"/>
     <use style="stroke:#000000;" x="308.195811" xlink:href="#m0ea3e9c4e0" y="101.464913"/>
     <use style="stroke:#000000;" x="282.215961" xlink:href="#m0ea3e9c4e0" y="100.653101"/>
     <use style="stroke:#000000;" x="279.953145" xlink:href="#m0ea3e9c4e0" y="99.841289"/>
     <use style="stroke:#000000;" x="270.408485" xlink:href="#m0ea3e9c4e0" y="99.029477"/>
     <use style="stroke:#000000;" x="265.746744" xlink:href="#m0ea3e9c4e0" y="98.217664"/>
     <use style="stroke:#000000;" x="282.471166" xlink:href="#m0ea3e9c4e0" y="97.405852"/>
     <use style="stroke:#000000;" x="265.525567" xlink:href="#m0ea3e9c4e0" y="96.59404"/>
     <use style="stroke:#000000;" x="269.438707" xlink:href="#m0ea3e9c4e0" y="95.782228"/>
     <use style="stroke:#000000;" x="305.967022" xlink:href="#m0ea3e9c4e0" y="94.970416"/>
     <use style="stroke:#000000;" x="265.899867" xlink:href="#m0ea3e9c4e0" y="94.158604"/>
     <use style="stroke:#000000;" x="346.391464" xlink:href="#m0ea3e9c4e0" y="93.346792"/>
     <use style="stroke:#000000;" x="287.439153" xlink:href="#m0ea3e9c4e0" y="92.53498"/>
     <use style="stroke:#000000;" x="294.346697" xlink:href="#m0ea3e9c4e0" y="91.723168"/>
     <use style="stroke:#000000;" x="265.644662" xlink:href="#m0ea3e9c4e0" y="90.911356"/>
     <use style="stroke:#000000;" x="284.172532" xlink:href="#m0ea3e9c4e0" y="90.099544"/>
     <use style="stroke:#000000;" x="318.931427" xlink:href="#m0ea3e9c4e0" y="89.287732"/>
     <use style="stroke:#000000;" x="319.050522" xlink:href="#m0ea3e9c4e0" y="88.475919"/>
     <use style="stroke:#000000;" x="326.247298" xlink:href="#m0ea3e9c4e0" y="87.664107"/>
     <use style="stroke:#000000;" x="280.90591" xlink:href="#m0ea3e9c4e0" y="86.852295"/>
     <use style="stroke:#000000;" x="296.167158" xlink:href="#m0ea3e9c4e0" y="86.040483"/>
     <use style="stroke:#000000;" x="332.423254" xlink:href="#m0ea3e9c4e0" y="85.228671"/>
     <use style="stroke:#000000;" x="363.081859" xlink:href="#m0ea3e9c4e0" y="84.416859"/>
     <use style="stroke:#000000;" x="309.658985" xlink:href="#m0ea3e9c4e0" y="83.605047"/>
     <use style="stroke:#000000;" x="365.310647" xlink:href="#m0ea3e9c4e0" y="82.793235"/>
     <use style="stroke:#000000;" x="311.751665" xlink:href="#m0ea3e9c4e0" y="81.981423"/>
     <use style="stroke:#000000;" x="342.342215" xlink:href="#m0ea3e9c4e0" y="81.169611"/>
     <use style="stroke:#000000;" x="304.827108" xlink:href="#m0ea3e9c4e0" y="80.357799"/>
     <use style="stroke:#000000;" x="301.186186" xlink:href="#m0ea3e9c4e0" y="79.545987"/>
     <use style="stroke:#000000;" x="346.374451" xlink:href="#m0ea3e9c4e0" y="78.734174"/>
     <use style="stroke:#000000;" x="346.051191" xlink:href="#m0ea3e9c4e0" y="77.922362"/>
     <use style="stroke:#000000;" x="332.338186" xlink:href="#m0ea3e9c4e0" y="77.11055"/>
     <use style="stroke:#000000;" x="329.054551" xlink:href="#m0ea3e9c4e0" y="76.298738"/>
     <use style="stroke:#000000;" x="348.211925" xlink:href="#m0ea3e9c4e0" y="75.486926"/>
     <use style="stroke:#000000;" x="290.26342" xlink:href="#m0ea3e9c4e0" y="74.675114"/>
     <use style="stroke:#000000;" x="363.013804" xlink:href="#m0ea3e9c4e0" y="73.863302"/>
     <use style="stroke:#000000;" x="339.10962" xlink:href="#m0ea3e9c4e0" y="73.05149"/>
     <use style="stroke:#000000;" x="362.775613" xlink:href="#m0ea3e9c4e0" y="72.239678"/>
     <use style="stroke:#000000;" x="332.559364" xlink:href="#m0ea3e9c4e0" y="71.427866"/>
     <use style="stroke:#000000;" x="332.610404" xlink:href="#m0ea3e9c4e0" y="70.616054"/>
     <use style="stroke:#000000;" x="362.877695" xlink:href="#m0ea3e9c4e0" y="69.804242"/>
     <use style="stroke:#000000;" x="389.367954" xlink:href="#m0ea3e9c4e0" y="68.99243"/>
     <use style="stroke:#000000;" x="326.689653" xlink:href="#m0ea3e9c4e0" y="68.180617"/>
     <use style="stroke:#000000;" x="391.494661" xlink:href="#m0ea3e9c4e0" y="67.368805"/>
     <use style="stroke:#000000;" x="357.331244" xlink:href="#m0ea3e9c4e0" y="66.556993"/>
     <use style="stroke:#000000;" x="332.91665" xlink:href="#m0ea3e9c4e0" y="65.745181"/>
     <use style="stroke:#000000;" x="357.892694" xlink:href="#m0ea3e9c4e0" y="64.933369"/>
     <use style="stroke:#000000;" x="339.126634" xlink:href="#m0ea3e9c4e0" y="64.121557"/>
     <use style="stroke:#000000;" x="338.752334" xlink:href="#m0ea3e9c4e0" y="63.309745"/>
     <use style="stroke:#000000;" x="370.738003" xlink:href="#m0ea3e9c4e0" y="62.497933"/>
     <use style="stroke:#000000;" x="377.305274" xlink:href="#m0ea3e9c4e0" y="61.686121"/>
     <use style="stroke:#000000;" x="389.061708" xlink:href="#m0ea3e9c4e0" y="60.874309"/>
     <use style="stroke:#000000;" x="391.562716" xlink:href="#m0ea3e9c4e0" y="60.062497"/>
     <use style="stroke:#000000;" x="356.871875" xlink:href="#m0ea3e9c4e0" y="59.250685"/>
     <use style="stroke:#000000;" x="398.487273" xlink:href="#m0ea3e9c4e0" y="58.438872"/>
     <use style="stroke:#000000;" x="391.154388" xlink:href="#m0ea3e9c4e0" y="57.62706"/>
     <use style="stroke:#000000;" x="390.74606" xlink:href="#m0ea3e9c4e0" y="53.568"/>
    </g>
   </g>
   <g id="patch_3">
    <path d="M 57.6 307.584 
L 57.6 41.472 
" style="fill:none;stroke:#000000;stroke-linecap:square;stroke-linejoin:miter;stroke-width:0.8;"/>
   </g>
   <g id="patch_4">
    <path d="M 414.72 307.584 
L 414.72 41.472 
" style="fill:none;stroke:#000000;stroke-linecap:square;stroke-linejoin:miter;stroke-width:0.8;"/>
   </g>
   <g id="patch_5">
    <path d="M 57.6 307.584 
L 414.72 307.584 
" style="fill:none;stroke:#000000;stroke-linecap:square;stroke-linejoin:miter;stroke-width:0.8;"/>
   </g>
   <g id="patch_6">
    <path d="M 57.6 41.472 
L 414.72 41.472 
" style="fill:none;stroke:#000000;stroke-linecap:square;stroke-linejoin:miter;stroke-width:0.8;"/>
   </g>
  </g>
 </g>
 <defs>
  <clipPath id="p27ec56108d">
   <rect height="266.112" width="357.12" x="57.6" y="41.472"/>
  </clipPath>
 </defs>
</svg>
