<?xml version="1.0" encoding="utf-8" standalone="no"?>
<!DOCTYPE svg PUBLIC "-//W3C//DTD SVG 1.1//EN"
  "http://www.w3.org/Graphics/SVG/1.1/DTD/svg11.dtd">
<!-- Created with matplotlib (https://matplotlib.org/) -->
<svg height="345.6pt" version="1.1" viewBox="0 0 460.8 345.6" width="460.8pt" xmlns="http://www.w3.org/2000/svg" xmlns:xlink="http://www.w3.org/1999/xlink">
 <defs>
  <style type="text/css">
*{stroke-linecap:butt;stroke-linejoin:round;}
  </style>
 </defs>
 <g id="figure_1">
  <g id="patch_1">
   <path d="M 0 345.6 
L 460.8 345.6 
L 460.8 0 
L 0 0 
z
" style="fill:#ffffff;"/>
  </g>
  <g id="axes_1">
   <g id="patch_2">
    <path d="M 57.6 307.584 
L 414.72 307.584 
L 414.72 41.472 
L 57.6 41.472 
z
" style="fill:#ffffff;"/>
   </g>
   <g id="matplotlib.axis_1">
    <g id="xtick_1">
     <g id="line2d_1">
      <defs>
       <path d="M 0 0 
L 0 3.5 
" id="m527fafb958" style="stroke:#000000;stroke-width:0.8;"/>
      </defs>
      <g>
       <use style="stroke:#000000;stroke-width:0.8;" x="73.832727" xlink:href="#m527fafb958" y="307.584"/>
      </g>
     </g>
     <g id="text_1">
      <!-- 0 -->
      <defs>
       <path d="M 31.78125 66.40625 
Q 24.171875 66.40625 20.328125 58.90625 
Q 16.5 51.421875 16.5 36.375 
Q 16.5 21.390625 20.328125 13.890625 
Q 24.171875 6.390625 31.78125 6.390625 
Q 39.453125 6.390625 43.28125 13.890625 
Q 47.125 21.390625 47.125 36.375 
Q 47.125 51.421875 43.28125 58.90625 
Q 39.453125 66.40625 31.78125 66.40625 
z
M 31.78125 74.21875 
Q 44.046875 74.21875 50.515625 64.515625 
Q 56.984375 54.828125 56.984375 36.375 
Q 56.984375 17.96875 50.515625 8.265625 
Q 44.046875 -1.421875 31.78125 -1.421875 
Q 19.53125 -1.421875 13.0625 8.265625 
Q 6.59375 17.96875 6.59375 36.375 
Q 6.59375 54.828125 13.0625 64.515625 
Q 19.53125 74.21875 31.78125 74.21875 
z
" id="DejaVuSans-48"/>
      </defs>
      <g transform="translate(70.651477 322.182437)scale(0.1 -0.1)">
       <use xlink:href="#DejaVuSans-48"/>
      </g>
     </g>
    </g>
    <g id="xtick_2">
     <g id="line2d_2">
      <g>
       <use style="stroke:#000000;stroke-width:0.8;" x="114.41556" xlink:href="#m527fafb958" y="307.584"/>
      </g>
     </g>
     <g id="text_2">
      <!-- 250 -->
      <defs>
       <path d="M 19.1875 8.296875 
L 53.609375 8.296875 
L 53.609375 0 
L 7.328125 0 
L 7.328125 8.296875 
Q 12.9375 14.109375 22.625 23.890625 
Q 32.328125 33.6875 34.8125 36.53125 
Q 39.546875 41.84375 41.421875 45.53125 
Q 43.3125 49.21875 43.3125 52.78125 
Q 43.3125 58.59375 39.234375 62.25 
Q 35.15625 65.921875 28.609375 65.921875 
Q 23.96875 65.921875 18.8125 64.3125 
Q 13.671875 62.703125 7.8125 59.421875 
L 7.8125 69.390625 
Q 13.765625 71.78125 18.9375 73 
Q 24.125 74.21875 28.421875 74.21875 
Q 39.75 74.21875 46.484375 68.546875 
Q 53.21875 62.890625 53.21875 53.421875 
Q 53.21875 48.921875 51.53125 44.890625 
Q 49.859375 40.875 45.40625 35.40625 
Q 44.1875 33.984375 37.640625 27.21875 
Q 31.109375 20.453125 19.1875 8.296875 
z
" id="DejaVuSans-50"/>
       <path d="M 10.796875 72.90625 
L 49.515625 72.90625 
L 49.515625 64.59375 
L 19.828125 64.59375 
L 19.828125 46.734375 
Q 21.96875 47.46875 24.109375 47.828125 
Q 26.265625 48.1875 28.421875 48.1875 
Q 40.625 48.1875 47.75 41.5 
Q 54.890625 34.8125 54.890625 23.390625 
Q 54.890625 11.625 47.5625 5.09375 
Q 40.234375 -1.421875 26.90625 -1.421875 
Q 22.3125 -1.421875 17.546875 -0.640625 
Q 12.796875 0.140625 7.71875 1.703125 
L 7.71875 11.625 
Q 12.109375 9.234375 16.796875 8.0625 
Q 21.484375 6.890625 26.703125 6.890625 
Q 35.15625 6.890625 40.078125 11.328125 
Q 45.015625 15.765625 45.015625 23.390625 
Q 45.015625 31 40.078125 35.4375 
Q 35.15625 39.890625 26.703125 39.890625 
Q 22.75 39.890625 18.8125 39.015625 
Q 14.890625 38.140625 10.796875 36.28125 
z
" id="DejaVuSans-53"/>
      </defs>
      <g transform="translate(104.87181 322.182437)scale(0.1 -0.1)">
       <use xlink:href="#DejaVuSans-50"/>
       <use x="63.623047" xlink:href="#DejaVuSans-53"/>
       <use x="127.246094" xlink:href="#DejaVuSans-48"/>
      </g>
     </g>
    </g>
    <g id="xtick_3">
     <g id="line2d_3">
      <g>
       <use style="stroke:#000000;stroke-width:0.8;" x="154.998393" xlink:href="#m527fafb958" y="307.584"/>
      </g>
     </g>
     <g id="text_3">
      <!-- 500 -->
      <g transform="translate(145.454643 322.182437)scale(0.1 -0.1)">
       <use xlink:href="#DejaVuSans-53"/>
       <use x="63.623047" xlink:href="#DejaVuSans-48"/>
       <use x="127.246094" xlink:href="#DejaVuSans-48"/>
      </g>
     </g>
    </g>
    <g id="xtick_4">
     <g id="line2d_4">
      <g>
       <use style="stroke:#000000;stroke-width:0.8;" x="195.581226" xlink:href="#m527fafb958" y="307.584"/>
      </g>
     </g>
     <g id="text_4">
      <!-- 750 -->
      <defs>
       <path d="M 8.203125 72.90625 
L 55.078125 72.90625 
L 55.078125 68.703125 
L 28.609375 0 
L 18.3125 0 
L 43.21875 64.59375 
L 8.203125 64.59375 
z
" id="DejaVuSans-55"/>
      </defs>
      <g transform="translate(186.037476 322.182437)scale(0.1 -0.1)">
       <use xlink:href="#DejaVuSans-55"/>
       <use x="63.623047" xlink:href="#DejaVuSans-53"/>
       <use x="127.246094" xlink:href="#DejaVuSans-48"/>
      </g>
     </g>
    </g>
    <g id="xtick_5">
     <g id="line2d_5">
      <g>
       <use style="stroke:#000000;stroke-width:0.8;" x="236.164058" xlink:href="#m527fafb958" y="307.584"/>
      </g>
     </g>
     <g id="text_5">
      <!-- 1000 -->
      <defs>
       <path d="M 12.40625 8.296875 
L 28.515625 8.296875 
L 28.515625 63.921875 
L 10.984375 60.40625 
L 10.984375 69.390625 
L 28.421875 72.90625 
L 38.28125 72.90625 
L 38.28125 8.296875 
L 54.390625 8.296875 
L 54.390625 0 
L 12.40625 0 
z
" id="DejaVuSans-49"/>
      </defs>
      <g transform="translate(223.439058 322.182437)scale(0.1 -0.1)">
       <use xlink:href="#DejaVuSans-49"/>
       <use x="63.623047" xlink:href="#DejaVuSans-48"/>
       <use x="127.246094" xlink:href="#DejaVuSans-48"/>
       <use x="190.869141" xlink:href="#DejaVuSans-48"/>
      </g>
     </g>
    </g>
    <g id="xtick_6">
     <g id="line2d_6">
      <g>
       <use style="stroke:#000000;stroke-width:0.8;" x="276.746891" xlink:href="#m527fafb958" y="307.584"/>
      </g>
     </g>
     <g id="text_6">
      <!-- 1250 -->
      <g transform="translate(264.021891 322.182437)scale(0.1 -0.1)">
       <use xlink:href="#DejaVuSans-49"/>
       <use x="63.623047" xlink:href="#DejaVuSans-50"/>
       <use x="127.246094" xlink:href="#DejaVuSans-53"/>
       <use x="190.869141" xlink:href="#DejaVuSans-48"/>
      </g>
     </g>
    </g>
    <g id="xtick_7">
     <g id="line2d_7">
      <g>
       <use style="stroke:#000000;stroke-width:0.8;" x="317.329724" xlink:href="#m527fafb958" y="307.584"/>
      </g>
     </g>
     <g id="text_7">
      <!-- 1500 -->
      <g transform="translate(304.604724 322.182437)scale(0.1 -0.1)">
       <use xlink:href="#DejaVuSans-49"/>
       <use x="63.623047" xlink:href="#DejaVuSans-53"/>
       <use x="127.246094" xlink:href="#DejaVuSans-48"/>
       <use x="190.869141" xlink:href="#DejaVuSans-48"/>
      </g>
     </g>
    </g>
    <g id="xtick_8">
     <g id="line2d_8">
      <g>
       <use style="stroke:#000000;stroke-width:0.8;" x="357.912557" xlink:href="#m527fafb958" y="307.584"/>
      </g>
     </g>
     <g id="text_8">
      <!-- 1750 -->
      <g transform="translate(345.187557 322.182437)scale(0.1 -0.1)">
       <use xlink:href="#DejaVuSans-49"/>
       <use x="63.623047" xlink:href="#DejaVuSans-55"/>
       <use x="127.246094" xlink:href="#DejaVuSans-53"/>
       <use x="190.869141" xlink:href="#DejaVuSans-48"/>
      </g>
     </g>
    </g>
    <g id="xtick_9">
     <g id="line2d_9">
      <g>
       <use style="stroke:#000000;stroke-width:0.8;" x="398.495389" xlink:href="#m527fafb958" y="307.584"/>
      </g>
     </g>
     <g id="text_9">
      <!-- 2000 -->
      <g transform="translate(385.770389 322.182437)scale(0.1 -0.1)">
       <use xlink:href="#DejaVuSans-50"/>
       <use x="63.623047" xlink:href="#DejaVuSans-48"/>
       <use x="127.246094" xlink:href="#DejaVuSans-48"/>
       <use x="190.869141" xlink:href="#DejaVuSans-48"/>
      </g>
     </g>
    </g>
    <g id="text_10">
     <!-- Tempo (ms) -->
     <defs>
      <path d="M -0.296875 72.90625 
L 61.375 72.90625 
L 61.375 64.59375 
L 35.5 64.59375 
L 35.5 0 
L 25.59375 0 
L 25.59375 64.59375 
L -0.296875 64.59375 
z
" id="DejaVuSans-84"/>
      <path d="M 56.203125 29.59375 
L 56.203125 25.203125 
L 14.890625 25.203125 
Q 15.484375 15.921875 20.484375 11.0625 
Q 25.484375 6.203125 34.421875 6.203125 
Q 39.59375 6.203125 44.453125 7.46875 
Q 49.3125 8.734375 54.109375 11.28125 
L 54.109375 2.78125 
Q 49.265625 0.734375 44.1875 -0.34375 
Q 39.109375 -1.421875 33.890625 -1.421875 
Q 20.796875 -1.421875 13.15625 6.1875 
Q 5.515625 13.8125 5.515625 26.8125 
Q 5.515625 40.234375 12.765625 48.109375 
Q 20.015625 56 32.328125 56 
Q 43.359375 56 49.78125 48.890625 
Q 56.203125 41.796875 56.203125 29.59375 
z
M 47.21875 32.234375 
Q 47.125 39.59375 43.09375 43.984375 
Q 39.0625 48.390625 32.421875 48.390625 
Q 24.90625 48.390625 20.390625 44.140625 
Q 15.875 39.890625 15.1875 32.171875 
z
" id="DejaVuSans-101"/>
      <path d="M 52 44.1875 
Q 55.375 50.25 60.0625 53.125 
Q 64.75 56 71.09375 56 
Q 79.640625 56 84.28125 50.015625 
Q 88.921875 44.046875 88.921875 33.015625 
L 88.921875 0 
L 79.890625 0 
L 79.890625 32.71875 
Q 79.890625 40.578125 77.09375 44.375 
Q 74.3125 48.1875 68.609375 48.1875 
Q 61.625 48.1875 57.5625 43.546875 
Q 53.515625 38.921875 53.515625 30.90625 
L 53.515625 0 
L 44.484375 0 
L 44.484375 32.71875 
Q 44.484375 40.625 41.703125 44.40625 
Q 38.921875 48.1875 33.109375 48.1875 
Q 26.21875 48.1875 22.15625 43.53125 
Q 18.109375 38.875 18.109375 30.90625 
L 18.109375 0 
L 9.078125 0 
L 9.078125 54.6875 
L 18.109375 54.6875 
L 18.109375 46.1875 
Q 21.1875 51.21875 25.484375 53.609375 
Q 29.78125 56 35.6875 56 
Q 41.65625 56 45.828125 52.96875 
Q 50 49.953125 52 44.1875 
z
" id="DejaVuSans-109"/>
      <path d="M 18.109375 8.203125 
L 18.109375 -20.796875 
L 9.078125 -20.796875 
L 9.078125 54.6875 
L 18.109375 54.6875 
L 18.109375 46.390625 
Q 20.953125 51.265625 25.265625 53.625 
Q 29.59375 56 35.59375 56 
Q 45.5625 56 51.78125 48.09375 
Q 58.015625 40.1875 58.015625 27.296875 
Q 58.015625 14.40625 51.78125 6.484375 
Q 45.5625 -1.421875 35.59375 -1.421875 
Q 29.59375 -1.421875 25.265625 0.953125 
Q 20.953125 3.328125 18.109375 8.203125 
z
M 48.6875 27.296875 
Q 48.6875 37.203125 44.609375 42.84375 
Q 40.53125 48.484375 33.40625 48.484375 
Q 26.265625 48.484375 22.1875 42.84375 
Q 18.109375 37.203125 18.109375 27.296875 
Q 18.109375 17.390625 22.1875 11.75 
Q 26.265625 6.109375 33.40625 6.109375 
Q 40.53125 6.109375 44.609375 11.75 
Q 48.6875 17.390625 48.6875 27.296875 
z
" id="DejaVuSans-112"/>
      <path d="M 30.609375 48.390625 
Q 23.390625 48.390625 19.1875 42.75 
Q 14.984375 37.109375 14.984375 27.296875 
Q 14.984375 17.484375 19.15625 11.84375 
Q 23.34375 6.203125 30.609375 6.203125 
Q 37.796875 6.203125 41.984375 11.859375 
Q 46.1875 17.53125 46.1875 27.296875 
Q 46.1875 37.015625 41.984375 42.703125 
Q 37.796875 48.390625 30.609375 48.390625 
z
M 30.609375 56 
Q 42.328125 56 49.015625 48.375 
Q 55.71875 40.765625 55.71875 27.296875 
Q 55.71875 13.875 49.015625 6.21875 
Q 42.328125 -1.421875 30.609375 -1.421875 
Q 18.84375 -1.421875 12.171875 6.21875 
Q 5.515625 13.875 5.515625 27.296875 
Q 5.515625 40.765625 12.171875 48.375 
Q 18.84375 56 30.609375 56 
z
" id="DejaVuSans-111"/>
      <path id="DejaVuSans-32"/>
      <path d="M 31 75.875 
Q 24.46875 64.65625 21.28125 53.65625 
Q 18.109375 42.671875 18.109375 31.390625 
Q 18.109375 20.125 21.3125 9.0625 
Q 24.515625 -2 31 -13.1875 
L 23.1875 -13.1875 
Q 15.875 -1.703125 12.234375 9.375 
Q 8.59375 20.453125 8.59375 31.390625 
Q 8.59375 42.28125 12.203125 53.3125 
Q 15.828125 64.359375 23.1875 75.875 
z
" id="DejaVuSans-40"/>
      <path d="M 44.28125 53.078125 
L 44.28125 44.578125 
Q 40.484375 46.53125 36.375 47.5 
Q 32.28125 48.484375 27.875 48.484375 
Q 21.1875 48.484375 17.84375 46.4375 
Q 14.5 44.390625 14.5 40.28125 
Q 14.5 37.15625 16.890625 35.375 
Q 19.28125 33.59375 26.515625 31.984375 
L 29.59375 31.296875 
Q 39.15625 29.25 43.1875 25.515625 
Q 47.21875 21.78125 47.21875 15.09375 
Q 47.21875 7.46875 41.1875 3.015625 
Q 35.15625 -1.421875 24.609375 -1.421875 
Q 20.21875 -1.421875 15.453125 -0.5625 
Q 10.6875 0.296875 5.421875 2 
L 5.421875 11.28125 
Q 10.40625 8.6875 15.234375 7.390625 
Q 20.0625 6.109375 24.8125 6.109375 
Q 31.15625 6.109375 34.5625 8.28125 
Q 37.984375 10.453125 37.984375 14.40625 
Q 37.984375 18.0625 35.515625 20.015625 
Q 33.0625 21.96875 24.703125 23.78125 
L 21.578125 24.515625 
Q 13.234375 26.265625 9.515625 29.90625 
Q 5.8125 33.546875 5.8125 39.890625 
Q 5.8125 47.609375 11.28125 51.796875 
Q 16.75 56 26.8125 56 
Q 31.78125 56 36.171875 55.265625 
Q 40.578125 54.546875 44.28125 53.078125 
z
" id="DejaVuSans-115"/>
      <path d="M 8.015625 75.875 
L 15.828125 75.875 
Q 23.140625 64.359375 26.78125 53.3125 
Q 30.421875 42.28125 30.421875 31.390625 
Q 30.421875 20.453125 26.78125 9.375 
Q 23.140625 -1.703125 15.828125 -13.1875 
L 8.015625 -13.1875 
Q 14.5 -2 17.703125 9.0625 
Q 20.90625 20.125 20.90625 31.390625 
Q 20.90625 42.671875 17.703125 53.65625 
Q 14.5 64.65625 8.015625 75.875 
z
" id="DejaVuSans-41"/>
     </defs>
     <g transform="translate(205.973281 335.860562)scale(0.1 -0.1)">
      <use xlink:href="#DejaVuSans-84"/>
      <use x="60.818359" xlink:href="#DejaVuSans-101"/>
      <use x="122.341797" xlink:href="#DejaVuSans-109"/>
      <use x="219.753906" xlink:href="#DejaVuSans-112"/>
      <use x="283.230469" xlink:href="#DejaVuSans-111"/>
      <use x="344.412109" xlink:href="#DejaVuSans-32"/>
      <use x="376.199219" xlink:href="#DejaVuSans-40"/>
      <use x="415.212891" xlink:href="#DejaVuSans-109"/>
      <use x="512.625" xlink:href="#DejaVuSans-115"/>
      <use x="564.724609" xlink:href="#DejaVuSans-41"/>
     </g>
    </g>
   </g>
   <g id="matplotlib.axis_2">
    <g id="ytick_1">
     <g id="line2d_10">
      <defs>
       <path d="M 0 0 
L -3.5 0 
" id="mafd7448a3c" style="stroke:#000000;stroke-width:0.8;"/>
      </defs>
      <g>
       <use style="stroke:#000000;stroke-width:0.8;" x="57.6" xlink:href="#mafd7448a3c" y="295.488"/>
      </g>
     </g>
     <g id="text_11">
      <!-- 0.0 -->
      <defs>
       <path d="M 10.6875 12.40625 
L 21 12.40625 
L 21 0 
L 10.6875 0 
z
" id="DejaVuSans-46"/>
      </defs>
      <g transform="translate(34.696875 299.287219)scale(0.1 -0.1)">
       <use xlink:href="#DejaVuSans-48"/>
       <use x="63.623047" xlink:href="#DejaVuSans-46"/>
       <use x="95.410156" xlink:href="#DejaVuSans-48"/>
      </g>
     </g>
    </g>
    <g id="ytick_2">
     <g id="line2d_11">
      <g>
       <use style="stroke:#000000;stroke-width:0.8;" x="57.6" xlink:href="#mafd7448a3c" y="265.202837"/>
      </g>
     </g>
     <g id="text_12">
      <!-- 0.1 -->
      <g transform="translate(34.696875 269.002056)scale(0.1 -0.1)">
       <use xlink:href="#DejaVuSans-48"/>
       <use x="63.623047" xlink:href="#DejaVuSans-46"/>
       <use x="95.410156" xlink:href="#DejaVuSans-49"/>
      </g>
     </g>
    </g>
    <g id="ytick_3">
     <g id="line2d_12">
      <g>
       <use style="stroke:#000000;stroke-width:0.8;" x="57.6" xlink:href="#mafd7448a3c" y="234.917675"/>
      </g>
     </g>
     <g id="text_13">
      <!-- 0.2 -->
      <g transform="translate(34.696875 238.716893)scale(0.1 -0.1)">
       <use xlink:href="#DejaVuSans-48"/>
       <use x="63.623047" xlink:href="#DejaVuSans-46"/>
       <use x="95.410156" xlink:href="#DejaVuSans-50"/>
      </g>
     </g>
    </g>
    <g id="ytick_4">
     <g id="line2d_13">
      <g>
       <use style="stroke:#000000;stroke-width:0.8;" x="57.6" xlink:href="#mafd7448a3c" y="204.632512"/>
      </g>
     </g>
     <g id="text_14">
      <!-- 0.3 -->
      <defs>
       <path d="M 40.578125 39.3125 
Q 47.65625 37.796875 51.625 33 
Q 55.609375 28.21875 55.609375 21.1875 
Q 55.609375 10.40625 48.1875 4.484375 
Q 40.765625 -1.421875 27.09375 -1.421875 
Q 22.515625 -1.421875 17.65625 -0.515625 
Q 12.796875 0.390625 7.625 2.203125 
L 7.625 11.71875 
Q 11.71875 9.328125 16.59375 8.109375 
Q 21.484375 6.890625 26.8125 6.890625 
Q 36.078125 6.890625 40.9375 10.546875 
Q 45.796875 14.203125 45.796875 21.1875 
Q 45.796875 27.640625 41.28125 31.265625 
Q 36.765625 34.90625 28.71875 34.90625 
L 20.21875 34.90625 
L 20.21875 43.015625 
L 29.109375 43.015625 
Q 36.375 43.015625 40.234375 45.921875 
Q 44.09375 48.828125 44.09375 54.296875 
Q 44.09375 59.90625 40.109375 62.90625 
Q 36.140625 65.921875 28.71875 65.921875 
Q 24.65625 65.921875 20.015625 65.03125 
Q 15.375 64.15625 9.8125 62.3125 
L 9.8125 71.09375 
Q 15.4375 72.65625 20.34375 73.4375 
Q 25.25 74.21875 29.59375 74.21875 
Q 40.828125 74.21875 47.359375 69.109375 
Q 53.90625 64.015625 53.90625 55.328125 
Q 53.90625 49.265625 50.4375 45.09375 
Q 46.96875 40.921875 40.578125 39.3125 
z
" id="DejaVuSans-51"/>
      </defs>
      <g transform="translate(34.696875 208.431731)scale(0.1 -0.1)">
       <use xlink:href="#DejaVuSans-48"/>
       <use x="63.623047" xlink:href="#DejaVuSans-46"/>
       <use x="95.410156" xlink:href="#DejaVuSans-51"/>
      </g>
     </g>
    </g>
    <g id="ytick_5">
     <g id="line2d_14">
      <g>
       <use style="stroke:#000000;stroke-width:0.8;" x="57.6" xlink:href="#mafd7448a3c" y="174.347349"/>
      </g>
     </g>
     <g id="text_15">
      <!-- 0.4 -->
      <defs>
       <path d="M 37.796875 64.3125 
L 12.890625 25.390625 
L 37.796875 25.390625 
z
M 35.203125 72.90625 
L 47.609375 72.90625 
L 47.609375 25.390625 
L 58.015625 25.390625 
L 58.015625 17.1875 
L 47.609375 17.1875 
L 47.609375 0 
L 37.796875 0 
L 37.796875 17.1875 
L 4.890625 17.1875 
L 4.890625 26.703125 
z
" id="DejaVuSans-52"/>
      </defs>
      <g transform="translate(34.696875 178.146568)scale(0.1 -0.1)">
       <use xlink:href="#DejaVuSans-48"/>
       <use x="63.623047" xlink:href="#DejaVuSans-46"/>
       <use x="95.410156" xlink:href="#DejaVuSans-52"/>
      </g>
     </g>
    </g>
    <g id="ytick_6">
     <g id="line2d_15">
      <g>
       <use style="stroke:#000000;stroke-width:0.8;" x="57.6" xlink:href="#mafd7448a3c" y="144.062186"/>
      </g>
     </g>
     <g id="text_16">
      <!-- 0.5 -->
      <g transform="translate(34.696875 147.861405)scale(0.1 -0.1)">
       <use xlink:href="#DejaVuSans-48"/>
       <use x="63.623047" xlink:href="#DejaVuSans-46"/>
       <use x="95.410156" xlink:href="#DejaVuSans-53"/>
      </g>
     </g>
    </g>
    <g id="ytick_7">
     <g id="line2d_16">
      <g>
       <use style="stroke:#000000;stroke-width:0.8;" x="57.6" xlink:href="#mafd7448a3c" y="113.777024"/>
      </g>
     </g>
     <g id="text_17">
      <!-- 0.6 -->
      <defs>
       <path d="M 33.015625 40.375 
Q 26.375 40.375 22.484375 35.828125 
Q 18.609375 31.296875 18.609375 23.390625 
Q 18.609375 15.53125 22.484375 10.953125 
Q 26.375 6.390625 33.015625 6.390625 
Q 39.65625 6.390625 43.53125 10.953125 
Q 47.40625 15.53125 47.40625 23.390625 
Q 47.40625 31.296875 43.53125 35.828125 
Q 39.65625 40.375 33.015625 40.375 
z
M 52.59375 71.296875 
L 52.59375 62.3125 
Q 48.875 64.0625 45.09375 64.984375 
Q 41.3125 65.921875 37.59375 65.921875 
Q 27.828125 65.921875 22.671875 59.328125 
Q 17.53125 52.734375 16.796875 39.40625 
Q 19.671875 43.65625 24.015625 45.921875 
Q 28.375 48.1875 33.59375 48.1875 
Q 44.578125 48.1875 50.953125 41.515625 
Q 57.328125 34.859375 57.328125 23.390625 
Q 57.328125 12.15625 50.6875 5.359375 
Q 44.046875 -1.421875 33.015625 -1.421875 
Q 20.359375 -1.421875 13.671875 8.265625 
Q 6.984375 17.96875 6.984375 36.375 
Q 6.984375 53.65625 15.1875 63.9375 
Q 23.390625 74.21875 37.203125 74.21875 
Q 40.921875 74.21875 44.703125 73.484375 
Q 48.484375 72.75 52.59375 71.296875 
z
" id="DejaVuSans-54"/>
      </defs>
      <g transform="translate(34.696875 117.576242)scale(0.1 -0.1)">
       <use xlink:href="#DejaVuSans-48"/>
       <use x="63.623047" xlink:href="#DejaVuSans-46"/>
       <use x="95.410156" xlink:href="#DejaVuSans-54"/>
      </g>
     </g>
    </g>
    <g id="ytick_8">
     <g id="line2d_17">
      <g>
       <use style="stroke:#000000;stroke-width:0.8;" x="57.6" xlink:href="#mafd7448a3c" y="83.491861"/>
      </g>
     </g>
     <g id="text_18">
      <!-- 0.7 -->
      <g transform="translate(34.696875 87.29108)scale(0.1 -0.1)">
       <use xlink:href="#DejaVuSans-48"/>
       <use x="63.623047" xlink:href="#DejaVuSans-46"/>
       <use x="95.410156" xlink:href="#DejaVuSans-55"/>
      </g>
     </g>
    </g>
    <g id="ytick_9">
     <g id="line2d_18">
      <g>
       <use style="stroke:#000000;stroke-width:0.8;" x="57.6" xlink:href="#mafd7448a3c" y="53.206698"/>
      </g>
     </g>
     <g id="text_19">
      <!-- 0.8 -->
      <defs>
       <path d="M 31.78125 34.625 
Q 24.75 34.625 20.71875 30.859375 
Q 16.703125 27.09375 16.703125 20.515625 
Q 16.703125 13.921875 20.71875 10.15625 
Q 24.75 6.390625 31.78125 6.390625 
Q 38.8125 6.390625 42.859375 10.171875 
Q 46.921875 13.96875 46.921875 20.515625 
Q 46.921875 27.09375 42.890625 30.859375 
Q 38.875 34.625 31.78125 34.625 
z
M 21.921875 38.8125 
Q 15.578125 40.375 12.03125 44.71875 
Q 8.5 49.078125 8.5 55.328125 
Q 8.5 64.0625 14.71875 69.140625 
Q 20.953125 74.21875 31.78125 74.21875 
Q 42.671875 74.21875 48.875 69.140625 
Q 55.078125 64.0625 55.078125 55.328125 
Q 55.078125 49.078125 51.53125 44.71875 
Q 48 40.375 41.703125 38.8125 
Q 48.828125 37.15625 52.796875 32.3125 
Q 56.78125 27.484375 56.78125 20.515625 
Q 56.78125 9.90625 50.3125 4.234375 
Q 43.84375 -1.421875 31.78125 -1.421875 
Q 19.734375 -1.421875 13.25 4.234375 
Q 6.78125 9.90625 6.78125 20.515625 
Q 6.78125 27.484375 10.78125 32.3125 
Q 14.796875 37.15625 21.921875 38.8125 
z
M 18.3125 54.390625 
Q 18.3125 48.734375 21.84375 45.5625 
Q 25.390625 42.390625 31.78125 42.390625 
Q 38.140625 42.390625 41.71875 45.5625 
Q 45.3125 48.734375 45.3125 54.390625 
Q 45.3125 60.0625 41.71875 63.234375 
Q 38.140625 66.40625 31.78125 66.40625 
Q 25.390625 66.40625 21.84375 63.234375 
Q 18.3125 60.0625 18.3125 54.390625 
z
" id="DejaVuSans-56"/>
      </defs>
      <g transform="translate(34.696875 57.005917)scale(0.1 -0.1)">
       <use xlink:href="#DejaVuSans-48"/>
       <use x="63.623047" xlink:href="#DejaVuSans-46"/>
       <use x="95.410156" xlink:href="#DejaVuSans-56"/>
      </g>
     </g>
    </g>
    <g id="text_20">
     <!-- Força (N) -->
     <defs>
      <path d="M 9.8125 72.90625 
L 51.703125 72.90625 
L 51.703125 64.59375 
L 19.671875 64.59375 
L 19.671875 43.109375 
L 48.578125 43.109375 
L 48.578125 34.8125 
L 19.671875 34.8125 
L 19.671875 0 
L 9.8125 0 
z
" id="DejaVuSans-70"/>
      <path d="M 41.109375 46.296875 
Q 39.59375 47.171875 37.8125 47.578125 
Q 36.03125 48 33.890625 48 
Q 26.265625 48 22.1875 43.046875 
Q 18.109375 38.09375 18.109375 28.8125 
L 18.109375 0 
L 9.078125 0 
L 9.078125 54.6875 
L 18.109375 54.6875 
L 18.109375 46.1875 
Q 20.953125 51.171875 25.484375 53.578125 
Q 30.03125 56 36.53125 56 
Q 37.453125 56 38.578125 55.875 
Q 39.703125 55.765625 41.0625 55.515625 
z
" id="DejaVuSans-114"/>
      <path d="M 48.78125 52.59375 
L 48.78125 44.1875 
Q 44.96875 46.296875 41.140625 47.34375 
Q 37.3125 48.390625 33.40625 48.390625 
Q 24.65625 48.390625 19.8125 42.84375 
Q 14.984375 37.3125 14.984375 27.296875 
Q 14.984375 17.28125 19.8125 11.734375 
Q 24.65625 6.203125 33.40625 6.203125 
Q 37.3125 6.203125 41.140625 7.25 
Q 44.96875 8.296875 48.78125 10.40625 
L 48.78125 2.09375 
Q 45.015625 0.34375 40.984375 -0.53125 
Q 36.96875 -1.421875 32.421875 -1.421875 
Q 20.0625 -1.421875 12.78125 6.34375 
Q 5.515625 14.109375 5.515625 27.296875 
Q 5.515625 40.671875 12.859375 48.328125 
Q 20.21875 56 33.015625 56 
Q 37.15625 56 41.109375 55.140625 
Q 45.0625 54.296875 48.78125 52.59375 
z
M 36.078125 0 
Q 38.765625 -3.03125 40.078125 -5.59375 
Q 41.40625 -8.15625 41.40625 -10.5 
Q 41.40625 -14.84375 38.46875 -17.0625 
Q 35.546875 -19.28125 29.78125 -19.28125 
Q 27.546875 -19.28125 25.421875 -18.984375 
Q 23.296875 -18.703125 21.1875 -18.109375 
L 21.1875 -11.71875 
Q 22.859375 -12.546875 24.65625 -12.90625 
Q 26.46875 -13.28125 28.765625 -13.28125 
Q 31.640625 -13.28125 33.109375 -12.109375 
Q 34.578125 -10.9375 34.578125 -8.6875 
Q 34.578125 -7.234375 33.515625 -5.109375 
Q 32.46875 -2.984375 30.28125 0 
z
" id="DejaVuSans-231"/>
      <path d="M 34.28125 27.484375 
Q 23.390625 27.484375 19.1875 25 
Q 14.984375 22.515625 14.984375 16.5 
Q 14.984375 11.71875 18.140625 8.90625 
Q 21.296875 6.109375 26.703125 6.109375 
Q 34.1875 6.109375 38.703125 11.40625 
Q 43.21875 16.703125 43.21875 25.484375 
L 43.21875 27.484375 
z
M 52.203125 31.203125 
L 52.203125 0 
L 43.21875 0 
L 43.21875 8.296875 
Q 40.140625 3.328125 35.546875 0.953125 
Q 30.953125 -1.421875 24.3125 -1.421875 
Q 15.921875 -1.421875 10.953125 3.296875 
Q 6 8.015625 6 15.921875 
Q 6 25.140625 12.171875 29.828125 
Q 18.359375 34.515625 30.609375 34.515625 
L 43.21875 34.515625 
L 43.21875 35.40625 
Q 43.21875 41.609375 39.140625 45 
Q 35.0625 48.390625 27.6875 48.390625 
Q 23 48.390625 18.546875 47.265625 
Q 14.109375 46.140625 10.015625 43.890625 
L 10.015625 52.203125 
Q 14.9375 54.109375 19.578125 55.046875 
Q 24.21875 56 28.609375 56 
Q 40.484375 56 46.34375 49.84375 
Q 52.203125 43.703125 52.203125 31.203125 
z
" id="DejaVuSans-97"/>
      <path d="M 9.8125 72.90625 
L 23.09375 72.90625 
L 55.421875 11.921875 
L 55.421875 72.90625 
L 64.984375 72.90625 
L 64.984375 0 
L 51.703125 0 
L 19.390625 60.984375 
L 19.390625 0 
L 9.8125 0 
z
" id="DejaVuSans-78"/>
     </defs>
     <g transform="translate(28.617187 197.55925)rotate(-90)scale(0.1 -0.1)">
      <use xlink:href="#DejaVuSans-70"/>
      <use x="57.472656" xlink:href="#DejaVuSans-111"/>
      <use x="118.654297" xlink:href="#DejaVuSans-114"/>
      <use x="159.736328" xlink:href="#DejaVuSans-231"/>
      <use x="214.716797" xlink:href="#DejaVuSans-97"/>
      <use x="275.996094" xlink:href="#DejaVuSans-32"/>
      <use x="307.783203" xlink:href="#DejaVuSans-40"/>
      <use x="346.796875" xlink:href="#DejaVuSans-78"/>
      <use x="421.601562" xlink:href="#DejaVuSans-41"/>
     </g>
    </g>
   </g>
   <g id="line2d_19">
    <path clip-path="url(#p09387f7919)" d="M 73.832727 295.488 
L 76.584243 295.38927 
L 76.705992 294.980118 
L 77.355317 290.858307 
L 77.955943 286.493004 
L 78.864999 276.98316 
L 80.074367 260.770301 
L 81.681447 231.943672 
L 83.272294 201.963178 
L 85.187804 168.225203 
L 86.729952 145.802069 
L 87.614657 133.472979 
L 88.45878 122.276252 
L 89.798014 108.196074 
L 90.723302 100.907344 
L 92.825493 86.868354 
L 94.789702 77.959367 
L 95.577009 75.672535 
L 97.65485 70.923518 
L 98.401574 69.935011 
L 100.033004 68.010691 
L 100.722912 66.998864 
L 101.502103 66.238101 
L 102.354342 65.769589 
L 103.790974 65.298352 
L 104.537699 65.271398 
L 104.902944 65.189326 
L 105.641552 64.575445 
L 106.428859 64.23292 
L 107.256748 64.130556 
L 109.423872 64.240794 
L 110.37351 64.566965 
L 111.574762 64.985204 
L 112.370185 65.125727 
L 113.798701 65.442812 
L 114.504842 65.196897 
L 115.300266 65.132389 
L 116.266137 65.278364 
L 118.116714 65.805931 
L 120.762715 66.676024 
L 121.225359 66.547918 
L 122.142531 66.388315 
L 123.075937 66.428594 
L 124.293422 66.676024 
L 125.78687 67.180878 
L 127.255968 67.664835 
L 128.294889 67.659686 
L 130.429546 68.00948 
L 131.906761 68.509791 
L 132.255773 68.549464 
L 133.32716 68.190282 
L 133.927786 67.965264 
L 134.715093 67.623041 
L 135.802713 67.413165 
L 137.515308 67.395902 
L 137.969836 67.323824 
L 138.968174 66.681778 
L 139.80418 66.399521 
L 140.91615 66.304728 
L 141.581708 66.193884 
L 142.571929 66.013688 
L 143.570267 66.050333 
L 145.818556 66.497947 
L 146.216268 66.528838 
L 147.206489 66.676933 
L 148.423974 67.016732 
L 149.617109 67.487969 
L 149.763207 67.441633 
L 150.209619 66.478565 
L 151.094324 64.709609 
L 151.922214 63.506985 
L 152.78257 62.621447 
L 155.347405 60.565993 
L 156.207761 60.270107 
L 157.157399 60.170468 
L 158.001522 60.059625 
L 159.040443 59.495109 
L 160.030664 59.279782 
L 162.741597 59.187412 
L 163.683119 59.438476 
L 164.015898 59.446653 
L 164.470426 59.232537 
L 165.363248 58.984501 
L 166.467101 58.972387 
L 167.506022 59.15955 
L 168.025482 59.206492 
L 168.97512 58.603514 
L 170.273771 58.142271 
L 171.215293 58.078672 
L 172.408428 58.278857 
L 172.80614 58.285217 
L 173.723312 58.159534 
L 174.713533 58.269469 
L 175.76057 58.57656 
L 177.619264 59.45907 
L 178.179307 59.664403 
L 179.388675 60.000871 
L 180.541228 59.522063 
L 181.401584 59.441504 
L 182.529787 59.594142 
L 183.56059 59.938181 
L 184.575161 60.234976 
L 185.200137 60.265867 
L 186.092959 60.049933 
L 186.977665 60.06235 
L 189.250304 60.205599 
L 190.126893 60.185308 
L 190.857384 60.155931 
L 191.774556 60.164411 
L 193.259887 60.441823 
L 194.379974 60.849159 
L 194.615354 60.835228 
L 194.858851 60.699853 
L 195.800373 60.005111 
L 196.944809 59.531451 
L 197.805165 59.420002 
L 198.754803 59.494201 
L 199.274263 59.498743 
L 200.264484 59.462401 
L 201.376454 59.697717 
L 202.374792 59.916679 
L 204.939627 60.507542 
L 206.53859 61.222272 
L 208.048272 61.940333 
L 209.314456 62.579653 
L 210.994585 63.711712 
L 211.319248 63.831945 
L 212.471801 62.788318 
L 213.340273 62.36796 
L 215.547979 61.822827 
L 216.448918 61.899751 
L 217.804385 62.040274 
L 219.005637 62.061777 
L 220.093257 62.335857 
L 220.539668 62.371897 
L 222.75549 61.744085 
L 223.810644 61.815861 
L 224.93073 62.094485 
L 226.156332 62.356149 
L 227.097853 61.307373 
L 228.006909 60.672596 
L 228.899731 60.330677 
L 230.125333 60.125343 
L 231.156137 60.052962 
L 231.95156 59.569914 
L 232.7551 59.329752 
L 233.591107 59.286444 
L 234.548862 59.432116 
L 234.743659 59.378208 
L 235.555316 58.634708 
L 236.358856 58.19951 
L 237.616924 57.848505 
L 238.745126 57.653166 
L 242.024219 57.056851 
L 242.762827 56.5417 
L 243.574484 56.242483 
L 245.652325 55.889661 
L 246.228601 55.78548 
L 247.048374 55.170691 
L 247.876264 54.833314 
L 248.809669 54.703996 
L 250.010921 54.550451 
L 250.773878 53.989569 
L 251.561185 53.674604 
L 252.397191 53.569817 
L 253.363063 53.644319 
L 254.815928 54.082848 
L 256.114579 54.49836 
L 256.885653 54.465955 
L 257.737892 54.639489 
L 259.921249 55.176142 
L 260.814071 55.154034 
L 261.804292 55.376327 
L 263.338323 56.008378 
L 264.596391 56.69252 
L 266.414502 57.976914 
L 266.998895 58.313382 
L 267.891717 58.489945 
L 269.993908 59.080505 
L 271.016595 58.92696 
L 271.982466 59.036289 
L 273.029504 59.384266 
L 274.839498 60.075373 
L 275.626805 59.816435 
L 276.511511 59.764344 
L 277.396216 59.721642 
L 278.110474 59.325512 
L 278.914014 59.115333 
L 279.871769 59.118967 
L 282.550236 59.53024 
L 284.709243 60.37247 
L 285.788746 60.893375 
L 286.429955 61.128691 
L 286.649102 60.993922 
L 287.550041 60.335522 
L 288.410397 60.01026 
L 289.25452 59.903959 
L 290.618103 59.744659 
L 291.494692 59.5048 
L 292.103435 59.278873 
L 293.182938 57.793689 
L 294.010828 57.058668 
L 294.895534 56.565928 
L 295.788356 56.318196 
L 298.572338 56.012921 
L 301.656634 56.584402 
L 303.279947 57.014754 
L 304.205236 57.091073 
L 305.292856 57.405736 
L 306.429175 57.947235 
L 308.620648 59.300073 
L 309.205041 59.598382 
L 310.227728 60.019345 
L 311.696827 60.85461 
L 315.901208 63.393718 
L 317.021294 63.420066 
L 318.149497 63.477608 
L 318.99362 63.160522 
L 320.065007 62.995468 
L 321.201326 63.105101 
L 322.191547 63.402198 
L 322.621725 63.45338 
L 323.547014 62.490009 
L 324.350554 61.972436 
L 325.275842 61.64475 
L 326.290413 61.56722 
L 328.920181 61.874614 
L 331.834028 62.859791 
L 332.191157 62.916424 
L 333.165145 62.158084 
L 333.944336 61.820404 
L 335.048189 61.605682 
L 336.087109 61.601139 
L 336.419888 61.528455 
L 336.866299 61.188958 
L 337.694189 60.595975 
L 338.546429 60.245576 
L 339.650282 60.072042 
L 340.591804 60.111715 
L 341.671307 60.343699 
L 342.978074 60.573564 
L 344.625737 60.029945 
L 344.999099 59.615341 
L 345.859455 58.816722 
L 346.630529 58.377587 
L 347.953529 57.716764 
L 348.805769 57.188894 
L 349.641775 56.934196 
L 350.526481 56.8815 
L 351.573518 57.030806 
L 355.23409 58.100477 
L 355.648034 58.178007 
L 356.419108 57.661645 
L 357.328164 57.343348 
L 358.18852 57.26279 
L 359.194974 57.410884 
L 360.509858 57.591687 
L 361.467613 57.559887 
L 362.522766 57.78854 
L 364.048681 58.416957 
L 366.361902 59.838846 
L 368.350461 61.460919 
L 368.886155 61.801324 
L 369.649112 61.526032 
L 370.485118 61.481513 
L 371.580855 61.673824 
L 373.57753 62.384919 
L 373.983358 62.435496 
L 374.778782 62.032703 
L 375.598555 61.843724 
L 376.645592 61.616888 
L 377.603347 61.107188 
L 378.415004 60.92154 
L 379.291593 60.934866 
L 380.841857 60.997556 
L 381.888894 61.02875 
L 383.309293 61.183204 
L 385.281619 60.276769 
L 386.133858 60.261021 
L 387.09973 60.443338 
L 388.114301 60.594158 
L 388.893491 60.532679 
L 390.200258 60.739829 
L 392.310566 61.483633 
L 393.235854 61.87734 
L 394.071861 61.712589 
L 395.029615 61.566311 
L 395.849389 61.556015 
L 396.928892 61.74772 
L 397.886647 61.920951 
L 398.487273 61.721069 
L 398.487273 61.721069 
" style="fill:none;stroke:#000000;stroke-linecap:square;stroke-width:1.5;"/>
   </g>
   <g id="line2d_20">
    <path clip-path="url(#p09387f7919)" d="M 73.832727 295.488 
L 76.397562 295.39351 
L 76.535544 294.702706 
L 77.91536 285.030836 
L 79.725355 261.739123 
L 81.827545 230.623844 
L 83.134313 207.176465 
L 85.423184 172.471486 
L 85.999461 163.525552 
L 86.859817 149.845744 
L 87.801338 138.475785 
L 89.879179 117.105969 
L 90.836934 110.090713 
L 91.778456 104.670275 
L 92.606346 100.927332 
L 93.734548 96.916365 
L 94.481273 94.697371 
L 97.484402 87.37775 
L 98.239243 86.203594 
L 98.596372 85.602131 
L 99.651525 82.692332 
L 100.487532 81.143852 
L 101.266722 80.099923 
L 102.037796 79.402758 
L 105.308772 77.216775 
L 106.729172 76.959048 
L 107.621994 77.035064 
L 109.253424 77.512964 
L 109.683602 77.58474 
L 110.803688 77.084732 
L 111.655927 77.036881 
L 113.003277 77.248272 
L 114.050315 77.556575 
L 115.210984 78.152889 
L 119.512764 80.601142 
L 119.813077 80.129602 
L 120.624733 78.929401 
L 121.41204 78.135021 
L 124.488219 75.752487 
L 125.389158 75.374226 
L 126.322563 75.210686 
L 127.361484 75.204932 
L 128.465337 75.438733 
L 129.04973 75.51808 
L 129.950668 75.628318 
L 130.380846 75.613176 
L 131.362951 75.363323 
L 132.336939 75.40118 
L 132.564203 75.335764 
L 133.546307 74.947508 
L 134.43913 74.859681 
L 134.828725 74.764283 
L 135.721547 74.645868 
L 136.752351 74.756711 
L 139.219787 75.421773 
L 140.210009 75.67314 
L 141.005432 75.724322 
L 143.148206 76.012637 
L 144.15466 76.085927 
L 144.787752 76.095013 
L 145.794206 75.48083 
L 146.670795 75.209474 
L 148.334692 75.011107 
L 149.251864 74.900869 
L 150.307017 74.816979 
L 151.378404 74.927822 
L 152.417325 75.194332 
L 153.099116 75.306387 
L 154.202969 75.2122 
L 157.206099 75.327587 
L 158.19632 75.183732 
L 159.438155 75.29397 
L 160.201112 75.323952 
L 160.517658 74.789116 
L 161.369898 73.461718 
L 162.278953 72.456553 
L 163.472088 71.536793 
L 164.332444 71.151868 
L 165.347015 70.927152 
L 166.256071 70.716368 
L 167.790102 69.219675 
L 168.691041 68.779329 
L 169.697495 68.557641 
L 170.184489 68.391679 
L 171.085428 67.857751 
L 171.97825 67.579128 
L 172.830489 67.30747 
L 173.642146 66.673904 
L 174.518735 66.27838 
L 175.362858 66.111509 
L 176.507294 66.093943 
L 181.304185 66.742651 
L 182.610952 67.198443 
L 183.081713 67.288087 
L 184.242382 67.573071 
L 185.865695 68.234801 
L 188.949991 69.609142 
L 201.157307 72.911739 
L 202.886135 73.501694 
L 204.168553 73.901761 
L 207.001235 74.847567 
L 207.95899 74.336353 
L 208.616431 73.951732 
L 209.574186 72.948081 
L 210.726739 72.10464 
L 211.619561 71.605843 
L 212.845163 71.22213 
L 213.859733 71.070704 
L 214.890537 71.104321 
L 215.929458 71.109469 
L 216.87098 71.010739 
L 217.926133 71.120977 
L 218.599808 71.135514 
L 219.654962 71.166708 
L 220.807514 71.406567 
L 223.89181 72.326933 
L 224.313871 72.397497 
L 225.417724 71.403235 
L 226.27808 70.928667 
L 227.243952 70.617638 
L 228.656234 70.414727 
L 229.597756 70.385957 
L 230.985689 70.600678 
L 233.177162 71.203959 
L 236.56177 72.585265 
L 237.316611 72.830272 
L 238.290599 72.377812 
L 239.25647 72.203975 
L 240.457722 72.224872 
L 241.683324 72.205489 
L 242.608612 72.213363 
L 243.777398 72.455039 
L 244.775735 72.63887 
L 245.774073 72.491684 
L 246.918509 72.601619 
L 248.704154 73.047417 
L 249.808007 73.450512 
L 250.668363 73.719444 
L 252.129345 73.080125 
L 253.225081 72.948081 
L 254.775345 73.058925 
L 256.179511 73.433855 
L 261.471513 75.327889 
L 264.490876 76.673762 
L 265.984324 75.060774 
L 266.958312 74.471728 
L 268.054048 74.101037 
L 269.011803 73.999582 
L 270.075073 73.889647 
L 271.089644 73.849671 
L 272.193497 74.042587 
L 274.206406 74.605891 
L 274.758332 74.733089 
L 275.821602 75.083791 
L 276.998505 75.489309 
L 278.370204 76.013848 
L 279.920469 76.88909 
L 280.748358 77.283705 
L 282.915482 78.212248 
L 284.157316 78.74557 
L 287.217262 80.468796 
L 287.558158 80.557531 
L 288.694477 80.79527 
L 290.674919 81.27105 
L 292.095318 81.6481 
L 293.978362 82.468525 
L 294.497822 82.616014 
L 295.463694 82.408258 
L 296.380866 82.416737 
L 297.354854 82.383424 
L 298.182743 81.902193 
L 299.075566 81.622055 
L 300.211885 81.522417 
L 301.559235 81.632049 
L 302.947168 82.002739 
L 303.32053 82.027876 
L 304.529898 81.65022 
L 305.49577 81.616906 
L 306.218144 81.566027 
L 306.648322 80.95669 
L 307.606077 79.888229 
L 308.588182 79.157145 
L 310.592974 78.160461 
L 312.23252 77.846706 
L 313.34449 77.792496 
L 313.685385 77.698309 
L 315.544079 75.782167 
L 319.285816 73.401147 
L 320.219221 72.972612 
L 321.006528 72.57618 
L 322.605492 72.097371 
L 323.611946 71.948368 
L 324.577818 71.987133 
L 325.129744 71.961088 
L 325.9901 71.726681 
L 327.020904 71.683979 
L 327.613414 71.617048 
L 328.522469 70.764218 
L 329.431525 70.222417 
L 330.421746 69.899274 
L 331.533715 69.804481 
L 332.564519 69.693638 
L 333.627789 69.646999 
L 334.585544 69.722106 
L 336.233207 69.918354 
L 337.255895 69.839612 
L 338.343515 69.989827 
L 340.210325 70.592199 
L 341.525209 71.011951 
L 342.556013 71.160348 
L 343.60305 71.507416 
L 344.090044 71.590398 
L 345.031565 71.666413 
L 346.338333 72.023172 
L 347.710032 72.548014 
L 350.10442 73.498666 
L 351.330021 74.026839 
L 353.026383 74.726729 
L 354.844494 75.384826 
L 357.084667 76.102887 
L 358.496949 76.478726 
L 360.420576 77.241003 
L 363.715902 78.716193 
L 364.754822 79.065079 
L 366.402485 78.508134 
L 367.530688 78.492689 
L 368.512792 78.463615 
L 369.056602 77.191638 
L 369.965658 75.426922 
L 370.890946 74.120117 
L 372.132781 72.80877 
L 372.976904 72.172781 
L 374.657033 71.298146 
L 375.566089 71.14248 
L 376.653709 71.172462 
L 378.074108 71.277249 
L 378.869531 70.8472 
L 379.721771 70.645803 
L 380.83374 70.411093 
L 381.629164 70.259365 
L 383.098263 70.260879 
L 383.958619 70.37142 
L 384.307631 70.329929 
L 385.216686 69.852635 
L 386.190674 69.642153 
L 387.197129 69.677587 
L 388.008785 69.691518 
L 388.982773 69.068855 
L 389.778197 68.804465 
L 391.498909 68.531899 
L 393.81213 68.642743 
L 394.794235 68.826271 
L 395.979254 69.070672 
L 396.847726 68.559761 
L 397.789248 68.292949 
L 398.487273 68.234801 
L 398.487273 68.234801 
" style="fill:none;stroke:#000000;stroke-dasharray:5.55,2.4;stroke-dashoffset:0;stroke-width:1.5;"/>
   </g>
   <g id="line2d_21">
    <path clip-path="url(#p09387f7919)" d="M 73.832727 295.488 
L 76.762808 295.383819 
L 76.981955 294.879268 
L 77.404017 293.384393 
L 77.696213 291.401017 
L 78.637735 282.286698 
L 79.684772 268.67806 
L 81.43795 239.46378 
L 85.609865 165.515893 
L 87.152013 144.46407 
L 88.385731 130.583472 
L 90.09021 116.012977 
L 91.145364 109.389612 
L 92.736211 101.389786 
L 93.929346 96.757671 
L 95.041316 93.146165 
L 95.885439 91.167635 
L 96.226334 90.25272 
L 97.167856 87.944991 
L 98.011979 85.997655 
L 98.831752 84.161769 
L 101.534569 79.255269 
L 102.451741 77.955733 
L 103.32833 76.437841 
L 105.154558 73.972931 
L 106.574957 72.697926 
L 107.719393 71.981985 
L 108.571632 71.601906 
L 109.147908 71.295723 
L 110.08943 70.183349 
L 111.014719 69.438334 
L 111.95624 68.970731 
L 112.913995 68.497374 
L 113.758118 68.004634 
L 115.113585 67.517952 
L 116.736898 67.267796 
L 117.094027 67.144536 
L 118.587475 66.543375 
L 119.253034 66.231741 
L 120.194555 65.503383 
L 121.022445 65.107556 
L 122.077599 64.87012 
L 123.051587 64.872543 
L 123.433065 64.747768 
L 125.454091 64.186281 
L 127.182919 63.94824 
L 129.512374 63.026662 
L 130.413313 62.905219 
L 132.872632 62.92339 
L 133.457025 62.90007 
L 134.739443 62.867968 
L 136.801051 63.056039 
L 138.124051 63.364947 
L 138.643511 63.408861 
L 139.633732 63.016668 
L 141.297628 62.467901 
L 142.377132 62.027252 
L 143.359236 61.884911 
L 144.463089 61.953962 
L 145.713041 62.251665 
L 147.612317 63.006371 
L 148.618771 63.407952 
L 149.673925 63.645085 
L 150.875177 63.890395 
L 152.336159 64.157207 
L 153.32638 64.047878 
L 155.103908 64.158116 
L 157.636277 64.742922 
L 158.683314 65.015792 
L 159.908916 65.218096 
L 161.240032 65.451292 
L 162.489984 65.560924 
L 164.194463 65.991277 
L 165.704144 66.557306 
L 167.644003 67.399234 
L 168.309562 67.624555 
L 169.275433 67.312315 
L 170.281888 67.20026 
L 172.351612 67.012189 
L 173.285017 66.648767 
L 174.534968 66.436771 
L 175.947251 66.494616 
L 177.335184 66.709338 
L 178.625718 66.884992 
L 179.762037 66.603643 
L 180.882124 66.023379 
L 181.864228 65.540936 
L 182.797633 64.788956 
L 183.852787 64.17659 
L 184.891707 63.870104 
L 190.216175 62.791346 
L 192.683611 62.717451 
L 193.673832 62.717753 
L 194.688403 62.49334 
L 195.540643 62.082371 
L 198.016195 61.275574 
L 199.387895 61.232872 
L 201.238472 61.260128 
L 203.340663 61.370366 
L 205.069492 61.674732 
L 207.39083 62.166261 
L 209.906965 62.371291 
L 211.66826 62.812849 
L 213.421439 63.451563 
L 215.069102 64.008507 
L 216.595016 64.348004 
L 220.88868 65.745361 
L 223.875577 67.090931 
L 224.362571 67.225094 
L 225.588172 67.153924 
L 228.258522 67.24266 
L 228.915964 67.110313 
L 229.914302 66.608488 
L 231.570082 66.109086 
L 232.763217 65.954632 
L 233.850837 65.983402 
L 234.727426 65.970683 
L 235.961144 65.989157 
L 238.534096 66.388921 
L 240.027544 66.719029 
L 241.017765 66.573963 
L 242.251483 66.592134 
L 244.353674 66.717515 
L 245.376361 66.563969 
L 246.886043 66.562152 
L 248.614871 66.737806 
L 250.773878 66.950105 
L 251.772216 66.579112 
L 252.77867 65.411316 
L 253.663376 64.705974 
L 254.742879 64.114505 
L 255.708751 63.735032 
L 256.983051 63.516979 
L 258.273586 63.309828 
L 259.377439 63.135991 
L 260.976402 63.186871 
L 262.843213 63.437026 
L 264.547692 63.867984 
L 267.437189 64.845892 
L 271.868835 66.784748 
L 274.092774 67.901362 
L 274.547302 68.02856 
L 275.886535 68.188768 
L 280.237015 69.112465 
L 282.241807 69.743608 
L 283.305077 69.580371 
L 284.822875 69.634279 
L 287.62309 69.954393 
L 289.011023 69.998306 
L 290.187925 69.846881 
L 292.679711 69.957724 
L 293.361503 69.947427 
L 294.392307 69.681221 
L 295.601675 69.612776 
L 296.267234 69.502538 
L 297.525301 69.250263 
L 298.742786 69.04705 
L 301.129057 68.980119 
L 302.184211 68.950137 
L 303.29618 68.492831 
L 304.602947 67.989492 
L 305.560702 67.478278 
L 306.599623 67.171489 
L 308.247286 66.976453 
L 311.575078 67.086994 
L 313.190275 67.318675 
L 314.789238 67.789912 
L 316.972595 68.488894 
L 318.644608 68.350491 
L 320.03254 68.460729 
L 321.420473 68.779934 
L 323.668762 69.336273 
L 324.699566 69.25632 
L 325.973867 69.366255 
L 330.389279 69.918051 
L 331.306451 69.308713 
L 332.361605 68.882298 
L 334.561195 68.341102 
L 336.005943 68.236921 
L 337.59679 68.288709 
L 339.544766 68.618514 
L 341.216779 68.817488 
L 342.815743 69.167282 
L 343.521884 69.263891 
L 344.577038 68.72421 
L 345.908155 68.345342 
L 347.588284 68.082467 
L 349.836573 68.109421 
L 351.800782 68.366542 
L 355.144807 69.10338 
L 355.583102 69.1055 
L 356.622022 69.100049 
L 358.44825 69.279034 
L 359.470937 69.284182 
L 361.126717 68.424689 
L 362.644515 68.031588 
L 364.162313 67.91711 
L 366.27262 68.106392 
L 369.714044 68.861099 
L 371.775652 69.514047 
L 375.898868 70.786326 
L 376.605009 70.459852 
L 376.880973 70.077351 
L 377.773795 69.031301 
L 378.845182 68.108815 
L 379.827286 67.547934 
L 380.874323 67.199957 
L 382.603152 66.925574 
L 383.877453 66.988567 
L 385.736147 67.378034 
L 387.513675 67.888945 
L 390.841467 68.88987 
L 391.42586 68.805071 
L 392.359265 68.409547 
L 394.989033 67.738731 
L 396.612346 67.789307 
L 398.089561 67.955572 
L 398.487273 68.038554 
L 398.487273 68.038554 
" style="fill:none;stroke:#000000;stroke-dasharray:1.5,2.475;stroke-dashoffset:0;stroke-width:1.5;"/>
   </g>
   <g id="patch_3">
    <path d="M 57.6 307.584 
L 57.6 41.472 
" style="fill:none;stroke:#000000;stroke-linecap:square;stroke-linejoin:miter;stroke-width:0.8;"/>
   </g>
   <g id="patch_4">
    <path d="M 414.72 307.584 
L 414.72 41.472 
" style="fill:none;stroke:#000000;stroke-linecap:square;stroke-linejoin:miter;stroke-width:0.8;"/>
   </g>
   <g id="patch_5">
    <path d="M 57.6 307.584 
L 414.72 307.584 
" style="fill:none;stroke:#000000;stroke-linecap:square;stroke-linejoin:miter;stroke-width:0.8;"/>
   </g>
   <g id="patch_6">
    <path d="M 57.6 41.472 
L 414.72 41.472 
" style="fill:none;stroke:#000000;stroke-linecap:square;stroke-linejoin:miter;stroke-width:0.8;"/>
   </g>
   <g id="legend_1">
    <g id="patch_7">
     <path d="M 339.36375 302.584 
L 407.72 302.584 
Q 409.72 302.584 409.72 300.584 
L 409.72 257.549625 
Q 409.72 255.549625 407.72 255.549625 
L 339.36375 255.549625 
Q 337.36375 255.549625 337.36375 257.549625 
L 337.36375 300.584 
Q 337.36375 302.584 339.36375 302.584 
z
" style="fill:#ffffff;opacity:0.8;stroke:#cccccc;stroke-linejoin:miter;"/>
    </g>
    <g id="line2d_22">
     <path d="M 341.36375 263.648062 
L 361.36375 263.648062 
" style="fill:none;stroke:#000000;stroke-linecap:square;stroke-width:1.5;"/>
    </g>
    <g id="line2d_23"/>
    <g id="text_21">
     <!-- Normal -->
     <defs>
      <path d="M 9.421875 75.984375 
L 18.40625 75.984375 
L 18.40625 0 
L 9.421875 0 
z
" id="DejaVuSans-108"/>
     </defs>
     <g transform="translate(369.36375 267.148062)scale(0.1 -0.1)">
      <use xlink:href="#DejaVuSans-78"/>
      <use x="74.804688" xlink:href="#DejaVuSans-111"/>
      <use x="135.986328" xlink:href="#DejaVuSans-114"/>
      <use x="177.083984" xlink:href="#DejaVuSans-109"/>
      <use x="274.496094" xlink:href="#DejaVuSans-97"/>
      <use x="335.775391" xlink:href="#DejaVuSans-108"/>
     </g>
    </g>
    <g id="line2d_24">
     <path d="M 341.36375 278.326188 
L 361.36375 278.326188 
" style="fill:none;stroke:#000000;stroke-dasharray:5.55,2.4;stroke-dashoffset:0;stroke-width:1.5;"/>
    </g>
    <g id="line2d_25"/>
    <g id="text_22">
     <!-- Forte -->
     <defs>
      <path d="M 18.3125 70.21875 
L 18.3125 54.6875 
L 36.8125 54.6875 
L 36.8125 47.703125 
L 18.3125 47.703125 
L 18.3125 18.015625 
Q 18.3125 11.328125 20.140625 9.421875 
Q 21.96875 7.515625 27.59375 7.515625 
L 36.8125 7.515625 
L 36.8125 0 
L 27.59375 0 
Q 17.1875 0 13.234375 3.875 
Q 9.28125 7.765625 9.28125 18.015625 
L 9.28125 47.703125 
L 2.6875 47.703125 
L 2.6875 54.6875 
L 9.28125 54.6875 
L 9.28125 70.21875 
z
" id="DejaVuSans-116"/>
     </defs>
     <g transform="translate(369.36375 281.826188)scale(0.1 -0.1)">
      <use xlink:href="#DejaVuSans-70"/>
      <use x="57.472656" xlink:href="#DejaVuSans-111"/>
      <use x="118.654297" xlink:href="#DejaVuSans-114"/>
      <use x="159.767578" xlink:href="#DejaVuSans-116"/>
      <use x="198.976562" xlink:href="#DejaVuSans-101"/>
     </g>
    </g>
    <g id="line2d_26">
     <path d="M 341.36375 293.004312 
L 361.36375 293.004312 
" style="fill:none;stroke:#000000;stroke-dasharray:1.5,2.475;stroke-dashoffset:0;stroke-width:1.5;"/>
    </g>
    <g id="line2d_27"/>
    <g id="text_23">
     <!-- Fraco -->
     <defs>
      <path d="M 48.78125 52.59375 
L 48.78125 44.1875 
Q 44.96875 46.296875 41.140625 47.34375 
Q 37.3125 48.390625 33.40625 48.390625 
Q 24.65625 48.390625 19.8125 42.84375 
Q 14.984375 37.3125 14.984375 27.296875 
Q 14.984375 17.28125 19.8125 11.734375 
Q 24.65625 6.203125 33.40625 6.203125 
Q 37.3125 6.203125 41.140625 7.25 
Q 44.96875 8.296875 48.78125 10.40625 
L 48.78125 2.09375 
Q 45.015625 0.34375 40.984375 -0.53125 
Q 36.96875 -1.421875 32.421875 -1.421875 
Q 20.0625 -1.421875 12.78125 6.34375 
Q 5.515625 14.109375 5.515625 27.296875 
Q 5.515625 40.671875 12.859375 48.328125 
Q 20.21875 56 33.015625 56 
Q 37.15625 56 41.109375 55.140625 
Q 45.0625 54.296875 48.78125 52.59375 
z
" id="DejaVuSans-99"/>
     </defs>
     <g transform="translate(369.36375 296.504312)scale(0.1 -0.1)">
      <use xlink:href="#DejaVuSans-70"/>
      <use x="57.410156" xlink:href="#DejaVuSans-114"/>
      <use x="98.523438" xlink:href="#DejaVuSans-97"/>
      <use x="159.802734" xlink:href="#DejaVuSans-99"/>
      <use x="214.783203" xlink:href="#DejaVuSans-111"/>
     </g>
    </g>
   </g>
  </g>
 </g>
 <defs>
  <clipPath id="p09387f7919">
   <rect height="266.112" width="357.12" x="57.6" y="41.472"/>
  </clipPath>
 </defs>
</svg>
