<?xml version="1.0" encoding="utf-8" standalone="no"?>
<!DOCTYPE svg PUBLIC "-//W3C//DTD SVG 1.1//EN"
  "http://www.w3.org/Graphics/SVG/1.1/DTD/svg11.dtd">
<!-- Created with matplotlib (https://matplotlib.org/) -->
<svg height="345.6pt" version="1.1" viewBox="0 0 460.8 345.6" width="460.8pt" xmlns="http://www.w3.org/2000/svg" xmlns:xlink="http://www.w3.org/1999/xlink">
 <defs>
  <style type="text/css">
*{stroke-linecap:butt;stroke-linejoin:round;}
  </style>
 </defs>
 <g id="figure_1">
  <g id="patch_1">
   <path d="M 0 345.6 
L 460.8 345.6 
L 460.8 0 
L 0 0 
z
" style="fill:#ffffff;"/>
  </g>
  <g id="axes_1">
   <g id="patch_2">
    <path d="M 57.6 307.584 
L 414.72 307.584 
L 414.72 41.472 
L 57.6 41.472 
z
" style="fill:#ffffff;"/>
   </g>
   <g id="matplotlib.axis_1">
    <g id="xtick_1">
     <g id="line2d_1">
      <path clip-path="url(#p18791023ca)" d="M 73.830698 307.584 
L 73.830698 41.472 
" style="fill:none;stroke:#b0b0b0;stroke-linecap:square;stroke-width:0.8;"/>
     </g>
     <g id="line2d_2">
      <defs>
       <path d="M 0 0 
L 0 3.5 
" id="m5c5d1940ed" style="stroke:#000000;stroke-width:0.8;"/>
      </defs>
      <g>
       <use style="stroke:#000000;stroke-width:0.8;" x="73.830698" xlink:href="#m5c5d1940ed" y="307.584"/>
      </g>
     </g>
     <g id="text_1">
      <!-- 2000 -->
      <defs>
       <path d="M 19.1875 8.296875 
L 53.609375 8.296875 
L 53.609375 0 
L 7.328125 0 
L 7.328125 8.296875 
Q 12.9375 14.109375 22.625 23.890625 
Q 32.328125 33.6875 34.8125 36.53125 
Q 39.546875 41.84375 41.421875 45.53125 
Q 43.3125 49.21875 43.3125 52.78125 
Q 43.3125 58.59375 39.234375 62.25 
Q 35.15625 65.921875 28.609375 65.921875 
Q 23.96875 65.921875 18.8125 64.3125 
Q 13.671875 62.703125 7.8125 59.421875 
L 7.8125 69.390625 
Q 13.765625 71.78125 18.9375 73 
Q 24.125 74.21875 28.421875 74.21875 
Q 39.75 74.21875 46.484375 68.546875 
Q 53.21875 62.890625 53.21875 53.421875 
Q 53.21875 48.921875 51.53125 44.890625 
Q 49.859375 40.875 45.40625 35.40625 
Q 44.1875 33.984375 37.640625 27.21875 
Q 31.109375 20.453125 19.1875 8.296875 
z
" id="DejaVuSans-50"/>
       <path d="M 31.78125 66.40625 
Q 24.171875 66.40625 20.328125 58.90625 
Q 16.5 51.421875 16.5 36.375 
Q 16.5 21.390625 20.328125 13.890625 
Q 24.171875 6.390625 31.78125 6.390625 
Q 39.453125 6.390625 43.28125 13.890625 
Q 47.125 21.390625 47.125 36.375 
Q 47.125 51.421875 43.28125 58.90625 
Q 39.453125 66.40625 31.78125 66.40625 
z
M 31.78125 74.21875 
Q 44.046875 74.21875 50.515625 64.515625 
Q 56.984375 54.828125 56.984375 36.375 
Q 56.984375 17.96875 50.515625 8.265625 
Q 44.046875 -1.421875 31.78125 -1.421875 
Q 19.53125 -1.421875 13.0625 8.265625 
Q 6.59375 17.96875 6.59375 36.375 
Q 6.59375 54.828125 13.0625 64.515625 
Q 19.53125 74.21875 31.78125 74.21875 
z
" id="DejaVuSans-48"/>
      </defs>
      <g transform="translate(61.105698 322.182437)scale(0.1 -0.1)">
       <use xlink:href="#DejaVuSans-50"/>
       <use x="63.623047" xlink:href="#DejaVuSans-48"/>
       <use x="127.246094" xlink:href="#DejaVuSans-48"/>
       <use x="190.869141" xlink:href="#DejaVuSans-48"/>
      </g>
     </g>
    </g>
    <g id="xtick_2">
     <g id="line2d_3">
      <path clip-path="url(#p18791023ca)" d="M 114.413024 307.584 
L 114.413024 41.472 
" style="fill:none;stroke:#b0b0b0;stroke-linecap:square;stroke-width:0.8;"/>
     </g>
     <g id="line2d_4">
      <g>
       <use style="stroke:#000000;stroke-width:0.8;" x="114.413024" xlink:href="#m5c5d1940ed" y="307.584"/>
      </g>
     </g>
     <g id="text_2">
      <!-- 3000 -->
      <defs>
       <path d="M 40.578125 39.3125 
Q 47.65625 37.796875 51.625 33 
Q 55.609375 28.21875 55.609375 21.1875 
Q 55.609375 10.40625 48.1875 4.484375 
Q 40.765625 -1.421875 27.09375 -1.421875 
Q 22.515625 -1.421875 17.65625 -0.515625 
Q 12.796875 0.390625 7.625 2.203125 
L 7.625 11.71875 
Q 11.71875 9.328125 16.59375 8.109375 
Q 21.484375 6.890625 26.8125 6.890625 
Q 36.078125 6.890625 40.9375 10.546875 
Q 45.796875 14.203125 45.796875 21.1875 
Q 45.796875 27.640625 41.28125 31.265625 
Q 36.765625 34.90625 28.71875 34.90625 
L 20.21875 34.90625 
L 20.21875 43.015625 
L 29.109375 43.015625 
Q 36.375 43.015625 40.234375 45.921875 
Q 44.09375 48.828125 44.09375 54.296875 
Q 44.09375 59.90625 40.109375 62.90625 
Q 36.140625 65.921875 28.71875 65.921875 
Q 24.65625 65.921875 20.015625 65.03125 
Q 15.375 64.15625 9.8125 62.3125 
L 9.8125 71.09375 
Q 15.4375 72.65625 20.34375 73.4375 
Q 25.25 74.21875 29.59375 74.21875 
Q 40.828125 74.21875 47.359375 69.109375 
Q 53.90625 64.015625 53.90625 55.328125 
Q 53.90625 49.265625 50.4375 45.09375 
Q 46.96875 40.921875 40.578125 39.3125 
z
" id="DejaVuSans-51"/>
      </defs>
      <g transform="translate(101.688024 322.182437)scale(0.1 -0.1)">
       <use xlink:href="#DejaVuSans-51"/>
       <use x="63.623047" xlink:href="#DejaVuSans-48"/>
       <use x="127.246094" xlink:href="#DejaVuSans-48"/>
       <use x="190.869141" xlink:href="#DejaVuSans-48"/>
      </g>
     </g>
    </g>
    <g id="xtick_3">
     <g id="line2d_5">
      <path clip-path="url(#p18791023ca)" d="M 154.995349 307.584 
L 154.995349 41.472 
" style="fill:none;stroke:#b0b0b0;stroke-linecap:square;stroke-width:0.8;"/>
     </g>
     <g id="line2d_6">
      <g>
       <use style="stroke:#000000;stroke-width:0.8;" x="154.995349" xlink:href="#m5c5d1940ed" y="307.584"/>
      </g>
     </g>
     <g id="text_3">
      <!-- 4000 -->
      <defs>
       <path d="M 37.796875 64.3125 
L 12.890625 25.390625 
L 37.796875 25.390625 
z
M 35.203125 72.90625 
L 47.609375 72.90625 
L 47.609375 25.390625 
L 58.015625 25.390625 
L 58.015625 17.1875 
L 47.609375 17.1875 
L 47.609375 0 
L 37.796875 0 
L 37.796875 17.1875 
L 4.890625 17.1875 
L 4.890625 26.703125 
z
" id="DejaVuSans-52"/>
      </defs>
      <g transform="translate(142.270349 322.182437)scale(0.1 -0.1)">
       <use xlink:href="#DejaVuSans-52"/>
       <use x="63.623047" xlink:href="#DejaVuSans-48"/>
       <use x="127.246094" xlink:href="#DejaVuSans-48"/>
       <use x="190.869141" xlink:href="#DejaVuSans-48"/>
      </g>
     </g>
    </g>
    <g id="xtick_4">
     <g id="line2d_7">
      <path clip-path="url(#p18791023ca)" d="M 195.577675 307.584 
L 195.577675 41.472 
" style="fill:none;stroke:#b0b0b0;stroke-linecap:square;stroke-width:0.8;"/>
     </g>
     <g id="line2d_8">
      <g>
       <use style="stroke:#000000;stroke-width:0.8;" x="195.577675" xlink:href="#m5c5d1940ed" y="307.584"/>
      </g>
     </g>
     <g id="text_4">
      <!-- 5000 -->
      <defs>
       <path d="M 10.796875 72.90625 
L 49.515625 72.90625 
L 49.515625 64.59375 
L 19.828125 64.59375 
L 19.828125 46.734375 
Q 21.96875 47.46875 24.109375 47.828125 
Q 26.265625 48.1875 28.421875 48.1875 
Q 40.625 48.1875 47.75 41.5 
Q 54.890625 34.8125 54.890625 23.390625 
Q 54.890625 11.625 47.5625 5.09375 
Q 40.234375 -1.421875 26.90625 -1.421875 
Q 22.3125 -1.421875 17.546875 -0.640625 
Q 12.796875 0.140625 7.71875 1.703125 
L 7.71875 11.625 
Q 12.109375 9.234375 16.796875 8.0625 
Q 21.484375 6.890625 26.703125 6.890625 
Q 35.15625 6.890625 40.078125 11.328125 
Q 45.015625 15.765625 45.015625 23.390625 
Q 45.015625 31 40.078125 35.4375 
Q 35.15625 39.890625 26.703125 39.890625 
Q 22.75 39.890625 18.8125 39.015625 
Q 14.890625 38.140625 10.796875 36.28125 
z
" id="DejaVuSans-53"/>
      </defs>
      <g transform="translate(182.852675 322.182437)scale(0.1 -0.1)">
       <use xlink:href="#DejaVuSans-53"/>
       <use x="63.623047" xlink:href="#DejaVuSans-48"/>
       <use x="127.246094" xlink:href="#DejaVuSans-48"/>
       <use x="190.869141" xlink:href="#DejaVuSans-48"/>
      </g>
     </g>
    </g>
    <g id="xtick_5">
     <g id="line2d_9">
      <path clip-path="url(#p18791023ca)" d="M 236.16 307.584 
L 236.16 41.472 
" style="fill:none;stroke:#b0b0b0;stroke-linecap:square;stroke-width:0.8;"/>
     </g>
     <g id="line2d_10">
      <g>
       <use style="stroke:#000000;stroke-width:0.8;" x="236.16" xlink:href="#m5c5d1940ed" y="307.584"/>
      </g>
     </g>
     <g id="text_5">
      <!-- 6000 -->
      <defs>
       <path d="M 33.015625 40.375 
Q 26.375 40.375 22.484375 35.828125 
Q 18.609375 31.296875 18.609375 23.390625 
Q 18.609375 15.53125 22.484375 10.953125 
Q 26.375 6.390625 33.015625 6.390625 
Q 39.65625 6.390625 43.53125 10.953125 
Q 47.40625 15.53125 47.40625 23.390625 
Q 47.40625 31.296875 43.53125 35.828125 
Q 39.65625 40.375 33.015625 40.375 
z
M 52.59375 71.296875 
L 52.59375 62.3125 
Q 48.875 64.0625 45.09375 64.984375 
Q 41.3125 65.921875 37.59375 65.921875 
Q 27.828125 65.921875 22.671875 59.328125 
Q 17.53125 52.734375 16.796875 39.40625 
Q 19.671875 43.65625 24.015625 45.921875 
Q 28.375 48.1875 33.59375 48.1875 
Q 44.578125 48.1875 50.953125 41.515625 
Q 57.328125 34.859375 57.328125 23.390625 
Q 57.328125 12.15625 50.6875 5.359375 
Q 44.046875 -1.421875 33.015625 -1.421875 
Q 20.359375 -1.421875 13.671875 8.265625 
Q 6.984375 17.96875 6.984375 36.375 
Q 6.984375 53.65625 15.1875 63.9375 
Q 23.390625 74.21875 37.203125 74.21875 
Q 40.921875 74.21875 44.703125 73.484375 
Q 48.484375 72.75 52.59375 71.296875 
z
" id="DejaVuSans-54"/>
      </defs>
      <g transform="translate(223.435 322.182437)scale(0.1 -0.1)">
       <use xlink:href="#DejaVuSans-54"/>
       <use x="63.623047" xlink:href="#DejaVuSans-48"/>
       <use x="127.246094" xlink:href="#DejaVuSans-48"/>
       <use x="190.869141" xlink:href="#DejaVuSans-48"/>
      </g>
     </g>
    </g>
    <g id="xtick_6">
     <g id="line2d_11">
      <path clip-path="url(#p18791023ca)" d="M 276.742325 307.584 
L 276.742325 41.472 
" style="fill:none;stroke:#b0b0b0;stroke-linecap:square;stroke-width:0.8;"/>
     </g>
     <g id="line2d_12">
      <g>
       <use style="stroke:#000000;stroke-width:0.8;" x="276.742325" xlink:href="#m5c5d1940ed" y="307.584"/>
      </g>
     </g>
     <g id="text_6">
      <!-- 7000 -->
      <defs>
       <path d="M 8.203125 72.90625 
L 55.078125 72.90625 
L 55.078125 68.703125 
L 28.609375 0 
L 18.3125 0 
L 43.21875 64.59375 
L 8.203125 64.59375 
z
" id="DejaVuSans-55"/>
      </defs>
      <g transform="translate(264.017325 322.182437)scale(0.1 -0.1)">
       <use xlink:href="#DejaVuSans-55"/>
       <use x="63.623047" xlink:href="#DejaVuSans-48"/>
       <use x="127.246094" xlink:href="#DejaVuSans-48"/>
       <use x="190.869141" xlink:href="#DejaVuSans-48"/>
      </g>
     </g>
    </g>
    <g id="xtick_7">
     <g id="line2d_13">
      <path clip-path="url(#p18791023ca)" d="M 317.324651 307.584 
L 317.324651 41.472 
" style="fill:none;stroke:#b0b0b0;stroke-linecap:square;stroke-width:0.8;"/>
     </g>
     <g id="line2d_14">
      <g>
       <use style="stroke:#000000;stroke-width:0.8;" x="317.324651" xlink:href="#m5c5d1940ed" y="307.584"/>
      </g>
     </g>
     <g id="text_7">
      <!-- 8000 -->
      <defs>
       <path d="M 31.78125 34.625 
Q 24.75 34.625 20.71875 30.859375 
Q 16.703125 27.09375 16.703125 20.515625 
Q 16.703125 13.921875 20.71875 10.15625 
Q 24.75 6.390625 31.78125 6.390625 
Q 38.8125 6.390625 42.859375 10.171875 
Q 46.921875 13.96875 46.921875 20.515625 
Q 46.921875 27.09375 42.890625 30.859375 
Q 38.875 34.625 31.78125 34.625 
z
M 21.921875 38.8125 
Q 15.578125 40.375 12.03125 44.71875 
Q 8.5 49.078125 8.5 55.328125 
Q 8.5 64.0625 14.71875 69.140625 
Q 20.953125 74.21875 31.78125 74.21875 
Q 42.671875 74.21875 48.875 69.140625 
Q 55.078125 64.0625 55.078125 55.328125 
Q 55.078125 49.078125 51.53125 44.71875 
Q 48 40.375 41.703125 38.8125 
Q 48.828125 37.15625 52.796875 32.3125 
Q 56.78125 27.484375 56.78125 20.515625 
Q 56.78125 9.90625 50.3125 4.234375 
Q 43.84375 -1.421875 31.78125 -1.421875 
Q 19.734375 -1.421875 13.25 4.234375 
Q 6.78125 9.90625 6.78125 20.515625 
Q 6.78125 27.484375 10.78125 32.3125 
Q 14.796875 37.15625 21.921875 38.8125 
z
M 18.3125 54.390625 
Q 18.3125 48.734375 21.84375 45.5625 
Q 25.390625 42.390625 31.78125 42.390625 
Q 38.140625 42.390625 41.71875 45.5625 
Q 45.3125 48.734375 45.3125 54.390625 
Q 45.3125 60.0625 41.71875 63.234375 
Q 38.140625 66.40625 31.78125 66.40625 
Q 25.390625 66.40625 21.84375 63.234375 
Q 18.3125 60.0625 18.3125 54.390625 
z
" id="DejaVuSans-56"/>
      </defs>
      <g transform="translate(304.599651 322.182437)scale(0.1 -0.1)">
       <use xlink:href="#DejaVuSans-56"/>
       <use x="63.623047" xlink:href="#DejaVuSans-48"/>
       <use x="127.246094" xlink:href="#DejaVuSans-48"/>
       <use x="190.869141" xlink:href="#DejaVuSans-48"/>
      </g>
     </g>
    </g>
    <g id="xtick_8">
     <g id="line2d_15">
      <path clip-path="url(#p18791023ca)" d="M 357.906976 307.584 
L 357.906976 41.472 
" style="fill:none;stroke:#b0b0b0;stroke-linecap:square;stroke-width:0.8;"/>
     </g>
     <g id="line2d_16">
      <g>
       <use style="stroke:#000000;stroke-width:0.8;" x="357.906976" xlink:href="#m5c5d1940ed" y="307.584"/>
      </g>
     </g>
     <g id="text_8">
      <!-- 9000 -->
      <defs>
       <path d="M 10.984375 1.515625 
L 10.984375 10.5 
Q 14.703125 8.734375 18.5 7.8125 
Q 22.3125 6.890625 25.984375 6.890625 
Q 35.75 6.890625 40.890625 13.453125 
Q 46.046875 20.015625 46.78125 33.40625 
Q 43.953125 29.203125 39.59375 26.953125 
Q 35.25 24.703125 29.984375 24.703125 
Q 19.046875 24.703125 12.671875 31.3125 
Q 6.296875 37.9375 6.296875 49.421875 
Q 6.296875 60.640625 12.9375 67.421875 
Q 19.578125 74.21875 30.609375 74.21875 
Q 43.265625 74.21875 49.921875 64.515625 
Q 56.59375 54.828125 56.59375 36.375 
Q 56.59375 19.140625 48.40625 8.859375 
Q 40.234375 -1.421875 26.421875 -1.421875 
Q 22.703125 -1.421875 18.890625 -0.6875 
Q 15.09375 0.046875 10.984375 1.515625 
z
M 30.609375 32.421875 
Q 37.25 32.421875 41.125 36.953125 
Q 45.015625 41.5 45.015625 49.421875 
Q 45.015625 57.28125 41.125 61.84375 
Q 37.25 66.40625 30.609375 66.40625 
Q 23.96875 66.40625 20.09375 61.84375 
Q 16.21875 57.28125 16.21875 49.421875 
Q 16.21875 41.5 20.09375 36.953125 
Q 23.96875 32.421875 30.609375 32.421875 
z
" id="DejaVuSans-57"/>
      </defs>
      <g transform="translate(345.181976 322.182437)scale(0.1 -0.1)">
       <use xlink:href="#DejaVuSans-57"/>
       <use x="63.623047" xlink:href="#DejaVuSans-48"/>
       <use x="127.246094" xlink:href="#DejaVuSans-48"/>
       <use x="190.869141" xlink:href="#DejaVuSans-48"/>
      </g>
     </g>
    </g>
    <g id="xtick_9">
     <g id="line2d_17">
      <path clip-path="url(#p18791023ca)" d="M 398.489302 307.584 
L 398.489302 41.472 
" style="fill:none;stroke:#b0b0b0;stroke-linecap:square;stroke-width:0.8;"/>
     </g>
     <g id="line2d_18">
      <g>
       <use style="stroke:#000000;stroke-width:0.8;" x="398.489302" xlink:href="#m5c5d1940ed" y="307.584"/>
      </g>
     </g>
     <g id="text_9">
      <!-- 10000 -->
      <defs>
       <path d="M 12.40625 8.296875 
L 28.515625 8.296875 
L 28.515625 63.921875 
L 10.984375 60.40625 
L 10.984375 69.390625 
L 28.421875 72.90625 
L 38.28125 72.90625 
L 38.28125 8.296875 
L 54.390625 8.296875 
L 54.390625 0 
L 12.40625 0 
z
" id="DejaVuSans-49"/>
      </defs>
      <g transform="translate(382.583052 322.182437)scale(0.1 -0.1)">
       <use xlink:href="#DejaVuSans-49"/>
       <use x="63.623047" xlink:href="#DejaVuSans-48"/>
       <use x="127.246094" xlink:href="#DejaVuSans-48"/>
       <use x="190.869141" xlink:href="#DejaVuSans-48"/>
       <use x="254.492188" xlink:href="#DejaVuSans-48"/>
      </g>
     </g>
    </g>
    <g id="text_10">
     <!-- Tempo (ms) -->
     <defs>
      <path d="M -0.296875 72.90625 
L 61.375 72.90625 
L 61.375 64.59375 
L 35.5 64.59375 
L 35.5 0 
L 25.59375 0 
L 25.59375 64.59375 
L -0.296875 64.59375 
z
" id="DejaVuSans-84"/>
      <path d="M 56.203125 29.59375 
L 56.203125 25.203125 
L 14.890625 25.203125 
Q 15.484375 15.921875 20.484375 11.0625 
Q 25.484375 6.203125 34.421875 6.203125 
Q 39.59375 6.203125 44.453125 7.46875 
Q 49.3125 8.734375 54.109375 11.28125 
L 54.109375 2.78125 
Q 49.265625 0.734375 44.1875 -0.34375 
Q 39.109375 -1.421875 33.890625 -1.421875 
Q 20.796875 -1.421875 13.15625 6.1875 
Q 5.515625 13.8125 5.515625 26.8125 
Q 5.515625 40.234375 12.765625 48.109375 
Q 20.015625 56 32.328125 56 
Q 43.359375 56 49.78125 48.890625 
Q 56.203125 41.796875 56.203125 29.59375 
z
M 47.21875 32.234375 
Q 47.125 39.59375 43.09375 43.984375 
Q 39.0625 48.390625 32.421875 48.390625 
Q 24.90625 48.390625 20.390625 44.140625 
Q 15.875 39.890625 15.1875 32.171875 
z
" id="DejaVuSans-101"/>
      <path d="M 52 44.1875 
Q 55.375 50.25 60.0625 53.125 
Q 64.75 56 71.09375 56 
Q 79.640625 56 84.28125 50.015625 
Q 88.921875 44.046875 88.921875 33.015625 
L 88.921875 0 
L 79.890625 0 
L 79.890625 32.71875 
Q 79.890625 40.578125 77.09375 44.375 
Q 74.3125 48.1875 68.609375 48.1875 
Q 61.625 48.1875 57.5625 43.546875 
Q 53.515625 38.921875 53.515625 30.90625 
L 53.515625 0 
L 44.484375 0 
L 44.484375 32.71875 
Q 44.484375 40.625 41.703125 44.40625 
Q 38.921875 48.1875 33.109375 48.1875 
Q 26.21875 48.1875 22.15625 43.53125 
Q 18.109375 38.875 18.109375 30.90625 
L 18.109375 0 
L 9.078125 0 
L 9.078125 54.6875 
L 18.109375 54.6875 
L 18.109375 46.1875 
Q 21.1875 51.21875 25.484375 53.609375 
Q 29.78125 56 35.6875 56 
Q 41.65625 56 45.828125 52.96875 
Q 50 49.953125 52 44.1875 
z
" id="DejaVuSans-109"/>
      <path d="M 18.109375 8.203125 
L 18.109375 -20.796875 
L 9.078125 -20.796875 
L 9.078125 54.6875 
L 18.109375 54.6875 
L 18.109375 46.390625 
Q 20.953125 51.265625 25.265625 53.625 
Q 29.59375 56 35.59375 56 
Q 45.5625 56 51.78125 48.09375 
Q 58.015625 40.1875 58.015625 27.296875 
Q 58.015625 14.40625 51.78125 6.484375 
Q 45.5625 -1.421875 35.59375 -1.421875 
Q 29.59375 -1.421875 25.265625 0.953125 
Q 20.953125 3.328125 18.109375 8.203125 
z
M 48.6875 27.296875 
Q 48.6875 37.203125 44.609375 42.84375 
Q 40.53125 48.484375 33.40625 48.484375 
Q 26.265625 48.484375 22.1875 42.84375 
Q 18.109375 37.203125 18.109375 27.296875 
Q 18.109375 17.390625 22.1875 11.75 
Q 26.265625 6.109375 33.40625 6.109375 
Q 40.53125 6.109375 44.609375 11.75 
Q 48.6875 17.390625 48.6875 27.296875 
z
" id="DejaVuSans-112"/>
      <path d="M 30.609375 48.390625 
Q 23.390625 48.390625 19.1875 42.75 
Q 14.984375 37.109375 14.984375 27.296875 
Q 14.984375 17.484375 19.15625 11.84375 
Q 23.34375 6.203125 30.609375 6.203125 
Q 37.796875 6.203125 41.984375 11.859375 
Q 46.1875 17.53125 46.1875 27.296875 
Q 46.1875 37.015625 41.984375 42.703125 
Q 37.796875 48.390625 30.609375 48.390625 
z
M 30.609375 56 
Q 42.328125 56 49.015625 48.375 
Q 55.71875 40.765625 55.71875 27.296875 
Q 55.71875 13.875 49.015625 6.21875 
Q 42.328125 -1.421875 30.609375 -1.421875 
Q 18.84375 -1.421875 12.171875 6.21875 
Q 5.515625 13.875 5.515625 27.296875 
Q 5.515625 40.765625 12.171875 48.375 
Q 18.84375 56 30.609375 56 
z
" id="DejaVuSans-111"/>
      <path id="DejaVuSans-32"/>
      <path d="M 31 75.875 
Q 24.46875 64.65625 21.28125 53.65625 
Q 18.109375 42.671875 18.109375 31.390625 
Q 18.109375 20.125 21.3125 9.0625 
Q 24.515625 -2 31 -13.1875 
L 23.1875 -13.1875 
Q 15.875 -1.703125 12.234375 9.375 
Q 8.59375 20.453125 8.59375 31.390625 
Q 8.59375 42.28125 12.203125 53.3125 
Q 15.828125 64.359375 23.1875 75.875 
z
" id="DejaVuSans-40"/>
      <path d="M 44.28125 53.078125 
L 44.28125 44.578125 
Q 40.484375 46.53125 36.375 47.5 
Q 32.28125 48.484375 27.875 48.484375 
Q 21.1875 48.484375 17.84375 46.4375 
Q 14.5 44.390625 14.5 40.28125 
Q 14.5 37.15625 16.890625 35.375 
Q 19.28125 33.59375 26.515625 31.984375 
L 29.59375 31.296875 
Q 39.15625 29.25 43.1875 25.515625 
Q 47.21875 21.78125 47.21875 15.09375 
Q 47.21875 7.46875 41.1875 3.015625 
Q 35.15625 -1.421875 24.609375 -1.421875 
Q 20.21875 -1.421875 15.453125 -0.5625 
Q 10.6875 0.296875 5.421875 2 
L 5.421875 11.28125 
Q 10.40625 8.6875 15.234375 7.390625 
Q 20.0625 6.109375 24.8125 6.109375 
Q 31.15625 6.109375 34.5625 8.28125 
Q 37.984375 10.453125 37.984375 14.40625 
Q 37.984375 18.0625 35.515625 20.015625 
Q 33.0625 21.96875 24.703125 23.78125 
L 21.578125 24.515625 
Q 13.234375 26.265625 9.515625 29.90625 
Q 5.8125 33.546875 5.8125 39.890625 
Q 5.8125 47.609375 11.28125 51.796875 
Q 16.75 56 26.8125 56 
Q 31.78125 56 36.171875 55.265625 
Q 40.578125 54.546875 44.28125 53.078125 
z
" id="DejaVuSans-115"/>
      <path d="M 8.015625 75.875 
L 15.828125 75.875 
Q 23.140625 64.359375 26.78125 53.3125 
Q 30.421875 42.28125 30.421875 31.390625 
Q 30.421875 20.453125 26.78125 9.375 
Q 23.140625 -1.703125 15.828125 -13.1875 
L 8.015625 -13.1875 
Q 14.5 -2 17.703125 9.0625 
Q 20.90625 20.125 20.90625 31.390625 
Q 20.90625 42.671875 17.703125 53.65625 
Q 14.5 64.65625 8.015625 75.875 
z
" id="DejaVuSans-41"/>
     </defs>
     <g transform="translate(205.973281 335.860562)scale(0.1 -0.1)">
      <use xlink:href="#DejaVuSans-84"/>
      <use x="60.818359" xlink:href="#DejaVuSans-101"/>
      <use x="122.341797" xlink:href="#DejaVuSans-109"/>
      <use x="219.753906" xlink:href="#DejaVuSans-112"/>
      <use x="283.230469" xlink:href="#DejaVuSans-111"/>
      <use x="344.412109" xlink:href="#DejaVuSans-32"/>
      <use x="376.199219" xlink:href="#DejaVuSans-40"/>
      <use x="415.212891" xlink:href="#DejaVuSans-109"/>
      <use x="512.625" xlink:href="#DejaVuSans-115"/>
      <use x="564.724609" xlink:href="#DejaVuSans-41"/>
     </g>
    </g>
   </g>
   <g id="matplotlib.axis_2">
    <g id="ytick_1">
     <g id="line2d_19">
      <path clip-path="url(#p18791023ca)" d="M 57.6 295.488 
L 414.72 295.488 
" style="fill:none;stroke:#b0b0b0;stroke-linecap:square;stroke-width:0.8;"/>
     </g>
     <g id="line2d_20">
      <defs>
       <path d="M 0 0 
L -3.5 0 
" id="mdacc0907c3" style="stroke:#000000;stroke-width:0.8;"/>
      </defs>
      <g>
       <use style="stroke:#000000;stroke-width:0.8;" x="57.6" xlink:href="#mdacc0907c3" y="295.488"/>
      </g>
     </g>
     <g id="text_11">
      <!-- −1.00 -->
      <defs>
       <path d="M 10.59375 35.5 
L 73.1875 35.5 
L 73.1875 27.203125 
L 10.59375 27.203125 
z
" id="DejaVuSans-8722"/>
       <path d="M 10.6875 12.40625 
L 21 12.40625 
L 21 0 
L 10.6875 0 
z
" id="DejaVuSans-46"/>
      </defs>
      <g transform="translate(19.954687 299.287219)scale(0.1 -0.1)">
       <use xlink:href="#DejaVuSans-8722"/>
       <use x="83.789062" xlink:href="#DejaVuSans-49"/>
       <use x="147.412109" xlink:href="#DejaVuSans-46"/>
       <use x="179.199219" xlink:href="#DejaVuSans-48"/>
       <use x="242.822266" xlink:href="#DejaVuSans-48"/>
      </g>
     </g>
    </g>
    <g id="ytick_2">
     <g id="line2d_21">
      <path clip-path="url(#p18791023ca)" d="M 57.6 265.248 
L 414.72 265.248 
" style="fill:none;stroke:#b0b0b0;stroke-linecap:square;stroke-width:0.8;"/>
     </g>
     <g id="line2d_22">
      <g>
       <use style="stroke:#000000;stroke-width:0.8;" x="57.6" xlink:href="#mdacc0907c3" y="265.248"/>
      </g>
     </g>
     <g id="text_12">
      <!-- −0.75 -->
      <g transform="translate(19.954687 269.047219)scale(0.1 -0.1)">
       <use xlink:href="#DejaVuSans-8722"/>
       <use x="83.789062" xlink:href="#DejaVuSans-48"/>
       <use x="147.412109" xlink:href="#DejaVuSans-46"/>
       <use x="179.199219" xlink:href="#DejaVuSans-55"/>
       <use x="242.822266" xlink:href="#DejaVuSans-53"/>
      </g>
     </g>
    </g>
    <g id="ytick_3">
     <g id="line2d_23">
      <path clip-path="url(#p18791023ca)" d="M 57.6 235.008 
L 414.72 235.008 
" style="fill:none;stroke:#b0b0b0;stroke-linecap:square;stroke-width:0.8;"/>
     </g>
     <g id="line2d_24">
      <g>
       <use style="stroke:#000000;stroke-width:0.8;" x="57.6" xlink:href="#mdacc0907c3" y="235.008"/>
      </g>
     </g>
     <g id="text_13">
      <!-- −0.50 -->
      <g transform="translate(19.954687 238.807219)scale(0.1 -0.1)">
       <use xlink:href="#DejaVuSans-8722"/>
       <use x="83.789062" xlink:href="#DejaVuSans-48"/>
       <use x="147.412109" xlink:href="#DejaVuSans-46"/>
       <use x="179.199219" xlink:href="#DejaVuSans-53"/>
       <use x="242.822266" xlink:href="#DejaVuSans-48"/>
      </g>
     </g>
    </g>
    <g id="ytick_4">
     <g id="line2d_25">
      <path clip-path="url(#p18791023ca)" d="M 57.6 204.768 
L 414.72 204.768 
" style="fill:none;stroke:#b0b0b0;stroke-linecap:square;stroke-width:0.8;"/>
     </g>
     <g id="line2d_26">
      <g>
       <use style="stroke:#000000;stroke-width:0.8;" x="57.6" xlink:href="#mdacc0907c3" y="204.768"/>
      </g>
     </g>
     <g id="text_14">
      <!-- −0.25 -->
      <g transform="translate(19.954687 208.567219)scale(0.1 -0.1)">
       <use xlink:href="#DejaVuSans-8722"/>
       <use x="83.789062" xlink:href="#DejaVuSans-48"/>
       <use x="147.412109" xlink:href="#DejaVuSans-46"/>
       <use x="179.199219" xlink:href="#DejaVuSans-50"/>
       <use x="242.822266" xlink:href="#DejaVuSans-53"/>
      </g>
     </g>
    </g>
    <g id="ytick_5">
     <g id="line2d_27">
      <path clip-path="url(#p18791023ca)" d="M 57.6 174.528 
L 414.72 174.528 
" style="fill:none;stroke:#b0b0b0;stroke-linecap:square;stroke-width:0.8;"/>
     </g>
     <g id="line2d_28">
      <g>
       <use style="stroke:#000000;stroke-width:0.8;" x="57.6" xlink:href="#mdacc0907c3" y="174.528"/>
      </g>
     </g>
     <g id="text_15">
      <!-- 0.00 -->
      <g transform="translate(28.334375 178.327219)scale(0.1 -0.1)">
       <use xlink:href="#DejaVuSans-48"/>
       <use x="63.623047" xlink:href="#DejaVuSans-46"/>
       <use x="95.410156" xlink:href="#DejaVuSans-48"/>
       <use x="159.033203" xlink:href="#DejaVuSans-48"/>
      </g>
     </g>
    </g>
    <g id="ytick_6">
     <g id="line2d_29">
      <path clip-path="url(#p18791023ca)" d="M 57.6 144.288 
L 414.72 144.288 
" style="fill:none;stroke:#b0b0b0;stroke-linecap:square;stroke-width:0.8;"/>
     </g>
     <g id="line2d_30">
      <g>
       <use style="stroke:#000000;stroke-width:0.8;" x="57.6" xlink:href="#mdacc0907c3" y="144.288"/>
      </g>
     </g>
     <g id="text_16">
      <!-- 0.25 -->
      <g transform="translate(28.334375 148.087219)scale(0.1 -0.1)">
       <use xlink:href="#DejaVuSans-48"/>
       <use x="63.623047" xlink:href="#DejaVuSans-46"/>
       <use x="95.410156" xlink:href="#DejaVuSans-50"/>
       <use x="159.033203" xlink:href="#DejaVuSans-53"/>
      </g>
     </g>
    </g>
    <g id="ytick_7">
     <g id="line2d_31">
      <path clip-path="url(#p18791023ca)" d="M 57.6 114.048 
L 414.72 114.048 
" style="fill:none;stroke:#b0b0b0;stroke-linecap:square;stroke-width:0.8;"/>
     </g>
     <g id="line2d_32">
      <g>
       <use style="stroke:#000000;stroke-width:0.8;" x="57.6" xlink:href="#mdacc0907c3" y="114.048"/>
      </g>
     </g>
     <g id="text_17">
      <!-- 0.50 -->
      <g transform="translate(28.334375 117.847219)scale(0.1 -0.1)">
       <use xlink:href="#DejaVuSans-48"/>
       <use x="63.623047" xlink:href="#DejaVuSans-46"/>
       <use x="95.410156" xlink:href="#DejaVuSans-53"/>
       <use x="159.033203" xlink:href="#DejaVuSans-48"/>
      </g>
     </g>
    </g>
    <g id="ytick_8">
     <g id="line2d_33">
      <path clip-path="url(#p18791023ca)" d="M 57.6 83.808 
L 414.72 83.808 
" style="fill:none;stroke:#b0b0b0;stroke-linecap:square;stroke-width:0.8;"/>
     </g>
     <g id="line2d_34">
      <g>
       <use style="stroke:#000000;stroke-width:0.8;" x="57.6" xlink:href="#mdacc0907c3" y="83.808"/>
      </g>
     </g>
     <g id="text_18">
      <!-- 0.75 -->
      <g transform="translate(28.334375 87.607219)scale(0.1 -0.1)">
       <use xlink:href="#DejaVuSans-48"/>
       <use x="63.623047" xlink:href="#DejaVuSans-46"/>
       <use x="95.410156" xlink:href="#DejaVuSans-55"/>
       <use x="159.033203" xlink:href="#DejaVuSans-53"/>
      </g>
     </g>
    </g>
    <g id="ytick_9">
     <g id="line2d_35">
      <path clip-path="url(#p18791023ca)" d="M 57.6 53.568 
L 414.72 53.568 
" style="fill:none;stroke:#b0b0b0;stroke-linecap:square;stroke-width:0.8;"/>
     </g>
     <g id="line2d_36">
      <g>
       <use style="stroke:#000000;stroke-width:0.8;" x="57.6" xlink:href="#mdacc0907c3" y="53.568"/>
      </g>
     </g>
     <g id="text_19">
      <!-- 1.00 -->
      <g transform="translate(28.334375 57.367219)scale(0.1 -0.1)">
       <use xlink:href="#DejaVuSans-49"/>
       <use x="63.623047" xlink:href="#DejaVuSans-46"/>
       <use x="95.410156" xlink:href="#DejaVuSans-48"/>
       <use x="159.033203" xlink:href="#DejaVuSans-48"/>
      </g>
     </g>
    </g>
    <g id="text_20">
     <!-- CST normalizado -->
     <defs>
      <path d="M 64.40625 67.28125 
L 64.40625 56.890625 
Q 59.421875 61.53125 53.78125 63.8125 
Q 48.140625 66.109375 41.796875 66.109375 
Q 29.296875 66.109375 22.65625 58.46875 
Q 16.015625 50.828125 16.015625 36.375 
Q 16.015625 21.96875 22.65625 14.328125 
Q 29.296875 6.6875 41.796875 6.6875 
Q 48.140625 6.6875 53.78125 8.984375 
Q 59.421875 11.28125 64.40625 15.921875 
L 64.40625 5.609375 
Q 59.234375 2.09375 53.4375 0.328125 
Q 47.65625 -1.421875 41.21875 -1.421875 
Q 24.65625 -1.421875 15.125 8.703125 
Q 5.609375 18.84375 5.609375 36.375 
Q 5.609375 53.953125 15.125 64.078125 
Q 24.65625 74.21875 41.21875 74.21875 
Q 47.75 74.21875 53.53125 72.484375 
Q 59.328125 70.75 64.40625 67.28125 
z
" id="DejaVuSans-67"/>
      <path d="M 53.515625 70.515625 
L 53.515625 60.890625 
Q 47.90625 63.578125 42.921875 64.890625 
Q 37.9375 66.21875 33.296875 66.21875 
Q 25.25 66.21875 20.875 63.09375 
Q 16.5 59.96875 16.5 54.203125 
Q 16.5 49.359375 19.40625 46.890625 
Q 22.3125 44.4375 30.421875 42.921875 
L 36.375 41.703125 
Q 47.40625 39.59375 52.65625 34.296875 
Q 57.90625 29 57.90625 20.125 
Q 57.90625 9.515625 50.796875 4.046875 
Q 43.703125 -1.421875 29.984375 -1.421875 
Q 24.8125 -1.421875 18.96875 -0.25 
Q 13.140625 0.921875 6.890625 3.21875 
L 6.890625 13.375 
Q 12.890625 10.015625 18.65625 8.296875 
Q 24.421875 6.59375 29.984375 6.59375 
Q 38.421875 6.59375 43.015625 9.90625 
Q 47.609375 13.234375 47.609375 19.390625 
Q 47.609375 24.75 44.3125 27.78125 
Q 41.015625 30.8125 33.5 32.328125 
L 27.484375 33.5 
Q 16.453125 35.6875 11.515625 40.375 
Q 6.59375 45.0625 6.59375 53.421875 
Q 6.59375 63.09375 13.40625 68.65625 
Q 20.21875 74.21875 32.171875 74.21875 
Q 37.3125 74.21875 42.625 73.28125 
Q 47.953125 72.359375 53.515625 70.515625 
z
" id="DejaVuSans-83"/>
      <path d="M 54.890625 33.015625 
L 54.890625 0 
L 45.90625 0 
L 45.90625 32.71875 
Q 45.90625 40.484375 42.875 44.328125 
Q 39.84375 48.1875 33.796875 48.1875 
Q 26.515625 48.1875 22.3125 43.546875 
Q 18.109375 38.921875 18.109375 30.90625 
L 18.109375 0 
L 9.078125 0 
L 9.078125 54.6875 
L 18.109375 54.6875 
L 18.109375 46.1875 
Q 21.34375 51.125 25.703125 53.5625 
Q 30.078125 56 35.796875 56 
Q 45.21875 56 50.046875 50.171875 
Q 54.890625 44.34375 54.890625 33.015625 
z
" id="DejaVuSans-110"/>
      <path d="M 41.109375 46.296875 
Q 39.59375 47.171875 37.8125 47.578125 
Q 36.03125 48 33.890625 48 
Q 26.265625 48 22.1875 43.046875 
Q 18.109375 38.09375 18.109375 28.8125 
L 18.109375 0 
L 9.078125 0 
L 9.078125 54.6875 
L 18.109375 54.6875 
L 18.109375 46.1875 
Q 20.953125 51.171875 25.484375 53.578125 
Q 30.03125 56 36.53125 56 
Q 37.453125 56 38.578125 55.875 
Q 39.703125 55.765625 41.0625 55.515625 
z
" id="DejaVuSans-114"/>
      <path d="M 34.28125 27.484375 
Q 23.390625 27.484375 19.1875 25 
Q 14.984375 22.515625 14.984375 16.5 
Q 14.984375 11.71875 18.140625 8.90625 
Q 21.296875 6.109375 26.703125 6.109375 
Q 34.1875 6.109375 38.703125 11.40625 
Q 43.21875 16.703125 43.21875 25.484375 
L 43.21875 27.484375 
z
M 52.203125 31.203125 
L 52.203125 0 
L 43.21875 0 
L 43.21875 8.296875 
Q 40.140625 3.328125 35.546875 0.953125 
Q 30.953125 -1.421875 24.3125 -1.421875 
Q 15.921875 -1.421875 10.953125 3.296875 
Q 6 8.015625 6 15.921875 
Q 6 25.140625 12.171875 29.828125 
Q 18.359375 34.515625 30.609375 34.515625 
L 43.21875 34.515625 
L 43.21875 35.40625 
Q 43.21875 41.609375 39.140625 45 
Q 35.0625 48.390625 27.6875 48.390625 
Q 23 48.390625 18.546875 47.265625 
Q 14.109375 46.140625 10.015625 43.890625 
L 10.015625 52.203125 
Q 14.9375 54.109375 19.578125 55.046875 
Q 24.21875 56 28.609375 56 
Q 40.484375 56 46.34375 49.84375 
Q 52.203125 43.703125 52.203125 31.203125 
z
" id="DejaVuSans-97"/>
      <path d="M 9.421875 75.984375 
L 18.40625 75.984375 
L 18.40625 0 
L 9.421875 0 
z
" id="DejaVuSans-108"/>
      <path d="M 9.421875 54.6875 
L 18.40625 54.6875 
L 18.40625 0 
L 9.421875 0 
z
M 9.421875 75.984375 
L 18.40625 75.984375 
L 18.40625 64.59375 
L 9.421875 64.59375 
z
" id="DejaVuSans-105"/>
      <path d="M 5.515625 54.6875 
L 48.1875 54.6875 
L 48.1875 46.484375 
L 14.40625 7.171875 
L 48.1875 7.171875 
L 48.1875 0 
L 4.296875 0 
L 4.296875 8.203125 
L 38.09375 47.515625 
L 5.515625 47.515625 
z
" id="DejaVuSans-122"/>
      <path d="M 45.40625 46.390625 
L 45.40625 75.984375 
L 54.390625 75.984375 
L 54.390625 0 
L 45.40625 0 
L 45.40625 8.203125 
Q 42.578125 3.328125 38.25 0.953125 
Q 33.9375 -1.421875 27.875 -1.421875 
Q 17.96875 -1.421875 11.734375 6.484375 
Q 5.515625 14.40625 5.515625 27.296875 
Q 5.515625 40.1875 11.734375 48.09375 
Q 17.96875 56 27.875 56 
Q 33.9375 56 38.25 53.625 
Q 42.578125 51.265625 45.40625 46.390625 
z
M 14.796875 27.296875 
Q 14.796875 17.390625 18.875 11.75 
Q 22.953125 6.109375 30.078125 6.109375 
Q 37.203125 6.109375 41.296875 11.75 
Q 45.40625 17.390625 45.40625 27.296875 
Q 45.40625 37.203125 41.296875 42.84375 
Q 37.203125 48.484375 30.078125 48.484375 
Q 22.953125 48.484375 18.875 42.84375 
Q 14.796875 37.203125 14.796875 27.296875 
z
" id="DejaVuSans-100"/>
     </defs>
     <g transform="translate(13.875 216.753781)rotate(-90)scale(0.1 -0.1)">
      <use xlink:href="#DejaVuSans-67"/>
      <use x="69.824219" xlink:href="#DejaVuSans-83"/>
      <use x="133.300781" xlink:href="#DejaVuSans-84"/>
      <use x="194.384766" xlink:href="#DejaVuSans-32"/>
      <use x="226.171875" xlink:href="#DejaVuSans-110"/>
      <use x="289.550781" xlink:href="#DejaVuSans-111"/>
      <use x="350.732422" xlink:href="#DejaVuSans-114"/>
      <use x="391.830078" xlink:href="#DejaVuSans-109"/>
      <use x="489.242188" xlink:href="#DejaVuSans-97"/>
      <use x="550.521484" xlink:href="#DejaVuSans-108"/>
      <use x="578.304688" xlink:href="#DejaVuSans-105"/>
      <use x="606.087891" xlink:href="#DejaVuSans-122"/>
      <use x="658.578125" xlink:href="#DejaVuSans-97"/>
      <use x="719.857422" xlink:href="#DejaVuSans-100"/>
      <use x="783.333984" xlink:href="#DejaVuSans-111"/>
     </g>
    </g>
   </g>
   <g id="line2d_37">
    <path clip-path="url(#p18791023ca)" d="M 73.832727 204.767287 
L 74.116804 199.987209 
L 74.595675 185.170122 
L 74.952799 169.943843 
L 75.673136 135.117662 
L 76.58218 92.85927 
L 76.722189 91.89574 
L 76.750596 91.921427 
L 76.850023 92.300751 
L 77.010323 93.955 
L 77.205119 98.562713 
L 78.386064 132.482358 
L 78.485491 133.025316 
L 78.53419 132.906835 
L 78.653908 131.827113 
L 79.102342 124.692229 
L 79.603534 106.078038 
L 80.654616 60.155523 
L 81.021886 53.568055 
L 81.044207 53.605288 
L 81.1274 54.252716 
L 81.458146 59.249323 
L 81.809183 69.133526 
L 82.174424 76.96696 
L 82.600539 81.111118 
L 82.618801 81.102869 
L 82.75881 80.848373 
L 82.809538 80.81782 
L 82.854178 80.898687 
L 83.002304 81.746517 
L 83.128109 82.064899 
L 83.168691 82.037223 
L 83.361457 81.735023 
L 83.426389 81.905401 
L 83.576544 82.405709 
L 83.63133 82.299418 
L 83.773368 81.353816 
L 84.240065 76.130573 
L 84.763577 69.011658 
L 85.021274 67.662997 
L 85.272885 67.652981 
L 85.28303 67.689556 
L 85.378399 68.545516 
L 85.634068 73.675288 
L 86.681092 97.766662 
L 87.525204 125.593351 
L 88.282064 147.288826 
L 88.689917 152.081881 
L 88.98008 152.835044 
L 89.126177 153.039731 
L 89.168788 152.965237 
L 89.282419 152.260049 
L 89.809989 146.701965 
L 90.351763 136.680093 
L 90.775848 124.333416 
L 91.344001 107.803745 
L 91.676776 101.416319 
L 92.19623 94.183223 
L 92.421461 91.837035 
L 92.5635 91.176222 
L 92.595965 91.200999 
L 92.685247 91.287074 
L 92.725829 91.196454 
L 92.829314 90.362542 
L 93.381233 82.353052 
L 93.789086 76.471332 
L 94.292307 72.124676 
L 94.359267 72.214525 
L 94.541888 73.018458 
L 95.067429 76.968035 
L 95.359622 78.88177 
L 95.507747 79.004271 
L 95.635582 79.693349 
L 96.126628 85.142306 
L 96.366063 90.634502 
L 97.390767 115.549169 
L 97.737746 120.293709 
L 97.788474 120.349289 
L 97.845289 120.265109 
L 98.131395 119.760683 
L 98.171977 119.79469 
L 98.374889 120.19712 
L 98.527072 120.911282 
L 98.979565 123.451907 
L 99.342777 123.616297 
L 99.480757 123.456763 
L 99.876435 122.695632 
L 99.935279 122.845572 
L 100.054997 124.024959 
L 100.515606 132.174325 
L 102.220064 164.542169 
L 103.612038 189.426717 
L 103.618125 189.424922 
L 103.676969 189.260389 
L 103.924522 188.043871 
L 104.009744 188.184269 
L 104.123375 188.348865 
L 104.165986 188.279452 
L 104.27353 187.61461 
L 104.583984 185.628373 
L 104.604276 185.644294 
L 104.693557 185.989298 
L 104.922847 186.606636 
L 105.036477 186.818314 
L 105.188661 187.761376 
L 105.64927 191.754105 
L 105.706086 191.680099 
L 105.990162 190.746432 
L 106.168724 189.338177 
L 106.414247 184.76249 
L 106.828187 174.015716 
L 107.863036 141.219789 
L 108.502208 131.172565 
L 108.688887 130.618759 
L 108.794401 130.217408 
L 109.021662 128.793221 
L 109.084564 129.096757 
L 109.267185 131.900011 
L 109.559377 134.828589 
L 109.725765 137.597122 
L 109.969259 140.336167 
L 109.973317 140.335034 
L 110.03622 140.18351 
L 110.176229 139.753928 
L 110.226957 139.871681 
L 110.433927 141.04863 
L 110.51712 140.706643 
L 111.064982 137.307558 
L 111.217165 136.394112 
L 111.493125 135.006687 
L 111.696037 134.614382 
L 111.884745 133.235229 
L 112.083598 132.625165 
L 112.23984 132.179331 
L 112.404199 130.414462 
L 112.649722 128.488451 
L 112.661896 128.492403 
L 112.81408 128.701828 
L 113.098156 129.461307 
L 113.232078 130.824299 
L 114.435344 146.758283 
L 114.76609 149.559562 
L 115.119156 155.066975 
L 115.56962 167.524147 
L 116.070812 179.028069 
L 116.28184 179.936476 
L 116.37315 180.083488 
L 116.41982 179.989747 
L 116.531421 179.136896 
L 116.890575 176.420456 
L 117.048846 175.273468 
L 117.353213 172.179849 
L 117.422203 172.30458 
L 117.641348 172.758276 
L 117.677872 172.728956 
L 117.805706 172.592311 
L 117.846288 172.6891 
L 117.947744 173.595382 
L 118.156743 177.871424 
L 118.588945 191.48541 
L 119.224058 209.798688 
L 119.842939 218.314303 
L 119.905841 218.443607 
L 119.964686 218.353613 
L 120.112811 218.092501 
L 120.159481 218.160878 
L 120.323839 218.566284 
L 120.382684 218.403479 
L 120.504431 217.134897 
L 121.027943 207.462311 
L 121.318106 199.650378 
L 121.60827 194.664849 
L 121.849735 190.584085 
L 122.198743 185.829227 
L 122.395567 182.796902 
L 122.821681 176.598082 
L 123.387805 173.275757 
L 123.501435 173.395231 
L 123.828123 174.474439 
L 124.002627 176.454963 
L 124.2725 181.97551 
L 124.810215 192.606558 
L 125.07603 195.161104 
L 125.264737 195.392237 
L 125.765929 195.92691 
L 126.058122 197.260225 
L 126.129141 197.131841 
L 126.323936 196.111218 
L 126.541052 194.227403 
L 126.743963 189.238648 
L 127.805191 159.174744 
L 128.006074 157.5803 
L 128.030423 157.605827 
L 128.119704 158.051575 
L 128.604663 162.303732 
L 128.945554 172.601317 
L 129.36964 187.144554 
L 129.769376 199.314994 
L 130.144762 210.491698 
L 131.112651 235.53462 
L 131.465717 240.60562 
L 131.542823 240.278756 
L 131.843132 237.625157 
L 131.926326 238.094225 
L 132.1475 241.578319 
L 133.001758 258.241547 
L 133.40961 264.473114 
L 135.069427 282.400069 
L 135.227698 284.936797 
L 135.542211 288.980124 
L 135.824259 289.987144 
L 136.108335 292.510829 
L 136.16515 292.363576 
L 136.353858 290.86445 
L 136.87737 286.408726 
L 138.023821 261.544364 
L 138.318042 256.49649 
L 138.762419 253.748702 
L 139.10534 252.306348 
L 139.858142 245.553601 
L 140.357304 237.773477 
L 140.797623 233.881843 
L 140.903137 234.138848 
L 140.976185 234.273363 
L 141.024884 234.165586 
L 141.136485 233.200865 
L 141.576803 229.080987 
L 141.65188 228.988686 
L 141.704637 229.042833 
L 141.832472 229.458896 
L 141.970452 230.906736 
L 142.607594 241.589481 
L 143.204154 258.309129 
L 143.946811 292.976031 
L 144.139577 295.02736 
L 144.145664 295.025915 
L 144.218713 294.868038 
L 144.405391 293.902141 
L 144.640769 291.080835 
L 145.103407 282.340679 
L 145.876501 260.211742 
L 147.268474 222.050202 
L 147.556609 220.347976 
L 147.5769 220.366027 
L 147.660094 220.727656 
L 147.885326 223.035321 
L 148.398692 228.338106 
L 148.54073 228.746738 
L 148.585371 228.682983 
L 148.723351 227.991198 
L 149.20628 224.834051 
L 149.29962 225.109682 
L 150.017927 228.875509 
L 150.113295 228.565997 
L 150.557672 225.381982 
L 150.829573 221.398764 
L 151.190756 213.085142 
L 151.555997 206.796132 
L 151.884714 202.058983 
L 151.937471 202.298575 
L 152.05516 204.443623 
L 152.653749 222.117952 
L 153.116387 238.367418 
L 153.532356 247.082096 
L 153.783967 248.610293 
L 153.808316 248.579002 
L 153.887452 248.102634 
L 154.039635 245.460753 
L 154.599671 229.84186 
L 155.63655 192.917472 
L 156.843874 164.26683 
L 157.338978 158.05654 
L 157.428259 158.491621 
L 158.002499 164.308303 
L 158.388031 171.105105 
L 158.716748 173.449252 
L 158.785738 173.158774 
L 158.923718 171.082834 
L 159.276784 161.366749 
L 159.56289 145.78408 
L 160.185829 112.639549 
L 160.57339 100.45963 
L 160.891961 94.254847 
L 160.936602 94.208427 
L 160.999504 94.281045 
L 161.098931 94.322744 
L 161.137484 94.281252 
L 161.234882 94.203078 
L 161.271406 94.278617 
L 161.368803 95.043316 
L 161.594035 99.123151 
L 163.251823 127.512605 
L 163.665763 130.777083 
L 163.781423 131.14239 
L 163.828092 131.072376 
L 164.035062 130.462265 
L 164.114198 130.600533 
L 164.400303 131.362528 
L 164.473351 131.312951 
L 164.538283 131.356235 
L 164.552487 131.39172 
L 164.651913 132.014366 
L 164.940048 136.052596 
L 165.362104 143.765364 
L 166.147372 161.774122 
L 166.287381 162.694285 
L 166.319847 162.654341 
L 166.419274 162.11566 
L 166.685088 159.239007 
L 166.91032 152.991298 
L 167.910674 122.989378 
L 168.488972 113.96077 
L 168.736524 113.469419 
L 168.785223 113.473788 
L 168.81566 113.540789 
L 168.917116 114.226421 
L 169.247862 117.230419 
L 169.302648 117.15818 
L 169.438599 116.988658 
L 169.483239 117.031535 
L 169.568462 117.098439 
L 169.609044 117.022412 
L 169.700355 116.368131 
L 169.889063 112.87428 
L 171.636132 77.693396 
L 171.979052 74.870658 
L 172.019635 74.971815 
L 172.110945 76.002138 
L 172.395021 82.976693 
L 172.817077 97.916345 
L 173.379143 116.793188 
L 173.651044 120.518293 
L 173.703801 120.580083 
L 173.758587 120.490031 
L 173.937149 120.069597 
L 174.000052 120.140811 
L 174.060926 120.171919 
L 174.101508 120.095168 
L 174.215138 119.382539 
L 174.639224 114.335738 
L 174.872572 109.941487 
L 176.203672 80.390309 
L 176.366002 78.89066 
L 176.400497 78.950924 
L 176.526302 79.79518 
L 176.777912 80.850138 
L 176.885455 81.851857 
L 177.295337 86.304307 
L 177.382589 86.517598 
L 177.504336 87.794447 
L 177.764063 90.075206 
L 177.776237 90.070219 
L 177.956829 89.875048 
L 178.017702 90.023651 
L 178.20641 90.617191 
L 178.269313 90.477191 
L 178.567593 88.924381 
L 178.669049 89.293142 
L 178.84964 91.321221 
L 179.137774 97.211549 
L 179.649112 114.802173 
L 180.324808 134.345342 
L 180.671786 139.553304 
L 181.018765 142.067893 
L 181.041086 142.045926 
L 181.120221 141.667802 
L 181.39821 138.712862 
L 181.65185 133.312656 
L 182.670466 106.779277 
L 182.932222 104.863661 
L 182.966717 104.928169 
L 183.062085 105.695146 
L 183.502404 112.452472 
L 183.810829 120.690943 
L 184.72799 148.765973 
L 185.637034 185.745935 
L 186.024595 193.802975 
L 186.046915 193.821747 
L 186.093585 193.692359 
L 186.274176 192.23278 
L 186.531874 188.931347 
L 186.799718 180.209715 
L 187.166988 171.599594 
L 187.434831 169.157071 
L 187.447006 169.163474 
L 187.511937 169.397481 
L 187.635713 170.900887 
L 188.354021 181.936271 
L 188.603602 184.080802 
L 188.648242 184.004877 
L 188.784193 183.192367 
L 189.025658 182.161349 
L 189.102765 182.046423 
L 189.214366 181.249936 
L 189.689179 175.069319 
L 189.993547 167.819563 
L 190.28371 163.737913 
L 190.573874 160.485409 
L 190.874183 157.463609 
L 190.88027 157.464766 
L 190.97361 157.612708 
L 191.062891 157.719361 
L 191.107531 157.645487 
L 191.243482 156.921262 
L 191.346967 156.521414 
L 191.395666 156.666304 
L 191.513355 158.024558 
L 191.797431 160.732106 
L 191.945556 161.123449 
L 192.061216 162.824924 
L 192.958085 180.154487 
L 193.578995 185.642414 
L 193.643927 185.46737 
L 193.852926 183.84436 
L 194.871542 173.732851 
L 195.210404 165.096456 
L 196.062633 139.648918 
L 196.62064 132.635939 
L 196.673397 132.526969 
L 196.724125 132.662175 
L 196.866163 133.955266 
L 197.170531 138.406204 
L 197.37953 146.39373 
L 198.465107 194.368528 
L 198.950066 205.292083 
L 199.116453 205.677448 
L 199.221967 205.824488 
L 199.380238 206.713204 
L 199.510102 207.260511 
L 199.556772 207.168643 
L 199.684606 206.246176 
L 199.926071 205.060001 
L 200.015352 204.848216 
L 200.124924 203.703619 
L 200.431321 197.013139 
L 200.973095 183.764179 
L 201.295724 178.188978 
L 201.569655 176.616627 
L 201.679227 176.606493 
L 201.701547 176.627673 
L 201.805032 176.907053 
L 201.928808 178.140403 
L 203.332957 199.818227 
L 203.558189 201.931074 
L 203.732693 201.994433 
L 203.848352 202.268572 
L 203.903139 202.350202 
L 203.949808 202.235809 
L 204.051264 201.208373 
L 204.246059 196.497791 
L 205.500053 161.283615 
L 205.694848 160.427962 
L 205.968779 159.833678 
L 206.043856 160.034126 
L 206.171691 161.233685 
L 207.271472 174.551611 
L 207.399306 175.030316 
L 207.443947 174.92516 
L 207.549461 173.9171 
L 208.294146 161.881834 
L 208.657358 156.982079 
L 208.884619 156.145134 
L 208.890706 156.146287 
L 208.986075 156.285135 
L 209.107822 157.02162 
L 209.466975 159.908766 
L 209.519732 159.820116 
L 209.678004 159.315721 
L 209.738877 159.494462 
L 209.974254 160.961378 
L 210.057448 160.625221 
L 210.311088 158.358805 
L 210.396311 158.868457 
L 210.611397 160.438201 
L 210.651979 160.37339 
L 210.846774 159.563209 
L 210.917794 159.919146 
L 211.24651 163.326864 
L 211.347966 163.133094 
L 211.412898 163.059719 
L 211.459568 163.147867 
L 211.567111 163.960839 
L 211.849158 165.656799 
L 211.995254 165.772758 
L 212.108885 166.650975 
L 212.340204 170.686609 
L 212.746027 181.128793 
L 213.125472 197.449103 
L 214.629047 275.282987 
L 214.923269 276.438444 
L 214.971968 276.527533 
L 215.022696 276.389462 
L 215.134297 275.182051 
L 215.436636 271.013637 
L 215.497509 271.204499 
L 215.63346 271.742888 
L 215.686217 271.611874 
L 215.805935 270.469372 
L 216.061603 267.972234 
L 216.098127 268.052985 
L 216.211758 269.046138 
L 216.386262 270.014695 
L 216.41467 269.988416 
L 216.737299 269.320598 
L 216.824551 269.507823 
L 216.889483 269.596651 
L 216.936152 269.49905 
L 217.045725 268.631493 
L 217.228345 265.165286 
L 217.741712 248.388601 
L 218.330155 230.045871 
L 218.713658 225.332045 
L 218.792794 225.675968 
L 218.959181 227.912593 
L 219.462402 238.684393 
L 220.004176 253.000391 
L 220.414058 259.870209 
L 220.54595 260.247224 
L 220.584503 260.201483 
L 220.673785 259.730027 
L 220.815823 257.534305 
L 221.422529 241.328249 
L 221.962273 227.585697 
L 222.396504 223.190123 
L 222.437087 223.16228 
L 222.483756 223.252623 
L 222.621736 224.127433 
L 222.735367 224.544053 
L 222.782036 224.466202 
L 222.920016 223.665866 
L 223.281199 221.717292 
L 223.449616 220.287378 
L 223.680935 218.601602 
L 223.711372 218.653096 
L 223.798624 219.324635 
L 223.96704 222.647922 
L 224.320107 235.196467 
L 225.210889 267.523812 
L 225.637003 272.624107 
L 225.657294 272.602165 
L 225.732371 272.164518 
L 225.894701 269.58928 
L 226.261971 259.92577 
L 227.317111 223.407992 
L 227.603217 219.839125 
L 227.637712 219.952306 
L 227.720905 221.248056 
L 227.946137 229.45531 
L 228.901851 262.644658 
L 229.147374 265.106874 
L 229.175782 265.052429 
L 229.258976 264.30409 
L 229.4558 259.980527 
L 230.068593 240.042976 
L 231.273888 191.732052 
L 231.687828 176.745353 
L 232.042923 169.4443 
L 232.111913 169.303842 
L 232.162641 169.407542 
L 232.420339 170.753638 
L 232.560348 172.652278 
L 232.887035 181.502787 
L 233.193432 196.890934 
L 233.988846 239.174055 
L 234.431193 248.324013 
L 234.504241 248.517178 
L 234.559027 248.414329 
L 234.721357 247.414319 
L 234.906006 245.455449 
L 235.098772 239.985637 
L 236.283776 200.74979 
L 236.98585 192.466845 
L 237.211082 192.08952 
L 237.401819 191.848286 
L 237.440372 191.892092 
L 237.574294 192.357608 
L 237.742711 192.887986 
L 237.785322 192.843335 
L 237.890836 192.402032 
L 238.081573 190.520065 
L 238.331154 185.296718 
L 238.70857 171.204036 
L 240.189825 109.478557 
L 240.463756 107.47113 
L 240.553037 107.316083 
L 240.599706 107.393913 
L 240.688988 108.054454 
L 240.942627 112.506411 
L 241.291635 116.849221 
L 241.520925 118.801577 
L 241.553391 118.741337 
L 241.64673 117.983087 
L 242.781006 105.686774 
L 242.88855 105.461973 
L 242.93319 105.534377 
L 243.026529 106.207151 
L 243.387712 111.428462 
L 244.824326 134.715378 
L 245.00086 135.122013 
L 245.126665 135.487031 
L 245.23015 135.605737 
L 245.270732 135.56357 
L 245.357984 135.175743 
L 245.530459 133.025478 
L 246.465882 117.623892 
L 247.437828 97.809026 
L 247.547401 97.343804 
L 247.59407 97.433537 
L 247.77872 98.523353 
L 248.166281 101.872987 
L 248.478765 104.076733 
L 248.622832 105.370266 
L 249.205189 114.830834 
L 249.629274 121.87003 
L 249.874797 125.307892 
L 250.252213 129.884721 
L 250.566726 133.706346 
L 250.830511 135.783751 
L 251.043568 136.358979 
L 251.08415 136.275201 
L 251.179519 135.425467 
L 251.376343 131.168535 
L 251.901884 113.739232 
L 252.591784 88.536086 
L 252.900209 82.358647 
L 253.133558 79.944605 
L 253.166023 80.00613 
L 253.257334 80.789777 
L 253.484595 85.22056 
L 253.827515 95.50347 
L 254.377406 110.912206 
L 254.649307 113.656171 
L 254.693948 113.72768 
L 254.744676 113.596884 
L 254.858306 112.462927 
L 255.107888 107.062196 
L 255.572555 93.2354 
L 256.071718 80.792175 
L 256.443046 75.967956 
L 256.574939 75.464101 
L 256.615521 75.527557 
L 256.745385 76.250859 
L 256.994966 78.914465 
L 257.287159 85.028596 
L 257.660516 90.383094 
L 257.837049 91.721831 
L 257.873573 91.648633 
L 257.973 90.773236 
L 258.289542 85.297528 
L 258.557385 77.049757 
L 259.210761 57.745275 
L 259.440051 55.339389 
L 259.657166 54.307719 
L 259.703836 54.442435 
L 259.803263 55.712255 
L 260.002116 61.753131 
L 260.448522 82.275717 
L 261.479313 143.33327 
L 262.025145 156.832542 
L 262.240231 158.532609 
L 262.601414 162.400555 
L 262.603443 162.400371 
L 262.745481 162.488026 
L 262.88752 163.223032 
L 263.007237 163.736201 
L 263.053907 163.626273 
L 263.171596 162.573092 
L 263.457701 160.434416 
L 263.6667 160.25635 
L 263.877728 159.226146 
L 263.946718 159.483672 
L 264.119193 161.458865 
L 265.046499 173.884032 
L 265.178392 174.129433 
L 265.223032 174.057475 
L 265.326517 173.379217 
L 265.533487 170.233816 
L 265.854088 162.461573 
L 266.6982 139.003007 
L 266.945752 137.146948 
L 266.951839 137.149179 
L 267.006626 137.313221 
L 267.128373 138.622573 
L 267.530138 146.330866 
L 268.422949 172.979888 
L 269.806806 214.901002 
L 270.044213 215.069619 
L 270.082766 214.905327 
L 270.18828 213.448766 
L 270.403366 206.528237 
L 270.845714 184.353288 
L 271.525468 146.725857 
L 271.827806 139.295575 
L 271.860272 139.224692 
L 271.913029 139.409459 
L 272.083474 141.205256 
L 272.310736 145.786993 
L 272.647569 158.813605 
L 273.426749 184.13367 
L 274.179552 200.561943 
L 274.421016 202.493446 
L 274.524501 202.621617 
L 274.569142 202.56308 
L 274.66654 202.059392 
L 274.881626 199.398147 
L 276.050397 181.778532 
L 276.275629 179.891151 
L 276.612462 172.717175 
L 276.851898 164.048701 
L 277.819786 122.275428 
L 278.231697 116.216188 
L 278.254017 116.209653 
L 278.290541 116.314503 
L 278.389968 117.387467 
L 278.667957 123.638117 
L 279.02914 135.992251 
L 279.834699 176.578579 
L 280.81882 224.427216 
L 281.348419 243.148428 
L 281.50872 244.925061 
L 281.535098 244.885886 
L 281.630467 244.265726 
L 281.888164 240.813029 
L 282.068756 233.915788 
L 282.636908 198.787608 
L 283.196944 165.046364 
L 283.511457 155.996481 
L 283.742777 154.37084 
L 283.769155 154.374766 
L 283.801621 154.463617 
L 283.903077 155.415787 
L 284.414414 164.047006 
L 285.812475 194.12981 
L 285.968717 194.750834 
L 285.995096 194.727926 
L 286.068144 194.376211 
L 286.218298 192.229321 
L 286.871674 182.072289 
L 287.094877 179.973112 
L 287.107051 179.977876 
L 287.204449 180.183306 
L 287.52302 181.554099 
L 287.689408 184.150972 
L 288.55584 201.193593 
L 288.594394 201.238436 
L 288.643092 201.120467 
L 288.748606 200.089876 
L 289.03877 194.177881 
L 289.391836 181.716442 
L 289.757077 171.105747 
L 290.18725 163.44906 
L 290.237978 163.584398 
L 290.647859 165.14801 
L 290.755402 165.831995 
L 291.0131 167.769629 
L 291.067886 167.644938 
L 291.88562 164.458962 
L 291.914028 164.487025 
L 291.999251 164.871015 
L 292.240716 167.436655 
L 292.45986 168.52206 
L 292.626248 169.170206 
L 292.902207 172.030661 
L 294.020251 184.109411 
L 294.099386 183.966647 
L 294.194755 183.817431 
L 294.245482 183.882938 
L 294.355055 184.400606 
L 294.568112 185.59072 
L 294.614782 185.52657 
L 294.771024 185.108065 
L 294.831897 185.280521 
L 294.93944 186.536037 
L 295.552233 199.096318 
L 296.471423 231.819014 
L 297.017255 241.881035 
L 297.175526 242.70503 
L 297.203934 242.675997 
L 297.321623 242.207423 
L 297.546855 241.664607 
L 297.550913 241.665656 
L 297.674689 241.81695 
L 297.731504 241.846784 
L 297.774116 241.771885 
L 297.906008 241.052661 
L 298.094716 240.24266 
L 298.13124 240.284325 
L 298.255016 240.780693 
L 298.419375 241.377603 
L 298.459957 241.332414 
L 298.624315 240.968323 
L 298.687218 241.123327 
L 298.823169 242.210509 
L 299.837727 254.889854 
L 300.190793 264.621428 
L 301.061284 285.470683 
L 301.30072 288.163338 
L 301.635524 290.936543 
L 301.818144 291.641764 
L 302.169181 293.73483 
L 302.276725 293.369785 
L 302.426879 291.698003 
L 302.911838 281.896793 
L 303.258817 269.535014 
L 303.851319 252.802556 
L 304.204385 246.982899 
L 304.701519 241.964953 
L 305.076905 239.630322 
L 305.119517 239.668622 
L 305.245322 239.781906 
L 305.287933 239.728021 
L 305.397505 239.281267 
L 306.073201 234.311474 
L 306.614975 229.142906 
L 306.961954 227.062239 
L 307.049206 227.177527 
L 307.126313 227.251106 
L 307.170953 227.173718 
L 307.288642 226.482193 
L 308.061735 218.595363 
L 308.28088 216.576254 
L 308.282909 216.57657 
L 308.374219 216.714123 
L 308.426976 216.750041 
L 308.471617 216.662963 
L 308.587276 215.876118 
L 308.796275 214.40538 
L 308.838887 214.515878 
L 308.930197 215.608812 
L 309.508495 228.526356 
L 310.374928 262.360758 
L 310.813217 277.221658 
L 311.077002 280.972279 
L 311.233244 281.244082 
L 311.249477 281.238031 
L 311.352962 281.058668 
L 311.456447 280.338028 
L 311.604572 277.157829 
L 312.763198 245.439086 
L 312.984371 243.843642 
L 313.246127 241.754652 
L 313.278593 241.809844 
L 313.398311 242.591907 
L 313.487592 242.897174 
L 313.53832 242.769866 
L 313.666154 241.610445 
L 313.938056 239.229318 
L 313.972551 239.286404 
L 314.082123 240.003899 
L 314.52447 242.843497 
L 314.684771 243.343532 
L 314.727382 243.300496 
L 315.100739 242.422675 
L 315.413223 241.511348 
L 315.453806 241.512636 
L 315.486272 241.589352 
L 315.597873 242.419912 
L 316.352704 248.749625 
L 316.543441 248.995407 
L 316.54547 248.994697 
L 316.624606 248.845634 
L 316.728091 248.014725 
L 316.926944 244.003276 
L 318.044987 214.131095 
L 318.633431 182.425897 
L 319.313185 145.841334 
L 319.678426 135.036967 
L 319.968589 132.402965 
L 320.061929 132.202037 
L 320.108598 132.291132 
L 320.199909 133.086447 
L 321.352447 146.954942 
L 321.520863 148.105695 
L 321.89625 150.696661 
L 322.080899 151.510423 
L 322.312219 152.751118 
L 322.356859 152.678535 
L 322.478606 151.918691 
L 322.76877 148.406335 
L 323.000089 141.71881 
L 324.097841 106.310183 
L 324.333219 103.526352 
L 324.493519 103.408672 
L 324.62947 102.286085 
L 324.797886 101.074128 
L 324.844556 101.176777 
L 325.08805 102.327585 
L 325.181389 102.116514 
L 325.297049 101.846507 
L 325.345748 101.937526 
L 325.526339 102.896479 
L 326.187831 108.466871 
L 326.62612 115.246209 
L 327.027885 119.211506 
L 327.074555 119.294568 
L 327.127312 119.159093 
L 327.285583 117.884664 
L 328.178394 107.972991 
L 329.432388 87.168193 
L 329.462824 87.15684 
L 329.505436 87.254366 
L 329.65762 88.270103 
L 329.945754 91.706239 
L 330.217656 99.268802 
L 331.086117 124.531563 
L 331.35599 126.923644 
L 331.368165 126.917499 
L 331.433096 126.689965 
L 331.569047 125.220096 
L 332.914351 106.681005 
L 333.058419 105.577832 
L 333.592076 98.122908 
L 334.302267 88.293846 
L 336.079773 63.59592 
L 336.376024 63.204332 
L 336.428781 63.292579 
L 336.546469 63.942147 
L 336.893448 67.648697 
L 337.18767 69.754253 
L 337.388553 71.004645 
L 337.660454 72.40096 
L 337.836987 72.776321 
L 337.981055 74.485383 
L 338.277306 77.014802 
L 338.441664 78.526978 
L 338.780526 81.797916 
L 339.050399 82.717299 
L 339.121418 82.836134 
L 339.172146 82.748149 
L 339.360854 81.77436 
L 339.66725 80.83036 
L 339.847842 80.451326 
L 339.902628 80.539686 
L 340.097423 81.371313 
L 340.338888 83.155848 
L 340.596585 87.398451 
L 340.945593 96.441756 
L 342.156976 134.063827 
L 342.512071 138.78359 
L 342.566857 138.867017 
L 342.623673 138.770965 
L 342.749478 138.099392 
L 342.926011 135.611852 
L 343.745774 122.214 
L 343.788385 122.170583 
L 343.839113 122.274516 
L 344.0542 123.438056 
L 344.350451 125.668366 
L 344.845555 131.456589 
L 345.056583 132.612808 
L 345.15601 132.959876 
L 345.206738 132.847059 
L 345.334572 131.79098 
L 346.221296 123.393234 
L 346.320722 123.019613 
L 346.616973 121.059606 
L 346.706255 121.303033 
L 347.363688 125.032483 
L 348.244325 136.185727 
L 348.585216 140.287594 
L 348.887555 142.44744 
L 348.913933 142.419163 
L 349.001185 141.975709 
L 349.234533 140.515808 
L 349.28932 140.617815 
L 349.478027 141.141512 
L 349.534843 141.039862 
L 349.786453 140.119257 
L 349.855443 140.380248 
L 350.02386 142.554691 
L 350.311994 145.100305 
L 350.466207 146.119466 
L 350.817244 149.865004 
L 350.908554 149.666273 
L 350.98769 149.512385 
L 351.03436 149.631278 
L 351.162194 150.815571 
L 351.442212 152.705529 
L 351.594396 153.117405 
L 351.941375 154.231323 
L 352.024568 154.36991 
L 352.454741 155.803017 
L 352.554168 155.767785 
L 352.688089 155.599251 
L 352.856506 154.989647 
L 353.045214 153.329811 
L 353.503794 146.968909 
L 354.130791 137.541154 
L 354.406751 135.823491 
L 354.54676 135.819 
L 354.82272 135.744063 
L 354.924175 135.579848 
L 354.972874 135.660164 
L 355.137233 136.431206 
L 355.366523 137.290863 
L 355.401018 137.271159 
L 355.490299 137.239532 
L 355.522765 137.311768 
L 355.628279 138.052958 
L 355.894093 142.0851 
L 356.204548 149.154639 
L 356.93503 168.776409 
L 357.182582 170.899005 
L 357.411872 171.966344 
L 357.452454 171.909115 
L 357.588405 171.2445 
L 357.872481 168.738147 
L 358.509624 162.553467 
L 358.692244 162.31394 
L 358.726739 162.359979 
L 358.807904 162.827293 
L 358.941826 165.329283 
L 360.638167 204.892752 
L 361.583735 224.429731 
L 361.861724 227.730235 
L 361.900277 227.759469 
L 361.951005 227.6664 
L 362.084927 226.900034 
L 362.354799 225.689081 
L 362.488721 225.266999 
L 362.855991 223.348164 
L 362.916864 223.481342 
L 363.062961 224.594468 
L 363.308484 226.006793 
L 363.330804 225.988076 
L 363.418056 225.630534 
L 363.627055 224.676907 
L 363.673725 224.740832 
L 363.801559 224.976332 
L 363.848229 224.879122 
L 363.949685 224.013004 
L 364.690312 212.874764 
L 365.100194 205.954259 
L 365.556745 201.781006 
L 366.175625 197.820288 
L 367.038 185.979212 
L 367.113077 185.791239 
L 367.171921 185.854724 
L 367.370775 185.956477 
L 367.533104 185.944131 
L 367.551366 185.990308 
L 367.664997 186.675767 
L 367.865879 189.560117 
L 368.434032 197.60016 
L 368.685642 198.776674 
L 368.707962 198.760213 
L 368.789127 198.470218 
L 368.985951 196.603613 
L 369.432357 190.76928 
L 369.984276 176.395431 
L 370.45909 165.750148 
L 370.558516 165.212442 
L 370.607215 165.352883 
L 370.720846 166.652753 
L 371.035359 173.604813 
L 371.670472 186.702139 
L 371.999189 189.481763 
L 372.076295 189.359548 
L 372.254858 189.002221 
L 372.307615 189.075087 
L 372.407041 189.186223 
L 372.453711 189.120124 
L 372.557196 188.594523 
L 373.023893 185.751476 
L 373.216659 184.008954 
L 373.437832 182.499236 
L 373.456094 182.506781 
L 373.561608 182.728262 
L 373.819306 183.866322 
L 373.975548 186.426114 
L 374.381371 199.043179 
L 375.355347 229.647319 
L 375.886976 233.104659 
L 375.903209 233.099778 
L 376.031043 233.097609 
L 376.049305 233.148844 
L 376.146703 233.890082 
L 376.349614 237.767123 
L 377.151115 252.025658 
L 377.32359 252.840157 
L 377.339823 252.8348 
L 377.485919 252.824496 
L 377.504181 252.86577 
L 377.684773 253.696953 
L 377.75985 253.815784 
L 377.808549 253.731515 
L 377.918121 252.970943 
L 378.163644 250.953888 
L 378.216401 251.081879 
L 378.362498 252.275384 
L 378.640486 253.930663 
L 378.788612 254.769779 
L 379.023989 256.352661 
L 379.066601 256.300041 
L 379.222843 255.900295 
L 379.279658 256.08202 
L 379.407492 257.521757 
L 379.616491 259.533001 
L 379.644899 259.490835 
L 379.742297 258.868544 
L 379.922888 257.6822 
L 379.971587 257.805989 
L 380.215081 259.41505 
L 380.314507 258.964829 
L 381.087601 253.484503 
L 381.623287 250.954232 
L 381.759238 250.829153 
L 381.779529 250.837502 
L 381.897218 251.018046 
L 382.000703 251.770697 
L 382.177236 255.216987 
L 382.615525 264.044217 
L 383.550948 275.265489 
L 383.611821 275.376874 
L 383.664578 275.274194 
L 383.790384 274.383082 
L 384.399118 269.732259 
L 384.494487 269.519403 
L 384.541157 269.58583 
L 384.642612 270.179656 
L 385.017999 272.516236 
L 385.174241 273.339382 
L 385.36092 274.547843 
L 385.411647 274.396877 
L 385.525278 273.047211 
L 386.205032 263.378095 
L 386.558098 258.935048 
L 386.60071 259.013619 
L 386.801592 259.786429 
L 386.876669 259.58374 
L 387.107989 258.352886 
L 387.185095 258.599841 
L 387.312929 260.078104 
L 387.911519 272.021201 
L 388.364012 281.763713 
L 388.617651 284.36291 
L 388.648088 284.367499 
L 388.68867 284.281675 
L 388.84897 283.355317 
L 389.191891 280.27363 
L 389.668733 269.528911 
L 390.819242 239.865956 
L 390.947077 239.613657 
L 390.981572 239.645508 
L 391.113464 240.102642 
L 391.371162 241.48614 
L 391.657267 245.575645 
L 391.866266 246.953644 
L 392.263973 247.550545 
L 392.649505 248.082527 
L 392.673855 248.049699 
L 392.761107 247.58183 
L 393.053299 245.059635 
L 393.134464 245.364425 
L 393.775665 250.765946 
L 394.116556 255.525929 
L 394.33773 256.493015 
L 394.595428 258.344699 
L 394.664418 258.131574 
L 394.859213 256.317354 
L 395.090532 255.138895 
L 395.202133 254.26229 
L 395.400987 250.32071 
L 396.924853 214.611986 
L 397.265745 208.1315 
L 398.01246 187.233077 
L 398.385817 170.518516 
L 398.487273 166.131366 
L 398.487273 166.131366 
" style="fill:none;stroke:#000000;stroke-linecap:square;stroke-width:1.5;"/>
   </g>
   <g id="line2d_38">
    <path clip-path="url(#p18791023ca)" d="M 73.832727 174.481115 
L 76.005911 126.927257 
L 77.142216 106.839372 
L 78.061406 94.257473 
L 78.844644 86.359988 
L 79.524398 81.577907 
L 80.112842 78.876488 
L 80.614034 77.509133 
L 81.034061 76.933035 
L 81.385098 76.788419 
L 81.72396 76.889514 
L 82.143988 77.271379 
L 82.770984 78.182091 
L 84.233977 80.374985 
L 84.725023 80.702064 
L 85.108526 80.707756 
L 85.471738 80.480268 
L 85.873503 79.943117 
L 86.352375 78.895829 
L 86.930673 77.047842 
L 87.653038 73.928159 
L 88.661509 68.47564 
L 90.692654 57.346158 
L 91.36835 54.901147 
L 91.853309 53.87242 
L 92.198259 53.579485 
L 92.455956 53.621989 
L 92.7238 53.917325 
L 93.056575 54.65727 
L 93.470515 56.176941 
L 93.975765 58.955952 
L 94.584499 63.65528 
L 95.314981 71.159414 
L 96.219967 82.934107 
L 97.469903 102.414453 
L 100.310666 147.509853 
L 101.272467 158.878518 
L 102.039473 165.530228 
L 102.670528 169.248595 
L 103.183894 171.096078 
L 103.587688 171.831604 
L 103.887998 171.990015 
L 104.145695 171.87706 
L 104.450063 171.467402 
L 104.853857 170.505149 
L 105.39766 168.568928 
L 106.176841 164.869791 
L 108.638159 152.593302 
L 109.238777 150.888226 
L 109.683154 150.206982 
L 110.009841 150.053374 
L 110.285801 150.16357 
L 110.596256 150.555812 
L 110.985846 151.451711 
L 111.470805 153.182837 
L 112.075482 156.24041 
L 112.846546 161.388087 
L 113.946327 170.408857 
L 116.273723 189.778118 
L 117.101603 194.70685 
L 117.740774 197.304333 
L 118.241966 198.520968 
L 118.625469 198.950269 
L 118.919691 198.98687 
L 119.205796 198.784946 
L 119.556833 198.231012 
L 120.009326 197.056148 
L 120.603857 194.831612 
L 121.454057 190.680397 
L 123.62927 179.695989 
L 124.229888 177.884411 
L 124.658032 177.19906 
L 124.96037 177.06681 
L 125.21198 177.197529 
L 125.502144 177.635052 
L 125.865356 178.635171 
L 126.313791 180.589111 
L 126.857594 184.044691 
L 127.50894 189.728501 
L 128.298266 198.713853 
L 129.304708 212.925079 
L 130.950321 239.878421 
L 132.733914 267.930025 
L 133.746443 280.52649 
L 134.547944 287.94887 
L 135.205378 292.159996 
L 135.743094 294.321963 
L 136.169208 295.237157 
L 136.489809 295.482537 
L 136.745477 295.420298 
L 137.033612 295.092458 
L 137.411027 294.282722 
L 137.912219 292.623202 
L 138.596031 289.511374 
L 139.722191 283.173929 
L 141.317076 274.441565 
L 142.126694 271.194499 
L 142.761807 269.476636 
L 143.277203 268.655056 
L 143.699259 268.354074 
L 144.072616 268.345458 
L 144.472352 268.571946 
L 144.977602 269.138236 
L 145.815627 270.473106 
L 146.789603 271.904946 
L 147.260358 272.240101 
L 147.605308 272.234509 
L 147.919821 271.997452 
L 148.270858 271.426762 
L 148.680739 270.292697 
L 149.157582 268.25715 
L 149.705443 264.8628 
L 150.334469 259.459138 
L 151.054805 251.208423 
L 151.89283 238.875396 
L 152.90333 220.487574 
L 154.270955 191.136124 
L 157.460725 121.371233 
L 158.532099 103.432923 
L 159.416793 92.093241 
L 160.175683 85.01586 
L 160.833117 80.798767 
L 161.401269 78.463787 
L 161.88217 77.322362 
L 162.283935 76.871896 
L 162.624826 76.792113 
L 162.975863 76.948012 
L 163.428356 77.420523 
L 164.171013 78.576046 
L 165.30326 80.27609 
L 165.820684 80.67638 
L 166.212304 80.723073 
L 166.573487 80.536796 
L 166.969164 80.05732 
L 167.435861 79.104627 
L 167.993868 77.416572 
L 168.687826 74.548016 
L 169.629336 69.6069 
L 172.005431 56.723294 
L 172.638515 54.620357 
L 173.093037 53.775945 
L 173.417696 53.569265 
L 173.669306 53.656298 
L 173.949324 54.021335 
L 174.298332 54.889387 
L 174.730534 56.623263 
L 175.256075 59.735953 
L 175.88713 64.921385 
L 176.648049 73.157883 
L 177.601733 86.099163 
L 178.999795 108.497462 
L 181.278492 144.822495 
L 182.284934 157.292291 
L 183.080347 164.612962 
L 183.733723 168.759173 
L 184.26738 170.873091 
L 184.689437 171.757211 
L 185.005979 171.98633 
L 185.261647 171.915356 
L 185.55384 171.572163 
L 185.937343 170.734131 
L 186.45071 169.018477 
L 187.169017 165.756817 
L 190.038187 151.825684 
L 190.577932 150.558003 
L 190.977668 150.109645 
L 191.275948 150.068012 
L 191.555966 150.264866 
L 191.892799 150.808938 
L 192.314856 151.963095 
L 192.840397 154.111882 
L 193.49783 157.819222 
L 194.354117 164.037671 
L 195.786674 176.380038 
L 197.316627 188.924998 
L 198.176972 194.255596 
L 198.836435 197.079348 
L 199.351831 198.424072 
L 199.747508 198.924026 
L 200.049847 198.995541 
L 200.331894 198.825507 
L 200.672786 198.327285 
L 201.113104 197.242415 
L 201.689373 195.166519 
L 202.492903 191.344427 
L 204.923784 179.230051 
L 205.487878 177.688253 
L 205.889643 177.143531 
L 206.17372 177.07461 
L 206.427359 177.251491 
L 206.727668 177.767083 
L 207.105084 178.906345 
L 207.571781 181.097452 
L 208.135875 184.916712 
L 208.811571 191.140496 
L 209.635392 200.952359 
L 210.704736 216.588614 
L 214.767027 278.939942 
L 215.596936 287.030165 
L 216.274661 291.656439 
L 216.830638 294.081954 
L 217.272986 295.148336 
L 217.609819 295.470355 
L 217.871575 295.44381 
L 218.151593 295.163323 
L 218.510747 294.450868 
L 218.989618 292.955075 
L 219.640964 290.113065 
L 220.643348 284.604989 
L 222.536513 274.188385 
L 223.333956 271.055263 
L 223.962982 269.4015 
L 224.47229 268.622406 
L 224.890288 268.345833 
L 225.263646 268.353295 
L 225.669469 268.599802 
L 226.192981 269.208633 
L 227.097967 270.671638 
L 227.976574 271.928155 
L 228.439213 272.244528 
L 228.782133 272.229706 
L 229.098675 271.980916 
L 229.451742 271.39182 
L 229.865681 270.222337 
L 230.344553 268.141573 
L 230.896472 264.669182 
L 231.527528 259.175699 
L 232.251922 250.784485 
L 233.096034 238.240534 
L 234.11668 219.51752 
L 235.512712 189.385684 
L 238.564503 122.514428 
L 239.648051 104.152024 
L 240.538833 92.563185 
L 241.30381 85.30104 
L 241.965302 80.967454 
L 242.537512 78.553974 
L 243.0245 77.360053 
L 243.428294 76.884866 
L 243.771215 76.79017 
L 244.118194 76.931898 
L 244.5646 77.383794 
L 245.280878 78.483422 
L 246.476027 80.284908 
L 246.991423 80.678937 
L 247.385071 80.721395 
L 247.746254 80.529903 
L 248.137873 80.050848 
L 248.602541 79.099558 
L 249.164606 77.394958 
L 249.862622 74.500425 
L 250.80819 69.52599 
L 253.157907 56.772792 
L 253.79505 54.640872 
L 254.251601 53.783104 
L 254.576259 53.569888 
L 254.829899 53.653118 
L 255.107888 54.010317 
L 255.456896 54.870229 
L 255.889098 56.593702 
L 256.414639 59.693595 
L 257.045694 64.864032 
L 257.804583 73.059456 
L 258.756239 85.948809 
L 260.146183 108.191567 
L 262.44923 144.907292 
L 263.455672 157.357408 
L 264.251086 164.659536 
L 264.904461 168.789724 
L 265.43609 170.88486 
L 265.858146 171.762454 
L 266.172659 171.986651 
L 266.428327 171.913908 
L 266.72052 171.568845 
L 267.104023 170.728603 
L 267.619419 169.002555 
L 268.343813 165.705468 
L 271.184576 151.880847 
L 271.728379 150.581908 
L 272.130144 150.116749 
L 272.432482 150.065739 
L 272.712501 150.255911 
L 273.045276 150.783428 
L 273.461244 151.902433 
L 273.980698 153.995589 
L 274.632045 157.624852 
L 275.478186 163.71468 
L 276.851898 175.49974 
L 278.465045 188.809091 
L 279.329449 194.192478 
L 279.990941 197.045121 
L 280.510394 198.41277 
L 280.91013 198.922651 
L 281.212469 198.995944 
L 281.494516 198.827524 
L 281.835407 198.331154 
L 282.273696 197.254524 
L 282.847936 195.191809 
L 283.645379 191.407995 
L 286.098581 179.195238 
L 286.658617 177.676328 
L 287.058353 177.140635 
L 287.342429 177.075637 
L 287.596068 177.256212 
L 287.900436 177.785764 
L 288.279881 178.944724 
L 288.746577 181.154851 
L 289.310672 184.9971 
L 289.988396 191.268484 
L 290.814247 201.140771 
L 291.887649 216.877084 
L 295.9053 278.641581 
L 296.739266 286.84685 
L 297.421049 291.555876 
L 297.981085 294.035225 
L 298.427491 295.132203 
L 298.766353 295.467394 
L 299.028109 295.448127 
L 299.306098 295.177842 
L 299.665252 294.476093 
L 300.142094 293.000017 
L 300.787353 290.202985 
L 301.78162 284.759184 
L 303.713339 274.132709 
L 304.506723 271.029112 
L 305.131691 269.393305 
L 305.63897 268.62028 
L 306.058997 268.344669 
L 306.430326 268.353945 
L 306.83412 268.599802 
L 307.357632 269.208633 
L 308.278851 270.698843 
L 309.147312 271.934379 
L 309.609951 272.246306 
L 309.948813 272.228872 
L 310.265355 271.978505 
L 310.620451 271.382947 
L 311.032361 270.215214 
L 311.513262 268.120344 
L 312.065182 264.639126 
L 312.696237 259.134891 
L 313.42266 250.704454 
L 314.266773 238.139714 
L 315.289447 219.355113 
L 316.689538 189.108671 
L 319.719008 122.706076 
L 320.806614 104.242531 
L 321.699426 92.608311 
L 322.464402 85.333049 
L 323.125894 80.988802 
L 323.698105 78.567063 
L 324.185093 77.367047 
L 324.590916 76.886214 
L 324.933837 76.789996 
L 325.280816 76.930477 
L 325.725192 77.378624 
L 326.427267 78.452632 
L 327.648795 80.293644 
L 328.162161 80.68143 
L 328.551751 80.720955 
L 328.910905 80.529903 
L 329.306583 80.04434 
L 329.77125 79.089392 
L 330.335344 77.373271 
L 331.03336 74.47179 
L 331.978929 69.491268 
L 334.316471 56.797651 
L 334.955642 54.651184 
L 335.414222 53.785506 
L 335.74091 53.569888 
L 335.99455 53.653127 
L 336.272539 54.010326 
L 336.619518 54.863886 
L 337.051719 56.583903 
L 337.575231 59.665446 
L 338.204257 64.806826 
L 338.963147 72.985787 
L 339.910744 85.798703 
L 341.290543 107.851829 
L 343.621998 145.020174 
L 344.62641 157.422388 
L 345.419795 164.690509 
L 346.071141 168.799889 
L 346.60277 170.890727 
L 347.022797 171.762463 
L 347.339339 171.986954 
L 347.597037 171.910984 
L 347.891258 171.558826 
L 348.276791 170.706421 
L 348.794215 168.962608 
L 349.520639 165.643706 
L 352.330965 151.936761 
L 352.878826 150.606336 
L 353.28465 150.122991 
L 353.586988 150.063172 
L 353.864977 150.24284 
L 354.193694 150.750081 
L 354.607633 151.842724 
L 355.125058 153.899894 
L 355.772346 157.470859 
L 356.610371 163.458007 
L 357.939442 174.816113 
L 359.625638 188.780052 
L 360.490041 194.171368 
L 361.153562 197.038246 
L 361.673016 198.408975 
L 362.072752 198.921258 
L 362.37712 198.995944 
L 362.659167 198.827524 
L 363.000058 198.331144 
L 363.438347 197.254505 
L 364.010558 195.200223 
L 364.81003 191.407976 
L 367.263232 179.195229 
L 367.821238 177.680288 
L 368.220974 177.142065 
L 368.505051 177.075114 
L 368.75869 177.253847 
L 369.061029 177.776405 
L 369.440473 178.929343 
L 369.90717 181.131871 
L 370.471264 184.964936 
L 371.14696 191.204486 
L 371.970781 201.033113 
L 373.042155 216.716849 
L 377.086183 278.825548 
L 377.916092 286.947137 
L 378.597875 291.623101 
L 379.155882 294.068709 
L 379.600258 295.145155 
L 379.937092 295.46964 
L 380.198848 295.4449 
L 380.476837 295.169162 
L 380.838019 294.455918 
L 381.316891 292.962564 
L 381.966208 290.133056 
L 382.966562 284.640554 
L 384.865815 274.188348 
L 385.663258 271.055236 
L 386.292284 269.401482 
L 386.801592 268.622397 
L 387.21959 268.345824 
L 387.594977 268.353945 
L 387.998771 268.599811 
L 388.516195 269.20009 
L 389.411036 270.644396 
L 390.299789 271.921895 
L 390.764456 272.2433 
L 391.105348 272.232144 
L 391.419861 271.990421 
L 391.772927 271.409364 
L 392.182808 270.264685 
L 392.659651 268.215288 
L 393.209541 264.78859 
L 393.838567 259.358199 
L 394.558904 251.076283 
L 395.398958 238.675362 
L 396.413516 220.164785 
L 397.791286 190.537761 
L 398.487273 174.574354 
L 398.487273 174.574354 
" style="fill:none;stroke:#d3d3d3;stroke-linecap:square;stroke-width:1.5;"/>
   </g>
   <g id="patch_3">
    <path d="M 57.6 307.584 
L 57.6 41.472 
" style="fill:none;stroke:#000000;stroke-linecap:square;stroke-linejoin:miter;stroke-width:0.8;"/>
   </g>
   <g id="patch_4">
    <path d="M 414.72 307.584 
L 414.72 41.472 
" style="fill:none;stroke:#000000;stroke-linecap:square;stroke-linejoin:miter;stroke-width:0.8;"/>
   </g>
   <g id="patch_5">
    <path d="M 57.6 307.584 
L 414.72 307.584 
" style="fill:none;stroke:#000000;stroke-linecap:square;stroke-linejoin:miter;stroke-width:0.8;"/>
   </g>
   <g id="patch_6">
    <path d="M 57.6 41.472 
L 414.72 41.472 
" style="fill:none;stroke:#000000;stroke-linecap:square;stroke-linejoin:miter;stroke-width:0.8;"/>
   </g>
   <g id="legend_1">
    <g id="patch_7">
     <path d="M 336.427813 78.82825 
L 407.72 78.82825 
Q 409.72 78.82825 409.72 76.82825 
L 409.72 48.472 
Q 409.72 46.472 407.72 46.472 
L 336.427813 46.472 
Q 334.427813 46.472 334.427813 48.472 
L 334.427813 76.82825 
Q 334.427813 78.82825 336.427813 78.82825 
z
" style="fill:#ffffff;opacity:0.8;stroke:#cccccc;stroke-linejoin:miter;"/>
    </g>
    <g id="line2d_39">
     <path d="M 338.427813 54.570437 
L 358.427813 54.570437 
" style="fill:none;stroke:#000000;stroke-linecap:square;stroke-width:1.5;"/>
    </g>
    <g id="line2d_40"/>
    <g id="text_21">
     <!-- MN -->
     <defs>
      <path d="M 9.8125 72.90625 
L 24.515625 72.90625 
L 43.109375 23.296875 
L 61.8125 72.90625 
L 76.515625 72.90625 
L 76.515625 0 
L 66.890625 0 
L 66.890625 64.015625 
L 48.09375 14.015625 
L 38.1875 14.015625 
L 19.390625 64.015625 
L 19.390625 0 
L 9.8125 0 
z
" id="DejaVuSans-77"/>
      <path d="M 9.8125 72.90625 
L 23.09375 72.90625 
L 55.421875 11.921875 
L 55.421875 72.90625 
L 64.984375 72.90625 
L 64.984375 0 
L 51.703125 0 
L 19.390625 60.984375 
L 19.390625 0 
L 9.8125 0 
z
" id="DejaVuSans-78"/>
     </defs>
     <g transform="translate(366.427813 58.070437)scale(0.1 -0.1)">
      <use xlink:href="#DejaVuSans-77"/>
      <use x="86.279297" xlink:href="#DejaVuSans-78"/>
     </g>
    </g>
    <g id="line2d_41">
     <path d="M 338.427813 69.248562 
L 358.427813 69.248562 
" style="fill:none;stroke:#d3d3d3;stroke-linecap:square;stroke-width:1.5;"/>
    </g>
    <g id="line2d_42"/>
    <g id="text_22">
     <!-- Entrada -->
     <defs>
      <path d="M 9.8125 72.90625 
L 55.90625 72.90625 
L 55.90625 64.59375 
L 19.671875 64.59375 
L 19.671875 43.015625 
L 54.390625 43.015625 
L 54.390625 34.71875 
L 19.671875 34.71875 
L 19.671875 8.296875 
L 56.78125 8.296875 
L 56.78125 0 
L 9.8125 0 
z
" id="DejaVuSans-69"/>
      <path d="M 18.3125 70.21875 
L 18.3125 54.6875 
L 36.8125 54.6875 
L 36.8125 47.703125 
L 18.3125 47.703125 
L 18.3125 18.015625 
Q 18.3125 11.328125 20.140625 9.421875 
Q 21.96875 7.515625 27.59375 7.515625 
L 36.8125 7.515625 
L 36.8125 0 
L 27.59375 0 
Q 17.1875 0 13.234375 3.875 
Q 9.28125 7.765625 9.28125 18.015625 
L 9.28125 47.703125 
L 2.6875 47.703125 
L 2.6875 54.6875 
L 9.28125 54.6875 
L 9.28125 70.21875 
z
" id="DejaVuSans-116"/>
     </defs>
     <g transform="translate(366.427813 72.748562)scale(0.1 -0.1)">
      <use xlink:href="#DejaVuSans-69"/>
      <use x="63.183594" xlink:href="#DejaVuSans-110"/>
      <use x="126.5625" xlink:href="#DejaVuSans-116"/>
      <use x="165.771484" xlink:href="#DejaVuSans-114"/>
      <use x="206.884766" xlink:href="#DejaVuSans-97"/>
      <use x="268.164062" xlink:href="#DejaVuSans-100"/>
      <use x="331.640625" xlink:href="#DejaVuSans-97"/>
     </g>
    </g>
   </g>
  </g>
 </g>
 <defs>
  <clipPath id="p18791023ca">
   <rect height="266.112" width="357.12" x="57.6" y="41.472"/>
  </clipPath>
 </defs>
</svg>
