<?xml version="1.0" encoding="utf-8" standalone="no"?>
<!DOCTYPE svg PUBLIC "-//W3C//DTD SVG 1.1//EN"
  "http://www.w3.org/Graphics/SVG/1.1/DTD/svg11.dtd">
<!-- Created with matplotlib (https://matplotlib.org/) -->
<svg height="345.6pt" version="1.1" viewBox="0 0 460.8 345.6" width="460.8pt" xmlns="http://www.w3.org/2000/svg" xmlns:xlink="http://www.w3.org/1999/xlink">
 <defs>
  <style type="text/css">
*{stroke-linecap:butt;stroke-linejoin:round;}
  </style>
 </defs>
 <g id="figure_1">
  <g id="patch_1">
   <path d="M 0 345.6 
L 460.8 345.6 
L 460.8 0 
L 0 0 
z
" style="fill:#ffffff;"/>
  </g>
  <g id="axes_1">
   <g id="patch_2">
    <path d="M 57.6 307.584 
L 414.72 307.584 
L 414.72 41.472 
L 57.6 41.472 
z
" style="fill:#ffffff;"/>
   </g>
   <g id="matplotlib.axis_1">
    <g id="xtick_1">
     <g id="line2d_1">
      <path clip-path="url(#p190c41024c)" d="M 73.830698 307.584 
L 73.830698 41.472 
" style="fill:none;stroke:#b0b0b0;stroke-linecap:square;stroke-width:0.8;"/>
     </g>
     <g id="line2d_2">
      <defs>
       <path d="M 0 0 
L 0 3.5 
" id="med31699d88" style="stroke:#000000;stroke-width:0.8;"/>
      </defs>
      <g>
       <use style="stroke:#000000;stroke-width:0.8;" x="73.830698" xlink:href="#med31699d88" y="307.584"/>
      </g>
     </g>
     <g id="text_1">
      <!-- 2000 -->
      <defs>
       <path d="M 19.1875 8.296875 
L 53.609375 8.296875 
L 53.609375 0 
L 7.328125 0 
L 7.328125 8.296875 
Q 12.9375 14.109375 22.625 23.890625 
Q 32.328125 33.6875 34.8125 36.53125 
Q 39.546875 41.84375 41.421875 45.53125 
Q 43.3125 49.21875 43.3125 52.78125 
Q 43.3125 58.59375 39.234375 62.25 
Q 35.15625 65.921875 28.609375 65.921875 
Q 23.96875 65.921875 18.8125 64.3125 
Q 13.671875 62.703125 7.8125 59.421875 
L 7.8125 69.390625 
Q 13.765625 71.78125 18.9375 73 
Q 24.125 74.21875 28.421875 74.21875 
Q 39.75 74.21875 46.484375 68.546875 
Q 53.21875 62.890625 53.21875 53.421875 
Q 53.21875 48.921875 51.53125 44.890625 
Q 49.859375 40.875 45.40625 35.40625 
Q 44.1875 33.984375 37.640625 27.21875 
Q 31.109375 20.453125 19.1875 8.296875 
z
" id="DejaVuSans-50"/>
       <path d="M 31.78125 66.40625 
Q 24.171875 66.40625 20.328125 58.90625 
Q 16.5 51.421875 16.5 36.375 
Q 16.5 21.390625 20.328125 13.890625 
Q 24.171875 6.390625 31.78125 6.390625 
Q 39.453125 6.390625 43.28125 13.890625 
Q 47.125 21.390625 47.125 36.375 
Q 47.125 51.421875 43.28125 58.90625 
Q 39.453125 66.40625 31.78125 66.40625 
z
M 31.78125 74.21875 
Q 44.046875 74.21875 50.515625 64.515625 
Q 56.984375 54.828125 56.984375 36.375 
Q 56.984375 17.96875 50.515625 8.265625 
Q 44.046875 -1.421875 31.78125 -1.421875 
Q 19.53125 -1.421875 13.0625 8.265625 
Q 6.59375 17.96875 6.59375 36.375 
Q 6.59375 54.828125 13.0625 64.515625 
Q 19.53125 74.21875 31.78125 74.21875 
z
" id="DejaVuSans-48"/>
      </defs>
      <g transform="translate(61.105698 322.182437)scale(0.1 -0.1)">
       <use xlink:href="#DejaVuSans-50"/>
       <use x="63.623047" xlink:href="#DejaVuSans-48"/>
       <use x="127.246094" xlink:href="#DejaVuSans-48"/>
       <use x="190.869141" xlink:href="#DejaVuSans-48"/>
      </g>
     </g>
    </g>
    <g id="xtick_2">
     <g id="line2d_3">
      <path clip-path="url(#p190c41024c)" d="M 114.413024 307.584 
L 114.413024 41.472 
" style="fill:none;stroke:#b0b0b0;stroke-linecap:square;stroke-width:0.8;"/>
     </g>
     <g id="line2d_4">
      <g>
       <use style="stroke:#000000;stroke-width:0.8;" x="114.413024" xlink:href="#med31699d88" y="307.584"/>
      </g>
     </g>
     <g id="text_2">
      <!-- 3000 -->
      <defs>
       <path d="M 40.578125 39.3125 
Q 47.65625 37.796875 51.625 33 
Q 55.609375 28.21875 55.609375 21.1875 
Q 55.609375 10.40625 48.1875 4.484375 
Q 40.765625 -1.421875 27.09375 -1.421875 
Q 22.515625 -1.421875 17.65625 -0.515625 
Q 12.796875 0.390625 7.625 2.203125 
L 7.625 11.71875 
Q 11.71875 9.328125 16.59375 8.109375 
Q 21.484375 6.890625 26.8125 6.890625 
Q 36.078125 6.890625 40.9375 10.546875 
Q 45.796875 14.203125 45.796875 21.1875 
Q 45.796875 27.640625 41.28125 31.265625 
Q 36.765625 34.90625 28.71875 34.90625 
L 20.21875 34.90625 
L 20.21875 43.015625 
L 29.109375 43.015625 
Q 36.375 43.015625 40.234375 45.921875 
Q 44.09375 48.828125 44.09375 54.296875 
Q 44.09375 59.90625 40.109375 62.90625 
Q 36.140625 65.921875 28.71875 65.921875 
Q 24.65625 65.921875 20.015625 65.03125 
Q 15.375 64.15625 9.8125 62.3125 
L 9.8125 71.09375 
Q 15.4375 72.65625 20.34375 73.4375 
Q 25.25 74.21875 29.59375 74.21875 
Q 40.828125 74.21875 47.359375 69.109375 
Q 53.90625 64.015625 53.90625 55.328125 
Q 53.90625 49.265625 50.4375 45.09375 
Q 46.96875 40.921875 40.578125 39.3125 
z
" id="DejaVuSans-51"/>
      </defs>
      <g transform="translate(101.688024 322.182437)scale(0.1 -0.1)">
       <use xlink:href="#DejaVuSans-51"/>
       <use x="63.623047" xlink:href="#DejaVuSans-48"/>
       <use x="127.246094" xlink:href="#DejaVuSans-48"/>
       <use x="190.869141" xlink:href="#DejaVuSans-48"/>
      </g>
     </g>
    </g>
    <g id="xtick_3">
     <g id="line2d_5">
      <path clip-path="url(#p190c41024c)" d="M 154.995349 307.584 
L 154.995349 41.472 
" style="fill:none;stroke:#b0b0b0;stroke-linecap:square;stroke-width:0.8;"/>
     </g>
     <g id="line2d_6">
      <g>
       <use style="stroke:#000000;stroke-width:0.8;" x="154.995349" xlink:href="#med31699d88" y="307.584"/>
      </g>
     </g>
     <g id="text_3">
      <!-- 4000 -->
      <defs>
       <path d="M 37.796875 64.3125 
L 12.890625 25.390625 
L 37.796875 25.390625 
z
M 35.203125 72.90625 
L 47.609375 72.90625 
L 47.609375 25.390625 
L 58.015625 25.390625 
L 58.015625 17.1875 
L 47.609375 17.1875 
L 47.609375 0 
L 37.796875 0 
L 37.796875 17.1875 
L 4.890625 17.1875 
L 4.890625 26.703125 
z
" id="DejaVuSans-52"/>
      </defs>
      <g transform="translate(142.270349 322.182437)scale(0.1 -0.1)">
       <use xlink:href="#DejaVuSans-52"/>
       <use x="63.623047" xlink:href="#DejaVuSans-48"/>
       <use x="127.246094" xlink:href="#DejaVuSans-48"/>
       <use x="190.869141" xlink:href="#DejaVuSans-48"/>
      </g>
     </g>
    </g>
    <g id="xtick_4">
     <g id="line2d_7">
      <path clip-path="url(#p190c41024c)" d="M 195.577675 307.584 
L 195.577675 41.472 
" style="fill:none;stroke:#b0b0b0;stroke-linecap:square;stroke-width:0.8;"/>
     </g>
     <g id="line2d_8">
      <g>
       <use style="stroke:#000000;stroke-width:0.8;" x="195.577675" xlink:href="#med31699d88" y="307.584"/>
      </g>
     </g>
     <g id="text_4">
      <!-- 5000 -->
      <defs>
       <path d="M 10.796875 72.90625 
L 49.515625 72.90625 
L 49.515625 64.59375 
L 19.828125 64.59375 
L 19.828125 46.734375 
Q 21.96875 47.46875 24.109375 47.828125 
Q 26.265625 48.1875 28.421875 48.1875 
Q 40.625 48.1875 47.75 41.5 
Q 54.890625 34.8125 54.890625 23.390625 
Q 54.890625 11.625 47.5625 5.09375 
Q 40.234375 -1.421875 26.90625 -1.421875 
Q 22.3125 -1.421875 17.546875 -0.640625 
Q 12.796875 0.140625 7.71875 1.703125 
L 7.71875 11.625 
Q 12.109375 9.234375 16.796875 8.0625 
Q 21.484375 6.890625 26.703125 6.890625 
Q 35.15625 6.890625 40.078125 11.328125 
Q 45.015625 15.765625 45.015625 23.390625 
Q 45.015625 31 40.078125 35.4375 
Q 35.15625 39.890625 26.703125 39.890625 
Q 22.75 39.890625 18.8125 39.015625 
Q 14.890625 38.140625 10.796875 36.28125 
z
" id="DejaVuSans-53"/>
      </defs>
      <g transform="translate(182.852675 322.182437)scale(0.1 -0.1)">
       <use xlink:href="#DejaVuSans-53"/>
       <use x="63.623047" xlink:href="#DejaVuSans-48"/>
       <use x="127.246094" xlink:href="#DejaVuSans-48"/>
       <use x="190.869141" xlink:href="#DejaVuSans-48"/>
      </g>
     </g>
    </g>
    <g id="xtick_5">
     <g id="line2d_9">
      <path clip-path="url(#p190c41024c)" d="M 236.16 307.584 
L 236.16 41.472 
" style="fill:none;stroke:#b0b0b0;stroke-linecap:square;stroke-width:0.8;"/>
     </g>
     <g id="line2d_10">
      <g>
       <use style="stroke:#000000;stroke-width:0.8;" x="236.16" xlink:href="#med31699d88" y="307.584"/>
      </g>
     </g>
     <g id="text_5">
      <!-- 6000 -->
      <defs>
       <path d="M 33.015625 40.375 
Q 26.375 40.375 22.484375 35.828125 
Q 18.609375 31.296875 18.609375 23.390625 
Q 18.609375 15.53125 22.484375 10.953125 
Q 26.375 6.390625 33.015625 6.390625 
Q 39.65625 6.390625 43.53125 10.953125 
Q 47.40625 15.53125 47.40625 23.390625 
Q 47.40625 31.296875 43.53125 35.828125 
Q 39.65625 40.375 33.015625 40.375 
z
M 52.59375 71.296875 
L 52.59375 62.3125 
Q 48.875 64.0625 45.09375 64.984375 
Q 41.3125 65.921875 37.59375 65.921875 
Q 27.828125 65.921875 22.671875 59.328125 
Q 17.53125 52.734375 16.796875 39.40625 
Q 19.671875 43.65625 24.015625 45.921875 
Q 28.375 48.1875 33.59375 48.1875 
Q 44.578125 48.1875 50.953125 41.515625 
Q 57.328125 34.859375 57.328125 23.390625 
Q 57.328125 12.15625 50.6875 5.359375 
Q 44.046875 -1.421875 33.015625 -1.421875 
Q 20.359375 -1.421875 13.671875 8.265625 
Q 6.984375 17.96875 6.984375 36.375 
Q 6.984375 53.65625 15.1875 63.9375 
Q 23.390625 74.21875 37.203125 74.21875 
Q 40.921875 74.21875 44.703125 73.484375 
Q 48.484375 72.75 52.59375 71.296875 
z
" id="DejaVuSans-54"/>
      </defs>
      <g transform="translate(223.435 322.182437)scale(0.1 -0.1)">
       <use xlink:href="#DejaVuSans-54"/>
       <use x="63.623047" xlink:href="#DejaVuSans-48"/>
       <use x="127.246094" xlink:href="#DejaVuSans-48"/>
       <use x="190.869141" xlink:href="#DejaVuSans-48"/>
      </g>
     </g>
    </g>
    <g id="xtick_6">
     <g id="line2d_11">
      <path clip-path="url(#p190c41024c)" d="M 276.742325 307.584 
L 276.742325 41.472 
" style="fill:none;stroke:#b0b0b0;stroke-linecap:square;stroke-width:0.8;"/>
     </g>
     <g id="line2d_12">
      <g>
       <use style="stroke:#000000;stroke-width:0.8;" x="276.742325" xlink:href="#med31699d88" y="307.584"/>
      </g>
     </g>
     <g id="text_6">
      <!-- 7000 -->
      <defs>
       <path d="M 8.203125 72.90625 
L 55.078125 72.90625 
L 55.078125 68.703125 
L 28.609375 0 
L 18.3125 0 
L 43.21875 64.59375 
L 8.203125 64.59375 
z
" id="DejaVuSans-55"/>
      </defs>
      <g transform="translate(264.017325 322.182437)scale(0.1 -0.1)">
       <use xlink:href="#DejaVuSans-55"/>
       <use x="63.623047" xlink:href="#DejaVuSans-48"/>
       <use x="127.246094" xlink:href="#DejaVuSans-48"/>
       <use x="190.869141" xlink:href="#DejaVuSans-48"/>
      </g>
     </g>
    </g>
    <g id="xtick_7">
     <g id="line2d_13">
      <path clip-path="url(#p190c41024c)" d="M 317.324651 307.584 
L 317.324651 41.472 
" style="fill:none;stroke:#b0b0b0;stroke-linecap:square;stroke-width:0.8;"/>
     </g>
     <g id="line2d_14">
      <g>
       <use style="stroke:#000000;stroke-width:0.8;" x="317.324651" xlink:href="#med31699d88" y="307.584"/>
      </g>
     </g>
     <g id="text_7">
      <!-- 8000 -->
      <defs>
       <path d="M 31.78125 34.625 
Q 24.75 34.625 20.71875 30.859375 
Q 16.703125 27.09375 16.703125 20.515625 
Q 16.703125 13.921875 20.71875 10.15625 
Q 24.75 6.390625 31.78125 6.390625 
Q 38.8125 6.390625 42.859375 10.171875 
Q 46.921875 13.96875 46.921875 20.515625 
Q 46.921875 27.09375 42.890625 30.859375 
Q 38.875 34.625 31.78125 34.625 
z
M 21.921875 38.8125 
Q 15.578125 40.375 12.03125 44.71875 
Q 8.5 49.078125 8.5 55.328125 
Q 8.5 64.0625 14.71875 69.140625 
Q 20.953125 74.21875 31.78125 74.21875 
Q 42.671875 74.21875 48.875 69.140625 
Q 55.078125 64.0625 55.078125 55.328125 
Q 55.078125 49.078125 51.53125 44.71875 
Q 48 40.375 41.703125 38.8125 
Q 48.828125 37.15625 52.796875 32.3125 
Q 56.78125 27.484375 56.78125 20.515625 
Q 56.78125 9.90625 50.3125 4.234375 
Q 43.84375 -1.421875 31.78125 -1.421875 
Q 19.734375 -1.421875 13.25 4.234375 
Q 6.78125 9.90625 6.78125 20.515625 
Q 6.78125 27.484375 10.78125 32.3125 
Q 14.796875 37.15625 21.921875 38.8125 
z
M 18.3125 54.390625 
Q 18.3125 48.734375 21.84375 45.5625 
Q 25.390625 42.390625 31.78125 42.390625 
Q 38.140625 42.390625 41.71875 45.5625 
Q 45.3125 48.734375 45.3125 54.390625 
Q 45.3125 60.0625 41.71875 63.234375 
Q 38.140625 66.40625 31.78125 66.40625 
Q 25.390625 66.40625 21.84375 63.234375 
Q 18.3125 60.0625 18.3125 54.390625 
z
" id="DejaVuSans-56"/>
      </defs>
      <g transform="translate(304.599651 322.182437)scale(0.1 -0.1)">
       <use xlink:href="#DejaVuSans-56"/>
       <use x="63.623047" xlink:href="#DejaVuSans-48"/>
       <use x="127.246094" xlink:href="#DejaVuSans-48"/>
       <use x="190.869141" xlink:href="#DejaVuSans-48"/>
      </g>
     </g>
    </g>
    <g id="xtick_8">
     <g id="line2d_15">
      <path clip-path="url(#p190c41024c)" d="M 357.906976 307.584 
L 357.906976 41.472 
" style="fill:none;stroke:#b0b0b0;stroke-linecap:square;stroke-width:0.8;"/>
     </g>
     <g id="line2d_16">
      <g>
       <use style="stroke:#000000;stroke-width:0.8;" x="357.906976" xlink:href="#med31699d88" y="307.584"/>
      </g>
     </g>
     <g id="text_8">
      <!-- 9000 -->
      <defs>
       <path d="M 10.984375 1.515625 
L 10.984375 10.5 
Q 14.703125 8.734375 18.5 7.8125 
Q 22.3125 6.890625 25.984375 6.890625 
Q 35.75 6.890625 40.890625 13.453125 
Q 46.046875 20.015625 46.78125 33.40625 
Q 43.953125 29.203125 39.59375 26.953125 
Q 35.25 24.703125 29.984375 24.703125 
Q 19.046875 24.703125 12.671875 31.3125 
Q 6.296875 37.9375 6.296875 49.421875 
Q 6.296875 60.640625 12.9375 67.421875 
Q 19.578125 74.21875 30.609375 74.21875 
Q 43.265625 74.21875 49.921875 64.515625 
Q 56.59375 54.828125 56.59375 36.375 
Q 56.59375 19.140625 48.40625 8.859375 
Q 40.234375 -1.421875 26.421875 -1.421875 
Q 22.703125 -1.421875 18.890625 -0.6875 
Q 15.09375 0.046875 10.984375 1.515625 
z
M 30.609375 32.421875 
Q 37.25 32.421875 41.125 36.953125 
Q 45.015625 41.5 45.015625 49.421875 
Q 45.015625 57.28125 41.125 61.84375 
Q 37.25 66.40625 30.609375 66.40625 
Q 23.96875 66.40625 20.09375 61.84375 
Q 16.21875 57.28125 16.21875 49.421875 
Q 16.21875 41.5 20.09375 36.953125 
Q 23.96875 32.421875 30.609375 32.421875 
z
" id="DejaVuSans-57"/>
      </defs>
      <g transform="translate(345.181976 322.182437)scale(0.1 -0.1)">
       <use xlink:href="#DejaVuSans-57"/>
       <use x="63.623047" xlink:href="#DejaVuSans-48"/>
       <use x="127.246094" xlink:href="#DejaVuSans-48"/>
       <use x="190.869141" xlink:href="#DejaVuSans-48"/>
      </g>
     </g>
    </g>
    <g id="xtick_9">
     <g id="line2d_17">
      <path clip-path="url(#p190c41024c)" d="M 398.489302 307.584 
L 398.489302 41.472 
" style="fill:none;stroke:#b0b0b0;stroke-linecap:square;stroke-width:0.8;"/>
     </g>
     <g id="line2d_18">
      <g>
       <use style="stroke:#000000;stroke-width:0.8;" x="398.489302" xlink:href="#med31699d88" y="307.584"/>
      </g>
     </g>
     <g id="text_9">
      <!-- 10000 -->
      <defs>
       <path d="M 12.40625 8.296875 
L 28.515625 8.296875 
L 28.515625 63.921875 
L 10.984375 60.40625 
L 10.984375 69.390625 
L 28.421875 72.90625 
L 38.28125 72.90625 
L 38.28125 8.296875 
L 54.390625 8.296875 
L 54.390625 0 
L 12.40625 0 
z
" id="DejaVuSans-49"/>
      </defs>
      <g transform="translate(382.583052 322.182437)scale(0.1 -0.1)">
       <use xlink:href="#DejaVuSans-49"/>
       <use x="63.623047" xlink:href="#DejaVuSans-48"/>
       <use x="127.246094" xlink:href="#DejaVuSans-48"/>
       <use x="190.869141" xlink:href="#DejaVuSans-48"/>
       <use x="254.492188" xlink:href="#DejaVuSans-48"/>
      </g>
     </g>
    </g>
    <g id="text_10">
     <!-- Tempo (ms) -->
     <defs>
      <path d="M -0.296875 72.90625 
L 61.375 72.90625 
L 61.375 64.59375 
L 35.5 64.59375 
L 35.5 0 
L 25.59375 0 
L 25.59375 64.59375 
L -0.296875 64.59375 
z
" id="DejaVuSans-84"/>
      <path d="M 56.203125 29.59375 
L 56.203125 25.203125 
L 14.890625 25.203125 
Q 15.484375 15.921875 20.484375 11.0625 
Q 25.484375 6.203125 34.421875 6.203125 
Q 39.59375 6.203125 44.453125 7.46875 
Q 49.3125 8.734375 54.109375 11.28125 
L 54.109375 2.78125 
Q 49.265625 0.734375 44.1875 -0.34375 
Q 39.109375 -1.421875 33.890625 -1.421875 
Q 20.796875 -1.421875 13.15625 6.1875 
Q 5.515625 13.8125 5.515625 26.8125 
Q 5.515625 40.234375 12.765625 48.109375 
Q 20.015625 56 32.328125 56 
Q 43.359375 56 49.78125 48.890625 
Q 56.203125 41.796875 56.203125 29.59375 
z
M 47.21875 32.234375 
Q 47.125 39.59375 43.09375 43.984375 
Q 39.0625 48.390625 32.421875 48.390625 
Q 24.90625 48.390625 20.390625 44.140625 
Q 15.875 39.890625 15.1875 32.171875 
z
" id="DejaVuSans-101"/>
      <path d="M 52 44.1875 
Q 55.375 50.25 60.0625 53.125 
Q 64.75 56 71.09375 56 
Q 79.640625 56 84.28125 50.015625 
Q 88.921875 44.046875 88.921875 33.015625 
L 88.921875 0 
L 79.890625 0 
L 79.890625 32.71875 
Q 79.890625 40.578125 77.09375 44.375 
Q 74.3125 48.1875 68.609375 48.1875 
Q 61.625 48.1875 57.5625 43.546875 
Q 53.515625 38.921875 53.515625 30.90625 
L 53.515625 0 
L 44.484375 0 
L 44.484375 32.71875 
Q 44.484375 40.625 41.703125 44.40625 
Q 38.921875 48.1875 33.109375 48.1875 
Q 26.21875 48.1875 22.15625 43.53125 
Q 18.109375 38.875 18.109375 30.90625 
L 18.109375 0 
L 9.078125 0 
L 9.078125 54.6875 
L 18.109375 54.6875 
L 18.109375 46.1875 
Q 21.1875 51.21875 25.484375 53.609375 
Q 29.78125 56 35.6875 56 
Q 41.65625 56 45.828125 52.96875 
Q 50 49.953125 52 44.1875 
z
" id="DejaVuSans-109"/>
      <path d="M 18.109375 8.203125 
L 18.109375 -20.796875 
L 9.078125 -20.796875 
L 9.078125 54.6875 
L 18.109375 54.6875 
L 18.109375 46.390625 
Q 20.953125 51.265625 25.265625 53.625 
Q 29.59375 56 35.59375 56 
Q 45.5625 56 51.78125 48.09375 
Q 58.015625 40.1875 58.015625 27.296875 
Q 58.015625 14.40625 51.78125 6.484375 
Q 45.5625 -1.421875 35.59375 -1.421875 
Q 29.59375 -1.421875 25.265625 0.953125 
Q 20.953125 3.328125 18.109375 8.203125 
z
M 48.6875 27.296875 
Q 48.6875 37.203125 44.609375 42.84375 
Q 40.53125 48.484375 33.40625 48.484375 
Q 26.265625 48.484375 22.1875 42.84375 
Q 18.109375 37.203125 18.109375 27.296875 
Q 18.109375 17.390625 22.1875 11.75 
Q 26.265625 6.109375 33.40625 6.109375 
Q 40.53125 6.109375 44.609375 11.75 
Q 48.6875 17.390625 48.6875 27.296875 
z
" id="DejaVuSans-112"/>
      <path d="M 30.609375 48.390625 
Q 23.390625 48.390625 19.1875 42.75 
Q 14.984375 37.109375 14.984375 27.296875 
Q 14.984375 17.484375 19.15625 11.84375 
Q 23.34375 6.203125 30.609375 6.203125 
Q 37.796875 6.203125 41.984375 11.859375 
Q 46.1875 17.53125 46.1875 27.296875 
Q 46.1875 37.015625 41.984375 42.703125 
Q 37.796875 48.390625 30.609375 48.390625 
z
M 30.609375 56 
Q 42.328125 56 49.015625 48.375 
Q 55.71875 40.765625 55.71875 27.296875 
Q 55.71875 13.875 49.015625 6.21875 
Q 42.328125 -1.421875 30.609375 -1.421875 
Q 18.84375 -1.421875 12.171875 6.21875 
Q 5.515625 13.875 5.515625 27.296875 
Q 5.515625 40.765625 12.171875 48.375 
Q 18.84375 56 30.609375 56 
z
" id="DejaVuSans-111"/>
      <path id="DejaVuSans-32"/>
      <path d="M 31 75.875 
Q 24.46875 64.65625 21.28125 53.65625 
Q 18.109375 42.671875 18.109375 31.390625 
Q 18.109375 20.125 21.3125 9.0625 
Q 24.515625 -2 31 -13.1875 
L 23.1875 -13.1875 
Q 15.875 -1.703125 12.234375 9.375 
Q 8.59375 20.453125 8.59375 31.390625 
Q 8.59375 42.28125 12.203125 53.3125 
Q 15.828125 64.359375 23.1875 75.875 
z
" id="DejaVuSans-40"/>
      <path d="M 44.28125 53.078125 
L 44.28125 44.578125 
Q 40.484375 46.53125 36.375 47.5 
Q 32.28125 48.484375 27.875 48.484375 
Q 21.1875 48.484375 17.84375 46.4375 
Q 14.5 44.390625 14.5 40.28125 
Q 14.5 37.15625 16.890625 35.375 
Q 19.28125 33.59375 26.515625 31.984375 
L 29.59375 31.296875 
Q 39.15625 29.25 43.1875 25.515625 
Q 47.21875 21.78125 47.21875 15.09375 
Q 47.21875 7.46875 41.1875 3.015625 
Q 35.15625 -1.421875 24.609375 -1.421875 
Q 20.21875 -1.421875 15.453125 -0.5625 
Q 10.6875 0.296875 5.421875 2 
L 5.421875 11.28125 
Q 10.40625 8.6875 15.234375 7.390625 
Q 20.0625 6.109375 24.8125 6.109375 
Q 31.15625 6.109375 34.5625 8.28125 
Q 37.984375 10.453125 37.984375 14.40625 
Q 37.984375 18.0625 35.515625 20.015625 
Q 33.0625 21.96875 24.703125 23.78125 
L 21.578125 24.515625 
Q 13.234375 26.265625 9.515625 29.90625 
Q 5.8125 33.546875 5.8125 39.890625 
Q 5.8125 47.609375 11.28125 51.796875 
Q 16.75 56 26.8125 56 
Q 31.78125 56 36.171875 55.265625 
Q 40.578125 54.546875 44.28125 53.078125 
z
" id="DejaVuSans-115"/>
      <path d="M 8.015625 75.875 
L 15.828125 75.875 
Q 23.140625 64.359375 26.78125 53.3125 
Q 30.421875 42.28125 30.421875 31.390625 
Q 30.421875 20.453125 26.78125 9.375 
Q 23.140625 -1.703125 15.828125 -13.1875 
L 8.015625 -13.1875 
Q 14.5 -2 17.703125 9.0625 
Q 20.90625 20.125 20.90625 31.390625 
Q 20.90625 42.671875 17.703125 53.65625 
Q 14.5 64.65625 8.015625 75.875 
z
" id="DejaVuSans-41"/>
     </defs>
     <g transform="translate(205.973281 335.860562)scale(0.1 -0.1)">
      <use xlink:href="#DejaVuSans-84"/>
      <use x="60.818359" xlink:href="#DejaVuSans-101"/>
      <use x="122.341797" xlink:href="#DejaVuSans-109"/>
      <use x="219.753906" xlink:href="#DejaVuSans-112"/>
      <use x="283.230469" xlink:href="#DejaVuSans-111"/>
      <use x="344.412109" xlink:href="#DejaVuSans-32"/>
      <use x="376.199219" xlink:href="#DejaVuSans-40"/>
      <use x="415.212891" xlink:href="#DejaVuSans-109"/>
      <use x="512.625" xlink:href="#DejaVuSans-115"/>
      <use x="564.724609" xlink:href="#DejaVuSans-41"/>
     </g>
    </g>
   </g>
   <g id="matplotlib.axis_2">
    <g id="ytick_1">
     <g id="line2d_19">
      <path clip-path="url(#p190c41024c)" d="M 57.6 295.488 
L 414.72 295.488 
" style="fill:none;stroke:#b0b0b0;stroke-linecap:square;stroke-width:0.8;"/>
     </g>
     <g id="line2d_20">
      <defs>
       <path d="M 0 0 
L -3.5 0 
" id="m406dd1e64f" style="stroke:#000000;stroke-width:0.8;"/>
      </defs>
      <g>
       <use style="stroke:#000000;stroke-width:0.8;" x="57.6" xlink:href="#m406dd1e64f" y="295.488"/>
      </g>
     </g>
     <g id="text_11">
      <!-- −1.00 -->
      <defs>
       <path d="M 10.59375 35.5 
L 73.1875 35.5 
L 73.1875 27.203125 
L 10.59375 27.203125 
z
" id="DejaVuSans-8722"/>
       <path d="M 10.6875 12.40625 
L 21 12.40625 
L 21 0 
L 10.6875 0 
z
" id="DejaVuSans-46"/>
      </defs>
      <g transform="translate(19.954687 299.287219)scale(0.1 -0.1)">
       <use xlink:href="#DejaVuSans-8722"/>
       <use x="83.789062" xlink:href="#DejaVuSans-49"/>
       <use x="147.412109" xlink:href="#DejaVuSans-46"/>
       <use x="179.199219" xlink:href="#DejaVuSans-48"/>
       <use x="242.822266" xlink:href="#DejaVuSans-48"/>
      </g>
     </g>
    </g>
    <g id="ytick_2">
     <g id="line2d_21">
      <path clip-path="url(#p190c41024c)" d="M 57.6 265.248 
L 414.72 265.248 
" style="fill:none;stroke:#b0b0b0;stroke-linecap:square;stroke-width:0.8;"/>
     </g>
     <g id="line2d_22">
      <g>
       <use style="stroke:#000000;stroke-width:0.8;" x="57.6" xlink:href="#m406dd1e64f" y="265.248"/>
      </g>
     </g>
     <g id="text_12">
      <!-- −0.75 -->
      <g transform="translate(19.954687 269.047219)scale(0.1 -0.1)">
       <use xlink:href="#DejaVuSans-8722"/>
       <use x="83.789062" xlink:href="#DejaVuSans-48"/>
       <use x="147.412109" xlink:href="#DejaVuSans-46"/>
       <use x="179.199219" xlink:href="#DejaVuSans-55"/>
       <use x="242.822266" xlink:href="#DejaVuSans-53"/>
      </g>
     </g>
    </g>
    <g id="ytick_3">
     <g id="line2d_23">
      <path clip-path="url(#p190c41024c)" d="M 57.6 235.008 
L 414.72 235.008 
" style="fill:none;stroke:#b0b0b0;stroke-linecap:square;stroke-width:0.8;"/>
     </g>
     <g id="line2d_24">
      <g>
       <use style="stroke:#000000;stroke-width:0.8;" x="57.6" xlink:href="#m406dd1e64f" y="235.008"/>
      </g>
     </g>
     <g id="text_13">
      <!-- −0.50 -->
      <g transform="translate(19.954687 238.807219)scale(0.1 -0.1)">
       <use xlink:href="#DejaVuSans-8722"/>
       <use x="83.789062" xlink:href="#DejaVuSans-48"/>
       <use x="147.412109" xlink:href="#DejaVuSans-46"/>
       <use x="179.199219" xlink:href="#DejaVuSans-53"/>
       <use x="242.822266" xlink:href="#DejaVuSans-48"/>
      </g>
     </g>
    </g>
    <g id="ytick_4">
     <g id="line2d_25">
      <path clip-path="url(#p190c41024c)" d="M 57.6 204.768 
L 414.72 204.768 
" style="fill:none;stroke:#b0b0b0;stroke-linecap:square;stroke-width:0.8;"/>
     </g>
     <g id="line2d_26">
      <g>
       <use style="stroke:#000000;stroke-width:0.8;" x="57.6" xlink:href="#m406dd1e64f" y="204.768"/>
      </g>
     </g>
     <g id="text_14">
      <!-- −0.25 -->
      <g transform="translate(19.954687 208.567219)scale(0.1 -0.1)">
       <use xlink:href="#DejaVuSans-8722"/>
       <use x="83.789062" xlink:href="#DejaVuSans-48"/>
       <use x="147.412109" xlink:href="#DejaVuSans-46"/>
       <use x="179.199219" xlink:href="#DejaVuSans-50"/>
       <use x="242.822266" xlink:href="#DejaVuSans-53"/>
      </g>
     </g>
    </g>
    <g id="ytick_5">
     <g id="line2d_27">
      <path clip-path="url(#p190c41024c)" d="M 57.6 174.528 
L 414.72 174.528 
" style="fill:none;stroke:#b0b0b0;stroke-linecap:square;stroke-width:0.8;"/>
     </g>
     <g id="line2d_28">
      <g>
       <use style="stroke:#000000;stroke-width:0.8;" x="57.6" xlink:href="#m406dd1e64f" y="174.528"/>
      </g>
     </g>
     <g id="text_15">
      <!-- 0.00 -->
      <g transform="translate(28.334375 178.327219)scale(0.1 -0.1)">
       <use xlink:href="#DejaVuSans-48"/>
       <use x="63.623047" xlink:href="#DejaVuSans-46"/>
       <use x="95.410156" xlink:href="#DejaVuSans-48"/>
       <use x="159.033203" xlink:href="#DejaVuSans-48"/>
      </g>
     </g>
    </g>
    <g id="ytick_6">
     <g id="line2d_29">
      <path clip-path="url(#p190c41024c)" d="M 57.6 144.288 
L 414.72 144.288 
" style="fill:none;stroke:#b0b0b0;stroke-linecap:square;stroke-width:0.8;"/>
     </g>
     <g id="line2d_30">
      <g>
       <use style="stroke:#000000;stroke-width:0.8;" x="57.6" xlink:href="#m406dd1e64f" y="144.288"/>
      </g>
     </g>
     <g id="text_16">
      <!-- 0.25 -->
      <g transform="translate(28.334375 148.087219)scale(0.1 -0.1)">
       <use xlink:href="#DejaVuSans-48"/>
       <use x="63.623047" xlink:href="#DejaVuSans-46"/>
       <use x="95.410156" xlink:href="#DejaVuSans-50"/>
       <use x="159.033203" xlink:href="#DejaVuSans-53"/>
      </g>
     </g>
    </g>
    <g id="ytick_7">
     <g id="line2d_31">
      <path clip-path="url(#p190c41024c)" d="M 57.6 114.048 
L 414.72 114.048 
" style="fill:none;stroke:#b0b0b0;stroke-linecap:square;stroke-width:0.8;"/>
     </g>
     <g id="line2d_32">
      <g>
       <use style="stroke:#000000;stroke-width:0.8;" x="57.6" xlink:href="#m406dd1e64f" y="114.048"/>
      </g>
     </g>
     <g id="text_17">
      <!-- 0.50 -->
      <g transform="translate(28.334375 117.847219)scale(0.1 -0.1)">
       <use xlink:href="#DejaVuSans-48"/>
       <use x="63.623047" xlink:href="#DejaVuSans-46"/>
       <use x="95.410156" xlink:href="#DejaVuSans-53"/>
       <use x="159.033203" xlink:href="#DejaVuSans-48"/>
      </g>
     </g>
    </g>
    <g id="ytick_8">
     <g id="line2d_33">
      <path clip-path="url(#p190c41024c)" d="M 57.6 83.808 
L 414.72 83.808 
" style="fill:none;stroke:#b0b0b0;stroke-linecap:square;stroke-width:0.8;"/>
     </g>
     <g id="line2d_34">
      <g>
       <use style="stroke:#000000;stroke-width:0.8;" x="57.6" xlink:href="#m406dd1e64f" y="83.808"/>
      </g>
     </g>
     <g id="text_18">
      <!-- 0.75 -->
      <g transform="translate(28.334375 87.607219)scale(0.1 -0.1)">
       <use xlink:href="#DejaVuSans-48"/>
       <use x="63.623047" xlink:href="#DejaVuSans-46"/>
       <use x="95.410156" xlink:href="#DejaVuSans-55"/>
       <use x="159.033203" xlink:href="#DejaVuSans-53"/>
      </g>
     </g>
    </g>
    <g id="ytick_9">
     <g id="line2d_35">
      <path clip-path="url(#p190c41024c)" d="M 57.6 53.568 
L 414.72 53.568 
" style="fill:none;stroke:#b0b0b0;stroke-linecap:square;stroke-width:0.8;"/>
     </g>
     <g id="line2d_36">
      <g>
       <use style="stroke:#000000;stroke-width:0.8;" x="57.6" xlink:href="#m406dd1e64f" y="53.568"/>
      </g>
     </g>
     <g id="text_19">
      <!-- 1.00 -->
      <g transform="translate(28.334375 57.367219)scale(0.1 -0.1)">
       <use xlink:href="#DejaVuSans-49"/>
       <use x="63.623047" xlink:href="#DejaVuSans-46"/>
       <use x="95.410156" xlink:href="#DejaVuSans-48"/>
       <use x="159.033203" xlink:href="#DejaVuSans-48"/>
      </g>
     </g>
    </g>
    <g id="text_20">
     <!-- CST normalizado -->
     <defs>
      <path d="M 64.40625 67.28125 
L 64.40625 56.890625 
Q 59.421875 61.53125 53.78125 63.8125 
Q 48.140625 66.109375 41.796875 66.109375 
Q 29.296875 66.109375 22.65625 58.46875 
Q 16.015625 50.828125 16.015625 36.375 
Q 16.015625 21.96875 22.65625 14.328125 
Q 29.296875 6.6875 41.796875 6.6875 
Q 48.140625 6.6875 53.78125 8.984375 
Q 59.421875 11.28125 64.40625 15.921875 
L 64.40625 5.609375 
Q 59.234375 2.09375 53.4375 0.328125 
Q 47.65625 -1.421875 41.21875 -1.421875 
Q 24.65625 -1.421875 15.125 8.703125 
Q 5.609375 18.84375 5.609375 36.375 
Q 5.609375 53.953125 15.125 64.078125 
Q 24.65625 74.21875 41.21875 74.21875 
Q 47.75 74.21875 53.53125 72.484375 
Q 59.328125 70.75 64.40625 67.28125 
z
" id="DejaVuSans-67"/>
      <path d="M 53.515625 70.515625 
L 53.515625 60.890625 
Q 47.90625 63.578125 42.921875 64.890625 
Q 37.9375 66.21875 33.296875 66.21875 
Q 25.25 66.21875 20.875 63.09375 
Q 16.5 59.96875 16.5 54.203125 
Q 16.5 49.359375 19.40625 46.890625 
Q 22.3125 44.4375 30.421875 42.921875 
L 36.375 41.703125 
Q 47.40625 39.59375 52.65625 34.296875 
Q 57.90625 29 57.90625 20.125 
Q 57.90625 9.515625 50.796875 4.046875 
Q 43.703125 -1.421875 29.984375 -1.421875 
Q 24.8125 -1.421875 18.96875 -0.25 
Q 13.140625 0.921875 6.890625 3.21875 
L 6.890625 13.375 
Q 12.890625 10.015625 18.65625 8.296875 
Q 24.421875 6.59375 29.984375 6.59375 
Q 38.421875 6.59375 43.015625 9.90625 
Q 47.609375 13.234375 47.609375 19.390625 
Q 47.609375 24.75 44.3125 27.78125 
Q 41.015625 30.8125 33.5 32.328125 
L 27.484375 33.5 
Q 16.453125 35.6875 11.515625 40.375 
Q 6.59375 45.0625 6.59375 53.421875 
Q 6.59375 63.09375 13.40625 68.65625 
Q 20.21875 74.21875 32.171875 74.21875 
Q 37.3125 74.21875 42.625 73.28125 
Q 47.953125 72.359375 53.515625 70.515625 
z
" id="DejaVuSans-83"/>
      <path d="M 54.890625 33.015625 
L 54.890625 0 
L 45.90625 0 
L 45.90625 32.71875 
Q 45.90625 40.484375 42.875 44.328125 
Q 39.84375 48.1875 33.796875 48.1875 
Q 26.515625 48.1875 22.3125 43.546875 
Q 18.109375 38.921875 18.109375 30.90625 
L 18.109375 0 
L 9.078125 0 
L 9.078125 54.6875 
L 18.109375 54.6875 
L 18.109375 46.1875 
Q 21.34375 51.125 25.703125 53.5625 
Q 30.078125 56 35.796875 56 
Q 45.21875 56 50.046875 50.171875 
Q 54.890625 44.34375 54.890625 33.015625 
z
" id="DejaVuSans-110"/>
      <path d="M 41.109375 46.296875 
Q 39.59375 47.171875 37.8125 47.578125 
Q 36.03125 48 33.890625 48 
Q 26.265625 48 22.1875 43.046875 
Q 18.109375 38.09375 18.109375 28.8125 
L 18.109375 0 
L 9.078125 0 
L 9.078125 54.6875 
L 18.109375 54.6875 
L 18.109375 46.1875 
Q 20.953125 51.171875 25.484375 53.578125 
Q 30.03125 56 36.53125 56 
Q 37.453125 56 38.578125 55.875 
Q 39.703125 55.765625 41.0625 55.515625 
z
" id="DejaVuSans-114"/>
      <path d="M 34.28125 27.484375 
Q 23.390625 27.484375 19.1875 25 
Q 14.984375 22.515625 14.984375 16.5 
Q 14.984375 11.71875 18.140625 8.90625 
Q 21.296875 6.109375 26.703125 6.109375 
Q 34.1875 6.109375 38.703125 11.40625 
Q 43.21875 16.703125 43.21875 25.484375 
L 43.21875 27.484375 
z
M 52.203125 31.203125 
L 52.203125 0 
L 43.21875 0 
L 43.21875 8.296875 
Q 40.140625 3.328125 35.546875 0.953125 
Q 30.953125 -1.421875 24.3125 -1.421875 
Q 15.921875 -1.421875 10.953125 3.296875 
Q 6 8.015625 6 15.921875 
Q 6 25.140625 12.171875 29.828125 
Q 18.359375 34.515625 30.609375 34.515625 
L 43.21875 34.515625 
L 43.21875 35.40625 
Q 43.21875 41.609375 39.140625 45 
Q 35.0625 48.390625 27.6875 48.390625 
Q 23 48.390625 18.546875 47.265625 
Q 14.109375 46.140625 10.015625 43.890625 
L 10.015625 52.203125 
Q 14.9375 54.109375 19.578125 55.046875 
Q 24.21875 56 28.609375 56 
Q 40.484375 56 46.34375 49.84375 
Q 52.203125 43.703125 52.203125 31.203125 
z
" id="DejaVuSans-97"/>
      <path d="M 9.421875 75.984375 
L 18.40625 75.984375 
L 18.40625 0 
L 9.421875 0 
z
" id="DejaVuSans-108"/>
      <path d="M 9.421875 54.6875 
L 18.40625 54.6875 
L 18.40625 0 
L 9.421875 0 
z
M 9.421875 75.984375 
L 18.40625 75.984375 
L 18.40625 64.59375 
L 9.421875 64.59375 
z
" id="DejaVuSans-105"/>
      <path d="M 5.515625 54.6875 
L 48.1875 54.6875 
L 48.1875 46.484375 
L 14.40625 7.171875 
L 48.1875 7.171875 
L 48.1875 0 
L 4.296875 0 
L 4.296875 8.203125 
L 38.09375 47.515625 
L 5.515625 47.515625 
z
" id="DejaVuSans-122"/>
      <path d="M 45.40625 46.390625 
L 45.40625 75.984375 
L 54.390625 75.984375 
L 54.390625 0 
L 45.40625 0 
L 45.40625 8.203125 
Q 42.578125 3.328125 38.25 0.953125 
Q 33.9375 -1.421875 27.875 -1.421875 
Q 17.96875 -1.421875 11.734375 6.484375 
Q 5.515625 14.40625 5.515625 27.296875 
Q 5.515625 40.1875 11.734375 48.09375 
Q 17.96875 56 27.875 56 
Q 33.9375 56 38.25 53.625 
Q 42.578125 51.265625 45.40625 46.390625 
z
M 14.796875 27.296875 
Q 14.796875 17.390625 18.875 11.75 
Q 22.953125 6.109375 30.078125 6.109375 
Q 37.203125 6.109375 41.296875 11.75 
Q 45.40625 17.390625 45.40625 27.296875 
Q 45.40625 37.203125 41.296875 42.84375 
Q 37.203125 48.484375 30.078125 48.484375 
Q 22.953125 48.484375 18.875 42.84375 
Q 14.796875 37.203125 14.796875 27.296875 
z
" id="DejaVuSans-100"/>
     </defs>
     <g transform="translate(13.875 216.753781)rotate(-90)scale(0.1 -0.1)">
      <use xlink:href="#DejaVuSans-67"/>
      <use x="69.824219" xlink:href="#DejaVuSans-83"/>
      <use x="133.300781" xlink:href="#DejaVuSans-84"/>
      <use x="194.384766" xlink:href="#DejaVuSans-32"/>
      <use x="226.171875" xlink:href="#DejaVuSans-110"/>
      <use x="289.550781" xlink:href="#DejaVuSans-111"/>
      <use x="350.732422" xlink:href="#DejaVuSans-114"/>
      <use x="391.830078" xlink:href="#DejaVuSans-109"/>
      <use x="489.242188" xlink:href="#DejaVuSans-97"/>
      <use x="550.521484" xlink:href="#DejaVuSans-108"/>
      <use x="578.304688" xlink:href="#DejaVuSans-105"/>
      <use x="606.087891" xlink:href="#DejaVuSans-122"/>
      <use x="658.578125" xlink:href="#DejaVuSans-97"/>
      <use x="719.857422" xlink:href="#DejaVuSans-100"/>
      <use x="783.333984" xlink:href="#DejaVuSans-111"/>
     </g>
    </g>
   </g>
   <g id="line2d_37">
    <path clip-path="url(#p190c41024c)" d="M 73.832727 124.187803 
L 74.112745 139.00997 
L 74.851344 181.037434 
L 75.090779 184.556476 
L 75.119187 184.525036 
L 75.137449 184.461009 
L 75.244992 183.486394 
L 75.431671 178.9736 
L 75.788795 164.786827 
L 76.567976 135.559583 
L 77.071197 123.456489 
L 77.525719 117.445001 
L 77.860523 113.147753 
L 78.229822 106.336337 
L 78.810149 93.562142 
L 79.193652 80.386615 
L 80.017474 54.821762 
L 80.196036 53.568 
L 80.214298 53.581019 
L 80.309666 53.906218 
L 80.455763 55.184917 
L 80.644471 59.708158 
L 81.062469 76.869184 
L 82.59851 149.659416 
L 82.906935 154.277059 
L 83.042886 154.82102 
L 83.085497 154.748953 
L 83.201157 154.00775 
L 83.37769 151.137009 
L 83.692203 142.116771 
L 84.160929 121.341914 
L 84.966488 86.788968 
L 85.705087 67.511083 
L 86.121055 60.403449 
L 86.29353 59.436021 
L 86.315851 59.456218 
L 86.38687 59.799383 
L 86.565432 62.108169 
L 86.802838 68.470864 
L 87.216778 87.488961 
L 88.097415 128.069679 
L 88.397724 132.865334 
L 88.517442 133.209226 
L 88.562082 133.142927 
L 88.716295 132.438895 
L 88.905003 129.849021 
L 89.172846 122.607061 
L 90.045366 87.737487 
L 90.572937 70.439542 
L 90.800198 68.220555 
L 90.834693 68.210001 
L 90.873246 68.297357 
L 91.009197 69.326423 
L 91.199933 72.170758 
L 91.69098 83.698343 
L 92.618286 103.710777 
L 92.912508 105.919736 
L 93.050487 106.282992 
L 93.097157 106.207492 
L 93.360942 105.156958 
L 93.858076 102.314301 
L 94.42217 98.066853 
L 94.485073 98.191735 
L 94.627111 99.071022 
L 95.396146 105.576825 
L 95.412379 105.571267 
L 95.528038 105.369274 
L 95.722834 104.336755 
L 95.946036 101.637561 
L 96.769858 90.390582 
L 96.855081 90.218766 
L 96.903779 90.315194 
L 97.035672 91.268485 
L 97.425262 96.029897 
L 97.902105 101.674815 
L 98.139511 102.886672 
L 98.342423 102.842679 
L 98.48649 102.546211 
L 98.851731 101.282114 
L 98.884197 101.299165 
L 98.999856 101.541138 
L 99.139865 102.493926 
L 99.363068 105.549211 
L 99.699902 113.640931 
L 100.41618 130.074328 
L 100.688081 132.37199 
L 100.755042 132.423786 
L 100.799683 132.346167 
L 100.964041 131.493043 
L 101.140574 129.447588 
L 101.416534 123.670234 
L 102.467616 99.704796 
L 102.469645 99.704951 
L 102.546752 99.827313 
L 102.652266 100.613671 
L 103.295496 106.978219 
L 103.338107 106.89669 
L 103.494349 105.939029 
L 103.774367 102.754422 
L 104.299908 95.932468 
L 104.43383 95.361557 
L 104.47847 95.455041 
L 104.606305 96.412676 
L 104.91473 100.727533 
L 105.415922 113.782013 
L 106.479179 143.481662 
L 106.757168 145.860486 
L 106.807896 145.932526 
L 106.856595 145.808149 
L 106.949934 144.763972 
L 107.150816 139.315515 
L 107.44098 124.980738 
L 108.425101 68.211488 
L 108.81875 57.782221 
L 109.086593 54.636804 
L 109.165729 54.534633 
L 109.212399 54.613641 
L 109.328058 55.306595 
L 109.4843 57.80252 
L 109.794755 67.640041 
L 110.235073 89.269606 
L 111.373407 147.797349 
L 111.578348 149.260884 
L 111.616901 149.252696 
L 111.651396 149.181758 
L 111.748794 148.575546 
L 111.925327 145.626893 
L 112.416373 132.979763 
L 113.225991 112.457551 
L 113.627756 106.744567 
L 114.019375 104.190846 
L 114.281131 101.557328 
L 115.175971 88.754927 
L 115.502659 87.173476 
L 115.512805 87.176751 
L 115.581795 87.33971 
L 115.800939 88.796853 
L 116.060666 91.946642 
L 116.592294 103.38806 
L 116.981885 110.618278 
L 117.134069 111.534107 
L 117.17668 111.436549 
L 117.29234 110.408117 
L 117.619027 104.756401 
L 118.189209 95.538211 
L 118.32516 94.982177 
L 118.373859 95.078552 
L 118.503722 96.006719 
L 118.755332 99.849911 
L 119.043467 108.050172 
L 120.145277 141.970138 
L 120.303548 142.735529 
L 120.32181 142.723294 
L 120.394858 142.448747 
L 120.559217 140.660604 
L 120.808798 135.367201 
L 121.910608 105.265683 
L 122.4118 91.572168 
L 122.669498 88.923262 
L 122.772983 88.817942 
L 122.809507 88.874463 
L 122.925166 89.546312 
L 123.105758 91.841495 
L 123.641444 98.757105 
L 123.7429 99.082039 
L 123.791599 98.984585 
L 123.933637 98.0471 
L 124.158869 94.947724 
L 125.031389 81.069128 
L 125.039506 81.071052 
L 125.104437 81.223906 
L 125.240388 82.343851 
L 125.459533 85.761128 
L 125.757813 95.600205 
L 126.157549 114.94717 
L 126.869768 145.845589 
L 127.05036 147.824639 
L 127.07268 147.796003 
L 127.166019 147.262257 
L 127.338494 144.731958 
L 127.573872 137.859819 
L 128.77105 99.68012 
L 128.900914 99.168829 
L 128.939467 99.223536 
L 129.055127 99.881899 
L 129.270213 102.554524 
L 129.755172 112.400315 
L 130.118384 117.759577 
L 130.236072 118.018372 
L 130.276655 117.962195 
L 130.398402 117.356594 
L 130.552614 115.467166 
L 130.893506 107.239734 
L 131.792404 83.31438 
L 131.867482 83.098987 
L 131.920239 83.217044 
L 132.039957 84.237177 
L 132.283451 88.812281 
L 133.18032 107.005038 
L 133.709919 113.302938 
L 134.722448 119.84584 
L 135.217553 127.468039 
L 136.597352 149.486442 
L 136.759681 150.067426 
L 136.782001 150.053878 
L 136.891574 149.762423 
L 137.104631 148.461666 
L 137.366387 144.706842 
L 137.950772 136.764912 
L 138.167888 132.834172 
L 138.464139 121.401805 
L 138.928806 94.311727 
L 139.405649 73.823205 
L 139.685667 69.652166 
L 139.74654 69.460868 
L 139.803356 69.61012 
L 139.90684 70.758387 
L 140.168596 77.097586 
L 140.460789 90.69364 
L 141.627531 149.633224 
L 141.696521 149.896805 
L 141.749278 149.708502 
L 141.85885 148.086622 
L 142.092199 140.886774 
L 142.41077 123.052639 
L 143.275173 74.98242 
L 143.502435 71.642622 
L 143.526784 71.619596 
L 143.569395 71.751184 
L 143.691142 73.069517 
L 143.885937 78.025138 
L 144.234945 92.870818 
L 145.105436 131.435872 
L 145.405746 136.366841 
L 145.525463 136.813376 
L 145.574162 136.733967 
L 145.718229 136.002432 
L 145.951578 132.82118 
L 146.840331 119.996598 
L 146.988456 119.565078 
L 147.012806 119.57857 
L 147.100058 119.832181 
L 147.408483 121.57557 
L 147.802132 124.05418 
L 147.816336 124.050443 
L 147.952286 123.874399 
L 148.106499 122.776156 
L 148.735525 117.012035 
L 148.845098 117.325575 
L 148.981048 118.657612 
L 149.259037 123.777038 
L 149.790666 134.240447 
L 150.048364 136.3402 
L 150.500857 138.387839 
L 150.866097 138.921036 
L 150.922913 138.854324 
L 151.215105 138.169047 
L 151.413959 136.75846 
L 151.665569 133.979524 
L 151.9395 127.751035 
L 152.937825 101.05556 
L 153.037252 100.69885 
L 153.085951 100.822122 
L 153.217843 101.964377 
L 153.842811 109.215199 
L 153.893539 109.159593 
L 153.988907 108.707257 
L 154.230372 105.902173 
L 154.879689 97.318957 
L 154.942592 97.156856 
L 155.001436 97.270717 
L 155.137387 98.122057 
L 155.340299 101.598535 
L 155.660899 111.434592 
L 156.192528 135.930874 
L 156.618642 151.787024 
L 156.78503 153.322909 
L 156.813437 153.271818 
L 156.894602 152.578358 
L 157.054902 148.803333 
L 157.369415 135.859445 
L 158.745156 68.236247 
L 159.027203 64.119136 
L 159.10431 64.02191 
L 159.150979 64.09286 
L 159.248377 64.730707 
L 159.428968 67.638331 
L 159.698841 76.98785 
L 160.078285 99.170088 
L 161.121251 163.456233 
L 161.740132 186.210829 
L 162.095227 192.536417 
L 162.440177 195.071207 
L 162.750631 196.98912 
L 163.077319 200.542841 
L 163.438502 204.116749 
L 163.550103 204.304484 
L 163.592715 204.259827 
L 163.700258 203.824001 
L 163.951868 201.653086 
L 164.864971 193.153834 
L 165.07397 192.970009 
L 165.098319 192.994966 
L 165.197746 193.341163 
L 165.516317 195.797928 
L 165.901849 200.545705 
L 166.234624 203.1454 
L 166.271148 203.169609 
L 166.311731 203.067829 
L 166.42739 202.044095 
L 166.638418 198.186286 
L 167.07062 185.500399 
L 167.634714 168.994475 
L 167.780811 167.785288 
L 167.823422 167.859103 
L 167.941111 168.558294 
L 168.073003 171.126248 
L 168.320556 180.507932 
L 168.754787 205.634625 
L 169.408162 241.067489 
L 169.653685 244.505773 
L 169.684122 244.512675 
L 169.718617 244.413622 
L 169.801811 243.394535 
L 170.022984 236.883205 
L 171.051746 202.074825 
L 171.378434 199.452198 
L 171.621928 197.587961 
L 171.936441 193.759443 
L 172.317915 185.518613 
L 173.267541 161.963051 
L 173.342618 161.784605 
L 173.393346 161.886552 
L 173.494802 162.727744 
L 173.742354 167.188452 
L 174.298332 183.623199 
L 174.836048 196.715405 
L 175.146503 199.629572 
L 175.404201 200.526824 
L 175.489423 200.557591 
L 175.525948 200.502032 
L 175.789733 199.670155 
L 176.489778 196.975934 
L 176.491807 196.976385 
L 176.629787 197.122405 
L 176.747476 197.697972 
L 177.384618 202.145268 
L 177.492161 201.939971 
L 177.760005 201.041928 
L 177.973062 198.651437 
L 178.389031 191.940715 
L 179.166182 176.527033 
L 179.427938 174.471276 
L 179.452288 174.490401 
L 179.541569 174.819918 
L 179.752597 176.828871 
L 179.990003 181.045295 
L 181.436763 211.032602 
L 181.440821 211.031884 
L 181.515899 210.892936 
L 181.637646 210.032484 
L 181.814179 206.923638 
L 182.222031 194.71934 
L 182.749601 180.794068 
L 183.049911 177.511766 
L 183.129046 177.425357 
L 183.183832 177.452384 
L 183.311667 177.644197 
L 183.471967 178.939947 
L 183.756043 183.299114 
L 184.151721 193.070561 
L 185.241356 222.662733 
L 185.318463 222.849078 
L 185.369191 222.72441 
L 185.533549 221.430459 
L 185.752694 217.328226 
L 186.19707 204.800095 
L 187.012775 180.935204 
L 187.402365 176.535051 
L 187.511937 176.298167 
L 187.554549 176.338335 
L 187.682383 176.7873 
L 187.952256 177.382058 
L 188.065886 177.291729 
L 188.161255 176.802003 
L 188.433156 173.733784 
L 189.161609 166.034667 
L 189.248861 166.052477 
L 189.269152 166.087022 
L 189.354375 166.544645 
L 189.530908 169.155151 
L 189.879916 178.403111 
L 190.385166 199.28624 
L 191.024338 222.382893 
L 191.361171 228.126646 
L 191.535675 228.974538 
L 191.560024 228.947004 
L 191.641189 228.488071 
L 191.884683 225.466056 
L 192.158614 219.217313 
L 193.585082 183.331529 
L 193.619577 183.304173 
L 193.674363 183.397578 
L 193.790023 184.008319 
L 193.960469 186.826931 
L 194.798494 202.529712 
L 195.19823 204.79049 
L 195.792761 206.554451 
L 195.808994 206.54521 
L 196.042342 206.20483 
L 196.220904 205.529543 
L 196.462369 202.54003 
L 196.762678 195.635643 
L 197.667664 172.36534 
L 198.055226 167.320188 
L 198.260166 166.531482 
L 198.292632 166.560488 
L 198.381913 166.922634 
L 198.558446 168.936127 
L 198.854697 174.722448 
L 199.364006 190.891729 
L 200.009264 210.271882 
L 200.252758 211.947472 
L 200.352185 211.899386 
L 200.360302 211.879096 
L 200.461757 211.256206 
L 200.993386 207.52237 
L 201.07658 207.49355 
L 201.115133 207.535947 
L 201.21456 207.914537 
L 201.474286 208.658443 
L 201.691402 209.286498 
L 201.729955 209.215435 
L 201.892284 208.26924 
L 202.162157 205.546375 
L 202.758717 198.983789 
L 203.016415 198.164351 
L 203.089463 198.141695 
L 203.123958 198.214904 
L 203.239618 198.976849 
L 203.513548 202.348675 
L 203.769217 207.602119 
L 204.733047 229.132409 
L 204.828416 229.551023 
L 204.881173 229.436298 
L 205.100317 228.204847 
L 205.358015 225.202991 
L 206.745931 202.99556 
L 207.218715 195.15484 
L 207.50482 192.67668 
L 207.677295 191.954835 
L 207.910643 191.207911 
L 207.922818 191.214431 
L 208.290088 191.680739 
L 208.393573 192.291735 
L 208.742581 196.725944 
L 209.523791 206.097483 
L 209.704382 206.396474 
L 209.917439 207.228864 
L 210.112234 207.650307 
L 210.183253 207.630374 
L 210.209632 207.582123 
L 210.436893 206.850389 
L 210.658067 204.531856 
L 211.414927 195.189678 
L 211.581315 194.919597 
L 211.607693 194.940916 
L 211.70712 195.251192 
L 211.857274 196.676598 
L 212.315855 201.287773 
L 212.362524 201.353972 
L 212.41934 201.249083 
L 212.534999 200.516957 
L 212.737911 197.016968 
L 213.768702 179.093423 
L 213.86407 179.140772 
L 213.872187 179.151736 
L 213.961468 179.477577 
L 214.184671 181.588639 
L 214.464689 187.418735 
L 214.886745 201.57794 
L 215.736945 231.037719 
L 215.933769 232.799929 
L 215.956089 232.76576 
L 216.033196 232.19004 
L 216.199583 228.975855 
L 216.487718 217.99793 
L 217.435315 178.154898 
L 217.658518 176.103204 
L 217.701129 176.136554 
L 217.719391 176.191585 
L 217.806643 176.973677 
L 218.001438 181.242306 
L 218.425524 197.026763 
L 219.005851 217.071132 
L 219.332539 222.453418 
L 219.450227 222.790692 
L 219.488781 222.746208 
L 219.590237 222.266751 
L 219.886487 219.351478 
L 220.349126 212.490173 
L 221.698488 189.949361 
L 222.368097 183.368028 
L 222.394475 183.396003 
L 222.489844 183.839623 
L 222.639998 185.677342 
L 222.970744 192.760971 
L 224.090816 221.476409 
L 224.49664 225.580473 
L 224.636649 225.876925 
L 224.67926 225.852363 
L 224.809124 225.641655 
L 224.97754 224.406728 
L 225.156102 221.582646 
L 225.403655 214.618152 
L 226.249796 191.2794 
L 226.468941 189.343062 
L 226.491261 189.365316 
L 226.598804 189.79017 
L 226.783454 191.410972 
L 227.520023 198.186437 
L 228.063826 200.656881 
L 228.46762 202.562289 
L 228.603571 202.576128 
L 228.623862 202.547969 
L 228.814599 202.070939 
L 229.575518 197.727553 
L 229.595809 197.742461 
L 229.741905 198.106785 
L 229.96105 199.563634 
L 230.241068 202.925189 
L 230.711823 207.295914 
L 231.048656 208.990479 
L 231.393606 211.522637 
L 231.815662 215.968964 
L 232.115971 217.803899 
L 232.258009 218.211881 
L 232.304679 218.124263 
L 232.444688 217.216133 
L 232.78558 213.882109 
L 233.378082 203.131093 
L 233.789992 197.055762 
L 234.686862 185.932528 
L 234.861366 185.561023 
L 234.918181 185.532691 
L 234.952676 185.615996 
L 235.05819 186.555606 
L 235.261101 190.386103 
L 235.624313 201.361888 
L 236.293922 222.938099 
L 236.584085 226.474188 
L 236.713949 227.040183 
L 236.758589 226.940751 
L 236.886424 225.91109 
L 237.231373 221.514455 
L 237.937506 209.353828 
L 238.164767 208.466626 
L 238.268252 208.449192 
L 238.29463 208.480934 
L 238.383911 208.870877 
L 238.820171 212.59654 
L 239.055549 213.744519 
L 239.07584 213.728325 
L 239.157005 213.392958 
L 239.3518 211.580785 
L 239.572974 207.482948 
L 239.871254 196.736735 
L 240.33998 169.80303 
L 240.908132 141.27486 
L 241.159742 137.088619 
L 241.208441 137.017984 
L 241.259169 137.139033 
L 241.356567 138.134693 
L 241.543245 142.809843 
L 241.896312 158.706254 
L 243.249732 225.901688 
L 243.637293 232.300942 
L 243.742808 232.568626 
L 243.785419 232.55674 
L 243.939632 232.387373 
L 244.041088 231.888199 
L 244.187184 229.603807 
L 244.670114 217.928287 
L 245.065791 202.021897 
L 246.07832 157.93089 
L 246.360368 154.091655 
L 246.439503 153.980638 
L 246.486173 154.046199 
L 246.579512 154.588808 
L 246.816919 157.716999 
L 247.241004 168.521708 
L 248.334698 198.549326 
L 248.85821 208.026308 
L 249.081412 209.334835 
L 249.093587 209.330501 
L 249.190985 209.137506 
L 249.4081 207.982 
L 249.643478 205.287897 
L 250.154815 200.011413 
L 250.467299 198.479057 
L 250.704705 197.937026 
L 250.712822 197.940362 
L 250.838627 198.152122 
L 250.97052 198.648024 
L 251.240392 201.031223 
L 251.593458 206.853738 
L 252.14132 215.45323 
L 252.32394 216.17302 
L 252.354377 216.129091 
L 252.496415 215.442338 
L 252.64657 213.581312 
L 253.423721 203.815589 
L 253.685477 202.762045 
L 253.734176 202.756894 
L 253.782875 202.817282 
L 253.833603 202.824252 
L 253.874185 202.753504 
L 254.442338 201.141295 
L 254.904976 199.49794 
L 255.006432 199.404385 
L 255.049043 199.494296 
L 255.256013 200.575852 
L 255.643574 202.481845 
L 255.714594 202.559587 
L 255.765321 202.479828 
L 255.887068 201.825316 
L 256.094038 199.481916 
L 256.463337 192.26202 
L 256.966558 183.805603 
L 257.230343 182.200679 
L 257.309479 182.242872 
L 257.323683 182.266615 
L 257.441371 182.723288 
L 257.632108 184.510043 
L 258.417376 194.160571 
L 258.466075 194.14144 
L 258.559415 193.917806 
L 258.727831 192.654819 
L 259.813408 182.994857 
L 260.70419 176.899752 
L 261.643671 167.80184 
L 261.737011 168.073168 
L 261.874991 169.297331 
L 262.179358 174.489709 
L 262.568948 187.305177 
L 263.137101 204.598829 
L 263.417119 208.042833 
L 263.638293 208.61128 
L 263.822942 208.730612 
L 263.845262 208.704286 
L 264.003533 208.22937 
L 264.567628 206.924456 
L 264.604152 206.962167 
L 264.805034 207.562373 
L 265.371158 209.254543 
L 265.413769 209.200694 
L 265.561895 208.620139 
L 265.774952 206.8802 
L 266.207154 200.823236 
L 266.710375 195.44051 
L 266.943723 193.585747 
L 267.199392 189.79909 
L 268.165251 173.721974 
L 268.384396 173.433357 
L 268.48788 173.344928 
L 268.918053 172.211308 
L 269.879854 165.986326 
L 269.904204 165.992447 
L 269.936669 166.075604 
L 270.044213 166.930393 
L 270.352638 172.201702 
L 270.67121 182.898865 
L 272.134202 231.153556 
L 272.497414 234.313902 
L 272.623219 234.494546 
L 272.661773 234.455165 
L 272.803811 233.995013 
L 272.94382 232.534585 
L 273.191372 227.671989 
L 273.601253 214.722821 
L 274.567113 185.894336 
L 274.772054 183.941853 
L 274.796403 183.963688 
L 274.869451 184.314618 
L 275.015548 186.619277 
L 275.236721 192.970161 
L 276.137649 223.505366 
L 276.243163 223.810508 
L 276.289833 223.707543 
L 276.421725 222.658088 
L 276.5942 219.388742 
L 277.154236 203.607962 
L 277.886747 186.111729 
L 278.182998 183.134053 
L 278.276337 182.98352 
L 278.327065 183.057517 
L 278.560414 183.7915 
L 278.814053 186.65655 
L 279.148857 192.317585 
L 279.85499 211.69384 
L 280.58953 232.156078 
L 280.802587 233.593356 
L 280.804616 233.593174 
L 280.879694 233.467481 
L 281.007528 232.714272 
L 281.214498 229.891899 
L 283.590593 187.084502 
L 283.858436 185.833225 
L 283.915251 185.875818 
L 283.933514 185.91771 
L 284.122221 186.71855 
L 284.477317 189.04992 
L 284.666025 189.979864 
L 284.694432 189.957791 
L 284.804004 189.609384 
L 284.946043 188.142653 
L 285.155042 183.601791 
L 285.922047 165.471473 
L 286.039736 164.917418 
L 286.086406 165.034363 
L 286.226415 166.196426 
L 286.449618 170.202501 
L 286.745869 179.803011 
L 287.553457 205.451698 
L 287.760427 207.124672 
L 288.044503 207.195242 
L 288.060736 207.150892 
L 288.16625 206.388483 
L 288.454385 204.713062 
L 288.547724 204.437407 
L 288.85615 203.189306 
L 288.902819 203.244125 
L 289.113847 203.459952 
L 289.140226 203.421812 
L 289.243711 202.88283 
L 290.185221 197.121136 
L 290.262327 197.259728 
L 290.410453 198.125211 
L 290.858887 200.545372 
L 290.901499 200.506954 
L 290.919761 200.456561 
L 291.03542 199.6853 
L 291.236303 196.566304 
L 291.550816 187.468864 
L 292.165638 171.283723 
L 292.449715 168.631887 
L 292.514646 168.649514 
L 292.545083 168.693733 
L 292.693208 169.187045 
L 292.857567 170.510601 
L 293.131498 175.590301 
L 293.53935 186.590641 
L 294.616811 216.999154 
L 294.925236 220.265962 
L 295.178876 221.274156 
L 295.316856 221.531396 
L 295.462952 222.10369 
L 295.911387 224.990058 
L 296.169085 226.237725 
L 296.231987 226.250445 
L 296.276628 226.199642 
L 296.382142 225.886013 
L 296.540413 224.273165 
L 296.885363 218.406532 
L 297.345972 211.495633 
L 297.623961 210.014811 
L 297.713242 210.119404 
L 297.841076 210.619401 
L 298.248929 213.563782 
L 299.001731 221.460174 
L 299.366972 223.230572 
L 299.614524 223.543723 
L 299.618582 223.541438 
L 299.709893 223.341184 
L 299.912804 223.121528 
L 299.916862 223.123564 
L 299.99194 223.302582 
L 300.314569 224.898829 
L 300.957799 229.674268 
L 301.032876 229.619207 
L 301.118099 229.278249 
L 301.347389 227.037527 
L 301.635524 220.962339 
L 301.964241 209.451541 
L 302.958508 170.581328 
L 303.06808 170.134476 
L 303.110691 170.246492 
L 303.222293 171.431855 
L 303.417088 175.773318 
L 303.774212 190.592209 
L 304.336278 211.677386 
L 304.596005 215.020253 
L 304.632529 215.060913 
L 304.679198 214.931642 
L 304.796887 213.741103 
L 305.060672 208.655591 
L 305.856086 192.912425 
L 306.077259 192.065088 
L 306.079289 192.065498 
L 306.148278 192.198148 
L 306.296404 193.157689 
L 306.519607 196.522388 
L 306.886877 206.233837 
L 307.806066 230.792362 
L 308.114492 233.801508 
L 308.357986 234.234227 
L 308.376248 234.223729 
L 308.447267 234.022718 
L 308.60148 232.532144 
L 308.893673 227.89128 
L 309.374573 214.922223 
L 310.200424 189.447965 
L 310.421597 187.695607 
L 310.472325 187.796753 
L 310.590014 188.786367 
L 310.853799 192.811758 
L 311.488913 203.229592 
L 311.799367 204.37122 
L 311.97793 204.731468 
L 312.012425 204.709411 
L 312.150404 204.739576 
L 312.363462 204.879851 
L 312.387811 204.84685 
L 312.675946 204.325969 
L 312.740877 204.411912 
L 312.998575 205.060251 
L 313.235982 206.984812 
L 314.209957 215.680434 
L 314.494034 216.832292 
L 314.707091 217.067389 
L 314.70912 217.066392 
L 314.774052 216.90511 
L 314.932323 215.657618 
L 315.210312 211.668557 
L 316.291831 193.121715 
L 316.352704 193.064754 
L 316.397345 193.150489 
L 316.502859 193.908396 
L 316.732149 197.568016 
L 317.206962 204.154583 
L 317.271894 204.262414 
L 317.324651 204.162291 
L 317.450456 203.370293 
L 317.691921 200.415873 
L 318.495451 188.958667 
L 318.617198 188.830139 
L 318.647635 188.851687 
L 318.753149 189.125886 
L 318.909391 190.398428 
L 319.48566 197.347004 
L 319.57697 196.983131 
L 319.747416 194.744001 
L 320.03555 187.446495 
L 320.79444 167.958993 
L 320.987206 166.553657 
L 321.019672 166.589122 
L 321.117069 167.027128 
L 321.332156 169.441056 
L 321.593912 174.937723 
L 322.14786 185.824586 
L 322.391354 187.656174 
L 322.644994 188.60671 
L 322.691663 188.504784 
L 322.874284 187.228089 
L 323.200972 184.669068 
L 324.347422 169.68256 
L 324.477286 169.472953 
L 324.517868 169.551005 
L 324.655848 170.445901 
L 324.887167 173.277623 
L 325.292991 177.189721 
L 325.47764 177.245384 
L 325.506048 177.184972 
L 325.919987 176.348856 
L 325.958541 176.387048 
L 326.045793 176.767111 
L 326.340015 179.284448 
L 326.668731 185.669519 
L 327.374864 199.510389 
L 327.433708 199.617877 
L 327.490523 199.516641 
L 327.608212 198.761664 
L 327.876056 194.84265 
L 328.894672 177.459825 
L 328.963662 177.338169 
L 329.012361 177.443917 
L 329.146282 178.48248 
L 329.367456 182.110538 
L 329.718493 191.713499 
L 330.189248 201.91558 
L 330.335344 202.34085 
L 330.363752 202.313156 
L 330.463179 201.90306 
L 330.617392 200.240882 
L 331.526436 187.843373 
L 331.63195 187.537543 
L 331.680649 187.601272 
L 331.877473 188.382177 
L 332.076326 189.808064 
L 332.543023 193.889684 
L 332.666799 194.239335 
L 332.709411 194.203379 
L 332.804779 193.843611 
L 333.046244 191.478706 
L 333.525115 183.422045 
L 333.863978 179.078556 
L 334.044569 178.164438 
L 334.093268 178.213964 
L 334.188636 178.599127 
L 334.389519 181.009012 
L 334.872448 189.217876 
L 335.410164 197.237912 
L 335.751056 199.279601 
L 335.783522 199.273768 
L 335.815988 199.196211 
L 336.006724 198.137109 
L 336.290801 194.96326 
L 336.686478 187.245827 
L 337.207961 171.358429 
L 337.719299 158.800259 
L 338.058161 155.05101 
L 338.17585 154.708782 
L 338.22049 154.776323 
L 338.352383 155.448711 
L 338.589789 158.156153 
L 338.86372 164.15777 
L 339.446077 182.804738 
L 340.462664 214.425046 
L 340.789352 219.109906 
L 340.83805 219.22313 
L 340.894866 219.074892 
L 341.024729 217.870157 
L 341.292572 213.139794 
L 341.75724 198.947621 
L 342.99703 160.360369 
L 343.270961 158.992081 
L 343.327776 158.968106 
L 343.372417 159.035832 
L 343.477931 159.610125 
L 343.729541 162.483751 
L 344.074491 169.548166 
L 345.302106 198.588495 
L 345.367038 198.675835 
L 345.425882 198.610718 
L 345.582124 198.207494 
L 345.77489 196.600737 
L 346.359276 190.864302 
L 346.525663 190.302764 
L 346.572333 190.33248 
L 346.708284 190.585727 
L 346.872642 191.893128 
L 347.095845 195.283574 
L 347.605153 206.734401 
L 347.917637 211.862008 
L 348.02518 212.214895 
L 348.069821 212.091304 
L 348.18548 210.823977 
L 348.37013 206.352177 
L 348.844943 187.457622 
L 349.516581 161.781548 
L 349.831094 157.460032 
L 349.893996 157.258152 
L 349.952841 157.400424 
L 350.121257 158.449233 
L 350.569692 164.667286 
L 351.283941 180.751267 
L 352.84636 224.741927 
L 353.132466 227.168373 
L 353.193339 227.222097 
L 353.240009 227.139309 
L 353.361756 226.404068 
L 353.597133 223.560371 
L 353.907588 216.411764 
L 355.163611 184.713576 
L 355.2813 184.422861 
L 355.321882 184.484712 
L 355.459862 185.269433 
L 355.867715 187.433074 
L 355.898151 187.40564 
L 356.011782 186.992767 
L 356.157878 185.448016 
L 356.561672 178.321839 
L 357.267805 165.799302 
L 357.557968 163.82771 
L 357.624929 163.775223 
L 357.671599 163.846356 
L 357.817695 164.499067 
L 358.004374 166.321294 
L 358.223519 170.587743 
L 358.609051 183.239533 
L 359.461279 212.848022 
L 359.798113 216.964107 
L 359.960442 217.090802 
L 360.086247 217.137316 
L 360.118713 217.077054 
L 360.224227 216.5234 
L 360.53874 212.733658 
L 360.857311 207.069358 
L 361.374736 199.808675 
L 361.506629 199.470946 
L 361.537065 199.482837 
L 361.642579 199.670878 
L 361.770414 200.684304 
L 361.995646 204.272973 
L 362.486692 215.575976 
L 362.787001 219.653065 
L 362.843816 219.775323 
L 362.898602 219.652512 
L 363.016291 218.636512 
L 363.221232 214.476621 
L 363.629084 201.344142 
L 364.481313 173.830923 
L 364.783651 170.472484 
L 364.996709 169.551973 
L 365.010912 169.559232 
L 365.083961 169.788347 
L 365.335571 171.62725 
L 365.546599 174.994098 
L 365.993005 187.632522 
L 367.184096 226.387785 
L 367.581803 231.966196 
L 367.707608 232.476274 
L 367.74819 232.409663 
L 367.853704 231.704743 
L 368.089082 228.294278 
L 368.348809 220.70896 
L 369.416124 188.777524 
L 369.771219 184.706617 
L 369.828034 184.594522 
L 369.886879 184.69527 
L 370.002538 185.329883 
L 370.239945 188.842072 
L 370.556487 197.669799 
L 371.140873 212.861387 
L 371.337697 213.997087 
L 371.441182 214.165995 
L 371.487852 214.13065 
L 371.566987 213.832719 
L 371.696851 212.056507 
L 372.902146 193.183105 
L 373.042155 192.548152 
L 373.100999 192.670613 
L 373.218688 193.496722 
L 373.573783 199.038598 
L 374.462536 214.40898 
L 374.906913 217.629264 
L 375.199105 218.56261 
L 375.383755 218.804061 
L 375.458832 218.904191 
L 375.507531 218.819241 
L 375.649569 218.046311 
L 375.94582 214.721393 
L 376.942116 197.68819 
L 377.427075 189.488975 
L 377.755792 186.856808 
L 377.936383 186.683035 
L 378.060159 186.779155 
L 378.214372 187.632927 
L 378.441633 190.047913 
L 378.697302 194.755057 
L 379.054426 205.381948 
L 380.166382 240.468326 
L 380.411905 241.861989 
L 380.415963 241.86119 
L 380.46872 241.728092 
L 380.568147 240.627146 
L 380.844107 234.077327 
L 381.156591 221.46127 
L 382.087955 183.605801 
L 382.37406 178.013057 
L 382.656108 175.599088 
L 382.710894 175.745839 
L 382.83467 177.006052 
L 383.258755 184.178489 
L 383.699073 191.417594 
L 383.934451 192.991617 
L 384.287517 193.4428 
L 384.666962 194.299187 
L 384.926689 196.247497 
L 385.218881 200.030601 
L 385.776888 211.493404 
L 386.799563 233.666479 
L 386.976096 234.107898 
L 387.038999 233.990428 
L 387.183066 232.946728 
L 387.385978 229.936885 
L 387.812092 220.676955 
L 388.972747 195.320197 
L 389.116814 194.745938 
L 389.161454 194.784854 
L 389.289289 195.160124 
L 389.445531 196.787659 
L 389.749898 202.456912 
L 390.297759 211.89138 
L 390.563574 213.512805 
L 390.569661 213.511851 
L 390.967368 213.318306 
L 391.1926 212.752069 
L 391.229124 212.803325 
L 391.340725 213.433634 
L 391.661326 216.60184 
L 391.988013 223.143119 
L 392.566311 232.894076 
L 392.720524 233.430616 
L 392.755019 233.396642 
L 392.838213 232.980702 
L 393.026921 230.615208 
L 393.321143 224.019863 
L 393.797985 206.247999 
L 394.402662 185.190506 
L 394.664418 181.961731 
L 394.711087 181.898919 
L 394.763844 182.006997 
L 394.885591 182.84387 
L 395.106765 186.088931 
L 395.979285 200.781707 
L 396.226837 201.657699 
L 396.320177 201.556479 
L 396.393225 201.512367 
L 396.437865 201.571779 
L 396.592078 202.128324 
L 396.95529 204.496294 
L 397.352997 210.664897 
L 398.055071 221.947674 
L 398.140294 222.185139 
L 398.191022 222.07289 
L 398.383788 220.846989 
L 398.487273 219.940356 
L 398.487273 219.940356 
" style="fill:none;stroke:#000000;stroke-linecap:square;stroke-width:1.5;"/>
   </g>
   <g id="line2d_38">
    <path clip-path="url(#p190c41024c)" d="M 73.832727 174.481115 
L 76.005911 126.927257 
L 77.142216 106.839372 
L 78.061406 94.257473 
L 78.844644 86.359988 
L 79.524398 81.577907 
L 80.112842 78.876488 
L 80.614034 77.509133 
L 81.034061 76.933035 
L 81.385098 76.788419 
L 81.72396 76.889514 
L 82.143988 77.271379 
L 82.770984 78.182091 
L 84.233977 80.374985 
L 84.725023 80.702064 
L 85.108526 80.707756 
L 85.471738 80.480268 
L 85.873503 79.943117 
L 86.352375 78.895829 
L 86.930673 77.047842 
L 87.653038 73.928159 
L 88.661509 68.47564 
L 90.692654 57.346158 
L 91.36835 54.901147 
L 91.853309 53.87242 
L 92.198259 53.579485 
L 92.455956 53.621989 
L 92.7238 53.917325 
L 93.056575 54.65727 
L 93.470515 56.176941 
L 93.975765 58.955952 
L 94.584499 63.65528 
L 95.314981 71.159414 
L 96.219967 82.934107 
L 97.469903 102.414453 
L 100.310666 147.509853 
L 101.272467 158.878518 
L 102.039473 165.530228 
L 102.670528 169.248595 
L 103.183894 171.096078 
L 103.587688 171.831604 
L 103.887998 171.990015 
L 104.145695 171.87706 
L 104.450063 171.467402 
L 104.853857 170.505149 
L 105.39766 168.568928 
L 106.176841 164.869791 
L 108.638159 152.593302 
L 109.238777 150.888226 
L 109.683154 150.206982 
L 110.009841 150.053374 
L 110.285801 150.16357 
L 110.596256 150.555812 
L 110.985846 151.451711 
L 111.470805 153.182837 
L 112.075482 156.24041 
L 112.846546 161.388087 
L 113.946327 170.408857 
L 116.273723 189.778118 
L 117.101603 194.70685 
L 117.740774 197.304333 
L 118.241966 198.520968 
L 118.625469 198.950269 
L 118.919691 198.98687 
L 119.205796 198.784946 
L 119.556833 198.231012 
L 120.009326 197.056148 
L 120.603857 194.831612 
L 121.454057 190.680397 
L 123.62927 179.695989 
L 124.229888 177.884411 
L 124.658032 177.19906 
L 124.96037 177.06681 
L 125.21198 177.197529 
L 125.502144 177.635052 
L 125.865356 178.635171 
L 126.313791 180.589111 
L 126.857594 184.044691 
L 127.50894 189.728501 
L 128.298266 198.713853 
L 129.304708 212.925079 
L 130.950321 239.878421 
L 132.733914 267.930025 
L 133.746443 280.52649 
L 134.547944 287.94887 
L 135.205378 292.159996 
L 135.743094 294.321963 
L 136.169208 295.237157 
L 136.489809 295.482537 
L 136.745477 295.420298 
L 137.033612 295.092458 
L 137.411027 294.282722 
L 137.912219 292.623202 
L 138.596031 289.511374 
L 139.722191 283.173929 
L 141.317076 274.441565 
L 142.126694 271.194499 
L 142.761807 269.476636 
L 143.277203 268.655056 
L 143.699259 268.354074 
L 144.072616 268.345458 
L 144.472352 268.571946 
L 144.977602 269.138236 
L 145.815627 270.473106 
L 146.789603 271.904946 
L 147.260358 272.240101 
L 147.605308 272.234509 
L 147.919821 271.997452 
L 148.270858 271.426762 
L 148.680739 270.292697 
L 149.157582 268.25715 
L 149.705443 264.8628 
L 150.334469 259.459138 
L 151.054805 251.208423 
L 151.89283 238.875396 
L 152.90333 220.487574 
L 154.270955 191.136124 
L 157.460725 121.371233 
L 158.532099 103.432923 
L 159.416793 92.093241 
L 160.175683 85.01586 
L 160.833117 80.798767 
L 161.401269 78.463787 
L 161.88217 77.322362 
L 162.283935 76.871896 
L 162.624826 76.792113 
L 162.975863 76.948012 
L 163.428356 77.420523 
L 164.171013 78.576046 
L 165.30326 80.27609 
L 165.820684 80.67638 
L 166.212304 80.723073 
L 166.573487 80.536796 
L 166.969164 80.05732 
L 167.435861 79.104627 
L 167.993868 77.416572 
L 168.687826 74.548016 
L 169.629336 69.6069 
L 172.005431 56.723294 
L 172.638515 54.620357 
L 173.093037 53.775945 
L 173.417696 53.569265 
L 173.669306 53.656298 
L 173.949324 54.021335 
L 174.298332 54.889387 
L 174.730534 56.623263 
L 175.256075 59.735953 
L 175.88713 64.921385 
L 176.648049 73.157883 
L 177.601733 86.099163 
L 178.999795 108.497462 
L 181.278492 144.822495 
L 182.284934 157.292291 
L 183.080347 164.612962 
L 183.733723 168.759173 
L 184.26738 170.873091 
L 184.689437 171.757211 
L 185.005979 171.98633 
L 185.261647 171.915356 
L 185.55384 171.572163 
L 185.937343 170.734131 
L 186.45071 169.018477 
L 187.169017 165.756817 
L 190.038187 151.825684 
L 190.577932 150.558003 
L 190.977668 150.109645 
L 191.275948 150.068012 
L 191.555966 150.264866 
L 191.892799 150.808938 
L 192.314856 151.963095 
L 192.840397 154.111882 
L 193.49783 157.819222 
L 194.354117 164.037671 
L 195.786674 176.380038 
L 197.316627 188.924998 
L 198.176972 194.255596 
L 198.836435 197.079348 
L 199.351831 198.424072 
L 199.747508 198.924026 
L 200.049847 198.995541 
L 200.331894 198.825507 
L 200.672786 198.327285 
L 201.113104 197.242415 
L 201.689373 195.166519 
L 202.492903 191.344427 
L 204.923784 179.230051 
L 205.487878 177.688253 
L 205.889643 177.143531 
L 206.17372 177.07461 
L 206.427359 177.251491 
L 206.727668 177.767083 
L 207.105084 178.906345 
L 207.571781 181.097452 
L 208.135875 184.916712 
L 208.811571 191.140496 
L 209.635392 200.952359 
L 210.704736 216.588614 
L 214.767027 278.939942 
L 215.596936 287.030165 
L 216.274661 291.656439 
L 216.830638 294.081954 
L 217.272986 295.148336 
L 217.609819 295.470355 
L 217.871575 295.44381 
L 218.151593 295.163323 
L 218.510747 294.450868 
L 218.989618 292.955075 
L 219.640964 290.113065 
L 220.643348 284.604989 
L 222.536513 274.188385 
L 223.333956 271.055263 
L 223.962982 269.4015 
L 224.47229 268.622406 
L 224.890288 268.345833 
L 225.263646 268.353295 
L 225.669469 268.599802 
L 226.192981 269.208633 
L 227.097967 270.671638 
L 227.976574 271.928155 
L 228.439213 272.244528 
L 228.782133 272.229706 
L 229.098675 271.980916 
L 229.451742 271.39182 
L 229.865681 270.222337 
L 230.344553 268.141573 
L 230.896472 264.669182 
L 231.527528 259.175699 
L 232.251922 250.784485 
L 233.096034 238.240534 
L 234.11668 219.51752 
L 235.512712 189.385684 
L 238.564503 122.514428 
L 239.648051 104.152024 
L 240.538833 92.563185 
L 241.30381 85.30104 
L 241.965302 80.967454 
L 242.537512 78.553974 
L 243.0245 77.360053 
L 243.428294 76.884866 
L 243.771215 76.79017 
L 244.118194 76.931898 
L 244.5646 77.383794 
L 245.280878 78.483422 
L 246.476027 80.284908 
L 246.991423 80.678937 
L 247.385071 80.721395 
L 247.746254 80.529903 
L 248.137873 80.050848 
L 248.602541 79.099558 
L 249.164606 77.394958 
L 249.862622 74.500425 
L 250.80819 69.52599 
L 253.157907 56.772792 
L 253.79505 54.640872 
L 254.251601 53.783104 
L 254.576259 53.569888 
L 254.829899 53.653118 
L 255.107888 54.010317 
L 255.456896 54.870229 
L 255.889098 56.593702 
L 256.414639 59.693595 
L 257.045694 64.864032 
L 257.804583 73.059456 
L 258.756239 85.948809 
L 260.146183 108.191567 
L 262.44923 144.907292 
L 263.455672 157.357408 
L 264.251086 164.659536 
L 264.904461 168.789724 
L 265.43609 170.88486 
L 265.858146 171.762454 
L 266.172659 171.986651 
L 266.428327 171.913908 
L 266.72052 171.568845 
L 267.104023 170.728603 
L 267.619419 169.002555 
L 268.343813 165.705468 
L 271.184576 151.880847 
L 271.728379 150.581908 
L 272.130144 150.116749 
L 272.432482 150.065739 
L 272.712501 150.255911 
L 273.045276 150.783428 
L 273.461244 151.902433 
L 273.980698 153.995589 
L 274.632045 157.624852 
L 275.478186 163.71468 
L 276.851898 175.49974 
L 278.465045 188.809091 
L 279.329449 194.192478 
L 279.990941 197.045121 
L 280.510394 198.41277 
L 280.91013 198.922651 
L 281.212469 198.995944 
L 281.494516 198.827524 
L 281.835407 198.331154 
L 282.273696 197.254524 
L 282.847936 195.191809 
L 283.645379 191.407995 
L 286.098581 179.195238 
L 286.658617 177.676328 
L 287.058353 177.140635 
L 287.342429 177.075637 
L 287.596068 177.256212 
L 287.900436 177.785764 
L 288.279881 178.944724 
L 288.746577 181.154851 
L 289.310672 184.9971 
L 289.988396 191.268484 
L 290.814247 201.140771 
L 291.887649 216.877084 
L 295.9053 278.641581 
L 296.739266 286.84685 
L 297.421049 291.555876 
L 297.981085 294.035225 
L 298.427491 295.132203 
L 298.766353 295.467394 
L 299.028109 295.448127 
L 299.306098 295.177842 
L 299.665252 294.476093 
L 300.142094 293.000017 
L 300.787353 290.202985 
L 301.78162 284.759184 
L 303.713339 274.132709 
L 304.506723 271.029112 
L 305.131691 269.393305 
L 305.63897 268.62028 
L 306.058997 268.344669 
L 306.430326 268.353945 
L 306.83412 268.599802 
L 307.357632 269.208633 
L 308.278851 270.698843 
L 309.147312 271.934379 
L 309.609951 272.246306 
L 309.948813 272.228872 
L 310.265355 271.978505 
L 310.620451 271.382947 
L 311.032361 270.215214 
L 311.513262 268.120344 
L 312.065182 264.639126 
L 312.696237 259.134891 
L 313.42266 250.704454 
L 314.266773 238.139714 
L 315.289447 219.355113 
L 316.689538 189.108671 
L 319.719008 122.706076 
L 320.806614 104.242531 
L 321.699426 92.608311 
L 322.464402 85.333049 
L 323.125894 80.988802 
L 323.698105 78.567063 
L 324.185093 77.367047 
L 324.590916 76.886214 
L 324.933837 76.789996 
L 325.280816 76.930477 
L 325.725192 77.378624 
L 326.427267 78.452632 
L 327.648795 80.293644 
L 328.162161 80.68143 
L 328.551751 80.720955 
L 328.910905 80.529903 
L 329.306583 80.04434 
L 329.77125 79.089392 
L 330.335344 77.373271 
L 331.03336 74.47179 
L 331.978929 69.491268 
L 334.316471 56.797651 
L 334.955642 54.651184 
L 335.414222 53.785506 
L 335.74091 53.569888 
L 335.99455 53.653127 
L 336.272539 54.010326 
L 336.619518 54.863886 
L 337.051719 56.583903 
L 337.575231 59.665446 
L 338.204257 64.806826 
L 338.963147 72.985787 
L 339.910744 85.798703 
L 341.290543 107.851829 
L 343.621998 145.020174 
L 344.62641 157.422388 
L 345.419795 164.690509 
L 346.071141 168.799889 
L 346.60277 170.890727 
L 347.022797 171.762463 
L 347.339339 171.986954 
L 347.597037 171.910984 
L 347.891258 171.558826 
L 348.276791 170.706421 
L 348.794215 168.962608 
L 349.520639 165.643706 
L 352.330965 151.936761 
L 352.878826 150.606336 
L 353.28465 150.122991 
L 353.586988 150.063172 
L 353.864977 150.24284 
L 354.193694 150.750081 
L 354.607633 151.842724 
L 355.125058 153.899894 
L 355.772346 157.470859 
L 356.610371 163.458007 
L 357.939442 174.816113 
L 359.625638 188.780052 
L 360.490041 194.171368 
L 361.153562 197.038246 
L 361.673016 198.408975 
L 362.072752 198.921258 
L 362.37712 198.995944 
L 362.659167 198.827524 
L 363.000058 198.331144 
L 363.438347 197.254505 
L 364.010558 195.200223 
L 364.81003 191.407976 
L 367.263232 179.195229 
L 367.821238 177.680288 
L 368.220974 177.142065 
L 368.505051 177.075114 
L 368.75869 177.253847 
L 369.061029 177.776405 
L 369.440473 178.929343 
L 369.90717 181.131871 
L 370.471264 184.964936 
L 371.14696 191.204486 
L 371.970781 201.033113 
L 373.042155 216.716849 
L 377.086183 278.825548 
L 377.916092 286.947137 
L 378.597875 291.623101 
L 379.155882 294.068709 
L 379.600258 295.145155 
L 379.937092 295.46964 
L 380.198848 295.4449 
L 380.476837 295.169162 
L 380.838019 294.455918 
L 381.316891 292.962564 
L 381.966208 290.133056 
L 382.966562 284.640554 
L 384.865815 274.188348 
L 385.663258 271.055236 
L 386.292284 269.401482 
L 386.801592 268.622397 
L 387.21959 268.345824 
L 387.594977 268.353945 
L 387.998771 268.599811 
L 388.516195 269.20009 
L 389.411036 270.644396 
L 390.299789 271.921895 
L 390.764456 272.2433 
L 391.105348 272.232144 
L 391.419861 271.990421 
L 391.772927 271.409364 
L 392.182808 270.264685 
L 392.659651 268.215288 
L 393.209541 264.78859 
L 393.838567 259.358199 
L 394.558904 251.076283 
L 395.398958 238.675362 
L 396.413516 220.164785 
L 397.791286 190.537761 
L 398.487273 174.574354 
L 398.487273 174.574354 
" style="fill:none;stroke:#d3d3d3;stroke-linecap:square;stroke-width:1.5;"/>
   </g>
   <g id="patch_3">
    <path d="M 57.6 307.584 
L 57.6 41.472 
" style="fill:none;stroke:#000000;stroke-linecap:square;stroke-linejoin:miter;stroke-width:0.8;"/>
   </g>
   <g id="patch_4">
    <path d="M 414.72 307.584 
L 414.72 41.472 
" style="fill:none;stroke:#000000;stroke-linecap:square;stroke-linejoin:miter;stroke-width:0.8;"/>
   </g>
   <g id="patch_5">
    <path d="M 57.6 307.584 
L 414.72 307.584 
" style="fill:none;stroke:#000000;stroke-linecap:square;stroke-linejoin:miter;stroke-width:0.8;"/>
   </g>
   <g id="patch_6">
    <path d="M 57.6 41.472 
L 414.72 41.472 
" style="fill:none;stroke:#000000;stroke-linecap:square;stroke-linejoin:miter;stroke-width:0.8;"/>
   </g>
   <g id="legend_1">
    <g id="patch_7">
     <path d="M 336.427813 78.82825 
L 407.72 78.82825 
Q 409.72 78.82825 409.72 76.82825 
L 409.72 48.472 
Q 409.72 46.472 407.72 46.472 
L 336.427813 46.472 
Q 334.427813 46.472 334.427813 48.472 
L 334.427813 76.82825 
Q 334.427813 78.82825 336.427813 78.82825 
z
" style="fill:#ffffff;opacity:0.8;stroke:#cccccc;stroke-linejoin:miter;"/>
    </g>
    <g id="line2d_39">
     <path d="M 338.427813 54.570437 
L 358.427813 54.570437 
" style="fill:none;stroke:#000000;stroke-linecap:square;stroke-width:1.5;"/>
    </g>
    <g id="line2d_40"/>
    <g id="text_21">
     <!-- RC -->
     <defs>
      <path d="M 44.390625 34.1875 
Q 47.5625 33.109375 50.5625 29.59375 
Q 53.5625 26.078125 56.59375 19.921875 
L 66.609375 0 
L 56 0 
L 46.6875 18.703125 
Q 43.0625 26.03125 39.671875 28.421875 
Q 36.28125 30.8125 30.421875 30.8125 
L 19.671875 30.8125 
L 19.671875 0 
L 9.8125 0 
L 9.8125 72.90625 
L 32.078125 72.90625 
Q 44.578125 72.90625 50.734375 67.671875 
Q 56.890625 62.453125 56.890625 51.90625 
Q 56.890625 45.015625 53.6875 40.46875 
Q 50.484375 35.9375 44.390625 34.1875 
z
M 19.671875 64.796875 
L 19.671875 38.921875 
L 32.078125 38.921875 
Q 39.203125 38.921875 42.84375 42.21875 
Q 46.484375 45.515625 46.484375 51.90625 
Q 46.484375 58.296875 42.84375 61.546875 
Q 39.203125 64.796875 32.078125 64.796875 
z
" id="DejaVuSans-82"/>
     </defs>
     <g transform="translate(366.427813 58.070437)scale(0.1 -0.1)">
      <use xlink:href="#DejaVuSans-82"/>
      <use x="69.404297" xlink:href="#DejaVuSans-67"/>
     </g>
    </g>
    <g id="line2d_41">
     <path d="M 338.427813 69.248562 
L 358.427813 69.248562 
" style="fill:none;stroke:#d3d3d3;stroke-linecap:square;stroke-width:1.5;"/>
    </g>
    <g id="line2d_42"/>
    <g id="text_22">
     <!-- Entrada -->
     <defs>
      <path d="M 9.8125 72.90625 
L 55.90625 72.90625 
L 55.90625 64.59375 
L 19.671875 64.59375 
L 19.671875 43.015625 
L 54.390625 43.015625 
L 54.390625 34.71875 
L 19.671875 34.71875 
L 19.671875 8.296875 
L 56.78125 8.296875 
L 56.78125 0 
L 9.8125 0 
z
" id="DejaVuSans-69"/>
      <path d="M 18.3125 70.21875 
L 18.3125 54.6875 
L 36.8125 54.6875 
L 36.8125 47.703125 
L 18.3125 47.703125 
L 18.3125 18.015625 
Q 18.3125 11.328125 20.140625 9.421875 
Q 21.96875 7.515625 27.59375 7.515625 
L 36.8125 7.515625 
L 36.8125 0 
L 27.59375 0 
Q 17.1875 0 13.234375 3.875 
Q 9.28125 7.765625 9.28125 18.015625 
L 9.28125 47.703125 
L 2.6875 47.703125 
L 2.6875 54.6875 
L 9.28125 54.6875 
L 9.28125 70.21875 
z
" id="DejaVuSans-116"/>
     </defs>
     <g transform="translate(366.427813 72.748562)scale(0.1 -0.1)">
      <use xlink:href="#DejaVuSans-69"/>
      <use x="63.183594" xlink:href="#DejaVuSans-110"/>
      <use x="126.5625" xlink:href="#DejaVuSans-116"/>
      <use x="165.771484" xlink:href="#DejaVuSans-114"/>
      <use x="206.884766" xlink:href="#DejaVuSans-97"/>
      <use x="268.164062" xlink:href="#DejaVuSans-100"/>
      <use x="331.640625" xlink:href="#DejaVuSans-97"/>
     </g>
    </g>
   </g>
  </g>
 </g>
 <defs>
  <clipPath id="p190c41024c">
   <rect height="266.112" width="357.12" x="57.6" y="41.472"/>
  </clipPath>
 </defs>
</svg>
