<?xml version="1.0" encoding="utf-8" standalone="no"?>
<!DOCTYPE svg PUBLIC "-//W3C//DTD SVG 1.1//EN"
  "http://www.w3.org/Graphics/SVG/1.1/DTD/svg11.dtd">
<!-- Created with matplotlib (https://matplotlib.org/) -->
<svg height="345.6pt" version="1.1" viewBox="0 0 460.8 345.6" width="460.8pt" xmlns="http://www.w3.org/2000/svg" xmlns:xlink="http://www.w3.org/1999/xlink">
 <defs>
  <style type="text/css">
*{stroke-linecap:butt;stroke-linejoin:round;}
  </style>
 </defs>
 <g id="figure_1">
  <g id="patch_1">
   <path d="M 0 345.6 
L 460.8 345.6 
L 460.8 0 
L 0 0 
z
" style="fill:#ffffff;"/>
  </g>
  <g id="axes_1">
   <g id="patch_2">
    <path d="M 57.6 307.584 
L 414.72 307.584 
L 414.72 41.472 
L 57.6 41.472 
z
" style="fill:#ffffff;"/>
   </g>
   <g id="matplotlib.axis_1">
    <g id="xtick_1">
     <g id="line2d_1">
      <path clip-path="url(#p81f43f407d)" d="M 73.830698 307.584 
L 73.830698 41.472 
" style="fill:none;stroke:#b0b0b0;stroke-linecap:square;stroke-width:0.8;"/>
     </g>
     <g id="line2d_2">
      <defs>
       <path d="M 0 0 
L 0 3.5 
" id="m4ec6f9540d" style="stroke:#000000;stroke-width:0.8;"/>
      </defs>
      <g>
       <use style="stroke:#000000;stroke-width:0.8;" x="73.830698" xlink:href="#m4ec6f9540d" y="307.584"/>
      </g>
     </g>
     <g id="text_1">
      <!-- 2000 -->
      <defs>
       <path d="M 19.1875 8.296875 
L 53.609375 8.296875 
L 53.609375 0 
L 7.328125 0 
L 7.328125 8.296875 
Q 12.9375 14.109375 22.625 23.890625 
Q 32.328125 33.6875 34.8125 36.53125 
Q 39.546875 41.84375 41.421875 45.53125 
Q 43.3125 49.21875 43.3125 52.78125 
Q 43.3125 58.59375 39.234375 62.25 
Q 35.15625 65.921875 28.609375 65.921875 
Q 23.96875 65.921875 18.8125 64.3125 
Q 13.671875 62.703125 7.8125 59.421875 
L 7.8125 69.390625 
Q 13.765625 71.78125 18.9375 73 
Q 24.125 74.21875 28.421875 74.21875 
Q 39.75 74.21875 46.484375 68.546875 
Q 53.21875 62.890625 53.21875 53.421875 
Q 53.21875 48.921875 51.53125 44.890625 
Q 49.859375 40.875 45.40625 35.40625 
Q 44.1875 33.984375 37.640625 27.21875 
Q 31.109375 20.453125 19.1875 8.296875 
z
" id="DejaVuSans-50"/>
       <path d="M 31.78125 66.40625 
Q 24.171875 66.40625 20.328125 58.90625 
Q 16.5 51.421875 16.5 36.375 
Q 16.5 21.390625 20.328125 13.890625 
Q 24.171875 6.390625 31.78125 6.390625 
Q 39.453125 6.390625 43.28125 13.890625 
Q 47.125 21.390625 47.125 36.375 
Q 47.125 51.421875 43.28125 58.90625 
Q 39.453125 66.40625 31.78125 66.40625 
z
M 31.78125 74.21875 
Q 44.046875 74.21875 50.515625 64.515625 
Q 56.984375 54.828125 56.984375 36.375 
Q 56.984375 17.96875 50.515625 8.265625 
Q 44.046875 -1.421875 31.78125 -1.421875 
Q 19.53125 -1.421875 13.0625 8.265625 
Q 6.59375 17.96875 6.59375 36.375 
Q 6.59375 54.828125 13.0625 64.515625 
Q 19.53125 74.21875 31.78125 74.21875 
z
" id="DejaVuSans-48"/>
      </defs>
      <g transform="translate(61.105698 322.182437)scale(0.1 -0.1)">
       <use xlink:href="#DejaVuSans-50"/>
       <use x="63.623047" xlink:href="#DejaVuSans-48"/>
       <use x="127.246094" xlink:href="#DejaVuSans-48"/>
       <use x="190.869141" xlink:href="#DejaVuSans-48"/>
      </g>
     </g>
    </g>
    <g id="xtick_2">
     <g id="line2d_3">
      <path clip-path="url(#p81f43f407d)" d="M 114.413024 307.584 
L 114.413024 41.472 
" style="fill:none;stroke:#b0b0b0;stroke-linecap:square;stroke-width:0.8;"/>
     </g>
     <g id="line2d_4">
      <g>
       <use style="stroke:#000000;stroke-width:0.8;" x="114.413024" xlink:href="#m4ec6f9540d" y="307.584"/>
      </g>
     </g>
     <g id="text_2">
      <!-- 3000 -->
      <defs>
       <path d="M 40.578125 39.3125 
Q 47.65625 37.796875 51.625 33 
Q 55.609375 28.21875 55.609375 21.1875 
Q 55.609375 10.40625 48.1875 4.484375 
Q 40.765625 -1.421875 27.09375 -1.421875 
Q 22.515625 -1.421875 17.65625 -0.515625 
Q 12.796875 0.390625 7.625 2.203125 
L 7.625 11.71875 
Q 11.71875 9.328125 16.59375 8.109375 
Q 21.484375 6.890625 26.8125 6.890625 
Q 36.078125 6.890625 40.9375 10.546875 
Q 45.796875 14.203125 45.796875 21.1875 
Q 45.796875 27.640625 41.28125 31.265625 
Q 36.765625 34.90625 28.71875 34.90625 
L 20.21875 34.90625 
L 20.21875 43.015625 
L 29.109375 43.015625 
Q 36.375 43.015625 40.234375 45.921875 
Q 44.09375 48.828125 44.09375 54.296875 
Q 44.09375 59.90625 40.109375 62.90625 
Q 36.140625 65.921875 28.71875 65.921875 
Q 24.65625 65.921875 20.015625 65.03125 
Q 15.375 64.15625 9.8125 62.3125 
L 9.8125 71.09375 
Q 15.4375 72.65625 20.34375 73.4375 
Q 25.25 74.21875 29.59375 74.21875 
Q 40.828125 74.21875 47.359375 69.109375 
Q 53.90625 64.015625 53.90625 55.328125 
Q 53.90625 49.265625 50.4375 45.09375 
Q 46.96875 40.921875 40.578125 39.3125 
z
" id="DejaVuSans-51"/>
      </defs>
      <g transform="translate(101.688024 322.182437)scale(0.1 -0.1)">
       <use xlink:href="#DejaVuSans-51"/>
       <use x="63.623047" xlink:href="#DejaVuSans-48"/>
       <use x="127.246094" xlink:href="#DejaVuSans-48"/>
       <use x="190.869141" xlink:href="#DejaVuSans-48"/>
      </g>
     </g>
    </g>
    <g id="xtick_3">
     <g id="line2d_5">
      <path clip-path="url(#p81f43f407d)" d="M 154.995349 307.584 
L 154.995349 41.472 
" style="fill:none;stroke:#b0b0b0;stroke-linecap:square;stroke-width:0.8;"/>
     </g>
     <g id="line2d_6">
      <g>
       <use style="stroke:#000000;stroke-width:0.8;" x="154.995349" xlink:href="#m4ec6f9540d" y="307.584"/>
      </g>
     </g>
     <g id="text_3">
      <!-- 4000 -->
      <defs>
       <path d="M 37.796875 64.3125 
L 12.890625 25.390625 
L 37.796875 25.390625 
z
M 35.203125 72.90625 
L 47.609375 72.90625 
L 47.609375 25.390625 
L 58.015625 25.390625 
L 58.015625 17.1875 
L 47.609375 17.1875 
L 47.609375 0 
L 37.796875 0 
L 37.796875 17.1875 
L 4.890625 17.1875 
L 4.890625 26.703125 
z
" id="DejaVuSans-52"/>
      </defs>
      <g transform="translate(142.270349 322.182437)scale(0.1 -0.1)">
       <use xlink:href="#DejaVuSans-52"/>
       <use x="63.623047" xlink:href="#DejaVuSans-48"/>
       <use x="127.246094" xlink:href="#DejaVuSans-48"/>
       <use x="190.869141" xlink:href="#DejaVuSans-48"/>
      </g>
     </g>
    </g>
    <g id="xtick_4">
     <g id="line2d_7">
      <path clip-path="url(#p81f43f407d)" d="M 195.577675 307.584 
L 195.577675 41.472 
" style="fill:none;stroke:#b0b0b0;stroke-linecap:square;stroke-width:0.8;"/>
     </g>
     <g id="line2d_8">
      <g>
       <use style="stroke:#000000;stroke-width:0.8;" x="195.577675" xlink:href="#m4ec6f9540d" y="307.584"/>
      </g>
     </g>
     <g id="text_4">
      <!-- 5000 -->
      <defs>
       <path d="M 10.796875 72.90625 
L 49.515625 72.90625 
L 49.515625 64.59375 
L 19.828125 64.59375 
L 19.828125 46.734375 
Q 21.96875 47.46875 24.109375 47.828125 
Q 26.265625 48.1875 28.421875 48.1875 
Q 40.625 48.1875 47.75 41.5 
Q 54.890625 34.8125 54.890625 23.390625 
Q 54.890625 11.625 47.5625 5.09375 
Q 40.234375 -1.421875 26.90625 -1.421875 
Q 22.3125 -1.421875 17.546875 -0.640625 
Q 12.796875 0.140625 7.71875 1.703125 
L 7.71875 11.625 
Q 12.109375 9.234375 16.796875 8.0625 
Q 21.484375 6.890625 26.703125 6.890625 
Q 35.15625 6.890625 40.078125 11.328125 
Q 45.015625 15.765625 45.015625 23.390625 
Q 45.015625 31 40.078125 35.4375 
Q 35.15625 39.890625 26.703125 39.890625 
Q 22.75 39.890625 18.8125 39.015625 
Q 14.890625 38.140625 10.796875 36.28125 
z
" id="DejaVuSans-53"/>
      </defs>
      <g transform="translate(182.852675 322.182437)scale(0.1 -0.1)">
       <use xlink:href="#DejaVuSans-53"/>
       <use x="63.623047" xlink:href="#DejaVuSans-48"/>
       <use x="127.246094" xlink:href="#DejaVuSans-48"/>
       <use x="190.869141" xlink:href="#DejaVuSans-48"/>
      </g>
     </g>
    </g>
    <g id="xtick_5">
     <g id="line2d_9">
      <path clip-path="url(#p81f43f407d)" d="M 236.16 307.584 
L 236.16 41.472 
" style="fill:none;stroke:#b0b0b0;stroke-linecap:square;stroke-width:0.8;"/>
     </g>
     <g id="line2d_10">
      <g>
       <use style="stroke:#000000;stroke-width:0.8;" x="236.16" xlink:href="#m4ec6f9540d" y="307.584"/>
      </g>
     </g>
     <g id="text_5">
      <!-- 6000 -->
      <defs>
       <path d="M 33.015625 40.375 
Q 26.375 40.375 22.484375 35.828125 
Q 18.609375 31.296875 18.609375 23.390625 
Q 18.609375 15.53125 22.484375 10.953125 
Q 26.375 6.390625 33.015625 6.390625 
Q 39.65625 6.390625 43.53125 10.953125 
Q 47.40625 15.53125 47.40625 23.390625 
Q 47.40625 31.296875 43.53125 35.828125 
Q 39.65625 40.375 33.015625 40.375 
z
M 52.59375 71.296875 
L 52.59375 62.3125 
Q 48.875 64.0625 45.09375 64.984375 
Q 41.3125 65.921875 37.59375 65.921875 
Q 27.828125 65.921875 22.671875 59.328125 
Q 17.53125 52.734375 16.796875 39.40625 
Q 19.671875 43.65625 24.015625 45.921875 
Q 28.375 48.1875 33.59375 48.1875 
Q 44.578125 48.1875 50.953125 41.515625 
Q 57.328125 34.859375 57.328125 23.390625 
Q 57.328125 12.15625 50.6875 5.359375 
Q 44.046875 -1.421875 33.015625 -1.421875 
Q 20.359375 -1.421875 13.671875 8.265625 
Q 6.984375 17.96875 6.984375 36.375 
Q 6.984375 53.65625 15.1875 63.9375 
Q 23.390625 74.21875 37.203125 74.21875 
Q 40.921875 74.21875 44.703125 73.484375 
Q 48.484375 72.75 52.59375 71.296875 
z
" id="DejaVuSans-54"/>
      </defs>
      <g transform="translate(223.435 322.182437)scale(0.1 -0.1)">
       <use xlink:href="#DejaVuSans-54"/>
       <use x="63.623047" xlink:href="#DejaVuSans-48"/>
       <use x="127.246094" xlink:href="#DejaVuSans-48"/>
       <use x="190.869141" xlink:href="#DejaVuSans-48"/>
      </g>
     </g>
    </g>
    <g id="xtick_6">
     <g id="line2d_11">
      <path clip-path="url(#p81f43f407d)" d="M 276.742325 307.584 
L 276.742325 41.472 
" style="fill:none;stroke:#b0b0b0;stroke-linecap:square;stroke-width:0.8;"/>
     </g>
     <g id="line2d_12">
      <g>
       <use style="stroke:#000000;stroke-width:0.8;" x="276.742325" xlink:href="#m4ec6f9540d" y="307.584"/>
      </g>
     </g>
     <g id="text_6">
      <!-- 7000 -->
      <defs>
       <path d="M 8.203125 72.90625 
L 55.078125 72.90625 
L 55.078125 68.703125 
L 28.609375 0 
L 18.3125 0 
L 43.21875 64.59375 
L 8.203125 64.59375 
z
" id="DejaVuSans-55"/>
      </defs>
      <g transform="translate(264.017325 322.182437)scale(0.1 -0.1)">
       <use xlink:href="#DejaVuSans-55"/>
       <use x="63.623047" xlink:href="#DejaVuSans-48"/>
       <use x="127.246094" xlink:href="#DejaVuSans-48"/>
       <use x="190.869141" xlink:href="#DejaVuSans-48"/>
      </g>
     </g>
    </g>
    <g id="xtick_7">
     <g id="line2d_13">
      <path clip-path="url(#p81f43f407d)" d="M 317.324651 307.584 
L 317.324651 41.472 
" style="fill:none;stroke:#b0b0b0;stroke-linecap:square;stroke-width:0.8;"/>
     </g>
     <g id="line2d_14">
      <g>
       <use style="stroke:#000000;stroke-width:0.8;" x="317.324651" xlink:href="#m4ec6f9540d" y="307.584"/>
      </g>
     </g>
     <g id="text_7">
      <!-- 8000 -->
      <defs>
       <path d="M 31.78125 34.625 
Q 24.75 34.625 20.71875 30.859375 
Q 16.703125 27.09375 16.703125 20.515625 
Q 16.703125 13.921875 20.71875 10.15625 
Q 24.75 6.390625 31.78125 6.390625 
Q 38.8125 6.390625 42.859375 10.171875 
Q 46.921875 13.96875 46.921875 20.515625 
Q 46.921875 27.09375 42.890625 30.859375 
Q 38.875 34.625 31.78125 34.625 
z
M 21.921875 38.8125 
Q 15.578125 40.375 12.03125 44.71875 
Q 8.5 49.078125 8.5 55.328125 
Q 8.5 64.0625 14.71875 69.140625 
Q 20.953125 74.21875 31.78125 74.21875 
Q 42.671875 74.21875 48.875 69.140625 
Q 55.078125 64.0625 55.078125 55.328125 
Q 55.078125 49.078125 51.53125 44.71875 
Q 48 40.375 41.703125 38.8125 
Q 48.828125 37.15625 52.796875 32.3125 
Q 56.78125 27.484375 56.78125 20.515625 
Q 56.78125 9.90625 50.3125 4.234375 
Q 43.84375 -1.421875 31.78125 -1.421875 
Q 19.734375 -1.421875 13.25 4.234375 
Q 6.78125 9.90625 6.78125 20.515625 
Q 6.78125 27.484375 10.78125 32.3125 
Q 14.796875 37.15625 21.921875 38.8125 
z
M 18.3125 54.390625 
Q 18.3125 48.734375 21.84375 45.5625 
Q 25.390625 42.390625 31.78125 42.390625 
Q 38.140625 42.390625 41.71875 45.5625 
Q 45.3125 48.734375 45.3125 54.390625 
Q 45.3125 60.0625 41.71875 63.234375 
Q 38.140625 66.40625 31.78125 66.40625 
Q 25.390625 66.40625 21.84375 63.234375 
Q 18.3125 60.0625 18.3125 54.390625 
z
" id="DejaVuSans-56"/>
      </defs>
      <g transform="translate(304.599651 322.182437)scale(0.1 -0.1)">
       <use xlink:href="#DejaVuSans-56"/>
       <use x="63.623047" xlink:href="#DejaVuSans-48"/>
       <use x="127.246094" xlink:href="#DejaVuSans-48"/>
       <use x="190.869141" xlink:href="#DejaVuSans-48"/>
      </g>
     </g>
    </g>
    <g id="xtick_8">
     <g id="line2d_15">
      <path clip-path="url(#p81f43f407d)" d="M 357.906976 307.584 
L 357.906976 41.472 
" style="fill:none;stroke:#b0b0b0;stroke-linecap:square;stroke-width:0.8;"/>
     </g>
     <g id="line2d_16">
      <g>
       <use style="stroke:#000000;stroke-width:0.8;" x="357.906976" xlink:href="#m4ec6f9540d" y="307.584"/>
      </g>
     </g>
     <g id="text_8">
      <!-- 9000 -->
      <defs>
       <path d="M 10.984375 1.515625 
L 10.984375 10.5 
Q 14.703125 8.734375 18.5 7.8125 
Q 22.3125 6.890625 25.984375 6.890625 
Q 35.75 6.890625 40.890625 13.453125 
Q 46.046875 20.015625 46.78125 33.40625 
Q 43.953125 29.203125 39.59375 26.953125 
Q 35.25 24.703125 29.984375 24.703125 
Q 19.046875 24.703125 12.671875 31.3125 
Q 6.296875 37.9375 6.296875 49.421875 
Q 6.296875 60.640625 12.9375 67.421875 
Q 19.578125 74.21875 30.609375 74.21875 
Q 43.265625 74.21875 49.921875 64.515625 
Q 56.59375 54.828125 56.59375 36.375 
Q 56.59375 19.140625 48.40625 8.859375 
Q 40.234375 -1.421875 26.421875 -1.421875 
Q 22.703125 -1.421875 18.890625 -0.6875 
Q 15.09375 0.046875 10.984375 1.515625 
z
M 30.609375 32.421875 
Q 37.25 32.421875 41.125 36.953125 
Q 45.015625 41.5 45.015625 49.421875 
Q 45.015625 57.28125 41.125 61.84375 
Q 37.25 66.40625 30.609375 66.40625 
Q 23.96875 66.40625 20.09375 61.84375 
Q 16.21875 57.28125 16.21875 49.421875 
Q 16.21875 41.5 20.09375 36.953125 
Q 23.96875 32.421875 30.609375 32.421875 
z
" id="DejaVuSans-57"/>
      </defs>
      <g transform="translate(345.181976 322.182437)scale(0.1 -0.1)">
       <use xlink:href="#DejaVuSans-57"/>
       <use x="63.623047" xlink:href="#DejaVuSans-48"/>
       <use x="127.246094" xlink:href="#DejaVuSans-48"/>
       <use x="190.869141" xlink:href="#DejaVuSans-48"/>
      </g>
     </g>
    </g>
    <g id="xtick_9">
     <g id="line2d_17">
      <path clip-path="url(#p81f43f407d)" d="M 398.489302 307.584 
L 398.489302 41.472 
" style="fill:none;stroke:#b0b0b0;stroke-linecap:square;stroke-width:0.8;"/>
     </g>
     <g id="line2d_18">
      <g>
       <use style="stroke:#000000;stroke-width:0.8;" x="398.489302" xlink:href="#m4ec6f9540d" y="307.584"/>
      </g>
     </g>
     <g id="text_9">
      <!-- 10000 -->
      <defs>
       <path d="M 12.40625 8.296875 
L 28.515625 8.296875 
L 28.515625 63.921875 
L 10.984375 60.40625 
L 10.984375 69.390625 
L 28.421875 72.90625 
L 38.28125 72.90625 
L 38.28125 8.296875 
L 54.390625 8.296875 
L 54.390625 0 
L 12.40625 0 
z
" id="DejaVuSans-49"/>
      </defs>
      <g transform="translate(382.583052 322.182437)scale(0.1 -0.1)">
       <use xlink:href="#DejaVuSans-49"/>
       <use x="63.623047" xlink:href="#DejaVuSans-48"/>
       <use x="127.246094" xlink:href="#DejaVuSans-48"/>
       <use x="190.869141" xlink:href="#DejaVuSans-48"/>
       <use x="254.492188" xlink:href="#DejaVuSans-48"/>
      </g>
     </g>
    </g>
    <g id="text_10">
     <!-- Tempo (ms) -->
     <defs>
      <path d="M -0.296875 72.90625 
L 61.375 72.90625 
L 61.375 64.59375 
L 35.5 64.59375 
L 35.5 0 
L 25.59375 0 
L 25.59375 64.59375 
L -0.296875 64.59375 
z
" id="DejaVuSans-84"/>
      <path d="M 56.203125 29.59375 
L 56.203125 25.203125 
L 14.890625 25.203125 
Q 15.484375 15.921875 20.484375 11.0625 
Q 25.484375 6.203125 34.421875 6.203125 
Q 39.59375 6.203125 44.453125 7.46875 
Q 49.3125 8.734375 54.109375 11.28125 
L 54.109375 2.78125 
Q 49.265625 0.734375 44.1875 -0.34375 
Q 39.109375 -1.421875 33.890625 -1.421875 
Q 20.796875 -1.421875 13.15625 6.1875 
Q 5.515625 13.8125 5.515625 26.8125 
Q 5.515625 40.234375 12.765625 48.109375 
Q 20.015625 56 32.328125 56 
Q 43.359375 56 49.78125 48.890625 
Q 56.203125 41.796875 56.203125 29.59375 
z
M 47.21875 32.234375 
Q 47.125 39.59375 43.09375 43.984375 
Q 39.0625 48.390625 32.421875 48.390625 
Q 24.90625 48.390625 20.390625 44.140625 
Q 15.875 39.890625 15.1875 32.171875 
z
" id="DejaVuSans-101"/>
      <path d="M 52 44.1875 
Q 55.375 50.25 60.0625 53.125 
Q 64.75 56 71.09375 56 
Q 79.640625 56 84.28125 50.015625 
Q 88.921875 44.046875 88.921875 33.015625 
L 88.921875 0 
L 79.890625 0 
L 79.890625 32.71875 
Q 79.890625 40.578125 77.09375 44.375 
Q 74.3125 48.1875 68.609375 48.1875 
Q 61.625 48.1875 57.5625 43.546875 
Q 53.515625 38.921875 53.515625 30.90625 
L 53.515625 0 
L 44.484375 0 
L 44.484375 32.71875 
Q 44.484375 40.625 41.703125 44.40625 
Q 38.921875 48.1875 33.109375 48.1875 
Q 26.21875 48.1875 22.15625 43.53125 
Q 18.109375 38.875 18.109375 30.90625 
L 18.109375 0 
L 9.078125 0 
L 9.078125 54.6875 
L 18.109375 54.6875 
L 18.109375 46.1875 
Q 21.1875 51.21875 25.484375 53.609375 
Q 29.78125 56 35.6875 56 
Q 41.65625 56 45.828125 52.96875 
Q 50 49.953125 52 44.1875 
z
" id="DejaVuSans-109"/>
      <path d="M 18.109375 8.203125 
L 18.109375 -20.796875 
L 9.078125 -20.796875 
L 9.078125 54.6875 
L 18.109375 54.6875 
L 18.109375 46.390625 
Q 20.953125 51.265625 25.265625 53.625 
Q 29.59375 56 35.59375 56 
Q 45.5625 56 51.78125 48.09375 
Q 58.015625 40.1875 58.015625 27.296875 
Q 58.015625 14.40625 51.78125 6.484375 
Q 45.5625 -1.421875 35.59375 -1.421875 
Q 29.59375 -1.421875 25.265625 0.953125 
Q 20.953125 3.328125 18.109375 8.203125 
z
M 48.6875 27.296875 
Q 48.6875 37.203125 44.609375 42.84375 
Q 40.53125 48.484375 33.40625 48.484375 
Q 26.265625 48.484375 22.1875 42.84375 
Q 18.109375 37.203125 18.109375 27.296875 
Q 18.109375 17.390625 22.1875 11.75 
Q 26.265625 6.109375 33.40625 6.109375 
Q 40.53125 6.109375 44.609375 11.75 
Q 48.6875 17.390625 48.6875 27.296875 
z
" id="DejaVuSans-112"/>
      <path d="M 30.609375 48.390625 
Q 23.390625 48.390625 19.1875 42.75 
Q 14.984375 37.109375 14.984375 27.296875 
Q 14.984375 17.484375 19.15625 11.84375 
Q 23.34375 6.203125 30.609375 6.203125 
Q 37.796875 6.203125 41.984375 11.859375 
Q 46.1875 17.53125 46.1875 27.296875 
Q 46.1875 37.015625 41.984375 42.703125 
Q 37.796875 48.390625 30.609375 48.390625 
z
M 30.609375 56 
Q 42.328125 56 49.015625 48.375 
Q 55.71875 40.765625 55.71875 27.296875 
Q 55.71875 13.875 49.015625 6.21875 
Q 42.328125 -1.421875 30.609375 -1.421875 
Q 18.84375 -1.421875 12.171875 6.21875 
Q 5.515625 13.875 5.515625 27.296875 
Q 5.515625 40.765625 12.171875 48.375 
Q 18.84375 56 30.609375 56 
z
" id="DejaVuSans-111"/>
      <path id="DejaVuSans-32"/>
      <path d="M 31 75.875 
Q 24.46875 64.65625 21.28125 53.65625 
Q 18.109375 42.671875 18.109375 31.390625 
Q 18.109375 20.125 21.3125 9.0625 
Q 24.515625 -2 31 -13.1875 
L 23.1875 -13.1875 
Q 15.875 -1.703125 12.234375 9.375 
Q 8.59375 20.453125 8.59375 31.390625 
Q 8.59375 42.28125 12.203125 53.3125 
Q 15.828125 64.359375 23.1875 75.875 
z
" id="DejaVuSans-40"/>
      <path d="M 44.28125 53.078125 
L 44.28125 44.578125 
Q 40.484375 46.53125 36.375 47.5 
Q 32.28125 48.484375 27.875 48.484375 
Q 21.1875 48.484375 17.84375 46.4375 
Q 14.5 44.390625 14.5 40.28125 
Q 14.5 37.15625 16.890625 35.375 
Q 19.28125 33.59375 26.515625 31.984375 
L 29.59375 31.296875 
Q 39.15625 29.25 43.1875 25.515625 
Q 47.21875 21.78125 47.21875 15.09375 
Q 47.21875 7.46875 41.1875 3.015625 
Q 35.15625 -1.421875 24.609375 -1.421875 
Q 20.21875 -1.421875 15.453125 -0.5625 
Q 10.6875 0.296875 5.421875 2 
L 5.421875 11.28125 
Q 10.40625 8.6875 15.234375 7.390625 
Q 20.0625 6.109375 24.8125 6.109375 
Q 31.15625 6.109375 34.5625 8.28125 
Q 37.984375 10.453125 37.984375 14.40625 
Q 37.984375 18.0625 35.515625 20.015625 
Q 33.0625 21.96875 24.703125 23.78125 
L 21.578125 24.515625 
Q 13.234375 26.265625 9.515625 29.90625 
Q 5.8125 33.546875 5.8125 39.890625 
Q 5.8125 47.609375 11.28125 51.796875 
Q 16.75 56 26.8125 56 
Q 31.78125 56 36.171875 55.265625 
Q 40.578125 54.546875 44.28125 53.078125 
z
" id="DejaVuSans-115"/>
      <path d="M 8.015625 75.875 
L 15.828125 75.875 
Q 23.140625 64.359375 26.78125 53.3125 
Q 30.421875 42.28125 30.421875 31.390625 
Q 30.421875 20.453125 26.78125 9.375 
Q 23.140625 -1.703125 15.828125 -13.1875 
L 8.015625 -13.1875 
Q 14.5 -2 17.703125 9.0625 
Q 20.90625 20.125 20.90625 31.390625 
Q 20.90625 42.671875 17.703125 53.65625 
Q 14.5 64.65625 8.015625 75.875 
z
" id="DejaVuSans-41"/>
     </defs>
     <g transform="translate(205.973281 335.860562)scale(0.1 -0.1)">
      <use xlink:href="#DejaVuSans-84"/>
      <use x="60.818359" xlink:href="#DejaVuSans-101"/>
      <use x="122.341797" xlink:href="#DejaVuSans-109"/>
      <use x="219.753906" xlink:href="#DejaVuSans-112"/>
      <use x="283.230469" xlink:href="#DejaVuSans-111"/>
      <use x="344.412109" xlink:href="#DejaVuSans-32"/>
      <use x="376.199219" xlink:href="#DejaVuSans-40"/>
      <use x="415.212891" xlink:href="#DejaVuSans-109"/>
      <use x="512.625" xlink:href="#DejaVuSans-115"/>
      <use x="564.724609" xlink:href="#DejaVuSans-41"/>
     </g>
    </g>
   </g>
   <g id="matplotlib.axis_2">
    <g id="ytick_1">
     <g id="line2d_19">
      <path clip-path="url(#p81f43f407d)" d="M 57.6 281.882739 
L 414.72 281.882739 
" style="fill:none;stroke:#b0b0b0;stroke-linecap:square;stroke-width:0.8;"/>
     </g>
     <g id="line2d_20">
      <defs>
       <path d="M 0 0 
L -3.5 0 
" id="m4e39709e8a" style="stroke:#000000;stroke-width:0.8;"/>
      </defs>
      <g>
       <use style="stroke:#000000;stroke-width:0.8;" x="57.6" xlink:href="#m4e39709e8a" y="281.882739"/>
      </g>
     </g>
     <g id="text_11">
      <!-- −1.0 -->
      <defs>
       <path d="M 10.59375 35.5 
L 73.1875 35.5 
L 73.1875 27.203125 
L 10.59375 27.203125 
z
" id="DejaVuSans-8722"/>
       <path d="M 10.6875 12.40625 
L 21 12.40625 
L 21 0 
L 10.6875 0 
z
" id="DejaVuSans-46"/>
      </defs>
      <g transform="translate(26.317187 285.681957)scale(0.1 -0.1)">
       <use xlink:href="#DejaVuSans-8722"/>
       <use x="83.789062" xlink:href="#DejaVuSans-49"/>
       <use x="147.412109" xlink:href="#DejaVuSans-46"/>
       <use x="179.199219" xlink:href="#DejaVuSans-48"/>
      </g>
     </g>
    </g>
    <g id="ytick_2">
     <g id="line2d_21">
      <path clip-path="url(#p81f43f407d)" d="M 57.6 224.804054 
L 414.72 224.804054 
" style="fill:none;stroke:#b0b0b0;stroke-linecap:square;stroke-width:0.8;"/>
     </g>
     <g id="line2d_22">
      <g>
       <use style="stroke:#000000;stroke-width:0.8;" x="57.6" xlink:href="#m4e39709e8a" y="224.804054"/>
      </g>
     </g>
     <g id="text_12">
      <!-- −0.5 -->
      <g transform="translate(26.317187 228.603273)scale(0.1 -0.1)">
       <use xlink:href="#DejaVuSans-8722"/>
       <use x="83.789062" xlink:href="#DejaVuSans-48"/>
       <use x="147.412109" xlink:href="#DejaVuSans-46"/>
       <use x="179.199219" xlink:href="#DejaVuSans-53"/>
      </g>
     </g>
    </g>
    <g id="ytick_3">
     <g id="line2d_23">
      <path clip-path="url(#p81f43f407d)" d="M 57.6 167.725369 
L 414.72 167.725369 
" style="fill:none;stroke:#b0b0b0;stroke-linecap:square;stroke-width:0.8;"/>
     </g>
     <g id="line2d_24">
      <g>
       <use style="stroke:#000000;stroke-width:0.8;" x="57.6" xlink:href="#m4e39709e8a" y="167.725369"/>
      </g>
     </g>
     <g id="text_13">
      <!-- 0.0 -->
      <g transform="translate(34.696875 171.524588)scale(0.1 -0.1)">
       <use xlink:href="#DejaVuSans-48"/>
       <use x="63.623047" xlink:href="#DejaVuSans-46"/>
       <use x="95.410156" xlink:href="#DejaVuSans-48"/>
      </g>
     </g>
    </g>
    <g id="ytick_4">
     <g id="line2d_25">
      <path clip-path="url(#p81f43f407d)" d="M 57.6 110.646685 
L 414.72 110.646685 
" style="fill:none;stroke:#b0b0b0;stroke-linecap:square;stroke-width:0.8;"/>
     </g>
     <g id="line2d_26">
      <g>
       <use style="stroke:#000000;stroke-width:0.8;" x="57.6" xlink:href="#m4e39709e8a" y="110.646685"/>
      </g>
     </g>
     <g id="text_14">
      <!-- 0.5 -->
      <g transform="translate(34.696875 114.445903)scale(0.1 -0.1)">
       <use xlink:href="#DejaVuSans-48"/>
       <use x="63.623047" xlink:href="#DejaVuSans-46"/>
       <use x="95.410156" xlink:href="#DejaVuSans-53"/>
      </g>
     </g>
    </g>
    <g id="ytick_5">
     <g id="line2d_27">
      <path clip-path="url(#p81f43f407d)" d="M 57.6 53.568 
L 414.72 53.568 
" style="fill:none;stroke:#b0b0b0;stroke-linecap:square;stroke-width:0.8;"/>
     </g>
     <g id="line2d_28">
      <g>
       <use style="stroke:#000000;stroke-width:0.8;" x="57.6" xlink:href="#m4e39709e8a" y="53.568"/>
      </g>
     </g>
     <g id="text_15">
      <!-- 1.0 -->
      <g transform="translate(34.696875 57.367219)scale(0.1 -0.1)">
       <use xlink:href="#DejaVuSans-49"/>
       <use x="63.623047" xlink:href="#DejaVuSans-46"/>
       <use x="95.410156" xlink:href="#DejaVuSans-48"/>
      </g>
     </g>
    </g>
    <g id="text_16">
     <!-- CST normalizado -->
     <defs>
      <path d="M 64.40625 67.28125 
L 64.40625 56.890625 
Q 59.421875 61.53125 53.78125 63.8125 
Q 48.140625 66.109375 41.796875 66.109375 
Q 29.296875 66.109375 22.65625 58.46875 
Q 16.015625 50.828125 16.015625 36.375 
Q 16.015625 21.96875 22.65625 14.328125 
Q 29.296875 6.6875 41.796875 6.6875 
Q 48.140625 6.6875 53.78125 8.984375 
Q 59.421875 11.28125 64.40625 15.921875 
L 64.40625 5.609375 
Q 59.234375 2.09375 53.4375 0.328125 
Q 47.65625 -1.421875 41.21875 -1.421875 
Q 24.65625 -1.421875 15.125 8.703125 
Q 5.609375 18.84375 5.609375 36.375 
Q 5.609375 53.953125 15.125 64.078125 
Q 24.65625 74.21875 41.21875 74.21875 
Q 47.75 74.21875 53.53125 72.484375 
Q 59.328125 70.75 64.40625 67.28125 
z
" id="DejaVuSans-67"/>
      <path d="M 53.515625 70.515625 
L 53.515625 60.890625 
Q 47.90625 63.578125 42.921875 64.890625 
Q 37.9375 66.21875 33.296875 66.21875 
Q 25.25 66.21875 20.875 63.09375 
Q 16.5 59.96875 16.5 54.203125 
Q 16.5 49.359375 19.40625 46.890625 
Q 22.3125 44.4375 30.421875 42.921875 
L 36.375 41.703125 
Q 47.40625 39.59375 52.65625 34.296875 
Q 57.90625 29 57.90625 20.125 
Q 57.90625 9.515625 50.796875 4.046875 
Q 43.703125 -1.421875 29.984375 -1.421875 
Q 24.8125 -1.421875 18.96875 -0.25 
Q 13.140625 0.921875 6.890625 3.21875 
L 6.890625 13.375 
Q 12.890625 10.015625 18.65625 8.296875 
Q 24.421875 6.59375 29.984375 6.59375 
Q 38.421875 6.59375 43.015625 9.90625 
Q 47.609375 13.234375 47.609375 19.390625 
Q 47.609375 24.75 44.3125 27.78125 
Q 41.015625 30.8125 33.5 32.328125 
L 27.484375 33.5 
Q 16.453125 35.6875 11.515625 40.375 
Q 6.59375 45.0625 6.59375 53.421875 
Q 6.59375 63.09375 13.40625 68.65625 
Q 20.21875 74.21875 32.171875 74.21875 
Q 37.3125 74.21875 42.625 73.28125 
Q 47.953125 72.359375 53.515625 70.515625 
z
" id="DejaVuSans-83"/>
      <path d="M 54.890625 33.015625 
L 54.890625 0 
L 45.90625 0 
L 45.90625 32.71875 
Q 45.90625 40.484375 42.875 44.328125 
Q 39.84375 48.1875 33.796875 48.1875 
Q 26.515625 48.1875 22.3125 43.546875 
Q 18.109375 38.921875 18.109375 30.90625 
L 18.109375 0 
L 9.078125 0 
L 9.078125 54.6875 
L 18.109375 54.6875 
L 18.109375 46.1875 
Q 21.34375 51.125 25.703125 53.5625 
Q 30.078125 56 35.796875 56 
Q 45.21875 56 50.046875 50.171875 
Q 54.890625 44.34375 54.890625 33.015625 
z
" id="DejaVuSans-110"/>
      <path d="M 41.109375 46.296875 
Q 39.59375 47.171875 37.8125 47.578125 
Q 36.03125 48 33.890625 48 
Q 26.265625 48 22.1875 43.046875 
Q 18.109375 38.09375 18.109375 28.8125 
L 18.109375 0 
L 9.078125 0 
L 9.078125 54.6875 
L 18.109375 54.6875 
L 18.109375 46.1875 
Q 20.953125 51.171875 25.484375 53.578125 
Q 30.03125 56 36.53125 56 
Q 37.453125 56 38.578125 55.875 
Q 39.703125 55.765625 41.0625 55.515625 
z
" id="DejaVuSans-114"/>
      <path d="M 34.28125 27.484375 
Q 23.390625 27.484375 19.1875 25 
Q 14.984375 22.515625 14.984375 16.5 
Q 14.984375 11.71875 18.140625 8.90625 
Q 21.296875 6.109375 26.703125 6.109375 
Q 34.1875 6.109375 38.703125 11.40625 
Q 43.21875 16.703125 43.21875 25.484375 
L 43.21875 27.484375 
z
M 52.203125 31.203125 
L 52.203125 0 
L 43.21875 0 
L 43.21875 8.296875 
Q 40.140625 3.328125 35.546875 0.953125 
Q 30.953125 -1.421875 24.3125 -1.421875 
Q 15.921875 -1.421875 10.953125 3.296875 
Q 6 8.015625 6 15.921875 
Q 6 25.140625 12.171875 29.828125 
Q 18.359375 34.515625 30.609375 34.515625 
L 43.21875 34.515625 
L 43.21875 35.40625 
Q 43.21875 41.609375 39.140625 45 
Q 35.0625 48.390625 27.6875 48.390625 
Q 23 48.390625 18.546875 47.265625 
Q 14.109375 46.140625 10.015625 43.890625 
L 10.015625 52.203125 
Q 14.9375 54.109375 19.578125 55.046875 
Q 24.21875 56 28.609375 56 
Q 40.484375 56 46.34375 49.84375 
Q 52.203125 43.703125 52.203125 31.203125 
z
" id="DejaVuSans-97"/>
      <path d="M 9.421875 75.984375 
L 18.40625 75.984375 
L 18.40625 0 
L 9.421875 0 
z
" id="DejaVuSans-108"/>
      <path d="M 9.421875 54.6875 
L 18.40625 54.6875 
L 18.40625 0 
L 9.421875 0 
z
M 9.421875 75.984375 
L 18.40625 75.984375 
L 18.40625 64.59375 
L 9.421875 64.59375 
z
" id="DejaVuSans-105"/>
      <path d="M 5.515625 54.6875 
L 48.1875 54.6875 
L 48.1875 46.484375 
L 14.40625 7.171875 
L 48.1875 7.171875 
L 48.1875 0 
L 4.296875 0 
L 4.296875 8.203125 
L 38.09375 47.515625 
L 5.515625 47.515625 
z
" id="DejaVuSans-122"/>
      <path d="M 45.40625 46.390625 
L 45.40625 75.984375 
L 54.390625 75.984375 
L 54.390625 0 
L 45.40625 0 
L 45.40625 8.203125 
Q 42.578125 3.328125 38.25 0.953125 
Q 33.9375 -1.421875 27.875 -1.421875 
Q 17.96875 -1.421875 11.734375 6.484375 
Q 5.515625 14.40625 5.515625 27.296875 
Q 5.515625 40.1875 11.734375 48.09375 
Q 17.96875 56 27.875 56 
Q 33.9375 56 38.25 53.625 
Q 42.578125 51.265625 45.40625 46.390625 
z
M 14.796875 27.296875 
Q 14.796875 17.390625 18.875 11.75 
Q 22.953125 6.109375 30.078125 6.109375 
Q 37.203125 6.109375 41.296875 11.75 
Q 45.40625 17.390625 45.40625 27.296875 
Q 45.40625 37.203125 41.296875 42.84375 
Q 37.203125 48.484375 30.078125 48.484375 
Q 22.953125 48.484375 18.875 42.84375 
Q 14.796875 37.203125 14.796875 27.296875 
z
" id="DejaVuSans-100"/>
     </defs>
     <g transform="translate(20.2375 216.753781)rotate(-90)scale(0.1 -0.1)">
      <use xlink:href="#DejaVuSans-67"/>
      <use x="69.824219" xlink:href="#DejaVuSans-83"/>
      <use x="133.300781" xlink:href="#DejaVuSans-84"/>
      <use x="194.384766" xlink:href="#DejaVuSans-32"/>
      <use x="226.171875" xlink:href="#DejaVuSans-110"/>
      <use x="289.550781" xlink:href="#DejaVuSans-111"/>
      <use x="350.732422" xlink:href="#DejaVuSans-114"/>
      <use x="391.830078" xlink:href="#DejaVuSans-109"/>
      <use x="489.242188" xlink:href="#DejaVuSans-97"/>
      <use x="550.521484" xlink:href="#DejaVuSans-108"/>
      <use x="578.304688" xlink:href="#DejaVuSans-105"/>
      <use x="606.087891" xlink:href="#DejaVuSans-122"/>
      <use x="658.578125" xlink:href="#DejaVuSans-97"/>
      <use x="719.857422" xlink:href="#DejaVuSans-100"/>
      <use x="783.333984" xlink:href="#DejaVuSans-111"/>
     </g>
    </g>
   </g>
   <g id="line2d_29">
    <path clip-path="url(#p81f43f407d)" d="M 73.832727 157.088829 
L 73.944329 156.66735 
L 73.988969 156.752586 
L 74.122891 157.639019 
L 74.30957 160.371744 
L 74.611908 168.569535 
L 75.431671 192.007751 
L 75.565593 192.488284 
L 75.598058 192.448665 
L 75.68531 191.936164 
L 75.91663 188.771233 
L 76.271725 180.569064 
L 76.904809 156.727235 
L 77.694136 126.386918 
L 77.947775 123.004125 
L 77.968066 122.994611 
L 78.006619 123.109989 
L 78.114163 124.279915 
L 78.337365 129.729434 
L 78.856819 141.701625 
L 78.90146 141.794695 
L 78.954217 141.647896 
L 79.086109 140.377902 
L 79.303225 135.619243 
L 80.265026 111.33203 
L 80.756072 105.932223 
L 81.385098 97.831568 
L 81.462204 97.700033 
L 81.510903 97.776687 
L 81.608301 98.417699 
L 81.827445 101.779484 
L 82.208919 112.182415 
L 82.815625 134.429484 
L 83.475088 157.123561 
L 83.590747 157.680093 
L 83.633359 157.595936 
L 83.740902 156.705157 
L 84.065561 151.619164 
L 84.562694 144.697494 
L 84.645888 144.511826 
L 84.696616 144.604686 
L 84.869091 145.588395 
L 85.782193 151.420369 
L 85.81263 151.389183 
L 85.901911 150.965104 
L 86.078444 148.800899 
L 86.344258 142.252407 
L 87.316205 114.76409 
L 87.57999 113.228706 
L 88.43019 108.941712 
L 89.132264 103.420768 
L 89.637514 96.247246 
L 89.94594 88.249852 
L 90.899624 60.798004 
L 91.289215 55.545109 
L 91.311535 55.538196 
L 91.352117 55.639978 
L 91.467777 56.625758 
L 91.772144 61.528749 
L 92.070424 69.835616 
L 92.865838 95.124642 
L 93.158031 97.773703 
L 93.222962 97.869348 
L 93.275719 97.781345 
L 93.43399 96.957566 
L 93.906775 93.277866 
L 94.006201 93.632221 
L 94.209113 95.850102 
L 94.539859 102.098772 
L 94.81379 105.596582 
L 94.850314 105.571558 
L 94.874663 105.506948 
L 95.006556 104.664584 
L 95.452961 99.573467 
L 95.893279 90.192839 
L 96.790149 68.852612 
L 96.834789 68.946763 
L 96.944362 69.911774 
L 97.122924 73.816526 
L 97.411058 85.477286 
L 97.877755 114.634077 
L 98.324161 138.354883 
L 98.628528 144.434121 
L 98.941012 146.953608 
L 99.127691 148.708329 
L 99.440175 154.725594 
L 99.742513 158.08104 
L 99.797299 158.150598 
L 99.848027 158.056623 
L 99.97992 157.217481 
L 100.487199 153.263673 
L 100.544014 153.310159 
L 100.675906 153.706092 
L 101.246088 155.886933 
L 101.262321 155.881814 
L 101.349573 155.723458 
L 101.47132 154.770439 
L 101.660028 151.219524 
L 101.940046 140.938415 
L 102.640091 114.523224 
L 102.999245 109.756121 
L 103.120992 109.33501 
L 103.161574 109.389109 
L 103.261001 109.938433 
L 103.472029 112.767141 
L 103.76828 119.94261 
L 104.005686 131.789496 
L 105.393602 214.888249 
L 105.714202 221.715311 
L 105.825804 222.279986 
L 105.872473 222.170783 
L 105.992191 221.103391 
L 106.191044 217.019401 
L 106.479179 205.778309 
L 107.008778 175.636216 
L 107.972609 118.861203 
L 108.06189 118.44705 
L 108.114647 118.555282 
L 108.331762 119.726316 
L 108.561052 122.419676 
L 108.812663 128.906747 
L 109.567494 149.149733 
L 109.701416 149.750469 
L 109.741998 149.67926 
L 109.859687 148.886029 
L 110.062598 145.837853 
L 110.383199 137.231532 
L 111.923298 94.014252 
L 112.233753 89.417966 
L 112.485363 88.638584 
L 112.586819 88.728175 
L 112.684217 89.276773 
L 112.844517 91.84175 
L 113.06772 99.381812 
L 113.767765 125.182871 
L 114.047783 135.659364 
L 114.611877 168.915958 
L 115.630493 228.259947 
L 115.940948 233.059694 
L 116.131685 234.01966 
L 116.145889 234.01242 
L 116.210821 233.77978 
L 116.342713 232.224666 
L 116.604469 225.825121 
L 117.008263 210.939541 
L 117.550037 192.521554 
L 117.813822 189.247148 
L 117.98021 188.960391 
L 117.982239 188.960802 
L 118.154714 188.885624 
L 118.280519 188.469652 
L 118.521984 186.706546 
L 118.753303 183.388705 
L 119.520309 171.449301 
L 119.548717 171.428423 
L 119.591328 171.542337 
L 119.692784 172.603982 
L 119.873376 177.422276 
L 120.222384 193.679821 
L 121.462174 258.369439 
L 121.648852 259.443361 
L 121.669143 259.429647 
L 121.766541 259.117725 
L 121.924812 257.864009 
L 122.346868 251.843005 
L 122.584275 243.838759 
L 122.949516 221.821106 
L 123.962045 152.761282 
L 124.300907 145.664547 
L 124.751371 142.870846 
L 124.9137 142.361791 
L 124.944137 142.377568 
L 125.045593 142.611269 
L 125.278941 144.045659 
L 125.524464 146.972754 
L 126.853535 170.531619 
L 127.366902 182.905124 
L 127.446037 183.195359 
L 127.496765 183.058549 
L 127.612425 181.885585 
L 127.811278 177.095021 
L 128.166374 162.561796 
L 128.746701 141.114955 
L 129.195136 132.904765 
L 129.584726 129.303431 
L 129.848511 126.444066 
L 130.248247 118.544532 
L 130.633779 112.83622 
L 130.806254 112.248337 
L 130.830603 112.265877 
L 130.932059 112.575044 
L 131.104534 113.92684 
L 131.494124 119.664889 
L 131.901977 127.642138 
L 132.177937 138.514507 
L 132.506653 161.524696 
L 133.789055 262.926614 
L 134.014287 266.984431 
L 134.034578 266.999947 
L 134.079219 266.872876 
L 134.196907 265.673 
L 134.39779 261.121628 
L 134.870574 242.863865 
L 135.611201 217.776574 
L 135.846579 215.070692 
L 135.899336 215.043341 
L 135.952093 215.105292 
L 136.18747 215.633836 
L 136.404586 217.345699 
L 136.932156 222.10195 
L 137.027524 222.03297 
L 137.15333 221.617463 
L 137.42929 219.470965 
L 137.711337 217.81209 
L 137.920336 217.347238 
L 138.084694 215.923759 
L 138.358625 210.880176 
L 138.780681 203.781038 
L 138.922719 203.347927 
L 138.957214 203.376596 
L 139.087077 203.767238 
L 139.533483 205.395366 
L 139.553774 205.390028 
L 139.699871 205.230711 
L 140.209179 203.570574 
L 141.022854 196.74392 
L 141.065466 196.754718 
L 141.097932 196.826378 
L 141.203446 197.516403 
L 141.373892 200.525535 
L 141.659997 210.125614 
L 142.252499 239.267103 
L 142.619769 251.917717 
L 142.940369 256.383979 
L 143.155456 257.088641 
L 143.159514 257.087603 
L 143.265028 256.934339 
L 143.504464 256.269691 
L 143.642444 255.140558 
L 143.956957 249.933327 
L 144.275528 241.261394 
L 144.644827 222.958867 
L 145.233271 195.911915 
L 145.537638 190.800317 
L 145.614745 190.558626 
L 145.667502 190.670137 
L 145.779103 191.603024 
L 146.034772 196.171709 
L 146.422333 207.812414 
L 146.996573 224.984435 
L 147.120349 225.499533 
L 147.156873 225.442211 
L 147.248183 224.780522 
L 147.48559 220.932583 
L 148.719292 197.408917 
L 149.541085 189.49103 
L 149.57558 189.517354 
L 149.599929 189.584892 
L 149.727763 190.443832 
L 150.064597 193.175081 
L 150.115324 193.065027 
L 150.255333 192.017126 
L 150.614487 188.842636 
L 150.659128 188.925043 
L 150.770729 189.798814 
L 150.965524 193.174327 
L 151.357144 205.272857 
L 152.010519 223.647157 
L 152.32909 226.716849 
L 152.402138 226.856195 
L 152.452866 226.76694 
L 152.574613 226.029545 
L 152.751146 223.136989 
L 153.053485 214.007587 
L 154.149208 180.393883 
L 154.187761 180.324937 
L 154.240518 180.468481 
L 154.392702 181.790203 
L 155.121154 191.060464 
L 155.871927 200.614898 
L 156.143829 201.255415 
L 156.214848 201.226299 
L 156.237168 201.185264 
L 156.356886 200.66624 
L 156.521245 198.719805 
L 156.728214 193.001458 
L 157.093455 175.487765 
L 157.825966 126.954595 
L 158.684282 73.998137 
L 158.935893 69.543184 
L 159.002854 69.359779 
L 159.05764 69.475012 
L 159.179387 70.38907 
L 159.404619 74.309135 
L 159.806384 86.002425 
L 160.362362 107.869235 
L 161.748248 170.424316 
L 161.983626 172.606393 
L 161.989713 172.604293 
L 162.050586 172.43219 
L 162.178421 171.251251 
L 162.393507 166.579978 
L 162.655263 155.083928 
L 163.730695 100.358711 
L 164.091877 94.355811 
L 164.317109 93.35126 
L 164.388128 93.396006 
L 164.402332 93.427803 
L 164.562632 94.148854 
L 164.88932 95.29819 
L 164.897436 95.295401 
L 164.992805 95.126078 
L 165.280939 94.625957 
L 165.700967 94.621672 
L 166.325934 93.383044 
L 166.514642 92.722472 
L 166.553195 92.770582 
L 166.648564 93.272302 
L 166.831184 95.737637 
L 167.18628 104.473163 
L 167.581957 111.888839 
L 167.69153 112.29031 
L 167.73617 112.203663 
L 167.843713 111.345288 
L 168.079091 107.285226 
L 168.606661 98.47803 
L 168.965815 95.418275 
L 168.99828 95.426445 
L 169.030746 95.500448 
L 169.13829 96.230971 
L 169.329026 99.430374 
L 170.071683 115.045094 
L 170.128498 114.892517 
L 170.248216 113.67792 
L 170.471419 108.612482 
L 171.414958 85.166748 
L 171.694976 82.235871 
L 172.035868 75.268509 
L 172.496477 68.353076 
L 172.691272 67.12912 
L 172.709534 67.14418 
L 172.780553 67.479412 
L 172.940853 69.568882 
L 173.172173 76.085197 
L 173.687568 89.907465 
L 174.198905 97.95776 
L 174.535739 102.81459 
L 174.872572 112.191585 
L 175.367676 125.425098 
L 175.452899 125.814714 
L 175.505656 125.668909 
L 175.625374 124.44036 
L 175.972353 117.487694 
L 176.313245 112.709566 
L 176.378176 112.562446 
L 176.430933 112.685258 
L 176.566884 113.804322 
L 177.275046 120.862156 
L 177.309541 120.847086 
L 177.410997 120.62351 
L 177.567238 119.561772 
L 178.500632 111.836665 
L 178.610204 111.820076 
L 178.634554 111.84151 
L 179.050522 112.418661 
L 179.206764 113.277076 
L 179.393443 115.959116 
L 180.123925 128.485363 
L 180.383652 129.812651 
L 180.468875 129.688298 
L 180.604826 128.882425 
L 180.96195 125.166204 
L 181.524015 118.487211 
L 181.58083 118.674203 
L 181.698519 120.180986 
L 181.90346 126.222355 
L 182.895698 159.188581 
L 183.21224 162.984011 
L 183.776334 167.610203 
L 184.017799 171.617318 
L 184.322167 181.556029 
L 185.369191 219.220531 
L 185.375278 219.218514 
L 185.426006 219.038174 
L 185.549782 217.496124 
L 185.937343 208.847396 
L 186.505496 198.601328 
L 186.623184 198.210748 
L 186.667825 198.266443 
L 186.903202 199.007297 
L 187.13858 199.485561 
L 187.146696 199.482454 
L 187.238007 199.309436 
L 187.635713 198.499943 
L 187.765577 198.439409 
L 187.800072 198.497778 
L 187.950226 199.096109 
L 188.116614 200.862733 
L 188.431127 206.913493 
L 188.834921 213.40313 
L 188.932319 213.708583 
L 188.981018 213.606096 
L 189.094648 212.678044 
L 189.261036 209.229899 
L 189.488297 199.133629 
L 189.969197 165.068489 
L 190.831572 107.751569 
L 191.11159 101.921128 
L 191.208987 101.544623 
L 191.255657 101.66068 
L 191.375375 102.772616 
L 191.584374 106.886913 
L 191.902945 117.8983 
L 192.477185 138.600177 
L 192.885037 143.55851 
L 192.99461 143.903337 
L 193.037221 143.817371 
L 193.134619 142.946137 
L 193.432899 137.384755 
L 193.814372 132.104649 
L 194.319622 125.971281 
L 194.453544 125.77025 
L 194.483981 125.792528 
L 194.573262 126.078696 
L 194.855309 128.209912 
L 195.563471 133.512443 
L 196.054517 134.850733 
L 196.222934 135.328935 
L 196.419758 136.606578 
L 196.703834 140.127602 
L 196.985881 146.430181 
L 197.31054 158.978594 
L 198.341331 204.646847 
L 198.493515 205.554902 
L 198.52801 205.506595 
L 198.629465 204.907157 
L 198.799911 202.339945 
L 199.747508 185.382089 
L 199.755625 185.384626 
L 199.810411 185.558221 
L 199.936216 186.926672 
L 200.159419 192.279542 
L 201.188181 219.356257 
L 201.23688 219.411577 
L 201.287608 219.315866 
L 201.411384 218.518175 
L 201.731984 214.528596 
L 201.991711 208.841586 
L 202.427971 192.665346 
L 203.442529 153.115795 
L 203.679936 151.28588 
L 203.742838 151.358072 
L 203.748926 151.373618 
L 203.901109 152.098773 
L 204.296787 155.330979 
L 204.797979 164.257829 
L 205.388452 173.828661 
L 205.406714 173.814971 
L 205.477733 173.507158 
L 205.627887 171.628639 
L 205.92008 164.596761 
L 206.342136 156.086545 
L 206.423301 155.806932 
L 206.474029 155.938989 
L 206.575485 157.052858 
L 206.772309 162.260663 
L 207.143637 179.7513 
L 207.598159 196.143124 
L 207.764547 197.771878 
L 207.792955 197.728432 
L 207.884265 197.074978 
L 208.077031 193.881939 
L 208.466621 183.23719 
L 209.057094 157.665699 
L 210.027012 113.191461 
L 210.089914 112.973249 
L 210.146729 113.131903 
L 210.262389 114.353183 
L 210.505883 120.120661 
L 210.783872 132.765345 
L 211.439276 176.596142 
L 211.950614 207.156856 
L 212.194108 211.610627 
L 212.216428 211.586275 
L 212.23469 211.515741 
L 212.342233 210.384082 
L 212.534999 205.531011 
L 213.407519 182.158135 
L 213.431869 182.13617 
L 213.47448 182.263896 
L 213.584052 183.491908 
L 213.786964 188.674877 
L 214.96791 223.832352 
L 215.207345 224.937195 
L 215.26619 224.850409 
L 215.268219 224.843069 
L 215.361558 224.066493 
L 215.534033 220.236543 
L 215.824197 208.551862 
L 216.290893 177.833108 
L 216.790056 150.357978 
L 217.023404 146.623284 
L 217.05587 146.583201 
L 217.104569 146.724356 
L 217.214141 147.947437 
L 217.433286 153.391187 
L 219.170209 214.698142 
L 219.636906 231.580327 
L 219.910837 235.260484 
L 219.989972 235.43781 
L 220.0407 235.344115 
L 220.166506 234.501526 
L 220.357242 231.627208 
L 220.600736 224.372963 
L 221.091783 200.081149 
L 221.485431 187.661916 
L 221.911546 183.120195 
L 222.952482 171.25486 
L 223.031618 171.354621 
L 223.145248 171.99962 
L 223.297432 174.457145 
L 223.524693 182.777551 
L 223.867614 204.217002 
L 225.028268 285.60955 
L 225.318432 291.400728 
L 225.421917 291.907617 
L 225.468586 291.767276 
L 225.5741 290.437886 
L 225.756721 284.96191 
L 226.180806 262.382905 
L 226.81592 232.350249 
L 227.315082 220.625477 
L 227.637712 216.195013 
L 227.660032 216.194324 
L 227.694527 216.290727 
L 227.820332 217.411772 
L 228.867356 228.74476 
L 228.893735 228.714351 
L 228.97287 228.253491 
L 229.161578 225.467072 
L 229.814953 214.088375 
L 229.841332 214.119293 
L 229.932642 214.600443 
L 230.080768 216.707693 
L 230.312087 224.054498 
L 231.081122 253.426354 
L 231.125763 253.309017 
L 231.227218 252.154656 
L 231.413897 246.879569 
L 232.341203 216.057071 
L 232.375698 216.036585 
L 232.422368 216.129973 
L 232.643541 216.763561 
L 232.700357 216.653348 
L 232.816016 215.774271 
L 233.05951 211.919016 
L 233.562731 199.168329 
L 233.895506 183.720332 
L 234.435251 160.159067 
L 234.715269 155.532132 
L 234.78223 155.38854 
L 234.834987 155.490646 
L 234.948618 156.353692 
L 235.636488 162.644916 
L 235.699391 162.587023 
L 235.711565 162.558111 
L 235.855633 161.872752 
L 236.088981 159.156272 
L 236.452193 152.775062 
L 237.365295 134.078243 
L 237.923302 129.548042 
L 238.008525 129.816132 
L 238.13433 131.490976 
L 238.734949 141.096911 
L 238.757269 141.0812 
L 238.852637 140.746807 
L 239.14483 139.56809 
L 239.203674 139.639976 
L 239.321363 140.151409 
L 239.530362 142.467202 
L 240.599706 156.561301 
L 241.013646 160.502479 
L 241.167859 160.611686 
L 241.184092 160.600361 
L 241.305839 160.337159 
L 241.458023 159.472574 
L 241.74007 156.107072 
L 242.10734 152.919681 
L 242.168213 152.845301 
L 242.216912 152.941097 
L 242.363008 153.83817 
L 242.766803 158.095769 
L 243.127985 161.386199 
L 243.182771 161.439643 
L 243.233499 161.354813 
L 243.41612 160.978658 
L 243.468877 161.031299 
L 243.738749 161.72268 
L 244.016738 162.657002 
L 244.584891 166.172668 
L 245.0455 170.378128 
L 245.063762 170.36286 
L 245.130723 170.027893 
L 245.266674 167.920114 
L 245.538575 159.540308 
L 246.737783 120.375896 
L 247.103024 113.737003 
L 247.234917 113.170125 
L 247.275499 113.218358 
L 247.401304 113.748717 
L 247.703642 116.15146 
L 247.902496 120.37799 
L 248.288028 134.667696 
L 249.33911 175.454492 
L 249.367518 175.447226 
L 249.397955 175.368396 
L 249.491294 174.541304 
L 249.667827 170.382866 
L 250.002631 156.54043 
L 250.481503 126.392208 
L 251.189664 84.130638 
L 251.473741 77.467223 
L 251.54476 77.197797 
L 251.599546 77.360866 
L 251.715205 78.694846 
L 251.960728 84.761871 
L 253.048335 113.281565 
L 253.222839 114.04337 
L 253.261392 113.992751 
L 253.35676 113.442673 
L 253.553585 110.67065 
L 253.971583 100.996328 
L 254.381464 92.819591 
L 254.592492 91.450695 
L 254.604667 91.457523 
L 254.669599 91.694893 
L 254.809608 93.307949 
L 255.120062 100.2468 
L 255.899243 123.199879 
L 256.785967 149.795579 
L 256.82452 149.713038 
L 256.921918 148.823192 
L 257.116713 144.419201 
L 259.279751 80.954927 
L 259.547594 77.911449 
L 259.642963 77.641472 
L 259.691661 77.725175 
L 259.801234 78.433923 
L 259.975738 81.350879 
L 260.213144 89.403793 
L 260.539832 108.646327 
L 261.649759 183.810785 
L 261.726865 184.298603 
L 261.781651 184.074373 
L 261.897311 182.251676 
L 262.134717 174.06093 
L 262.970713 143.342642 
L 263.350158 138.01027 
L 264.050203 133.040091 
L 264.060349 133.042887 
L 264.139484 133.1968 
L 264.259202 134.10834 
L 264.437764 137.53539 
L 264.764452 149.662519 
L 265.281877 166.444835 
L 265.312313 166.51536 
L 265.363041 166.301087 
L 265.490876 164.310703 
L 265.787127 155.929931 
L 266.217299 137.006208 
L 267.093878 99.659004 
L 267.323168 97.693367 
L 267.36375 97.664694 
L 267.408391 97.762932 
L 267.540283 98.728436 
L 267.743195 101.810517 
L 268.011038 109.381433 
L 269.232566 151.644816 
L 270.009718 165.829891 
L 270.155814 166.440906 
L 270.194367 166.383893 
L 270.299881 165.752831 
L 270.500764 162.986865 
L 270.87615 158.392499 
L 270.937024 158.317024 
L 270.987752 158.402471 
L 271.154139 159.247212 
L 271.576195 162.73407 
L 272.870772 178.844175 
L 273.412546 189.039614 
L 274.035484 202.225912 
L 274.120707 202.464317 
L 274.173464 202.36918 
L 274.283037 201.619402 
L 274.469715 198.320997 
L 274.887713 191.607675 
L 274.908004 191.597732 
L 274.946558 191.706119 
L 275.058159 192.867939 
L 275.346293 195.925371 
L 275.37673 195.871161 
L 275.459924 195.126581 
L 275.664865 190.653866 
L 277.154236 153.131628 
L 277.209022 153.214398 
L 277.334827 153.874282 
L 277.578321 156.750438 
L 278.034873 161.710582 
L 278.333153 163.534864 
L 278.771442 167.241837 
L 279.021023 167.44677 
L 279.201614 167.572938 
L 279.317274 168.103537 
L 279.467429 170.223835 
L 279.836728 179.597923 
L 280.339949 190.900447 
L 280.826937 195.278522 
L 280.88781 195.329307 
L 280.93448 195.251823 
L 281.064343 194.566936 
L 281.253051 192.392059 
L 281.496545 186.474137 
L 282.590239 156.619937 
L 282.657199 156.475976 
L 282.709956 156.579875 
L 282.827645 157.421386 
L 283.040702 160.84045 
L 283.994387 179.201208 
L 284.026853 179.212764 
L 284.071493 179.124412 
L 284.225706 178.266534 
L 284.590947 174.80107 
L 285.118517 168.198145 
L 285.794213 157.450874 
L 285.828708 157.438749 
L 285.86929 157.52667 
L 285.986979 158.378875 
L 286.289318 162.54578 
L 286.942693 170.571011 
L 287.1801 171.039408 
L 287.259235 170.944344 
L 287.380982 170.237653 
L 287.56969 167.719808 
L 288.41786 154.293887 
L 288.699908 151.622537 
L 289.243711 146.012097 
L 289.381691 145.652523 
L 289.422273 145.713836 
L 289.519671 146.347828 
L 289.677942 149.145627 
L 289.897086 157.785107 
L 290.221745 180.835383 
L 290.974547 235.512048 
L 291.071945 236.349612 
L 291.120643 236.141678 
L 291.230216 234.259049 
L 291.465593 225.383171 
L 291.999251 206.045658 
L 292.287385 202.230008 
L 292.39087 202.037339 
L 292.433482 202.072037 
L 292.571462 202.471866 
L 292.999605 204.399275 
L 293.3547 206.426404 
L 293.512971 206.541276 
L 293.683417 207.448642 
L 294.139968 211.344386 
L 294.426074 216.949191 
L 294.923207 233.06729 
L 295.619194 255.140165 
L 295.708475 255.489636 
L 295.761232 255.392246 
L 295.85863 254.665849 
L 296.025017 251.283095 
L 296.262424 240.665608 
L 296.727092 208.035248 
L 297.368292 164.508797 
L 297.646281 158.232908 
L 297.686864 158.136822 
L 297.737592 158.323461 
L 297.839047 159.890914 
L 298.033843 167.339089 
L 298.435608 193.652079 
L 299.527272 267.662961 
L 299.707863 269.903766 
L 299.726125 269.877303 
L 299.799174 269.345847 
L 299.965561 266.168578 
L 300.231375 255.915884 
L 301.274341 211.324894 
L 301.582767 206.62694 
L 301.613204 206.600194 
L 301.659873 206.716174 
L 301.775533 207.75969 
L 302.025114 212.319769 
L 302.938217 231.383027 
L 303.153303 232.336928 
L 303.376506 233.293382 
L 303.575359 233.999349 
L 303.607825 233.952129 
L 303.691019 233.378083 
L 303.851319 230.380026 
L 304.127279 219.795482 
L 304.742101 187.286415 
L 305.143866 170.907497 
L 305.358952 168.751162 
L 305.38736 168.764454 
L 305.415768 168.839713 
L 305.545631 169.723638 
L 305.722164 172.595732 
L 305.98392 181.378008 
L 307.099934 223.364935 
L 307.552427 232.946135 
L 307.905493 247.843949 
L 308.948459 295.488 
L 308.989041 295.385195 
L 309.094555 294.26699 
L 309.323845 288.831274 
L 309.737785 273.125462 
L 310.632625 238.016901 
L 311.259622 216.09591 
L 312.464917 167.007559 
L 312.475063 167.013995 
L 312.533907 167.278108 
L 312.673916 169.178001 
L 312.864653 175.323161 
L 313.166992 193.528774 
L 313.881241 236.79105 
L 314.106473 240.718404 
L 314.128793 240.735648 
L 314.171404 240.604854 
L 314.280977 239.36911 
L 314.463597 234.374958 
L 314.828838 216.59202 
L 315.482213 186.27331 
L 315.790639 180.066872 
L 315.877891 179.727553 
L 315.930648 179.851486 
L 316.050366 180.920674 
L 316.245161 184.942405 
L 316.575907 196.906012 
L 317.750765 244.859916 
L 318.01658 248.182425 
L 318.111948 248.391058 
L 318.158618 248.319173 
L 318.260074 247.679504 
L 318.40617 245.097518 
L 318.625314 236.410241 
L 319.016934 209.555853 
L 319.650018 170.034691 
L 320.009172 159.865768 
L 321.861755 132.00841 
L 322.277724 130.402546 
L 322.612528 126.999947 
L 323.046759 121.695387 
L 323.600708 110.055549 
L 323.927395 105.391521 
L 324.045084 105.174531 
L 324.081608 105.216252 
L 324.205384 105.747406 
L 324.477286 107.64911 
L 324.680197 110.263071 
L 325.017031 118.413344 
L 325.329515 123.225082 
L 325.696785 125.968781 
L 325.735338 125.889296 
L 325.853027 124.973551 
L 326.544955 118.778341 
L 326.561188 118.785264 
L 326.662644 119.002314 
L 326.778304 119.835178 
L 326.952808 123.311098 
L 327.752279 142.158233 
L 327.867939 142.629318 
L 327.914609 142.518957 
L 328.02621 141.481973 
L 328.190569 137.472795 
L 328.592334 120.589057 
L 328.969749 108.674418 
L 329.241651 105.933282 
L 329.343107 105.717353 
L 329.389776 105.782666 
L 329.525727 106.391654 
L 329.70226 108.387695 
L 330.039093 115.328381 
L 330.451004 121.579776 
L 330.773634 126.591149 
L 331.569047 139.24498 
L 331.633979 139.295628 
L 331.682678 139.229538 
L 331.928201 138.42818 
L 332.078355 136.918292 
L 332.325908 131.410676 
L 333.165962 110.294215 
L 333.334378 109.387264 
L 333.362786 109.42471 
L 333.44598 109.960349 
L 333.636717 112.99994 
L 334.06486 124.075954 
L 334.618809 144.724277 
L 335.564377 178.641507 
L 335.633367 178.902656 
L 335.688153 178.737232 
L 335.807871 177.377723 
L 335.996579 172.28183 
L 336.29283 157.142998 
L 336.727061 121.661119 
L 337.425077 66.508215 
L 337.755823 54.170955 
L 337.849162 53.568 
L 337.897861 53.721068 
L 338.003375 55.051601 
L 338.210345 61.185209 
L 338.871837 81.930366 
L 339.218816 85.817089 
L 339.267514 85.88996 
L 339.318242 85.76888 
L 339.454193 84.675059 
L 339.853929 81.06025 
L 339.89654 81.149719 
L 340.010171 82.110935 
L 340.200908 85.84253 
L 340.547887 98.274414 
L 341.339242 126.089213 
L 341.538095 127.213288 
L 341.544183 127.211599 
L 341.609114 127.053545 
L 341.75724 125.88434 
L 341.970297 122.323747 
L 342.372062 110.75604 
L 343.007176 95.670654 
L 343.244582 93.83461 
L 343.297339 93.931747 
L 343.423144 94.873458 
L 343.621998 98.212727 
L 343.979122 108.468405 
L 344.384946 126.810585 
L 345.342688 172.457301 
L 345.559804 175.017393 
L 345.59227 174.973254 
L 345.606474 174.917901 
L 345.720104 173.855049 
L 345.957511 169.339502 
L 346.830031 150.638224 
L 346.844234 150.650734 
L 346.909166 150.99098 
L 347.069466 153.33643 
L 347.357601 161.553499 
L 347.856763 174.722049 
L 348.073879 176.169653 
L 348.079966 176.167656 
L 348.146927 176.005119 
L 348.252441 175.047289 
L 348.43912 170.73343 
L 348.78407 156.5057 
L 349.492231 127.365066 
L 349.804715 122.731466 
L 350.102995 120.743678 
L 350.119228 120.755674 
L 350.18416 121.045731 
L 350.299819 122.830385 
L 350.516935 130.562729 
L 350.96537 156.019454 
L 351.405688 175.368835 
L 351.632949 178.32523 
L 351.65324 178.330102 
L 351.689764 178.230328 
L 351.803395 177.193906 
L 352.008335 172.880955 
L 352.651565 158.591095 
L 352.921438 158.385547 
L 352.937671 158.400934 
L 353.140582 158.787318 
L 353.635687 160.764663 
L 353.731055 160.46525 
L 353.9502 158.703282 
L 354.50009 151.411258 
L 354.942438 144.458036 
L 355.104767 144.043009 
L 355.149407 144.076962 
L 355.338115 144.442862 
L 355.553202 145.962097 
L 355.750026 149.37408 
L 356.074684 153.953464 
L 356.1315 154.049291 
L 356.186286 153.945724 
L 356.297887 153.120053 
L 356.602255 148.349026 
L 356.973583 143.939439 
L 357.192727 143.202065 
L 357.269834 143.212711 
L 357.294183 143.264563 
L 357.407814 143.930902 
L 357.596522 146.437977 
L 357.911035 154.971542 
L 359.434901 197.093879 
L 359.994937 204.534063 
L 360.981088 212.683534 
L 361.198203 213.169976 
L 361.43561 213.246571 
L 361.575619 213.924533 
L 361.884044 215.212798 
L 361.942889 215.198593 
L 361.973325 215.143091 
L 362.224936 214.281755 
L 362.369003 214.050647 
L 362.403498 214.079206 
L 362.523216 214.424117 
L 362.748448 215.842932 
L 362.959476 218.823263 
L 363.263843 223.555841 
L 363.304426 223.441037 
L 363.403852 222.220617 
L 363.604735 216.397302 
L 363.929393 200.362089 
L 364.803943 152.929368 
L 365.088019 147.915687 
L 365.148892 147.784512 
L 365.203679 147.902248 
L 365.345717 148.882145 
L 365.536454 151.955711 
L 365.881403 162.168471 
L 367.086698 199.887387 
L 367.165834 200.125741 
L 367.218591 200.015484 
L 367.322076 199.114177 
L 367.54122 194.605524 
L 368.541575 172.007651 
L 368.612594 171.798009 
L 368.66738 171.912361 
L 368.803331 172.856408 
L 369.95384 182.9191 
L 370.085732 182.956772 
L 370.108053 182.931293 
L 370.278498 182.494181 
L 370.453002 181.494194 
L 370.850709 177.316948 
L 371.682647 168.323452 
L 371.911937 167.134 
L 371.938315 167.162474 
L 372.021509 167.600951 
L 372.173693 169.825626 
L 372.443565 177.715758 
L 373.318114 206.713827 
L 373.600162 208.966305 
L 373.78684 209.27066 
L 373.794957 209.267471 
L 373.892354 209.09088 
L 374.190634 208.484397 
L 374.210926 208.496582 
L 374.312381 208.734024 
L 374.448332 209.738274 
L 374.641098 213.43156 
L 375.010397 225.452371 
L 376.177139 267.101451 
L 376.19946 267.104597 
L 376.238013 267.00792 
L 376.367876 266.012864 
L 376.568759 262.515359 
L 376.893417 252.040788 
L 377.325619 241.04909 
L 377.711151 236.340531 
L 378.307711 229.952224 
L 379.454162 209.270155 
L 379.594171 208.898268 
L 379.630695 208.939473 
L 379.742297 209.419113 
L 380.016227 211.845494 
L 380.594525 217.797175 
L 380.921213 220.205321 
L 381.369648 220.979143 
L 381.531977 221.283065 
L 381.730831 222.590113 
L 382.641904 230.67108 
L 382.936126 232.113726 
L 383.001057 231.954331 
L 383.163387 230.694184 
L 384.210411 220.338653 
L 384.547244 218.745552 
L 384.622321 218.760077 
L 384.6487 218.803725 
L 384.776534 219.338956 
L 385.020028 221.549317 
L 385.45223 225.420867 
L 385.462375 225.415758 
L 385.525278 225.19515 
L 385.663258 223.65969 
L 386.034586 216.357861 
L 386.907106 197.477704 
L 386.951747 197.558839 
L 387.067406 198.396614 
L 387.373803 202.869512 
L 388.542574 222.407224 
L 389.135076 235.537077 
L 389.916286 260.290503 
L 389.971072 260.075789 
L 390.080644 258.316804 
L 390.297759 250.416187 
L 390.829388 220.52489 
L 391.417832 188.687196 
L 391.616685 186.017559 
L 391.626831 186.023421 
L 391.685675 186.271898 
L 391.807422 187.947767 
L 392.014392 194.600804 
L 392.361371 214.236088 
L 392.892999 240.222621 
L 393.18925 245.794291 
L 393.272444 246.09096 
L 393.325201 245.963832 
L 393.477385 244.733137 
L 393.8548 239.391257 
L 394.459477 230.146806 
L 394.808485 218.811317 
L 395.30156 204.901769 
L 395.603899 200.730583 
L 395.658685 200.635304 
L 395.711442 200.750197 
L 395.859567 201.774487 
L 396.072624 204.763887 
L 397.075008 223.852986 
L 397.450394 229.463579 
L 397.486918 229.510005 
L 397.537646 229.3801 
L 397.655335 228.251564 
L 397.908975 223.13671 
L 398.487273 209.305231 
L 398.487273 209.305231 
" style="fill:none;stroke:#000000;stroke-linecap:square;stroke-width:1.5;"/>
   </g>
   <g id="line2d_30">
    <path clip-path="url(#p81f43f407d)" d="M 73.832727 167.681121 
L 76.005911 122.801629 
L 77.142216 103.843461 
L 78.061406 91.96915 
L 78.844644 84.51581 
L 79.524398 80.002667 
L 80.112842 77.453172 
L 80.614034 76.162715 
L 81.03609 75.61745 
L 81.393215 75.482386 
L 81.746281 75.59097 
L 82.182541 75.982096 
L 82.852149 76.924681 
L 84.185278 78.820941 
L 84.698645 79.167602 
L 85.094323 79.185362 
L 85.463622 78.974033 
L 85.871474 78.463103 
L 86.350346 77.476495 
L 86.928644 75.734495 
L 87.651009 72.792447 
L 88.667596 67.603931 
L 90.694684 57.125349 
L 91.370379 54.820818 
L 91.855338 53.852618 
L 92.202317 53.577793 
L 92.468131 53.626297 
L 92.744091 53.928944 
L 93.084982 54.674179 
L 93.507039 56.187479 
L 94.020405 58.931079 
L 94.637256 63.536734 
L 95.381942 70.909207 
L 96.30519 82.442141 
L 97.605854 101.794316 
L 100.215297 141.010695 
L 101.199418 152.247411 
L 101.980628 158.829258 
L 102.623858 162.535245 
L 103.14737 164.394739 
L 103.56131 165.152846 
L 103.873794 165.329815 
L 104.137579 165.230046 
L 104.446004 164.843816 
L 104.851828 163.934355 
L 105.395631 162.109343 
L 106.172782 158.630335 
L 108.646275 146.997398 
L 109.244864 145.402945 
L 109.69127 144.765082 
L 110.022016 144.627337 
L 110.304063 144.745488 
L 110.622634 145.145231 
L 111.020341 146.04201 
L 111.515446 147.762426 
L 112.134326 150.793611 
L 112.925681 155.885524 
L 114.084307 164.980437 
L 116.196617 181.611106 
L 117.044787 186.500626 
L 117.696134 189.084871 
L 118.207471 190.312403 
L 118.60112 190.760632 
L 118.907516 190.811966 
L 119.201738 190.62235 
L 119.556833 190.095355 
L 120.013385 188.974565 
L 120.611974 186.854139 
L 121.462174 182.928562 
L 123.623182 172.624189 
L 124.227859 170.897302 
L 124.660061 170.244422 
L 124.968486 170.122083 
L 125.228213 170.260097 
L 125.526493 170.705922 
L 125.897822 171.709641 
L 126.354373 173.650115 
L 126.906293 177.053611 
L 127.567784 182.631176 
L 128.373344 191.460053 
L 129.406164 205.441338 
L 131.240485 233.974942 
L 132.821166 257.015465 
L 133.815433 268.454937 
L 134.60476 275.175291 
L 135.252048 278.961946 
L 135.781647 280.887358 
L 136.199645 281.683079 
L 136.516187 281.881294 
L 136.779972 281.795063 
L 137.08434 281.429613 
L 137.482047 280.559383 
L 138.011646 278.803213 
L 138.742128 275.524349 
L 140.099607 268.16961 
L 141.386066 261.719738 
L 142.18148 258.787119 
L 142.808477 257.244052 
L 143.317785 256.518125 
L 143.739841 256.263283 
L 144.123344 256.28177 
L 144.543371 256.539501 
L 145.095291 257.171818 
L 146.298557 259.017852 
L 146.964107 259.78038 
L 147.388192 259.966873 
L 147.720967 259.880945 
L 148.053742 259.545997 
L 148.431158 258.815935 
L 148.869447 257.435458 
L 149.374697 255.046478 
L 149.955024 251.143186 
L 150.618545 245.059077 
L 151.381493 235.877846 
L 152.280392 222.192858 
L 153.398435 201.510398 
L 155.167824 163.972609 
L 157.182736 122.576563 
L 158.314983 103.724219 
L 159.232144 91.901657 
L 160.015383 84.467453 
L 160.695137 79.970071 
L 161.281551 77.439616 
L 161.784772 76.15153 
L 162.204799 75.614336 
L 162.563953 75.482369 
L 162.917019 75.594656 
L 163.359366 75.99624 
L 164.041149 76.96309 
L 165.349929 78.820941 
L 165.861267 79.16691 
L 166.254915 79.186417 
L 166.626244 78.975832 
L 167.034096 78.46639 
L 167.514996 77.476486 
L 168.093295 75.734478 
L 168.81566 72.79243 
L 169.832247 67.603914 
L 171.853247 57.150341 
L 172.533001 54.826164 
L 173.019989 53.852609 
L 173.368997 53.577291 
L 173.632782 53.626297 
L 173.908742 53.928952 
L 174.249633 54.674188 
L 174.67169 56.187496 
L 175.185056 58.931105 
L 175.801907 63.536768 
L 176.544564 70.886637 
L 177.467812 82.414381 
L 178.770504 101.794377 
L 181.379948 141.010747 
L 182.364069 152.247446 
L 183.145279 158.829284 
L 183.788509 162.535262 
L 184.312021 164.394747 
L 184.725961 165.152846 
L 185.036416 165.329711 
L 185.298171 165.233229 
L 185.604568 164.854093 
L 186.008362 163.956631 
L 186.548107 162.15668 
L 187.319171 158.720181 
L 189.829188 146.937439 
L 190.423719 145.375012 
L 190.864037 144.758214 
L 191.192754 144.62757 
L 191.476831 144.752158 
L 191.797431 145.162636 
L 192.197167 146.076388 
L 192.6943 147.821372 
L 193.31521 150.8853 
L 194.112653 156.045632 
L 195.283453 165.26733 
L 197.351122 181.543622 
L 198.201322 186.461603 
L 198.854697 189.065935 
L 199.370093 190.308977 
L 199.765771 190.760632 
L 200.070138 190.812467 
L 200.36436 190.624435 
L 200.717426 190.103141 
L 201.171948 188.992542 
L 201.768508 186.887116 
L 202.61465 182.989749 
L 204.800008 172.581307 
L 205.400626 170.880225 
L 205.82877 170.240875 
L 206.135167 170.122291 
L 206.392864 170.260097 
L 206.691144 170.70593 
L 207.062473 171.70965 
L 207.519024 173.650132 
L 208.070943 177.053636 
L 208.734464 182.650753 
L 209.537994 191.460096 
L 210.572844 205.471148 
L 212.413252 234.102255 
L 213.989876 257.068096 
L 214.982113 268.475093 
L 215.77144 275.18966 
L 216.420757 278.980709 
L 216.950356 280.898111 
L 217.368354 281.687777 
L 217.682867 281.881484 
L 217.946652 281.793549 
L 218.25102 281.426256 
L 218.648727 280.553872 
L 219.176297 278.803196 
L 219.906779 275.524331 
L 221.264257 268.169592 
L 222.546659 261.737195 
L 223.344102 258.793244 
L 223.973128 257.244044 
L 224.482436 256.518125 
L 224.904492 256.263283 
L 225.287995 256.28177 
L 225.708022 256.53951 
L 226.253854 257.163462 
L 227.396247 258.920419 
L 228.094263 259.753027 
L 228.528494 259.964485 
L 228.865327 259.8929 
L 229.194044 259.579804 
L 229.567401 258.884942 
L 229.999603 257.566439 
L 230.500795 255.260809 
L 231.077064 251.473939 
L 231.734497 245.565768 
L 232.491358 236.614024 
L 233.380111 223.277998 
L 234.477863 203.203365 
L 236.149854 167.945929 
L 238.335213 122.801491 
L 239.469489 103.873185 
L 240.388678 91.991582 
L 241.171917 84.531892 
L 241.851671 80.013515 
L 242.440115 77.459937 
L 242.943336 76.162698 
L 243.365392 75.617442 
L 243.722516 75.482386 
L 244.075583 75.59097 
L 244.515901 75.986802 
L 245.189567 76.937484 
L 246.524726 78.830829 
L 247.032005 79.168977 
L 247.427683 79.184281 
L 247.799011 78.968583 
L 248.206863 78.453189 
L 248.687764 77.456139 
L 249.268091 75.69875 
L 249.994515 72.727125 
L 251.013131 67.514959 
L 253.011811 57.175402 
L 253.691565 54.842306 
L 254.178553 53.860681 
L 254.52959 53.578312 
L 254.793375 53.623797 
L 255.069335 53.922585 
L 255.410226 54.662846 
L 255.832282 56.169788 
L 256.345649 58.905533 
L 256.960471 63.484509 
L 257.701098 70.796384 
L 258.620288 82.247802 
L 259.910806 101.412473 
L 262.562861 141.245554 
L 263.540895 152.366869 
L 264.320076 158.899961 
L 264.961276 162.571976 
L 265.482759 164.410379 
L 265.892641 165.15507 
L 266.203096 165.329815 
L 266.466881 165.230037 
L 266.775306 164.843799 
L 267.18113 163.934329 
L 267.724933 162.109317 
L 268.504113 158.6203 
L 270.96949 147.017502 
L 271.570108 145.410999 
L 272.016514 144.768577 
L 272.349289 144.627276 
L 272.633365 144.745497 
L 272.951936 145.145248 
L 273.347614 146.036343 
L 273.842718 147.754086 
L 274.45957 150.770825 
L 275.248896 155.842062 
L 276.399405 164.86251 
L 278.536064 181.67847 
L 279.382206 186.539546 
L 280.033552 189.11001 
L 280.54286 190.322645 
L 280.936509 190.76417 
L 281.240876 190.810919 
L 281.533069 190.620239 
L 281.888164 190.091428 
L 282.344715 188.968527 
L 282.943305 186.845843 
L 283.797563 182.897887 
L 285.942339 172.660107 
L 286.549044 170.914534 
L 286.983275 170.24982 
L 287.29373 170.121711 
L 287.553457 170.256187 
L 287.849708 170.693681 
L 288.219007 171.68227 
L 288.673529 173.598435 
L 289.22342 176.966143 
L 289.882882 182.494927 
L 290.684383 191.237513 
L 291.711116 205.084945 
L 293.486593 232.668162 
L 295.122061 256.646277 
L 296.120386 268.212526 
L 296.91377 275.031127 
L 297.567146 278.89588 
L 298.098774 280.85478 
L 298.52083 281.673512 
L 298.839402 281.880636 
L 299.103187 281.799527 
L 299.405525 281.442866 
L 299.799174 280.592117 
L 300.322686 278.873682 
L 301.045051 275.655805 
L 302.347744 268.616913 
L 303.684931 261.851324 
L 304.488461 258.855045 
L 305.121546 257.274944 
L 305.636941 256.528022 
L 306.061026 256.265368 
L 306.446559 256.279763 
L 306.866586 256.534216 
L 307.414447 257.157908 
L 308.560898 258.920427 
L 309.258914 259.753027 
L 309.693145 259.964485 
L 310.029978 259.8929 
L 310.358695 259.579796 
L 310.732052 258.884933 
L 311.164254 257.566422 
L 311.665446 255.260783 
L 312.239686 251.489484 
L 312.897119 245.586633 
L 313.65398 236.641014 
L 314.542733 223.311624 
L 315.640484 203.243392 
L 317.308418 168.078337 
L 319.499864 122.801413 
L 320.636169 103.843296 
L 321.555358 91.969029 
L 322.338597 84.515715 
L 323.018351 80.002606 
L 323.606795 77.453129 
L 324.110016 76.158961 
L 324.530043 75.617442 
L 324.887167 75.482386 
L 325.240234 75.590979 
L 325.676494 75.982114 
L 326.346102 76.924707 
L 327.689377 78.830837 
L 328.198685 79.169652 
L 328.594363 79.183727 
L 328.965691 78.966749 
L 329.375572 78.446545 
L 329.860531 77.43568 
L 330.446946 75.648446 
L 331.177428 72.642806 
L 332.212277 67.325611 
L 334.1582 57.251001 
L 334.844041 54.874867 
L 335.337116 53.868864 
L 335.688153 53.579938 
L 335.953967 53.621349 
L 336.229927 53.916287 
L 336.56879 54.645952 
L 336.988817 56.134545 
L 337.502183 58.854546 
L 338.117005 63.415026 
L 338.855604 70.683846 
L 339.774793 82.109252 
L 341.061253 101.189915 
L 343.735628 141.349649 
L 344.711633 152.426404 
L 345.488785 158.928145 
L 346.127956 162.581137 
L 346.649439 164.41557 
L 347.059321 165.157284 
L 347.369776 165.329893 
L 347.633561 165.228419 
L 347.941986 164.840338 
L 348.34781 163.928723 
L 348.891613 162.101375 
L 349.668764 158.620274 
L 352.140228 146.997363 
L 352.738817 145.402928 
L 353.183194 144.766821 
L 353.51394 144.627276 
L 353.798016 144.745497 
L 354.118616 145.148708 
L 354.516323 146.047745 
L 355.011427 147.77086 
L 355.630308 150.805099 
L 356.421663 155.900126 
L 357.584347 165.031131 
L 359.69057 181.611184 
L 360.53874 186.500687 
L 361.192116 189.091203 
L 361.703453 190.315846 
L 362.097101 190.761826 
L 362.403498 190.811447 
L 362.69772 190.620239 
L 363.052815 190.091419 
L 363.509366 188.968519 
L 364.107956 186.845826 
L 364.962214 182.897861 
L 367.113077 172.638497 
L 367.717754 170.905883 
L 368.149955 170.248003 
L 368.458381 170.121711 
L 368.718108 170.256187 
L 369.016388 170.697755 
L 369.385687 171.689113 
L 369.840209 173.608773 
L 370.3901 176.980719 
L 371.049562 182.5144 
L 371.851063 191.262254 
L 372.877796 205.114669 
L 374.657331 232.763994 
L 376.286712 256.646329 
L 377.285037 268.21256 
L 378.078421 275.031153 
L 378.729768 278.88639 
L 379.263425 280.854788 
L 379.683452 281.671089 
L 380.002023 281.880394 
L 380.265809 281.80098 
L 380.566118 281.449423 
L 380.959766 280.602948 
L 381.483278 278.889245 
L 382.203615 275.686022 
L 383.50022 268.684164 
L 384.845524 261.868955 
L 385.651083 258.861256 
L 386.284167 257.278837 
L 386.797534 256.532036 
L 387.221619 256.266458 
L 387.605122 256.277808 
L 388.02312 256.527226 
L 388.566923 257.141307 
L 389.611918 258.749774 
L 390.374866 259.711676 
L 390.82533 259.959589 
L 391.166221 259.908108 
L 391.494938 259.617305 
L 391.862208 258.96555 
L 392.290352 257.708156 
L 392.785456 255.502174 
L 393.353609 251.873568 
L 394.004955 246.165212 
L 394.753699 237.497827 
L 395.630277 224.581103 
L 396.705709 205.196911 
L 398.282332 172.227405 
L 398.487273 167.769116 
L 398.487273 167.769116 
" style="fill:none;stroke:#d3d3d3;stroke-linecap:square;stroke-width:1.5;"/>
   </g>
   <g id="patch_3">
    <path d="M 57.6 307.584 
L 57.6 41.472 
" style="fill:none;stroke:#000000;stroke-linecap:square;stroke-linejoin:miter;stroke-width:0.8;"/>
   </g>
   <g id="patch_4">
    <path d="M 414.72 307.584 
L 414.72 41.472 
" style="fill:none;stroke:#000000;stroke-linecap:square;stroke-linejoin:miter;stroke-width:0.8;"/>
   </g>
   <g id="patch_5">
    <path d="M 57.6 307.584 
L 414.72 307.584 
" style="fill:none;stroke:#000000;stroke-linecap:square;stroke-linejoin:miter;stroke-width:0.8;"/>
   </g>
   <g id="patch_6">
    <path d="M 57.6 41.472 
L 414.72 41.472 
" style="fill:none;stroke:#000000;stroke-linecap:square;stroke-linejoin:miter;stroke-width:0.8;"/>
   </g>
   <g id="legend_1">
    <g id="patch_7">
     <path d="M 64.6 302.584 
L 135.892188 302.584 
Q 137.892188 302.584 137.892188 300.584 
L 137.892188 272.22775 
Q 137.892188 270.22775 135.892188 270.22775 
L 64.6 270.22775 
Q 62.6 270.22775 62.6 272.22775 
L 62.6 300.584 
Q 62.6 302.584 64.6 302.584 
z
" style="fill:#ffffff;opacity:0.8;stroke:#cccccc;stroke-linejoin:miter;"/>
    </g>
    <g id="line2d_31">
     <path d="M 66.6 278.326187 
L 86.6 278.326187 
" style="fill:none;stroke:#000000;stroke-linecap:square;stroke-width:1.5;"/>
    </g>
    <g id="line2d_32"/>
    <g id="text_17">
     <!-- RC -->
     <defs>
      <path d="M 44.390625 34.1875 
Q 47.5625 33.109375 50.5625 29.59375 
Q 53.5625 26.078125 56.59375 19.921875 
L 66.609375 0 
L 56 0 
L 46.6875 18.703125 
Q 43.0625 26.03125 39.671875 28.421875 
Q 36.28125 30.8125 30.421875 30.8125 
L 19.671875 30.8125 
L 19.671875 0 
L 9.8125 0 
L 9.8125 72.90625 
L 32.078125 72.90625 
Q 44.578125 72.90625 50.734375 67.671875 
Q 56.890625 62.453125 56.890625 51.90625 
Q 56.890625 45.015625 53.6875 40.46875 
Q 50.484375 35.9375 44.390625 34.1875 
z
M 19.671875 64.796875 
L 19.671875 38.921875 
L 32.078125 38.921875 
Q 39.203125 38.921875 42.84375 42.21875 
Q 46.484375 45.515625 46.484375 51.90625 
Q 46.484375 58.296875 42.84375 61.546875 
Q 39.203125 64.796875 32.078125 64.796875 
z
" id="DejaVuSans-82"/>
     </defs>
     <g transform="translate(94.6 281.826187)scale(0.1 -0.1)">
      <use xlink:href="#DejaVuSans-82"/>
      <use x="69.404297" xlink:href="#DejaVuSans-67"/>
     </g>
    </g>
    <g id="line2d_33">
     <path d="M 66.6 293.004312 
L 86.6 293.004312 
" style="fill:none;stroke:#d3d3d3;stroke-linecap:square;stroke-width:1.5;"/>
    </g>
    <g id="line2d_34"/>
    <g id="text_18">
     <!-- Entrada -->
     <defs>
      <path d="M 9.8125 72.90625 
L 55.90625 72.90625 
L 55.90625 64.59375 
L 19.671875 64.59375 
L 19.671875 43.015625 
L 54.390625 43.015625 
L 54.390625 34.71875 
L 19.671875 34.71875 
L 19.671875 8.296875 
L 56.78125 8.296875 
L 56.78125 0 
L 9.8125 0 
z
" id="DejaVuSans-69"/>
      <path d="M 18.3125 70.21875 
L 18.3125 54.6875 
L 36.8125 54.6875 
L 36.8125 47.703125 
L 18.3125 47.703125 
L 18.3125 18.015625 
Q 18.3125 11.328125 20.140625 9.421875 
Q 21.96875 7.515625 27.59375 7.515625 
L 36.8125 7.515625 
L 36.8125 0 
L 27.59375 0 
Q 17.1875 0 13.234375 3.875 
Q 9.28125 7.765625 9.28125 18.015625 
L 9.28125 47.703125 
L 2.6875 47.703125 
L 2.6875 54.6875 
L 9.28125 54.6875 
L 9.28125 70.21875 
z
" id="DejaVuSans-116"/>
     </defs>
     <g transform="translate(94.6 296.504312)scale(0.1 -0.1)">
      <use xlink:href="#DejaVuSans-69"/>
      <use x="63.183594" xlink:href="#DejaVuSans-110"/>
      <use x="126.5625" xlink:href="#DejaVuSans-116"/>
      <use x="165.771484" xlink:href="#DejaVuSans-114"/>
      <use x="206.884766" xlink:href="#DejaVuSans-97"/>
      <use x="268.164062" xlink:href="#DejaVuSans-100"/>
      <use x="331.640625" xlink:href="#DejaVuSans-97"/>
     </g>
    </g>
   </g>
  </g>
 </g>
 <defs>
  <clipPath id="p81f43f407d">
   <rect height="266.112" width="357.12" x="57.6" y="41.472"/>
  </clipPath>
 </defs>
</svg>
