<?xml version="1.0" encoding="utf-8" standalone="no"?>
<!DOCTYPE svg PUBLIC "-//W3C//DTD SVG 1.1//EN"
  "http://www.w3.org/Graphics/SVG/1.1/DTD/svg11.dtd">
<!-- Created with matplotlib (https://matplotlib.org/) -->
<svg height="345.6pt" version="1.1" viewBox="0 0 460.8 345.6" width="460.8pt" xmlns="http://www.w3.org/2000/svg" xmlns:xlink="http://www.w3.org/1999/xlink">
 <defs>
  <style type="text/css">
*{stroke-linecap:butt;stroke-linejoin:round;}
  </style>
 </defs>
 <g id="figure_1">
  <g id="patch_1">
   <path d="M 0 345.6 
L 460.8 345.6 
L 460.8 0 
L 0 0 
z
" style="fill:#ffffff;"/>
  </g>
  <g id="axes_1">
   <g id="patch_2">
    <path d="M 57.6 307.584 
L 414.72 307.584 
L 414.72 41.472 
L 57.6 41.472 
z
" style="fill:#ffffff;"/>
   </g>
   <g id="matplotlib.axis_1">
    <g id="xtick_1">
     <g id="line2d_1">
      <path clip-path="url(#pb08d0b4aa5)" d="M 73.830698 307.584 
L 73.830698 41.472 
" style="fill:none;stroke:#b0b0b0;stroke-linecap:square;stroke-width:0.8;"/>
     </g>
     <g id="line2d_2">
      <defs>
       <path d="M 0 0 
L 0 3.5 
" id="mc90983a800" style="stroke:#000000;stroke-width:0.8;"/>
      </defs>
      <g>
       <use style="stroke:#000000;stroke-width:0.8;" x="73.830698" xlink:href="#mc90983a800" y="307.584"/>
      </g>
     </g>
     <g id="text_1">
      <!-- 2000 -->
      <defs>
       <path d="M 19.1875 8.296875 
L 53.609375 8.296875 
L 53.609375 0 
L 7.328125 0 
L 7.328125 8.296875 
Q 12.9375 14.109375 22.625 23.890625 
Q 32.328125 33.6875 34.8125 36.53125 
Q 39.546875 41.84375 41.421875 45.53125 
Q 43.3125 49.21875 43.3125 52.78125 
Q 43.3125 58.59375 39.234375 62.25 
Q 35.15625 65.921875 28.609375 65.921875 
Q 23.96875 65.921875 18.8125 64.3125 
Q 13.671875 62.703125 7.8125 59.421875 
L 7.8125 69.390625 
Q 13.765625 71.78125 18.9375 73 
Q 24.125 74.21875 28.421875 74.21875 
Q 39.75 74.21875 46.484375 68.546875 
Q 53.21875 62.890625 53.21875 53.421875 
Q 53.21875 48.921875 51.53125 44.890625 
Q 49.859375 40.875 45.40625 35.40625 
Q 44.1875 33.984375 37.640625 27.21875 
Q 31.109375 20.453125 19.1875 8.296875 
z
" id="DejaVuSans-50"/>
       <path d="M 31.78125 66.40625 
Q 24.171875 66.40625 20.328125 58.90625 
Q 16.5 51.421875 16.5 36.375 
Q 16.5 21.390625 20.328125 13.890625 
Q 24.171875 6.390625 31.78125 6.390625 
Q 39.453125 6.390625 43.28125 13.890625 
Q 47.125 21.390625 47.125 36.375 
Q 47.125 51.421875 43.28125 58.90625 
Q 39.453125 66.40625 31.78125 66.40625 
z
M 31.78125 74.21875 
Q 44.046875 74.21875 50.515625 64.515625 
Q 56.984375 54.828125 56.984375 36.375 
Q 56.984375 17.96875 50.515625 8.265625 
Q 44.046875 -1.421875 31.78125 -1.421875 
Q 19.53125 -1.421875 13.0625 8.265625 
Q 6.59375 17.96875 6.59375 36.375 
Q 6.59375 54.828125 13.0625 64.515625 
Q 19.53125 74.21875 31.78125 74.21875 
z
" id="DejaVuSans-48"/>
      </defs>
      <g transform="translate(61.105698 322.182437)scale(0.1 -0.1)">
       <use xlink:href="#DejaVuSans-50"/>
       <use x="63.623047" xlink:href="#DejaVuSans-48"/>
       <use x="127.246094" xlink:href="#DejaVuSans-48"/>
       <use x="190.869141" xlink:href="#DejaVuSans-48"/>
      </g>
     </g>
    </g>
    <g id="xtick_2">
     <g id="line2d_3">
      <path clip-path="url(#pb08d0b4aa5)" d="M 114.413024 307.584 
L 114.413024 41.472 
" style="fill:none;stroke:#b0b0b0;stroke-linecap:square;stroke-width:0.8;"/>
     </g>
     <g id="line2d_4">
      <g>
       <use style="stroke:#000000;stroke-width:0.8;" x="114.413024" xlink:href="#mc90983a800" y="307.584"/>
      </g>
     </g>
     <g id="text_2">
      <!-- 3000 -->
      <defs>
       <path d="M 40.578125 39.3125 
Q 47.65625 37.796875 51.625 33 
Q 55.609375 28.21875 55.609375 21.1875 
Q 55.609375 10.40625 48.1875 4.484375 
Q 40.765625 -1.421875 27.09375 -1.421875 
Q 22.515625 -1.421875 17.65625 -0.515625 
Q 12.796875 0.390625 7.625 2.203125 
L 7.625 11.71875 
Q 11.71875 9.328125 16.59375 8.109375 
Q 21.484375 6.890625 26.8125 6.890625 
Q 36.078125 6.890625 40.9375 10.546875 
Q 45.796875 14.203125 45.796875 21.1875 
Q 45.796875 27.640625 41.28125 31.265625 
Q 36.765625 34.90625 28.71875 34.90625 
L 20.21875 34.90625 
L 20.21875 43.015625 
L 29.109375 43.015625 
Q 36.375 43.015625 40.234375 45.921875 
Q 44.09375 48.828125 44.09375 54.296875 
Q 44.09375 59.90625 40.109375 62.90625 
Q 36.140625 65.921875 28.71875 65.921875 
Q 24.65625 65.921875 20.015625 65.03125 
Q 15.375 64.15625 9.8125 62.3125 
L 9.8125 71.09375 
Q 15.4375 72.65625 20.34375 73.4375 
Q 25.25 74.21875 29.59375 74.21875 
Q 40.828125 74.21875 47.359375 69.109375 
Q 53.90625 64.015625 53.90625 55.328125 
Q 53.90625 49.265625 50.4375 45.09375 
Q 46.96875 40.921875 40.578125 39.3125 
z
" id="DejaVuSans-51"/>
      </defs>
      <g transform="translate(101.688024 322.182437)scale(0.1 -0.1)">
       <use xlink:href="#DejaVuSans-51"/>
       <use x="63.623047" xlink:href="#DejaVuSans-48"/>
       <use x="127.246094" xlink:href="#DejaVuSans-48"/>
       <use x="190.869141" xlink:href="#DejaVuSans-48"/>
      </g>
     </g>
    </g>
    <g id="xtick_3">
     <g id="line2d_5">
      <path clip-path="url(#pb08d0b4aa5)" d="M 154.995349 307.584 
L 154.995349 41.472 
" style="fill:none;stroke:#b0b0b0;stroke-linecap:square;stroke-width:0.8;"/>
     </g>
     <g id="line2d_6">
      <g>
       <use style="stroke:#000000;stroke-width:0.8;" x="154.995349" xlink:href="#mc90983a800" y="307.584"/>
      </g>
     </g>
     <g id="text_3">
      <!-- 4000 -->
      <defs>
       <path d="M 37.796875 64.3125 
L 12.890625 25.390625 
L 37.796875 25.390625 
z
M 35.203125 72.90625 
L 47.609375 72.90625 
L 47.609375 25.390625 
L 58.015625 25.390625 
L 58.015625 17.1875 
L 47.609375 17.1875 
L 47.609375 0 
L 37.796875 0 
L 37.796875 17.1875 
L 4.890625 17.1875 
L 4.890625 26.703125 
z
" id="DejaVuSans-52"/>
      </defs>
      <g transform="translate(142.270349 322.182437)scale(0.1 -0.1)">
       <use xlink:href="#DejaVuSans-52"/>
       <use x="63.623047" xlink:href="#DejaVuSans-48"/>
       <use x="127.246094" xlink:href="#DejaVuSans-48"/>
       <use x="190.869141" xlink:href="#DejaVuSans-48"/>
      </g>
     </g>
    </g>
    <g id="xtick_4">
     <g id="line2d_7">
      <path clip-path="url(#pb08d0b4aa5)" d="M 195.577675 307.584 
L 195.577675 41.472 
" style="fill:none;stroke:#b0b0b0;stroke-linecap:square;stroke-width:0.8;"/>
     </g>
     <g id="line2d_8">
      <g>
       <use style="stroke:#000000;stroke-width:0.8;" x="195.577675" xlink:href="#mc90983a800" y="307.584"/>
      </g>
     </g>
     <g id="text_4">
      <!-- 5000 -->
      <defs>
       <path d="M 10.796875 72.90625 
L 49.515625 72.90625 
L 49.515625 64.59375 
L 19.828125 64.59375 
L 19.828125 46.734375 
Q 21.96875 47.46875 24.109375 47.828125 
Q 26.265625 48.1875 28.421875 48.1875 
Q 40.625 48.1875 47.75 41.5 
Q 54.890625 34.8125 54.890625 23.390625 
Q 54.890625 11.625 47.5625 5.09375 
Q 40.234375 -1.421875 26.90625 -1.421875 
Q 22.3125 -1.421875 17.546875 -0.640625 
Q 12.796875 0.140625 7.71875 1.703125 
L 7.71875 11.625 
Q 12.109375 9.234375 16.796875 8.0625 
Q 21.484375 6.890625 26.703125 6.890625 
Q 35.15625 6.890625 40.078125 11.328125 
Q 45.015625 15.765625 45.015625 23.390625 
Q 45.015625 31 40.078125 35.4375 
Q 35.15625 39.890625 26.703125 39.890625 
Q 22.75 39.890625 18.8125 39.015625 
Q 14.890625 38.140625 10.796875 36.28125 
z
" id="DejaVuSans-53"/>
      </defs>
      <g transform="translate(182.852675 322.182437)scale(0.1 -0.1)">
       <use xlink:href="#DejaVuSans-53"/>
       <use x="63.623047" xlink:href="#DejaVuSans-48"/>
       <use x="127.246094" xlink:href="#DejaVuSans-48"/>
       <use x="190.869141" xlink:href="#DejaVuSans-48"/>
      </g>
     </g>
    </g>
    <g id="xtick_5">
     <g id="line2d_9">
      <path clip-path="url(#pb08d0b4aa5)" d="M 236.16 307.584 
L 236.16 41.472 
" style="fill:none;stroke:#b0b0b0;stroke-linecap:square;stroke-width:0.8;"/>
     </g>
     <g id="line2d_10">
      <g>
       <use style="stroke:#000000;stroke-width:0.8;" x="236.16" xlink:href="#mc90983a800" y="307.584"/>
      </g>
     </g>
     <g id="text_5">
      <!-- 6000 -->
      <defs>
       <path d="M 33.015625 40.375 
Q 26.375 40.375 22.484375 35.828125 
Q 18.609375 31.296875 18.609375 23.390625 
Q 18.609375 15.53125 22.484375 10.953125 
Q 26.375 6.390625 33.015625 6.390625 
Q 39.65625 6.390625 43.53125 10.953125 
Q 47.40625 15.53125 47.40625 23.390625 
Q 47.40625 31.296875 43.53125 35.828125 
Q 39.65625 40.375 33.015625 40.375 
z
M 52.59375 71.296875 
L 52.59375 62.3125 
Q 48.875 64.0625 45.09375 64.984375 
Q 41.3125 65.921875 37.59375 65.921875 
Q 27.828125 65.921875 22.671875 59.328125 
Q 17.53125 52.734375 16.796875 39.40625 
Q 19.671875 43.65625 24.015625 45.921875 
Q 28.375 48.1875 33.59375 48.1875 
Q 44.578125 48.1875 50.953125 41.515625 
Q 57.328125 34.859375 57.328125 23.390625 
Q 57.328125 12.15625 50.6875 5.359375 
Q 44.046875 -1.421875 33.015625 -1.421875 
Q 20.359375 -1.421875 13.671875 8.265625 
Q 6.984375 17.96875 6.984375 36.375 
Q 6.984375 53.65625 15.1875 63.9375 
Q 23.390625 74.21875 37.203125 74.21875 
Q 40.921875 74.21875 44.703125 73.484375 
Q 48.484375 72.75 52.59375 71.296875 
z
" id="DejaVuSans-54"/>
      </defs>
      <g transform="translate(223.435 322.182437)scale(0.1 -0.1)">
       <use xlink:href="#DejaVuSans-54"/>
       <use x="63.623047" xlink:href="#DejaVuSans-48"/>
       <use x="127.246094" xlink:href="#DejaVuSans-48"/>
       <use x="190.869141" xlink:href="#DejaVuSans-48"/>
      </g>
     </g>
    </g>
    <g id="xtick_6">
     <g id="line2d_11">
      <path clip-path="url(#pb08d0b4aa5)" d="M 276.742325 307.584 
L 276.742325 41.472 
" style="fill:none;stroke:#b0b0b0;stroke-linecap:square;stroke-width:0.8;"/>
     </g>
     <g id="line2d_12">
      <g>
       <use style="stroke:#000000;stroke-width:0.8;" x="276.742325" xlink:href="#mc90983a800" y="307.584"/>
      </g>
     </g>
     <g id="text_6">
      <!-- 7000 -->
      <defs>
       <path d="M 8.203125 72.90625 
L 55.078125 72.90625 
L 55.078125 68.703125 
L 28.609375 0 
L 18.3125 0 
L 43.21875 64.59375 
L 8.203125 64.59375 
z
" id="DejaVuSans-55"/>
      </defs>
      <g transform="translate(264.017325 322.182437)scale(0.1 -0.1)">
       <use xlink:href="#DejaVuSans-55"/>
       <use x="63.623047" xlink:href="#DejaVuSans-48"/>
       <use x="127.246094" xlink:href="#DejaVuSans-48"/>
       <use x="190.869141" xlink:href="#DejaVuSans-48"/>
      </g>
     </g>
    </g>
    <g id="xtick_7">
     <g id="line2d_13">
      <path clip-path="url(#pb08d0b4aa5)" d="M 317.324651 307.584 
L 317.324651 41.472 
" style="fill:none;stroke:#b0b0b0;stroke-linecap:square;stroke-width:0.8;"/>
     </g>
     <g id="line2d_14">
      <g>
       <use style="stroke:#000000;stroke-width:0.8;" x="317.324651" xlink:href="#mc90983a800" y="307.584"/>
      </g>
     </g>
     <g id="text_7">
      <!-- 8000 -->
      <defs>
       <path d="M 31.78125 34.625 
Q 24.75 34.625 20.71875 30.859375 
Q 16.703125 27.09375 16.703125 20.515625 
Q 16.703125 13.921875 20.71875 10.15625 
Q 24.75 6.390625 31.78125 6.390625 
Q 38.8125 6.390625 42.859375 10.171875 
Q 46.921875 13.96875 46.921875 20.515625 
Q 46.921875 27.09375 42.890625 30.859375 
Q 38.875 34.625 31.78125 34.625 
z
M 21.921875 38.8125 
Q 15.578125 40.375 12.03125 44.71875 
Q 8.5 49.078125 8.5 55.328125 
Q 8.5 64.0625 14.71875 69.140625 
Q 20.953125 74.21875 31.78125 74.21875 
Q 42.671875 74.21875 48.875 69.140625 
Q 55.078125 64.0625 55.078125 55.328125 
Q 55.078125 49.078125 51.53125 44.71875 
Q 48 40.375 41.703125 38.8125 
Q 48.828125 37.15625 52.796875 32.3125 
Q 56.78125 27.484375 56.78125 20.515625 
Q 56.78125 9.90625 50.3125 4.234375 
Q 43.84375 -1.421875 31.78125 -1.421875 
Q 19.734375 -1.421875 13.25 4.234375 
Q 6.78125 9.90625 6.78125 20.515625 
Q 6.78125 27.484375 10.78125 32.3125 
Q 14.796875 37.15625 21.921875 38.8125 
z
M 18.3125 54.390625 
Q 18.3125 48.734375 21.84375 45.5625 
Q 25.390625 42.390625 31.78125 42.390625 
Q 38.140625 42.390625 41.71875 45.5625 
Q 45.3125 48.734375 45.3125 54.390625 
Q 45.3125 60.0625 41.71875 63.234375 
Q 38.140625 66.40625 31.78125 66.40625 
Q 25.390625 66.40625 21.84375 63.234375 
Q 18.3125 60.0625 18.3125 54.390625 
z
" id="DejaVuSans-56"/>
      </defs>
      <g transform="translate(304.599651 322.182437)scale(0.1 -0.1)">
       <use xlink:href="#DejaVuSans-56"/>
       <use x="63.623047" xlink:href="#DejaVuSans-48"/>
       <use x="127.246094" xlink:href="#DejaVuSans-48"/>
       <use x="190.869141" xlink:href="#DejaVuSans-48"/>
      </g>
     </g>
    </g>
    <g id="xtick_8">
     <g id="line2d_15">
      <path clip-path="url(#pb08d0b4aa5)" d="M 357.906976 307.584 
L 357.906976 41.472 
" style="fill:none;stroke:#b0b0b0;stroke-linecap:square;stroke-width:0.8;"/>
     </g>
     <g id="line2d_16">
      <g>
       <use style="stroke:#000000;stroke-width:0.8;" x="357.906976" xlink:href="#mc90983a800" y="307.584"/>
      </g>
     </g>
     <g id="text_8">
      <!-- 9000 -->
      <defs>
       <path d="M 10.984375 1.515625 
L 10.984375 10.5 
Q 14.703125 8.734375 18.5 7.8125 
Q 22.3125 6.890625 25.984375 6.890625 
Q 35.75 6.890625 40.890625 13.453125 
Q 46.046875 20.015625 46.78125 33.40625 
Q 43.953125 29.203125 39.59375 26.953125 
Q 35.25 24.703125 29.984375 24.703125 
Q 19.046875 24.703125 12.671875 31.3125 
Q 6.296875 37.9375 6.296875 49.421875 
Q 6.296875 60.640625 12.9375 67.421875 
Q 19.578125 74.21875 30.609375 74.21875 
Q 43.265625 74.21875 49.921875 64.515625 
Q 56.59375 54.828125 56.59375 36.375 
Q 56.59375 19.140625 48.40625 8.859375 
Q 40.234375 -1.421875 26.421875 -1.421875 
Q 22.703125 -1.421875 18.890625 -0.6875 
Q 15.09375 0.046875 10.984375 1.515625 
z
M 30.609375 32.421875 
Q 37.25 32.421875 41.125 36.953125 
Q 45.015625 41.5 45.015625 49.421875 
Q 45.015625 57.28125 41.125 61.84375 
Q 37.25 66.40625 30.609375 66.40625 
Q 23.96875 66.40625 20.09375 61.84375 
Q 16.21875 57.28125 16.21875 49.421875 
Q 16.21875 41.5 20.09375 36.953125 
Q 23.96875 32.421875 30.609375 32.421875 
z
" id="DejaVuSans-57"/>
      </defs>
      <g transform="translate(345.181976 322.182437)scale(0.1 -0.1)">
       <use xlink:href="#DejaVuSans-57"/>
       <use x="63.623047" xlink:href="#DejaVuSans-48"/>
       <use x="127.246094" xlink:href="#DejaVuSans-48"/>
       <use x="190.869141" xlink:href="#DejaVuSans-48"/>
      </g>
     </g>
    </g>
    <g id="xtick_9">
     <g id="line2d_17">
      <path clip-path="url(#pb08d0b4aa5)" d="M 398.489302 307.584 
L 398.489302 41.472 
" style="fill:none;stroke:#b0b0b0;stroke-linecap:square;stroke-width:0.8;"/>
     </g>
     <g id="line2d_18">
      <g>
       <use style="stroke:#000000;stroke-width:0.8;" x="398.489302" xlink:href="#mc90983a800" y="307.584"/>
      </g>
     </g>
     <g id="text_9">
      <!-- 10000 -->
      <defs>
       <path d="M 12.40625 8.296875 
L 28.515625 8.296875 
L 28.515625 63.921875 
L 10.984375 60.40625 
L 10.984375 69.390625 
L 28.421875 72.90625 
L 38.28125 72.90625 
L 38.28125 8.296875 
L 54.390625 8.296875 
L 54.390625 0 
L 12.40625 0 
z
" id="DejaVuSans-49"/>
      </defs>
      <g transform="translate(382.583052 322.182437)scale(0.1 -0.1)">
       <use xlink:href="#DejaVuSans-49"/>
       <use x="63.623047" xlink:href="#DejaVuSans-48"/>
       <use x="127.246094" xlink:href="#DejaVuSans-48"/>
       <use x="190.869141" xlink:href="#DejaVuSans-48"/>
       <use x="254.492188" xlink:href="#DejaVuSans-48"/>
      </g>
     </g>
    </g>
    <g id="text_10">
     <!-- Tempo (ms) -->
     <defs>
      <path d="M -0.296875 72.90625 
L 61.375 72.90625 
L 61.375 64.59375 
L 35.5 64.59375 
L 35.5 0 
L 25.59375 0 
L 25.59375 64.59375 
L -0.296875 64.59375 
z
" id="DejaVuSans-84"/>
      <path d="M 56.203125 29.59375 
L 56.203125 25.203125 
L 14.890625 25.203125 
Q 15.484375 15.921875 20.484375 11.0625 
Q 25.484375 6.203125 34.421875 6.203125 
Q 39.59375 6.203125 44.453125 7.46875 
Q 49.3125 8.734375 54.109375 11.28125 
L 54.109375 2.78125 
Q 49.265625 0.734375 44.1875 -0.34375 
Q 39.109375 -1.421875 33.890625 -1.421875 
Q 20.796875 -1.421875 13.15625 6.1875 
Q 5.515625 13.8125 5.515625 26.8125 
Q 5.515625 40.234375 12.765625 48.109375 
Q 20.015625 56 32.328125 56 
Q 43.359375 56 49.78125 48.890625 
Q 56.203125 41.796875 56.203125 29.59375 
z
M 47.21875 32.234375 
Q 47.125 39.59375 43.09375 43.984375 
Q 39.0625 48.390625 32.421875 48.390625 
Q 24.90625 48.390625 20.390625 44.140625 
Q 15.875 39.890625 15.1875 32.171875 
z
" id="DejaVuSans-101"/>
      <path d="M 52 44.1875 
Q 55.375 50.25 60.0625 53.125 
Q 64.75 56 71.09375 56 
Q 79.640625 56 84.28125 50.015625 
Q 88.921875 44.046875 88.921875 33.015625 
L 88.921875 0 
L 79.890625 0 
L 79.890625 32.71875 
Q 79.890625 40.578125 77.09375 44.375 
Q 74.3125 48.1875 68.609375 48.1875 
Q 61.625 48.1875 57.5625 43.546875 
Q 53.515625 38.921875 53.515625 30.90625 
L 53.515625 0 
L 44.484375 0 
L 44.484375 32.71875 
Q 44.484375 40.625 41.703125 44.40625 
Q 38.921875 48.1875 33.109375 48.1875 
Q 26.21875 48.1875 22.15625 43.53125 
Q 18.109375 38.875 18.109375 30.90625 
L 18.109375 0 
L 9.078125 0 
L 9.078125 54.6875 
L 18.109375 54.6875 
L 18.109375 46.1875 
Q 21.1875 51.21875 25.484375 53.609375 
Q 29.78125 56 35.6875 56 
Q 41.65625 56 45.828125 52.96875 
Q 50 49.953125 52 44.1875 
z
" id="DejaVuSans-109"/>
      <path d="M 18.109375 8.203125 
L 18.109375 -20.796875 
L 9.078125 -20.796875 
L 9.078125 54.6875 
L 18.109375 54.6875 
L 18.109375 46.390625 
Q 20.953125 51.265625 25.265625 53.625 
Q 29.59375 56 35.59375 56 
Q 45.5625 56 51.78125 48.09375 
Q 58.015625 40.1875 58.015625 27.296875 
Q 58.015625 14.40625 51.78125 6.484375 
Q 45.5625 -1.421875 35.59375 -1.421875 
Q 29.59375 -1.421875 25.265625 0.953125 
Q 20.953125 3.328125 18.109375 8.203125 
z
M 48.6875 27.296875 
Q 48.6875 37.203125 44.609375 42.84375 
Q 40.53125 48.484375 33.40625 48.484375 
Q 26.265625 48.484375 22.1875 42.84375 
Q 18.109375 37.203125 18.109375 27.296875 
Q 18.109375 17.390625 22.1875 11.75 
Q 26.265625 6.109375 33.40625 6.109375 
Q 40.53125 6.109375 44.609375 11.75 
Q 48.6875 17.390625 48.6875 27.296875 
z
" id="DejaVuSans-112"/>
      <path d="M 30.609375 48.390625 
Q 23.390625 48.390625 19.1875 42.75 
Q 14.984375 37.109375 14.984375 27.296875 
Q 14.984375 17.484375 19.15625 11.84375 
Q 23.34375 6.203125 30.609375 6.203125 
Q 37.796875 6.203125 41.984375 11.859375 
Q 46.1875 17.53125 46.1875 27.296875 
Q 46.1875 37.015625 41.984375 42.703125 
Q 37.796875 48.390625 30.609375 48.390625 
z
M 30.609375 56 
Q 42.328125 56 49.015625 48.375 
Q 55.71875 40.765625 55.71875 27.296875 
Q 55.71875 13.875 49.015625 6.21875 
Q 42.328125 -1.421875 30.609375 -1.421875 
Q 18.84375 -1.421875 12.171875 6.21875 
Q 5.515625 13.875 5.515625 27.296875 
Q 5.515625 40.765625 12.171875 48.375 
Q 18.84375 56 30.609375 56 
z
" id="DejaVuSans-111"/>
      <path id="DejaVuSans-32"/>
      <path d="M 31 75.875 
Q 24.46875 64.65625 21.28125 53.65625 
Q 18.109375 42.671875 18.109375 31.390625 
Q 18.109375 20.125 21.3125 9.0625 
Q 24.515625 -2 31 -13.1875 
L 23.1875 -13.1875 
Q 15.875 -1.703125 12.234375 9.375 
Q 8.59375 20.453125 8.59375 31.390625 
Q 8.59375 42.28125 12.203125 53.3125 
Q 15.828125 64.359375 23.1875 75.875 
z
" id="DejaVuSans-40"/>
      <path d="M 44.28125 53.078125 
L 44.28125 44.578125 
Q 40.484375 46.53125 36.375 47.5 
Q 32.28125 48.484375 27.875 48.484375 
Q 21.1875 48.484375 17.84375 46.4375 
Q 14.5 44.390625 14.5 40.28125 
Q 14.5 37.15625 16.890625 35.375 
Q 19.28125 33.59375 26.515625 31.984375 
L 29.59375 31.296875 
Q 39.15625 29.25 43.1875 25.515625 
Q 47.21875 21.78125 47.21875 15.09375 
Q 47.21875 7.46875 41.1875 3.015625 
Q 35.15625 -1.421875 24.609375 -1.421875 
Q 20.21875 -1.421875 15.453125 -0.5625 
Q 10.6875 0.296875 5.421875 2 
L 5.421875 11.28125 
Q 10.40625 8.6875 15.234375 7.390625 
Q 20.0625 6.109375 24.8125 6.109375 
Q 31.15625 6.109375 34.5625 8.28125 
Q 37.984375 10.453125 37.984375 14.40625 
Q 37.984375 18.0625 35.515625 20.015625 
Q 33.0625 21.96875 24.703125 23.78125 
L 21.578125 24.515625 
Q 13.234375 26.265625 9.515625 29.90625 
Q 5.8125 33.546875 5.8125 39.890625 
Q 5.8125 47.609375 11.28125 51.796875 
Q 16.75 56 26.8125 56 
Q 31.78125 56 36.171875 55.265625 
Q 40.578125 54.546875 44.28125 53.078125 
z
" id="DejaVuSans-115"/>
      <path d="M 8.015625 75.875 
L 15.828125 75.875 
Q 23.140625 64.359375 26.78125 53.3125 
Q 30.421875 42.28125 30.421875 31.390625 
Q 30.421875 20.453125 26.78125 9.375 
Q 23.140625 -1.703125 15.828125 -13.1875 
L 8.015625 -13.1875 
Q 14.5 -2 17.703125 9.0625 
Q 20.90625 20.125 20.90625 31.390625 
Q 20.90625 42.671875 17.703125 53.65625 
Q 14.5 64.65625 8.015625 75.875 
z
" id="DejaVuSans-41"/>
     </defs>
     <g transform="translate(205.973281 335.860562)scale(0.1 -0.1)">
      <use xlink:href="#DejaVuSans-84"/>
      <use x="60.818359" xlink:href="#DejaVuSans-101"/>
      <use x="122.341797" xlink:href="#DejaVuSans-109"/>
      <use x="219.753906" xlink:href="#DejaVuSans-112"/>
      <use x="283.230469" xlink:href="#DejaVuSans-111"/>
      <use x="344.412109" xlink:href="#DejaVuSans-32"/>
      <use x="376.199219" xlink:href="#DejaVuSans-40"/>
      <use x="415.212891" xlink:href="#DejaVuSans-109"/>
      <use x="512.625" xlink:href="#DejaVuSans-115"/>
      <use x="564.724609" xlink:href="#DejaVuSans-41"/>
     </g>
    </g>
   </g>
   <g id="matplotlib.axis_2">
    <g id="ytick_1">
     <g id="line2d_19">
      <path clip-path="url(#pb08d0b4aa5)" d="M 57.6 295.488 
L 414.72 295.488 
" style="fill:none;stroke:#b0b0b0;stroke-linecap:square;stroke-width:0.8;"/>
     </g>
     <g id="line2d_20">
      <defs>
       <path d="M 0 0 
L -3.5 0 
" id="meec29c8938" style="stroke:#000000;stroke-width:0.8;"/>
      </defs>
      <g>
       <use style="stroke:#000000;stroke-width:0.8;" x="57.6" xlink:href="#meec29c8938" y="295.488"/>
      </g>
     </g>
     <g id="text_11">
      <!-- −1.00 -->
      <defs>
       <path d="M 10.59375 35.5 
L 73.1875 35.5 
L 73.1875 27.203125 
L 10.59375 27.203125 
z
" id="DejaVuSans-8722"/>
       <path d="M 10.6875 12.40625 
L 21 12.40625 
L 21 0 
L 10.6875 0 
z
" id="DejaVuSans-46"/>
      </defs>
      <g transform="translate(19.954687 299.287219)scale(0.1 -0.1)">
       <use xlink:href="#DejaVuSans-8722"/>
       <use x="83.789062" xlink:href="#DejaVuSans-49"/>
       <use x="147.412109" xlink:href="#DejaVuSans-46"/>
       <use x="179.199219" xlink:href="#DejaVuSans-48"/>
       <use x="242.822266" xlink:href="#DejaVuSans-48"/>
      </g>
     </g>
    </g>
    <g id="ytick_2">
     <g id="line2d_21">
      <path clip-path="url(#pb08d0b4aa5)" d="M 57.6 265.248 
L 414.72 265.248 
" style="fill:none;stroke:#b0b0b0;stroke-linecap:square;stroke-width:0.8;"/>
     </g>
     <g id="line2d_22">
      <g>
       <use style="stroke:#000000;stroke-width:0.8;" x="57.6" xlink:href="#meec29c8938" y="265.248"/>
      </g>
     </g>
     <g id="text_12">
      <!-- −0.75 -->
      <g transform="translate(19.954687 269.047219)scale(0.1 -0.1)">
       <use xlink:href="#DejaVuSans-8722"/>
       <use x="83.789062" xlink:href="#DejaVuSans-48"/>
       <use x="147.412109" xlink:href="#DejaVuSans-46"/>
       <use x="179.199219" xlink:href="#DejaVuSans-55"/>
       <use x="242.822266" xlink:href="#DejaVuSans-53"/>
      </g>
     </g>
    </g>
    <g id="ytick_3">
     <g id="line2d_23">
      <path clip-path="url(#pb08d0b4aa5)" d="M 57.6 235.008 
L 414.72 235.008 
" style="fill:none;stroke:#b0b0b0;stroke-linecap:square;stroke-width:0.8;"/>
     </g>
     <g id="line2d_24">
      <g>
       <use style="stroke:#000000;stroke-width:0.8;" x="57.6" xlink:href="#meec29c8938" y="235.008"/>
      </g>
     </g>
     <g id="text_13">
      <!-- −0.50 -->
      <g transform="translate(19.954687 238.807219)scale(0.1 -0.1)">
       <use xlink:href="#DejaVuSans-8722"/>
       <use x="83.789062" xlink:href="#DejaVuSans-48"/>
       <use x="147.412109" xlink:href="#DejaVuSans-46"/>
       <use x="179.199219" xlink:href="#DejaVuSans-53"/>
       <use x="242.822266" xlink:href="#DejaVuSans-48"/>
      </g>
     </g>
    </g>
    <g id="ytick_4">
     <g id="line2d_25">
      <path clip-path="url(#pb08d0b4aa5)" d="M 57.6 204.768 
L 414.72 204.768 
" style="fill:none;stroke:#b0b0b0;stroke-linecap:square;stroke-width:0.8;"/>
     </g>
     <g id="line2d_26">
      <g>
       <use style="stroke:#000000;stroke-width:0.8;" x="57.6" xlink:href="#meec29c8938" y="204.768"/>
      </g>
     </g>
     <g id="text_14">
      <!-- −0.25 -->
      <g transform="translate(19.954687 208.567219)scale(0.1 -0.1)">
       <use xlink:href="#DejaVuSans-8722"/>
       <use x="83.789062" xlink:href="#DejaVuSans-48"/>
       <use x="147.412109" xlink:href="#DejaVuSans-46"/>
       <use x="179.199219" xlink:href="#DejaVuSans-50"/>
       <use x="242.822266" xlink:href="#DejaVuSans-53"/>
      </g>
     </g>
    </g>
    <g id="ytick_5">
     <g id="line2d_27">
      <path clip-path="url(#pb08d0b4aa5)" d="M 57.6 174.528 
L 414.72 174.528 
" style="fill:none;stroke:#b0b0b0;stroke-linecap:square;stroke-width:0.8;"/>
     </g>
     <g id="line2d_28">
      <g>
       <use style="stroke:#000000;stroke-width:0.8;" x="57.6" xlink:href="#meec29c8938" y="174.528"/>
      </g>
     </g>
     <g id="text_15">
      <!-- 0.00 -->
      <g transform="translate(28.334375 178.327219)scale(0.1 -0.1)">
       <use xlink:href="#DejaVuSans-48"/>
       <use x="63.623047" xlink:href="#DejaVuSans-46"/>
       <use x="95.410156" xlink:href="#DejaVuSans-48"/>
       <use x="159.033203" xlink:href="#DejaVuSans-48"/>
      </g>
     </g>
    </g>
    <g id="ytick_6">
     <g id="line2d_29">
      <path clip-path="url(#pb08d0b4aa5)" d="M 57.6 144.288 
L 414.72 144.288 
" style="fill:none;stroke:#b0b0b0;stroke-linecap:square;stroke-width:0.8;"/>
     </g>
     <g id="line2d_30">
      <g>
       <use style="stroke:#000000;stroke-width:0.8;" x="57.6" xlink:href="#meec29c8938" y="144.288"/>
      </g>
     </g>
     <g id="text_16">
      <!-- 0.25 -->
      <g transform="translate(28.334375 148.087219)scale(0.1 -0.1)">
       <use xlink:href="#DejaVuSans-48"/>
       <use x="63.623047" xlink:href="#DejaVuSans-46"/>
       <use x="95.410156" xlink:href="#DejaVuSans-50"/>
       <use x="159.033203" xlink:href="#DejaVuSans-53"/>
      </g>
     </g>
    </g>
    <g id="ytick_7">
     <g id="line2d_31">
      <path clip-path="url(#pb08d0b4aa5)" d="M 57.6 114.048 
L 414.72 114.048 
" style="fill:none;stroke:#b0b0b0;stroke-linecap:square;stroke-width:0.8;"/>
     </g>
     <g id="line2d_32">
      <g>
       <use style="stroke:#000000;stroke-width:0.8;" x="57.6" xlink:href="#meec29c8938" y="114.048"/>
      </g>
     </g>
     <g id="text_17">
      <!-- 0.50 -->
      <g transform="translate(28.334375 117.847219)scale(0.1 -0.1)">
       <use xlink:href="#DejaVuSans-48"/>
       <use x="63.623047" xlink:href="#DejaVuSans-46"/>
       <use x="95.410156" xlink:href="#DejaVuSans-53"/>
       <use x="159.033203" xlink:href="#DejaVuSans-48"/>
      </g>
     </g>
    </g>
    <g id="ytick_8">
     <g id="line2d_33">
      <path clip-path="url(#pb08d0b4aa5)" d="M 57.6 83.808 
L 414.72 83.808 
" style="fill:none;stroke:#b0b0b0;stroke-linecap:square;stroke-width:0.8;"/>
     </g>
     <g id="line2d_34">
      <g>
       <use style="stroke:#000000;stroke-width:0.8;" x="57.6" xlink:href="#meec29c8938" y="83.808"/>
      </g>
     </g>
     <g id="text_18">
      <!-- 0.75 -->
      <g transform="translate(28.334375 87.607219)scale(0.1 -0.1)">
       <use xlink:href="#DejaVuSans-48"/>
       <use x="63.623047" xlink:href="#DejaVuSans-46"/>
       <use x="95.410156" xlink:href="#DejaVuSans-55"/>
       <use x="159.033203" xlink:href="#DejaVuSans-53"/>
      </g>
     </g>
    </g>
    <g id="ytick_9">
     <g id="line2d_35">
      <path clip-path="url(#pb08d0b4aa5)" d="M 57.6 53.568 
L 414.72 53.568 
" style="fill:none;stroke:#b0b0b0;stroke-linecap:square;stroke-width:0.8;"/>
     </g>
     <g id="line2d_36">
      <g>
       <use style="stroke:#000000;stroke-width:0.8;" x="57.6" xlink:href="#meec29c8938" y="53.568"/>
      </g>
     </g>
     <g id="text_19">
      <!-- 1.00 -->
      <g transform="translate(28.334375 57.367219)scale(0.1 -0.1)">
       <use xlink:href="#DejaVuSans-49"/>
       <use x="63.623047" xlink:href="#DejaVuSans-46"/>
       <use x="95.410156" xlink:href="#DejaVuSans-48"/>
       <use x="159.033203" xlink:href="#DejaVuSans-48"/>
      </g>
     </g>
    </g>
    <g id="text_20">
     <!-- CST normalizado -->
     <defs>
      <path d="M 64.40625 67.28125 
L 64.40625 56.890625 
Q 59.421875 61.53125 53.78125 63.8125 
Q 48.140625 66.109375 41.796875 66.109375 
Q 29.296875 66.109375 22.65625 58.46875 
Q 16.015625 50.828125 16.015625 36.375 
Q 16.015625 21.96875 22.65625 14.328125 
Q 29.296875 6.6875 41.796875 6.6875 
Q 48.140625 6.6875 53.78125 8.984375 
Q 59.421875 11.28125 64.40625 15.921875 
L 64.40625 5.609375 
Q 59.234375 2.09375 53.4375 0.328125 
Q 47.65625 -1.421875 41.21875 -1.421875 
Q 24.65625 -1.421875 15.125 8.703125 
Q 5.609375 18.84375 5.609375 36.375 
Q 5.609375 53.953125 15.125 64.078125 
Q 24.65625 74.21875 41.21875 74.21875 
Q 47.75 74.21875 53.53125 72.484375 
Q 59.328125 70.75 64.40625 67.28125 
z
" id="DejaVuSans-67"/>
      <path d="M 53.515625 70.515625 
L 53.515625 60.890625 
Q 47.90625 63.578125 42.921875 64.890625 
Q 37.9375 66.21875 33.296875 66.21875 
Q 25.25 66.21875 20.875 63.09375 
Q 16.5 59.96875 16.5 54.203125 
Q 16.5 49.359375 19.40625 46.890625 
Q 22.3125 44.4375 30.421875 42.921875 
L 36.375 41.703125 
Q 47.40625 39.59375 52.65625 34.296875 
Q 57.90625 29 57.90625 20.125 
Q 57.90625 9.515625 50.796875 4.046875 
Q 43.703125 -1.421875 29.984375 -1.421875 
Q 24.8125 -1.421875 18.96875 -0.25 
Q 13.140625 0.921875 6.890625 3.21875 
L 6.890625 13.375 
Q 12.890625 10.015625 18.65625 8.296875 
Q 24.421875 6.59375 29.984375 6.59375 
Q 38.421875 6.59375 43.015625 9.90625 
Q 47.609375 13.234375 47.609375 19.390625 
Q 47.609375 24.75 44.3125 27.78125 
Q 41.015625 30.8125 33.5 32.328125 
L 27.484375 33.5 
Q 16.453125 35.6875 11.515625 40.375 
Q 6.59375 45.0625 6.59375 53.421875 
Q 6.59375 63.09375 13.40625 68.65625 
Q 20.21875 74.21875 32.171875 74.21875 
Q 37.3125 74.21875 42.625 73.28125 
Q 47.953125 72.359375 53.515625 70.515625 
z
" id="DejaVuSans-83"/>
      <path d="M 54.890625 33.015625 
L 54.890625 0 
L 45.90625 0 
L 45.90625 32.71875 
Q 45.90625 40.484375 42.875 44.328125 
Q 39.84375 48.1875 33.796875 48.1875 
Q 26.515625 48.1875 22.3125 43.546875 
Q 18.109375 38.921875 18.109375 30.90625 
L 18.109375 0 
L 9.078125 0 
L 9.078125 54.6875 
L 18.109375 54.6875 
L 18.109375 46.1875 
Q 21.34375 51.125 25.703125 53.5625 
Q 30.078125 56 35.796875 56 
Q 45.21875 56 50.046875 50.171875 
Q 54.890625 44.34375 54.890625 33.015625 
z
" id="DejaVuSans-110"/>
      <path d="M 41.109375 46.296875 
Q 39.59375 47.171875 37.8125 47.578125 
Q 36.03125 48 33.890625 48 
Q 26.265625 48 22.1875 43.046875 
Q 18.109375 38.09375 18.109375 28.8125 
L 18.109375 0 
L 9.078125 0 
L 9.078125 54.6875 
L 18.109375 54.6875 
L 18.109375 46.1875 
Q 20.953125 51.171875 25.484375 53.578125 
Q 30.03125 56 36.53125 56 
Q 37.453125 56 38.578125 55.875 
Q 39.703125 55.765625 41.0625 55.515625 
z
" id="DejaVuSans-114"/>
      <path d="M 34.28125 27.484375 
Q 23.390625 27.484375 19.1875 25 
Q 14.984375 22.515625 14.984375 16.5 
Q 14.984375 11.71875 18.140625 8.90625 
Q 21.296875 6.109375 26.703125 6.109375 
Q 34.1875 6.109375 38.703125 11.40625 
Q 43.21875 16.703125 43.21875 25.484375 
L 43.21875 27.484375 
z
M 52.203125 31.203125 
L 52.203125 0 
L 43.21875 0 
L 43.21875 8.296875 
Q 40.140625 3.328125 35.546875 0.953125 
Q 30.953125 -1.421875 24.3125 -1.421875 
Q 15.921875 -1.421875 10.953125 3.296875 
Q 6 8.015625 6 15.921875 
Q 6 25.140625 12.171875 29.828125 
Q 18.359375 34.515625 30.609375 34.515625 
L 43.21875 34.515625 
L 43.21875 35.40625 
Q 43.21875 41.609375 39.140625 45 
Q 35.0625 48.390625 27.6875 48.390625 
Q 23 48.390625 18.546875 47.265625 
Q 14.109375 46.140625 10.015625 43.890625 
L 10.015625 52.203125 
Q 14.9375 54.109375 19.578125 55.046875 
Q 24.21875 56 28.609375 56 
Q 40.484375 56 46.34375 49.84375 
Q 52.203125 43.703125 52.203125 31.203125 
z
" id="DejaVuSans-97"/>
      <path d="M 9.421875 75.984375 
L 18.40625 75.984375 
L 18.40625 0 
L 9.421875 0 
z
" id="DejaVuSans-108"/>
      <path d="M 9.421875 54.6875 
L 18.40625 54.6875 
L 18.40625 0 
L 9.421875 0 
z
M 9.421875 75.984375 
L 18.40625 75.984375 
L 18.40625 64.59375 
L 9.421875 64.59375 
z
" id="DejaVuSans-105"/>
      <path d="M 5.515625 54.6875 
L 48.1875 54.6875 
L 48.1875 46.484375 
L 14.40625 7.171875 
L 48.1875 7.171875 
L 48.1875 0 
L 4.296875 0 
L 4.296875 8.203125 
L 38.09375 47.515625 
L 5.515625 47.515625 
z
" id="DejaVuSans-122"/>
      <path d="M 45.40625 46.390625 
L 45.40625 75.984375 
L 54.390625 75.984375 
L 54.390625 0 
L 45.40625 0 
L 45.40625 8.203125 
Q 42.578125 3.328125 38.25 0.953125 
Q 33.9375 -1.421875 27.875 -1.421875 
Q 17.96875 -1.421875 11.734375 6.484375 
Q 5.515625 14.40625 5.515625 27.296875 
Q 5.515625 40.1875 11.734375 48.09375 
Q 17.96875 56 27.875 56 
Q 33.9375 56 38.25 53.625 
Q 42.578125 51.265625 45.40625 46.390625 
z
M 14.796875 27.296875 
Q 14.796875 17.390625 18.875 11.75 
Q 22.953125 6.109375 30.078125 6.109375 
Q 37.203125 6.109375 41.296875 11.75 
Q 45.40625 17.390625 45.40625 27.296875 
Q 45.40625 37.203125 41.296875 42.84375 
Q 37.203125 48.484375 30.078125 48.484375 
Q 22.953125 48.484375 18.875 42.84375 
Q 14.796875 37.203125 14.796875 27.296875 
z
" id="DejaVuSans-100"/>
     </defs>
     <g transform="translate(13.875 216.753781)rotate(-90)scale(0.1 -0.1)">
      <use xlink:href="#DejaVuSans-67"/>
      <use x="69.824219" xlink:href="#DejaVuSans-83"/>
      <use x="133.300781" xlink:href="#DejaVuSans-84"/>
      <use x="194.384766" xlink:href="#DejaVuSans-32"/>
      <use x="226.171875" xlink:href="#DejaVuSans-110"/>
      <use x="289.550781" xlink:href="#DejaVuSans-111"/>
      <use x="350.732422" xlink:href="#DejaVuSans-114"/>
      <use x="391.830078" xlink:href="#DejaVuSans-109"/>
      <use x="489.242188" xlink:href="#DejaVuSans-97"/>
      <use x="550.521484" xlink:href="#DejaVuSans-108"/>
      <use x="578.304688" xlink:href="#DejaVuSans-105"/>
      <use x="606.087891" xlink:href="#DejaVuSans-122"/>
      <use x="658.578125" xlink:href="#DejaVuSans-97"/>
      <use x="719.857422" xlink:href="#DejaVuSans-100"/>
      <use x="783.333984" xlink:href="#DejaVuSans-111"/>
     </g>
    </g>
   </g>
   <g id="line2d_37">
    <path clip-path="url(#pb08d0b4aa5)" d="M 73.832727 188.736508 
L 74.202026 173.482279 
L 74.402909 171.720346 
L 74.427258 171.699809 
L 74.46987 171.822337 
L 74.626112 173.172253 
L 74.90613 178.809861 
L 75.358623 185.043939 
L 75.391089 185.044219 
L 75.429642 184.960592 
L 75.545301 184.559082 
L 75.604146 184.750634 
L 75.705602 185.059929 
L 75.750242 184.934078 
L 75.865902 183.630282 
L 75.997794 182.459328 
L 76.044464 182.678608 
L 76.531452 187.957545 
L 76.762771 191.737513 
L 76.845965 192.114972 
L 76.969741 194.350894 
L 77.054964 195.272418 
L 77.107721 194.870738 
L 77.24773 191.051276 
L 77.647466 175.167642 
L 78.751305 99.650087 
L 79.144954 86.623742 
L 79.236264 86.737544 
L 79.29105 86.54378 
L 79.439176 85.505628 
L 79.502078 85.887986 
L 79.615709 88.572007 
L 80.149366 110.695763 
L 81.70164 199.872845 
L 82.012095 202.894817 
L 82.077027 203.174087 
L 82.127755 202.95689 
L 82.249502 200.864222 
L 82.68982 188.670279 
L 83.306671 155.069029 
L 83.919464 125.527882 
L 84.252239 117.009661 
L 84.449064 115.878692 
L 84.481529 115.956866 
L 84.578927 116.976456 
L 84.828508 122.594388 
L 85.143021 133.609525 
L 85.603631 148.66332 
L 85.792339 150.128502 
L 85.810601 150.115865 
L 85.88162 149.825495 
L 86.029745 148.142293 
L 86.279326 141.144798 
L 86.656742 123.195493 
L 87.253302 94.941059 
L 87.596223 89.054894 
L 87.622601 89.013747 
L 87.669271 89.187839 
L 87.817397 91.155765 
L 88.186696 97.273704 
L 88.415986 100.553757 
L 88.533675 102.564294 
L 88.70615 105.532798 
L 88.756877 105.246778 
L 88.941527 102.922678 
L 89.032837 103.42185 
L 89.081536 103.599139 
L 89.130235 103.348881 
L 89.245894 100.978948 
L 89.404166 98.307906 
L 89.450835 98.415851 
L 89.50968 98.565212 
L 89.55432 98.387097 
L 89.657805 96.653478 
L 89.818105 93.92438 
L 89.870862 94.190293 
L 90.035221 95.563681 
L 90.102182 95.31711 
L 90.183346 94.947565 
L 90.227987 95.201656 
L 90.353792 97.992563 
L 91.003109 113.198196 
L 91.660543 121.874212 
L 91.944619 122.894561 
L 92.013609 122.6847 
L 92.12521 121.101416 
L 92.666985 108.398102 
L 93.009905 96.738041 
L 93.448194 82.420455 
L 93.663281 79.138304 
L 93.87025 78.685267 
L 93.908804 78.78191 
L 93.996056 79.78237 
L 94.188822 85.469371 
L 94.62914 104.970866 
L 95.199322 129.318865 
L 95.428612 132.212254 
L 95.574708 132.477003 
L 95.791824 133.173794 
L 95.850668 133.049768 
L 95.96024 132.628785 
L 96.010968 132.852187 
L 96.528393 137.876679 
L 97.329894 149.107696 
L 97.59165 150.787679 
L 97.609912 150.77642 
L 97.703251 150.504089 
L 98.021822 148.354741 
L 98.589975 143.665527 
L 98.665052 143.762977 
L 98.760421 144.549774 
L 98.924779 148.532538 
L 99.356981 166.246404 
L 99.815561 186.224049 
L 100.077317 192.68689 
L 100.365452 195.664647 
L 100.448645 195.046657 
L 100.655615 190.18323 
L 100.955924 179.989131 
L 101.621475 153.624025 
L 101.99889 145.305173 
L 102.138899 143.605197 
L 102.185569 143.748384 
L 102.648207 146.871018 
L 102.952575 150.721142 
L 103.013448 151.097481 
L 103.133166 153.822472 
L 103.971191 183.220083 
L 104.429772 200.493558 
L 104.762547 208.715006 
L 104.894439 210.93792 
L 105.164312 214.673696 
L 105.172428 214.672778 
L 105.233302 214.769098 
L 105.326641 215.835883 
L 105.527523 218.097955 
L 105.574193 217.94438 
L 105.722319 217.125518 
L 105.813629 217.16004 
L 105.870444 216.956703 
L 105.996249 215.360828 
L 106.692236 204.786361 
L 106.79775 204.020105 
L 106.972254 202.259557 
L 107.033128 202.49322 
L 107.402427 205.674096 
L 107.635775 209.852706 
L 107.834629 211.293194 
L 107.938114 212.018368 
L 108.094356 213.473198 
L 108.1532 213.168649 
L 108.285092 210.730989 
L 109.190078 185.681122 
L 109.380815 182.088958 
L 109.401106 182.113228 
L 109.470096 182.249828 
L 109.514737 182.102609 
L 109.624309 180.638003 
L 109.739969 179.278781 
L 109.792726 179.622284 
L 109.999696 182.35657 
L 110.086948 181.891684 
L 110.155938 181.527244 
L 110.206666 181.812028 
L 110.419723 185.090364 
L 110.521179 184.164319 
L 110.74844 182.366092 
L 110.805255 182.050797 
L 110.910769 179.762185 
L 111.310505 170.500662 
L 111.673717 165.464306 
L 111.795464 164.707602 
L 112.359558 157.840092 
L 113.13468 147.442942 
L 113.146855 147.452252 
L 113.201641 147.755539 
L 113.372087 149.106248 
L 113.437019 148.952083 
L 113.50195 148.833737 
L 113.54862 148.964599 
L 113.654134 150.165661 
L 113.826609 151.878287 
L 113.86922 151.806557 
L 113.934152 151.690866 
L 113.978793 151.823138 
L 114.07619 153.1106 
L 114.299393 155.781409 
L 114.32983 155.765019 
L 114.366354 155.770902 
L 114.392732 155.84799 
L 114.471868 156.698554 
L 114.883779 166.154693 
L 115.08669 176.30821 
L 116.752595 263.897779 
L 116.957535 266.45018 
L 116.983914 266.395782 
L 117.081312 265.553944 
L 118.126306 251.140425 
L 118.617353 234.131345 
L 119.148981 213.453852 
L 119.414795 208.676275 
L 119.558862 208.06809 
L 119.599445 208.174483 
L 119.694813 209.266087 
L 119.865259 214.188357 
L 120.356305 237.69238 
L 120.78039 254.174318 
L 120.912283 255.932917 
L 120.954894 255.745764 
L 121.066496 253.874045 
L 121.301873 245.691196 
L 121.590008 224.517653 
L 122.52543 161.47564 
L 122.697905 160.522665 
L 122.770954 160.382264 
L 122.813565 160.512715 
L 122.904875 161.750407 
L 123.109816 168.439164 
L 123.78957 197.601483 
L 124.489615 227.91132 
L 124.779779 233.630599 
L 124.806157 233.574743 
L 124.93805 232.560581 
L 125.149078 229.281431 
L 125.341844 219.48879 
L 126.399013 166.467514 
L 126.648595 156.309147 
L 127.908676 105.63519 
L 128.048685 104.538509 
L 128.081151 104.593325 
L 128.17449 105.253684 
L 128.314499 108.348822 
L 128.553935 118.7182 
L 128.858302 141.306974 
L 129.814016 219.232381 
L 130.138675 229.082164 
L 130.319266 231.140987 
L 130.341586 231.123787 
L 130.441013 230.75936 
L 130.710886 229.332226 
L 131.554998 218.075567 
L 131.6179 218.138045 
L 131.71124 218.482946 
L 131.837045 220.391847 
L 132.137354 228.927138 
L 132.524915 248.244403 
L 133.45628 288.62703 
L 133.720065 290.848194 
L 133.756589 290.71086 
L 133.849928 289.15136 
L 134.343004 274.32192 
L 135.710628 216.814722 
L 135.858754 215.009562 
L 135.911511 215.41278 
L 136.059636 219.333242 
L 136.270664 221.862814 
L 136.370091 223.931529 
L 136.765768 233.529832 
L 136.934185 238.443276 
L 137.139126 241.382414 
L 137.228407 242.01533 
L 137.398853 245.775424 
L 137.622056 248.336594 
L 137.74989 250.414501 
L 138.723866 270.152325 
L 138.973447 271.779439 
L 139.056641 272.027859 
L 139.113456 271.956486 
L 139.239261 271.544685 
L 139.503046 269.228094 
L 140.223383 254.1938 
L 140.280198 254.422993 
L 140.604856 257.635697 
L 141.276494 270.904202 
L 141.33128 271.048579 
L 141.394183 270.945768 
L 141.42259 270.923582 
L 141.461144 271.051239 
L 141.657968 272.478025 
L 141.743191 272.142904 
L 141.881171 271.3538 
L 141.937986 271.616207 
L 142.118577 272.81553 
L 142.177422 272.667629 
L 142.286994 272.354228 
L 142.331634 272.499589 
L 142.469614 274.164819 
L 142.54875 274.655808 
L 142.601507 274.424317 
L 142.761807 273.076907 
L 142.834855 273.394737 
L 142.954573 274.071356 
L 143.005301 273.846314 
L 143.135164 271.65844 
L 143.331989 269.971994 
L 143.425328 269.493049 
L 143.55925 266.873976 
L 143.821006 263.119629 
L 143.954927 261.052538 
L 144.924845 235.900083 
L 145.273853 224.976037 
L 145.568075 218.640945 
L 145.637065 218.952178 
L 145.746637 219.38187 
L 145.793307 219.23927 
L 145.984044 217.561992 
L 146.063179 218.239111 
L 146.235654 220.19625 
L 146.288411 219.957148 
L 146.444653 218.634291 
L 146.507556 219.040938 
L 146.651623 220.430858 
L 146.708438 220.107415 
L 146.915408 217.167943 
L 147.012806 217.917755 
L 147.100058 218.502995 
L 147.150786 218.245287 
L 147.373988 215.412379 
L 147.495735 215.912653 
L 147.50791 215.914261 
L 147.536318 215.808242 
L 147.621541 214.480288 
L 147.87518 209.572442 
L 147.931995 209.704811 
L 147.994898 209.844542 
L 148.043597 209.697523 
L 148.201868 208.52963 
L 148.270858 209.015479 
L 148.753787 217.149312 
L 149.577609 251.779049 
L 149.944879 264.661639 
L 150.26345 270.650822 
L 150.336498 270.455778 
L 150.395342 270.349668 
L 150.442012 270.489339 
L 150.596225 271.219567 
L 150.65304 271.009127 
L 150.784933 269.109276 
L 150.88233 268.262122 
L 150.937117 268.419031 
L 151.109591 269.177892 
L 151.168436 269.032764 
L 151.261775 268.678491 
L 151.310474 268.90384 
L 151.45657 271.405179 
L 152.247926 284.484618 
L 152.532002 287.695478 
L 152.580701 287.585881 
L 152.704477 286.512316 
L 153.114358 280.305316 
L 154.867515 235.80155 
L 155.127242 232.557127 
L 155.206377 232.97147 
L 155.742064 239.119015 
L 156.066722 243.12852 
L 156.482691 247.65378 
L 156.651108 247.961955 
L 156.687632 247.868861 
L 156.778942 246.830773 
L 156.951417 242.026986 
L 157.261872 225.50156 
L 157.730598 182.297108 
L 158.420497 121.261892 
L 158.728923 111.605606 
L 158.832408 110.716841 
L 158.879078 110.979849 
L 159.096193 114.613582 
L 159.353891 121.775687 
L 159.95248 141.804442 
L 160.240615 145.231482 
L 160.264964 145.214205 
L 160.289313 145.135204 
L 160.38874 144.13934 
L 160.796593 136.917122 
L 161.159804 130.36871 
L 161.318075 128.779138 
L 161.360687 128.87679 
L 161.462143 129.184381 
L 161.518958 129.065772 
L 161.715782 128.222739 
L 161.786801 128.515107 
L 161.85782 128.794713 
L 161.908548 128.59636 
L 162.026237 126.803704 
L 162.815563 111.652073 
L 163.016446 109.477717 
L 163.073261 109.872495 
L 163.292406 111.965312 
L 163.335017 111.890785 
L 163.434444 111.573688 
L 163.483142 111.785132 
L 163.688083 113.614464 
L 163.777364 113.299579 
L 163.90317 112.675119 
L 163.964043 112.805388 
L 164.061441 113.053756 
L 164.110139 112.927377 
L 164.242032 111.723538 
L 164.869029 102.755107 
L 166.08447 80.921663 
L 166.279265 77.843815 
L 166.394924 77.036427 
L 166.441594 77.084662 
L 166.470002 77.082412 
L 166.500438 76.994091 
L 166.601894 75.9809 
L 166.782486 74.242117 
L 166.827126 74.414913 
L 166.965106 75.263862 
L 167.025979 75.058262 
L 167.172076 73.385604 
L 167.275561 72.602758 
L 167.332376 72.771686 
L 167.439919 72.999388 
L 167.492676 72.968364 
L 167.634714 72.882195 
L 167.665151 72.945074 
L 167.73617 73.595462 
L 167.985751 79.230766 
L 168.279973 89.970011 
L 169.558317 147.595465 
L 169.82616 150.800709 
L 169.862684 150.745119 
L 169.972256 150.091267 
L 170.570846 144.043185 
L 170.804194 139.955667 
L 171.483948 125.748682 
L 171.808607 122.806124 
L 171.928324 122.229245 
L 171.974994 122.439134 
L 172.409225 127.118607 
L 172.802873 131.774865 
L 173.056513 132.990923 
L 173.143765 132.612238 
L 173.383201 129.391092 
L 173.612491 124.440244 
L 174.618933 91.995372 
L 175.392026 62.252659 
L 175.448841 62.058184 
L 175.523918 62.098814 
L 175.586821 61.886748 
L 175.728859 61.176696 
L 175.779587 61.39824 
L 175.907421 63.538172 
L 176.408613 76.786591 
L 176.887485 104.136516 
L 178.109013 176.273766 
L 178.326128 181.306475 
L 178.431642 181.680623 
L 178.628466 184.762835 
L 178.717747 183.653192 
L 179.151978 170.754162 
L 180.580476 97.216743 
L 180.75498 95.378005 
L 180.775271 95.393791 
L 180.84832 95.694264 
L 180.96195 97.435901 
L 181.274434 107.239861 
L 182.203769 137.472171 
L 182.875407 149.162061 
L 183.865615 160.51364 
L 184.312021 175.182897 
L 185.008008 204.076862 
L 185.316434 208.59285 
L 185.369191 208.268961 
L 185.48485 205.395417 
L 185.862266 188.899551 
L 186.955959 118.943696 
L 187.209599 112.653617 
L 187.418598 109.873037 
L 187.463239 110.121296 
L 187.572811 112.610822 
L 188.037478 130.20473 
L 188.394603 143.450798 
L 188.690854 149.915074 
L 188.950581 151.236354 
L 189.015513 150.83876 
L 189.194075 147.351953 
L 189.717587 139.064411 
L 190.084857 136.205825 
L 190.17008 136.782402 
L 190.44401 138.572824 
L 190.547495 139.486747 
L 191.0426 148.707114 
L 191.955702 179.8015 
L 192.536029 200.597593 
L 192.769378 202.695177 
L 192.820106 202.421432 
L 192.933736 199.917535 
L 193.339559 182.958204 
L 194.080187 146.172984 
L 194.337884 143.148819 
L 194.400787 143.006102 
L 194.447457 143.151302 
L 194.552971 144.4755 
L 194.85328 151.928748 
L 195.159677 164.779992 
L 195.989585 202.029918 
L 196.247283 205.830219 
L 196.261487 205.830779 
L 196.291923 205.730094 
L 196.399467 204.463031 
L 196.691659 198.481442 
L 197.022405 184.013456 
L 197.982177 148.641614 
L 198.126245 147.311447 
L 198.521922 142.890856 
L 198.623378 141.763442 
L 198.858756 138.981934 
L 198.89528 139.02632 
L 198.966299 139.130367 
L 199.00891 139.010905 
L 199.122541 137.77749 
L 199.258491 136.725063 
L 199.301103 136.856794 
L 199.489811 138.326883 
L 199.591267 137.993999 
L 199.747508 137.415682 
L 199.804324 137.504414 
L 199.824615 137.504454 
L 199.855052 137.404418 
L 199.942304 136.263184 
L 200.41103 129.088745 
L 200.595679 127.299525 
L 200.626116 127.374233 
L 200.727572 128.460238 
L 201.072521 134.910488 
L 201.756334 159.799043 
L 202.992065 208.004271 
L 203.166569 208.838287 
L 203.261938 209.431033 
L 203.312666 209.196957 
L 203.436442 207.078026 
L 204.321137 188.399307 
L 204.56666 185.642768 
L 204.599125 185.636274 
L 204.649853 185.713507 
L 204.814212 186.324007 
L 205.04756 188.549695 
L 205.313374 194.52789 
L 206.267059 219.355465 
L 206.323874 219.062185 
L 206.457796 217.938899 
L 206.520699 218.246863 
L 206.622154 218.833783 
L 206.670853 218.574019 
L 206.782455 216.17215 
L 207.084793 210.559469 
L 207.25321 203.652408 
L 207.87209 178.194493 
L 208.146021 168.854517 
L 208.365165 164.333815 
L 208.448359 164.11796 
L 208.600543 162.516443 
L 208.679678 162.056566 
L 208.728377 162.346334 
L 209.225511 169.823794 
L 209.779459 182.351027 
L 209.994546 184.843985 
L 210.067594 185.137021 
L 210.280651 186.363835 
L 210.321233 186.248716 
L 210.424718 184.986308 
L 210.641834 183.240027 
L 210.767639 182.655843 
L 211.057803 179.100329 
L 211.17955 179.367809 
L 211.216074 179.395233 
L 211.262743 179.290063 
L 211.368257 178.922671 
L 211.418985 179.110883 
L 211.524499 180.827963 
L 211.960759 193.007577 
L 212.64863 219.958265 
L 212.995609 226.980639 
L 213.062569 226.782834 
L 213.379112 224.639001 
L 213.815372 210.050749 
L 214.539766 183.745769 
L 214.929356 178.99377 
L 214.978055 179.201539 
L 215.101831 181.202523 
L 215.5178 191.975297 
L 216.284806 224.641348 
L 216.658163 232.024345 
L 216.676426 232.030154 
L 216.71295 231.92137 
L 217.084278 229.379273 
L 217.26284 225.474106 
L 217.475897 222.945337 
L 217.624023 220.623057 
L 217.895924 216.908333 
L 217.968973 216.542155 
L 218.106953 214.420144 
L 218.259136 212.21948 
L 218.309864 212.426018 
L 218.482339 213.251557 
L 218.52698 213.175485 
L 218.624377 212.877152 
L 218.669018 213.087281 
L 218.802939 215.53909 
L 219.038317 218.063658 
L 219.139773 218.930352 
L 219.44414 221.46053 
L 219.543567 221.70892 
L 219.890546 223.570235 
L 219.967652 223.461957 
L 220.170564 222.62294 
L 220.34101 221.178018 
L 220.554067 216.304833 
L 220.963948 202.114553 
L 221.25817 194.266015 
L 221.521955 191.751731 
L 221.536159 191.765278 
L 221.592974 192.126504 
L 221.929808 197.01793 
L 222.461436 208.958307 
L 223.04988 219.429106 
L 223.514547 224.104362 
L 223.622091 224.206565 
L 223.723546 224.784492 
L 223.896021 226.339772 
L 223.958924 226.160133 
L 224.044147 225.920951 
L 224.092846 226.056066 
L 224.186185 227.154053 
L 224.451999 230.161568 
L 224.535193 231.015325 
L 224.70361 235.860187 
L 224.916667 238.896661 
L 225.010006 240.481178 
L 226.083409 268.422521 
L 226.119933 268.583558 
L 226.17269 268.231083 
L 226.414155 264.618763 
L 226.537931 264.959238 
L 226.582571 264.779882 
L 226.706347 263.00478 
L 226.848385 261.361545 
L 226.899113 261.605136 
L 227.016802 262.390273 
L 227.071588 262.14936 
L 227.22783 259.84606 
L 227.339432 258.771638 
L 227.394218 258.902803 
L 227.438858 258.979144 
L 227.483499 258.830884 
L 227.589013 257.417595 
L 228.709085 236.528414 
L 228.875473 235.850289 
L 228.946492 235.409151 
L 229.334053 232.529676 
L 229.43348 231.209073 
L 230.484562 208.616605 
L 231.1075 189.515222 
L 231.426072 181.644715 
L 231.732468 175.038065 
L 231.791313 175.198736 
L 231.854215 175.329524 
L 231.906972 175.20928 
L 232.034807 174.77234 
L 232.083505 174.941919 
L 232.172787 176.496096 
L 232.493387 182.049211 
L 232.621221 183.877525 
L 233.053423 190.828028 
L 233.35779 193.830445 
L 233.647954 194.537125 
L 233.6581 194.53222 
L 233.783905 194.36252 
L 233.844778 194.524211 
L 233.893477 194.599012 
L 233.940147 194.474235 
L 234.187699 192.685776 
L 234.240456 192.533554 
L 234.319592 192.574847 
L 234.382494 192.26408 
L 235.070365 186.339823 
L 235.139355 186.770436 
L 235.319946 188.11544 
L 235.360528 188.048501 
L 235.492421 187.509274 
L 235.549236 187.785526 
L 235.711565 189.134832 
L 235.778526 188.880271 
L 236.738298 181.309702 
L 237.42211 173.785152 
L 237.83605 170.398519 
L 237.943593 170.726236 
L 238.142447 171.984964 
L 238.436668 174.240596 
L 238.586823 174.964229 
L 238.635522 174.905891 
L 238.945977 173.885898 
L 239.077869 172.066507 
L 239.743419 161.556235 
L 240.001117 158.471334 
L 240.258815 155.66664 
L 240.380562 154.081585 
L 240.808705 143.16108 
L 241.200325 124.153506 
L 242.334601 64.808144 
L 242.480697 63.013004 
L 242.515192 63.079864 
L 242.671434 64.082018 
L 242.829705 65.973545 
L 243.012326 72.681431 
L 243.909195 115.965944 
L 244.475318 145.888323 
L 245.0455 162.051159 
L 245.272761 164.896389 
L 245.364071 164.026892 
L 245.765836 154.886725 
L 246.83721 107.237493 
L 247.291732 100.163166 
L 247.328256 100.180075 
L 247.36478 100.246487 
L 247.419566 100.28205 
L 247.470294 100.207631 
L 247.516964 100.15744 
L 247.557546 100.277314 
L 247.652915 101.462624 
L 248.014097 110.095169 
L 248.505143 128.406642 
L 248.882559 140.095096 
L 249.162577 143.102605 
L 249.193014 143.038494 
L 249.276208 142.190571 
L 249.479119 136.963354 
L 249.834215 122.838901 
L 250.294824 103.503452 
L 250.477444 100.039956 
L 250.501794 100.065268 
L 250.641803 100.2078 
L 250.680356 100.162401 
L 250.767608 100.025398 
L 250.806161 100.155662 
L 250.881239 101.461252 
L 251.248509 115.569361 
L 251.45142 128.900781 
L 252.052039 166.053857 
L 252.378726 172.949063 
L 252.388872 172.94732 
L 252.413221 172.838109 
L 252.498444 171.319081 
L 252.833248 159.38169 
L 253.249217 133.566833 
L 254.099417 90.412575 
L 254.340882 86.334871 
L 254.555968 82.814431 
L 254.57423 82.825042 
L 254.6209 82.853638 
L 254.655395 82.752589 
L 254.744676 81.679975 
L 254.939471 78.836306 
L 254.996286 79.08182 
L 255.134266 80.024466 
L 255.19514 79.792064 
L 255.30877 79.148537 
L 255.361527 79.411065 
L 255.805904 85.094821 
L 256.333474 102.459311 
L 256.976704 126.643058 
L 257.841107 146.416673 
L 257.962854 147.140864 
L 258.08663 147.906118 
L 258.135329 147.712139 
L 258.259105 145.763869 
L 258.512745 143.106659 
L 258.656812 140.270586 
L 258.997704 134.166515 
L 259.912835 109.302076 
L 260.391707 98.283753 
L 260.823908 92.866149 
L 261.124218 90.684302 
L 261.191178 90.866051 
L 261.333216 91.295369 
L 261.381915 91.210066 
L 261.584827 90.230736 
L 261.659904 90.62092 
L 261.960213 92.238256 
L 262.061669 93.542743 
L 262.406619 103.927154 
L 262.719103 118.980265 
L 263.238557 136.675403 
L 263.488138 138.156766 
L 263.538866 138.258116 
L 263.587565 138.102452 
L 263.723515 136.553487 
L 264.131368 128.633357 
L 264.413415 123.425934 
L 264.478347 123.731797 
L 264.612268 125.896509 
L 264.867937 133.776295 
L 265.218974 160.171195 
L 266.300493 238.092802 
L 266.397891 239.096855 
L 266.446589 238.765448 
L 266.568336 235.632195 
L 267.063441 215.375153 
L 267.678263 186.872585 
L 268.315406 169.395365 
L 268.67253 165.475439 
L 268.715141 165.501377 
L 268.743549 165.559147 
L 268.842976 165.723949 
L 268.895733 165.629482 
L 269.01748 164.920999 
L 269.118936 164.551715 
L 269.175751 164.602259 
L 269.22445 164.597981 
L 269.252857 164.523293 
L 269.348226 163.669143 
L 270.216688 153.959685 
L 270.496706 152.289098 
L 270.543375 152.302667 
L 270.596132 152.164054 
L 270.717879 150.914846 
L 271.093266 144.227406 
L 271.746641 127.663199 
L 271.949553 125.117231 
L 272.079416 124.107798 
L 272.122028 124.259424 
L 272.2316 125.970404 
L 272.602928 134.776172 
L 273.445012 169.86015 
L 273.660098 174.807129 
L 273.686476 174.747093 
L 274.013164 172.782767 
L 274.15926 167.59868 
L 274.567113 154.079534 
L 274.841044 147.13195 
L 275.10077 145.3493 
L 275.179906 145.990124 
L 275.380788 150.994094 
L 275.752117 162.614266 
L 276.4339 189.421535 
L 276.669277 191.564707 
L 276.699714 191.480288 
L 276.786966 190.358425 
L 277.714272 174.744559 
L 277.842106 174.415956 
L 277.919213 174.550378 
L 278.014581 175.139712 
L 278.20126 176.702113 
L 278.258075 176.634962 
L 278.349386 176.231173 
L 278.682161 172.811064 
L 279.850932 151.567505 
L 279.901659 151.534984 
L 279.958475 151.59852 
L 280.094426 152.094136 
L 280.19791 153.519111 
L 280.400822 160.053522 
L 281.299721 192.10481 
L 281.573651 195.954998 
L 281.784679 197.776683 
L 282.135717 201.447319 
L 282.26558 203.428196 
L 283.245643 224.334639 
L 283.288255 224.21633 
L 283.462759 222.737224 
L 283.64335 220.039213 
L 283.864524 211.305493 
L 284.816179 174.097836 
L 285.004887 167.532779 
L 285.607534 145.36618 
L 285.907844 134.698296 
L 286.147279 128.516221 
L 286.299463 124.135929 
L 286.51252 118.896194 
L 286.542957 118.950188 
L 286.62818 119.194186 
L 286.678908 119.02247 
L 286.843266 117.608244 
L 286.910227 118.232637 
L 287.61433 131.544727 
L 287.764485 131.358366 
L 287.831446 131.51472 
L 287.908552 131.808206 
L 287.955222 131.586595 
L 288.060736 129.496853 
L 289.036741 105.351699 
L 289.134139 104.892165 
L 289.178779 105.079062 
L 289.29038 107.070595 
L 289.594748 116.955818 
L 289.919407 136.929393 
L 290.46321 180.130009 
L 291.049624 216.494191 
L 291.329642 223.610523 
L 291.396603 223.849638 
L 291.453418 223.700787 
L 291.613719 222.500851 
L 291.79431 218.321796 
L 292.922499 190.918325 
L 293.137585 189.257303 
L 293.17208 189.28443 
L 293.208604 189.28676 
L 293.24107 189.206175 
L 293.362817 188.255459 
L 293.515001 187.276724 
L 293.56167 187.412189 
L 293.67733 187.961348 
L 293.736174 187.749694 
L 293.930969 186.41455 
L 293.993872 186.739418 
L 294.464627 193.074574 
L 294.726383 198.052629 
L 294.878567 200.096072 
L 295.046983 202.537045 
L 295.095682 202.338594 
L 295.276273 201.040044 
L 295.339176 201.301605 
L 295.503535 202.521632 
L 295.574554 202.311352 
L 295.633398 202.140964 
L 295.682097 202.333869 
L 295.78964 203.955194 
L 296.349676 220.560321 
L 297.094362 249.563054 
L 297.530622 259.315227 
L 297.757883 262.483843 
L 297.979056 264.333139 
L 298.125153 265.252948 
L 298.309802 266.488322 
L 298.368647 266.32015 
L 298.808965 263.615132 
L 299.582058 251.160572 
L 299.998027 245.79582 
L 300.219201 243.794192 
L 300.304424 244.423745 
L 300.568209 246.288891 
L 300.645315 246.605526 
L 300.758946 248.369832 
L 300.986207 250.785778 
L 300.992294 250.784882 
L 301.077517 250.85991 
L 301.079546 250.867552 
L 301.166798 251.658976 
L 301.353477 253.36951 
L 301.396088 253.250992 
L 301.830319 250.265266 
L 302.497898 240.873349 
L 302.859081 239.287925 
L 302.934158 239.398807 
L 302.960537 239.397054 
L 302.993003 239.312366 
L 303.167507 238.105079 
L 303.451583 235.670823 
L 304.088725 227.358981 
L 304.265259 225.179557 
L 304.748188 214.044679 
L 305.151982 204.408328 
L 305.462437 199.044454 
L 305.578097 198.431249 
L 305.860144 195.642541 
L 305.935221 195.79541 
L 305.987978 195.884192 
L 306.036677 195.752695 
L 306.23756 194.510128 
L 306.312637 194.87528 
L 306.85644 201.267335 
L 307.053264 203.368292 
L 307.061381 203.365302 
L 307.144575 203.27949 
L 307.17704 203.409536 
L 307.264292 204.903875 
L 307.562573 209.711727 
L 307.621417 209.835098 
L 307.694465 210.905582 
L 308.960634 238.847647 
L 309.043827 239.963741 
L 309.896056 257.646013 
L 309.995483 259.130846 
L 310.172016 261.444917 
L 310.212598 261.29253 
L 310.602189 257.68644 
L 311.01207 246.460131 
L 312.142288 217.239028 
L 312.312734 216.616369 
L 312.483179 215.462646 
L 312.556228 215.701491 
L 312.690149 216.167438 
L 312.740877 216.07178 
L 312.907265 215.459031 
L 312.972197 215.700393 
L 313.104089 216.254718 
L 313.152788 216.126369 
L 313.380049 214.764126 
L 313.471359 215.052343 
L 313.591077 215.452078 
L 313.645863 215.355857 
L 313.729057 215.219927 
L 313.781814 215.306753 
L 314.029366 215.795671 
L 314.059803 215.762115 
L 314.147055 215.62637 
L 314.195754 215.746631 
L 314.52447 217.528554 
L 314.701004 220.344141 
L 315.252923 228.485888 
L 315.545116 229.550548 
L 315.583669 229.597466 
L 315.626281 229.460546 
L 315.733824 228.086939 
L 316.642868 214.194641 
L 316.740265 213.697387 
L 316.790993 213.82887 
L 316.941148 215.064392 
L 317.732503 221.771991 
L 317.827872 222.07494 
L 317.876571 221.899545 
L 317.996288 220.185381 
L 318.209346 213.937257 
L 318.460956 201.815178 
L 319.621611 134.519233 
L 319.652047 134.45425 
L 319.71495 134.605569 
L 319.877279 135.63237 
L 320.037579 138.541514 
L 320.60979 151.898649 
L 320.766032 152.750489 
L 320.782265 152.747561 
L 320.989235 152.574546 
L 321.074458 151.487825 
L 321.309835 144.481979 
L 322.509043 104.344317 
L 322.661227 102.732174 
L 323.432291 90.817906 
L 323.570271 87.895341 
L 324.580771 62.032405 
L 324.700489 61.246803 
L 324.7431 61.32569 
L 324.911517 62.274716 
L 325.104283 65.557184 
L 325.406621 75.692652 
L 325.901725 104.474509 
L 327.332252 190.765299 
L 327.374864 190.918346 
L 327.42965 190.675269 
L 327.563572 188.618175 
L 327.81924 181.428246 
L 328.237238 160.612245 
L 329.048885 126.883362 
L 329.49529 121.438973 
L 329.54196 121.496944 
L 329.619066 121.663175 
L 329.665736 121.522698 
L 329.838211 120.184393 
L 329.917347 120.715135 
L 330.124316 123.125178 
L 330.199394 122.831564 
L 330.274471 122.565055 
L 330.327228 122.739746 
L 330.430713 124.17685 
L 330.605217 125.976756 
L 330.633625 125.956288 
L 330.680294 125.938246 
L 330.716818 126.02482 
L 330.810158 126.899225 
L 331.37831 134.035204 
L 331.42498 134.236409 
L 331.481795 133.977927 
L 331.784133 130.465528 
L 331.950521 125.547595 
L 333.579901 68.131571 
L 334.008045 57.823465 
L 334.212986 54.930522 
L 334.308354 54.558431 
L 334.4788 53.568093 
L 334.529528 53.810571 
L 334.6391 55.983432 
L 335.564377 77.571863 
L 335.576552 77.56836 
L 335.60293 77.464225 
L 335.710473 76.028512 
L 336.376024 64.454069 
L 336.432839 64.708206 
L 336.566761 66.945808 
L 336.893448 77.921219 
L 337.824813 111.112769 
L 338.194112 118.11503 
L 338.342237 119.923145 
L 338.47413 120.972315 
L 338.516741 120.832384 
L 338.679071 119.607372 
L 338.754148 120.04703 
L 338.934739 121.568299 
L 338.993584 121.368041 
L 339.086923 120.910328 
L 339.137651 121.162681 
L 339.259398 123.527818 
L 340.026404 145.557688 
L 340.436285 156.489374 
L 340.653401 157.581662 
L 340.689925 157.461414 
L 340.791381 156.041062 
L 341.152563 146.963044 
L 341.59694 128.334839 
L 342.165092 106.538993 
L 342.374091 103.635239 
L 342.388295 103.644436 
L 342.457285 103.939537 
L 342.534391 104.178297 
L 342.587149 104.046407 
L 342.702808 103.664872 
L 342.757594 103.784234 
L 342.938186 104.740748 
L 343.007176 104.370669 
L 343.22632 102.459572 
L 343.291252 102.582385 
L 343.38662 102.742872 
L 343.431261 102.652406 
L 343.550979 102.16221 
L 343.605765 102.432616 
L 343.739687 104.69955 
L 344.161743 115.421148 
L 344.786711 133.200869 
L 345.596328 147.484724 
L 345.75257 147.740723 
L 345.898666 150.333595 
L 345.989977 151.126083 
L 346.042734 150.895049 
L 346.205063 149.664016 
L 346.269995 149.937921 
L 346.432324 151.083037 
L 346.497256 150.87244 
L 346.586537 150.540062 
L 346.637265 150.719388 
L 346.73872 152.228741 
L 347.168893 164.685455 
L 347.856763 197.823967 
L 348.134752 205.096065 
L 348.230121 205.873707 
L 348.280849 205.669141 
L 348.372159 204.106916 
L 348.585216 194.933525 
L 348.909875 174.596681 
L 349.607891 127.543689 
L 349.967044 117.852094 
L 349.993423 117.931353 
L 350.32214 120.411462 
L 350.46012 123.892063 
L 351.01001 139.271256 
L 351.51526 150.160995 
L 351.53758 150.142071 
L 351.56193 150.064246 
L 351.637007 149.836417 
L 351.685706 150.01857 
L 351.898763 151.767053 
L 351.981957 151.359944 
L 352.085442 150.703148 
L 352.140228 150.942667 
L 352.282266 153.139719 
L 352.692148 161.90341 
L 353.471328 184.154077 
L 353.773667 188.498185 
L 354.071947 190.89401 
L 354.124704 190.755913 
L 354.299208 190.101048 
L 354.353994 190.233941 
L 354.498061 190.722907 
L 354.550818 190.598245 
L 354.66039 189.645525 
L 355.14332 182.507327 
L 356.032073 150.910636 
L 356.346586 140.078608 
L 356.689507 132.261644 
L 356.837632 131.204775 
L 356.95735 130.17065 
L 357.008078 130.52456 
L 357.148087 133.985625 
L 357.557968 148.882846 
L 358.998641 223.883146 
L 359.25431 226.351057 
L 359.278659 226.307476 
L 359.353736 225.577205 
L 359.676366 218.96543 
L 360.112626 201.253604 
L 361.025728 167.738274 
L 361.652725 147.169043 
L 361.821142 143.89872 
L 361.859695 144.031115 
L 362.050432 145.966002 
L 362.241169 149.200072 
L 362.486692 161.85716 
L 363.060932 197.01665 
L 363.929393 238.218939 
L 363.974034 238.097179 
L 364.07549 237.732834 
L 364.128247 237.898495 
L 364.205353 238.229375 
L 364.252023 237.971998 
L 364.35145 235.591486 
L 364.931777 211.042876 
L 365.489784 187.328013 
L 366.699137 159.135906 
L 367.086698 155.089665 
L 367.200329 154.564025 
L 367.453968 153.100587 
L 367.506725 153.327447 
L 367.813122 156.358055 
L 368.005888 160.712396 
L 368.531429 170.970863 
L 368.835797 171.638455 
L 368.845942 171.629109 
L 368.900728 171.319733 
L 369.050883 168.659014 
L 369.525696 158.017167 
L 370.069499 146.558267 
L 370.189217 145.079274 
L 370.408362 141.690515 
L 370.465177 142.019771 
L 370.586924 142.801766 
L 370.639681 142.634221 
L 370.787806 141.8756 
L 370.838534 142.114055 
L 371.037388 144.453612 
L 371.132756 143.887316 
L 371.213921 143.453298 
L 371.264649 143.696869 
L 371.471619 146.404526 
L 371.575104 145.629201 
L 371.686705 144.898336 
L 371.735404 145.062879 
L 371.832801 145.618944 
L 371.883529 145.326996 
L 371.999189 142.677332 
L 372.265003 137.894441 
L 372.380663 135.632997 
L 372.666768 129.304349 
L 372.705321 129.334561 
L 372.737787 129.32781 
L 372.766195 129.247181 
L 372.871709 128.27825 
L 372.993456 127.351298 
L 373.038096 127.584046 
L 373.14361 130.03513 
L 373.784811 151.824884 
L 374.117586 171.193127 
L 374.919087 220.133796 
L 375.385784 240.137712 
L 375.734792 249.318821 
L 376.055392 253.798267 
L 376.177139 253.054747 
L 376.26845 252.702484 
L 376.323236 252.792043 
L 376.434837 253.081603 
L 376.483536 252.914966 
L 376.607312 251.31524 
L 376.988786 243.040414 
L 377.581288 227.635971 
L 378.508594 209.003236 
L 378.674981 202.201419 
L 379.675336 150.668525 
L 379.817374 148.609376 
L 379.851869 148.705306 
L 380.008111 150.135511 
L 380.150149 152.733016 
L 380.359148 162.372779 
L 380.957737 203.34467 
L 381.584734 241.64052 
L 382.059547 254.137418 
L 382.063606 254.137268 
L 382.120421 254.238258 
L 382.215789 255.364556 
L 382.394352 257.552329 
L 382.445079 257.311607 
L 382.607409 255.701608 
L 382.67437 256.214925 
L 382.861048 258.262983 
L 382.919893 258.018503 
L 383.043669 257.223531 
L 383.096426 257.505135 
L 383.277017 259.176703 
L 383.337891 258.872334 
L 383.524569 256.867903 
L 383.617909 257.200883 
L 383.650375 257.240741 
L 383.697044 257.104221 
L 383.788354 255.93537 
L 384.033878 252.020555 
L 384.092722 252.075261 
L 384.139392 252.076367 
L 384.169828 251.995888 
L 384.261139 251.111787 
L 384.447817 249.232736 
L 384.492458 249.363845 
L 384.642612 250.279392 
L 384.709573 249.976337 
L 385.042348 248.111829 
L 385.127571 247.08911 
L 385.509045 237.652972 
L 385.744423 229.261473 
L 386.02647 222.415618 
L 386.312575 218.331147 
L 386.375478 218.532449 
L 386.807679 221.598746 
L 387.74716 240.632091 
L 387.846587 241.090185 
L 387.893257 240.946492 
L 388.021091 239.419006 
L 388.926077 228.635134 
L 388.940281 228.624621 
L 388.978834 228.768959 
L 389.122901 229.597855 
L 389.181745 229.336617 
L 389.40089 227.176758 
L 389.508433 227.479936 
L 389.549016 227.514346 
L 389.589598 227.40574 
L 389.705257 226.262189 
L 389.788451 225.68477 
L 389.841208 225.972565 
L 390.011654 227.24826 
L 390.062382 227.074287 
L 390.236886 225.470323 
L 390.330225 225.988733 
L 390.382982 226.162839 
L 390.435739 225.966378 
L 390.545312 224.347242 
L 391.247386 211.384736 
L 391.456385 211.040675 
L 391.507113 211.188831 
L 391.602481 212.399474 
L 391.83583 219.593315 
L 392.757048 245.38599 
L 392.8443 245.337225 
L 392.854446 245.315671 
L 393.035037 244.608588 
L 393.215629 242.496513 
L 393.550433 236.406152 
L 394.370196 215.788802 
L 395.104736 192.272687 
L 395.547083 187.087071 
L 395.642452 186.35744 
L 395.827101 182.84608 
L 396.192342 171.239575 
L 397.026309 137.22277 
L 397.30024 131.623866 
L 397.34488 131.842864 
L 397.464598 133.946108 
L 397.809548 145.552175 
L 398.487273 184.892556 
L 398.487273 184.892556 
" style="fill:none;stroke:#000000;stroke-linecap:square;stroke-width:1.5;"/>
   </g>
   <g id="line2d_38">
    <path clip-path="url(#pb08d0b4aa5)" d="M 73.832727 174.481115 
L 76.005911 126.927257 
L 77.142216 106.839372 
L 78.061406 94.257473 
L 78.844644 86.359988 
L 79.524398 81.577907 
L 80.112842 78.876488 
L 80.614034 77.509133 
L 81.034061 76.933035 
L 81.385098 76.788419 
L 81.72396 76.889514 
L 82.143988 77.271379 
L 82.770984 78.182091 
L 84.233977 80.374985 
L 84.725023 80.702064 
L 85.108526 80.707756 
L 85.471738 80.480268 
L 85.873503 79.943117 
L 86.352375 78.895829 
L 86.930673 77.047842 
L 87.653038 73.928159 
L 88.661509 68.47564 
L 90.692654 57.346158 
L 91.36835 54.901147 
L 91.853309 53.87242 
L 92.198259 53.579485 
L 92.455956 53.621989 
L 92.7238 53.917325 
L 93.056575 54.65727 
L 93.470515 56.176941 
L 93.975765 58.955952 
L 94.584499 63.65528 
L 95.314981 71.159414 
L 96.219967 82.934107 
L 97.469903 102.414453 
L 100.310666 147.509853 
L 101.272467 158.878518 
L 102.039473 165.530228 
L 102.670528 169.248595 
L 103.183894 171.096078 
L 103.587688 171.831604 
L 103.887998 171.990015 
L 104.145695 171.87706 
L 104.450063 171.467402 
L 104.853857 170.505149 
L 105.39766 168.568928 
L 106.176841 164.869791 
L 108.638159 152.593302 
L 109.238777 150.888226 
L 109.683154 150.206982 
L 110.009841 150.053374 
L 110.285801 150.16357 
L 110.596256 150.555812 
L 110.985846 151.451711 
L 111.470805 153.182837 
L 112.075482 156.24041 
L 112.846546 161.388087 
L 113.946327 170.408857 
L 116.273723 189.778118 
L 117.101603 194.70685 
L 117.740774 197.304333 
L 118.241966 198.520968 
L 118.625469 198.950269 
L 118.919691 198.98687 
L 119.205796 198.784946 
L 119.556833 198.231012 
L 120.009326 197.056148 
L 120.603857 194.831612 
L 121.454057 190.680397 
L 123.62927 179.695989 
L 124.229888 177.884411 
L 124.658032 177.19906 
L 124.96037 177.06681 
L 125.21198 177.197529 
L 125.502144 177.635052 
L 125.865356 178.635171 
L 126.313791 180.589111 
L 126.857594 184.044691 
L 127.50894 189.728501 
L 128.298266 198.713853 
L 129.304708 212.925079 
L 130.950321 239.878421 
L 132.733914 267.930025 
L 133.746443 280.52649 
L 134.547944 287.94887 
L 135.205378 292.159996 
L 135.743094 294.321963 
L 136.169208 295.237157 
L 136.489809 295.482537 
L 136.745477 295.420298 
L 137.033612 295.092458 
L 137.411027 294.282722 
L 137.912219 292.623202 
L 138.596031 289.511374 
L 139.722191 283.173929 
L 141.317076 274.441565 
L 142.126694 271.194499 
L 142.761807 269.476636 
L 143.277203 268.655056 
L 143.699259 268.354074 
L 144.072616 268.345458 
L 144.472352 268.571946 
L 144.977602 269.138236 
L 145.815627 270.473106 
L 146.789603 271.904946 
L 147.260358 272.240101 
L 147.605308 272.234509 
L 147.919821 271.997452 
L 148.270858 271.426762 
L 148.680739 270.292697 
L 149.157582 268.25715 
L 149.705443 264.8628 
L 150.334469 259.459138 
L 151.054805 251.208423 
L 151.89283 238.875396 
L 152.90333 220.487574 
L 154.270955 191.136124 
L 157.460725 121.371233 
L 158.532099 103.432923 
L 159.416793 92.093241 
L 160.175683 85.01586 
L 160.833117 80.798767 
L 161.401269 78.463787 
L 161.88217 77.322362 
L 162.283935 76.871896 
L 162.624826 76.792113 
L 162.975863 76.948012 
L 163.428356 77.420523 
L 164.171013 78.576046 
L 165.30326 80.27609 
L 165.820684 80.67638 
L 166.212304 80.723073 
L 166.573487 80.536796 
L 166.969164 80.05732 
L 167.435861 79.104627 
L 167.993868 77.416572 
L 168.687826 74.548016 
L 169.629336 69.6069 
L 172.005431 56.723294 
L 172.638515 54.620357 
L 173.093037 53.775945 
L 173.417696 53.569265 
L 173.669306 53.656298 
L 173.949324 54.021335 
L 174.298332 54.889387 
L 174.730534 56.623263 
L 175.256075 59.735953 
L 175.88713 64.921385 
L 176.648049 73.157883 
L 177.601733 86.099163 
L 178.999795 108.497462 
L 181.278492 144.822495 
L 182.284934 157.292291 
L 183.080347 164.612962 
L 183.733723 168.759173 
L 184.26738 170.873091 
L 184.689437 171.757211 
L 185.005979 171.98633 
L 185.261647 171.915356 
L 185.55384 171.572163 
L 185.937343 170.734131 
L 186.45071 169.018477 
L 187.169017 165.756817 
L 190.038187 151.825684 
L 190.577932 150.558003 
L 190.977668 150.109645 
L 191.275948 150.068012 
L 191.555966 150.264866 
L 191.892799 150.808938 
L 192.314856 151.963095 
L 192.840397 154.111882 
L 193.49783 157.819222 
L 194.354117 164.037671 
L 195.786674 176.380038 
L 197.316627 188.924998 
L 198.176972 194.255596 
L 198.836435 197.079348 
L 199.351831 198.424072 
L 199.747508 198.924026 
L 200.049847 198.995541 
L 200.331894 198.825507 
L 200.672786 198.327285 
L 201.113104 197.242415 
L 201.689373 195.166519 
L 202.492903 191.344427 
L 204.923784 179.230051 
L 205.487878 177.688253 
L 205.889643 177.143531 
L 206.17372 177.07461 
L 206.427359 177.251491 
L 206.727668 177.767083 
L 207.105084 178.906345 
L 207.571781 181.097452 
L 208.135875 184.916712 
L 208.811571 191.140496 
L 209.635392 200.952359 
L 210.704736 216.588614 
L 214.767027 278.939942 
L 215.596936 287.030165 
L 216.274661 291.656439 
L 216.830638 294.081954 
L 217.272986 295.148336 
L 217.609819 295.470355 
L 217.871575 295.44381 
L 218.151593 295.163323 
L 218.510747 294.450868 
L 218.989618 292.955075 
L 219.640964 290.113065 
L 220.643348 284.604989 
L 222.536513 274.188385 
L 223.333956 271.055263 
L 223.962982 269.4015 
L 224.47229 268.622406 
L 224.890288 268.345833 
L 225.263646 268.353295 
L 225.669469 268.599802 
L 226.192981 269.208633 
L 227.097967 270.671638 
L 227.976574 271.928155 
L 228.439213 272.244528 
L 228.782133 272.229706 
L 229.098675 271.980916 
L 229.451742 271.39182 
L 229.865681 270.222337 
L 230.344553 268.141573 
L 230.896472 264.669182 
L 231.527528 259.175699 
L 232.251922 250.784485 
L 233.096034 238.240534 
L 234.11668 219.51752 
L 235.512712 189.385684 
L 238.564503 122.514428 
L 239.648051 104.152024 
L 240.538833 92.563185 
L 241.30381 85.30104 
L 241.965302 80.967454 
L 242.537512 78.553974 
L 243.0245 77.360053 
L 243.428294 76.884866 
L 243.771215 76.79017 
L 244.118194 76.931898 
L 244.5646 77.383794 
L 245.280878 78.483422 
L 246.476027 80.284908 
L 246.991423 80.678937 
L 247.385071 80.721395 
L 247.746254 80.529903 
L 248.137873 80.050848 
L 248.602541 79.099558 
L 249.164606 77.394958 
L 249.862622 74.500425 
L 250.80819 69.52599 
L 253.157907 56.772792 
L 253.79505 54.640872 
L 254.251601 53.783104 
L 254.576259 53.569888 
L 254.829899 53.653118 
L 255.107888 54.010317 
L 255.456896 54.870229 
L 255.889098 56.593702 
L 256.414639 59.693595 
L 257.045694 64.864032 
L 257.804583 73.059456 
L 258.756239 85.948809 
L 260.146183 108.191567 
L 262.44923 144.907292 
L 263.455672 157.357408 
L 264.251086 164.659536 
L 264.904461 168.789724 
L 265.43609 170.88486 
L 265.858146 171.762454 
L 266.172659 171.986651 
L 266.428327 171.913908 
L 266.72052 171.568845 
L 267.104023 170.728603 
L 267.619419 169.002555 
L 268.343813 165.705468 
L 271.184576 151.880847 
L 271.728379 150.581908 
L 272.130144 150.116749 
L 272.432482 150.065739 
L 272.712501 150.255911 
L 273.045276 150.783428 
L 273.461244 151.902433 
L 273.980698 153.995589 
L 274.632045 157.624852 
L 275.478186 163.71468 
L 276.851898 175.49974 
L 278.465045 188.809091 
L 279.329449 194.192478 
L 279.990941 197.045121 
L 280.510394 198.41277 
L 280.91013 198.922651 
L 281.212469 198.995944 
L 281.494516 198.827524 
L 281.835407 198.331154 
L 282.273696 197.254524 
L 282.847936 195.191809 
L 283.645379 191.407995 
L 286.098581 179.195238 
L 286.658617 177.676328 
L 287.058353 177.140635 
L 287.342429 177.075637 
L 287.596068 177.256212 
L 287.900436 177.785764 
L 288.279881 178.944724 
L 288.746577 181.154851 
L 289.310672 184.9971 
L 289.988396 191.268484 
L 290.814247 201.140771 
L 291.887649 216.877084 
L 295.9053 278.641581 
L 296.739266 286.84685 
L 297.421049 291.555876 
L 297.981085 294.035225 
L 298.427491 295.132203 
L 298.766353 295.467394 
L 299.028109 295.448127 
L 299.306098 295.177842 
L 299.665252 294.476093 
L 300.142094 293.000017 
L 300.787353 290.202985 
L 301.78162 284.759184 
L 303.713339 274.132709 
L 304.506723 271.029112 
L 305.131691 269.393305 
L 305.63897 268.62028 
L 306.058997 268.344669 
L 306.430326 268.353945 
L 306.83412 268.599802 
L 307.357632 269.208633 
L 308.278851 270.698843 
L 309.147312 271.934379 
L 309.609951 272.246306 
L 309.948813 272.228872 
L 310.265355 271.978505 
L 310.620451 271.382947 
L 311.032361 270.215214 
L 311.513262 268.120344 
L 312.065182 264.639126 
L 312.696237 259.134891 
L 313.42266 250.704454 
L 314.266773 238.139714 
L 315.289447 219.355113 
L 316.689538 189.108671 
L 319.719008 122.706076 
L 320.806614 104.242531 
L 321.699426 92.608311 
L 322.464402 85.333049 
L 323.125894 80.988802 
L 323.698105 78.567063 
L 324.185093 77.367047 
L 324.590916 76.886214 
L 324.933837 76.789996 
L 325.280816 76.930477 
L 325.725192 77.378624 
L 326.427267 78.452632 
L 327.648795 80.293644 
L 328.162161 80.68143 
L 328.551751 80.720955 
L 328.910905 80.529903 
L 329.306583 80.04434 
L 329.77125 79.089392 
L 330.335344 77.373271 
L 331.03336 74.47179 
L 331.978929 69.491268 
L 334.316471 56.797651 
L 334.955642 54.651184 
L 335.414222 53.785506 
L 335.74091 53.569888 
L 335.99455 53.653127 
L 336.272539 54.010326 
L 336.619518 54.863886 
L 337.051719 56.583903 
L 337.575231 59.665446 
L 338.204257 64.806826 
L 338.963147 72.985787 
L 339.910744 85.798703 
L 341.290543 107.851829 
L 343.621998 145.020174 
L 344.62641 157.422388 
L 345.419795 164.690509 
L 346.071141 168.799889 
L 346.60277 170.890727 
L 347.022797 171.762463 
L 347.339339 171.986954 
L 347.597037 171.910984 
L 347.891258 171.558826 
L 348.276791 170.706421 
L 348.794215 168.962608 
L 349.520639 165.643706 
L 352.330965 151.936761 
L 352.878826 150.606336 
L 353.28465 150.122991 
L 353.586988 150.063172 
L 353.864977 150.24284 
L 354.193694 150.750081 
L 354.607633 151.842724 
L 355.125058 153.899894 
L 355.772346 157.470859 
L 356.610371 163.458007 
L 357.939442 174.816113 
L 359.625638 188.780052 
L 360.490041 194.171368 
L 361.153562 197.038246 
L 361.673016 198.408975 
L 362.072752 198.921258 
L 362.37712 198.995944 
L 362.659167 198.827524 
L 363.000058 198.331144 
L 363.438347 197.254505 
L 364.010558 195.200223 
L 364.81003 191.407976 
L 367.263232 179.195229 
L 367.821238 177.680288 
L 368.220974 177.142065 
L 368.505051 177.075114 
L 368.75869 177.253847 
L 369.061029 177.776405 
L 369.440473 178.929343 
L 369.90717 181.131871 
L 370.471264 184.964936 
L 371.14696 191.204486 
L 371.970781 201.033113 
L 373.042155 216.716849 
L 377.086183 278.825548 
L 377.916092 286.947137 
L 378.597875 291.623101 
L 379.155882 294.068709 
L 379.600258 295.145155 
L 379.937092 295.46964 
L 380.198848 295.4449 
L 380.476837 295.169162 
L 380.838019 294.455918 
L 381.316891 292.962564 
L 381.966208 290.133056 
L 382.966562 284.640554 
L 384.865815 274.188348 
L 385.663258 271.055236 
L 386.292284 269.401482 
L 386.801592 268.622397 
L 387.21959 268.345824 
L 387.594977 268.353945 
L 387.998771 268.599811 
L 388.516195 269.20009 
L 389.411036 270.644396 
L 390.299789 271.921895 
L 390.764456 272.2433 
L 391.105348 272.232144 
L 391.419861 271.990421 
L 391.772927 271.409364 
L 392.182808 270.264685 
L 392.659651 268.215288 
L 393.209541 264.78859 
L 393.838567 259.358199 
L 394.558904 251.076283 
L 395.398958 238.675362 
L 396.413516 220.164785 
L 397.791286 190.537761 
L 398.487273 174.574354 
L 398.487273 174.574354 
" style="fill:none;stroke:#d3d3d3;stroke-linecap:square;stroke-width:1.5;"/>
   </g>
   <g id="patch_3">
    <path d="M 57.6 307.584 
L 57.6 41.472 
" style="fill:none;stroke:#000000;stroke-linecap:square;stroke-linejoin:miter;stroke-width:0.8;"/>
   </g>
   <g id="patch_4">
    <path d="M 414.72 307.584 
L 414.72 41.472 
" style="fill:none;stroke:#000000;stroke-linecap:square;stroke-linejoin:miter;stroke-width:0.8;"/>
   </g>
   <g id="patch_5">
    <path d="M 57.6 307.584 
L 414.72 307.584 
" style="fill:none;stroke:#000000;stroke-linecap:square;stroke-linejoin:miter;stroke-width:0.8;"/>
   </g>
   <g id="patch_6">
    <path d="M 57.6 41.472 
L 414.72 41.472 
" style="fill:none;stroke:#000000;stroke-linecap:square;stroke-linejoin:miter;stroke-width:0.8;"/>
   </g>
   <g id="legend_1">
    <g id="patch_7">
     <path d="M 64.6 302.584 
L 135.892188 302.584 
Q 137.892188 302.584 137.892188 300.584 
L 137.892188 272.22775 
Q 137.892188 270.22775 135.892188 270.22775 
L 64.6 270.22775 
Q 62.6 270.22775 62.6 272.22775 
L 62.6 300.584 
Q 62.6 302.584 64.6 302.584 
z
" style="fill:#ffffff;opacity:0.8;stroke:#cccccc;stroke-linejoin:miter;"/>
    </g>
    <g id="line2d_39">
     <path d="M 66.6 278.326187 
L 86.6 278.326187 
" style="fill:none;stroke:#000000;stroke-linecap:square;stroke-width:1.5;"/>
    </g>
    <g id="line2d_40"/>
    <g id="text_21">
     <!-- MN -->
     <defs>
      <path d="M 9.8125 72.90625 
L 24.515625 72.90625 
L 43.109375 23.296875 
L 61.8125 72.90625 
L 76.515625 72.90625 
L 76.515625 0 
L 66.890625 0 
L 66.890625 64.015625 
L 48.09375 14.015625 
L 38.1875 14.015625 
L 19.390625 64.015625 
L 19.390625 0 
L 9.8125 0 
z
" id="DejaVuSans-77"/>
      <path d="M 9.8125 72.90625 
L 23.09375 72.90625 
L 55.421875 11.921875 
L 55.421875 72.90625 
L 64.984375 72.90625 
L 64.984375 0 
L 51.703125 0 
L 19.390625 60.984375 
L 19.390625 0 
L 9.8125 0 
z
" id="DejaVuSans-78"/>
     </defs>
     <g transform="translate(94.6 281.826187)scale(0.1 -0.1)">
      <use xlink:href="#DejaVuSans-77"/>
      <use x="86.279297" xlink:href="#DejaVuSans-78"/>
     </g>
    </g>
    <g id="line2d_41">
     <path d="M 66.6 293.004312 
L 86.6 293.004312 
" style="fill:none;stroke:#d3d3d3;stroke-linecap:square;stroke-width:1.5;"/>
    </g>
    <g id="line2d_42"/>
    <g id="text_22">
     <!-- Entrada -->
     <defs>
      <path d="M 9.8125 72.90625 
L 55.90625 72.90625 
L 55.90625 64.59375 
L 19.671875 64.59375 
L 19.671875 43.015625 
L 54.390625 43.015625 
L 54.390625 34.71875 
L 19.671875 34.71875 
L 19.671875 8.296875 
L 56.78125 8.296875 
L 56.78125 0 
L 9.8125 0 
z
" id="DejaVuSans-69"/>
      <path d="M 18.3125 70.21875 
L 18.3125 54.6875 
L 36.8125 54.6875 
L 36.8125 47.703125 
L 18.3125 47.703125 
L 18.3125 18.015625 
Q 18.3125 11.328125 20.140625 9.421875 
Q 21.96875 7.515625 27.59375 7.515625 
L 36.8125 7.515625 
L 36.8125 0 
L 27.59375 0 
Q 17.1875 0 13.234375 3.875 
Q 9.28125 7.765625 9.28125 18.015625 
L 9.28125 47.703125 
L 2.6875 47.703125 
L 2.6875 54.6875 
L 9.28125 54.6875 
L 9.28125 70.21875 
z
" id="DejaVuSans-116"/>
     </defs>
     <g transform="translate(94.6 296.504312)scale(0.1 -0.1)">
      <use xlink:href="#DejaVuSans-69"/>
      <use x="63.183594" xlink:href="#DejaVuSans-110"/>
      <use x="126.5625" xlink:href="#DejaVuSans-116"/>
      <use x="165.771484" xlink:href="#DejaVuSans-114"/>
      <use x="206.884766" xlink:href="#DejaVuSans-97"/>
      <use x="268.164062" xlink:href="#DejaVuSans-100"/>
      <use x="331.640625" xlink:href="#DejaVuSans-97"/>
     </g>
    </g>
   </g>
  </g>
 </g>
 <defs>
  <clipPath id="pb08d0b4aa5">
   <rect height="266.112" width="357.12" x="57.6" y="41.472"/>
  </clipPath>
 </defs>
</svg>
