<?xml version="1.0" encoding="utf-8" standalone="no"?>
<!DOCTYPE svg PUBLIC "-//W3C//DTD SVG 1.1//EN"
  "http://www.w3.org/Graphics/SVG/1.1/DTD/svg11.dtd">
<!-- Created with matplotlib (https://matplotlib.org/) -->
<svg height="345.6pt" version="1.1" viewBox="0 0 460.8 345.6" width="460.8pt" xmlns="http://www.w3.org/2000/svg" xmlns:xlink="http://www.w3.org/1999/xlink">
 <defs>
  <style type="text/css">
*{stroke-linecap:butt;stroke-linejoin:round;}
  </style>
 </defs>
 <g id="figure_1">
  <g id="patch_1">
   <path d="M 0 345.6 
L 460.8 345.6 
L 460.8 0 
L 0 0 
z
" style="fill:#ffffff;"/>
  </g>
  <g id="axes_1">
   <g id="patch_2">
    <path d="M 57.6 307.584 
L 414.72 307.584 
L 414.72 41.472 
L 57.6 41.472 
z
" style="fill:#ffffff;"/>
   </g>
   <g id="matplotlib.axis_1">
    <g id="xtick_1">
     <g id="line2d_1">
      <path clip-path="url(#p08afb2c88e)" d="M 73.830698 307.584 
L 73.830698 41.472 
" style="fill:none;stroke:#b0b0b0;stroke-linecap:square;stroke-width:0.8;"/>
     </g>
     <g id="line2d_2">
      <defs>
       <path d="M 0 0 
L 0 3.5 
" id="m24aa1dd53b" style="stroke:#000000;stroke-width:0.8;"/>
      </defs>
      <g>
       <use style="stroke:#000000;stroke-width:0.8;" x="73.830698" xlink:href="#m24aa1dd53b" y="307.584"/>
      </g>
     </g>
     <g id="text_1">
      <!-- 2000 -->
      <defs>
       <path d="M 19.1875 8.296875 
L 53.609375 8.296875 
L 53.609375 0 
L 7.328125 0 
L 7.328125 8.296875 
Q 12.9375 14.109375 22.625 23.890625 
Q 32.328125 33.6875 34.8125 36.53125 
Q 39.546875 41.84375 41.421875 45.53125 
Q 43.3125 49.21875 43.3125 52.78125 
Q 43.3125 58.59375 39.234375 62.25 
Q 35.15625 65.921875 28.609375 65.921875 
Q 23.96875 65.921875 18.8125 64.3125 
Q 13.671875 62.703125 7.8125 59.421875 
L 7.8125 69.390625 
Q 13.765625 71.78125 18.9375 73 
Q 24.125 74.21875 28.421875 74.21875 
Q 39.75 74.21875 46.484375 68.546875 
Q 53.21875 62.890625 53.21875 53.421875 
Q 53.21875 48.921875 51.53125 44.890625 
Q 49.859375 40.875 45.40625 35.40625 
Q 44.1875 33.984375 37.640625 27.21875 
Q 31.109375 20.453125 19.1875 8.296875 
z
" id="DejaVuSans-50"/>
       <path d="M 31.78125 66.40625 
Q 24.171875 66.40625 20.328125 58.90625 
Q 16.5 51.421875 16.5 36.375 
Q 16.5 21.390625 20.328125 13.890625 
Q 24.171875 6.390625 31.78125 6.390625 
Q 39.453125 6.390625 43.28125 13.890625 
Q 47.125 21.390625 47.125 36.375 
Q 47.125 51.421875 43.28125 58.90625 
Q 39.453125 66.40625 31.78125 66.40625 
z
M 31.78125 74.21875 
Q 44.046875 74.21875 50.515625 64.515625 
Q 56.984375 54.828125 56.984375 36.375 
Q 56.984375 17.96875 50.515625 8.265625 
Q 44.046875 -1.421875 31.78125 -1.421875 
Q 19.53125 -1.421875 13.0625 8.265625 
Q 6.59375 17.96875 6.59375 36.375 
Q 6.59375 54.828125 13.0625 64.515625 
Q 19.53125 74.21875 31.78125 74.21875 
z
" id="DejaVuSans-48"/>
      </defs>
      <g transform="translate(61.105698 322.182437)scale(0.1 -0.1)">
       <use xlink:href="#DejaVuSans-50"/>
       <use x="63.623047" xlink:href="#DejaVuSans-48"/>
       <use x="127.246094" xlink:href="#DejaVuSans-48"/>
       <use x="190.869141" xlink:href="#DejaVuSans-48"/>
      </g>
     </g>
    </g>
    <g id="xtick_2">
     <g id="line2d_3">
      <path clip-path="url(#p08afb2c88e)" d="M 114.413024 307.584 
L 114.413024 41.472 
" style="fill:none;stroke:#b0b0b0;stroke-linecap:square;stroke-width:0.8;"/>
     </g>
     <g id="line2d_4">
      <g>
       <use style="stroke:#000000;stroke-width:0.8;" x="114.413024" xlink:href="#m24aa1dd53b" y="307.584"/>
      </g>
     </g>
     <g id="text_2">
      <!-- 3000 -->
      <defs>
       <path d="M 40.578125 39.3125 
Q 47.65625 37.796875 51.625 33 
Q 55.609375 28.21875 55.609375 21.1875 
Q 55.609375 10.40625 48.1875 4.484375 
Q 40.765625 -1.421875 27.09375 -1.421875 
Q 22.515625 -1.421875 17.65625 -0.515625 
Q 12.796875 0.390625 7.625 2.203125 
L 7.625 11.71875 
Q 11.71875 9.328125 16.59375 8.109375 
Q 21.484375 6.890625 26.8125 6.890625 
Q 36.078125 6.890625 40.9375 10.546875 
Q 45.796875 14.203125 45.796875 21.1875 
Q 45.796875 27.640625 41.28125 31.265625 
Q 36.765625 34.90625 28.71875 34.90625 
L 20.21875 34.90625 
L 20.21875 43.015625 
L 29.109375 43.015625 
Q 36.375 43.015625 40.234375 45.921875 
Q 44.09375 48.828125 44.09375 54.296875 
Q 44.09375 59.90625 40.109375 62.90625 
Q 36.140625 65.921875 28.71875 65.921875 
Q 24.65625 65.921875 20.015625 65.03125 
Q 15.375 64.15625 9.8125 62.3125 
L 9.8125 71.09375 
Q 15.4375 72.65625 20.34375 73.4375 
Q 25.25 74.21875 29.59375 74.21875 
Q 40.828125 74.21875 47.359375 69.109375 
Q 53.90625 64.015625 53.90625 55.328125 
Q 53.90625 49.265625 50.4375 45.09375 
Q 46.96875 40.921875 40.578125 39.3125 
z
" id="DejaVuSans-51"/>
      </defs>
      <g transform="translate(101.688024 322.182437)scale(0.1 -0.1)">
       <use xlink:href="#DejaVuSans-51"/>
       <use x="63.623047" xlink:href="#DejaVuSans-48"/>
       <use x="127.246094" xlink:href="#DejaVuSans-48"/>
       <use x="190.869141" xlink:href="#DejaVuSans-48"/>
      </g>
     </g>
    </g>
    <g id="xtick_3">
     <g id="line2d_5">
      <path clip-path="url(#p08afb2c88e)" d="M 154.995349 307.584 
L 154.995349 41.472 
" style="fill:none;stroke:#b0b0b0;stroke-linecap:square;stroke-width:0.8;"/>
     </g>
     <g id="line2d_6">
      <g>
       <use style="stroke:#000000;stroke-width:0.8;" x="154.995349" xlink:href="#m24aa1dd53b" y="307.584"/>
      </g>
     </g>
     <g id="text_3">
      <!-- 4000 -->
      <defs>
       <path d="M 37.796875 64.3125 
L 12.890625 25.390625 
L 37.796875 25.390625 
z
M 35.203125 72.90625 
L 47.609375 72.90625 
L 47.609375 25.390625 
L 58.015625 25.390625 
L 58.015625 17.1875 
L 47.609375 17.1875 
L 47.609375 0 
L 37.796875 0 
L 37.796875 17.1875 
L 4.890625 17.1875 
L 4.890625 26.703125 
z
" id="DejaVuSans-52"/>
      </defs>
      <g transform="translate(142.270349 322.182437)scale(0.1 -0.1)">
       <use xlink:href="#DejaVuSans-52"/>
       <use x="63.623047" xlink:href="#DejaVuSans-48"/>
       <use x="127.246094" xlink:href="#DejaVuSans-48"/>
       <use x="190.869141" xlink:href="#DejaVuSans-48"/>
      </g>
     </g>
    </g>
    <g id="xtick_4">
     <g id="line2d_7">
      <path clip-path="url(#p08afb2c88e)" d="M 195.577675 307.584 
L 195.577675 41.472 
" style="fill:none;stroke:#b0b0b0;stroke-linecap:square;stroke-width:0.8;"/>
     </g>
     <g id="line2d_8">
      <g>
       <use style="stroke:#000000;stroke-width:0.8;" x="195.577675" xlink:href="#m24aa1dd53b" y="307.584"/>
      </g>
     </g>
     <g id="text_4">
      <!-- 5000 -->
      <defs>
       <path d="M 10.796875 72.90625 
L 49.515625 72.90625 
L 49.515625 64.59375 
L 19.828125 64.59375 
L 19.828125 46.734375 
Q 21.96875 47.46875 24.109375 47.828125 
Q 26.265625 48.1875 28.421875 48.1875 
Q 40.625 48.1875 47.75 41.5 
Q 54.890625 34.8125 54.890625 23.390625 
Q 54.890625 11.625 47.5625 5.09375 
Q 40.234375 -1.421875 26.90625 -1.421875 
Q 22.3125 -1.421875 17.546875 -0.640625 
Q 12.796875 0.140625 7.71875 1.703125 
L 7.71875 11.625 
Q 12.109375 9.234375 16.796875 8.0625 
Q 21.484375 6.890625 26.703125 6.890625 
Q 35.15625 6.890625 40.078125 11.328125 
Q 45.015625 15.765625 45.015625 23.390625 
Q 45.015625 31 40.078125 35.4375 
Q 35.15625 39.890625 26.703125 39.890625 
Q 22.75 39.890625 18.8125 39.015625 
Q 14.890625 38.140625 10.796875 36.28125 
z
" id="DejaVuSans-53"/>
      </defs>
      <g transform="translate(182.852675 322.182437)scale(0.1 -0.1)">
       <use xlink:href="#DejaVuSans-53"/>
       <use x="63.623047" xlink:href="#DejaVuSans-48"/>
       <use x="127.246094" xlink:href="#DejaVuSans-48"/>
       <use x="190.869141" xlink:href="#DejaVuSans-48"/>
      </g>
     </g>
    </g>
    <g id="xtick_5">
     <g id="line2d_9">
      <path clip-path="url(#p08afb2c88e)" d="M 236.16 307.584 
L 236.16 41.472 
" style="fill:none;stroke:#b0b0b0;stroke-linecap:square;stroke-width:0.8;"/>
     </g>
     <g id="line2d_10">
      <g>
       <use style="stroke:#000000;stroke-width:0.8;" x="236.16" xlink:href="#m24aa1dd53b" y="307.584"/>
      </g>
     </g>
     <g id="text_5">
      <!-- 6000 -->
      <defs>
       <path d="M 33.015625 40.375 
Q 26.375 40.375 22.484375 35.828125 
Q 18.609375 31.296875 18.609375 23.390625 
Q 18.609375 15.53125 22.484375 10.953125 
Q 26.375 6.390625 33.015625 6.390625 
Q 39.65625 6.390625 43.53125 10.953125 
Q 47.40625 15.53125 47.40625 23.390625 
Q 47.40625 31.296875 43.53125 35.828125 
Q 39.65625 40.375 33.015625 40.375 
z
M 52.59375 71.296875 
L 52.59375 62.3125 
Q 48.875 64.0625 45.09375 64.984375 
Q 41.3125 65.921875 37.59375 65.921875 
Q 27.828125 65.921875 22.671875 59.328125 
Q 17.53125 52.734375 16.796875 39.40625 
Q 19.671875 43.65625 24.015625 45.921875 
Q 28.375 48.1875 33.59375 48.1875 
Q 44.578125 48.1875 50.953125 41.515625 
Q 57.328125 34.859375 57.328125 23.390625 
Q 57.328125 12.15625 50.6875 5.359375 
Q 44.046875 -1.421875 33.015625 -1.421875 
Q 20.359375 -1.421875 13.671875 8.265625 
Q 6.984375 17.96875 6.984375 36.375 
Q 6.984375 53.65625 15.1875 63.9375 
Q 23.390625 74.21875 37.203125 74.21875 
Q 40.921875 74.21875 44.703125 73.484375 
Q 48.484375 72.75 52.59375 71.296875 
z
" id="DejaVuSans-54"/>
      </defs>
      <g transform="translate(223.435 322.182437)scale(0.1 -0.1)">
       <use xlink:href="#DejaVuSans-54"/>
       <use x="63.623047" xlink:href="#DejaVuSans-48"/>
       <use x="127.246094" xlink:href="#DejaVuSans-48"/>
       <use x="190.869141" xlink:href="#DejaVuSans-48"/>
      </g>
     </g>
    </g>
    <g id="xtick_6">
     <g id="line2d_11">
      <path clip-path="url(#p08afb2c88e)" d="M 276.742325 307.584 
L 276.742325 41.472 
" style="fill:none;stroke:#b0b0b0;stroke-linecap:square;stroke-width:0.8;"/>
     </g>
     <g id="line2d_12">
      <g>
       <use style="stroke:#000000;stroke-width:0.8;" x="276.742325" xlink:href="#m24aa1dd53b" y="307.584"/>
      </g>
     </g>
     <g id="text_6">
      <!-- 7000 -->
      <defs>
       <path d="M 8.203125 72.90625 
L 55.078125 72.90625 
L 55.078125 68.703125 
L 28.609375 0 
L 18.3125 0 
L 43.21875 64.59375 
L 8.203125 64.59375 
z
" id="DejaVuSans-55"/>
      </defs>
      <g transform="translate(264.017325 322.182437)scale(0.1 -0.1)">
       <use xlink:href="#DejaVuSans-55"/>
       <use x="63.623047" xlink:href="#DejaVuSans-48"/>
       <use x="127.246094" xlink:href="#DejaVuSans-48"/>
       <use x="190.869141" xlink:href="#DejaVuSans-48"/>
      </g>
     </g>
    </g>
    <g id="xtick_7">
     <g id="line2d_13">
      <path clip-path="url(#p08afb2c88e)" d="M 317.324651 307.584 
L 317.324651 41.472 
" style="fill:none;stroke:#b0b0b0;stroke-linecap:square;stroke-width:0.8;"/>
     </g>
     <g id="line2d_14">
      <g>
       <use style="stroke:#000000;stroke-width:0.8;" x="317.324651" xlink:href="#m24aa1dd53b" y="307.584"/>
      </g>
     </g>
     <g id="text_7">
      <!-- 8000 -->
      <defs>
       <path d="M 31.78125 34.625 
Q 24.75 34.625 20.71875 30.859375 
Q 16.703125 27.09375 16.703125 20.515625 
Q 16.703125 13.921875 20.71875 10.15625 
Q 24.75 6.390625 31.78125 6.390625 
Q 38.8125 6.390625 42.859375 10.171875 
Q 46.921875 13.96875 46.921875 20.515625 
Q 46.921875 27.09375 42.890625 30.859375 
Q 38.875 34.625 31.78125 34.625 
z
M 21.921875 38.8125 
Q 15.578125 40.375 12.03125 44.71875 
Q 8.5 49.078125 8.5 55.328125 
Q 8.5 64.0625 14.71875 69.140625 
Q 20.953125 74.21875 31.78125 74.21875 
Q 42.671875 74.21875 48.875 69.140625 
Q 55.078125 64.0625 55.078125 55.328125 
Q 55.078125 49.078125 51.53125 44.71875 
Q 48 40.375 41.703125 38.8125 
Q 48.828125 37.15625 52.796875 32.3125 
Q 56.78125 27.484375 56.78125 20.515625 
Q 56.78125 9.90625 50.3125 4.234375 
Q 43.84375 -1.421875 31.78125 -1.421875 
Q 19.734375 -1.421875 13.25 4.234375 
Q 6.78125 9.90625 6.78125 20.515625 
Q 6.78125 27.484375 10.78125 32.3125 
Q 14.796875 37.15625 21.921875 38.8125 
z
M 18.3125 54.390625 
Q 18.3125 48.734375 21.84375 45.5625 
Q 25.390625 42.390625 31.78125 42.390625 
Q 38.140625 42.390625 41.71875 45.5625 
Q 45.3125 48.734375 45.3125 54.390625 
Q 45.3125 60.0625 41.71875 63.234375 
Q 38.140625 66.40625 31.78125 66.40625 
Q 25.390625 66.40625 21.84375 63.234375 
Q 18.3125 60.0625 18.3125 54.390625 
z
" id="DejaVuSans-56"/>
      </defs>
      <g transform="translate(304.599651 322.182437)scale(0.1 -0.1)">
       <use xlink:href="#DejaVuSans-56"/>
       <use x="63.623047" xlink:href="#DejaVuSans-48"/>
       <use x="127.246094" xlink:href="#DejaVuSans-48"/>
       <use x="190.869141" xlink:href="#DejaVuSans-48"/>
      </g>
     </g>
    </g>
    <g id="xtick_8">
     <g id="line2d_15">
      <path clip-path="url(#p08afb2c88e)" d="M 357.906976 307.584 
L 357.906976 41.472 
" style="fill:none;stroke:#b0b0b0;stroke-linecap:square;stroke-width:0.8;"/>
     </g>
     <g id="line2d_16">
      <g>
       <use style="stroke:#000000;stroke-width:0.8;" x="357.906976" xlink:href="#m24aa1dd53b" y="307.584"/>
      </g>
     </g>
     <g id="text_8">
      <!-- 9000 -->
      <defs>
       <path d="M 10.984375 1.515625 
L 10.984375 10.5 
Q 14.703125 8.734375 18.5 7.8125 
Q 22.3125 6.890625 25.984375 6.890625 
Q 35.75 6.890625 40.890625 13.453125 
Q 46.046875 20.015625 46.78125 33.40625 
Q 43.953125 29.203125 39.59375 26.953125 
Q 35.25 24.703125 29.984375 24.703125 
Q 19.046875 24.703125 12.671875 31.3125 
Q 6.296875 37.9375 6.296875 49.421875 
Q 6.296875 60.640625 12.9375 67.421875 
Q 19.578125 74.21875 30.609375 74.21875 
Q 43.265625 74.21875 49.921875 64.515625 
Q 56.59375 54.828125 56.59375 36.375 
Q 56.59375 19.140625 48.40625 8.859375 
Q 40.234375 -1.421875 26.421875 -1.421875 
Q 22.703125 -1.421875 18.890625 -0.6875 
Q 15.09375 0.046875 10.984375 1.515625 
z
M 30.609375 32.421875 
Q 37.25 32.421875 41.125 36.953125 
Q 45.015625 41.5 45.015625 49.421875 
Q 45.015625 57.28125 41.125 61.84375 
Q 37.25 66.40625 30.609375 66.40625 
Q 23.96875 66.40625 20.09375 61.84375 
Q 16.21875 57.28125 16.21875 49.421875 
Q 16.21875 41.5 20.09375 36.953125 
Q 23.96875 32.421875 30.609375 32.421875 
z
" id="DejaVuSans-57"/>
      </defs>
      <g transform="translate(345.181976 322.182437)scale(0.1 -0.1)">
       <use xlink:href="#DejaVuSans-57"/>
       <use x="63.623047" xlink:href="#DejaVuSans-48"/>
       <use x="127.246094" xlink:href="#DejaVuSans-48"/>
       <use x="190.869141" xlink:href="#DejaVuSans-48"/>
      </g>
     </g>
    </g>
    <g id="xtick_9">
     <g id="line2d_17">
      <path clip-path="url(#p08afb2c88e)" d="M 398.489302 307.584 
L 398.489302 41.472 
" style="fill:none;stroke:#b0b0b0;stroke-linecap:square;stroke-width:0.8;"/>
     </g>
     <g id="line2d_18">
      <g>
       <use style="stroke:#000000;stroke-width:0.8;" x="398.489302" xlink:href="#m24aa1dd53b" y="307.584"/>
      </g>
     </g>
     <g id="text_9">
      <!-- 10000 -->
      <defs>
       <path d="M 12.40625 8.296875 
L 28.515625 8.296875 
L 28.515625 63.921875 
L 10.984375 60.40625 
L 10.984375 69.390625 
L 28.421875 72.90625 
L 38.28125 72.90625 
L 38.28125 8.296875 
L 54.390625 8.296875 
L 54.390625 0 
L 12.40625 0 
z
" id="DejaVuSans-49"/>
      </defs>
      <g transform="translate(382.583052 322.182437)scale(0.1 -0.1)">
       <use xlink:href="#DejaVuSans-49"/>
       <use x="63.623047" xlink:href="#DejaVuSans-48"/>
       <use x="127.246094" xlink:href="#DejaVuSans-48"/>
       <use x="190.869141" xlink:href="#DejaVuSans-48"/>
       <use x="254.492188" xlink:href="#DejaVuSans-48"/>
      </g>
     </g>
    </g>
    <g id="text_10">
     <!-- Tempo (ms) -->
     <defs>
      <path d="M -0.296875 72.90625 
L 61.375 72.90625 
L 61.375 64.59375 
L 35.5 64.59375 
L 35.5 0 
L 25.59375 0 
L 25.59375 64.59375 
L -0.296875 64.59375 
z
" id="DejaVuSans-84"/>
      <path d="M 56.203125 29.59375 
L 56.203125 25.203125 
L 14.890625 25.203125 
Q 15.484375 15.921875 20.484375 11.0625 
Q 25.484375 6.203125 34.421875 6.203125 
Q 39.59375 6.203125 44.453125 7.46875 
Q 49.3125 8.734375 54.109375 11.28125 
L 54.109375 2.78125 
Q 49.265625 0.734375 44.1875 -0.34375 
Q 39.109375 -1.421875 33.890625 -1.421875 
Q 20.796875 -1.421875 13.15625 6.1875 
Q 5.515625 13.8125 5.515625 26.8125 
Q 5.515625 40.234375 12.765625 48.109375 
Q 20.015625 56 32.328125 56 
Q 43.359375 56 49.78125 48.890625 
Q 56.203125 41.796875 56.203125 29.59375 
z
M 47.21875 32.234375 
Q 47.125 39.59375 43.09375 43.984375 
Q 39.0625 48.390625 32.421875 48.390625 
Q 24.90625 48.390625 20.390625 44.140625 
Q 15.875 39.890625 15.1875 32.171875 
z
" id="DejaVuSans-101"/>
      <path d="M 52 44.1875 
Q 55.375 50.25 60.0625 53.125 
Q 64.75 56 71.09375 56 
Q 79.640625 56 84.28125 50.015625 
Q 88.921875 44.046875 88.921875 33.015625 
L 88.921875 0 
L 79.890625 0 
L 79.890625 32.71875 
Q 79.890625 40.578125 77.09375 44.375 
Q 74.3125 48.1875 68.609375 48.1875 
Q 61.625 48.1875 57.5625 43.546875 
Q 53.515625 38.921875 53.515625 30.90625 
L 53.515625 0 
L 44.484375 0 
L 44.484375 32.71875 
Q 44.484375 40.625 41.703125 44.40625 
Q 38.921875 48.1875 33.109375 48.1875 
Q 26.21875 48.1875 22.15625 43.53125 
Q 18.109375 38.875 18.109375 30.90625 
L 18.109375 0 
L 9.078125 0 
L 9.078125 54.6875 
L 18.109375 54.6875 
L 18.109375 46.1875 
Q 21.1875 51.21875 25.484375 53.609375 
Q 29.78125 56 35.6875 56 
Q 41.65625 56 45.828125 52.96875 
Q 50 49.953125 52 44.1875 
z
" id="DejaVuSans-109"/>
      <path d="M 18.109375 8.203125 
L 18.109375 -20.796875 
L 9.078125 -20.796875 
L 9.078125 54.6875 
L 18.109375 54.6875 
L 18.109375 46.390625 
Q 20.953125 51.265625 25.265625 53.625 
Q 29.59375 56 35.59375 56 
Q 45.5625 56 51.78125 48.09375 
Q 58.015625 40.1875 58.015625 27.296875 
Q 58.015625 14.40625 51.78125 6.484375 
Q 45.5625 -1.421875 35.59375 -1.421875 
Q 29.59375 -1.421875 25.265625 0.953125 
Q 20.953125 3.328125 18.109375 8.203125 
z
M 48.6875 27.296875 
Q 48.6875 37.203125 44.609375 42.84375 
Q 40.53125 48.484375 33.40625 48.484375 
Q 26.265625 48.484375 22.1875 42.84375 
Q 18.109375 37.203125 18.109375 27.296875 
Q 18.109375 17.390625 22.1875 11.75 
Q 26.265625 6.109375 33.40625 6.109375 
Q 40.53125 6.109375 44.609375 11.75 
Q 48.6875 17.390625 48.6875 27.296875 
z
" id="DejaVuSans-112"/>
      <path d="M 30.609375 48.390625 
Q 23.390625 48.390625 19.1875 42.75 
Q 14.984375 37.109375 14.984375 27.296875 
Q 14.984375 17.484375 19.15625 11.84375 
Q 23.34375 6.203125 30.609375 6.203125 
Q 37.796875 6.203125 41.984375 11.859375 
Q 46.1875 17.53125 46.1875 27.296875 
Q 46.1875 37.015625 41.984375 42.703125 
Q 37.796875 48.390625 30.609375 48.390625 
z
M 30.609375 56 
Q 42.328125 56 49.015625 48.375 
Q 55.71875 40.765625 55.71875 27.296875 
Q 55.71875 13.875 49.015625 6.21875 
Q 42.328125 -1.421875 30.609375 -1.421875 
Q 18.84375 -1.421875 12.171875 6.21875 
Q 5.515625 13.875 5.515625 27.296875 
Q 5.515625 40.765625 12.171875 48.375 
Q 18.84375 56 30.609375 56 
z
" id="DejaVuSans-111"/>
      <path id="DejaVuSans-32"/>
      <path d="M 31 75.875 
Q 24.46875 64.65625 21.28125 53.65625 
Q 18.109375 42.671875 18.109375 31.390625 
Q 18.109375 20.125 21.3125 9.0625 
Q 24.515625 -2 31 -13.1875 
L 23.1875 -13.1875 
Q 15.875 -1.703125 12.234375 9.375 
Q 8.59375 20.453125 8.59375 31.390625 
Q 8.59375 42.28125 12.203125 53.3125 
Q 15.828125 64.359375 23.1875 75.875 
z
" id="DejaVuSans-40"/>
      <path d="M 44.28125 53.078125 
L 44.28125 44.578125 
Q 40.484375 46.53125 36.375 47.5 
Q 32.28125 48.484375 27.875 48.484375 
Q 21.1875 48.484375 17.84375 46.4375 
Q 14.5 44.390625 14.5 40.28125 
Q 14.5 37.15625 16.890625 35.375 
Q 19.28125 33.59375 26.515625 31.984375 
L 29.59375 31.296875 
Q 39.15625 29.25 43.1875 25.515625 
Q 47.21875 21.78125 47.21875 15.09375 
Q 47.21875 7.46875 41.1875 3.015625 
Q 35.15625 -1.421875 24.609375 -1.421875 
Q 20.21875 -1.421875 15.453125 -0.5625 
Q 10.6875 0.296875 5.421875 2 
L 5.421875 11.28125 
Q 10.40625 8.6875 15.234375 7.390625 
Q 20.0625 6.109375 24.8125 6.109375 
Q 31.15625 6.109375 34.5625 8.28125 
Q 37.984375 10.453125 37.984375 14.40625 
Q 37.984375 18.0625 35.515625 20.015625 
Q 33.0625 21.96875 24.703125 23.78125 
L 21.578125 24.515625 
Q 13.234375 26.265625 9.515625 29.90625 
Q 5.8125 33.546875 5.8125 39.890625 
Q 5.8125 47.609375 11.28125 51.796875 
Q 16.75 56 26.8125 56 
Q 31.78125 56 36.171875 55.265625 
Q 40.578125 54.546875 44.28125 53.078125 
z
" id="DejaVuSans-115"/>
      <path d="M 8.015625 75.875 
L 15.828125 75.875 
Q 23.140625 64.359375 26.78125 53.3125 
Q 30.421875 42.28125 30.421875 31.390625 
Q 30.421875 20.453125 26.78125 9.375 
Q 23.140625 -1.703125 15.828125 -13.1875 
L 8.015625 -13.1875 
Q 14.5 -2 17.703125 9.0625 
Q 20.90625 20.125 20.90625 31.390625 
Q 20.90625 42.671875 17.703125 53.65625 
Q 14.5 64.65625 8.015625 75.875 
z
" id="DejaVuSans-41"/>
     </defs>
     <g transform="translate(205.973281 335.860562)scale(0.1 -0.1)">
      <use xlink:href="#DejaVuSans-84"/>
      <use x="60.818359" xlink:href="#DejaVuSans-101"/>
      <use x="122.341797" xlink:href="#DejaVuSans-109"/>
      <use x="219.753906" xlink:href="#DejaVuSans-112"/>
      <use x="283.230469" xlink:href="#DejaVuSans-111"/>
      <use x="344.412109" xlink:href="#DejaVuSans-32"/>
      <use x="376.199219" xlink:href="#DejaVuSans-40"/>
      <use x="415.212891" xlink:href="#DejaVuSans-109"/>
      <use x="512.625" xlink:href="#DejaVuSans-115"/>
      <use x="564.724609" xlink:href="#DejaVuSans-41"/>
     </g>
    </g>
   </g>
   <g id="matplotlib.axis_2">
    <g id="ytick_1">
     <g id="line2d_19">
      <path clip-path="url(#p08afb2c88e)" d="M 57.6 295.488 
L 414.72 295.488 
" style="fill:none;stroke:#b0b0b0;stroke-linecap:square;stroke-width:0.8;"/>
     </g>
     <g id="line2d_20">
      <defs>
       <path d="M 0 0 
L -3.5 0 
" id="m054f994f5e" style="stroke:#000000;stroke-width:0.8;"/>
      </defs>
      <g>
       <use style="stroke:#000000;stroke-width:0.8;" x="57.6" xlink:href="#m054f994f5e" y="295.488"/>
      </g>
     </g>
     <g id="text_11">
      <!-- −1.00 -->
      <defs>
       <path d="M 10.59375 35.5 
L 73.1875 35.5 
L 73.1875 27.203125 
L 10.59375 27.203125 
z
" id="DejaVuSans-8722"/>
       <path d="M 10.6875 12.40625 
L 21 12.40625 
L 21 0 
L 10.6875 0 
z
" id="DejaVuSans-46"/>
      </defs>
      <g transform="translate(19.954687 299.287219)scale(0.1 -0.1)">
       <use xlink:href="#DejaVuSans-8722"/>
       <use x="83.789062" xlink:href="#DejaVuSans-49"/>
       <use x="147.412109" xlink:href="#DejaVuSans-46"/>
       <use x="179.199219" xlink:href="#DejaVuSans-48"/>
       <use x="242.822266" xlink:href="#DejaVuSans-48"/>
      </g>
     </g>
    </g>
    <g id="ytick_2">
     <g id="line2d_21">
      <path clip-path="url(#p08afb2c88e)" d="M 57.6 265.248 
L 414.72 265.248 
" style="fill:none;stroke:#b0b0b0;stroke-linecap:square;stroke-width:0.8;"/>
     </g>
     <g id="line2d_22">
      <g>
       <use style="stroke:#000000;stroke-width:0.8;" x="57.6" xlink:href="#m054f994f5e" y="265.248"/>
      </g>
     </g>
     <g id="text_12">
      <!-- −0.75 -->
      <g transform="translate(19.954687 269.047219)scale(0.1 -0.1)">
       <use xlink:href="#DejaVuSans-8722"/>
       <use x="83.789062" xlink:href="#DejaVuSans-48"/>
       <use x="147.412109" xlink:href="#DejaVuSans-46"/>
       <use x="179.199219" xlink:href="#DejaVuSans-55"/>
       <use x="242.822266" xlink:href="#DejaVuSans-53"/>
      </g>
     </g>
    </g>
    <g id="ytick_3">
     <g id="line2d_23">
      <path clip-path="url(#p08afb2c88e)" d="M 57.6 235.008 
L 414.72 235.008 
" style="fill:none;stroke:#b0b0b0;stroke-linecap:square;stroke-width:0.8;"/>
     </g>
     <g id="line2d_24">
      <g>
       <use style="stroke:#000000;stroke-width:0.8;" x="57.6" xlink:href="#m054f994f5e" y="235.008"/>
      </g>
     </g>
     <g id="text_13">
      <!-- −0.50 -->
      <g transform="translate(19.954687 238.807219)scale(0.1 -0.1)">
       <use xlink:href="#DejaVuSans-8722"/>
       <use x="83.789062" xlink:href="#DejaVuSans-48"/>
       <use x="147.412109" xlink:href="#DejaVuSans-46"/>
       <use x="179.199219" xlink:href="#DejaVuSans-53"/>
       <use x="242.822266" xlink:href="#DejaVuSans-48"/>
      </g>
     </g>
    </g>
    <g id="ytick_4">
     <g id="line2d_25">
      <path clip-path="url(#p08afb2c88e)" d="M 57.6 204.768 
L 414.72 204.768 
" style="fill:none;stroke:#b0b0b0;stroke-linecap:square;stroke-width:0.8;"/>
     </g>
     <g id="line2d_26">
      <g>
       <use style="stroke:#000000;stroke-width:0.8;" x="57.6" xlink:href="#m054f994f5e" y="204.768"/>
      </g>
     </g>
     <g id="text_14">
      <!-- −0.25 -->
      <g transform="translate(19.954687 208.567219)scale(0.1 -0.1)">
       <use xlink:href="#DejaVuSans-8722"/>
       <use x="83.789062" xlink:href="#DejaVuSans-48"/>
       <use x="147.412109" xlink:href="#DejaVuSans-46"/>
       <use x="179.199219" xlink:href="#DejaVuSans-50"/>
       <use x="242.822266" xlink:href="#DejaVuSans-53"/>
      </g>
     </g>
    </g>
    <g id="ytick_5">
     <g id="line2d_27">
      <path clip-path="url(#p08afb2c88e)" d="M 57.6 174.528 
L 414.72 174.528 
" style="fill:none;stroke:#b0b0b0;stroke-linecap:square;stroke-width:0.8;"/>
     </g>
     <g id="line2d_28">
      <g>
       <use style="stroke:#000000;stroke-width:0.8;" x="57.6" xlink:href="#m054f994f5e" y="174.528"/>
      </g>
     </g>
     <g id="text_15">
      <!-- 0.00 -->
      <g transform="translate(28.334375 178.327219)scale(0.1 -0.1)">
       <use xlink:href="#DejaVuSans-48"/>
       <use x="63.623047" xlink:href="#DejaVuSans-46"/>
       <use x="95.410156" xlink:href="#DejaVuSans-48"/>
       <use x="159.033203" xlink:href="#DejaVuSans-48"/>
      </g>
     </g>
    </g>
    <g id="ytick_6">
     <g id="line2d_29">
      <path clip-path="url(#p08afb2c88e)" d="M 57.6 144.288 
L 414.72 144.288 
" style="fill:none;stroke:#b0b0b0;stroke-linecap:square;stroke-width:0.8;"/>
     </g>
     <g id="line2d_30">
      <g>
       <use style="stroke:#000000;stroke-width:0.8;" x="57.6" xlink:href="#m054f994f5e" y="144.288"/>
      </g>
     </g>
     <g id="text_16">
      <!-- 0.25 -->
      <g transform="translate(28.334375 148.087219)scale(0.1 -0.1)">
       <use xlink:href="#DejaVuSans-48"/>
       <use x="63.623047" xlink:href="#DejaVuSans-46"/>
       <use x="95.410156" xlink:href="#DejaVuSans-50"/>
       <use x="159.033203" xlink:href="#DejaVuSans-53"/>
      </g>
     </g>
    </g>
    <g id="ytick_7">
     <g id="line2d_31">
      <path clip-path="url(#p08afb2c88e)" d="M 57.6 114.048 
L 414.72 114.048 
" style="fill:none;stroke:#b0b0b0;stroke-linecap:square;stroke-width:0.8;"/>
     </g>
     <g id="line2d_32">
      <g>
       <use style="stroke:#000000;stroke-width:0.8;" x="57.6" xlink:href="#m054f994f5e" y="114.048"/>
      </g>
     </g>
     <g id="text_17">
      <!-- 0.50 -->
      <g transform="translate(28.334375 117.847219)scale(0.1 -0.1)">
       <use xlink:href="#DejaVuSans-48"/>
       <use x="63.623047" xlink:href="#DejaVuSans-46"/>
       <use x="95.410156" xlink:href="#DejaVuSans-53"/>
       <use x="159.033203" xlink:href="#DejaVuSans-48"/>
      </g>
     </g>
    </g>
    <g id="ytick_8">
     <g id="line2d_33">
      <path clip-path="url(#p08afb2c88e)" d="M 57.6 83.808 
L 414.72 83.808 
" style="fill:none;stroke:#b0b0b0;stroke-linecap:square;stroke-width:0.8;"/>
     </g>
     <g id="line2d_34">
      <g>
       <use style="stroke:#000000;stroke-width:0.8;" x="57.6" xlink:href="#m054f994f5e" y="83.808"/>
      </g>
     </g>
     <g id="text_18">
      <!-- 0.75 -->
      <g transform="translate(28.334375 87.607219)scale(0.1 -0.1)">
       <use xlink:href="#DejaVuSans-48"/>
       <use x="63.623047" xlink:href="#DejaVuSans-46"/>
       <use x="95.410156" xlink:href="#DejaVuSans-55"/>
       <use x="159.033203" xlink:href="#DejaVuSans-53"/>
      </g>
     </g>
    </g>
    <g id="ytick_9">
     <g id="line2d_35">
      <path clip-path="url(#p08afb2c88e)" d="M 57.6 53.568 
L 414.72 53.568 
" style="fill:none;stroke:#b0b0b0;stroke-linecap:square;stroke-width:0.8;"/>
     </g>
     <g id="line2d_36">
      <g>
       <use style="stroke:#000000;stroke-width:0.8;" x="57.6" xlink:href="#m054f994f5e" y="53.568"/>
      </g>
     </g>
     <g id="text_19">
      <!-- 1.00 -->
      <g transform="translate(28.334375 57.367219)scale(0.1 -0.1)">
       <use xlink:href="#DejaVuSans-49"/>
       <use x="63.623047" xlink:href="#DejaVuSans-46"/>
       <use x="95.410156" xlink:href="#DejaVuSans-48"/>
       <use x="159.033203" xlink:href="#DejaVuSans-48"/>
      </g>
     </g>
    </g>
    <g id="text_20">
     <!-- CST normalizado -->
     <defs>
      <path d="M 64.40625 67.28125 
L 64.40625 56.890625 
Q 59.421875 61.53125 53.78125 63.8125 
Q 48.140625 66.109375 41.796875 66.109375 
Q 29.296875 66.109375 22.65625 58.46875 
Q 16.015625 50.828125 16.015625 36.375 
Q 16.015625 21.96875 22.65625 14.328125 
Q 29.296875 6.6875 41.796875 6.6875 
Q 48.140625 6.6875 53.78125 8.984375 
Q 59.421875 11.28125 64.40625 15.921875 
L 64.40625 5.609375 
Q 59.234375 2.09375 53.4375 0.328125 
Q 47.65625 -1.421875 41.21875 -1.421875 
Q 24.65625 -1.421875 15.125 8.703125 
Q 5.609375 18.84375 5.609375 36.375 
Q 5.609375 53.953125 15.125 64.078125 
Q 24.65625 74.21875 41.21875 74.21875 
Q 47.75 74.21875 53.53125 72.484375 
Q 59.328125 70.75 64.40625 67.28125 
z
" id="DejaVuSans-67"/>
      <path d="M 53.515625 70.515625 
L 53.515625 60.890625 
Q 47.90625 63.578125 42.921875 64.890625 
Q 37.9375 66.21875 33.296875 66.21875 
Q 25.25 66.21875 20.875 63.09375 
Q 16.5 59.96875 16.5 54.203125 
Q 16.5 49.359375 19.40625 46.890625 
Q 22.3125 44.4375 30.421875 42.921875 
L 36.375 41.703125 
Q 47.40625 39.59375 52.65625 34.296875 
Q 57.90625 29 57.90625 20.125 
Q 57.90625 9.515625 50.796875 4.046875 
Q 43.703125 -1.421875 29.984375 -1.421875 
Q 24.8125 -1.421875 18.96875 -0.25 
Q 13.140625 0.921875 6.890625 3.21875 
L 6.890625 13.375 
Q 12.890625 10.015625 18.65625 8.296875 
Q 24.421875 6.59375 29.984375 6.59375 
Q 38.421875 6.59375 43.015625 9.90625 
Q 47.609375 13.234375 47.609375 19.390625 
Q 47.609375 24.75 44.3125 27.78125 
Q 41.015625 30.8125 33.5 32.328125 
L 27.484375 33.5 
Q 16.453125 35.6875 11.515625 40.375 
Q 6.59375 45.0625 6.59375 53.421875 
Q 6.59375 63.09375 13.40625 68.65625 
Q 20.21875 74.21875 32.171875 74.21875 
Q 37.3125 74.21875 42.625 73.28125 
Q 47.953125 72.359375 53.515625 70.515625 
z
" id="DejaVuSans-83"/>
      <path d="M 54.890625 33.015625 
L 54.890625 0 
L 45.90625 0 
L 45.90625 32.71875 
Q 45.90625 40.484375 42.875 44.328125 
Q 39.84375 48.1875 33.796875 48.1875 
Q 26.515625 48.1875 22.3125 43.546875 
Q 18.109375 38.921875 18.109375 30.90625 
L 18.109375 0 
L 9.078125 0 
L 9.078125 54.6875 
L 18.109375 54.6875 
L 18.109375 46.1875 
Q 21.34375 51.125 25.703125 53.5625 
Q 30.078125 56 35.796875 56 
Q 45.21875 56 50.046875 50.171875 
Q 54.890625 44.34375 54.890625 33.015625 
z
" id="DejaVuSans-110"/>
      <path d="M 41.109375 46.296875 
Q 39.59375 47.171875 37.8125 47.578125 
Q 36.03125 48 33.890625 48 
Q 26.265625 48 22.1875 43.046875 
Q 18.109375 38.09375 18.109375 28.8125 
L 18.109375 0 
L 9.078125 0 
L 9.078125 54.6875 
L 18.109375 54.6875 
L 18.109375 46.1875 
Q 20.953125 51.171875 25.484375 53.578125 
Q 30.03125 56 36.53125 56 
Q 37.453125 56 38.578125 55.875 
Q 39.703125 55.765625 41.0625 55.515625 
z
" id="DejaVuSans-114"/>
      <path d="M 34.28125 27.484375 
Q 23.390625 27.484375 19.1875 25 
Q 14.984375 22.515625 14.984375 16.5 
Q 14.984375 11.71875 18.140625 8.90625 
Q 21.296875 6.109375 26.703125 6.109375 
Q 34.1875 6.109375 38.703125 11.40625 
Q 43.21875 16.703125 43.21875 25.484375 
L 43.21875 27.484375 
z
M 52.203125 31.203125 
L 52.203125 0 
L 43.21875 0 
L 43.21875 8.296875 
Q 40.140625 3.328125 35.546875 0.953125 
Q 30.953125 -1.421875 24.3125 -1.421875 
Q 15.921875 -1.421875 10.953125 3.296875 
Q 6 8.015625 6 15.921875 
Q 6 25.140625 12.171875 29.828125 
Q 18.359375 34.515625 30.609375 34.515625 
L 43.21875 34.515625 
L 43.21875 35.40625 
Q 43.21875 41.609375 39.140625 45 
Q 35.0625 48.390625 27.6875 48.390625 
Q 23 48.390625 18.546875 47.265625 
Q 14.109375 46.140625 10.015625 43.890625 
L 10.015625 52.203125 
Q 14.9375 54.109375 19.578125 55.046875 
Q 24.21875 56 28.609375 56 
Q 40.484375 56 46.34375 49.84375 
Q 52.203125 43.703125 52.203125 31.203125 
z
" id="DejaVuSans-97"/>
      <path d="M 9.421875 75.984375 
L 18.40625 75.984375 
L 18.40625 0 
L 9.421875 0 
z
" id="DejaVuSans-108"/>
      <path d="M 9.421875 54.6875 
L 18.40625 54.6875 
L 18.40625 0 
L 9.421875 0 
z
M 9.421875 75.984375 
L 18.40625 75.984375 
L 18.40625 64.59375 
L 9.421875 64.59375 
z
" id="DejaVuSans-105"/>
      <path d="M 5.515625 54.6875 
L 48.1875 54.6875 
L 48.1875 46.484375 
L 14.40625 7.171875 
L 48.1875 7.171875 
L 48.1875 0 
L 4.296875 0 
L 4.296875 8.203125 
L 38.09375 47.515625 
L 5.515625 47.515625 
z
" id="DejaVuSans-122"/>
      <path d="M 45.40625 46.390625 
L 45.40625 75.984375 
L 54.390625 75.984375 
L 54.390625 0 
L 45.40625 0 
L 45.40625 8.203125 
Q 42.578125 3.328125 38.25 0.953125 
Q 33.9375 -1.421875 27.875 -1.421875 
Q 17.96875 -1.421875 11.734375 6.484375 
Q 5.515625 14.40625 5.515625 27.296875 
Q 5.515625 40.1875 11.734375 48.09375 
Q 17.96875 56 27.875 56 
Q 33.9375 56 38.25 53.625 
Q 42.578125 51.265625 45.40625 46.390625 
z
M 14.796875 27.296875 
Q 14.796875 17.390625 18.875 11.75 
Q 22.953125 6.109375 30.078125 6.109375 
Q 37.203125 6.109375 41.296875 11.75 
Q 45.40625 17.390625 45.40625 27.296875 
Q 45.40625 37.203125 41.296875 42.84375 
Q 37.203125 48.484375 30.078125 48.484375 
Q 22.953125 48.484375 18.875 42.84375 
Q 14.796875 37.203125 14.796875 27.296875 
z
" id="DejaVuSans-100"/>
     </defs>
     <g transform="translate(13.875 216.753781)rotate(-90)scale(0.1 -0.1)">
      <use xlink:href="#DejaVuSans-67"/>
      <use x="69.824219" xlink:href="#DejaVuSans-83"/>
      <use x="133.300781" xlink:href="#DejaVuSans-84"/>
      <use x="194.384766" xlink:href="#DejaVuSans-32"/>
      <use x="226.171875" xlink:href="#DejaVuSans-110"/>
      <use x="289.550781" xlink:href="#DejaVuSans-111"/>
      <use x="350.732422" xlink:href="#DejaVuSans-114"/>
      <use x="391.830078" xlink:href="#DejaVuSans-109"/>
      <use x="489.242188" xlink:href="#DejaVuSans-97"/>
      <use x="550.521484" xlink:href="#DejaVuSans-108"/>
      <use x="578.304688" xlink:href="#DejaVuSans-105"/>
      <use x="606.087891" xlink:href="#DejaVuSans-122"/>
      <use x="658.578125" xlink:href="#DejaVuSans-97"/>
      <use x="719.857422" xlink:href="#DejaVuSans-100"/>
      <use x="783.333984" xlink:href="#DejaVuSans-111"/>
     </g>
    </g>
   </g>
   <g id="line2d_37">
    <path clip-path="url(#p08afb2c88e)" d="M 73.832727 172.621181 
L 74.370443 162.097876 
L 74.622054 160.478892 
L 74.764092 160.448514 
L 74.908159 160.369394 
L 75.042081 159.976739 
L 75.356594 158.692733 
L 75.417467 158.793338 
L 75.529068 159.513613 
L 75.719805 162.50628 
L 75.955183 170.093928 
L 76.507103 189.296245 
L 76.985974 196.420282 
L 77.840232 208.852386 
L 77.888931 208.79088 
L 78.045173 208.129239 
L 78.32722 207.342218 
L 78.538248 206.674474 
L 78.733043 204.831017 
L 79.049585 199.302181 
L 79.305254 190.760931 
L 80.520695 143.228077 
L 80.916372 128.313489 
L 81.279584 118.263644 
L 81.521049 116.278669 
L 81.573806 116.242879 
L 81.624534 116.318703 
L 81.74831 116.922894 
L 81.922814 119.082796 
L 82.503141 126.924054 
L 82.8278 129.940718 
L 83.387836 137.204248 
L 83.444651 137.087167 
L 83.572485 136.100052 
L 84.240065 130.154702 
L 84.288763 130.09032 
L 84.339491 130.198921 
L 84.449064 131.088083 
L 84.649946 134.964028 
L 85.254623 153.27381 
L 86.267152 183.513878 
L 86.370637 183.932551 
L 86.417306 183.849271 
L 86.539053 183.048683 
L 86.725732 180.138343 
L 87.042274 171.067989 
L 87.506942 151.204399 
L 88.290181 116.873498 
L 88.59049 109.800644 
L 88.762965 108.921677 
L 88.785285 108.937027 
L 88.870508 109.238851 
L 89.024721 110.765612 
L 89.300681 116.370564 
L 89.915503 127.772245 
L 89.982464 127.931978 
L 90.035221 127.808314 
L 90.144793 126.788526 
L 90.345676 122.302659 
L 90.871217 110.568715 
L 91.309506 104.337131 
L 91.358205 104.315514 
L 91.406903 104.388863 
L 91.538796 104.981029 
L 91.709242 106.918358 
L 91.908095 112.254311 
L 92.297685 130.503392 
L 92.794819 149.658605 
L 92.947003 151.158246 
L 92.979468 151.092205 
L 93.06672 150.23968 
L 93.243254 145.806385 
L 93.584145 130.552419 
L 94.073162 111.366332 
L 94.343035 107.436673 
L 94.519568 107.058916 
L 94.614936 106.813204 
L 94.763062 105.605688 
L 95.168885 102.050388 
L 95.187147 102.057115 
L 95.286574 102.25999 
L 95.444845 103.169777 
L 95.749212 106.710295 
L 96.019085 112.224825 
L 96.455345 127.261783 
L 97.035672 154.973483 
L 97.620057 181.687842 
L 97.987327 188.772958 
L 98.019793 188.832608 
L 98.068492 188.645712 
L 98.176035 187.009999 
L 98.383005 179.706195 
L 98.746217 157.413315 
L 99.156098 137.529239 
L 99.470611 131.89707 
L 99.689756 130.943618 
L 99.750629 130.941379 
L 99.785124 131.000595 
L 99.890638 131.559405 
L 100.054997 133.954348 
L 100.355306 141.965785 
L 100.750984 159.597588 
L 101.406388 187.198279 
L 101.619446 189.071433 
L 101.65597 189.051399 
L 101.682348 188.98548 
L 101.810182 188.179408 
L 102.017152 185.270401 
L 102.650237 175.306565 
L 103.275204 171.679136 
L 103.279263 171.679956 
L 103.358398 171.814171 
L 103.478116 172.592872 
L 103.666824 175.66722 
L 103.910318 183.671064 
L 104.508907 204.801421 
L 104.910672 210.640662 
L 104.971546 210.726756 
L 105.024303 210.634323 
L 105.141991 209.886327 
L 105.363165 206.790043 
L 105.685795 198.140043 
L 106.014511 191.887632 
L 106.08756 191.683604 
L 106.142346 191.787108 
L 106.27018 192.659563 
L 106.607013 197.134359 
L 106.885002 199.100137 
L 107.169079 199.745715 
L 107.193428 199.73141 
L 107.382136 199.422607 
L 107.558669 199.271057 
L 107.589106 199.302687 
L 107.733173 199.704862 
L 108.06189 200.604461 
L 108.096385 200.570391 
L 108.19987 200.166149 
L 108.374374 198.442448 
L 108.822808 190.825061 
L 109.196166 181.544475 
L 109.549232 174.506876 
L 109.648659 174.292926 
L 109.697357 174.327309 
L 109.908385 174.397773 
L 109.910415 174.395876 
L 110.078831 174.082623 
L 110.417694 173.386898 
L 110.429868 173.392102 
L 110.559732 173.584224 
L 110.764673 174.433244 
L 111.111651 176.597344 
L 111.209049 176.313759 
L 111.345 174.937248 
L 111.556028 169.913496 
L 112.517829 143.628147 
L 112.56247 143.578735 
L 112.611168 143.683775 
L 112.714653 144.565632 
L 112.874953 148.250327 
L 113.662251 171.1332 
L 113.822551 171.204357 
L 113.930094 171.390549 
L 114.070103 172.209855 
L 114.410995 176.049473 
L 114.652459 181.236268 
L 115.015671 195.230251 
L 115.539183 214.392876 
L 115.738037 215.567776 
L 115.84558 215.55411 
L 115.861813 215.528301 
L 115.955152 215.106646 
L 116.109365 213.110351 
L 116.894633 200.866291 
L 117.180738 199.615191 
L 117.424232 198.909204 
L 117.462785 198.956722 
L 117.59062 199.524346 
L 117.923395 200.845942 
L 118.006589 200.727838 
L 118.223704 199.814129 
L 118.66808 198.126761 
L 118.702575 198.15866 
L 118.814177 198.564687 
L 119.238262 201.318829 
L 119.443203 203.633516 
L 119.690755 209.620586 
L 120.829089 242.771415 
L 120.969098 243.106069 
L 120.999535 243.08305 
L 121.090845 242.773279 
L 121.241 241.28345 
L 121.47029 236.241418 
L 122.373247 213.653444 
L 122.533547 213.296631 
L 122.553838 213.30748 
L 122.649207 213.539114 
L 123.119962 215.419938 
L 123.211272 215.32256 
L 123.357368 215.177925 
L 123.39795 215.227851 
L 123.517668 215.68625 
L 124.231917 220.681696 
L 124.686439 226.026278 
L 125.118641 229.884645 
L 125.21198 229.49112 
L 125.370251 227.249783 
L 125.690852 219.016978 
L 126.179869 199.82931 
L 126.855565 173.74326 
L 127.295883 164.919367 
L 127.372989 164.741519 
L 127.427775 164.819825 
L 127.584017 165.515982 
L 127.799104 167.535081 
L 128.762934 178.245845 
L 128.915118 178.172695 
L 129.053098 177.993851 
L 129.178903 177.146545 
L 129.452833 173.272409 
L 129.807929 165.699405 
L 130.633779 144.616883 
L 130.676391 144.626245 
L 130.712915 144.694329 
L 130.879302 145.402505 
L 131.078156 147.235857 
L 131.68892 157.44258 
L 131.979083 165.283527 
L 132.346353 181.159118 
L 132.944943 221.816752 
L 133.54759 255.323575 
L 133.789055 260.106517 
L 133.811375 260.127044 
L 133.853987 259.989198 
L 133.967617 258.658764 
L 134.245606 252.125228 
L 134.568236 238.839354 
L 135.124213 217.445423 
L 135.469163 212.345251 
L 135.627434 211.572144 
L 135.661929 211.616402 
L 135.767443 212.181497 
L 136.347771 217.529933 
L 136.932156 225.564229 
L 137.013321 225.411278 
L 137.159417 224.473351 
L 137.475959 220.669594 
L 138.088752 210.626701 
L 138.405294 198.030319 
L 138.928806 178.474549 
L 139.070845 177.486923 
L 139.10534 177.537653 
L 139.216941 178.164753 
L 139.454348 180.935962 
L 139.772919 187.819875 
L 141.081699 216.837195 
L 142.138868 233.769093 
L 142.660351 240.464742 
L 143.325901 251.02414 
L 144.082762 269.684443 
L 144.115228 269.665299 
L 144.141606 269.594297 
L 144.26944 268.715677 
L 144.519022 265.226074 
L 144.811215 257.854204 
L 145.411833 242.653374 
L 145.645181 240.576437 
L 145.64721 240.576577 
L 145.701997 240.700574 
L 145.813598 241.695424 
L 146.006364 245.861803 
L 146.540022 257.609271 
L 146.602924 257.748117 
L 146.655681 257.632437 
L 146.771341 256.668162 
L 146.939757 252.985163 
L 147.2563 239.791326 
L 148.70103 178.275661 
L 148.966845 175.932881 
L 149.141349 175.40577 
L 149.171785 175.435208 
L 149.271212 175.831145 
L 149.431512 177.543637 
L 149.679064 183.219794 
L 150.021985 189.070474 
L 150.05648 189.115044 
L 150.107208 188.984137 
L 150.235042 187.831817 
L 150.981757 179.96937 
L 151.535706 177.333997 
L 151.665569 177.17462 
L 151.700064 177.198406 
L 151.82384 177.484559 
L 151.971966 178.498828 
L 152.19314 181.994032 
L 152.6294 188.622209 
L 152.947971 191.446357 
L 153.262484 198.188883 
L 153.761646 214.173127 
L 154.690982 246.64099 
L 154.713302 246.615488 
L 154.784321 246.158586 
L 154.922301 243.477738 
L 155.196232 232.712579 
L 155.88816 206.254072 
L 156.16412 201.802267 
L 156.429934 198.06932 
L 156.724156 189.776443 
L 157.328833 164.852802 
L 158.511808 119.834675 
L 158.66602 118.530476 
L 158.698486 118.599132 
L 158.793855 119.455651 
L 158.994737 123.717016 
L 159.548686 141.061974 
L 160.54904 190.10344 
L 161.348512 231.95179 
L 161.713753 240.892444 
L 161.861879 241.953497 
L 161.898403 241.874182 
L 161.993771 240.972904 
L 162.192624 236.441378 
L 162.43206 226.185732 
L 162.768894 199.23202 
L 163.617064 131.753989 
L 163.90114 124.629742 
L 164.071586 123.68886 
L 164.089848 123.698695 
L 164.179129 123.945419 
L 164.341459 125.172946 
L 165.09629 132.422357 
L 165.433123 132.798504 
L 165.556899 132.752031 
L 165.745607 132.303473 
L 165.934315 131.054292 
L 166.348255 128.190652 
L 166.38275 128.231143 
L 166.472031 128.709928 
L 166.636389 131.167524 
L 167.019892 140.977586 
L 167.413541 148.465032 
L 167.48456 148.700974 
L 167.537317 148.555465 
L 167.657035 147.317461 
L 168.022276 140.289436 
L 168.758845 125.275125 
L 168.917116 124.634961 
L 168.945523 124.661539 
L 169.038863 125.061041 
L 169.223512 127.040209 
L 169.830218 134.707159 
L 169.874859 134.648072 
L 169.970227 134.08541 
L 170.132556 131.474691 
L 170.394312 122.92142 
L 171.076096 99.561404 
L 171.175522 99.136501 
L 171.222192 99.221079 
L 171.335822 100.006814 
L 172.334148 109.049732 
L 172.522855 110.725808 
L 172.705476 114.9654 
L 173.001727 127.957543 
L 173.993965 177.629245 
L 174.131945 178.832523 
L 174.168469 178.757662 
L 174.269925 177.871798 
L 175.000406 169.955233 
L 175.185056 168.68191 
L 175.40623 165.058757 
L 175.676102 156.636259 
L 176.692689 119.569898 
L 177.260842 105.570238 
L 177.38056 105.093112 
L 177.421142 105.153762 
L 177.520569 105.768707 
L 177.67884 108.405533 
L 177.889868 116.335398 
L 178.368739 145.833181 
L 179.028202 184.029241 
L 179.300104 188.822356 
L 179.375181 189.089552 
L 179.425909 188.930324 
L 179.529394 187.553406 
L 179.701869 181.641563 
L 180.065081 159.250244 
L 181.152687 92.038019 
L 181.39821 88.845768 
L 181.42053 88.841914 
L 181.457054 88.94249 
L 181.55851 89.933165 
L 181.726927 94.193645 
L 182.045498 109.692594 
L 182.918018 151.684165 
L 183.175716 155.605135 
L 183.376598 156.311658 
L 183.392831 156.303326 
L 183.469938 156.081089 
L 183.624151 154.751152 
L 183.997508 151.721824 
L 184.316079 151.399622 
L 184.565661 150.656069 
L 184.614359 150.715478 
L 184.717844 151.216586 
L 184.867999 153.28015 
L 185.133813 161.101751 
L 185.413831 166.222703 
L 185.48485 166.384961 
L 185.539636 166.287891 
L 186.207216 164.544788 
L 186.511583 164.300063 
L 186.663767 164.314014 
L 186.777397 164.620035 
L 186.933639 165.892078 
L 187.274531 170.722433 
L 187.52817 178.115114 
L 187.972547 198.445048 
L 188.832892 239.926838 
L 189.125085 245.15936 
L 189.234657 245.634382 
L 189.279298 245.540176 
L 189.386841 244.638971 
L 189.620189 240.341322 
L 190.060507 227.482287 
L 190.541408 214.564246 
L 191.040571 201.793105 
L 192.609077 151.893831 
L 192.933736 147.891033 
L 193.165055 144.753153 
L 193.700742 132.89082 
L 194.134973 125.816413 
L 194.459631 123.692869 
L 194.636165 123.317185 
L 194.664572 123.340352 
L 194.749795 123.656937 
L 194.891833 125.285772 
L 195.10692 130.75754 
L 195.583762 142.465261 
L 195.719713 143.142035 
L 195.756237 143.095928 
L 195.867838 142.534213 
L 196.160031 141.048088 
L 196.188439 141.073244 
L 196.285836 141.448146 
L 196.494835 143.275684 
L 196.707892 147.276126 
L 197.014289 158.227854 
L 197.986236 195.132334 
L 198.199293 195.916118 
L 198.284516 195.793821 
L 198.432641 195.119438 
L 198.613232 192.905167 
L 198.82629 187.222778 
L 199.157036 171.208016 
L 199.842877 139.328707 
L 199.90375 139.015891 
L 199.958537 139.27115 
L 200.094487 141.490481 
L 200.419146 151.129186 
L 200.918309 173.137611 
L 201.567626 213.470572 
L 201.92475 228.271358 
L 202.202739 232.163784 
L 202.225059 232.17862 
L 202.265642 232.05936 
L 202.371156 230.894238 
L 202.586242 225.488907 
L 202.916988 210.96851 
L 204.365777 136.729241 
L 204.668115 131.236741 
L 204.759426 130.982736 
L 204.808124 131.058229 
L 204.919726 131.725762 
L 205.100317 134.429991 
L 205.493966 144.508312 
L 206.137196 167.868413 
L 206.599834 192.272409 
L 207.279588 229.712575 
L 207.523082 234.115121 
L 207.539315 234.122365 
L 207.577868 234.003152 
L 207.685411 232.775729 
L 207.983691 225.932751 
L 208.764901 204.125851 
L 209.949905 157.133499 
L 210.727057 121.966291 
L 210.873153 120.175118 
L 210.909677 120.284963 
L 211.007075 121.595092 
L 211.218103 128.067375 
L 211.567111 146.607586 
L 212.029749 167.674859 
L 212.30368 172.360882 
L 212.466009 172.876215 
L 212.484271 172.869534 
L 212.599931 172.672487 
L 212.823134 172.153803 
L 212.87792 172.236455 
L 212.995609 172.874089 
L 213.224899 175.671118 
L 213.860012 186.906966 
L 214.551941 201.450933 
L 215.444752 217.862959 
L 215.477218 217.83092 
L 215.562441 217.425311 
L 215.692304 215.4265 
L 215.911449 207.817418 
L 216.313214 184.975825 
L 216.958473 151.322537 
L 217.289219 143.006922 
L 217.595615 140.422183 
L 217.881721 136.658949 
L 218.196234 133.824388 
L 218.234787 133.803685 
L 218.279427 133.898087 
L 218.389 134.728137 
L 218.577707 138.153007 
L 218.863813 148.05635 
L 219.709954 181.551333 
L 219.815468 182.051965 
L 219.862138 181.955471 
L 219.981856 181.027041 
L 220.353184 178.070608 
L 220.367388 178.075225 
L 220.485077 178.266772 
L 220.681901 179.024123 
L 220.846259 180.741265 
L 221.041055 185.638657 
L 222.163156 219.730278 
L 222.288961 220.248005 
L 222.327514 220.198184 
L 222.447232 219.616737 
L 222.731309 218.331939 
L 222.7516 218.341641 
L 223.291345 218.932476 
L 223.756012 221.083273 
L 223.958924 224.343967 
L 225.02421 247.013639 
L 225.089142 246.849415 
L 225.219005 245.636878 
L 225.432062 241.134707 
L 226.272116 220.305071 
L 226.485174 219.177652 
L 226.495319 219.180732 
L 226.568367 219.353871 
L 226.698231 220.395475 
L 226.949841 224.841917 
L 227.690469 242.073331 
L 228.027302 248.869415 
L 228.084117 248.997781 
L 228.138903 248.865202 
L 228.254563 247.83019 
L 228.439213 243.721709 
L 228.863298 227.606228 
L 229.417247 209.701122 
L 229.612042 208.229147 
L 229.620158 208.231419 
L 229.683061 208.398657 
L 229.808866 209.544055 
L 230.03004 214.093442 
L 230.480504 228.988403 
L 230.760522 235.350344 
L 230.774725 235.36014 
L 230.81125 235.221683 
L 230.908647 233.732655 
L 231.10953 226.472847 
L 231.525498 201.801933 
L 232.083505 170.964409 
L 232.343232 166.110461 
L 232.391931 166.008303 
L 232.446717 166.145522 
L 232.582668 167.29138 
L 232.941822 172.875204 
L 233.546498 181.409744 
L 234.256689 186.070727 
L 234.325679 186.161481 
L 234.376407 186.078884 
L 234.496125 185.373524 
L 235.039928 181.689484 
L 235.186024 180.886603 
L 235.512712 177.273782 
L 236.038253 172.532022 
L 236.336533 170.942516 
L 236.922948 166.307844 
L 237.14818 164.297407 
L 237.403848 159.32358 
L 238.103893 144.094875 
L 238.124185 144.114132 
L 238.195204 144.513639 
L 238.343329 146.979239 
L 238.917569 162.308726 
L 239.457314 184.855326 
L 239.85705 196.374322 
L 240.074165 198.393443 
L 240.084311 198.387997 
L 240.145184 198.164737 
L 240.289252 196.550982 
L 240.567241 190.456698 
L 241.003501 174.91815 
L 241.699487 153.192326 
L 242.024146 148.643948 
L 242.137777 148.256788 
L 242.184446 148.333048 
L 242.320397 149.106433 
L 242.561862 151.845328 
L 243.138131 160.188824 
L 243.176684 160.165846 
L 243.334955 160.020651 
L 243.381625 160.102955 
L 243.541925 160.805708 
L 243.744837 162.764592 
L 244.018767 167.875954 
L 244.607211 183.699954 
L 244.992743 192.369917 
L 245.086082 192.790876 
L 245.13681 192.660253 
L 245.250441 191.497636 
L 245.433061 187.061479 
L 245.788157 171.285466 
L 246.368484 137.827346 
L 246.991423 102.680332 
L 247.303907 95.440762 
L 247.809157 90.260897 
L 247.87003 90.360297 
L 247.987719 91.15411 
L 248.170339 94.179099 
L 248.436153 102.761583 
L 249.466945 139.567875 
L 249.531876 139.777161 
L 249.584633 139.618614 
L 249.698264 138.25686 
L 249.966107 131.518805 
L 250.513969 119.562408 
L 250.722967 117.813014 
L 250.74123 117.827508 
L 250.822394 118.170665 
L 251.06183 120.417263 
L 251.301266 124.629855 
L 251.599546 134.80238 
L 252.470037 166.632765 
L 252.796724 171.489805 
L 252.918471 171.84695 
L 252.959054 171.804615 
L 253.064568 171.372147 
L 253.22081 169.594994 
L 253.454158 163.749954 
L 253.88636 146.591623 
L 254.519444 122.037712 
L 254.769025 118.357919 
L 254.793375 118.344396 
L 254.838015 118.456822 
L 254.992228 119.577717 
L 255.300654 123.411924 
L 255.613138 131.042092 
L 256.116359 149.459443 
L 256.757559 170.742367 
L 256.84887 171.069787 
L 256.897568 170.96955 
L 257.015257 170.05224 
L 257.232372 166.263785 
L 257.802554 150.646238 
L 258.194174 133.889117 
L 259.066694 95.524915 
L 259.208732 93.904826 
L 259.245256 94.021752 
L 259.348741 95.372547 
L 259.563827 101.65799 
L 259.853991 117.218996 
L 260.322717 158.208115 
L 261.000441 210.916377 
L 261.262197 217.077781 
L 261.367711 217.520207 
L 261.414381 217.424834 
L 261.517866 216.531424 
L 261.704545 212.636907 
L 261.988621 201.19651 
L 262.475609 171.621589 
L 263.358275 120.5959 
L 263.662642 111.584517 
L 263.768156 110.963408 
L 263.814826 111.092785 
L 263.918311 112.27397 
L 264.111077 117.616143 
L 264.382978 132.061737 
L 264.876053 173.492801 
L 265.397536 209.630277 
L 265.776981 221.774362 
L 265.961631 223.787331 
L 265.983951 223.758413 
L 266.059028 223.239388 
L 266.225416 220.152641 
L 266.568336 208.540974 
L 267.7087 157.867887 
L 269.011392 101.395604 
L 269.325905 95.072761 
L 269.419245 94.760773 
L 269.467944 94.860169 
L 269.585632 95.754084 
L 269.776369 99.144666 
L 270.032038 108.49148 
L 270.892383 152.069431 
L 271.413866 173.919169 
L 271.695913 178.198062 
L 271.730408 178.241773 
L 271.779107 178.100903 
L 271.88665 176.895032 
L 272.103766 171.340794 
L 272.629307 158.347273 
L 272.856568 156.460216 
L 272.866713 156.465135 
L 272.931645 156.675986 
L 273.0818 158.098548 
L 273.31109 162.657942 
L 273.686476 175.426062 
L 274.218105 191.93983 
L 274.453482 193.882528 
L 274.508268 193.898183 
L 274.552909 193.832065 
L 274.68886 193.247986 
L 275.167731 189.805646 
L 275.360497 184.244187 
L 275.884009 159.327826 
L 276.720005 125.726132 
L 276.935092 123.127019 
L 276.949295 123.140928 
L 277.012198 123.52982 
L 277.156265 126.146214 
L 277.407876 135.47083 
L 277.789349 158.604343 
L 279.025081 240.889279 
L 279.361915 246.521446 
L 279.751505 250.385833 
L 279.861077 250.620859 
L 279.905718 250.559019 
L 280.003115 249.995382 
L 280.151241 247.522804 
L 280.40488 238.627058 
L 281.064343 205.906189 
L 282.009911 151.22722 
L 282.695753 109.663101 
L 282.95345 104.170011 
L 282.969683 104.159185 
L 283.006207 104.292203 
L 283.101576 105.694188 
L 283.290284 112.550146 
L 283.627117 134.004988 
L 284.404269 185.51497 
L 284.925751 200.092322 
L 286.327871 225.243989 
L 286.362366 225.212417 
L 286.478025 224.799348 
L 286.764131 222.688779 
L 287.040091 219.046443 
L 287.443885 210.935937 
L 287.999863 193.554105 
L 289.040799 155.727212 
L 289.312701 152.924756 
L 289.375603 152.835278 
L 289.42836 152.922594 
L 289.554166 153.641105 
L 289.736786 156.177587 
L 289.98028 163.406839 
L 290.34755 182.156364 
L 290.911644 210.417439 
L 291.163255 213.800965 
L 291.240361 213.951897 
L 291.293118 213.871225 
L 291.477768 213.049182 
L 291.727349 212.446679 
L 291.88562 212.094531 
L 292.135202 210.831902 
L 292.467977 207.86097 
L 292.715529 201.70368 
L 293.508913 181.181083 
L 293.691534 179.690473 
L 293.713854 179.718773 
L 293.786902 180.206375 
L 293.922853 182.96569 
L 294.150114 192.994007 
L 294.75682 233.85766 
L 295.318885 267.386403 
L 295.523826 270.405759 
L 295.529913 270.402815 
L 295.578612 270.190037 
L 295.696301 268.384691 
L 295.899212 261.301644 
L 296.27257 238.311478 
L 297.25872 178.873359 
L 297.554971 171.372303 
L 297.628019 171.106855 
L 297.680776 171.247497 
L 297.792378 172.415964 
L 298.007464 177.565443 
L 298.321977 191.030608 
L 299.093041 225.941348 
L 299.369001 229.984889 
L 299.413642 230.072281 
L 299.466399 229.921095 
L 299.584087 228.641756 
L 299.870193 222.356929 
L 300.578354 207.319952 
L 300.97809 203.626905 
L 301.077517 203.497228 
L 301.120128 203.539049 
L 301.233759 203.941806 
L 301.390001 205.482715 
L 301.582767 210.013656 
L 301.948008 225.535724 
L 302.560801 249.786532 
L 302.664286 250.494101 
L 302.712985 250.346814 
L 302.824586 249.013668 
L 303.039672 243.205274 
L 304.910518 183.519871 
L 305.300108 176.714852 
L 306.071172 168.728059 
L 306.487141 166.343459 
L 306.688023 165.248268 
L 307.04109 162.624495 
L 307.101963 162.772875 
L 307.229797 163.939987 
L 307.444884 168.221575 
L 307.700552 178.365646 
L 308.228123 210.900321 
L 308.873382 247.269588 
L 309.206157 255.708518 
L 309.457767 257.809281 
L 309.508495 257.692434 
L 309.620096 256.652678 
L 309.871707 251.62172 
L 310.370869 237.916508 
L 310.900469 211.402622 
L 311.60863 179.182994 
L 311.969813 168.289743 
L 312.065182 167.689848 
L 312.115909 167.853332 
L 312.223453 169.277216 
L 312.410131 175.267677 
L 312.793634 196.755579 
L 313.430777 230.614081 
L 313.678329 234.834181 
L 313.694562 234.825804 
L 313.718911 234.737073 
L 313.810222 233.601506 
L 314.000958 227.784466 
L 314.510267 203.313531 
L 315.015517 181.075146 
L 315.265098 177.984752 
L 315.321913 177.906858 
L 315.37467 178.003001 
L 315.488301 178.765954 
L 315.662805 181.715247 
L 315.942823 190.934619 
L 316.405461 214.285562 
L 316.91274 237.513752 
L 317.204933 242.26719 
L 317.229282 242.290366 
L 317.273923 242.154311 
L 317.383495 240.905145 
L 317.633077 234.853048 
L 318.077453 218.153688 
L 318.491393 195.199261 
L 319.142739 159.974285 
L 319.412612 153.851923 
L 319.451165 153.768985 
L 319.503922 153.933036 
L 319.633785 155.359325 
L 320.569208 167.803102 
L 320.786323 168.87593 
L 320.808644 168.86007 
L 320.897925 168.561236 
L 321.090691 166.98188 
L 321.388971 162.467758 
L 321.66696 154.75256 
L 321.979444 139.074763 
L 322.853993 93.464517 
L 323.704192 64.54741 
L 324.207413 53.692278 
L 324.252054 53.568 
L 324.30684 53.765824 
L 324.434674 55.482447 
L 324.670052 62.063198 
L 325.491844 96.264577 
L 326.447558 142.356447 
L 327.031943 170.580951 
L 327.419504 180.537607 
L 327.600096 181.313293 
L 327.606183 181.312287 
L 327.687348 181.174901 
L 327.786774 180.400644 
L 327.938958 176.982785 
L 328.221005 164.323163 
L 328.89873 134.36331 
L 329.140195 131.171688 
L 329.166573 131.155867 
L 329.211214 131.265157 
L 329.322815 132.25078 
L 329.645445 137.911334 
L 330.418538 152.295299 
L 330.453033 152.262846 
L 330.544343 151.881764 
L 330.698556 150.008161 
L 331.810512 133.021265 
L 332.047919 131.781657 
L 332.474033 128.844776 
L 332.506499 128.866794 
L 332.877827 129.315305 
L 332.944788 129.235783 
L 333.176107 129.04037 
L 333.194369 129.055683 
L 333.295825 129.324168 
L 333.431776 130.491227 
L 333.691503 135.16409 
L 334.010074 139.681396 
L 334.081093 139.824563 
L 334.13385 139.728036 
L 334.24951 138.954445 
L 334.474742 135.571835 
L 335.150437 124.686621 
L 335.460892 123.077271 
L 336.035132 116.587075 
L 336.672275 99.801595 
L 337.21202 85.65181 
L 337.607697 79.425127 
L 337.654367 79.330877 
L 337.707124 79.47046 
L 337.828871 80.654373 
L 338.045986 85.321906 
L 338.459926 100.040607 
L 339.249252 126.687902 
L 339.59826 132.826294 
L 340.225257 143.839551 
L 340.596585 155.766276 
L 341.534037 188.947815 
L 341.840434 190.933958 
L 341.862754 190.908537 
L 341.937831 190.484941 
L 342.090015 188.033469 
L 342.461343 177.31447 
L 342.779915 160.714981 
L 343.368358 131.658742 
L 343.73157 123.388405 
L 343.889841 122.450563 
L 343.920278 122.491411 
L 344.003472 123.039909 
L 344.161743 125.922441 
L 344.429586 135.698871 
L 345.511105 180.598122 
L 345.598357 180.868776 
L 345.647056 180.774506 
L 345.750541 179.935293 
L 345.943307 176.127791 
L 347.093816 148.405951 
L 347.160777 148.261737 
L 347.215563 148.371644 
L 347.467173 149.493605 
L 347.550367 149.200526 
L 347.684289 147.457889 
L 348.027209 138.964648 
L 349.24265 110.544177 
L 349.28932 110.657273 
L 349.407008 111.813027 
L 349.889938 119.756065 
L 350.198364 127.476396 
L 350.742167 149.256117 
L 351.180456 164.47367 
L 351.419892 166.961612 
L 351.430037 166.955297 
L 351.488882 166.703286 
L 351.620774 164.899724 
L 351.870355 157.738589 
L 353.566697 102.874816 
L 353.848744 101.092083 
L 353.962374 100.867295 
L 354.007015 100.934364 
L 354.102383 101.540056 
L 354.274858 104.413751 
L 354.587342 114.079969 
L 354.938379 131.926804 
L 355.954967 187.480554 
L 356.050335 188.017561 
L 356.099034 187.869857 
L 356.214693 186.536958 
L 356.549498 179.151691 
L 357.292154 163.450759 
L 357.740589 158.880665 
L 357.819724 158.813668 
L 357.866394 158.866406 
L 357.994228 159.329887 
L 358.233664 161.151987 
L 358.501507 165.396906 
L 359.242135 181.245577 
L 359.583026 187.687918 
L 359.721006 188.158081 
L 359.753472 188.134466 
L 359.879277 187.797027 
L 360.242489 186.81761 
L 360.388586 186.905113 
L 360.628021 187.433748 
L 360.895865 188.068661 
L 360.908039 188.063559 
L 361.003408 187.878433 
L 361.222552 186.754954 
L 361.541124 185.585872 
L 361.932743 185.19752 
L 362.127538 183.851292 
L 362.369003 182.633718 
L 362.385236 182.642962 
L 362.460313 182.877062 
L 362.644963 184.424608 
L 363.121805 189.401852 
L 363.20297 189.027936 
L 363.347037 186.682409 
L 363.710249 175.93548 
L 364.805972 139.640063 
L 364.935835 138.988753 
L 364.976417 139.071454 
L 365.071786 139.920113 
L 365.278756 144.260533 
L 365.646026 157.481055 
L 366.46376 188.299332 
L 366.630147 189.451104 
L 366.656526 189.417304 
L 366.735661 188.89533 
L 366.893932 185.994619 
L 367.161776 176.193896 
L 368.095169 137.396721 
L 368.354896 135.026249 
L 368.39142 135.000803 
L 368.436061 135.099899 
L 368.537517 135.960727 
L 368.746516 140.187927 
L 369.146251 153.597249 
L 369.823976 176.054997 
L 370.20545 181.839785 
L 370.353576 182.128342 
L 370.373867 182.122156 
L 370.511847 182.183012 
L 370.615332 182.744305 
L 371.471619 189.886868 
L 371.5609 189.632623 
L 371.729316 188.058401 
L 372.70938 175.137868 
L 373.271445 165.303369 
L 373.476386 164.699314 
L 373.65089 164.349464 
L 373.88018 163.745766 
L 373.928878 163.82754 
L 374.036422 164.539103 
L 374.251508 167.821616 
L 374.515293 175.476768 
L 374.913 195.089323 
L 375.659715 230.040706 
L 375.937704 235.127939 
L 376.008723 235.306704 
L 376.063509 235.19637 
L 376.181198 234.299905 
L 376.420633 230.389848 
L 376.65804 222.268253 
L 377.974936 168.551175 
L 378.530914 155.026867 
L 378.804845 152.156039 
L 379.003698 151.843332 
L 379.176173 151.834931 
L 379.18429 151.847454 
L 379.285745 152.231553 
L 379.423725 153.845483 
L 379.630695 159.44322 
L 379.904626 173.877906 
L 380.373352 212.806581 
L 380.937446 253.345805 
L 381.233697 261.117443 
L 381.320949 261.594165 
L 381.371677 261.416157 
L 381.483278 259.881673 
L 381.722714 252.775743 
L 382.185353 231.910902 
L 383.031494 190.006876 
L 383.333832 184.49663 
L 383.394706 184.333939 
L 383.447463 184.47445 
L 383.559064 185.632107 
L 383.770092 190.64467 
L 384.07446 203.784085 
L 385.502958 274.471277 
L 385.584122 274.988036 
L 385.636879 274.766888 
L 385.75051 272.854037 
L 385.983858 264.279787 
L 386.472875 236.515723 
L 386.947688 214.749888 
L 387.304813 208.06972 
L 387.603093 201.811599 
L 388.747515 173.927789 
L 388.820563 173.703715 
L 388.871291 173.845813 
L 388.972747 175.029054 
L 389.151309 180.33902 
L 389.471909 198.176117 
L 389.85947 214.521517 
L 390.08876 217.035889 
L 390.115139 217.049976 
L 390.15775 216.940781 
L 390.267323 215.92758 
L 390.43371 211.906005 
L 390.740107 197.626793 
L 391.210862 178.78882 
L 391.498996 174.137336 
L 391.574074 173.979048 
L 391.626831 174.065897 
L 391.744519 174.796569 
L 391.921052 177.544016 
L 392.144255 185.13639 
L 392.990397 217.910621 
L 393.250124 221.116974 
L 393.347521 221.294846 
L 393.394191 221.240027 
L 393.530142 220.695696 
L 393.781752 219.865643 
L 393.800014 219.874759 
L 393.885237 220.097116 
L 394.355992 221.841776 
L 394.398603 221.790708 
L 394.500059 221.307739 
L 394.638039 219.293655 
L 394.871388 211.821134 
L 396.521059 150.193104 
L 396.555554 150.155801 
L 396.602224 150.278566 
L 396.707738 151.343776 
L 396.90862 156.157759 
L 397.267774 170.725284 
L 397.815635 191.679415 
L 398.487273 205.581469 
L 398.487273 205.581469 
" style="fill:none;stroke:#000000;stroke-linecap:square;stroke-width:1.5;"/>
   </g>
   <g id="line2d_38">
    <path clip-path="url(#p08afb2c88e)" d="M 73.832727 174.481115 
L 76.005911 126.927257 
L 77.142216 106.839372 
L 78.061406 94.257473 
L 78.844644 86.359988 
L 79.524398 81.577907 
L 80.112842 78.876488 
L 80.614034 77.509133 
L 81.034061 76.933035 
L 81.385098 76.788419 
L 81.72396 76.889514 
L 82.143988 77.271379 
L 82.770984 78.182091 
L 84.233977 80.374985 
L 84.725023 80.702064 
L 85.108526 80.707756 
L 85.471738 80.480268 
L 85.873503 79.943117 
L 86.352375 78.895829 
L 86.930673 77.047842 
L 87.653038 73.928159 
L 88.661509 68.47564 
L 90.692654 57.346158 
L 91.36835 54.901147 
L 91.853309 53.87242 
L 92.198259 53.579485 
L 92.455956 53.621989 
L 92.7238 53.917325 
L 93.056575 54.65727 
L 93.470515 56.176941 
L 93.975765 58.955952 
L 94.584499 63.65528 
L 95.314981 71.159414 
L 96.219967 82.934107 
L 97.469903 102.414453 
L 100.310666 147.509853 
L 101.272467 158.878518 
L 102.039473 165.530228 
L 102.670528 169.248595 
L 103.183894 171.096078 
L 103.587688 171.831604 
L 103.887998 171.990015 
L 104.145695 171.87706 
L 104.450063 171.467402 
L 104.853857 170.505149 
L 105.39766 168.568928 
L 106.176841 164.869791 
L 108.638159 152.593302 
L 109.238777 150.888226 
L 109.683154 150.206982 
L 110.009841 150.053374 
L 110.285801 150.16357 
L 110.596256 150.555812 
L 110.985846 151.451711 
L 111.470805 153.182837 
L 112.075482 156.24041 
L 112.846546 161.388087 
L 113.946327 170.408857 
L 116.273723 189.778118 
L 117.101603 194.70685 
L 117.740774 197.304333 
L 118.241966 198.520968 
L 118.625469 198.950269 
L 118.919691 198.98687 
L 119.205796 198.784946 
L 119.556833 198.231012 
L 120.009326 197.056148 
L 120.603857 194.831612 
L 121.454057 190.680397 
L 123.62927 179.695989 
L 124.229888 177.884411 
L 124.658032 177.19906 
L 124.96037 177.06681 
L 125.21198 177.197529 
L 125.502144 177.635052 
L 125.865356 178.635171 
L 126.313791 180.589111 
L 126.857594 184.044691 
L 127.50894 189.728501 
L 128.298266 198.713853 
L 129.304708 212.925079 
L 130.950321 239.878421 
L 132.733914 267.930025 
L 133.746443 280.52649 
L 134.547944 287.94887 
L 135.205378 292.159996 
L 135.743094 294.321963 
L 136.169208 295.237157 
L 136.489809 295.482537 
L 136.745477 295.420298 
L 137.033612 295.092458 
L 137.411027 294.282722 
L 137.912219 292.623202 
L 138.596031 289.511374 
L 139.722191 283.173929 
L 141.317076 274.441565 
L 142.126694 271.194499 
L 142.761807 269.476636 
L 143.277203 268.655056 
L 143.699259 268.354074 
L 144.072616 268.345458 
L 144.472352 268.571946 
L 144.977602 269.138236 
L 145.815627 270.473106 
L 146.789603 271.904946 
L 147.260358 272.240101 
L 147.605308 272.234509 
L 147.919821 271.997452 
L 148.270858 271.426762 
L 148.680739 270.292697 
L 149.157582 268.25715 
L 149.705443 264.8628 
L 150.334469 259.459138 
L 151.054805 251.208423 
L 151.89283 238.875396 
L 152.90333 220.487574 
L 154.270955 191.136124 
L 157.460725 121.371233 
L 158.532099 103.432923 
L 159.416793 92.093241 
L 160.175683 85.01586 
L 160.833117 80.798767 
L 161.401269 78.463787 
L 161.88217 77.322362 
L 162.283935 76.871896 
L 162.624826 76.792113 
L 162.975863 76.948012 
L 163.428356 77.420523 
L 164.171013 78.576046 
L 165.30326 80.27609 
L 165.820684 80.67638 
L 166.212304 80.723073 
L 166.573487 80.536796 
L 166.969164 80.05732 
L 167.435861 79.104627 
L 167.993868 77.416572 
L 168.687826 74.548016 
L 169.629336 69.6069 
L 172.005431 56.723294 
L 172.638515 54.620357 
L 173.093037 53.775945 
L 173.417696 53.569265 
L 173.669306 53.656298 
L 173.949324 54.021335 
L 174.298332 54.889387 
L 174.730534 56.623263 
L 175.256075 59.735953 
L 175.88713 64.921385 
L 176.648049 73.157883 
L 177.601733 86.099163 
L 178.999795 108.497462 
L 181.278492 144.822495 
L 182.284934 157.292291 
L 183.080347 164.612962 
L 183.733723 168.759173 
L 184.26738 170.873091 
L 184.689437 171.757211 
L 185.005979 171.98633 
L 185.261647 171.915356 
L 185.55384 171.572163 
L 185.937343 170.734131 
L 186.45071 169.018477 
L 187.169017 165.756817 
L 190.038187 151.825684 
L 190.577932 150.558003 
L 190.977668 150.109645 
L 191.275948 150.068012 
L 191.555966 150.264866 
L 191.892799 150.808938 
L 192.314856 151.963095 
L 192.840397 154.111882 
L 193.49783 157.819222 
L 194.354117 164.037671 
L 195.786674 176.380038 
L 197.316627 188.924998 
L 198.176972 194.255596 
L 198.836435 197.079348 
L 199.351831 198.424072 
L 199.747508 198.924026 
L 200.049847 198.995541 
L 200.331894 198.825507 
L 200.672786 198.327285 
L 201.113104 197.242415 
L 201.689373 195.166519 
L 202.492903 191.344427 
L 204.923784 179.230051 
L 205.487878 177.688253 
L 205.889643 177.143531 
L 206.17372 177.07461 
L 206.427359 177.251491 
L 206.727668 177.767083 
L 207.105084 178.906345 
L 207.571781 181.097452 
L 208.135875 184.916712 
L 208.811571 191.140496 
L 209.635392 200.952359 
L 210.704736 216.588614 
L 214.767027 278.939942 
L 215.596936 287.030165 
L 216.274661 291.656439 
L 216.830638 294.081954 
L 217.272986 295.148336 
L 217.609819 295.470355 
L 217.871575 295.44381 
L 218.151593 295.163323 
L 218.510747 294.450868 
L 218.989618 292.955075 
L 219.640964 290.113065 
L 220.643348 284.604989 
L 222.536513 274.188385 
L 223.333956 271.055263 
L 223.962982 269.4015 
L 224.47229 268.622406 
L 224.890288 268.345833 
L 225.263646 268.353295 
L 225.669469 268.599802 
L 226.192981 269.208633 
L 227.097967 270.671638 
L 227.976574 271.928155 
L 228.439213 272.244528 
L 228.782133 272.229706 
L 229.098675 271.980916 
L 229.451742 271.39182 
L 229.865681 270.222337 
L 230.344553 268.141573 
L 230.896472 264.669182 
L 231.527528 259.175699 
L 232.251922 250.784485 
L 233.096034 238.240534 
L 234.11668 219.51752 
L 235.512712 189.385684 
L 238.564503 122.514428 
L 239.648051 104.152024 
L 240.538833 92.563185 
L 241.30381 85.30104 
L 241.965302 80.967454 
L 242.537512 78.553974 
L 243.0245 77.360053 
L 243.428294 76.884866 
L 243.771215 76.79017 
L 244.118194 76.931898 
L 244.5646 77.383794 
L 245.280878 78.483422 
L 246.476027 80.284908 
L 246.991423 80.678937 
L 247.385071 80.721395 
L 247.746254 80.529903 
L 248.137873 80.050848 
L 248.602541 79.099558 
L 249.164606 77.394958 
L 249.862622 74.500425 
L 250.80819 69.52599 
L 253.157907 56.772792 
L 253.79505 54.640872 
L 254.251601 53.783104 
L 254.576259 53.569888 
L 254.829899 53.653118 
L 255.107888 54.010317 
L 255.456896 54.870229 
L 255.889098 56.593702 
L 256.414639 59.693595 
L 257.045694 64.864032 
L 257.804583 73.059456 
L 258.756239 85.948809 
L 260.146183 108.191567 
L 262.44923 144.907292 
L 263.455672 157.357408 
L 264.251086 164.659536 
L 264.904461 168.789724 
L 265.43609 170.88486 
L 265.858146 171.762454 
L 266.172659 171.986651 
L 266.428327 171.913908 
L 266.72052 171.568845 
L 267.104023 170.728603 
L 267.619419 169.002555 
L 268.343813 165.705468 
L 271.184576 151.880847 
L 271.728379 150.581908 
L 272.130144 150.116749 
L 272.432482 150.065739 
L 272.712501 150.255911 
L 273.045276 150.783428 
L 273.461244 151.902433 
L 273.980698 153.995589 
L 274.632045 157.624852 
L 275.478186 163.71468 
L 276.851898 175.49974 
L 278.465045 188.809091 
L 279.329449 194.192478 
L 279.990941 197.045121 
L 280.510394 198.41277 
L 280.91013 198.922651 
L 281.212469 198.995944 
L 281.494516 198.827524 
L 281.835407 198.331154 
L 282.273696 197.254524 
L 282.847936 195.191809 
L 283.645379 191.407995 
L 286.098581 179.195238 
L 286.658617 177.676328 
L 287.058353 177.140635 
L 287.342429 177.075637 
L 287.596068 177.256212 
L 287.900436 177.785764 
L 288.279881 178.944724 
L 288.746577 181.154851 
L 289.310672 184.9971 
L 289.988396 191.268484 
L 290.814247 201.140771 
L 291.887649 216.877084 
L 295.9053 278.641581 
L 296.739266 286.84685 
L 297.421049 291.555876 
L 297.981085 294.035225 
L 298.427491 295.132203 
L 298.766353 295.467394 
L 299.028109 295.448127 
L 299.306098 295.177842 
L 299.665252 294.476093 
L 300.142094 293.000017 
L 300.787353 290.202985 
L 301.78162 284.759184 
L 303.713339 274.132709 
L 304.506723 271.029112 
L 305.131691 269.393305 
L 305.63897 268.62028 
L 306.058997 268.344669 
L 306.430326 268.353945 
L 306.83412 268.599802 
L 307.357632 269.208633 
L 308.278851 270.698843 
L 309.147312 271.934379 
L 309.609951 272.246306 
L 309.948813 272.228872 
L 310.265355 271.978505 
L 310.620451 271.382947 
L 311.032361 270.215214 
L 311.513262 268.120344 
L 312.065182 264.639126 
L 312.696237 259.134891 
L 313.42266 250.704454 
L 314.266773 238.139714 
L 315.289447 219.355113 
L 316.689538 189.108671 
L 319.719008 122.706076 
L 320.806614 104.242531 
L 321.699426 92.608311 
L 322.464402 85.333049 
L 323.125894 80.988802 
L 323.698105 78.567063 
L 324.185093 77.367047 
L 324.590916 76.886214 
L 324.933837 76.789996 
L 325.280816 76.930477 
L 325.725192 77.378624 
L 326.427267 78.452632 
L 327.648795 80.293644 
L 328.162161 80.68143 
L 328.551751 80.720955 
L 328.910905 80.529903 
L 329.306583 80.04434 
L 329.77125 79.089392 
L 330.335344 77.373271 
L 331.03336 74.47179 
L 331.978929 69.491268 
L 334.316471 56.797651 
L 334.955642 54.651184 
L 335.414222 53.785506 
L 335.74091 53.569888 
L 335.99455 53.653127 
L 336.272539 54.010326 
L 336.619518 54.863886 
L 337.051719 56.583903 
L 337.575231 59.665446 
L 338.204257 64.806826 
L 338.963147 72.985787 
L 339.910744 85.798703 
L 341.290543 107.851829 
L 343.621998 145.020174 
L 344.62641 157.422388 
L 345.419795 164.690509 
L 346.071141 168.799889 
L 346.60277 170.890727 
L 347.022797 171.762463 
L 347.339339 171.986954 
L 347.597037 171.910984 
L 347.891258 171.558826 
L 348.276791 170.706421 
L 348.794215 168.962608 
L 349.520639 165.643706 
L 352.330965 151.936761 
L 352.878826 150.606336 
L 353.28465 150.122991 
L 353.586988 150.063172 
L 353.864977 150.24284 
L 354.193694 150.750081 
L 354.607633 151.842724 
L 355.125058 153.899894 
L 355.772346 157.470859 
L 356.610371 163.458007 
L 357.939442 174.816113 
L 359.625638 188.780052 
L 360.490041 194.171368 
L 361.153562 197.038246 
L 361.673016 198.408975 
L 362.072752 198.921258 
L 362.37712 198.995944 
L 362.659167 198.827524 
L 363.000058 198.331144 
L 363.438347 197.254505 
L 364.010558 195.200223 
L 364.81003 191.407976 
L 367.263232 179.195229 
L 367.821238 177.680288 
L 368.220974 177.142065 
L 368.505051 177.075114 
L 368.75869 177.253847 
L 369.061029 177.776405 
L 369.440473 178.929343 
L 369.90717 181.131871 
L 370.471264 184.964936 
L 371.14696 191.204486 
L 371.970781 201.033113 
L 373.042155 216.716849 
L 377.086183 278.825548 
L 377.916092 286.947137 
L 378.597875 291.623101 
L 379.155882 294.068709 
L 379.600258 295.145155 
L 379.937092 295.46964 
L 380.198848 295.4449 
L 380.476837 295.169162 
L 380.838019 294.455918 
L 381.316891 292.962564 
L 381.966208 290.133056 
L 382.966562 284.640554 
L 384.865815 274.188348 
L 385.663258 271.055236 
L 386.292284 269.401482 
L 386.801592 268.622397 
L 387.21959 268.345824 
L 387.594977 268.353945 
L 387.998771 268.599811 
L 388.516195 269.20009 
L 389.411036 270.644396 
L 390.299789 271.921895 
L 390.764456 272.2433 
L 391.105348 272.232144 
L 391.419861 271.990421 
L 391.772927 271.409364 
L 392.182808 270.264685 
L 392.659651 268.215288 
L 393.209541 264.78859 
L 393.838567 259.358199 
L 394.558904 251.076283 
L 395.398958 238.675362 
L 396.413516 220.164785 
L 397.791286 190.537761 
L 398.487273 174.574354 
L 398.487273 174.574354 
" style="fill:none;stroke:#d3d3d3;stroke-linecap:square;stroke-width:1.5;"/>
   </g>
   <g id="patch_3">
    <path d="M 57.6 307.584 
L 57.6 41.472 
" style="fill:none;stroke:#000000;stroke-linecap:square;stroke-linejoin:miter;stroke-width:0.8;"/>
   </g>
   <g id="patch_4">
    <path d="M 414.72 307.584 
L 414.72 41.472 
" style="fill:none;stroke:#000000;stroke-linecap:square;stroke-linejoin:miter;stroke-width:0.8;"/>
   </g>
   <g id="patch_5">
    <path d="M 57.6 307.584 
L 414.72 307.584 
" style="fill:none;stroke:#000000;stroke-linecap:square;stroke-linejoin:miter;stroke-width:0.8;"/>
   </g>
   <g id="patch_6">
    <path d="M 57.6 41.472 
L 414.72 41.472 
" style="fill:none;stroke:#000000;stroke-linecap:square;stroke-linejoin:miter;stroke-width:0.8;"/>
   </g>
   <g id="legend_1">
    <g id="patch_7">
     <path d="M 336.427813 78.82825 
L 407.72 78.82825 
Q 409.72 78.82825 409.72 76.82825 
L 409.72 48.472 
Q 409.72 46.472 407.72 46.472 
L 336.427813 46.472 
Q 334.427813 46.472 334.427813 48.472 
L 334.427813 76.82825 
Q 334.427813 78.82825 336.427813 78.82825 
z
" style="fill:#ffffff;opacity:0.8;stroke:#cccccc;stroke-linejoin:miter;"/>
    </g>
    <g id="line2d_39">
     <path d="M 338.427813 54.570437 
L 358.427813 54.570437 
" style="fill:none;stroke:#000000;stroke-linecap:square;stroke-width:1.5;"/>
    </g>
    <g id="line2d_40"/>
    <g id="text_21">
     <!-- MN -->
     <defs>
      <path d="M 9.8125 72.90625 
L 24.515625 72.90625 
L 43.109375 23.296875 
L 61.8125 72.90625 
L 76.515625 72.90625 
L 76.515625 0 
L 66.890625 0 
L 66.890625 64.015625 
L 48.09375 14.015625 
L 38.1875 14.015625 
L 19.390625 64.015625 
L 19.390625 0 
L 9.8125 0 
z
" id="DejaVuSans-77"/>
      <path d="M 9.8125 72.90625 
L 23.09375 72.90625 
L 55.421875 11.921875 
L 55.421875 72.90625 
L 64.984375 72.90625 
L 64.984375 0 
L 51.703125 0 
L 19.390625 60.984375 
L 19.390625 0 
L 9.8125 0 
z
" id="DejaVuSans-78"/>
     </defs>
     <g transform="translate(366.427813 58.070437)scale(0.1 -0.1)">
      <use xlink:href="#DejaVuSans-77"/>
      <use x="86.279297" xlink:href="#DejaVuSans-78"/>
     </g>
    </g>
    <g id="line2d_41">
     <path d="M 338.427813 69.248562 
L 358.427813 69.248562 
" style="fill:none;stroke:#d3d3d3;stroke-linecap:square;stroke-width:1.5;"/>
    </g>
    <g id="line2d_42"/>
    <g id="text_22">
     <!-- Entrada -->
     <defs>
      <path d="M 9.8125 72.90625 
L 55.90625 72.90625 
L 55.90625 64.59375 
L 19.671875 64.59375 
L 19.671875 43.015625 
L 54.390625 43.015625 
L 54.390625 34.71875 
L 19.671875 34.71875 
L 19.671875 8.296875 
L 56.78125 8.296875 
L 56.78125 0 
L 9.8125 0 
z
" id="DejaVuSans-69"/>
      <path d="M 18.3125 70.21875 
L 18.3125 54.6875 
L 36.8125 54.6875 
L 36.8125 47.703125 
L 18.3125 47.703125 
L 18.3125 18.015625 
Q 18.3125 11.328125 20.140625 9.421875 
Q 21.96875 7.515625 27.59375 7.515625 
L 36.8125 7.515625 
L 36.8125 0 
L 27.59375 0 
Q 17.1875 0 13.234375 3.875 
Q 9.28125 7.765625 9.28125 18.015625 
L 9.28125 47.703125 
L 2.6875 47.703125 
L 2.6875 54.6875 
L 9.28125 54.6875 
L 9.28125 70.21875 
z
" id="DejaVuSans-116"/>
     </defs>
     <g transform="translate(366.427813 72.748562)scale(0.1 -0.1)">
      <use xlink:href="#DejaVuSans-69"/>
      <use x="63.183594" xlink:href="#DejaVuSans-110"/>
      <use x="126.5625" xlink:href="#DejaVuSans-116"/>
      <use x="165.771484" xlink:href="#DejaVuSans-114"/>
      <use x="206.884766" xlink:href="#DejaVuSans-97"/>
      <use x="268.164062" xlink:href="#DejaVuSans-100"/>
      <use x="331.640625" xlink:href="#DejaVuSans-97"/>
     </g>
    </g>
   </g>
  </g>
 </g>
 <defs>
  <clipPath id="p08afb2c88e">
   <rect height="266.112" width="357.12" x="57.6" y="41.472"/>
  </clipPath>
 </defs>
</svg>
