<?xml version="1.0" encoding="utf-8" standalone="no"?>
<!DOCTYPE svg PUBLIC "-//W3C//DTD SVG 1.1//EN"
  "http://www.w3.org/Graphics/SVG/1.1/DTD/svg11.dtd">
<!-- Created with matplotlib (https://matplotlib.org/) -->
<svg height="345.6pt" version="1.1" viewBox="0 0 460.8 345.6" width="460.8pt" xmlns="http://www.w3.org/2000/svg" xmlns:xlink="http://www.w3.org/1999/xlink">
 <defs>
  <style type="text/css">
*{stroke-linecap:butt;stroke-linejoin:round;}
  </style>
 </defs>
 <g id="figure_1">
  <g id="patch_1">
   <path d="M 0 345.6 
L 460.8 345.6 
L 460.8 0 
L 0 0 
z
" style="fill:#ffffff;"/>
  </g>
  <g id="axes_1">
   <g id="patch_2">
    <path d="M 57.6 307.584 
L 414.72 307.584 
L 414.72 41.472 
L 57.6 41.472 
z
" style="fill:#ffffff;"/>
   </g>
   <g id="matplotlib.axis_1">
    <g id="xtick_1">
     <g id="line2d_1">
      <defs>
       <path d="M 0 0 
L 0 3.5 
" id="m69c665f003" style="stroke:#000000;stroke-width:0.8;"/>
      </defs>
      <g>
       <use style="stroke:#000000;stroke-width:0.8;" x="57.6" xlink:href="#m69c665f003" y="307.584"/>
      </g>
     </g>
     <g id="text_1">
      <!-- 0 -->
      <defs>
       <path d="M 31.78125 66.40625 
Q 24.171875 66.40625 20.328125 58.90625 
Q 16.5 51.421875 16.5 36.375 
Q 16.5 21.390625 20.328125 13.890625 
Q 24.171875 6.390625 31.78125 6.390625 
Q 39.453125 6.390625 43.28125 13.890625 
Q 47.125 21.390625 47.125 36.375 
Q 47.125 51.421875 43.28125 58.90625 
Q 39.453125 66.40625 31.78125 66.40625 
z
M 31.78125 74.21875 
Q 44.046875 74.21875 50.515625 64.515625 
Q 56.984375 54.828125 56.984375 36.375 
Q 56.984375 17.96875 50.515625 8.265625 
Q 44.046875 -1.421875 31.78125 -1.421875 
Q 19.53125 -1.421875 13.0625 8.265625 
Q 6.59375 17.96875 6.59375 36.375 
Q 6.59375 54.828125 13.0625 64.515625 
Q 19.53125 74.21875 31.78125 74.21875 
z
" id="DejaVuSans-48"/>
      </defs>
      <g transform="translate(54.41875 322.182437)scale(0.1 -0.1)">
       <use xlink:href="#DejaVuSans-48"/>
      </g>
     </g>
    </g>
    <g id="xtick_2">
     <g id="line2d_2">
      <g>
       <use style="stroke:#000000;stroke-width:0.8;" x="108.617143" xlink:href="#m69c665f003" y="307.584"/>
      </g>
     </g>
     <g id="text_2">
      <!-- 5 -->
      <defs>
       <path d="M 10.796875 72.90625 
L 49.515625 72.90625 
L 49.515625 64.59375 
L 19.828125 64.59375 
L 19.828125 46.734375 
Q 21.96875 47.46875 24.109375 47.828125 
Q 26.265625 48.1875 28.421875 48.1875 
Q 40.625 48.1875 47.75 41.5 
Q 54.890625 34.8125 54.890625 23.390625 
Q 54.890625 11.625 47.5625 5.09375 
Q 40.234375 -1.421875 26.90625 -1.421875 
Q 22.3125 -1.421875 17.546875 -0.640625 
Q 12.796875 0.140625 7.71875 1.703125 
L 7.71875 11.625 
Q 12.109375 9.234375 16.796875 8.0625 
Q 21.484375 6.890625 26.703125 6.890625 
Q 35.15625 6.890625 40.078125 11.328125 
Q 45.015625 15.765625 45.015625 23.390625 
Q 45.015625 31 40.078125 35.4375 
Q 35.15625 39.890625 26.703125 39.890625 
Q 22.75 39.890625 18.8125 39.015625 
Q 14.890625 38.140625 10.796875 36.28125 
z
" id="DejaVuSans-53"/>
      </defs>
      <g transform="translate(105.435893 322.182437)scale(0.1 -0.1)">
       <use xlink:href="#DejaVuSans-53"/>
      </g>
     </g>
    </g>
    <g id="xtick_3">
     <g id="line2d_3">
      <g>
       <use style="stroke:#000000;stroke-width:0.8;" x="159.634286" xlink:href="#m69c665f003" y="307.584"/>
      </g>
     </g>
     <g id="text_3">
      <!-- 10 -->
      <defs>
       <path d="M 12.40625 8.296875 
L 28.515625 8.296875 
L 28.515625 63.921875 
L 10.984375 60.40625 
L 10.984375 69.390625 
L 28.421875 72.90625 
L 38.28125 72.90625 
L 38.28125 8.296875 
L 54.390625 8.296875 
L 54.390625 0 
L 12.40625 0 
z
" id="DejaVuSans-49"/>
      </defs>
      <g transform="translate(153.271786 322.182437)scale(0.1 -0.1)">
       <use xlink:href="#DejaVuSans-49"/>
       <use x="63.623047" xlink:href="#DejaVuSans-48"/>
      </g>
     </g>
    </g>
    <g id="xtick_4">
     <g id="line2d_4">
      <g>
       <use style="stroke:#000000;stroke-width:0.8;" x="210.651429" xlink:href="#m69c665f003" y="307.584"/>
      </g>
     </g>
     <g id="text_4">
      <!-- 15 -->
      <g transform="translate(204.288929 322.182437)scale(0.1 -0.1)">
       <use xlink:href="#DejaVuSans-49"/>
       <use x="63.623047" xlink:href="#DejaVuSans-53"/>
      </g>
     </g>
    </g>
    <g id="xtick_5">
     <g id="line2d_5">
      <g>
       <use style="stroke:#000000;stroke-width:0.8;" x="261.668571" xlink:href="#m69c665f003" y="307.584"/>
      </g>
     </g>
     <g id="text_5">
      <!-- 20 -->
      <defs>
       <path d="M 19.1875 8.296875 
L 53.609375 8.296875 
L 53.609375 0 
L 7.328125 0 
L 7.328125 8.296875 
Q 12.9375 14.109375 22.625 23.890625 
Q 32.328125 33.6875 34.8125 36.53125 
Q 39.546875 41.84375 41.421875 45.53125 
Q 43.3125 49.21875 43.3125 52.78125 
Q 43.3125 58.59375 39.234375 62.25 
Q 35.15625 65.921875 28.609375 65.921875 
Q 23.96875 65.921875 18.8125 64.3125 
Q 13.671875 62.703125 7.8125 59.421875 
L 7.8125 69.390625 
Q 13.765625 71.78125 18.9375 73 
Q 24.125 74.21875 28.421875 74.21875 
Q 39.75 74.21875 46.484375 68.546875 
Q 53.21875 62.890625 53.21875 53.421875 
Q 53.21875 48.921875 51.53125 44.890625 
Q 49.859375 40.875 45.40625 35.40625 
Q 44.1875 33.984375 37.640625 27.21875 
Q 31.109375 20.453125 19.1875 8.296875 
z
" id="DejaVuSans-50"/>
      </defs>
      <g transform="translate(255.306071 322.182437)scale(0.1 -0.1)">
       <use xlink:href="#DejaVuSans-50"/>
       <use x="63.623047" xlink:href="#DejaVuSans-48"/>
      </g>
     </g>
    </g>
    <g id="xtick_6">
     <g id="line2d_6">
      <g>
       <use style="stroke:#000000;stroke-width:0.8;" x="312.685714" xlink:href="#m69c665f003" y="307.584"/>
      </g>
     </g>
     <g id="text_6">
      <!-- 25 -->
      <g transform="translate(306.323214 322.182437)scale(0.1 -0.1)">
       <use xlink:href="#DejaVuSans-50"/>
       <use x="63.623047" xlink:href="#DejaVuSans-53"/>
      </g>
     </g>
    </g>
    <g id="xtick_7">
     <g id="line2d_7">
      <g>
       <use style="stroke:#000000;stroke-width:0.8;" x="363.702857" xlink:href="#m69c665f003" y="307.584"/>
      </g>
     </g>
     <g id="text_7">
      <!-- 30 -->
      <defs>
       <path d="M 40.578125 39.3125 
Q 47.65625 37.796875 51.625 33 
Q 55.609375 28.21875 55.609375 21.1875 
Q 55.609375 10.40625 48.1875 4.484375 
Q 40.765625 -1.421875 27.09375 -1.421875 
Q 22.515625 -1.421875 17.65625 -0.515625 
Q 12.796875 0.390625 7.625 2.203125 
L 7.625 11.71875 
Q 11.71875 9.328125 16.59375 8.109375 
Q 21.484375 6.890625 26.8125 6.890625 
Q 36.078125 6.890625 40.9375 10.546875 
Q 45.796875 14.203125 45.796875 21.1875 
Q 45.796875 27.640625 41.28125 31.265625 
Q 36.765625 34.90625 28.71875 34.90625 
L 20.21875 34.90625 
L 20.21875 43.015625 
L 29.109375 43.015625 
Q 36.375 43.015625 40.234375 45.921875 
Q 44.09375 48.828125 44.09375 54.296875 
Q 44.09375 59.90625 40.109375 62.90625 
Q 36.140625 65.921875 28.71875 65.921875 
Q 24.65625 65.921875 20.015625 65.03125 
Q 15.375 64.15625 9.8125 62.3125 
L 9.8125 71.09375 
Q 15.4375 72.65625 20.34375 73.4375 
Q 25.25 74.21875 29.59375 74.21875 
Q 40.828125 74.21875 47.359375 69.109375 
Q 53.90625 64.015625 53.90625 55.328125 
Q 53.90625 49.265625 50.4375 45.09375 
Q 46.96875 40.921875 40.578125 39.3125 
z
" id="DejaVuSans-51"/>
      </defs>
      <g transform="translate(357.340357 322.182437)scale(0.1 -0.1)">
       <use xlink:href="#DejaVuSans-51"/>
       <use x="63.623047" xlink:href="#DejaVuSans-48"/>
      </g>
     </g>
    </g>
    <g id="xtick_8">
     <g id="line2d_8">
      <g>
       <use style="stroke:#000000;stroke-width:0.8;" x="414.72" xlink:href="#m69c665f003" y="307.584"/>
      </g>
     </g>
     <g id="text_8">
      <!-- 35 -->
      <g transform="translate(408.3575 322.182437)scale(0.1 -0.1)">
       <use xlink:href="#DejaVuSans-51"/>
       <use x="63.623047" xlink:href="#DejaVuSans-53"/>
      </g>
     </g>
    </g>
    <g id="text_9">
     <!-- Tempo (ms) -->
     <defs>
      <path d="M -0.296875 72.90625 
L 61.375 72.90625 
L 61.375 64.59375 
L 35.5 64.59375 
L 35.5 0 
L 25.59375 0 
L 25.59375 64.59375 
L -0.296875 64.59375 
z
" id="DejaVuSans-84"/>
      <path d="M 56.203125 29.59375 
L 56.203125 25.203125 
L 14.890625 25.203125 
Q 15.484375 15.921875 20.484375 11.0625 
Q 25.484375 6.203125 34.421875 6.203125 
Q 39.59375 6.203125 44.453125 7.46875 
Q 49.3125 8.734375 54.109375 11.28125 
L 54.109375 2.78125 
Q 49.265625 0.734375 44.1875 -0.34375 
Q 39.109375 -1.421875 33.890625 -1.421875 
Q 20.796875 -1.421875 13.15625 6.1875 
Q 5.515625 13.8125 5.515625 26.8125 
Q 5.515625 40.234375 12.765625 48.109375 
Q 20.015625 56 32.328125 56 
Q 43.359375 56 49.78125 48.890625 
Q 56.203125 41.796875 56.203125 29.59375 
z
M 47.21875 32.234375 
Q 47.125 39.59375 43.09375 43.984375 
Q 39.0625 48.390625 32.421875 48.390625 
Q 24.90625 48.390625 20.390625 44.140625 
Q 15.875 39.890625 15.1875 32.171875 
z
" id="DejaVuSans-101"/>
      <path d="M 52 44.1875 
Q 55.375 50.25 60.0625 53.125 
Q 64.75 56 71.09375 56 
Q 79.640625 56 84.28125 50.015625 
Q 88.921875 44.046875 88.921875 33.015625 
L 88.921875 0 
L 79.890625 0 
L 79.890625 32.71875 
Q 79.890625 40.578125 77.09375 44.375 
Q 74.3125 48.1875 68.609375 48.1875 
Q 61.625 48.1875 57.5625 43.546875 
Q 53.515625 38.921875 53.515625 30.90625 
L 53.515625 0 
L 44.484375 0 
L 44.484375 32.71875 
Q 44.484375 40.625 41.703125 44.40625 
Q 38.921875 48.1875 33.109375 48.1875 
Q 26.21875 48.1875 22.15625 43.53125 
Q 18.109375 38.875 18.109375 30.90625 
L 18.109375 0 
L 9.078125 0 
L 9.078125 54.6875 
L 18.109375 54.6875 
L 18.109375 46.1875 
Q 21.1875 51.21875 25.484375 53.609375 
Q 29.78125 56 35.6875 56 
Q 41.65625 56 45.828125 52.96875 
Q 50 49.953125 52 44.1875 
z
" id="DejaVuSans-109"/>
      <path d="M 18.109375 8.203125 
L 18.109375 -20.796875 
L 9.078125 -20.796875 
L 9.078125 54.6875 
L 18.109375 54.6875 
L 18.109375 46.390625 
Q 20.953125 51.265625 25.265625 53.625 
Q 29.59375 56 35.59375 56 
Q 45.5625 56 51.78125 48.09375 
Q 58.015625 40.1875 58.015625 27.296875 
Q 58.015625 14.40625 51.78125 6.484375 
Q 45.5625 -1.421875 35.59375 -1.421875 
Q 29.59375 -1.421875 25.265625 0.953125 
Q 20.953125 3.328125 18.109375 8.203125 
z
M 48.6875 27.296875 
Q 48.6875 37.203125 44.609375 42.84375 
Q 40.53125 48.484375 33.40625 48.484375 
Q 26.265625 48.484375 22.1875 42.84375 
Q 18.109375 37.203125 18.109375 27.296875 
Q 18.109375 17.390625 22.1875 11.75 
Q 26.265625 6.109375 33.40625 6.109375 
Q 40.53125 6.109375 44.609375 11.75 
Q 48.6875 17.390625 48.6875 27.296875 
z
" id="DejaVuSans-112"/>
      <path d="M 30.609375 48.390625 
Q 23.390625 48.390625 19.1875 42.75 
Q 14.984375 37.109375 14.984375 27.296875 
Q 14.984375 17.484375 19.15625 11.84375 
Q 23.34375 6.203125 30.609375 6.203125 
Q 37.796875 6.203125 41.984375 11.859375 
Q 46.1875 17.53125 46.1875 27.296875 
Q 46.1875 37.015625 41.984375 42.703125 
Q 37.796875 48.390625 30.609375 48.390625 
z
M 30.609375 56 
Q 42.328125 56 49.015625 48.375 
Q 55.71875 40.765625 55.71875 27.296875 
Q 55.71875 13.875 49.015625 6.21875 
Q 42.328125 -1.421875 30.609375 -1.421875 
Q 18.84375 -1.421875 12.171875 6.21875 
Q 5.515625 13.875 5.515625 27.296875 
Q 5.515625 40.765625 12.171875 48.375 
Q 18.84375 56 30.609375 56 
z
" id="DejaVuSans-111"/>
      <path id="DejaVuSans-32"/>
      <path d="M 31 75.875 
Q 24.46875 64.65625 21.28125 53.65625 
Q 18.109375 42.671875 18.109375 31.390625 
Q 18.109375 20.125 21.3125 9.0625 
Q 24.515625 -2 31 -13.1875 
L 23.1875 -13.1875 
Q 15.875 -1.703125 12.234375 9.375 
Q 8.59375 20.453125 8.59375 31.390625 
Q 8.59375 42.28125 12.203125 53.3125 
Q 15.828125 64.359375 23.1875 75.875 
z
" id="DejaVuSans-40"/>
      <path d="M 44.28125 53.078125 
L 44.28125 44.578125 
Q 40.484375 46.53125 36.375 47.5 
Q 32.28125 48.484375 27.875 48.484375 
Q 21.1875 48.484375 17.84375 46.4375 
Q 14.5 44.390625 14.5 40.28125 
Q 14.5 37.15625 16.890625 35.375 
Q 19.28125 33.59375 26.515625 31.984375 
L 29.59375 31.296875 
Q 39.15625 29.25 43.1875 25.515625 
Q 47.21875 21.78125 47.21875 15.09375 
Q 47.21875 7.46875 41.1875 3.015625 
Q 35.15625 -1.421875 24.609375 -1.421875 
Q 20.21875 -1.421875 15.453125 -0.5625 
Q 10.6875 0.296875 5.421875 2 
L 5.421875 11.28125 
Q 10.40625 8.6875 15.234375 7.390625 
Q 20.0625 6.109375 24.8125 6.109375 
Q 31.15625 6.109375 34.5625 8.28125 
Q 37.984375 10.453125 37.984375 14.40625 
Q 37.984375 18.0625 35.515625 20.015625 
Q 33.0625 21.96875 24.703125 23.78125 
L 21.578125 24.515625 
Q 13.234375 26.265625 9.515625 29.90625 
Q 5.8125 33.546875 5.8125 39.890625 
Q 5.8125 47.609375 11.28125 51.796875 
Q 16.75 56 26.8125 56 
Q 31.78125 56 36.171875 55.265625 
Q 40.578125 54.546875 44.28125 53.078125 
z
" id="DejaVuSans-115"/>
      <path d="M 8.015625 75.875 
L 15.828125 75.875 
Q 23.140625 64.359375 26.78125 53.3125 
Q 30.421875 42.28125 30.421875 31.390625 
Q 30.421875 20.453125 26.78125 9.375 
Q 23.140625 -1.703125 15.828125 -13.1875 
L 8.015625 -13.1875 
Q 14.5 -2 17.703125 9.0625 
Q 20.90625 20.125 20.90625 31.390625 
Q 20.90625 42.671875 17.703125 53.65625 
Q 14.5 64.65625 8.015625 75.875 
z
" id="DejaVuSans-41"/>
     </defs>
     <g transform="translate(205.973281 335.860562)scale(0.1 -0.1)">
      <use xlink:href="#DejaVuSans-84"/>
      <use x="60.818359" xlink:href="#DejaVuSans-101"/>
      <use x="122.341797" xlink:href="#DejaVuSans-109"/>
      <use x="219.753906" xlink:href="#DejaVuSans-112"/>
      <use x="283.230469" xlink:href="#DejaVuSans-111"/>
      <use x="344.412109" xlink:href="#DejaVuSans-32"/>
      <use x="376.199219" xlink:href="#DejaVuSans-40"/>
      <use x="415.212891" xlink:href="#DejaVuSans-109"/>
      <use x="512.625" xlink:href="#DejaVuSans-115"/>
      <use x="564.724609" xlink:href="#DejaVuSans-41"/>
     </g>
    </g>
   </g>
   <g id="matplotlib.axis_2">
    <g id="ytick_1">
     <g id="line2d_9">
      <defs>
       <path d="M 0 0 
L -3.5 0 
" id="m49ef664ac5" style="stroke:#000000;stroke-width:0.8;"/>
      </defs>
      <g>
       <use style="stroke:#000000;stroke-width:0.8;" x="57.6" xlink:href="#m49ef664ac5" y="283.737728"/>
      </g>
     </g>
     <g id="text_10">
      <!-- 0.0 -->
      <defs>
       <path d="M 10.6875 12.40625 
L 21 12.40625 
L 21 0 
L 10.6875 0 
z
" id="DejaVuSans-46"/>
      </defs>
      <g transform="translate(34.696875 287.536947)scale(0.1 -0.1)">
       <use xlink:href="#DejaVuSans-48"/>
       <use x="63.623047" xlink:href="#DejaVuSans-46"/>
       <use x="95.410156" xlink:href="#DejaVuSans-48"/>
      </g>
     </g>
    </g>
    <g id="ytick_2">
     <g id="line2d_10">
      <g>
       <use style="stroke:#000000;stroke-width:0.8;" x="57.6" xlink:href="#m49ef664ac5" y="242.89563"/>
      </g>
     </g>
     <g id="text_11">
      <!-- 0.2 -->
      <g transform="translate(34.696875 246.694849)scale(0.1 -0.1)">
       <use xlink:href="#DejaVuSans-48"/>
       <use x="63.623047" xlink:href="#DejaVuSans-46"/>
       <use x="95.410156" xlink:href="#DejaVuSans-50"/>
      </g>
     </g>
    </g>
    <g id="ytick_3">
     <g id="line2d_11">
      <g>
       <use style="stroke:#000000;stroke-width:0.8;" x="57.6" xlink:href="#m49ef664ac5" y="202.053532"/>
      </g>
     </g>
     <g id="text_12">
      <!-- 0.4 -->
      <defs>
       <path d="M 37.796875 64.3125 
L 12.890625 25.390625 
L 37.796875 25.390625 
z
M 35.203125 72.90625 
L 47.609375 72.90625 
L 47.609375 25.390625 
L 58.015625 25.390625 
L 58.015625 17.1875 
L 47.609375 17.1875 
L 47.609375 0 
L 37.796875 0 
L 37.796875 17.1875 
L 4.890625 17.1875 
L 4.890625 26.703125 
z
" id="DejaVuSans-52"/>
      </defs>
      <g transform="translate(34.696875 205.852751)scale(0.1 -0.1)">
       <use xlink:href="#DejaVuSans-48"/>
       <use x="63.623047" xlink:href="#DejaVuSans-46"/>
       <use x="95.410156" xlink:href="#DejaVuSans-52"/>
      </g>
     </g>
    </g>
    <g id="ytick_4">
     <g id="line2d_12">
      <g>
       <use style="stroke:#000000;stroke-width:0.8;" x="57.6" xlink:href="#m49ef664ac5" y="161.211434"/>
      </g>
     </g>
     <g id="text_13">
      <!-- 0.6 -->
      <defs>
       <path d="M 33.015625 40.375 
Q 26.375 40.375 22.484375 35.828125 
Q 18.609375 31.296875 18.609375 23.390625 
Q 18.609375 15.53125 22.484375 10.953125 
Q 26.375 6.390625 33.015625 6.390625 
Q 39.65625 6.390625 43.53125 10.953125 
Q 47.40625 15.53125 47.40625 23.390625 
Q 47.40625 31.296875 43.53125 35.828125 
Q 39.65625 40.375 33.015625 40.375 
z
M 52.59375 71.296875 
L 52.59375 62.3125 
Q 48.875 64.0625 45.09375 64.984375 
Q 41.3125 65.921875 37.59375 65.921875 
Q 27.828125 65.921875 22.671875 59.328125 
Q 17.53125 52.734375 16.796875 39.40625 
Q 19.671875 43.65625 24.015625 45.921875 
Q 28.375 48.1875 33.59375 48.1875 
Q 44.578125 48.1875 50.953125 41.515625 
Q 57.328125 34.859375 57.328125 23.390625 
Q 57.328125 12.15625 50.6875 5.359375 
Q 44.046875 -1.421875 33.015625 -1.421875 
Q 20.359375 -1.421875 13.671875 8.265625 
Q 6.984375 17.96875 6.984375 36.375 
Q 6.984375 53.65625 15.1875 63.9375 
Q 23.390625 74.21875 37.203125 74.21875 
Q 40.921875 74.21875 44.703125 73.484375 
Q 48.484375 72.75 52.59375 71.296875 
z
" id="DejaVuSans-54"/>
      </defs>
      <g transform="translate(34.696875 165.010653)scale(0.1 -0.1)">
       <use xlink:href="#DejaVuSans-48"/>
       <use x="63.623047" xlink:href="#DejaVuSans-46"/>
       <use x="95.410156" xlink:href="#DejaVuSans-54"/>
      </g>
     </g>
    </g>
    <g id="ytick_5">
     <g id="line2d_13">
      <g>
       <use style="stroke:#000000;stroke-width:0.8;" x="57.6" xlink:href="#m49ef664ac5" y="120.369336"/>
      </g>
     </g>
     <g id="text_14">
      <!-- 0.8 -->
      <defs>
       <path d="M 31.78125 34.625 
Q 24.75 34.625 20.71875 30.859375 
Q 16.703125 27.09375 16.703125 20.515625 
Q 16.703125 13.921875 20.71875 10.15625 
Q 24.75 6.390625 31.78125 6.390625 
Q 38.8125 6.390625 42.859375 10.171875 
Q 46.921875 13.96875 46.921875 20.515625 
Q 46.921875 27.09375 42.890625 30.859375 
Q 38.875 34.625 31.78125 34.625 
z
M 21.921875 38.8125 
Q 15.578125 40.375 12.03125 44.71875 
Q 8.5 49.078125 8.5 55.328125 
Q 8.5 64.0625 14.71875 69.140625 
Q 20.953125 74.21875 31.78125 74.21875 
Q 42.671875 74.21875 48.875 69.140625 
Q 55.078125 64.0625 55.078125 55.328125 
Q 55.078125 49.078125 51.53125 44.71875 
Q 48 40.375 41.703125 38.8125 
Q 48.828125 37.15625 52.796875 32.3125 
Q 56.78125 27.484375 56.78125 20.515625 
Q 56.78125 9.90625 50.3125 4.234375 
Q 43.84375 -1.421875 31.78125 -1.421875 
Q 19.734375 -1.421875 13.25 4.234375 
Q 6.78125 9.90625 6.78125 20.515625 
Q 6.78125 27.484375 10.78125 32.3125 
Q 14.796875 37.15625 21.921875 38.8125 
z
M 18.3125 54.390625 
Q 18.3125 48.734375 21.84375 45.5625 
Q 25.390625 42.390625 31.78125 42.390625 
Q 38.140625 42.390625 41.71875 45.5625 
Q 45.3125 48.734375 45.3125 54.390625 
Q 45.3125 60.0625 41.71875 63.234375 
Q 38.140625 66.40625 31.78125 66.40625 
Q 25.390625 66.40625 21.84375 63.234375 
Q 18.3125 60.0625 18.3125 54.390625 
z
" id="DejaVuSans-56"/>
      </defs>
      <g transform="translate(34.696875 124.168554)scale(0.1 -0.1)">
       <use xlink:href="#DejaVuSans-48"/>
       <use x="63.623047" xlink:href="#DejaVuSans-46"/>
       <use x="95.410156" xlink:href="#DejaVuSans-56"/>
      </g>
     </g>
    </g>
    <g id="ytick_6">
     <g id="line2d_14">
      <g>
       <use style="stroke:#000000;stroke-width:0.8;" x="57.6" xlink:href="#m49ef664ac5" y="79.527238"/>
      </g>
     </g>
     <g id="text_15">
      <!-- 1.0 -->
      <g transform="translate(34.696875 83.326456)scale(0.1 -0.1)">
       <use xlink:href="#DejaVuSans-49"/>
       <use x="63.623047" xlink:href="#DejaVuSans-46"/>
       <use x="95.410156" xlink:href="#DejaVuSans-48"/>
      </g>
     </g>
    </g>
    <g id="text_16">
     <!-- Derivada da força (N) -->
     <defs>
      <path d="M 19.671875 64.796875 
L 19.671875 8.109375 
L 31.59375 8.109375 
Q 46.6875 8.109375 53.6875 14.9375 
Q 60.6875 21.78125 60.6875 36.53125 
Q 60.6875 51.171875 53.6875 57.984375 
Q 46.6875 64.796875 31.59375 64.796875 
z
M 9.8125 72.90625 
L 30.078125 72.90625 
Q 51.265625 72.90625 61.171875 64.09375 
Q 71.09375 55.28125 71.09375 36.53125 
Q 71.09375 17.671875 61.125 8.828125 
Q 51.171875 0 30.078125 0 
L 9.8125 0 
z
" id="DejaVuSans-68"/>
      <path d="M 41.109375 46.296875 
Q 39.59375 47.171875 37.8125 47.578125 
Q 36.03125 48 33.890625 48 
Q 26.265625 48 22.1875 43.046875 
Q 18.109375 38.09375 18.109375 28.8125 
L 18.109375 0 
L 9.078125 0 
L 9.078125 54.6875 
L 18.109375 54.6875 
L 18.109375 46.1875 
Q 20.953125 51.171875 25.484375 53.578125 
Q 30.03125 56 36.53125 56 
Q 37.453125 56 38.578125 55.875 
Q 39.703125 55.765625 41.0625 55.515625 
z
" id="DejaVuSans-114"/>
      <path d="M 9.421875 54.6875 
L 18.40625 54.6875 
L 18.40625 0 
L 9.421875 0 
z
M 9.421875 75.984375 
L 18.40625 75.984375 
L 18.40625 64.59375 
L 9.421875 64.59375 
z
" id="DejaVuSans-105"/>
      <path d="M 2.984375 54.6875 
L 12.5 54.6875 
L 29.59375 8.796875 
L 46.6875 54.6875 
L 56.203125 54.6875 
L 35.6875 0 
L 23.484375 0 
z
" id="DejaVuSans-118"/>
      <path d="M 34.28125 27.484375 
Q 23.390625 27.484375 19.1875 25 
Q 14.984375 22.515625 14.984375 16.5 
Q 14.984375 11.71875 18.140625 8.90625 
Q 21.296875 6.109375 26.703125 6.109375 
Q 34.1875 6.109375 38.703125 11.40625 
Q 43.21875 16.703125 43.21875 25.484375 
L 43.21875 27.484375 
z
M 52.203125 31.203125 
L 52.203125 0 
L 43.21875 0 
L 43.21875 8.296875 
Q 40.140625 3.328125 35.546875 0.953125 
Q 30.953125 -1.421875 24.3125 -1.421875 
Q 15.921875 -1.421875 10.953125 3.296875 
Q 6 8.015625 6 15.921875 
Q 6 25.140625 12.171875 29.828125 
Q 18.359375 34.515625 30.609375 34.515625 
L 43.21875 34.515625 
L 43.21875 35.40625 
Q 43.21875 41.609375 39.140625 45 
Q 35.0625 48.390625 27.6875 48.390625 
Q 23 48.390625 18.546875 47.265625 
Q 14.109375 46.140625 10.015625 43.890625 
L 10.015625 52.203125 
Q 14.9375 54.109375 19.578125 55.046875 
Q 24.21875 56 28.609375 56 
Q 40.484375 56 46.34375 49.84375 
Q 52.203125 43.703125 52.203125 31.203125 
z
" id="DejaVuSans-97"/>
      <path d="M 45.40625 46.390625 
L 45.40625 75.984375 
L 54.390625 75.984375 
L 54.390625 0 
L 45.40625 0 
L 45.40625 8.203125 
Q 42.578125 3.328125 38.25 0.953125 
Q 33.9375 -1.421875 27.875 -1.421875 
Q 17.96875 -1.421875 11.734375 6.484375 
Q 5.515625 14.40625 5.515625 27.296875 
Q 5.515625 40.1875 11.734375 48.09375 
Q 17.96875 56 27.875 56 
Q 33.9375 56 38.25 53.625 
Q 42.578125 51.265625 45.40625 46.390625 
z
M 14.796875 27.296875 
Q 14.796875 17.390625 18.875 11.75 
Q 22.953125 6.109375 30.078125 6.109375 
Q 37.203125 6.109375 41.296875 11.75 
Q 45.40625 17.390625 45.40625 27.296875 
Q 45.40625 37.203125 41.296875 42.84375 
Q 37.203125 48.484375 30.078125 48.484375 
Q 22.953125 48.484375 18.875 42.84375 
Q 14.796875 37.203125 14.796875 27.296875 
z
" id="DejaVuSans-100"/>
      <path d="M 37.109375 75.984375 
L 37.109375 68.5 
L 28.515625 68.5 
Q 23.6875 68.5 21.796875 66.546875 
Q 19.921875 64.59375 19.921875 59.515625 
L 19.921875 54.6875 
L 34.71875 54.6875 
L 34.71875 47.703125 
L 19.921875 47.703125 
L 19.921875 0 
L 10.890625 0 
L 10.890625 47.703125 
L 2.296875 47.703125 
L 2.296875 54.6875 
L 10.890625 54.6875 
L 10.890625 58.5 
Q 10.890625 67.625 15.140625 71.796875 
Q 19.390625 75.984375 28.609375 75.984375 
z
" id="DejaVuSans-102"/>
      <path d="M 48.78125 52.59375 
L 48.78125 44.1875 
Q 44.96875 46.296875 41.140625 47.34375 
Q 37.3125 48.390625 33.40625 48.390625 
Q 24.65625 48.390625 19.8125 42.84375 
Q 14.984375 37.3125 14.984375 27.296875 
Q 14.984375 17.28125 19.8125 11.734375 
Q 24.65625 6.203125 33.40625 6.203125 
Q 37.3125 6.203125 41.140625 7.25 
Q 44.96875 8.296875 48.78125 10.40625 
L 48.78125 2.09375 
Q 45.015625 0.34375 40.984375 -0.53125 
Q 36.96875 -1.421875 32.421875 -1.421875 
Q 20.0625 -1.421875 12.78125 6.34375 
Q 5.515625 14.109375 5.515625 27.296875 
Q 5.515625 40.671875 12.859375 48.328125 
Q 20.21875 56 33.015625 56 
Q 37.15625 56 41.109375 55.140625 
Q 45.0625 54.296875 48.78125 52.59375 
z
M 36.078125 0 
Q 38.765625 -3.03125 40.078125 -5.59375 
Q 41.40625 -8.15625 41.40625 -10.5 
Q 41.40625 -14.84375 38.46875 -17.0625 
Q 35.546875 -19.28125 29.78125 -19.28125 
Q 27.546875 -19.28125 25.421875 -18.984375 
Q 23.296875 -18.703125 21.1875 -18.109375 
L 21.1875 -11.71875 
Q 22.859375 -12.546875 24.65625 -12.90625 
Q 26.46875 -13.28125 28.765625 -13.28125 
Q 31.640625 -13.28125 33.109375 -12.109375 
Q 34.578125 -10.9375 34.578125 -8.6875 
Q 34.578125 -7.234375 33.515625 -5.109375 
Q 32.46875 -2.984375 30.28125 0 
z
" id="DejaVuSans-231"/>
      <path d="M 9.8125 72.90625 
L 23.09375 72.90625 
L 55.421875 11.921875 
L 55.421875 72.90625 
L 64.984375 72.90625 
L 64.984375 0 
L 51.703125 0 
L 19.390625 60.984375 
L 19.390625 0 
L 9.8125 0 
z
" id="DejaVuSans-78"/>
     </defs>
     <g transform="translate(28.617187 228.495187)rotate(-90)scale(0.1 -0.1)">
      <use xlink:href="#DejaVuSans-68"/>
      <use x="77.001953" xlink:href="#DejaVuSans-101"/>
      <use x="138.525391" xlink:href="#DejaVuSans-114"/>
      <use x="179.638672" xlink:href="#DejaVuSans-105"/>
      <use x="207.421875" xlink:href="#DejaVuSans-118"/>
      <use x="266.601562" xlink:href="#DejaVuSans-97"/>
      <use x="327.880859" xlink:href="#DejaVuSans-100"/>
      <use x="391.357422" xlink:href="#DejaVuSans-97"/>
      <use x="452.636719" xlink:href="#DejaVuSans-32"/>
      <use x="484.423828" xlink:href="#DejaVuSans-100"/>
      <use x="547.900391" xlink:href="#DejaVuSans-97"/>
      <use x="609.179688" xlink:href="#DejaVuSans-32"/>
      <use x="640.966797" xlink:href="#DejaVuSans-102"/>
      <use x="676.171875" xlink:href="#DejaVuSans-111"/>
      <use x="737.353516" xlink:href="#DejaVuSans-114"/>
      <use x="778.435547" xlink:href="#DejaVuSans-231"/>
      <use x="833.416016" xlink:href="#DejaVuSans-97"/>
      <use x="894.695312" xlink:href="#DejaVuSans-32"/>
      <use x="926.482422" xlink:href="#DejaVuSans-40"/>
      <use x="965.496094" xlink:href="#DejaVuSans-78"/>
      <use x="1040.300781" xlink:href="#DejaVuSans-41"/>
     </g>
    </g>
   </g>
   <g id="line2d_15">
    <path clip-path="url(#pe9194c0c08)" d="M 57.6 283.737728 
L 155.042743 283.737728 
L 155.552914 283.607034 
L 157.083429 283.607034 
L 158.613943 283.157771 
L 159.124114 282.724844 
L 159.634286 282.136718 
L 160.144457 281.952929 
L 161.674971 280.674571 
L 162.185143 280.494866 
L 163.205486 279.980255 
L 163.715657 279.204255 
L 164.225829 278.979624 
L 164.736 278.395582 
L 165.246171 278.09335 
L 172.898743 276.774151 
L 175.4496 276.610782 
L 175.959771 272.596004 
L 177.490286 272.538825 
L 178.000457 268.377015 
L 178.510629 268.368847 
L 179.0208 266.849521 
L 179.530971 266.902616 
L 180.041143 259.228385 
L 180.551314 257.37007 
L 181.061486 249.262913 
L 181.571657 247.80485 
L 182.081829 245.991461 
L 182.592 241.457988 
L 183.102171 231.120853 
L 183.612343 226.170791 
L 184.122514 219.840266 
L 184.632686 211.426794 
L 185.142857 209.09471 
L 185.653029 206.207173 
L 186.1632 205.521026 
L 186.673371 201.869743 
L 187.183543 199.096564 
L 187.693714 197.364859 
L 188.203886 196.519428 
L 188.714057 191.863429 
L 189.224229 190.470713 
L 189.7344 188.706334 
L 190.244571 184.409746 
L 190.754743 182.559599 
L 191.264914 182.053157 
L 191.775086 181.767262 
L 192.285257 180.946336 
L 192.795429 177.691221 
L 193.3056 176.747768 
L 193.815771 175.39181 
L 195.856457 172.753411 
L 196.366629 172.467516 
L 196.8768 170.678632 
L 197.386971 170.605116 
L 197.897143 169.375769 
L 198.407314 169.722927 
L 198.917486 168.489496 
L 199.427657 168.407812 
L 200.448 169.110296 
L 200.958171 168.583433 
L 207.5904 173.125074 
L 221.365029 182.159346 
L 232.5888 189.135176 
L 244.322743 196.053828 
L 246.8736 197.511891 
L 247.383771 197.671175 
L 247.893943 197.965238 
L 248.404114 198.026501 
L 249.424457 198.357322 
L 249.934629 198.47168 
L 250.4448 198.226627 
L 251.465143 198.120438 
L 252.485486 198.418585 
L 252.995657 198.291975 
L 253.505829 197.989743 
L 254.016 197.524143 
L 254.526171 197.49147 
L 255.036343 193.656397 
L 255.546514 193.791176 
L 256.056686 193.725828 
L 256.566857 193.852439 
L 257.077029 193.746249 
L 257.5872 193.934123 
L 258.097371 190.372692 
L 261.668571 192.267765 
L 262.178743 190.838292 
L 262.688914 191.103766 
L 263.199086 187.844566 
L 263.709257 185.892314 
L 264.219429 181.481367 
L 265.239771 182.155262 
L 265.749943 181.007599 
L 266.260114 176.020779 
L 266.770286 172.994379 
L 267.790629 170.854253 
L 269.321143 172.018253 
L 269.831314 169.931222 
L 270.341486 164.944402 
L 270.851657 162.359097 
L 271.872 158.854845 
L 272.382171 158.466845 
L 272.892343 158.936529 
L 273.402514 155.771266 
L 273.912686 154.66853 
L 274.422857 153.982383 
L 274.933029 149.640867 
L 275.953371 147.672278 
L 276.463543 145.756784 
L 276.973714 142.464911 
L 277.994057 139.98988 
L 279.0144 136.256912 
L 279.524571 132.789418 
L 281.055086 126.511987 
L 281.565257 127.087861 
L 282.5856 124.27384 
L 283.095771 124.331019 
L 283.605943 123.861335 
L 284.116114 120.822683 
L 284.626286 120.785925 
L 285.136457 121.390388 
L 285.646629 121.014641 
L 286.1568 121.141251 
L 286.666971 119.429967 
L 287.177143 119.499399 
L 287.687314 118.359905 
L 288.197486 117.661505 
L 290.748343 120.712409 
L 291.258514 120.234557 
L 300.4416 130.943355 
L 306.053486 137.114596 
L 307.584 138.695185 
L 308.604343 139.703985 
L 309.624686 140.680111 
L 310.645029 141.672574 
L 316.767086 148.190973 
L 319.828114 151.368488 
L 320.338286 148.713752 
L 322.378971 150.857962 
L 322.889143 151.225541 
L 323.399314 151.756488 
L 323.909486 150.122804 
L 324.419657 147.94592 
L 325.44 148.966973 
L 325.950171 146.242805 
L 326.460343 146.753331 
L 326.970514 147.039226 
L 327.480686 145.213584 
L 327.990857 144.061837 
L 328.501029 139.099522 
L 329.0112 135.987354 
L 329.521371 133.630765 
L 330.031543 130.477755 
L 330.541714 126.422135 
L 331.051886 126.083145 
L 331.562057 126.634514 
L 332.072229 123.49784 
L 332.5824 118.12302 
L 333.092571 118.482431 
L 333.602743 111.465758 
L 334.112914 106.981296 
L 334.623086 104.01616 
L 335.133257 104.665549 
L 335.643429 103.570981 
L 336.1536 103.260581 
L 336.663771 101.867865 
L 337.173943 98.959908 
L 337.684114 99.531697 
L 338.194286 98.837382 
L 338.704457 95.373972 
L 339.214629 94.14054 
L 339.7248 92.519109 
L 340.745143 92.241383 
L 341.255314 92.543614 
L 341.765486 93.303277 
L 342.275657 92.727404 
L 342.785829 92.829509 
L 343.806171 89.33751 
L 344.316343 86.241679 
L 344.826514 86.531657 
L 345.336686 85.032752 
L 346.357029 85.816921 
L 347.377371 87.283152 
L 347.887543 86.695026 
L 348.397714 87.511868 
L 348.907886 85.686226 
L 349.418057 85.396247 
L 349.928229 86.221257 
L 350.4384 86.535742 
L 350.948571 87.287236 
L 351.968914 88.046899 
L 352.479086 87.250478 
L 352.989257 88.071405 
L 353.499429 87.924373 
L 354.0096 87.156542 
L 354.519771 87.44652 
L 355.540114 88.957678 
L 356.050286 89.762267 
L 356.560457 90.052246 
L 357.070629 90.865004 
L 357.5808 91.101888 
L 361.152 96.268414 
L 361.662171 96.464456 
L 362.682514 97.947024 
L 363.702857 99.396918 
L 366.253714 103.227907 
L 366.763886 103.460707 
L 367.274057 104.159107 
L 367.784229 104.632875 
L 372.375771 111.37999 
L 377.477486 118.751989 
L 377.987657 113.528284 
L 378.497829 114.279779 
L 379.008 111.567864 
L 380.028343 113.107611 
L 380.538514 112.217253 
L 381.048686 111.886432 
L 381.558857 104.857507 
L 384.109714 108.884538 
L 384.619886 105.600833 
L 385.640229 107.222264 
L 386.1504 102.161928 
L 386.660571 101.283823 
L 387.170743 98.841466 
L 387.680914 99.690981 
L 388.191086 99.290729 
L 388.701257 100.13616 
L 389.211429 97.771403 
L 389.7216 98.629087 
L 390.741943 92.46193 
L 392.782629 95.974351 
L 393.2928 92.519109 
L 394.313143 94.283488 
L 394.823314 94.103782 
L 395.333486 94.977803 
L 395.843657 91.612414 
L 396.353829 91.922814 
L 396.864 92.813172 
L 397.374171 86.817552 
L 397.884343 86.597005 
L 398.394514 82.369848 
L 398.904686 79.531322 
L 399.414857 80.478858 
L 399.925029 80.31549 
L 400.4352 81.148669 
L 400.945371 76.378312 
L 401.455543 77.329933 
L 402.475886 77.775112 
L 402.986057 78.661385 
L 403.496229 78.387743 
L 404.0064 78.489848 
L 404.516571 79.449638 
L 405.026743 78.575617 
L 405.536914 79.25768 
L 406.047086 79.735532 
L 407.067429 79.804964 
L 407.5776 79.441469 
L 408.087771 80.156206 
L 409.108114 77.632164 
L 410.128457 79.347532 
L 410.638629 78.408164 
L 411.1488 75.773849 
L 411.658971 75.459365 
L 412.169143 75.581891 
L 412.679314 74.234102 
L 413.189486 73.788923 
L 413.699657 72.682102 
L 414.209829 72.155239 
L 414.72 72.065386 
L 415.230171 73.070102 
L 415.230171 73.070102 
" style="fill:none;stroke:#000000;stroke-linecap:square;stroke-width:1.5;"/>
   </g>
   <g id="line2d_16">
    <path clip-path="url(#pe9194c0c08)" d="M 57.6 283.737728 
L 160.144457 283.737728 
L 161.674971 283.288465 
L 165.246171 282.598234 
L 165.756343 282.271497 
L 166.266514 282.275581 
L 167.286857 281.058487 
L 167.797029 280.911455 
L 168.3072 280.437687 
L 169.327543 279.245098 
L 170.858057 278.763161 
L 171.8784 278.130108 
L 172.898743 277.958571 
L 174.939429 277.047793 
L 175.4496 277.031456 
L 175.959771 276.864003 
L 177.490286 276.749645 
L 181.061486 276.369814 
L 183.102171 276.345309 
L 187.183543 276.353477 
L 191.264914 276.410656 
L 193.3056 276.426993 
L 193.815771 275.205814 
L 195.346286 275.25074 
L 195.856457 270.725436 
L 196.8768 266.236889 
L 197.386971 263.435121 
L 198.407314 261.825943 
L 198.917486 261.017269 
L 199.937829 256.888133 
L 200.448 256.226491 
L 200.958171 254.88687 
L 201.468343 250.079755 
L 201.978514 249.393608 
L 202.488686 246.555082 
L 202.998857 246.150745 
L 203.509029 243.026325 
L 204.0192 242.728178 
L 204.529371 238.439757 
L 205.039543 237.361526 
L 205.549714 237.484052 
L 206.570057 231.394495 
L 207.080229 224.504433 
L 208.100571 222.164181 
L 208.610743 222.331634 
L 209.120914 216.969066 
L 209.631086 217.148772 
L 210.141257 214.796267 
L 210.651429 214.587972 
L 211.1616 210.299552 
L 213.202286 211.100057 
L 213.712457 208.122668 
L 214.222629 207.224142 
L 214.7328 207.436521 
L 215.242971 205.778331 
L 215.753143 202.551806 
L 216.773486 203.001069 
L 217.283657 201.436816 
L 217.793829 200.354501 
L 218.304 200.591385 
L 218.814171 196.592944 
L 221.365029 197.834543 
L 221.8752 192.847723 
L 222.385371 193.113197 
L 222.895543 190.699429 
L 223.405714 190.977155 
L 223.915886 189.47825 
L 224.426057 189.760061 
L 224.936229 188.967724 
L 225.4464 189.24545 
L 225.956571 188.355092 
L 227.487086 189.208692 
L 227.997257 187.468819 
L 232.5888 190.050039 
L 233.098971 188.88604 
L 239.221029 192.210586 
L 242.792229 193.546123 
L 243.812571 193.848355 
L 244.322743 194.130165 
L 246.363429 194.657028 
L 246.8736 194.575344 
L 247.383771 194.710123 
L 247.893943 194.701954 
L 248.404114 194.440565 
L 248.914286 193.684986 
L 249.934629 193.725828 
L 250.4448 191.222208 
L 251.465143 191.18545 
L 251.975314 191.287555 
L 252.485486 190.638166 
L 252.995657 190.69126 
L 253.505829 190.92406 
L 255.036343 191.140523 
L 255.546514 190.817871 
L 256.056686 190.07046 
L 256.566857 190.368608 
L 257.077029 189.853997 
L 258.097371 184.613956 
L 258.607543 184.691556 
L 259.117714 183.237577 
L 260.648229 184.185114 
L 261.1584 182.044988 
L 261.668571 181.951051 
L 262.178743 180.664525 
L 262.688914 180.129494 
L 263.199086 179.900778 
L 263.709257 177.413494 
L 264.219429 177.638126 
L 264.7296 177.985284 
L 265.239771 177.082673 
L 265.749943 177.413494 
L 266.260114 175.820652 
L 266.770286 176.163726 
L 267.280457 176.367937 
L 267.790629 176.71101 
L 268.3008 170.760316 
L 268.810971 169.616738 
L 269.321143 166.73737 
L 269.831314 166.651601 
L 270.341486 164.936233 
L 271.361829 163.915181 
L 272.382171 159.304108 
L 272.892343 159.708445 
L 273.402514 159.602255 
L 274.422857 160.40276 
L 274.933029 160.174045 
L 275.4432 159.381708 
L 275.953371 159.786045 
L 276.463543 157.944066 
L 276.973714 154.889077 
L 277.483886 155.309751 
L 277.994057 153.471856 
L 278.504229 153.202298 
L 279.0144 153.627056 
L 279.524571 153.463688 
L 280.034743 152.193499 
L 281.565257 144.441668 
L 282.075429 143.289921 
L 282.5856 141.648069 
L 283.095771 142.121837 
L 284.626286 135.354302 
L 285.136457 134.574217 
L 285.646629 132.72407 
L 286.666971 133.73287 
L 287.177143 133.50007 
L 287.687314 132.495355 
L 288.197486 131.756113 
L 289.217829 129.685418 
L 289.728 129.632324 
L 290.238171 128.839987 
L 290.748343 129.354597 
L 291.258514 127.598387 
L 291.768686 128.12525 
L 292.278857 124.653672 
L 292.789029 124.114556 
L 293.809371 125.188703 
L 294.319543 123.644872 
L 294.829714 121.157588 
L 299.421257 126.103566 
L 300.4416 123.624451 
L 300.951771 124.179903 
L 301.461943 122.877041 
L 302.992457 124.551567 
L 303.502629 123.657125 
L 304.0128 123.746977 
L 305.033143 124.780282 
L 306.563657 126.328198 
L 307.073829 126.487482 
L 307.584 126.238345 
L 308.604343 123.563188 
L 309.114514 118.711147 
L 309.624686 117.22041 
L 310.134857 115.084368 
L 311.1552 116.236115 
L 311.665371 115.3866 
L 312.685714 116.370894 
L 313.195886 115.398852 
L 313.706057 113.940789 
L 314.216229 113.589547 
L 315.236571 110.056706 
L 315.746743 109.231696 
L 316.256914 109.615611 
L 316.767086 106.605549 
L 317.277257 107.144664 
L 318.2976 107.753212 
L 318.807771 108.308664 
L 319.317943 105.825465 
L 320.848457 107.16917 
L 321.358629 107.09157 
L 321.8688 106.029675 
L 322.378971 105.564075 
L 322.889143 105.600833 
L 323.909486 105.196496 
L 324.419657 103.824202 
L 324.929829 103.803781 
L 325.44 101.659571 
L 325.950171 101.79435 
L 326.460343 101.68816 
L 326.970514 102.268118 
L 327.990857 101.365507 
L 329.0112 102.66837 
L 329.521371 102.38656 
L 330.031543 101.247065 
L 330.541714 101.287907 
L 331.051886 100.895823 
L 331.562057 101.046939 
L 332.072229 98.555571 
L 332.5824 99.237634 
L 333.092571 99.270308 
L 333.602743 99.968708 
L 334.112914 99.764497 
L 334.623086 99.793087 
L 335.643429 101.079613 
L 336.1536 100.103487 
L 337.173943 99.319318 
L 337.684114 98.625003 
L 338.194286 98.228834 
L 338.704457 98.739361 
L 339.214629 96.611487 
L 339.7248 96.460371 
L 340.234971 97.179192 
L 340.745143 97.309887 
L 343.296 100.777381 
L 343.806171 99.523529 
L 345.336686 101.418602 
L 345.846857 100.44656 
L 346.8672 101.876034 
L 347.377371 100.667108 
L 348.397714 102.100665 
L 348.907886 101.320581 
L 351.458743 104.808496 
L 352.479086 103.109465 
L 354.519771 105.956159 
L 355.029943 103.223823 
L 355.540114 103.497465 
L 356.050286 101.238897 
L 358.090971 104.155023 
L 358.601143 104.518517 
L 359.111314 104.575696 
L 359.621486 105.302686 
L 360.131657 104.743149 
L 360.641829 105.466054 
L 361.152 105.368033 
L 363.702857 108.970306 
L 364.213029 107.058896 
L 364.7232 107.410138 
L 365.233371 108.133043 
L 365.743543 108.067696 
L 366.253714 106.605549 
L 366.763886 103.174812 
L 367.274057 103.914054 
L 367.784229 103.644497 
L 368.2944 104.383739 
L 368.804571 101.312413 
L 369.314743 102.059823 
L 369.824914 101.520707 
L 370.335086 99.77675 
L 370.845257 100.536413 
L 371.355429 99.842097 
L 372.375771 101.259318 
L 372.885943 99.960539 
L 373.396114 100.60176 
L 373.906286 100.520076 
L 374.416457 100.78555 
L 374.926629 99.686897 
L 375.4368 97.032161 
L 375.946971 94.981888 
L 376.457143 94.022098 
L 376.967314 94.826688 
L 377.477486 94.152793 
L 377.987657 94.111951 
L 378.497829 91.706351 
L 379.008 92.502772 
L 379.518171 89.607067 
L 380.028343 89.831699 
L 380.538514 90.570941 
L 381.048686 90.048162 
L 381.558857 87.671152 
L 382.069029 87.013594 
L 382.5792 87.781426 
L 383.089371 81.258943 
L 384.109714 79.486395 
L 384.619886 78.812501 
L 385.130057 76.868417 
L 386.1504 78.457175 
L 386.660571 77.16248 
L 387.170743 78.028333 
L 387.680914 73.96046 
L 388.191086 73.327407 
L 388.701257 68.91646 
L 389.211429 68.740839 
L 389.7216 68.757176 
L 390.231771 66.465935 
L 390.741943 67.209261 
L 391.252114 67.139829 
L 392.272457 65.63684 
L 393.2928 61.19322 
L 393.802971 59.816841 
L 394.313143 59.196041 
L 394.823314 60.045557 
L 395.843657 53.702779 
L 396.353829 53.568 
L 398.904686 58.411873 
L 399.414857 57.586862 
L 400.4352 57.18661 
L 400.945371 58.121894 
L 401.455543 54.352168 
L 401.965714 55.381389 
L 402.475886 54.944379 
L 402.986057 55.891915 
L 403.496229 56.390189 
L 404.0064 56.655663 
L 404.516571 57.619536 
L 405.026743 56.970147 
L 406.557257 59.878104 
L 407.067429 58.591578 
L 407.5776 59.624883 
L 408.087771 58.803957 
L 408.597943 57.166189 
L 409.108114 57.717557 
L 409.618286 58.767199 
L 410.128457 59.490104 
L 410.638629 59.469683 
L 411.1488 58.330189 
L 411.658971 58.991831 
L 412.679314 61.082946 
L 413.189486 61.327999 
L 413.699657 62.275535 
L 414.209829 59.800504 
L 415.230171 61.899788 
L 415.230171 61.899788 
" style="fill:none;stroke:#000000;stroke-dasharray:5.55,2.4;stroke-dashoffset:0;stroke-width:1.5;"/>
   </g>
   <g id="line2d_17">
    <path clip-path="url(#pe9194c0c08)" d="M 57.6 283.737728 
L 160.654629 283.643792 
L 161.1648 283.378318 
L 162.185143 283.300718 
L 162.695314 283.219034 
L 163.205486 282.892297 
L 164.225829 282.74935 
L 165.756343 282.238823 
L 166.266514 281.781392 
L 166.776686 281.58535 
L 167.797029 280.364171 
L 168.3072 280.066024 
L 168.817371 279.539161 
L 169.327543 279.290024 
L 169.837714 279.216508 
L 170.347886 278.591624 
L 170.858057 278.379245 
L 171.368229 277.946319 
L 172.388571 277.607329 
L 172.898743 277.104972 
L 179.0208 276.382066 
L 186.1632 276.357561 
L 186.673371 275.058783 
L 189.224229 275.09554 
L 189.7344 273.91112 
L 190.244571 272.297857 
L 190.754743 272.301941 
L 191.264914 268.785436 
L 191.775086 267.384552 
L 192.285257 263.263585 
L 192.795429 263.324848 
L 193.3056 259.412175 
L 193.815771 251.909481 
L 194.325943 250.169608 
L 194.836114 249.369103 
L 195.346286 246.497903 
L 195.856457 241.523336 
L 196.366629 239.979504 
L 196.8768 236.271042 
L 197.386971 236.397652 
L 197.897143 235.172389 
L 198.407314 231.839674 
L 198.917486 230.263169 
L 200.448 219.309319 
L 200.958171 217.54494 
L 201.468343 214.714582 
L 201.978514 213.946751 
L 202.488686 211.606499 
L 202.998857 208.330963 
L 203.509029 207.305826 
L 204.0192 206.966836 
L 204.529371 206.76671 
L 205.549714 205.582289 
L 206.059886 204.581658 
L 206.570057 204.046626 
L 207.080229 202.490543 
L 207.5904 202.719258 
L 208.100571 200.048185 
L 224.426057 207.379342 
L 238.710857 213.436225 
L 245.343086 216.135887 
L 246.8736 216.581066 
L 247.893943 216.907803 
L 248.914286 217.152856 
L 249.424457 217.124266 
L 250.4448 217.459171 
L 251.465143 217.165108 
L 252.485486 216.948645 
L 252.995657 213.783383 
L 253.505829 213.750709 
L 254.526171 213.92633 
L 255.036343 213.595509 
L 255.546514 213.509741 
L 256.056686 211.622836 
L 257.5872 211.602415 
L 259.627886 211.85972 
L 260.138057 212.031257 
L 260.648229 203.703553 
L 261.1584 203.728058 
L 261.668571 201.751301 
L 263.199086 202.396606 
L 264.219429 191.10785 
L 264.7296 188.11004 
L 265.239771 180.762546 
L 266.260114 181.195473 
L 266.770286 179.557704 
L 267.280457 176.780442 
L 267.790629 172.479769 
L 268.810971 167.807433 
L 269.321143 159.863645 
L 269.831314 158.891603 
L 270.341486 154.778803 
L 270.851657 152.875562 
L 271.872 143.514553 
L 272.382171 141.382595 
L 272.892343 135.178681 
L 273.402514 134.807017 
L 273.912686 133.708365 
L 274.422857 122.011188 
L 274.933029 121.668114 
L 275.4432 122.23582 
L 275.953371 117.383778 
L 276.463543 114.095989 
L 276.973714 114.145 
L 277.483886 113.221969 
L 277.994057 110.591737 
L 279.0144 103.276918 
L 279.524571 99.421424 
L 280.544914 98.526982 
L 281.565257 96.889214 
L 282.075429 97.542687 
L 282.5856 97.510013 
L 283.095771 97.32214 
L 283.605943 97.534519 
L 284.116114 95.337214 
L 285.646629 93.16033 
L 286.1568 92.77233 
L 286.666971 92.613046 
L 287.177143 89.49271 
L 287.687314 89.390604 
L 290.238171 92.796835 
L 290.748343 92.470098 
L 292.278857 94.504035 
L 292.789029 94.37334 
L 297.890743 101.042855 
L 298.400914 100.953002 
L 305.033143 109.386896 
L 311.665371 117.551231 
L 318.2976 125.43784 
L 320.848457 128.239608 
L 321.358629 128.382555 
L 322.378971 129.383187 
L 322.889143 127.577966 
L 323.909486 128.337629 
L 324.419657 127.786261 
L 325.44 128.741966 
L 325.950171 129.150387 
L 326.970514 127.386008 
L 327.480686 127.45544 
L 328.501029 128.423397 
L 329.0112 125.940198 
L 329.521371 126.177082 
L 330.541714 125.401082 
L 331.051886 124.388198 
L 332.072229 124.098219 
L 332.5824 118.874515 
L 333.092571 117.730936 
L 333.602743 117.432789 
L 334.112914 116.203442 
L 334.623086 116.21161 
L 335.133257 114.884242 
L 335.643429 114.73721 
L 336.1536 114.014305 
L 336.663771 114.104158 
L 337.173943 112.413295 
L 337.684114 112.948327 
L 338.194286 111.988537 
L 338.704457 111.465758 
L 339.214629 112.062053 
L 339.7248 112.331611 
L 340.234971 112.327527 
L 340.745143 112.862558 
L 342.275657 113.038179 
L 342.785829 111.902769 
L 343.806171 113.254642 
L 344.316343 112.613421 
L 344.826514 113.287316 
L 345.336686 111.829253 
L 345.846857 112.409211 
L 346.357029 109.734053 
L 346.8672 107.675612 
L 347.887543 109.08058 
L 348.397714 104.869759 
L 349.418057 106.307401 
L 349.928229 106.115443 
L 350.4384 105.796875 
L 350.948571 106.499359 
L 351.458743 104.853423 
L 351.968914 105.572244 
L 352.479086 103.566897 
L 352.989257 103.566897 
L 354.519771 105.641675 
L 355.029943 103.174812 
L 356.050286 103.068623 
L 356.560457 101.871949 
L 357.070629 101.867865 
L 358.090971 103.13397 
L 358.601143 100.977508 
L 359.111314 100.818223 
L 359.621486 98.870055 
L 360.131657 99.51536 
L 360.641829 98.22475 
L 361.152 98.257424 
L 361.662171 98.028708 
L 362.172343 98.800624 
L 362.682514 98.232919 
L 363.702857 93.099067 
L 364.213029 93.768877 
L 364.7232 91.624667 
L 365.233371 91.17132 
L 366.253714 88.202099 
L 366.763886 87.356668 
L 367.274057 88.181678 
L 367.784229 86.535742 
L 369.824914 89.627488 
L 370.335086 89.157804 
L 370.845257 88.291952 
L 371.355429 89.116962 
L 371.8656 88.733047 
L 372.375771 89.558057 
L 372.885943 89.978731 
L 373.396114 90.803741 
L 373.906286 89.688752 
L 374.926629 91.257088 
L 375.4368 89.958309 
L 375.946971 85.9517 
L 376.457143 86.797131 
L 376.967314 86.470394 
L 378.497829 88.99852 
L 379.008 89.472288 
L 380.028343 91.138646 
L 380.538514 88.157173 
L 381.048686 88.892331 
L 381.558857 87.230057 
L 382.069029 87.238226 
L 382.5792 86.033384 
L 383.089371 86.886984 
L 383.599543 82.541384 
L 384.619886 84.273089 
L 385.130057 84.595742 
L 385.640229 85.465679 
L 386.1504 85.551447 
L 386.660571 85.45751 
L 387.170743 83.881005 
L 387.680914 79.608922 
L 388.191086 77.072627 
L 389.7216 78.359154 
L 390.231771 77.668922 
L 390.741943 78.575617 
L 391.252114 79.10248 
L 391.762286 78.350985 
L 392.782629 80.08269 
L 393.2928 79.809048 
L 393.802971 79.894816 
L 394.313143 80.801511 
L 394.823314 81.2181 
L 395.333486 81.136416 
L 396.864 83.664542 
L 397.374171 84.538563 
L 397.884343 83.603279 
L 398.394514 82.933469 
L 398.904686 82.56589 
L 399.414857 83.378647 
L 399.925029 83.578774 
L 400.4352 81.904248 
L 400.945371 82.782353 
L 401.455543 82.95389 
L 402.986057 85.531026 
L 404.0064 87.176963 
L 404.516571 85.7189 
L 407.067429 89.831699 
L 407.5776 90.579109 
L 408.087771 89.766352 
L 408.597943 90.407573 
L 409.108114 90.517846 
L 409.618286 91.400036 
L 410.128457 91.645088 
L 410.638629 90.374899 
L 411.658971 92.029004 
L 412.169143 91.910562 
L 413.189486 93.638182 
L 413.699657 90.587278 
L 414.209829 91.48172 
L 414.72 87.871278 
L 415.230171 88.728962 
L 415.230171 88.728962 
" style="fill:none;stroke:#000000;stroke-dasharray:1.5,2.475;stroke-dashoffset:0;stroke-width:1.5;"/>
   </g>
   <g id="patch_3">
    <path d="M 57.6 307.584 
L 57.6 41.472 
" style="fill:none;stroke:#000000;stroke-linecap:square;stroke-linejoin:miter;stroke-width:0.8;"/>
   </g>
   <g id="patch_4">
    <path d="M 414.72 307.584 
L 414.72 41.472 
" style="fill:none;stroke:#000000;stroke-linecap:square;stroke-linejoin:miter;stroke-width:0.8;"/>
   </g>
   <g id="patch_5">
    <path d="M 57.6 307.584 
L 414.72 307.584 
" style="fill:none;stroke:#000000;stroke-linecap:square;stroke-linejoin:miter;stroke-width:0.8;"/>
   </g>
   <g id="patch_6">
    <path d="M 57.6 41.472 
L 414.72 41.472 
" style="fill:none;stroke:#000000;stroke-linecap:square;stroke-linejoin:miter;stroke-width:0.8;"/>
   </g>
   <g id="legend_1">
    <g id="patch_7">
     <path d="M 64.6 93.506375 
L 132.95625 93.506375 
Q 134.95625 93.506375 134.95625 91.506375 
L 134.95625 48.472 
Q 134.95625 46.472 132.95625 46.472 
L 64.6 46.472 
Q 62.6 46.472 62.6 48.472 
L 62.6 91.506375 
Q 62.6 93.506375 64.6 93.506375 
z
" style="fill:#ffffff;opacity:0.8;stroke:#cccccc;stroke-linejoin:miter;"/>
    </g>
    <g id="line2d_18">
     <path d="M 66.6 54.570438 
L 86.6 54.570438 
" style="fill:none;stroke:#000000;stroke-linecap:square;stroke-width:1.5;"/>
    </g>
    <g id="line2d_19"/>
    <g id="text_17">
     <!-- Forte -->
     <defs>
      <path d="M 9.8125 72.90625 
L 51.703125 72.90625 
L 51.703125 64.59375 
L 19.671875 64.59375 
L 19.671875 43.109375 
L 48.578125 43.109375 
L 48.578125 34.8125 
L 19.671875 34.8125 
L 19.671875 0 
L 9.8125 0 
z
" id="DejaVuSans-70"/>
      <path d="M 18.3125 70.21875 
L 18.3125 54.6875 
L 36.8125 54.6875 
L 36.8125 47.703125 
L 18.3125 47.703125 
L 18.3125 18.015625 
Q 18.3125 11.328125 20.140625 9.421875 
Q 21.96875 7.515625 27.59375 7.515625 
L 36.8125 7.515625 
L 36.8125 0 
L 27.59375 0 
Q 17.1875 0 13.234375 3.875 
Q 9.28125 7.765625 9.28125 18.015625 
L 9.28125 47.703125 
L 2.6875 47.703125 
L 2.6875 54.6875 
L 9.28125 54.6875 
L 9.28125 70.21875 
z
" id="DejaVuSans-116"/>
     </defs>
     <g transform="translate(94.6 58.070438)scale(0.1 -0.1)">
      <use xlink:href="#DejaVuSans-70"/>
      <use x="57.472656" xlink:href="#DejaVuSans-111"/>
      <use x="118.654297" xlink:href="#DejaVuSans-114"/>
      <use x="159.767578" xlink:href="#DejaVuSans-116"/>
      <use x="198.976562" xlink:href="#DejaVuSans-101"/>
     </g>
    </g>
    <g id="line2d_20">
     <path d="M 66.6 69.248563 
L 86.6 69.248563 
" style="fill:none;stroke:#000000;stroke-dasharray:5.55,2.4;stroke-dashoffset:0;stroke-width:1.5;"/>
    </g>
    <g id="line2d_21"/>
    <g id="text_18">
     <!-- Fraco -->
     <defs>
      <path d="M 48.78125 52.59375 
L 48.78125 44.1875 
Q 44.96875 46.296875 41.140625 47.34375 
Q 37.3125 48.390625 33.40625 48.390625 
Q 24.65625 48.390625 19.8125 42.84375 
Q 14.984375 37.3125 14.984375 27.296875 
Q 14.984375 17.28125 19.8125 11.734375 
Q 24.65625 6.203125 33.40625 6.203125 
Q 37.3125 6.203125 41.140625 7.25 
Q 44.96875 8.296875 48.78125 10.40625 
L 48.78125 2.09375 
Q 45.015625 0.34375 40.984375 -0.53125 
Q 36.96875 -1.421875 32.421875 -1.421875 
Q 20.0625 -1.421875 12.78125 6.34375 
Q 5.515625 14.109375 5.515625 27.296875 
Q 5.515625 40.671875 12.859375 48.328125 
Q 20.21875 56 33.015625 56 
Q 37.15625 56 41.109375 55.140625 
Q 45.0625 54.296875 48.78125 52.59375 
z
" id="DejaVuSans-99"/>
     </defs>
     <g transform="translate(94.6 72.748563)scale(0.1 -0.1)">
      <use xlink:href="#DejaVuSans-70"/>
      <use x="57.410156" xlink:href="#DejaVuSans-114"/>
      <use x="98.523438" xlink:href="#DejaVuSans-97"/>
      <use x="159.802734" xlink:href="#DejaVuSans-99"/>
      <use x="214.783203" xlink:href="#DejaVuSans-111"/>
     </g>
    </g>
    <g id="line2d_22">
     <path d="M 66.6 83.926688 
L 86.6 83.926688 
" style="fill:none;stroke:#000000;stroke-dasharray:1.5,2.475;stroke-dashoffset:0;stroke-width:1.5;"/>
    </g>
    <g id="line2d_23"/>
    <g id="text_19">
     <!-- Normal -->
     <defs>
      <path d="M 9.421875 75.984375 
L 18.40625 75.984375 
L 18.40625 0 
L 9.421875 0 
z
" id="DejaVuSans-108"/>
     </defs>
     <g transform="translate(94.6 87.426688)scale(0.1 -0.1)">
      <use xlink:href="#DejaVuSans-78"/>
      <use x="74.804688" xlink:href="#DejaVuSans-111"/>
      <use x="135.986328" xlink:href="#DejaVuSans-114"/>
      <use x="177.083984" xlink:href="#DejaVuSans-109"/>
      <use x="274.496094" xlink:href="#DejaVuSans-97"/>
      <use x="335.775391" xlink:href="#DejaVuSans-108"/>
     </g>
    </g>
   </g>
  </g>
 </g>
 <defs>
  <clipPath id="pe9194c0c08">
   <rect height="266.112" width="357.12" x="57.6" y="41.472"/>
  </clipPath>
 </defs>
</svg>
