<?xml version="1.0" encoding="utf-8" standalone="no"?>
<!DOCTYPE svg PUBLIC "-//W3C//DTD SVG 1.1//EN"
  "http://www.w3.org/Graphics/SVG/1.1/DTD/svg11.dtd">
<!-- Created with matplotlib (https://matplotlib.org/) -->
<svg height="345.6pt" version="1.1" viewBox="0 0 460.8 345.6" width="460.8pt" xmlns="http://www.w3.org/2000/svg" xmlns:xlink="http://www.w3.org/1999/xlink">
 <defs>
  <style type="text/css">
*{stroke-linecap:butt;stroke-linejoin:round;}
  </style>
 </defs>
 <g id="figure_1">
  <g id="patch_1">
   <path d="M 0 345.6 
L 460.8 345.6 
L 460.8 0 
L 0 0 
z
" style="fill:#ffffff;"/>
  </g>
  <g id="axes_1">
   <g id="patch_2">
    <path d="M 57.6 307.584 
L 414.72 307.584 
L 414.72 41.472 
L 57.6 41.472 
z
" style="fill:#ffffff;"/>
   </g>
   <g id="matplotlib.axis_1">
    <g id="xtick_1">
     <g id="line2d_1">
      <defs>
       <path d="M 0 0 
L 0 3.5 
" id="m54265c1654" style="stroke:#000000;stroke-width:0.8;"/>
      </defs>
      <g>
       <use style="stroke:#000000;stroke-width:0.8;" x="57.6" xlink:href="#m54265c1654" y="307.584"/>
      </g>
     </g>
     <g id="text_1">
      <!-- 0 -->
      <defs>
       <path d="M 31.78125 66.40625 
Q 24.171875 66.40625 20.328125 58.90625 
Q 16.5 51.421875 16.5 36.375 
Q 16.5 21.390625 20.328125 13.890625 
Q 24.171875 6.390625 31.78125 6.390625 
Q 39.453125 6.390625 43.28125 13.890625 
Q 47.125 21.390625 47.125 36.375 
Q 47.125 51.421875 43.28125 58.90625 
Q 39.453125 66.40625 31.78125 66.40625 
z
M 31.78125 74.21875 
Q 44.046875 74.21875 50.515625 64.515625 
Q 56.984375 54.828125 56.984375 36.375 
Q 56.984375 17.96875 50.515625 8.265625 
Q 44.046875 -1.421875 31.78125 -1.421875 
Q 19.53125 -1.421875 13.0625 8.265625 
Q 6.59375 17.96875 6.59375 36.375 
Q 6.59375 54.828125 13.0625 64.515625 
Q 19.53125 74.21875 31.78125 74.21875 
z
" id="DejaVuSans-48"/>
      </defs>
      <g transform="translate(54.41875 322.182437)scale(0.1 -0.1)">
       <use xlink:href="#DejaVuSans-48"/>
      </g>
     </g>
    </g>
    <g id="xtick_2">
     <g id="line2d_2">
      <g>
       <use style="stroke:#000000;stroke-width:0.8;" x="108.617143" xlink:href="#m54265c1654" y="307.584"/>
      </g>
     </g>
     <g id="text_2">
      <!-- 5 -->
      <defs>
       <path d="M 10.796875 72.90625 
L 49.515625 72.90625 
L 49.515625 64.59375 
L 19.828125 64.59375 
L 19.828125 46.734375 
Q 21.96875 47.46875 24.109375 47.828125 
Q 26.265625 48.1875 28.421875 48.1875 
Q 40.625 48.1875 47.75 41.5 
Q 54.890625 34.8125 54.890625 23.390625 
Q 54.890625 11.625 47.5625 5.09375 
Q 40.234375 -1.421875 26.90625 -1.421875 
Q 22.3125 -1.421875 17.546875 -0.640625 
Q 12.796875 0.140625 7.71875 1.703125 
L 7.71875 11.625 
Q 12.109375 9.234375 16.796875 8.0625 
Q 21.484375 6.890625 26.703125 6.890625 
Q 35.15625 6.890625 40.078125 11.328125 
Q 45.015625 15.765625 45.015625 23.390625 
Q 45.015625 31 40.078125 35.4375 
Q 35.15625 39.890625 26.703125 39.890625 
Q 22.75 39.890625 18.8125 39.015625 
Q 14.890625 38.140625 10.796875 36.28125 
z
" id="DejaVuSans-53"/>
      </defs>
      <g transform="translate(105.435893 322.182437)scale(0.1 -0.1)">
       <use xlink:href="#DejaVuSans-53"/>
      </g>
     </g>
    </g>
    <g id="xtick_3">
     <g id="line2d_3">
      <g>
       <use style="stroke:#000000;stroke-width:0.8;" x="159.634286" xlink:href="#m54265c1654" y="307.584"/>
      </g>
     </g>
     <g id="text_3">
      <!-- 10 -->
      <defs>
       <path d="M 12.40625 8.296875 
L 28.515625 8.296875 
L 28.515625 63.921875 
L 10.984375 60.40625 
L 10.984375 69.390625 
L 28.421875 72.90625 
L 38.28125 72.90625 
L 38.28125 8.296875 
L 54.390625 8.296875 
L 54.390625 0 
L 12.40625 0 
z
" id="DejaVuSans-49"/>
      </defs>
      <g transform="translate(153.271786 322.182437)scale(0.1 -0.1)">
       <use xlink:href="#DejaVuSans-49"/>
       <use x="63.623047" xlink:href="#DejaVuSans-48"/>
      </g>
     </g>
    </g>
    <g id="xtick_4">
     <g id="line2d_4">
      <g>
       <use style="stroke:#000000;stroke-width:0.8;" x="210.651429" xlink:href="#m54265c1654" y="307.584"/>
      </g>
     </g>
     <g id="text_4">
      <!-- 15 -->
      <g transform="translate(204.288929 322.182437)scale(0.1 -0.1)">
       <use xlink:href="#DejaVuSans-49"/>
       <use x="63.623047" xlink:href="#DejaVuSans-53"/>
      </g>
     </g>
    </g>
    <g id="xtick_5">
     <g id="line2d_5">
      <g>
       <use style="stroke:#000000;stroke-width:0.8;" x="261.668571" xlink:href="#m54265c1654" y="307.584"/>
      </g>
     </g>
     <g id="text_5">
      <!-- 20 -->
      <defs>
       <path d="M 19.1875 8.296875 
L 53.609375 8.296875 
L 53.609375 0 
L 7.328125 0 
L 7.328125 8.296875 
Q 12.9375 14.109375 22.625 23.890625 
Q 32.328125 33.6875 34.8125 36.53125 
Q 39.546875 41.84375 41.421875 45.53125 
Q 43.3125 49.21875 43.3125 52.78125 
Q 43.3125 58.59375 39.234375 62.25 
Q 35.15625 65.921875 28.609375 65.921875 
Q 23.96875 65.921875 18.8125 64.3125 
Q 13.671875 62.703125 7.8125 59.421875 
L 7.8125 69.390625 
Q 13.765625 71.78125 18.9375 73 
Q 24.125 74.21875 28.421875 74.21875 
Q 39.75 74.21875 46.484375 68.546875 
Q 53.21875 62.890625 53.21875 53.421875 
Q 53.21875 48.921875 51.53125 44.890625 
Q 49.859375 40.875 45.40625 35.40625 
Q 44.1875 33.984375 37.640625 27.21875 
Q 31.109375 20.453125 19.1875 8.296875 
z
" id="DejaVuSans-50"/>
      </defs>
      <g transform="translate(255.306071 322.182437)scale(0.1 -0.1)">
       <use xlink:href="#DejaVuSans-50"/>
       <use x="63.623047" xlink:href="#DejaVuSans-48"/>
      </g>
     </g>
    </g>
    <g id="xtick_6">
     <g id="line2d_6">
      <g>
       <use style="stroke:#000000;stroke-width:0.8;" x="312.685714" xlink:href="#m54265c1654" y="307.584"/>
      </g>
     </g>
     <g id="text_6">
      <!-- 25 -->
      <g transform="translate(306.323214 322.182437)scale(0.1 -0.1)">
       <use xlink:href="#DejaVuSans-50"/>
       <use x="63.623047" xlink:href="#DejaVuSans-53"/>
      </g>
     </g>
    </g>
    <g id="xtick_7">
     <g id="line2d_7">
      <g>
       <use style="stroke:#000000;stroke-width:0.8;" x="363.702857" xlink:href="#m54265c1654" y="307.584"/>
      </g>
     </g>
     <g id="text_7">
      <!-- 30 -->
      <defs>
       <path d="M 40.578125 39.3125 
Q 47.65625 37.796875 51.625 33 
Q 55.609375 28.21875 55.609375 21.1875 
Q 55.609375 10.40625 48.1875 4.484375 
Q 40.765625 -1.421875 27.09375 -1.421875 
Q 22.515625 -1.421875 17.65625 -0.515625 
Q 12.796875 0.390625 7.625 2.203125 
L 7.625 11.71875 
Q 11.71875 9.328125 16.59375 8.109375 
Q 21.484375 6.890625 26.8125 6.890625 
Q 36.078125 6.890625 40.9375 10.546875 
Q 45.796875 14.203125 45.796875 21.1875 
Q 45.796875 27.640625 41.28125 31.265625 
Q 36.765625 34.90625 28.71875 34.90625 
L 20.21875 34.90625 
L 20.21875 43.015625 
L 29.109375 43.015625 
Q 36.375 43.015625 40.234375 45.921875 
Q 44.09375 48.828125 44.09375 54.296875 
Q 44.09375 59.90625 40.109375 62.90625 
Q 36.140625 65.921875 28.71875 65.921875 
Q 24.65625 65.921875 20.015625 65.03125 
Q 15.375 64.15625 9.8125 62.3125 
L 9.8125 71.09375 
Q 15.4375 72.65625 20.34375 73.4375 
Q 25.25 74.21875 29.59375 74.21875 
Q 40.828125 74.21875 47.359375 69.109375 
Q 53.90625 64.015625 53.90625 55.328125 
Q 53.90625 49.265625 50.4375 45.09375 
Q 46.96875 40.921875 40.578125 39.3125 
z
" id="DejaVuSans-51"/>
      </defs>
      <g transform="translate(357.340357 322.182437)scale(0.1 -0.1)">
       <use xlink:href="#DejaVuSans-51"/>
       <use x="63.623047" xlink:href="#DejaVuSans-48"/>
      </g>
     </g>
    </g>
    <g id="xtick_8">
     <g id="line2d_8">
      <g>
       <use style="stroke:#000000;stroke-width:0.8;" x="414.72" xlink:href="#m54265c1654" y="307.584"/>
      </g>
     </g>
     <g id="text_8">
      <!-- 35 -->
      <g transform="translate(408.3575 322.182437)scale(0.1 -0.1)">
       <use xlink:href="#DejaVuSans-51"/>
       <use x="63.623047" xlink:href="#DejaVuSans-53"/>
      </g>
     </g>
    </g>
    <g id="text_9">
     <!-- Tempo (ms) -->
     <defs>
      <path d="M -0.296875 72.90625 
L 61.375 72.90625 
L 61.375 64.59375 
L 35.5 64.59375 
L 35.5 0 
L 25.59375 0 
L 25.59375 64.59375 
L -0.296875 64.59375 
z
" id="DejaVuSans-84"/>
      <path d="M 56.203125 29.59375 
L 56.203125 25.203125 
L 14.890625 25.203125 
Q 15.484375 15.921875 20.484375 11.0625 
Q 25.484375 6.203125 34.421875 6.203125 
Q 39.59375 6.203125 44.453125 7.46875 
Q 49.3125 8.734375 54.109375 11.28125 
L 54.109375 2.78125 
Q 49.265625 0.734375 44.1875 -0.34375 
Q 39.109375 -1.421875 33.890625 -1.421875 
Q 20.796875 -1.421875 13.15625 6.1875 
Q 5.515625 13.8125 5.515625 26.8125 
Q 5.515625 40.234375 12.765625 48.109375 
Q 20.015625 56 32.328125 56 
Q 43.359375 56 49.78125 48.890625 
Q 56.203125 41.796875 56.203125 29.59375 
z
M 47.21875 32.234375 
Q 47.125 39.59375 43.09375 43.984375 
Q 39.0625 48.390625 32.421875 48.390625 
Q 24.90625 48.390625 20.390625 44.140625 
Q 15.875 39.890625 15.1875 32.171875 
z
" id="DejaVuSans-101"/>
      <path d="M 52 44.1875 
Q 55.375 50.25 60.0625 53.125 
Q 64.75 56 71.09375 56 
Q 79.640625 56 84.28125 50.015625 
Q 88.921875 44.046875 88.921875 33.015625 
L 88.921875 0 
L 79.890625 0 
L 79.890625 32.71875 
Q 79.890625 40.578125 77.09375 44.375 
Q 74.3125 48.1875 68.609375 48.1875 
Q 61.625 48.1875 57.5625 43.546875 
Q 53.515625 38.921875 53.515625 30.90625 
L 53.515625 0 
L 44.484375 0 
L 44.484375 32.71875 
Q 44.484375 40.625 41.703125 44.40625 
Q 38.921875 48.1875 33.109375 48.1875 
Q 26.21875 48.1875 22.15625 43.53125 
Q 18.109375 38.875 18.109375 30.90625 
L 18.109375 0 
L 9.078125 0 
L 9.078125 54.6875 
L 18.109375 54.6875 
L 18.109375 46.1875 
Q 21.1875 51.21875 25.484375 53.609375 
Q 29.78125 56 35.6875 56 
Q 41.65625 56 45.828125 52.96875 
Q 50 49.953125 52 44.1875 
z
" id="DejaVuSans-109"/>
      <path d="M 18.109375 8.203125 
L 18.109375 -20.796875 
L 9.078125 -20.796875 
L 9.078125 54.6875 
L 18.109375 54.6875 
L 18.109375 46.390625 
Q 20.953125 51.265625 25.265625 53.625 
Q 29.59375 56 35.59375 56 
Q 45.5625 56 51.78125 48.09375 
Q 58.015625 40.1875 58.015625 27.296875 
Q 58.015625 14.40625 51.78125 6.484375 
Q 45.5625 -1.421875 35.59375 -1.421875 
Q 29.59375 -1.421875 25.265625 0.953125 
Q 20.953125 3.328125 18.109375 8.203125 
z
M 48.6875 27.296875 
Q 48.6875 37.203125 44.609375 42.84375 
Q 40.53125 48.484375 33.40625 48.484375 
Q 26.265625 48.484375 22.1875 42.84375 
Q 18.109375 37.203125 18.109375 27.296875 
Q 18.109375 17.390625 22.1875 11.75 
Q 26.265625 6.109375 33.40625 6.109375 
Q 40.53125 6.109375 44.609375 11.75 
Q 48.6875 17.390625 48.6875 27.296875 
z
" id="DejaVuSans-112"/>
      <path d="M 30.609375 48.390625 
Q 23.390625 48.390625 19.1875 42.75 
Q 14.984375 37.109375 14.984375 27.296875 
Q 14.984375 17.484375 19.15625 11.84375 
Q 23.34375 6.203125 30.609375 6.203125 
Q 37.796875 6.203125 41.984375 11.859375 
Q 46.1875 17.53125 46.1875 27.296875 
Q 46.1875 37.015625 41.984375 42.703125 
Q 37.796875 48.390625 30.609375 48.390625 
z
M 30.609375 56 
Q 42.328125 56 49.015625 48.375 
Q 55.71875 40.765625 55.71875 27.296875 
Q 55.71875 13.875 49.015625 6.21875 
Q 42.328125 -1.421875 30.609375 -1.421875 
Q 18.84375 -1.421875 12.171875 6.21875 
Q 5.515625 13.875 5.515625 27.296875 
Q 5.515625 40.765625 12.171875 48.375 
Q 18.84375 56 30.609375 56 
z
" id="DejaVuSans-111"/>
      <path id="DejaVuSans-32"/>
      <path d="M 31 75.875 
Q 24.46875 64.65625 21.28125 53.65625 
Q 18.109375 42.671875 18.109375 31.390625 
Q 18.109375 20.125 21.3125 9.0625 
Q 24.515625 -2 31 -13.1875 
L 23.1875 -13.1875 
Q 15.875 -1.703125 12.234375 9.375 
Q 8.59375 20.453125 8.59375 31.390625 
Q 8.59375 42.28125 12.203125 53.3125 
Q 15.828125 64.359375 23.1875 75.875 
z
" id="DejaVuSans-40"/>
      <path d="M 44.28125 53.078125 
L 44.28125 44.578125 
Q 40.484375 46.53125 36.375 47.5 
Q 32.28125 48.484375 27.875 48.484375 
Q 21.1875 48.484375 17.84375 46.4375 
Q 14.5 44.390625 14.5 40.28125 
Q 14.5 37.15625 16.890625 35.375 
Q 19.28125 33.59375 26.515625 31.984375 
L 29.59375 31.296875 
Q 39.15625 29.25 43.1875 25.515625 
Q 47.21875 21.78125 47.21875 15.09375 
Q 47.21875 7.46875 41.1875 3.015625 
Q 35.15625 -1.421875 24.609375 -1.421875 
Q 20.21875 -1.421875 15.453125 -0.5625 
Q 10.6875 0.296875 5.421875 2 
L 5.421875 11.28125 
Q 10.40625 8.6875 15.234375 7.390625 
Q 20.0625 6.109375 24.8125 6.109375 
Q 31.15625 6.109375 34.5625 8.28125 
Q 37.984375 10.453125 37.984375 14.40625 
Q 37.984375 18.0625 35.515625 20.015625 
Q 33.0625 21.96875 24.703125 23.78125 
L 21.578125 24.515625 
Q 13.234375 26.265625 9.515625 29.90625 
Q 5.8125 33.546875 5.8125 39.890625 
Q 5.8125 47.609375 11.28125 51.796875 
Q 16.75 56 26.8125 56 
Q 31.78125 56 36.171875 55.265625 
Q 40.578125 54.546875 44.28125 53.078125 
z
" id="DejaVuSans-115"/>
      <path d="M 8.015625 75.875 
L 15.828125 75.875 
Q 23.140625 64.359375 26.78125 53.3125 
Q 30.421875 42.28125 30.421875 31.390625 
Q 30.421875 20.453125 26.78125 9.375 
Q 23.140625 -1.703125 15.828125 -13.1875 
L 8.015625 -13.1875 
Q 14.5 -2 17.703125 9.0625 
Q 20.90625 20.125 20.90625 31.390625 
Q 20.90625 42.671875 17.703125 53.65625 
Q 14.5 64.65625 8.015625 75.875 
z
" id="DejaVuSans-41"/>
     </defs>
     <g transform="translate(205.973281 335.860562)scale(0.1 -0.1)">
      <use xlink:href="#DejaVuSans-84"/>
      <use x="60.818359" xlink:href="#DejaVuSans-101"/>
      <use x="122.341797" xlink:href="#DejaVuSans-109"/>
      <use x="219.753906" xlink:href="#DejaVuSans-112"/>
      <use x="283.230469" xlink:href="#DejaVuSans-111"/>
      <use x="344.412109" xlink:href="#DejaVuSans-32"/>
      <use x="376.199219" xlink:href="#DejaVuSans-40"/>
      <use x="415.212891" xlink:href="#DejaVuSans-109"/>
      <use x="512.625" xlink:href="#DejaVuSans-115"/>
      <use x="564.724609" xlink:href="#DejaVuSans-41"/>
     </g>
    </g>
   </g>
   <g id="matplotlib.axis_2">
    <g id="ytick_1">
     <g id="line2d_9">
      <defs>
       <path d="M 0 0 
L -3.5 0 
" id="m614eb46693" style="stroke:#000000;stroke-width:0.8;"/>
      </defs>
      <g>
       <use style="stroke:#000000;stroke-width:0.8;" x="57.6" xlink:href="#m614eb46693" y="288.552763"/>
      </g>
     </g>
     <g id="text_10">
      <!-- 0.0 -->
      <defs>
       <path d="M 10.6875 12.40625 
L 21 12.40625 
L 21 0 
L 10.6875 0 
z
" id="DejaVuSans-46"/>
      </defs>
      <g transform="translate(34.696875 292.351982)scale(0.1 -0.1)">
       <use xlink:href="#DejaVuSans-48"/>
       <use x="63.623047" xlink:href="#DejaVuSans-46"/>
       <use x="95.410156" xlink:href="#DejaVuSans-48"/>
      </g>
     </g>
    </g>
    <g id="ytick_2">
     <g id="line2d_10">
      <g>
       <use style="stroke:#000000;stroke-width:0.8;" x="57.6" xlink:href="#m614eb46693" y="240.25724"/>
      </g>
     </g>
     <g id="text_11">
      <!-- 0.5 -->
      <g transform="translate(34.696875 244.056459)scale(0.1 -0.1)">
       <use xlink:href="#DejaVuSans-48"/>
       <use x="63.623047" xlink:href="#DejaVuSans-46"/>
       <use x="95.410156" xlink:href="#DejaVuSans-53"/>
      </g>
     </g>
    </g>
    <g id="ytick_3">
     <g id="line2d_11">
      <g>
       <use style="stroke:#000000;stroke-width:0.8;" x="57.6" xlink:href="#m614eb46693" y="191.961718"/>
      </g>
     </g>
     <g id="text_12">
      <!-- 1.0 -->
      <g transform="translate(34.696875 195.760936)scale(0.1 -0.1)">
       <use xlink:href="#DejaVuSans-49"/>
       <use x="63.623047" xlink:href="#DejaVuSans-46"/>
       <use x="95.410156" xlink:href="#DejaVuSans-48"/>
      </g>
     </g>
    </g>
    <g id="ytick_4">
     <g id="line2d_12">
      <g>
       <use style="stroke:#000000;stroke-width:0.8;" x="57.6" xlink:href="#m614eb46693" y="143.666195"/>
      </g>
     </g>
     <g id="text_13">
      <!-- 1.5 -->
      <g transform="translate(34.696875 147.465414)scale(0.1 -0.1)">
       <use xlink:href="#DejaVuSans-49"/>
       <use x="63.623047" xlink:href="#DejaVuSans-46"/>
       <use x="95.410156" xlink:href="#DejaVuSans-53"/>
      </g>
     </g>
    </g>
    <g id="ytick_5">
     <g id="line2d_13">
      <g>
       <use style="stroke:#000000;stroke-width:0.8;" x="57.6" xlink:href="#m614eb46693" y="95.370673"/>
      </g>
     </g>
     <g id="text_14">
      <!-- 2.0 -->
      <g transform="translate(34.696875 99.169891)scale(0.1 -0.1)">
       <use xlink:href="#DejaVuSans-50"/>
       <use x="63.623047" xlink:href="#DejaVuSans-46"/>
       <use x="95.410156" xlink:href="#DejaVuSans-48"/>
      </g>
     </g>
    </g>
    <g id="ytick_6">
     <g id="line2d_14">
      <g>
       <use style="stroke:#000000;stroke-width:0.8;" x="57.6" xlink:href="#m614eb46693" y="47.07515"/>
      </g>
     </g>
     <g id="text_15">
      <!-- 2.5 -->
      <g transform="translate(34.696875 50.874369)scale(0.1 -0.1)">
       <use xlink:href="#DejaVuSans-50"/>
       <use x="63.623047" xlink:href="#DejaVuSans-46"/>
       <use x="95.410156" xlink:href="#DejaVuSans-53"/>
      </g>
     </g>
    </g>
    <g id="text_16">
     <!-- Derivada da força (N/s) -->
     <defs>
      <path d="M 19.671875 64.796875 
L 19.671875 8.109375 
L 31.59375 8.109375 
Q 46.6875 8.109375 53.6875 14.9375 
Q 60.6875 21.78125 60.6875 36.53125 
Q 60.6875 51.171875 53.6875 57.984375 
Q 46.6875 64.796875 31.59375 64.796875 
z
M 9.8125 72.90625 
L 30.078125 72.90625 
Q 51.265625 72.90625 61.171875 64.09375 
Q 71.09375 55.28125 71.09375 36.53125 
Q 71.09375 17.671875 61.125 8.828125 
Q 51.171875 0 30.078125 0 
L 9.8125 0 
z
" id="DejaVuSans-68"/>
      <path d="M 41.109375 46.296875 
Q 39.59375 47.171875 37.8125 47.578125 
Q 36.03125 48 33.890625 48 
Q 26.265625 48 22.1875 43.046875 
Q 18.109375 38.09375 18.109375 28.8125 
L 18.109375 0 
L 9.078125 0 
L 9.078125 54.6875 
L 18.109375 54.6875 
L 18.109375 46.1875 
Q 20.953125 51.171875 25.484375 53.578125 
Q 30.03125 56 36.53125 56 
Q 37.453125 56 38.578125 55.875 
Q 39.703125 55.765625 41.0625 55.515625 
z
" id="DejaVuSans-114"/>
      <path d="M 9.421875 54.6875 
L 18.40625 54.6875 
L 18.40625 0 
L 9.421875 0 
z
M 9.421875 75.984375 
L 18.40625 75.984375 
L 18.40625 64.59375 
L 9.421875 64.59375 
z
" id="DejaVuSans-105"/>
      <path d="M 2.984375 54.6875 
L 12.5 54.6875 
L 29.59375 8.796875 
L 46.6875 54.6875 
L 56.203125 54.6875 
L 35.6875 0 
L 23.484375 0 
z
" id="DejaVuSans-118"/>
      <path d="M 34.28125 27.484375 
Q 23.390625 27.484375 19.1875 25 
Q 14.984375 22.515625 14.984375 16.5 
Q 14.984375 11.71875 18.140625 8.90625 
Q 21.296875 6.109375 26.703125 6.109375 
Q 34.1875 6.109375 38.703125 11.40625 
Q 43.21875 16.703125 43.21875 25.484375 
L 43.21875 27.484375 
z
M 52.203125 31.203125 
L 52.203125 0 
L 43.21875 0 
L 43.21875 8.296875 
Q 40.140625 3.328125 35.546875 0.953125 
Q 30.953125 -1.421875 24.3125 -1.421875 
Q 15.921875 -1.421875 10.953125 3.296875 
Q 6 8.015625 6 15.921875 
Q 6 25.140625 12.171875 29.828125 
Q 18.359375 34.515625 30.609375 34.515625 
L 43.21875 34.515625 
L 43.21875 35.40625 
Q 43.21875 41.609375 39.140625 45 
Q 35.0625 48.390625 27.6875 48.390625 
Q 23 48.390625 18.546875 47.265625 
Q 14.109375 46.140625 10.015625 43.890625 
L 10.015625 52.203125 
Q 14.9375 54.109375 19.578125 55.046875 
Q 24.21875 56 28.609375 56 
Q 40.484375 56 46.34375 49.84375 
Q 52.203125 43.703125 52.203125 31.203125 
z
" id="DejaVuSans-97"/>
      <path d="M 45.40625 46.390625 
L 45.40625 75.984375 
L 54.390625 75.984375 
L 54.390625 0 
L 45.40625 0 
L 45.40625 8.203125 
Q 42.578125 3.328125 38.25 0.953125 
Q 33.9375 -1.421875 27.875 -1.421875 
Q 17.96875 -1.421875 11.734375 6.484375 
Q 5.515625 14.40625 5.515625 27.296875 
Q 5.515625 40.1875 11.734375 48.09375 
Q 17.96875 56 27.875 56 
Q 33.9375 56 38.25 53.625 
Q 42.578125 51.265625 45.40625 46.390625 
z
M 14.796875 27.296875 
Q 14.796875 17.390625 18.875 11.75 
Q 22.953125 6.109375 30.078125 6.109375 
Q 37.203125 6.109375 41.296875 11.75 
Q 45.40625 17.390625 45.40625 27.296875 
Q 45.40625 37.203125 41.296875 42.84375 
Q 37.203125 48.484375 30.078125 48.484375 
Q 22.953125 48.484375 18.875 42.84375 
Q 14.796875 37.203125 14.796875 27.296875 
z
" id="DejaVuSans-100"/>
      <path d="M 37.109375 75.984375 
L 37.109375 68.5 
L 28.515625 68.5 
Q 23.6875 68.5 21.796875 66.546875 
Q 19.921875 64.59375 19.921875 59.515625 
L 19.921875 54.6875 
L 34.71875 54.6875 
L 34.71875 47.703125 
L 19.921875 47.703125 
L 19.921875 0 
L 10.890625 0 
L 10.890625 47.703125 
L 2.296875 47.703125 
L 2.296875 54.6875 
L 10.890625 54.6875 
L 10.890625 58.5 
Q 10.890625 67.625 15.140625 71.796875 
Q 19.390625 75.984375 28.609375 75.984375 
z
" id="DejaVuSans-102"/>
      <path d="M 48.78125 52.59375 
L 48.78125 44.1875 
Q 44.96875 46.296875 41.140625 47.34375 
Q 37.3125 48.390625 33.40625 48.390625 
Q 24.65625 48.390625 19.8125 42.84375 
Q 14.984375 37.3125 14.984375 27.296875 
Q 14.984375 17.28125 19.8125 11.734375 
Q 24.65625 6.203125 33.40625 6.203125 
Q 37.3125 6.203125 41.140625 7.25 
Q 44.96875 8.296875 48.78125 10.40625 
L 48.78125 2.09375 
Q 45.015625 0.34375 40.984375 -0.53125 
Q 36.96875 -1.421875 32.421875 -1.421875 
Q 20.0625 -1.421875 12.78125 6.34375 
Q 5.515625 14.109375 5.515625 27.296875 
Q 5.515625 40.671875 12.859375 48.328125 
Q 20.21875 56 33.015625 56 
Q 37.15625 56 41.109375 55.140625 
Q 45.0625 54.296875 48.78125 52.59375 
z
M 36.078125 0 
Q 38.765625 -3.03125 40.078125 -5.59375 
Q 41.40625 -8.15625 41.40625 -10.5 
Q 41.40625 -14.84375 38.46875 -17.0625 
Q 35.546875 -19.28125 29.78125 -19.28125 
Q 27.546875 -19.28125 25.421875 -18.984375 
Q 23.296875 -18.703125 21.1875 -18.109375 
L 21.1875 -11.71875 
Q 22.859375 -12.546875 24.65625 -12.90625 
Q 26.46875 -13.28125 28.765625 -13.28125 
Q 31.640625 -13.28125 33.109375 -12.109375 
Q 34.578125 -10.9375 34.578125 -8.6875 
Q 34.578125 -7.234375 33.515625 -5.109375 
Q 32.46875 -2.984375 30.28125 0 
z
" id="DejaVuSans-231"/>
      <path d="M 9.8125 72.90625 
L 23.09375 72.90625 
L 55.421875 11.921875 
L 55.421875 72.90625 
L 64.984375 72.90625 
L 64.984375 0 
L 51.703125 0 
L 19.390625 60.984375 
L 19.390625 0 
L 9.8125 0 
z
" id="DejaVuSans-78"/>
      <path d="M 25.390625 72.90625 
L 33.6875 72.90625 
L 8.296875 -9.28125 
L 0 -9.28125 
z
" id="DejaVuSans-47"/>
     </defs>
     <g transform="translate(28.617187 232.78425)rotate(-90)scale(0.1 -0.1)">
      <use xlink:href="#DejaVuSans-68"/>
      <use x="77.001953" xlink:href="#DejaVuSans-101"/>
      <use x="138.525391" xlink:href="#DejaVuSans-114"/>
      <use x="179.638672" xlink:href="#DejaVuSans-105"/>
      <use x="207.421875" xlink:href="#DejaVuSans-118"/>
      <use x="266.601562" xlink:href="#DejaVuSans-97"/>
      <use x="327.880859" xlink:href="#DejaVuSans-100"/>
      <use x="391.357422" xlink:href="#DejaVuSans-97"/>
      <use x="452.636719" xlink:href="#DejaVuSans-32"/>
      <use x="484.423828" xlink:href="#DejaVuSans-100"/>
      <use x="547.900391" xlink:href="#DejaVuSans-97"/>
      <use x="609.179688" xlink:href="#DejaVuSans-32"/>
      <use x="640.966797" xlink:href="#DejaVuSans-102"/>
      <use x="676.171875" xlink:href="#DejaVuSans-111"/>
      <use x="737.353516" xlink:href="#DejaVuSans-114"/>
      <use x="778.435547" xlink:href="#DejaVuSans-231"/>
      <use x="833.416016" xlink:href="#DejaVuSans-97"/>
      <use x="894.695312" xlink:href="#DejaVuSans-32"/>
      <use x="926.482422" xlink:href="#DejaVuSans-40"/>
      <use x="965.496094" xlink:href="#DejaVuSans-78"/>
      <use x="1040.300781" xlink:href="#DejaVuSans-47"/>
      <use x="1073.992188" xlink:href="#DejaVuSans-115"/>
      <use x="1126.091797" xlink:href="#DejaVuSans-41"/>
     </g>
    </g>
   </g>
   <g id="line2d_15">
    <path clip-path="url(#p801395612e)" d="M 57.6 288.552763 
L 164.225829 288.552763 
L 164.736 288.436854 
L 165.756343 288.367308 
L 166.776686 288.054353 
L 167.286857 287.712421 
L 167.797029 286.960943 
L 168.3072 286.953215 
L 168.817371 286.545601 
L 169.327543 286.543669 
L 169.837714 285.755486 
L 170.347886 285.253213 
L 171.368229 283.338778 
L 171.8784 282.89446 
L 172.388571 281.878322 
L 172.898743 281.532526 
L 174.429257 278.032066 
L 174.939429 277.127974 
L 175.4496 276.459564 
L 175.959771 276.196836 
L 176.469943 272.999673 
L 176.980114 272.186376 
L 177.490286 270.225578 
L 178.000457 268.915803 
L 178.510629 267.922848 
L 179.0208 265.799776 
L 179.530971 265.848072 
L 180.041143 265.307162 
L 180.551314 265.359321 
L 181.061486 264.150001 
L 181.571657 262.488635 
L 182.592 262.61034 
L 183.102171 261.872384 
L 183.612343 261.934203 
L 184.122514 260.941247 
L 184.632686 261.006929 
L 185.142857 260.894883 
L 185.653029 260.958633 
L 186.673371 260.280564 
L 187.183543 258.516812 
L 188.203886 257.438855 
L 188.714057 257.510333 
L 189.224229 256.496127 
L 189.7344 256.219876 
L 190.244571 255.466466 
L 190.754743 255.545671 
L 191.264914 255.167034 
L 191.775086 253.895896 
L 192.285257 251.996916 
L 192.795429 251.33237 
L 193.3056 250.223504 
L 193.815771 250.316232 
L 194.325943 250.153959 
L 195.346286 248.907934 
L 196.8768 245.117702 
L 197.386971 245.223952 
L 197.897143 244.350769 
L 198.407314 244.457019 
L 198.917486 241.850993 
L 200.448 239.809058 
L 200.958171 238.420079 
L 201.468343 236.594508 
L 201.978514 233.63689 
L 202.488686 228.865292 
L 204.0192 225.687447 
L 205.549714 226.170402 
L 206.059886 223.036989 
L 207.080229 223.378921 
L 207.5904 221.810283 
L 208.100571 221.98801 
L 209.120914 219.930621 
L 210.141257 216.565389 
L 210.651429 216.758571 
L 211.1616 216.076638 
L 211.671771 212.311519 
L 213.202286 212.931634 
L 213.712457 211.042313 
L 214.222629 209.98947 
L 215.753143 210.634699 
L 216.263314 208.096286 
L 217.283657 204.253894 
L 218.814171 191.764672 
L 219.324343 189.73626 
L 221.365029 190.877966 
L 221.8752 189.205009 
L 222.385371 189.446487 
L 222.895543 188.256485 
L 223.915886 188.776145 
L 224.426057 187.273188 
L 224.936229 187.557166 
L 225.4464 184.464321 
L 225.956571 182.93625 
L 226.976914 183.227955 
L 227.487086 183.544774 
L 227.997257 181.854431 
L 229.0176 181.916249 
L 229.527771 181.811931 
L 230.037943 182.008976 
L 230.548114 177.136924 
L 231.058286 176.951469 
L 231.568457 170.984075 
L 233.098971 171.383961 
L 233.609143 167.978161 
L 234.119314 166.214409 
L 234.629486 163.009518 
L 235.139657 162.999859 
L 235.649829 162.526563 
L 236.16 162.690767 
L 236.670171 160.863265 
L 237.180343 160.737696 
L 238.200686 160.020991 
L 238.710857 158.498716 
L 239.221029 158.245648 
L 239.7312 157.552124 
L 240.241371 157.200532 
L 240.751543 156.323486 
L 241.771886 156.095531 
L 242.282057 156.024053 
L 242.792229 155.063938 
L 243.3024 153.740641 
L 243.812571 153.539732 
L 244.322743 151.658138 
L 244.832914 151.789502 
L 245.343086 149.593022 
L 245.853257 148.242679 
L 246.363429 148.157679 
L 246.8736 146.030744 
L 247.383771 145.592221 
L 247.893943 144.597333 
L 248.404114 142.874149 
L 248.914286 142.818126 
L 249.424457 143.279831 
L 249.934629 143.250854 
L 250.4448 143.716422 
L 250.954971 143.517445 
L 251.465143 140.130963 
L 251.975314 140.604259 
L 252.485486 140.677668 
L 252.995657 140.229486 
L 253.505829 140.127099 
L 254.016 140.604259 
L 254.526171 140.051758 
L 255.036343 140.165736 
L 255.546514 139.667326 
L 256.056686 140.146417 
L 256.566857 140.146417 
L 257.077029 140.627441 
L 257.5872 139.197893 
L 258.097371 135.774707 
L 259.627886 137.268004 
L 260.138057 137.225504 
L 260.648229 135.079251 
L 261.1584 135.583456 
L 261.668571 134.385728 
L 262.178743 129.471175 
L 262.688914 129.998562 
L 263.199086 129.735835 
L 263.709257 128.576742 
L 264.219429 126.210261 
L 264.7296 126.310716 
L 265.239771 125.449124 
L 267.790629 128.184582 
L 268.3008 127.568332 
L 269.321143 128.661742 
L 269.831314 127.854241 
L 270.341486 121.143095 
L 270.851657 121.72071 
L 271.361829 119.309797 
L 272.892343 121.07355 
L 273.402514 119.667184 
L 273.912686 118.93116 
L 274.422857 119.526161 
L 274.933029 118.264682 
L 275.953371 119.470138 
L 276.463543 119.095365 
L 276.973714 119.700025 
L 277.483886 117.068885 
L 279.524571 119.462411 
L 280.034743 117.934341 
L 280.544914 116.873771 
L 282.075429 118.637524 
L 282.5856 116.068202 
L 283.095771 116.603316 
L 283.605943 115.992861 
L 284.116114 115.705019 
L 285.646629 117.422408 
L 287.177143 113.438993 
L 287.687314 111.261831 
L 288.197486 110.562512 
L 288.707657 110.722853 
L 289.217829 111.093763 
L 289.728 110.421489 
L 290.238171 107.966145 
L 290.748343 104.716822 
L 291.258514 104.610572 
L 291.768686 104.998868 
L 292.278857 104.461822 
L 292.789029 104.446367 
L 294.319543 105.458641 
L 294.829714 104.647277 
L 295.339886 104.975686 
L 295.850057 102.477842 
L 296.8704 99.692156 
L 297.380571 99.697951 
L 297.890743 95.786014 
L 298.400914 96.427379 
L 298.911086 96.533629 
L 299.421257 95.772491 
L 299.931429 92.708623 
L 300.4416 93.237942 
L 301.461943 94.636581 
L 301.972114 93.518056 
L 302.482286 91.964872 
L 302.992457 90.956462 
L 303.502629 91.748508 
L 304.0128 89.633164 
L 304.522971 90.168279 
L 305.033143 85.765659 
L 305.543314 76.73826 
L 306.053486 77.408602 
L 306.563657 77.474284 
L 307.073829 77.833602 
L 308.094171 79.350082 
L 308.604343 79.856219 
L 309.114514 79.632128 
L 309.624686 80.068719 
L 310.134857 80.922584 
L 310.645029 79.239968 
L 311.1552 77.006783 
L 311.665371 76.577919 
L 312.175543 77.451102 
L 312.685714 77.400874 
L 313.195886 78.059625 
L 313.706057 77.225079 
L 314.216229 77.793034 
L 314.7264 78.670081 
L 315.236571 76.4311 
L 315.746743 76.241782 
L 316.256914 77.138147 
L 316.767086 75.84769 
L 318.2976 78.548376 
L 318.807771 73.751665 
L 319.317943 73.085187 
L 319.828114 71.912571 
L 320.338286 68.222793 
L 320.848457 68.748249 
L 321.8688 70.651092 
L 322.378971 69.795296 
L 322.889143 69.435977 
L 323.399314 70.39416 
L 323.909486 69.801091 
L 324.419657 70.363251 
L 324.929829 71.118593 
L 325.44 70.50041 
L 325.950171 66.290972 
L 326.460343 66.837678 
L 327.990857 69.787568 
L 328.501029 70.403819 
L 329.0112 69.391545 
L 329.521371 69.812682 
L 330.031543 67.878929 
L 330.541714 67.436542 
L 331.051886 67.426883 
L 331.562057 66.391427 
L 332.072229 64.268356 
L 334.112914 68.317453 
L 334.623086 67.645179 
L 335.133257 68.570521 
L 335.643429 66.524723 
L 336.1536 66.078472 
L 336.663771 65.446767 
L 337.173943 61.212215 
L 337.684114 61.942444 
L 338.194286 57.887552 
L 338.704457 58.57528 
L 339.214629 57.750392 
L 339.7248 55.325957 
L 340.234971 54.02391 
L 340.745143 54.282774 
L 341.255314 55.063229 
L 341.765486 54.135955 
L 342.275657 53.639477 
L 342.785829 54.251865 
L 343.296 55.150161 
L 343.806171 53.568 
L 345.846857 56.998914 
L 346.357029 57.126414 
L 346.8672 57.935847 
L 347.377371 58.420734 
L 348.397714 60.45301 
L 348.907886 58.926871 
L 349.418057 58.859257 
L 349.928229 59.896645 
L 350.4384 59.002212 
L 350.948571 58.907553 
L 351.458743 54.211296 
L 351.968914 53.900273 
L 352.479086 54.506865 
L 353.499429 56.672436 
L 354.0096 55.646639 
L 354.519771 55.988572 
L 355.540114 58.045961 
L 356.050286 56.873346 
L 357.070629 59.127781 
L 357.5808 59.734372 
L 358.090971 60.595964 
L 358.601143 61.113692 
L 359.111314 62.25733 
L 359.621486 62.301762 
L 360.641829 64.034606 
L 361.152 63.779605 
L 361.662171 64.165969 
L 362.172343 63.008809 
L 362.682514 63.945742 
L 363.192686 64.440288 
L 363.702857 64.11381 
L 364.213029 63.261877 
L 364.7232 64.33597 
L 365.233371 64.76097 
L 365.743543 65.632222 
L 366.763886 67.913702 
L 367.274057 64.799607 
L 367.784229 65.274835 
L 368.2944 65.487335 
L 369.314743 67.774611 
L 369.824914 68.394725 
L 370.335086 68.55893 
L 370.845257 69.267908 
L 371.355429 70.398024 
L 371.8656 68.520294 
L 372.375771 68.721203 
L 372.885943 69.577 
L 373.396114 64.900061 
L 373.906286 65.987677 
L 374.416457 61.415057 
L 374.926629 58.868917 
L 375.4368 57.914597 
L 375.946971 57.899142 
L 376.457143 57.584256 
L 376.967314 57.460619 
L 377.477486 57.897211 
L 377.987657 58.175393 
L 378.497829 59.023462 
L 379.008 60.242441 
L 379.518171 60.2946 
L 380.028343 61.111761 
L 381.048686 63.315968 
L 381.558857 63.739037 
L 382.069029 64.94063 
L 382.5792 64.067447 
L 383.089371 64.127333 
L 383.599543 63.851083 
L 384.109714 64.728129 
L 384.619886 65.935517 
L 385.130057 65.442903 
L 385.640229 66.271654 
L 386.1504 67.473247 
L 386.660571 66.845405 
L 387.170743 67.214383 
L 387.680914 65.38688 
L 388.191086 66.148018 
L 388.701257 65.162789 
L 389.211429 65.406199 
L 390.231771 67.645179 
L 390.741943 68.377339 
L 391.252114 68.184157 
L 391.762286 69.157795 
L 392.272457 69.671659 
L 392.782629 70.693592 
L 393.2928 71.081888 
L 393.802971 72.298935 
L 394.313143 73.22621 
L 394.823314 74.433598 
L 395.333486 74.472234 
L 395.843657 75.109735 
L 396.864 77.402806 
L 397.374171 77.864512 
L 397.884343 75.534736 
L 398.394514 75.834168 
L 398.904686 76.65326 
L 399.414857 76.396328 
L 399.925029 77.147806 
L 400.4352 76.48326 
L 400.945371 76.859965 
L 401.455543 78.073148 
L 402.475886 76.805874 
L 402.986057 76.187691 
L 403.496229 74.412348 
L 404.0064 75.59269 
L 404.516571 76.100759 
L 405.026743 77.286897 
L 405.536914 76.90826 
L 406.557257 79.249627 
L 407.067429 77.961103 
L 409.108114 82.819632 
L 409.618286 81.913608 
L 410.128457 82.28645 
L 411.1488 82.002472 
L 411.658971 82.162813 
L 412.169143 81.026902 
L 412.679314 82.240086 
L 413.189486 82.585882 
L 413.699657 82.748155 
L 414.72 84.774635 
L 415.230171 85.953046 
L 415.230171 85.953046 
" style="fill:none;stroke:#000000;stroke-dasharray:1.5,2.475;stroke-dashoffset:0;stroke-width:1.5;"/>
   </g>
   <g id="line2d_16">
    <path clip-path="url(#p801395612e)" d="M 57.6 288.552763 
L 163.205486 288.49674 
L 164.736 287.967421 
L 166.266514 286.611283 
L 166.776686 286.373669 
L 167.286857 286.286737 
L 167.797029 285.469577 
L 168.3072 285.116054 
L 168.817371 283.759915 
L 169.327543 283.721279 
L 170.858057 281.279457 
L 171.368229 277.539452 
L 171.8784 276.623769 
L 172.388571 274.525811 
L 173.919086 270.799329 
L 174.429257 270.837965 
L 174.939429 268.56228 
L 175.4496 267.238983 
L 175.959771 266.839096 
L 176.469943 264.287161 
L 176.980114 264.18091 
L 177.490286 263.813864 
L 178.510629 263.927842 
L 179.0208 262.902045 
L 179.530971 262.672158 
L 180.041143 261.800907 
L 180.551314 261.860794 
L 181.061486 259.965677 
L 181.571657 260.031359 
L 182.081829 259.793745 
L 182.592 259.731927 
L 183.102171 259.801472 
L 183.612343 258.476243 
L 184.122514 258.242493 
L 184.632686 258.31397 
L 185.142857 257.856129 
L 185.653029 256.424649 
L 186.673371 254.425215 
L 187.183543 254.011805 
L 187.693714 251.17396 
L 188.203886 251.071574 
L 188.714057 250.198391 
L 189.224229 247.177023 
L 189.7344 247.275546 
L 190.244571 246.280658 
L 190.754743 245.679862 
L 191.264914 244.889747 
L 191.775086 244.773838 
L 192.285257 243.663041 
L 192.795429 240.096899 
L 193.3056 239.221784 
L 193.815771 239.345421 
L 194.325943 238.526329 
L 194.836114 236.022689 
L 195.346286 235.400643 
L 195.856457 234.510073 
L 196.8768 231.511887 
L 197.386971 231.33416 
L 197.897143 230.33734 
L 198.407314 229.653475 
L 199.427657 229.954839 
L 199.937829 228.274155 
L 200.448 228.428701 
L 201.468343 225.668129 
L 202.998857 226.160743 
L 203.509029 225.248924 
L 204.0192 221.348577 
L 204.529371 220.405849 
L 205.039543 220.58744 
L 205.549714 218.644028 
L 206.059886 215.47391 
L 207.080229 212.943225 
L 207.5904 210.990154 
L 208.100571 210.035834 
L 208.610743 208.511627 
L 209.120914 208.731855 
L 209.631086 208.0789 
L 210.141257 206.823216 
L 210.651429 203.104461 
L 212.181943 203.819234 
L 212.692114 201.402527 
L 219.834514 204.831509 
L 220.344686 202.579005 
L 221.365029 203.081279 
L 221.8752 200.41923 
L 224.426057 201.719345 
L 224.936229 199.283319 
L 225.4464 197.45968 
L 227.487086 198.555022 
L 227.997257 196.236837 
L 233.098971 198.98775 
L 233.609143 197.102293 
L 234.119314 197.361157 
L 234.629486 195.332745 
L 236.16 196.10161 
L 236.670171 195.95286 
L 237.180343 196.198201 
L 237.690514 195.79445 
L 238.200686 195.950928 
L 238.710857 195.989564 
L 239.221029 196.196269 
L 239.7312 196.074564 
L 240.241371 196.171155 
L 241.261714 196.628997 
L 241.771886 196.851156 
L 243.3024 196.889793 
L 243.812571 196.955475 
L 244.322743 196.242633 
L 245.343086 196.312178 
L 245.853257 195.734564 
L 246.363429 195.549109 
L 246.8736 195.081609 
L 247.383771 195.180131 
L 247.893943 193.076378 
L 248.914286 192.440809 
L 249.424457 191.059557 
L 249.934629 190.439443 
L 250.4448 190.109102 
L 250.954971 189.201146 
L 251.465143 189.299669 
L 251.975314 187.501143 
L 252.485486 186.52171 
L 252.995657 186.170119 
L 253.505829 186.069664 
L 254.016 185.238981 
L 254.526171 185.329777 
L 255.036343 183.909888 
L 255.546514 184.110798 
L 256.056686 183.438524 
L 256.566857 182.345113 
L 257.077029 179.231018 
L 257.5872 178.212948 
L 258.097371 178.558744 
L 258.607543 177.664311 
L 259.117714 177.059651 
L 259.627886 170.744529 
L 260.648229 170.161119 
L 261.1584 162.967018 
L 261.668571 163.374632 
L 262.178743 163.278041 
L 262.688914 161.974062 
L 263.199086 161.614743 
L 263.709257 159.091785 
L 264.219429 157.190873 
L 264.7296 157.619738 
L 265.239771 150.3445 
L 266.260114 151.262115 
L 266.770286 149.521544 
L 267.280457 145.810516 
L 268.3008 142.601762 
L 268.810971 139.068461 
L 269.831314 140.07494 
L 270.341486 138.626074 
L 270.851657 138.550733 
L 271.361829 138.09096 
L 271.872 138.094824 
L 272.382171 137.681414 
L 272.892343 134.911183 
L 273.402514 134.119136 
L 273.912686 133.661295 
L 274.422857 134.192545 
L 274.933029 134.117204 
L 275.4432 128.688788 
L 275.953371 129.24322 
L 276.463543 126.930831 
L 277.483886 128.053219 
L 278.504229 127.999128 
L 279.0144 128.563219 
L 279.524571 128.163332 
L 280.034743 128.134355 
L 281.055086 129.26447 
L 281.565257 128.725492 
L 282.5856 129.857539 
L 283.095771 127.085376 
L 284.116114 128.23481 
L 284.626286 127.247649 
L 285.136457 127.823332 
L 285.646629 126.161966 
L 286.1568 125.968784 
L 286.666971 126.556057 
L 287.177143 125.615261 
L 287.687314 126.206398 
L 288.197486 123.349235 
L 288.707657 122.613211 
L 289.728 115.668315 
L 290.238171 113.962517 
L 290.748343 114.605813 
L 291.258514 112.090582 
L 291.768686 111.149786 
L 292.789029 112.424787 
L 293.2992 109.389897 
L 294.319543 110.66683 
L 294.829714 111.219331 
L 295.339886 110.180012 
L 295.850057 110.583762 
L 296.360229 111.223195 
L 297.380571 108.410464 
L 297.890743 109.103987 
L 298.400914 108.410464 
L 298.911086 108.3641 
L 299.931429 109.592738 
L 300.4416 109.642965 
L 300.951771 110.15683 
L 301.461943 109.923079 
L 301.972114 106.706598 
L 302.992457 107.917849 
L 303.502629 108.024099 
L 304.0128 106.812848 
L 306.053486 109.511602 
L 306.563657 109.712511 
L 307.073829 107.566258 
L 307.584 107.875349 
L 308.604343 109.173533 
L 309.114514 109.745352 
L 309.624686 109.59467 
L 310.645029 110.701603 
L 311.1552 111.020354 
L 311.665371 111.14399 
L 312.175543 110.073761 
L 313.706057 111.532286 
L 314.7264 111.267627 
L 315.746743 112.712629 
L 316.256914 112.689447 
L 316.767086 113.017857 
L 317.277257 113.135698 
L 317.787429 112.786038 
L 318.2976 112.805356 
L 318.807771 113.089334 
L 319.317943 111.630809 
L 319.828114 109.131033 
L 320.338286 108.197963 
L 320.848457 108.94751 
L 321.358629 109.018987 
L 322.378971 108.59785 
L 322.889143 109.221828 
L 323.399314 108.791032 
L 324.419657 109.005464 
L 324.929829 109.755011 
L 325.44 109.907625 
L 325.950171 110.659103 
L 326.460343 108.563077 
L 326.970514 108.771714 
L 327.480686 109.453647 
L 327.990857 109.917284 
L 328.501029 109.262397 
L 329.0112 107.954554 
L 329.521371 104.846254 
L 330.031543 105.485687 
L 331.051886 105.794778 
L 331.562057 106.001483 
L 332.072229 105.893301 
L 332.5824 104.541026 
L 333.092571 102.085682 
L 333.602743 102.462387 
L 334.112914 99.618747 
L 334.623086 99.195678 
L 335.133257 97.144084 
L 335.643429 97.084198 
L 336.1536 97.909085 
L 336.663771 97.557494 
L 337.173943 97.905222 
L 337.684114 98.600677 
L 338.704457 97.292834 
L 339.214629 98.129313 
L 339.7248 98.171813 
L 340.234971 95.687491 
L 340.745143 95.840105 
L 341.255314 96.632152 
L 341.765486 96.508515 
L 342.275657 92.29135 
L 342.785829 93.166465 
L 343.296 93.548965 
L 343.806171 94.422148 
L 344.826514 87.173956 
L 345.336686 86.179069 
L 345.846857 85.582136 
L 347.887543 88.895209 
L 348.397714 86.872592 
L 348.907886 87.780548 
L 349.418057 84.93884 
L 349.928229 85.852591 
L 350.4384 85.763727 
L 351.458743 87.490775 
L 351.968914 86.003273 
L 352.479086 86.691001 
L 353.499429 88.448958 
L 354.0096 87.755435 
L 354.519771 87.28407 
L 355.540114 88.321458 
L 356.050286 88.559072 
L 357.070629 90.386575 
L 357.5808 90.796121 
L 358.090971 91.704076 
L 358.601143 91.734986 
L 359.111314 92.639078 
L 359.621486 91.997713 
L 360.131657 92.351236 
L 360.641829 92.009304 
L 361.152 92.899874 
L 361.662171 90.788393 
L 362.172343 90.639643 
L 362.682514 88.553277 
L 363.192686 89.492142 
L 363.702857 87.738048 
L 364.213029 88.076117 
L 364.7232 88.986004 
L 365.233371 87.898389 
L 365.743543 87.467593 
L 366.253714 87.251229 
L 366.763886 85.443045 
L 367.274057 85.902818 
L 367.784229 85.415999 
L 368.804571 86.76441 
L 369.314743 86.273728 
L 369.824914 85.44884 
L 370.335086 86.221569 
L 370.845257 85.665204 
L 371.355429 81.590994 
L 372.885943 84.612362 
L 373.396114 84.274293 
L 374.416457 86.152023 
L 375.4368 86.934411 
L 375.946971 86.196455 
L 376.457143 87.102479 
L 376.967314 84.423043 
L 377.477486 83.412701 
L 377.987657 81.83054 
L 378.497829 82.697927 
L 379.008 80.209742 
L 379.518171 79.661105 
L 380.028343 77.804625 
L 380.538514 76.479396 
L 381.558857 72.055526 
L 382.069029 71.593821 
L 382.5792 70.021319 
L 383.599543 71.841094 
L 384.109714 67.438474 
L 384.619886 67.251087 
L 385.130057 68.375407 
L 385.640229 67.102337 
L 387.170743 70.098591 
L 387.680914 68.904726 
L 388.191086 69.783705 
L 388.701257 70.908024 
L 389.211429 71.493366 
L 390.231771 73.573937 
L 390.741943 74.514734 
L 391.252114 74.688598 
L 391.762286 75.515417 
L 392.272457 74.910757 
L 393.2928 76.902465 
L 394.313143 77.317806 
L 396.864 81.726221 
L 397.374171 78.105989 
L 397.884343 75.627463 
L 398.394514 76.745987 
L 398.904686 77.474284 
L 399.414857 77.779511 
L 399.925029 78.602467 
L 400.4352 75.697008 
L 400.945371 75.650645 
L 401.965714 70.260864 
L 402.475886 68.933703 
L 402.986057 69.797227 
L 403.496229 69.976887 
L 404.0064 67.040519 
L 404.516571 67.670293 
L 406.047086 70.54291 
L 406.557257 70.579615 
L 407.067429 70.753479 
L 407.5776 71.707798 
L 408.087771 72.370413 
L 408.597943 72.088367 
L 410.128457 74.145756 
L 410.638629 75.161894 
L 411.1488 73.203028 
L 413.699657 78.127239 
L 414.209829 78.729967 
L 415.230171 80.793152 
L 415.230171 80.793152 
" style="fill:none;stroke:#000000;stroke-dasharray:9.6,2.4,1.5,2.4;stroke-dashoffset:0;stroke-width:1.5;"/>
   </g>
   <g id="line2d_17">
    <path clip-path="url(#p801395612e)" d="M 57.6 288.552763 
L 161.674971 288.535377 
L 162.185143 288.274581 
L 162.695314 287.729807 
L 163.205486 287.428443 
L 163.715657 287.428443 
L 164.225829 287.028556 
L 165.246171 284.654348 
L 165.756343 284.225484 
L 166.266514 283.495256 
L 166.776686 283.506847 
L 167.797029 282.397982 
L 168.817371 279.836387 
L 169.327543 279.795819 
L 169.837714 278.410703 
L 170.347886 277.464111 
L 171.368229 273.994561 
L 171.8784 273.409219 
L 172.388571 271.143193 
L 172.898743 270.326033 
L 173.919086 267.186824 
L 174.429257 266.265345 
L 174.939429 263.866024 
L 175.959771 261.781589 
L 176.469943 261.603861 
L 176.980114 261.115111 
L 177.490286 261.178861 
L 178.000457 259.948291 
L 178.510629 260.013973 
L 179.0208 258.885789 
L 179.530971 258.738971 
L 180.041143 256.894082 
L 181.061486 254.771011 
L 181.571657 252.327257 
L 182.081829 252.414189 
L 183.102171 249.757936 
L 183.612343 249.124298 
L 184.122514 247.659978 
L 185.142857 246.466113 
L 185.653029 245.647021 
L 186.1632 245.751339 
L 186.673371 244.963156 
L 187.693714 233.078594 
L 188.203886 229.564612 
L 188.714057 229.713362 
L 189.224229 227.201995 
L 189.7344 226.379039 
L 190.244571 225.13881 
L 190.754743 221.875964 
L 192.795429 222.559829 
L 193.3056 220.077439 
L 193.815771 220.253235 
L 194.325943 219.625393 
L 194.836114 218.754142 
L 195.346286 218.935733 
L 195.856457 217.900277 
L 196.8768 218.271187 
L 197.386971 217.137208 
L 197.897143 217.326526 
L 198.407314 215.209251 
L 198.917486 213.696635 
L 199.427657 211.202654 
L 199.937829 209.960493 
L 200.448 205.72401 
L 201.468343 206.181851 
L 201.978514 204.352417 
L 202.488686 203.106393 
L 204.0192 203.823098 
L 204.529371 202.136618 
L 205.039543 202.380028 
L 205.549714 196.381724 
L 207.5904 197.450021 
L 208.100571 195.100927 
L 211.1616 196.744906 
L 211.671771 193.972743 
L 226.976914 202.308551 
L 238.200686 208.150377 
L 238.710857 208.391855 
L 239.221029 208.430491 
L 240.241371 208.903787 
L 240.751543 209.069924 
L 241.261714 209.100833 
L 241.771886 209.305606 
L 242.282057 209.284356 
L 242.792229 209.398333 
L 243.3024 209.657197 
L 243.812571 209.635947 
L 244.832914 209.160719 
L 245.853257 209.301742 
L 246.363429 208.702878 
L 247.383771 208.594696 
L 247.893943 208.571514 
L 248.404114 208.285604 
L 249.424457 206.610716 
L 249.934629 206.382761 
L 250.954971 206.516056 
L 251.465143 205.579123 
L 251.975314 205.791624 
L 252.485486 205.714351 
L 252.995657 205.07685 
L 253.505829 204.870145 
L 254.016 204.862418 
L 255.036343 202.13855 
L 255.546514 201.408322 
L 256.566857 198.798432 
L 257.5872 198.643886 
L 258.097371 198.777182 
L 258.607543 197.759112 
L 259.627886 193.843311 
L 260.138057 193.397061 
L 260.648229 191.594672 
L 261.1584 190.665466 
L 261.668571 190.980353 
L 262.178743 189.995124 
L 262.688914 188.194667 
L 263.199086 187.302166 
L 263.709257 184.794662 
L 264.219429 181.296135 
L 264.7296 180.840225 
L 265.239771 175.071808 
L 265.749943 172.448395 
L 266.260114 171.42453 
L 266.770286 170.022028 
L 267.280457 167.92407 
L 267.790629 168.322025 
L 268.3008 167.189978 
L 268.810971 164.191792 
L 269.321143 164.607134 
L 269.831314 161.255424 
L 270.341486 161.151106 
L 270.851657 158.896671 
L 271.361829 155.99894 
L 271.872 155.39428 
L 272.892343 151.275638 
L 273.402514 150.777228 
L 273.912686 146.272222 
L 274.933029 147.251655 
L 275.4432 142.449148 
L 275.953371 139.846985 
L 276.973714 140.888237 
L 277.483886 136.81789 
L 277.994057 136.23448 
L 278.504229 132.368906 
L 279.0144 131.98061 
L 279.524571 130.050721 
L 280.034743 130.095153 
L 280.544914 129.390039 
L 281.055086 127.939241 
L 281.565257 128.51106 
L 282.075429 126.480716 
L 282.5856 125.321624 
L 283.605943 126.492307 
L 284.116114 125.723443 
L 284.626286 122.603552 
L 285.136457 122.595825 
L 285.646629 120.470822 
L 286.1568 118.884797 
L 286.666971 116.632293 
L 287.177143 113.769335 
L 288.197486 109.525124 
L 288.707657 109.18126 
L 290.238171 111.169104 
L 290.748343 111.626945 
L 292.278857 113.601266 
L 292.789029 111.793082 
L 294.829714 114.449336 
L 295.850057 115.453883 
L 296.360229 112.97922 
L 299.421257 116.84093 
L 299.931429 117.279453 
L 300.4416 117.260135 
L 304.0128 121.622187 
L 307.584 126.132989 
L 308.094171 125.905034 
L 310.134857 128.203901 
L 311.1552 129.123447 
L 312.175543 130.309585 
L 312.685714 130.779018 
L 313.195886 130.850495 
L 314.216229 131.967088 
L 314.7264 129.809244 
L 315.236571 128.771856 
L 315.746743 128.739015 
L 316.256914 127.00424 
L 316.767086 126.592762 
L 317.787429 125.203783 
L 318.807771 126.277875 
L 319.828114 125.748556 
L 320.848457 126.608217 
L 321.358629 123.977076 
L 321.8688 124.465827 
L 322.378971 124.299691 
L 322.889143 123.737531 
L 323.399314 122.083892 
L 323.909486 120.947981 
L 324.419657 120.592526 
L 324.929829 121.189459 
L 325.44 118.863547 
L 325.950171 118.687751 
L 326.460343 118.788206 
L 327.480686 120.094116 
L 327.990857 119.984003 
L 328.501029 120.368435 
L 329.0112 120.93639 
L 329.521371 120.716163 
L 330.031543 119.636275 
L 330.541714 120.358776 
L 331.051886 120.650481 
L 331.562057 120.673663 
L 332.072229 120.577072 
L 332.5824 119.958889 
L 333.092571 118.272409 
L 333.602743 118.645251 
L 334.112914 114.109335 
L 334.623086 113.381039 
L 335.133257 113.485357 
L 335.643429 113.879449 
L 336.1536 113.906494 
L 336.663771 114.23104 
L 337.173943 114.882064 
L 337.684114 114.673427 
L 338.194286 112.782174 
L 338.704457 111.636605 
L 339.214629 112.418992 
L 339.7248 111.503309 
L 340.745143 110.402171 
L 341.255314 110.32683 
L 341.765486 110.558648 
L 342.275657 105.159209 
L 342.785829 105.974437 
L 343.296 105.2558 
L 343.806171 105.62671 
L 344.316343 105.798642 
L 344.826514 104.633754 
L 345.336686 101.87125 
L 345.846857 101.552499 
L 346.357029 98.849882 
L 346.8672 96.836925 
L 347.377371 97.275448 
L 347.887543 97.941926 
L 348.397714 98.138972 
L 348.907886 97.771926 
L 349.418057 98.63545 
L 349.928229 96.162719 
L 351.458743 98.591018 
L 351.968914 97.36238 
L 353.499429 99.713406 
L 354.519771 101.268522 
L 355.029943 100.744998 
L 357.070629 104.17398 
L 357.5808 104.506254 
L 359.111314 107.038871 
L 359.621486 107.645463 
L 360.131657 107.30353 
L 361.152 108.914669 
L 361.662171 108.982283 
L 362.682514 110.543194 
L 363.192686 110.452398 
L 364.7232 112.758993 
L 365.233371 113.058425 
L 366.253714 114.700473 
L 366.763886 114.725586 
L 367.784229 116.356043 
L 368.2944 116.929794 
L 368.804571 117.737295 
L 369.824914 118.50616 
L 370.335086 119.307865 
L 370.845257 117.575022 
L 371.355429 118.388319 
L 371.8656 118.376728 
L 372.375771 118.687751 
L 372.885943 118.500364 
L 373.396114 119.103092 
L 373.906286 119.897071 
L 374.416457 119.499116 
L 374.926629 120.264117 
L 375.4368 118.332296 
L 375.946971 118.624001 
L 376.457143 119.050933 
L 377.477486 115.229791 
L 379.008 117.735363 
L 380.028343 114.706268 
L 380.538514 113.616721 
L 381.048686 110.732512 
L 381.558857 111.588309 
L 382.069029 111.400922 
L 382.5792 110.614671 
L 384.619886 113.945131 
L 385.130057 114.389449 
L 385.640229 112.633424 
L 386.1504 109.39376 
L 386.660571 110.147171 
L 387.170743 107.32478 
L 388.701257 109.020919 
L 389.7216 106.863075 
L 390.231771 106.335688 
L 390.741943 106.096142 
L 391.252114 106.260347 
L 391.762286 102.597615 
L 392.272457 97.820221 
L 392.782629 97.572948 
L 393.802971 98.849882 
L 394.313143 97.81829 
L 394.823314 98.279995 
L 395.333486 99.0392 
L 396.353829 94.796922 
L 396.864 95.776355 
L 397.374171 96.149196 
L 397.884343 93.429193 
L 398.394514 93.674534 
L 398.904686 91.520553 
L 399.414857 92.011236 
L 399.925029 93.013851 
L 400.4352 92.834192 
L 400.945371 93.662943 
L 401.455543 92.082713 
L 402.986057 89.233278 
L 404.0064 90.336347 
L 404.516571 86.505546 
L 405.536914 88.464413 
L 406.557257 88.947368 
L 407.067429 87.293729 
L 407.5776 88.36589 
L 408.087771 87.653048 
L 408.597943 88.72714 
L 409.108114 86.874524 
L 409.618286 87.964071 
L 410.128457 87.811457 
L 410.638629 88.190094 
L 411.658971 90.023392 
L 412.169143 90.448393 
L 412.679314 91.33703 
L 413.189486 90.686007 
L 413.699657 91.688622 
L 414.209829 91.70794 
L 414.72 91.33703 
L 415.230171 92.414987 
L 415.230171 92.414987 
" style="fill:none;stroke:#000000;stroke-dasharray:5.55,2.4;stroke-dashoffset:0;stroke-width:1.5;"/>
   </g>
   <g id="line2d_18">
    <path clip-path="url(#p801395612e)" d="M 57.6 288.552763 
L 159.124114 288.489013 
L 159.634286 288.282308 
L 160.144457 287.928785 
L 160.654629 287.156056 
L 161.1648 285.940941 
L 161.674971 285.67435 
L 162.185143 284.256393 
L 162.695314 284.034234 
L 163.205486 282.284004 
L 163.715657 281.310366 
L 164.225829 281.325821 
L 164.736 280.25366 
L 165.246171 278.826045 
L 166.266514 272.385354 
L 166.776686 272.398877 
L 167.286857 271.396262 
L 167.797029 270.107737 
L 168.817371 266.360004 
L 169.327543 265.285912 
L 169.837714 263.216932 
L 170.347886 262.492499 
L 170.858057 262.216249 
L 173.408914 254.958397 
L 173.919086 252.041348 
L 174.429257 251.598961 
L 174.939429 248.293615 
L 175.959771 243.873609 
L 176.469943 242.289516 
L 176.980114 235.987916 
L 177.490286 233.633026 
L 178.000457 232.033479 
L 178.510629 224.665514 
L 179.0208 222.331874 
L 180.041143 219.009142 
L 180.551314 218.56096 
L 181.061486 213.673453 
L 182.081829 207.636513 
L 183.102171 197.977408 
L 183.612343 198.224681 
L 184.122514 197.278089 
L 184.632686 194.662403 
L 185.142857 194.923199 
L 186.1632 191.455581 
L 186.673371 183.419206 
L 187.183543 182.045681 
L 187.693714 179.85886 
L 188.203886 178.438971 
L 188.714057 176.669423 
L 189.7344 171.760667 
L 190.244571 172.108394 
L 190.754743 170.294414 
L 191.264914 170.64987 
L 191.775086 164.543384 
L 193.3056 165.681226 
L 193.815771 162.918722 
L 195.856457 164.471906 
L 196.366629 161.319175 
L 211.1616 172.724645 
L 221.8752 180.625793 
L 231.568457 187.479893 
L 240.751543 193.652061 
L 242.792229 194.890358 
L 243.3024 195.075813 
L 244.322743 195.614791 
L 244.832914 195.431268 
L 246.8736 196.196269 
L 247.383771 195.556836 
L 247.893943 195.7732 
L 248.404114 195.585814 
L 248.914286 195.257404 
L 249.424457 195.452518 
L 249.934629 194.961836 
L 250.4448 195.255472 
L 250.954971 195.164677 
L 251.465143 194.801494 
L 251.975314 194.021039 
L 252.995657 193.783425 
L 253.505829 193.443424 
L 254.016 192.751832 
L 254.526171 191.134898 
L 255.036343 190.352511 
L 255.546514 190.223079 
L 256.056686 188.71819 
L 256.566857 188.407167 
L 257.077029 187.930008 
L 257.5872 186.875233 
L 258.607543 181.852499 
L 259.117714 180.052042 
L 259.627886 177.689425 
L 260.138057 176.408628 
L 260.648229 173.72726 
L 261.1584 173.396919 
L 261.668571 172.915895 
L 262.178743 173.10135 
L 262.688914 166.676114 
L 263.709257 161.342356 
L 264.219429 160.248946 
L 264.7296 158.832921 
L 265.239771 154.07871 
L 265.749943 153.178481 
L 266.770286 137.126981 
L 267.280457 132.59493 
L 267.790629 126.266284 
L 268.3008 124.8831 
L 268.810971 120.111503 
L 269.321143 120.749004 
L 269.831314 114.40104 
L 270.341486 105.904892 
L 270.851657 102.90091 
L 271.361829 100.914999 
L 271.872 98.023063 
L 272.892343 85.041226 
L 273.402514 85.850659 
L 273.912686 84.826794 
L 274.422857 85.636227 
L 275.4432 78.366785 
L 275.953371 76.427237 
L 276.463543 72.275754 
L 276.973714 69.490068 
L 280.034743 74.767803 
L 280.544914 72.142458 
L 282.075429 74.816098 
L 282.5856 73.639619 
L 289.728 85.964637 
L 296.360229 96.985675 
L 302.992457 107.573985 
L 308.094171 115.316723 
L 308.604343 115.531155 
L 309.114514 115.569792 
L 310.134857 117.007067 
L 311.1552 117.173203 
L 313.195886 120.163662 
L 313.706057 120.192639 
L 314.216229 120.677526 
L 314.7264 121.429005 
L 315.746743 120.644685 
L 316.256914 121.326618 
L 317.277257 120.040025 
L 318.2976 121.336277 
L 318.807771 119.580252 
L 319.317943 118.971729 
L 319.828114 119.506843 
L 320.338286 118.97366 
L 320.848457 114.990246 
L 321.358629 112.030696 
L 321.8688 111.978537 
L 322.378971 111.145922 
L 322.889143 111.325581 
L 323.909486 112.760924 
L 324.419657 111.491718 
L 324.929829 111.031945 
L 325.44 111.771832 
L 325.950171 112.14081 
L 326.460343 112.216151 
L 326.970514 111.503309 
L 327.480686 112.320469 
L 327.990857 112.751265 
L 328.501029 112.985016 
L 329.0112 112.921265 
L 329.521371 112.677856 
L 330.031543 111.891605 
L 330.541714 106.395574 
L 331.051886 106.44387 
L 331.562057 105.018186 
L 332.072229 105.423869 
L 332.5824 105.497278 
L 333.092571 104.425117 
L 334.112914 105.116709 
L 334.623086 103.063183 
L 335.133257 103.065115 
L 335.643429 101.853863 
L 336.1536 100.028293 
L 336.663771 100.685112 
L 337.173943 99.211133 
L 338.194286 99.840906 
L 338.704457 96.827266 
L 339.214629 96.850447 
L 339.7248 96.326924 
L 340.745143 89.127027 
L 341.255314 87.595093 
L 341.765486 88.55714 
L 342.275657 89.192709 
L 342.785829 88.717481 
L 343.296 89.200437 
L 343.806171 87.581571 
L 344.316343 88.329185 
L 344.826514 87.813389 
L 345.336686 87.627934 
L 346.357029 84.635544 
L 346.8672 83.760429 
L 347.887543 85.60725 
L 348.397714 86.416683 
L 348.907886 86.540319 
L 349.418057 84.413384 
L 350.4384 86.289182 
L 350.948571 85.895091 
L 351.458743 81.74554 
L 352.989257 84.859635 
L 353.499429 83.837702 
L 354.0096 84.880885 
L 354.519771 84.030884 
L 356.050286 87.087025 
L 356.560457 87.56998 
L 358.090971 90.653166 
L 358.601143 91.097485 
L 359.111314 90.995098 
L 359.621486 92.009304 
L 360.131657 92.042145 
L 360.641829 92.961692 
L 361.152 93.465897 
L 361.662171 88.752254 
L 362.172343 89.022709 
L 363.192686 91.083962 
L 363.702857 88.34464 
L 364.7232 90.427143 
L 365.233371 90.960325 
L 366.253714 93.015783 
L 366.763886 92.793623 
L 367.784229 94.831695 
L 368.2944 95.596696 
L 368.804571 96.15306 
L 369.314743 97.159539 
L 369.824914 97.068743 
L 370.845257 98.162154 
L 371.355429 99.021814 
L 371.8656 99.423633 
L 372.375771 100.414657 
L 372.885943 101.137158 
L 373.396114 102.0625 
L 373.906286 99.087496 
L 374.926629 100.907271 
L 375.4368 100.717953 
L 376.457143 102.276932 
L 376.967314 101.324545 
L 377.477486 100.119088 
L 377.987657 101.123635 
L 378.497829 98.09454 
L 379.518171 99.918179 
L 380.028343 99.462269 
L 382.069029 103.513298 
L 382.5792 101.405681 
L 385.640229 107.183757 
L 386.1504 103.946026 
L 386.660571 104.960232 
L 387.170743 105.427732 
L 387.680914 103.391593 
L 388.191086 103.287275 
L 388.701257 104.315003 
L 389.7216 98.8267 
L 390.231771 99.761701 
L 390.741943 97.694653 
L 391.762286 99.697951 
L 392.272457 100.482271 
L 393.2928 102.383182 
L 393.802971 103.128865 
L 394.313143 103.422502 
L 394.823314 104.106367 
L 395.843657 106.096142 
L 396.353829 106.731711 
L 396.864 101.834545 
L 397.374171 100.055338 
L 397.884343 96.276697 
L 398.394514 97.147948 
L 398.904686 96.467947 
L 399.414857 97.242607 
L 399.925029 97.424198 
L 400.4352 96.614765 
L 400.945371 96.97022 
L 401.455543 93.771125 
L 401.965714 94.833626 
L 402.986057 91.095553 
L 403.496229 91.682826 
L 404.0064 91.798736 
L 404.516571 87.639525 
L 405.026743 88.004639 
L 405.536914 87.826912 
L 406.047086 84.998726 
L 406.557257 84.819067 
L 407.067429 82.139631 
L 407.5776 83.153837 
L 408.087771 82.133836 
L 408.597943 81.643153 
L 409.108114 81.65088 
L 409.618286 82.827359 
L 410.128457 83.673497 
L 410.638629 83.781679 
L 411.1488 84.293611 
L 411.658971 85.039294 
L 412.169143 85.251795 
L 412.679314 86.258273 
L 413.189486 86.663956 
L 413.699657 87.691684 
L 414.209829 87.187479 
L 414.72 85.473954 
L 415.230171 86.020659 
L 415.230171 86.020659 
" style="fill:none;stroke:#000000;stroke-linecap:square;stroke-width:1.5;"/>
   </g>
   <g id="patch_3">
    <path d="M 57.6 307.584 
L 57.6 41.472 
" style="fill:none;stroke:#000000;stroke-linecap:square;stroke-linejoin:miter;stroke-width:0.8;"/>
   </g>
   <g id="patch_4">
    <path d="M 414.72 307.584 
L 414.72 41.472 
" style="fill:none;stroke:#000000;stroke-linecap:square;stroke-linejoin:miter;stroke-width:0.8;"/>
   </g>
   <g id="patch_5">
    <path d="M 57.6 307.584 
L 414.72 307.584 
" style="fill:none;stroke:#000000;stroke-linecap:square;stroke-linejoin:miter;stroke-width:0.8;"/>
   </g>
   <g id="patch_6">
    <path d="M 57.6 41.472 
L 414.72 41.472 
" style="fill:none;stroke:#000000;stroke-linecap:square;stroke-linejoin:miter;stroke-width:0.8;"/>
   </g>
   <g id="legend_1">
    <g id="patch_7">
     <path d="M 64.6 108.1845 
L 137.551562 108.1845 
Q 139.551562 108.1845 139.551562 106.1845 
L 139.551562 48.472 
Q 139.551562 46.472 137.551562 46.472 
L 64.6 46.472 
Q 62.6 46.472 62.6 48.472 
L 62.6 106.1845 
Q 62.6 108.1845 64.6 108.1845 
z
" style="fill:#ffffff;opacity:0.8;stroke:#cccccc;stroke-linejoin:miter;"/>
    </g>
    <g id="line2d_19">
     <path d="M 66.6 54.570438 
L 86.6 54.570438 
" style="fill:none;stroke:#000000;stroke-dasharray:1.5,2.475;stroke-dashoffset:0;stroke-width:1.5;"/>
    </g>
    <g id="line2d_20"/>
    <g id="text_17">
     <!-- Ausente -->
     <defs>
      <path d="M 34.1875 63.1875 
L 20.796875 26.90625 
L 47.609375 26.90625 
z
M 28.609375 72.90625 
L 39.796875 72.90625 
L 67.578125 0 
L 57.328125 0 
L 50.6875 18.703125 
L 17.828125 18.703125 
L 11.1875 0 
L 0.78125 0 
z
" id="DejaVuSans-65"/>
      <path d="M 8.5 21.578125 
L 8.5 54.6875 
L 17.484375 54.6875 
L 17.484375 21.921875 
Q 17.484375 14.15625 20.5 10.265625 
Q 23.53125 6.390625 29.59375 6.390625 
Q 36.859375 6.390625 41.078125 11.03125 
Q 45.3125 15.671875 45.3125 23.6875 
L 45.3125 54.6875 
L 54.296875 54.6875 
L 54.296875 0 
L 45.3125 0 
L 45.3125 8.40625 
Q 42.046875 3.421875 37.71875 1 
Q 33.40625 -1.421875 27.6875 -1.421875 
Q 18.265625 -1.421875 13.375 4.4375 
Q 8.5 10.296875 8.5 21.578125 
z
M 31.109375 56 
z
" id="DejaVuSans-117"/>
      <path d="M 54.890625 33.015625 
L 54.890625 0 
L 45.90625 0 
L 45.90625 32.71875 
Q 45.90625 40.484375 42.875 44.328125 
Q 39.84375 48.1875 33.796875 48.1875 
Q 26.515625 48.1875 22.3125 43.546875 
Q 18.109375 38.921875 18.109375 30.90625 
L 18.109375 0 
L 9.078125 0 
L 9.078125 54.6875 
L 18.109375 54.6875 
L 18.109375 46.1875 
Q 21.34375 51.125 25.703125 53.5625 
Q 30.078125 56 35.796875 56 
Q 45.21875 56 50.046875 50.171875 
Q 54.890625 44.34375 54.890625 33.015625 
z
" id="DejaVuSans-110"/>
      <path d="M 18.3125 70.21875 
L 18.3125 54.6875 
L 36.8125 54.6875 
L 36.8125 47.703125 
L 18.3125 47.703125 
L 18.3125 18.015625 
Q 18.3125 11.328125 20.140625 9.421875 
Q 21.96875 7.515625 27.59375 7.515625 
L 36.8125 7.515625 
L 36.8125 0 
L 27.59375 0 
Q 17.1875 0 13.234375 3.875 
Q 9.28125 7.765625 9.28125 18.015625 
L 9.28125 47.703125 
L 2.6875 47.703125 
L 2.6875 54.6875 
L 9.28125 54.6875 
L 9.28125 70.21875 
z
" id="DejaVuSans-116"/>
     </defs>
     <g transform="translate(94.6 58.070438)scale(0.1 -0.1)">
      <use xlink:href="#DejaVuSans-65"/>
      <use x="68.408203" xlink:href="#DejaVuSans-117"/>
      <use x="131.787109" xlink:href="#DejaVuSans-115"/>
      <use x="183.886719" xlink:href="#DejaVuSans-101"/>
      <use x="245.410156" xlink:href="#DejaVuSans-110"/>
      <use x="308.789062" xlink:href="#DejaVuSans-116"/>
      <use x="347.998047" xlink:href="#DejaVuSans-101"/>
     </g>
    </g>
    <g id="line2d_21">
     <path d="M 66.6 69.248563 
L 86.6 69.248563 
" style="fill:none;stroke:#000000;stroke-dasharray:9.6,2.4,1.5,2.4;stroke-dashoffset:0;stroke-width:1.5;"/>
    </g>
    <g id="line2d_22"/>
    <g id="text_18">
     <!-- Fraco -->
     <defs>
      <path d="M 9.8125 72.90625 
L 51.703125 72.90625 
L 51.703125 64.59375 
L 19.671875 64.59375 
L 19.671875 43.109375 
L 48.578125 43.109375 
L 48.578125 34.8125 
L 19.671875 34.8125 
L 19.671875 0 
L 9.8125 0 
z
" id="DejaVuSans-70"/>
      <path d="M 48.78125 52.59375 
L 48.78125 44.1875 
Q 44.96875 46.296875 41.140625 47.34375 
Q 37.3125 48.390625 33.40625 48.390625 
Q 24.65625 48.390625 19.8125 42.84375 
Q 14.984375 37.3125 14.984375 27.296875 
Q 14.984375 17.28125 19.8125 11.734375 
Q 24.65625 6.203125 33.40625 6.203125 
Q 37.3125 6.203125 41.140625 7.25 
Q 44.96875 8.296875 48.78125 10.40625 
L 48.78125 2.09375 
Q 45.015625 0.34375 40.984375 -0.53125 
Q 36.96875 -1.421875 32.421875 -1.421875 
Q 20.0625 -1.421875 12.78125 6.34375 
Q 5.515625 14.109375 5.515625 27.296875 
Q 5.515625 40.671875 12.859375 48.328125 
Q 20.21875 56 33.015625 56 
Q 37.15625 56 41.109375 55.140625 
Q 45.0625 54.296875 48.78125 52.59375 
z
" id="DejaVuSans-99"/>
     </defs>
     <g transform="translate(94.6 72.748563)scale(0.1 -0.1)">
      <use xlink:href="#DejaVuSans-70"/>
      <use x="57.410156" xlink:href="#DejaVuSans-114"/>
      <use x="98.523438" xlink:href="#DejaVuSans-97"/>
      <use x="159.802734" xlink:href="#DejaVuSans-99"/>
      <use x="214.783203" xlink:href="#DejaVuSans-111"/>
     </g>
    </g>
    <g id="line2d_23">
     <path d="M 66.6 83.926688 
L 86.6 83.926688 
" style="fill:none;stroke:#000000;stroke-dasharray:5.55,2.4;stroke-dashoffset:0;stroke-width:1.5;"/>
    </g>
    <g id="line2d_24"/>
    <g id="text_19">
     <!-- Normal -->
     <defs>
      <path d="M 9.421875 75.984375 
L 18.40625 75.984375 
L 18.40625 0 
L 9.421875 0 
z
" id="DejaVuSans-108"/>
     </defs>
     <g transform="translate(94.6 87.426688)scale(0.1 -0.1)">
      <use xlink:href="#DejaVuSans-78"/>
      <use x="74.804688" xlink:href="#DejaVuSans-111"/>
      <use x="135.986328" xlink:href="#DejaVuSans-114"/>
      <use x="177.083984" xlink:href="#DejaVuSans-109"/>
      <use x="274.496094" xlink:href="#DejaVuSans-97"/>
      <use x="335.775391" xlink:href="#DejaVuSans-108"/>
     </g>
    </g>
    <g id="line2d_25">
     <path d="M 66.6 98.604813 
L 86.6 98.604813 
" style="fill:none;stroke:#000000;stroke-linecap:square;stroke-width:1.5;"/>
    </g>
    <g id="line2d_26"/>
    <g id="text_20">
     <!-- Forte -->
     <g transform="translate(94.6 102.104813)scale(0.1 -0.1)">
      <use xlink:href="#DejaVuSans-70"/>
      <use x="57.472656" xlink:href="#DejaVuSans-111"/>
      <use x="118.654297" xlink:href="#DejaVuSans-114"/>
      <use x="159.767578" xlink:href="#DejaVuSans-116"/>
      <use x="198.976562" xlink:href="#DejaVuSans-101"/>
     </g>
    </g>
   </g>
  </g>
 </g>
 <defs>
  <clipPath id="p801395612e">
   <rect height="266.112" width="357.12" x="57.6" y="41.472"/>
  </clipPath>
 </defs>
</svg>
