<?xml version="1.0" encoding="utf-8" standalone="no"?>
<!DOCTYPE svg PUBLIC "-//W3C//DTD SVG 1.1//EN"
  "http://www.w3.org/Graphics/SVG/1.1/DTD/svg11.dtd">
<!-- Created with matplotlib (https://matplotlib.org/) -->
<svg height="345.6pt" version="1.1" viewBox="0 0 460.8 345.6" width="460.8pt" xmlns="http://www.w3.org/2000/svg" xmlns:xlink="http://www.w3.org/1999/xlink">
 <defs>
  <style type="text/css">
*{stroke-linecap:butt;stroke-linejoin:round;}
  </style>
 </defs>
 <g id="figure_1">
  <g id="patch_1">
   <path d="M 0 345.6 
L 460.8 345.6 
L 460.8 0 
L 0 0 
z
" style="fill:#ffffff;"/>
  </g>
  <g id="axes_1">
   <g id="patch_2">
    <path d="M 57.6 307.584 
L 414.72 307.584 
L 414.72 41.472 
L 57.6 41.472 
z
" style="fill:#ffffff;"/>
   </g>
   <g id="matplotlib.axis_1">
    <g id="xtick_1">
     <g id="line2d_1">
      <path clip-path="url(#p0401a6a358)" d="M 73.830698 307.584 
L 73.830698 41.472 
" style="fill:none;stroke:#b0b0b0;stroke-linecap:square;stroke-width:0.8;"/>
     </g>
     <g id="line2d_2">
      <defs>
       <path d="M 0 0 
L 0 3.5 
" id="m212098a679" style="stroke:#000000;stroke-width:0.8;"/>
      </defs>
      <g>
       <use style="stroke:#000000;stroke-width:0.8;" x="73.830698" xlink:href="#m212098a679" y="307.584"/>
      </g>
     </g>
     <g id="text_1">
      <!-- 2000 -->
      <defs>
       <path d="M 19.1875 8.296875 
L 53.609375 8.296875 
L 53.609375 0 
L 7.328125 0 
L 7.328125 8.296875 
Q 12.9375 14.109375 22.625 23.890625 
Q 32.328125 33.6875 34.8125 36.53125 
Q 39.546875 41.84375 41.421875 45.53125 
Q 43.3125 49.21875 43.3125 52.78125 
Q 43.3125 58.59375 39.234375 62.25 
Q 35.15625 65.921875 28.609375 65.921875 
Q 23.96875 65.921875 18.8125 64.3125 
Q 13.671875 62.703125 7.8125 59.421875 
L 7.8125 69.390625 
Q 13.765625 71.78125 18.9375 73 
Q 24.125 74.21875 28.421875 74.21875 
Q 39.75 74.21875 46.484375 68.546875 
Q 53.21875 62.890625 53.21875 53.421875 
Q 53.21875 48.921875 51.53125 44.890625 
Q 49.859375 40.875 45.40625 35.40625 
Q 44.1875 33.984375 37.640625 27.21875 
Q 31.109375 20.453125 19.1875 8.296875 
z
" id="DejaVuSans-50"/>
       <path d="M 31.78125 66.40625 
Q 24.171875 66.40625 20.328125 58.90625 
Q 16.5 51.421875 16.5 36.375 
Q 16.5 21.390625 20.328125 13.890625 
Q 24.171875 6.390625 31.78125 6.390625 
Q 39.453125 6.390625 43.28125 13.890625 
Q 47.125 21.390625 47.125 36.375 
Q 47.125 51.421875 43.28125 58.90625 
Q 39.453125 66.40625 31.78125 66.40625 
z
M 31.78125 74.21875 
Q 44.046875 74.21875 50.515625 64.515625 
Q 56.984375 54.828125 56.984375 36.375 
Q 56.984375 17.96875 50.515625 8.265625 
Q 44.046875 -1.421875 31.78125 -1.421875 
Q 19.53125 -1.421875 13.0625 8.265625 
Q 6.59375 17.96875 6.59375 36.375 
Q 6.59375 54.828125 13.0625 64.515625 
Q 19.53125 74.21875 31.78125 74.21875 
z
" id="DejaVuSans-48"/>
      </defs>
      <g transform="translate(61.105698 322.182437)scale(0.1 -0.1)">
       <use xlink:href="#DejaVuSans-50"/>
       <use x="63.623047" xlink:href="#DejaVuSans-48"/>
       <use x="127.246094" xlink:href="#DejaVuSans-48"/>
       <use x="190.869141" xlink:href="#DejaVuSans-48"/>
      </g>
     </g>
    </g>
    <g id="xtick_2">
     <g id="line2d_3">
      <path clip-path="url(#p0401a6a358)" d="M 114.413024 307.584 
L 114.413024 41.472 
" style="fill:none;stroke:#b0b0b0;stroke-linecap:square;stroke-width:0.8;"/>
     </g>
     <g id="line2d_4">
      <g>
       <use style="stroke:#000000;stroke-width:0.8;" x="114.413024" xlink:href="#m212098a679" y="307.584"/>
      </g>
     </g>
     <g id="text_2">
      <!-- 3000 -->
      <defs>
       <path d="M 40.578125 39.3125 
Q 47.65625 37.796875 51.625 33 
Q 55.609375 28.21875 55.609375 21.1875 
Q 55.609375 10.40625 48.1875 4.484375 
Q 40.765625 -1.421875 27.09375 -1.421875 
Q 22.515625 -1.421875 17.65625 -0.515625 
Q 12.796875 0.390625 7.625 2.203125 
L 7.625 11.71875 
Q 11.71875 9.328125 16.59375 8.109375 
Q 21.484375 6.890625 26.8125 6.890625 
Q 36.078125 6.890625 40.9375 10.546875 
Q 45.796875 14.203125 45.796875 21.1875 
Q 45.796875 27.640625 41.28125 31.265625 
Q 36.765625 34.90625 28.71875 34.90625 
L 20.21875 34.90625 
L 20.21875 43.015625 
L 29.109375 43.015625 
Q 36.375 43.015625 40.234375 45.921875 
Q 44.09375 48.828125 44.09375 54.296875 
Q 44.09375 59.90625 40.109375 62.90625 
Q 36.140625 65.921875 28.71875 65.921875 
Q 24.65625 65.921875 20.015625 65.03125 
Q 15.375 64.15625 9.8125 62.3125 
L 9.8125 71.09375 
Q 15.4375 72.65625 20.34375 73.4375 
Q 25.25 74.21875 29.59375 74.21875 
Q 40.828125 74.21875 47.359375 69.109375 
Q 53.90625 64.015625 53.90625 55.328125 
Q 53.90625 49.265625 50.4375 45.09375 
Q 46.96875 40.921875 40.578125 39.3125 
z
" id="DejaVuSans-51"/>
      </defs>
      <g transform="translate(101.688024 322.182437)scale(0.1 -0.1)">
       <use xlink:href="#DejaVuSans-51"/>
       <use x="63.623047" xlink:href="#DejaVuSans-48"/>
       <use x="127.246094" xlink:href="#DejaVuSans-48"/>
       <use x="190.869141" xlink:href="#DejaVuSans-48"/>
      </g>
     </g>
    </g>
    <g id="xtick_3">
     <g id="line2d_5">
      <path clip-path="url(#p0401a6a358)" d="M 154.995349 307.584 
L 154.995349 41.472 
" style="fill:none;stroke:#b0b0b0;stroke-linecap:square;stroke-width:0.8;"/>
     </g>
     <g id="line2d_6">
      <g>
       <use style="stroke:#000000;stroke-width:0.8;" x="154.995349" xlink:href="#m212098a679" y="307.584"/>
      </g>
     </g>
     <g id="text_3">
      <!-- 4000 -->
      <defs>
       <path d="M 37.796875 64.3125 
L 12.890625 25.390625 
L 37.796875 25.390625 
z
M 35.203125 72.90625 
L 47.609375 72.90625 
L 47.609375 25.390625 
L 58.015625 25.390625 
L 58.015625 17.1875 
L 47.609375 17.1875 
L 47.609375 0 
L 37.796875 0 
L 37.796875 17.1875 
L 4.890625 17.1875 
L 4.890625 26.703125 
z
" id="DejaVuSans-52"/>
      </defs>
      <g transform="translate(142.270349 322.182437)scale(0.1 -0.1)">
       <use xlink:href="#DejaVuSans-52"/>
       <use x="63.623047" xlink:href="#DejaVuSans-48"/>
       <use x="127.246094" xlink:href="#DejaVuSans-48"/>
       <use x="190.869141" xlink:href="#DejaVuSans-48"/>
      </g>
     </g>
    </g>
    <g id="xtick_4">
     <g id="line2d_7">
      <path clip-path="url(#p0401a6a358)" d="M 195.577675 307.584 
L 195.577675 41.472 
" style="fill:none;stroke:#b0b0b0;stroke-linecap:square;stroke-width:0.8;"/>
     </g>
     <g id="line2d_8">
      <g>
       <use style="stroke:#000000;stroke-width:0.8;" x="195.577675" xlink:href="#m212098a679" y="307.584"/>
      </g>
     </g>
     <g id="text_4">
      <!-- 5000 -->
      <defs>
       <path d="M 10.796875 72.90625 
L 49.515625 72.90625 
L 49.515625 64.59375 
L 19.828125 64.59375 
L 19.828125 46.734375 
Q 21.96875 47.46875 24.109375 47.828125 
Q 26.265625 48.1875 28.421875 48.1875 
Q 40.625 48.1875 47.75 41.5 
Q 54.890625 34.8125 54.890625 23.390625 
Q 54.890625 11.625 47.5625 5.09375 
Q 40.234375 -1.421875 26.90625 -1.421875 
Q 22.3125 -1.421875 17.546875 -0.640625 
Q 12.796875 0.140625 7.71875 1.703125 
L 7.71875 11.625 
Q 12.109375 9.234375 16.796875 8.0625 
Q 21.484375 6.890625 26.703125 6.890625 
Q 35.15625 6.890625 40.078125 11.328125 
Q 45.015625 15.765625 45.015625 23.390625 
Q 45.015625 31 40.078125 35.4375 
Q 35.15625 39.890625 26.703125 39.890625 
Q 22.75 39.890625 18.8125 39.015625 
Q 14.890625 38.140625 10.796875 36.28125 
z
" id="DejaVuSans-53"/>
      </defs>
      <g transform="translate(182.852675 322.182437)scale(0.1 -0.1)">
       <use xlink:href="#DejaVuSans-53"/>
       <use x="63.623047" xlink:href="#DejaVuSans-48"/>
       <use x="127.246094" xlink:href="#DejaVuSans-48"/>
       <use x="190.869141" xlink:href="#DejaVuSans-48"/>
      </g>
     </g>
    </g>
    <g id="xtick_5">
     <g id="line2d_9">
      <path clip-path="url(#p0401a6a358)" d="M 236.16 307.584 
L 236.16 41.472 
" style="fill:none;stroke:#b0b0b0;stroke-linecap:square;stroke-width:0.8;"/>
     </g>
     <g id="line2d_10">
      <g>
       <use style="stroke:#000000;stroke-width:0.8;" x="236.16" xlink:href="#m212098a679" y="307.584"/>
      </g>
     </g>
     <g id="text_5">
      <!-- 6000 -->
      <defs>
       <path d="M 33.015625 40.375 
Q 26.375 40.375 22.484375 35.828125 
Q 18.609375 31.296875 18.609375 23.390625 
Q 18.609375 15.53125 22.484375 10.953125 
Q 26.375 6.390625 33.015625 6.390625 
Q 39.65625 6.390625 43.53125 10.953125 
Q 47.40625 15.53125 47.40625 23.390625 
Q 47.40625 31.296875 43.53125 35.828125 
Q 39.65625 40.375 33.015625 40.375 
z
M 52.59375 71.296875 
L 52.59375 62.3125 
Q 48.875 64.0625 45.09375 64.984375 
Q 41.3125 65.921875 37.59375 65.921875 
Q 27.828125 65.921875 22.671875 59.328125 
Q 17.53125 52.734375 16.796875 39.40625 
Q 19.671875 43.65625 24.015625 45.921875 
Q 28.375 48.1875 33.59375 48.1875 
Q 44.578125 48.1875 50.953125 41.515625 
Q 57.328125 34.859375 57.328125 23.390625 
Q 57.328125 12.15625 50.6875 5.359375 
Q 44.046875 -1.421875 33.015625 -1.421875 
Q 20.359375 -1.421875 13.671875 8.265625 
Q 6.984375 17.96875 6.984375 36.375 
Q 6.984375 53.65625 15.1875 63.9375 
Q 23.390625 74.21875 37.203125 74.21875 
Q 40.921875 74.21875 44.703125 73.484375 
Q 48.484375 72.75 52.59375 71.296875 
z
" id="DejaVuSans-54"/>
      </defs>
      <g transform="translate(223.435 322.182437)scale(0.1 -0.1)">
       <use xlink:href="#DejaVuSans-54"/>
       <use x="63.623047" xlink:href="#DejaVuSans-48"/>
       <use x="127.246094" xlink:href="#DejaVuSans-48"/>
       <use x="190.869141" xlink:href="#DejaVuSans-48"/>
      </g>
     </g>
    </g>
    <g id="xtick_6">
     <g id="line2d_11">
      <path clip-path="url(#p0401a6a358)" d="M 276.742325 307.584 
L 276.742325 41.472 
" style="fill:none;stroke:#b0b0b0;stroke-linecap:square;stroke-width:0.8;"/>
     </g>
     <g id="line2d_12">
      <g>
       <use style="stroke:#000000;stroke-width:0.8;" x="276.742325" xlink:href="#m212098a679" y="307.584"/>
      </g>
     </g>
     <g id="text_6">
      <!-- 7000 -->
      <defs>
       <path d="M 8.203125 72.90625 
L 55.078125 72.90625 
L 55.078125 68.703125 
L 28.609375 0 
L 18.3125 0 
L 43.21875 64.59375 
L 8.203125 64.59375 
z
" id="DejaVuSans-55"/>
      </defs>
      <g transform="translate(264.017325 322.182437)scale(0.1 -0.1)">
       <use xlink:href="#DejaVuSans-55"/>
       <use x="63.623047" xlink:href="#DejaVuSans-48"/>
       <use x="127.246094" xlink:href="#DejaVuSans-48"/>
       <use x="190.869141" xlink:href="#DejaVuSans-48"/>
      </g>
     </g>
    </g>
    <g id="xtick_7">
     <g id="line2d_13">
      <path clip-path="url(#p0401a6a358)" d="M 317.324651 307.584 
L 317.324651 41.472 
" style="fill:none;stroke:#b0b0b0;stroke-linecap:square;stroke-width:0.8;"/>
     </g>
     <g id="line2d_14">
      <g>
       <use style="stroke:#000000;stroke-width:0.8;" x="317.324651" xlink:href="#m212098a679" y="307.584"/>
      </g>
     </g>
     <g id="text_7">
      <!-- 8000 -->
      <defs>
       <path d="M 31.78125 34.625 
Q 24.75 34.625 20.71875 30.859375 
Q 16.703125 27.09375 16.703125 20.515625 
Q 16.703125 13.921875 20.71875 10.15625 
Q 24.75 6.390625 31.78125 6.390625 
Q 38.8125 6.390625 42.859375 10.171875 
Q 46.921875 13.96875 46.921875 20.515625 
Q 46.921875 27.09375 42.890625 30.859375 
Q 38.875 34.625 31.78125 34.625 
z
M 21.921875 38.8125 
Q 15.578125 40.375 12.03125 44.71875 
Q 8.5 49.078125 8.5 55.328125 
Q 8.5 64.0625 14.71875 69.140625 
Q 20.953125 74.21875 31.78125 74.21875 
Q 42.671875 74.21875 48.875 69.140625 
Q 55.078125 64.0625 55.078125 55.328125 
Q 55.078125 49.078125 51.53125 44.71875 
Q 48 40.375 41.703125 38.8125 
Q 48.828125 37.15625 52.796875 32.3125 
Q 56.78125 27.484375 56.78125 20.515625 
Q 56.78125 9.90625 50.3125 4.234375 
Q 43.84375 -1.421875 31.78125 -1.421875 
Q 19.734375 -1.421875 13.25 4.234375 
Q 6.78125 9.90625 6.78125 20.515625 
Q 6.78125 27.484375 10.78125 32.3125 
Q 14.796875 37.15625 21.921875 38.8125 
z
M 18.3125 54.390625 
Q 18.3125 48.734375 21.84375 45.5625 
Q 25.390625 42.390625 31.78125 42.390625 
Q 38.140625 42.390625 41.71875 45.5625 
Q 45.3125 48.734375 45.3125 54.390625 
Q 45.3125 60.0625 41.71875 63.234375 
Q 38.140625 66.40625 31.78125 66.40625 
Q 25.390625 66.40625 21.84375 63.234375 
Q 18.3125 60.0625 18.3125 54.390625 
z
" id="DejaVuSans-56"/>
      </defs>
      <g transform="translate(304.599651 322.182437)scale(0.1 -0.1)">
       <use xlink:href="#DejaVuSans-56"/>
       <use x="63.623047" xlink:href="#DejaVuSans-48"/>
       <use x="127.246094" xlink:href="#DejaVuSans-48"/>
       <use x="190.869141" xlink:href="#DejaVuSans-48"/>
      </g>
     </g>
    </g>
    <g id="xtick_8">
     <g id="line2d_15">
      <path clip-path="url(#p0401a6a358)" d="M 357.906976 307.584 
L 357.906976 41.472 
" style="fill:none;stroke:#b0b0b0;stroke-linecap:square;stroke-width:0.8;"/>
     </g>
     <g id="line2d_16">
      <g>
       <use style="stroke:#000000;stroke-width:0.8;" x="357.906976" xlink:href="#m212098a679" y="307.584"/>
      </g>
     </g>
     <g id="text_8">
      <!-- 9000 -->
      <defs>
       <path d="M 10.984375 1.515625 
L 10.984375 10.5 
Q 14.703125 8.734375 18.5 7.8125 
Q 22.3125 6.890625 25.984375 6.890625 
Q 35.75 6.890625 40.890625 13.453125 
Q 46.046875 20.015625 46.78125 33.40625 
Q 43.953125 29.203125 39.59375 26.953125 
Q 35.25 24.703125 29.984375 24.703125 
Q 19.046875 24.703125 12.671875 31.3125 
Q 6.296875 37.9375 6.296875 49.421875 
Q 6.296875 60.640625 12.9375 67.421875 
Q 19.578125 74.21875 30.609375 74.21875 
Q 43.265625 74.21875 49.921875 64.515625 
Q 56.59375 54.828125 56.59375 36.375 
Q 56.59375 19.140625 48.40625 8.859375 
Q 40.234375 -1.421875 26.421875 -1.421875 
Q 22.703125 -1.421875 18.890625 -0.6875 
Q 15.09375 0.046875 10.984375 1.515625 
z
M 30.609375 32.421875 
Q 37.25 32.421875 41.125 36.953125 
Q 45.015625 41.5 45.015625 49.421875 
Q 45.015625 57.28125 41.125 61.84375 
Q 37.25 66.40625 30.609375 66.40625 
Q 23.96875 66.40625 20.09375 61.84375 
Q 16.21875 57.28125 16.21875 49.421875 
Q 16.21875 41.5 20.09375 36.953125 
Q 23.96875 32.421875 30.609375 32.421875 
z
" id="DejaVuSans-57"/>
      </defs>
      <g transform="translate(345.181976 322.182437)scale(0.1 -0.1)">
       <use xlink:href="#DejaVuSans-57"/>
       <use x="63.623047" xlink:href="#DejaVuSans-48"/>
       <use x="127.246094" xlink:href="#DejaVuSans-48"/>
       <use x="190.869141" xlink:href="#DejaVuSans-48"/>
      </g>
     </g>
    </g>
    <g id="xtick_9">
     <g id="line2d_17">
      <path clip-path="url(#p0401a6a358)" d="M 398.489302 307.584 
L 398.489302 41.472 
" style="fill:none;stroke:#b0b0b0;stroke-linecap:square;stroke-width:0.8;"/>
     </g>
     <g id="line2d_18">
      <g>
       <use style="stroke:#000000;stroke-width:0.8;" x="398.489302" xlink:href="#m212098a679" y="307.584"/>
      </g>
     </g>
     <g id="text_9">
      <!-- 10000 -->
      <defs>
       <path d="M 12.40625 8.296875 
L 28.515625 8.296875 
L 28.515625 63.921875 
L 10.984375 60.40625 
L 10.984375 69.390625 
L 28.421875 72.90625 
L 38.28125 72.90625 
L 38.28125 8.296875 
L 54.390625 8.296875 
L 54.390625 0 
L 12.40625 0 
z
" id="DejaVuSans-49"/>
      </defs>
      <g transform="translate(382.583052 322.182437)scale(0.1 -0.1)">
       <use xlink:href="#DejaVuSans-49"/>
       <use x="63.623047" xlink:href="#DejaVuSans-48"/>
       <use x="127.246094" xlink:href="#DejaVuSans-48"/>
       <use x="190.869141" xlink:href="#DejaVuSans-48"/>
       <use x="254.492188" xlink:href="#DejaVuSans-48"/>
      </g>
     </g>
    </g>
    <g id="text_10">
     <!-- Tempo (ms) -->
     <defs>
      <path d="M -0.296875 72.90625 
L 61.375 72.90625 
L 61.375 64.59375 
L 35.5 64.59375 
L 35.5 0 
L 25.59375 0 
L 25.59375 64.59375 
L -0.296875 64.59375 
z
" id="DejaVuSans-84"/>
      <path d="M 56.203125 29.59375 
L 56.203125 25.203125 
L 14.890625 25.203125 
Q 15.484375 15.921875 20.484375 11.0625 
Q 25.484375 6.203125 34.421875 6.203125 
Q 39.59375 6.203125 44.453125 7.46875 
Q 49.3125 8.734375 54.109375 11.28125 
L 54.109375 2.78125 
Q 49.265625 0.734375 44.1875 -0.34375 
Q 39.109375 -1.421875 33.890625 -1.421875 
Q 20.796875 -1.421875 13.15625 6.1875 
Q 5.515625 13.8125 5.515625 26.8125 
Q 5.515625 40.234375 12.765625 48.109375 
Q 20.015625 56 32.328125 56 
Q 43.359375 56 49.78125 48.890625 
Q 56.203125 41.796875 56.203125 29.59375 
z
M 47.21875 32.234375 
Q 47.125 39.59375 43.09375 43.984375 
Q 39.0625 48.390625 32.421875 48.390625 
Q 24.90625 48.390625 20.390625 44.140625 
Q 15.875 39.890625 15.1875 32.171875 
z
" id="DejaVuSans-101"/>
      <path d="M 52 44.1875 
Q 55.375 50.25 60.0625 53.125 
Q 64.75 56 71.09375 56 
Q 79.640625 56 84.28125 50.015625 
Q 88.921875 44.046875 88.921875 33.015625 
L 88.921875 0 
L 79.890625 0 
L 79.890625 32.71875 
Q 79.890625 40.578125 77.09375 44.375 
Q 74.3125 48.1875 68.609375 48.1875 
Q 61.625 48.1875 57.5625 43.546875 
Q 53.515625 38.921875 53.515625 30.90625 
L 53.515625 0 
L 44.484375 0 
L 44.484375 32.71875 
Q 44.484375 40.625 41.703125 44.40625 
Q 38.921875 48.1875 33.109375 48.1875 
Q 26.21875 48.1875 22.15625 43.53125 
Q 18.109375 38.875 18.109375 30.90625 
L 18.109375 0 
L 9.078125 0 
L 9.078125 54.6875 
L 18.109375 54.6875 
L 18.109375 46.1875 
Q 21.1875 51.21875 25.484375 53.609375 
Q 29.78125 56 35.6875 56 
Q 41.65625 56 45.828125 52.96875 
Q 50 49.953125 52 44.1875 
z
" id="DejaVuSans-109"/>
      <path d="M 18.109375 8.203125 
L 18.109375 -20.796875 
L 9.078125 -20.796875 
L 9.078125 54.6875 
L 18.109375 54.6875 
L 18.109375 46.390625 
Q 20.953125 51.265625 25.265625 53.625 
Q 29.59375 56 35.59375 56 
Q 45.5625 56 51.78125 48.09375 
Q 58.015625 40.1875 58.015625 27.296875 
Q 58.015625 14.40625 51.78125 6.484375 
Q 45.5625 -1.421875 35.59375 -1.421875 
Q 29.59375 -1.421875 25.265625 0.953125 
Q 20.953125 3.328125 18.109375 8.203125 
z
M 48.6875 27.296875 
Q 48.6875 37.203125 44.609375 42.84375 
Q 40.53125 48.484375 33.40625 48.484375 
Q 26.265625 48.484375 22.1875 42.84375 
Q 18.109375 37.203125 18.109375 27.296875 
Q 18.109375 17.390625 22.1875 11.75 
Q 26.265625 6.109375 33.40625 6.109375 
Q 40.53125 6.109375 44.609375 11.75 
Q 48.6875 17.390625 48.6875 27.296875 
z
" id="DejaVuSans-112"/>
      <path d="M 30.609375 48.390625 
Q 23.390625 48.390625 19.1875 42.75 
Q 14.984375 37.109375 14.984375 27.296875 
Q 14.984375 17.484375 19.15625 11.84375 
Q 23.34375 6.203125 30.609375 6.203125 
Q 37.796875 6.203125 41.984375 11.859375 
Q 46.1875 17.53125 46.1875 27.296875 
Q 46.1875 37.015625 41.984375 42.703125 
Q 37.796875 48.390625 30.609375 48.390625 
z
M 30.609375 56 
Q 42.328125 56 49.015625 48.375 
Q 55.71875 40.765625 55.71875 27.296875 
Q 55.71875 13.875 49.015625 6.21875 
Q 42.328125 -1.421875 30.609375 -1.421875 
Q 18.84375 -1.421875 12.171875 6.21875 
Q 5.515625 13.875 5.515625 27.296875 
Q 5.515625 40.765625 12.171875 48.375 
Q 18.84375 56 30.609375 56 
z
" id="DejaVuSans-111"/>
      <path id="DejaVuSans-32"/>
      <path d="M 31 75.875 
Q 24.46875 64.65625 21.28125 53.65625 
Q 18.109375 42.671875 18.109375 31.390625 
Q 18.109375 20.125 21.3125 9.0625 
Q 24.515625 -2 31 -13.1875 
L 23.1875 -13.1875 
Q 15.875 -1.703125 12.234375 9.375 
Q 8.59375 20.453125 8.59375 31.390625 
Q 8.59375 42.28125 12.203125 53.3125 
Q 15.828125 64.359375 23.1875 75.875 
z
" id="DejaVuSans-40"/>
      <path d="M 44.28125 53.078125 
L 44.28125 44.578125 
Q 40.484375 46.53125 36.375 47.5 
Q 32.28125 48.484375 27.875 48.484375 
Q 21.1875 48.484375 17.84375 46.4375 
Q 14.5 44.390625 14.5 40.28125 
Q 14.5 37.15625 16.890625 35.375 
Q 19.28125 33.59375 26.515625 31.984375 
L 29.59375 31.296875 
Q 39.15625 29.25 43.1875 25.515625 
Q 47.21875 21.78125 47.21875 15.09375 
Q 47.21875 7.46875 41.1875 3.015625 
Q 35.15625 -1.421875 24.609375 -1.421875 
Q 20.21875 -1.421875 15.453125 -0.5625 
Q 10.6875 0.296875 5.421875 2 
L 5.421875 11.28125 
Q 10.40625 8.6875 15.234375 7.390625 
Q 20.0625 6.109375 24.8125 6.109375 
Q 31.15625 6.109375 34.5625 8.28125 
Q 37.984375 10.453125 37.984375 14.40625 
Q 37.984375 18.0625 35.515625 20.015625 
Q 33.0625 21.96875 24.703125 23.78125 
L 21.578125 24.515625 
Q 13.234375 26.265625 9.515625 29.90625 
Q 5.8125 33.546875 5.8125 39.890625 
Q 5.8125 47.609375 11.28125 51.796875 
Q 16.75 56 26.8125 56 
Q 31.78125 56 36.171875 55.265625 
Q 40.578125 54.546875 44.28125 53.078125 
z
" id="DejaVuSans-115"/>
      <path d="M 8.015625 75.875 
L 15.828125 75.875 
Q 23.140625 64.359375 26.78125 53.3125 
Q 30.421875 42.28125 30.421875 31.390625 
Q 30.421875 20.453125 26.78125 9.375 
Q 23.140625 -1.703125 15.828125 -13.1875 
L 8.015625 -13.1875 
Q 14.5 -2 17.703125 9.0625 
Q 20.90625 20.125 20.90625 31.390625 
Q 20.90625 42.671875 17.703125 53.65625 
Q 14.5 64.65625 8.015625 75.875 
z
" id="DejaVuSans-41"/>
     </defs>
     <g transform="translate(205.973281 335.860562)scale(0.1 -0.1)">
      <use xlink:href="#DejaVuSans-84"/>
      <use x="60.818359" xlink:href="#DejaVuSans-101"/>
      <use x="122.341797" xlink:href="#DejaVuSans-109"/>
      <use x="219.753906" xlink:href="#DejaVuSans-112"/>
      <use x="283.230469" xlink:href="#DejaVuSans-111"/>
      <use x="344.412109" xlink:href="#DejaVuSans-32"/>
      <use x="376.199219" xlink:href="#DejaVuSans-40"/>
      <use x="415.212891" xlink:href="#DejaVuSans-109"/>
      <use x="512.625" xlink:href="#DejaVuSans-115"/>
      <use x="564.724609" xlink:href="#DejaVuSans-41"/>
     </g>
    </g>
   </g>
   <g id="matplotlib.axis_2">
    <g id="ytick_1">
     <g id="line2d_19">
      <path clip-path="url(#p0401a6a358)" d="M 57.6 295.488 
L 414.72 295.488 
" style="fill:none;stroke:#b0b0b0;stroke-linecap:square;stroke-width:0.8;"/>
     </g>
     <g id="line2d_20">
      <defs>
       <path d="M 0 0 
L -3.5 0 
" id="mc18122015f" style="stroke:#000000;stroke-width:0.8;"/>
      </defs>
      <g>
       <use style="stroke:#000000;stroke-width:0.8;" x="57.6" xlink:href="#mc18122015f" y="295.488"/>
      </g>
     </g>
     <g id="text_11">
      <!-- −1.00 -->
      <defs>
       <path d="M 10.59375 35.5 
L 73.1875 35.5 
L 73.1875 27.203125 
L 10.59375 27.203125 
z
" id="DejaVuSans-8722"/>
       <path d="M 10.6875 12.40625 
L 21 12.40625 
L 21 0 
L 10.6875 0 
z
" id="DejaVuSans-46"/>
      </defs>
      <g transform="translate(19.954687 299.287219)scale(0.1 -0.1)">
       <use xlink:href="#DejaVuSans-8722"/>
       <use x="83.789062" xlink:href="#DejaVuSans-49"/>
       <use x="147.412109" xlink:href="#DejaVuSans-46"/>
       <use x="179.199219" xlink:href="#DejaVuSans-48"/>
       <use x="242.822266" xlink:href="#DejaVuSans-48"/>
      </g>
     </g>
    </g>
    <g id="ytick_2">
     <g id="line2d_21">
      <path clip-path="url(#p0401a6a358)" d="M 57.6 265.248 
L 414.72 265.248 
" style="fill:none;stroke:#b0b0b0;stroke-linecap:square;stroke-width:0.8;"/>
     </g>
     <g id="line2d_22">
      <g>
       <use style="stroke:#000000;stroke-width:0.8;" x="57.6" xlink:href="#mc18122015f" y="265.248"/>
      </g>
     </g>
     <g id="text_12">
      <!-- −0.75 -->
      <g transform="translate(19.954687 269.047219)scale(0.1 -0.1)">
       <use xlink:href="#DejaVuSans-8722"/>
       <use x="83.789062" xlink:href="#DejaVuSans-48"/>
       <use x="147.412109" xlink:href="#DejaVuSans-46"/>
       <use x="179.199219" xlink:href="#DejaVuSans-55"/>
       <use x="242.822266" xlink:href="#DejaVuSans-53"/>
      </g>
     </g>
    </g>
    <g id="ytick_3">
     <g id="line2d_23">
      <path clip-path="url(#p0401a6a358)" d="M 57.6 235.008 
L 414.72 235.008 
" style="fill:none;stroke:#b0b0b0;stroke-linecap:square;stroke-width:0.8;"/>
     </g>
     <g id="line2d_24">
      <g>
       <use style="stroke:#000000;stroke-width:0.8;" x="57.6" xlink:href="#mc18122015f" y="235.008"/>
      </g>
     </g>
     <g id="text_13">
      <!-- −0.50 -->
      <g transform="translate(19.954687 238.807219)scale(0.1 -0.1)">
       <use xlink:href="#DejaVuSans-8722"/>
       <use x="83.789062" xlink:href="#DejaVuSans-48"/>
       <use x="147.412109" xlink:href="#DejaVuSans-46"/>
       <use x="179.199219" xlink:href="#DejaVuSans-53"/>
       <use x="242.822266" xlink:href="#DejaVuSans-48"/>
      </g>
     </g>
    </g>
    <g id="ytick_4">
     <g id="line2d_25">
      <path clip-path="url(#p0401a6a358)" d="M 57.6 204.768 
L 414.72 204.768 
" style="fill:none;stroke:#b0b0b0;stroke-linecap:square;stroke-width:0.8;"/>
     </g>
     <g id="line2d_26">
      <g>
       <use style="stroke:#000000;stroke-width:0.8;" x="57.6" xlink:href="#mc18122015f" y="204.768"/>
      </g>
     </g>
     <g id="text_14">
      <!-- −0.25 -->
      <g transform="translate(19.954687 208.567219)scale(0.1 -0.1)">
       <use xlink:href="#DejaVuSans-8722"/>
       <use x="83.789062" xlink:href="#DejaVuSans-48"/>
       <use x="147.412109" xlink:href="#DejaVuSans-46"/>
       <use x="179.199219" xlink:href="#DejaVuSans-50"/>
       <use x="242.822266" xlink:href="#DejaVuSans-53"/>
      </g>
     </g>
    </g>
    <g id="ytick_5">
     <g id="line2d_27">
      <path clip-path="url(#p0401a6a358)" d="M 57.6 174.528 
L 414.72 174.528 
" style="fill:none;stroke:#b0b0b0;stroke-linecap:square;stroke-width:0.8;"/>
     </g>
     <g id="line2d_28">
      <g>
       <use style="stroke:#000000;stroke-width:0.8;" x="57.6" xlink:href="#mc18122015f" y="174.528"/>
      </g>
     </g>
     <g id="text_15">
      <!-- 0.00 -->
      <g transform="translate(28.334375 178.327219)scale(0.1 -0.1)">
       <use xlink:href="#DejaVuSans-48"/>
       <use x="63.623047" xlink:href="#DejaVuSans-46"/>
       <use x="95.410156" xlink:href="#DejaVuSans-48"/>
       <use x="159.033203" xlink:href="#DejaVuSans-48"/>
      </g>
     </g>
    </g>
    <g id="ytick_6">
     <g id="line2d_29">
      <path clip-path="url(#p0401a6a358)" d="M 57.6 144.288 
L 414.72 144.288 
" style="fill:none;stroke:#b0b0b0;stroke-linecap:square;stroke-width:0.8;"/>
     </g>
     <g id="line2d_30">
      <g>
       <use style="stroke:#000000;stroke-width:0.8;" x="57.6" xlink:href="#mc18122015f" y="144.288"/>
      </g>
     </g>
     <g id="text_16">
      <!-- 0.25 -->
      <g transform="translate(28.334375 148.087219)scale(0.1 -0.1)">
       <use xlink:href="#DejaVuSans-48"/>
       <use x="63.623047" xlink:href="#DejaVuSans-46"/>
       <use x="95.410156" xlink:href="#DejaVuSans-50"/>
       <use x="159.033203" xlink:href="#DejaVuSans-53"/>
      </g>
     </g>
    </g>
    <g id="ytick_7">
     <g id="line2d_31">
      <path clip-path="url(#p0401a6a358)" d="M 57.6 114.048 
L 414.72 114.048 
" style="fill:none;stroke:#b0b0b0;stroke-linecap:square;stroke-width:0.8;"/>
     </g>
     <g id="line2d_32">
      <g>
       <use style="stroke:#000000;stroke-width:0.8;" x="57.6" xlink:href="#mc18122015f" y="114.048"/>
      </g>
     </g>
     <g id="text_17">
      <!-- 0.50 -->
      <g transform="translate(28.334375 117.847219)scale(0.1 -0.1)">
       <use xlink:href="#DejaVuSans-48"/>
       <use x="63.623047" xlink:href="#DejaVuSans-46"/>
       <use x="95.410156" xlink:href="#DejaVuSans-53"/>
       <use x="159.033203" xlink:href="#DejaVuSans-48"/>
      </g>
     </g>
    </g>
    <g id="ytick_8">
     <g id="line2d_33">
      <path clip-path="url(#p0401a6a358)" d="M 57.6 83.808 
L 414.72 83.808 
" style="fill:none;stroke:#b0b0b0;stroke-linecap:square;stroke-width:0.8;"/>
     </g>
     <g id="line2d_34">
      <g>
       <use style="stroke:#000000;stroke-width:0.8;" x="57.6" xlink:href="#mc18122015f" y="83.808"/>
      </g>
     </g>
     <g id="text_18">
      <!-- 0.75 -->
      <g transform="translate(28.334375 87.607219)scale(0.1 -0.1)">
       <use xlink:href="#DejaVuSans-48"/>
       <use x="63.623047" xlink:href="#DejaVuSans-46"/>
       <use x="95.410156" xlink:href="#DejaVuSans-55"/>
       <use x="159.033203" xlink:href="#DejaVuSans-53"/>
      </g>
     </g>
    </g>
    <g id="ytick_9">
     <g id="line2d_35">
      <path clip-path="url(#p0401a6a358)" d="M 57.6 53.568 
L 414.72 53.568 
" style="fill:none;stroke:#b0b0b0;stroke-linecap:square;stroke-width:0.8;"/>
     </g>
     <g id="line2d_36">
      <g>
       <use style="stroke:#000000;stroke-width:0.8;" x="57.6" xlink:href="#mc18122015f" y="53.568"/>
      </g>
     </g>
     <g id="text_19">
      <!-- 1.00 -->
      <g transform="translate(28.334375 57.367219)scale(0.1 -0.1)">
       <use xlink:href="#DejaVuSans-49"/>
       <use x="63.623047" xlink:href="#DejaVuSans-46"/>
       <use x="95.410156" xlink:href="#DejaVuSans-48"/>
       <use x="159.033203" xlink:href="#DejaVuSans-48"/>
      </g>
     </g>
    </g>
    <g id="text_20">
     <!-- CST normalizado -->
     <defs>
      <path d="M 64.40625 67.28125 
L 64.40625 56.890625 
Q 59.421875 61.53125 53.78125 63.8125 
Q 48.140625 66.109375 41.796875 66.109375 
Q 29.296875 66.109375 22.65625 58.46875 
Q 16.015625 50.828125 16.015625 36.375 
Q 16.015625 21.96875 22.65625 14.328125 
Q 29.296875 6.6875 41.796875 6.6875 
Q 48.140625 6.6875 53.78125 8.984375 
Q 59.421875 11.28125 64.40625 15.921875 
L 64.40625 5.609375 
Q 59.234375 2.09375 53.4375 0.328125 
Q 47.65625 -1.421875 41.21875 -1.421875 
Q 24.65625 -1.421875 15.125 8.703125 
Q 5.609375 18.84375 5.609375 36.375 
Q 5.609375 53.953125 15.125 64.078125 
Q 24.65625 74.21875 41.21875 74.21875 
Q 47.75 74.21875 53.53125 72.484375 
Q 59.328125 70.75 64.40625 67.28125 
z
" id="DejaVuSans-67"/>
      <path d="M 53.515625 70.515625 
L 53.515625 60.890625 
Q 47.90625 63.578125 42.921875 64.890625 
Q 37.9375 66.21875 33.296875 66.21875 
Q 25.25 66.21875 20.875 63.09375 
Q 16.5 59.96875 16.5 54.203125 
Q 16.5 49.359375 19.40625 46.890625 
Q 22.3125 44.4375 30.421875 42.921875 
L 36.375 41.703125 
Q 47.40625 39.59375 52.65625 34.296875 
Q 57.90625 29 57.90625 20.125 
Q 57.90625 9.515625 50.796875 4.046875 
Q 43.703125 -1.421875 29.984375 -1.421875 
Q 24.8125 -1.421875 18.96875 -0.25 
Q 13.140625 0.921875 6.890625 3.21875 
L 6.890625 13.375 
Q 12.890625 10.015625 18.65625 8.296875 
Q 24.421875 6.59375 29.984375 6.59375 
Q 38.421875 6.59375 43.015625 9.90625 
Q 47.609375 13.234375 47.609375 19.390625 
Q 47.609375 24.75 44.3125 27.78125 
Q 41.015625 30.8125 33.5 32.328125 
L 27.484375 33.5 
Q 16.453125 35.6875 11.515625 40.375 
Q 6.59375 45.0625 6.59375 53.421875 
Q 6.59375 63.09375 13.40625 68.65625 
Q 20.21875 74.21875 32.171875 74.21875 
Q 37.3125 74.21875 42.625 73.28125 
Q 47.953125 72.359375 53.515625 70.515625 
z
" id="DejaVuSans-83"/>
      <path d="M 54.890625 33.015625 
L 54.890625 0 
L 45.90625 0 
L 45.90625 32.71875 
Q 45.90625 40.484375 42.875 44.328125 
Q 39.84375 48.1875 33.796875 48.1875 
Q 26.515625 48.1875 22.3125 43.546875 
Q 18.109375 38.921875 18.109375 30.90625 
L 18.109375 0 
L 9.078125 0 
L 9.078125 54.6875 
L 18.109375 54.6875 
L 18.109375 46.1875 
Q 21.34375 51.125 25.703125 53.5625 
Q 30.078125 56 35.796875 56 
Q 45.21875 56 50.046875 50.171875 
Q 54.890625 44.34375 54.890625 33.015625 
z
" id="DejaVuSans-110"/>
      <path d="M 41.109375 46.296875 
Q 39.59375 47.171875 37.8125 47.578125 
Q 36.03125 48 33.890625 48 
Q 26.265625 48 22.1875 43.046875 
Q 18.109375 38.09375 18.109375 28.8125 
L 18.109375 0 
L 9.078125 0 
L 9.078125 54.6875 
L 18.109375 54.6875 
L 18.109375 46.1875 
Q 20.953125 51.171875 25.484375 53.578125 
Q 30.03125 56 36.53125 56 
Q 37.453125 56 38.578125 55.875 
Q 39.703125 55.765625 41.0625 55.515625 
z
" id="DejaVuSans-114"/>
      <path d="M 34.28125 27.484375 
Q 23.390625 27.484375 19.1875 25 
Q 14.984375 22.515625 14.984375 16.5 
Q 14.984375 11.71875 18.140625 8.90625 
Q 21.296875 6.109375 26.703125 6.109375 
Q 34.1875 6.109375 38.703125 11.40625 
Q 43.21875 16.703125 43.21875 25.484375 
L 43.21875 27.484375 
z
M 52.203125 31.203125 
L 52.203125 0 
L 43.21875 0 
L 43.21875 8.296875 
Q 40.140625 3.328125 35.546875 0.953125 
Q 30.953125 -1.421875 24.3125 -1.421875 
Q 15.921875 -1.421875 10.953125 3.296875 
Q 6 8.015625 6 15.921875 
Q 6 25.140625 12.171875 29.828125 
Q 18.359375 34.515625 30.609375 34.515625 
L 43.21875 34.515625 
L 43.21875 35.40625 
Q 43.21875 41.609375 39.140625 45 
Q 35.0625 48.390625 27.6875 48.390625 
Q 23 48.390625 18.546875 47.265625 
Q 14.109375 46.140625 10.015625 43.890625 
L 10.015625 52.203125 
Q 14.9375 54.109375 19.578125 55.046875 
Q 24.21875 56 28.609375 56 
Q 40.484375 56 46.34375 49.84375 
Q 52.203125 43.703125 52.203125 31.203125 
z
" id="DejaVuSans-97"/>
      <path d="M 9.421875 75.984375 
L 18.40625 75.984375 
L 18.40625 0 
L 9.421875 0 
z
" id="DejaVuSans-108"/>
      <path d="M 9.421875 54.6875 
L 18.40625 54.6875 
L 18.40625 0 
L 9.421875 0 
z
M 9.421875 75.984375 
L 18.40625 75.984375 
L 18.40625 64.59375 
L 9.421875 64.59375 
z
" id="DejaVuSans-105"/>
      <path d="M 5.515625 54.6875 
L 48.1875 54.6875 
L 48.1875 46.484375 
L 14.40625 7.171875 
L 48.1875 7.171875 
L 48.1875 0 
L 4.296875 0 
L 4.296875 8.203125 
L 38.09375 47.515625 
L 5.515625 47.515625 
z
" id="DejaVuSans-122"/>
      <path d="M 45.40625 46.390625 
L 45.40625 75.984375 
L 54.390625 75.984375 
L 54.390625 0 
L 45.40625 0 
L 45.40625 8.203125 
Q 42.578125 3.328125 38.25 0.953125 
Q 33.9375 -1.421875 27.875 -1.421875 
Q 17.96875 -1.421875 11.734375 6.484375 
Q 5.515625 14.40625 5.515625 27.296875 
Q 5.515625 40.1875 11.734375 48.09375 
Q 17.96875 56 27.875 56 
Q 33.9375 56 38.25 53.625 
Q 42.578125 51.265625 45.40625 46.390625 
z
M 14.796875 27.296875 
Q 14.796875 17.390625 18.875 11.75 
Q 22.953125 6.109375 30.078125 6.109375 
Q 37.203125 6.109375 41.296875 11.75 
Q 45.40625 17.390625 45.40625 27.296875 
Q 45.40625 37.203125 41.296875 42.84375 
Q 37.203125 48.484375 30.078125 48.484375 
Q 22.953125 48.484375 18.875 42.84375 
Q 14.796875 37.203125 14.796875 27.296875 
z
" id="DejaVuSans-100"/>
     </defs>
     <g transform="translate(13.875 216.753781)rotate(-90)scale(0.1 -0.1)">
      <use xlink:href="#DejaVuSans-67"/>
      <use x="69.824219" xlink:href="#DejaVuSans-83"/>
      <use x="133.300781" xlink:href="#DejaVuSans-84"/>
      <use x="194.384766" xlink:href="#DejaVuSans-32"/>
      <use x="226.171875" xlink:href="#DejaVuSans-110"/>
      <use x="289.550781" xlink:href="#DejaVuSans-111"/>
      <use x="350.732422" xlink:href="#DejaVuSans-114"/>
      <use x="391.830078" xlink:href="#DejaVuSans-109"/>
      <use x="489.242188" xlink:href="#DejaVuSans-97"/>
      <use x="550.521484" xlink:href="#DejaVuSans-108"/>
      <use x="578.304688" xlink:href="#DejaVuSans-105"/>
      <use x="606.087891" xlink:href="#DejaVuSans-122"/>
      <use x="658.578125" xlink:href="#DejaVuSans-97"/>
      <use x="719.857422" xlink:href="#DejaVuSans-100"/>
      <use x="783.333984" xlink:href="#DejaVuSans-111"/>
     </g>
    </g>
   </g>
   <g id="line2d_37">
    <path clip-path="url(#p0401a6a358)" d="M 73.832727 200.632328 
L 74.177677 196.401369 
L 74.374501 194.796842 
L 74.394792 194.804658 
L 74.506394 194.803611 
L 74.528714 194.762517 
L 74.942654 193.53045 
L 75.192235 189.244113 
L 75.415438 183.403235 
L 76.174327 159.400416 
L 76.496957 153.864318 
L 76.592325 153.715547 
L 76.707985 153.356199 
L 76.758713 153.527157 
L 76.868285 154.995181 
L 77.194973 159.017058 
L 77.543981 162.708813 
L 77.767184 163.896392 
L 77.848348 163.537412 
L 78.21156 159.817126 
L 78.686373 148.792205 
L 80.096609 112.601659 
L 80.315754 110.889347 
L 80.338074 110.895959 
L 80.453734 111.075831 
L 80.707373 112.139747 
L 81.113196 114.605367 
L 81.283642 114.843438 
L 81.299875 114.834251 
L 81.405389 114.593974 
L 81.551486 113.756584 
L 81.855853 110.143261 
L 82.290084 100.609226 
L 83.278264 76.378486 
L 83.629301 72.38804 
L 83.671912 72.496283 
L 84.022949 74.751169 
L 84.238036 79.148917 
L 84.633713 89.795746 
L 85.875532 126.18936 
L 86.078444 127.672043 
L 86.198162 128.242255 
L 86.307734 128.685483 
L 86.356433 128.562315 
L 86.957051 125.67882 
L 87.007779 125.842862 
L 87.164021 126.592516 
L 87.226924 126.470982 
L 87.308088 126.333155 
L 87.3507 126.438568 
L 87.458243 127.562188 
L 88.105531 135.017193 
L 88.33685 136.470789 
L 88.403811 136.280941 
L 88.809634 133.600494 
L 89.335176 128.709895 
L 89.542145 126.476903 
L 90.065657 119.690307 
L 90.333501 116.559151 
L 91.059924 103.971155 
L 91.433282 99.448968 
L 91.650397 98.525459 
L 91.697067 98.658674 
L 92.046075 101.170479 
L 92.738004 106.351893 
L 93.162089 107.751626 
L 93.170205 107.748019 
L 93.267603 107.540412 
L 93.417758 107.309872 
L 93.464427 107.354232 
L 93.551679 107.407704 
L 93.592262 107.342131 
L 93.805319 106.592426 
L 93.947357 105.691626 
L 94.357238 100.416266 
L 95.126273 91.003341 
L 95.34136 90.263659 
L 95.444845 90.044933 
L 95.513835 89.945344 
L 95.562533 90.039462 
L 95.672106 90.831731 
L 96.02923 95.785604 
L 96.980886 116.631645 
L 97.518602 123.952654 
L 97.648465 125.08308 
L 97.812823 125.863391 
L 97.835144 125.849983 
L 97.918337 125.774534 
L 97.960949 125.876899 
L 98.092841 126.809986 
L 98.790857 131.593611 
L 98.963332 131.724466 
L 98.981594 131.713671 
L 99.103341 131.50567 
L 99.219001 130.663082 
L 99.600475 125.498895 
L 100.199064 115.555083 
L 100.255879 115.458139 
L 100.318782 115.530979 
L 100.389801 115.551663 
L 100.436471 115.505378 
L 100.477053 115.507932 
L 100.509519 115.587677 
L 100.5988 116.360161 
L 101.018827 123.426151 
L 102.814595 168.173487 
L 103.064176 170.315628 
L 103.173749 170.816278 
L 103.352311 171.553189 
L 103.388835 171.500084 
L 103.579572 170.869625 
L 103.681028 171.011281 
L 103.737843 170.999416 
L 103.770309 170.944715 
L 103.934667 170.447418 
L 104.005686 170.675344 
L 104.435859 173.953827 
L 104.963429 179.211274 
L 105.267797 180.326495 
L 105.304321 180.282604 
L 105.401718 179.794507 
L 105.766959 176.4231 
L 106.028715 174.282304 
L 106.280326 172.900855 
L 106.398014 173.172326 
L 106.43048 173.200258 
L 106.475121 173.086921 
L 107.063564 170.546719 
L 107.100089 170.640494 
L 107.266476 171.299264 
L 107.323291 171.153566 
L 107.455184 170.52205 
L 107.516057 170.757622 
L 107.668241 171.445308 
L 107.714911 171.335088 
L 108.110588 169.045541 
L 109.30168 156.302989 
L 109.82925 153.436383 
L 110.157967 152.349047 
L 110.24319 152.388534 
L 110.31218 152.262745 
L 110.561761 151.784346 
L 110.638867 151.588223 
L 110.758585 150.491354 
L 110.979759 149.102209 
L 111.081215 148.864735 
L 111.27601 147.786568 
L 111.349058 148.149035 
L 112.296655 155.218961 
L 112.327092 155.165825 
L 112.44681 154.339866 
L 112.655809 153.685596 
L 112.741032 153.186478 
L 113.167146 148.143915 
L 114.346063 124.068123 
L 114.504334 123.700333 
L 114.546945 123.821862 
L 114.676809 125.276255 
L 114.975089 131.028549 
L 116.001822 157.617871 
L 116.042404 157.692787 
L 116.099219 157.553645 
L 116.413732 155.79672 
L 117.056962 148.913299 
L 117.239583 148.375998 
L 117.31466 148.185716 
L 117.367417 148.30336 
L 117.491193 149.339332 
L 117.592649 149.792443 
L 117.643377 149.711723 
L 117.710338 149.600538 
L 117.761065 149.708596 
L 117.886871 150.644107 
L 117.986297 151.081544 
L 118.037025 150.983689 
L 118.126306 150.768196 
L 118.172976 150.905399 
L 118.384004 152.39762 
L 118.48546 152.041813 
L 118.57677 151.794569 
L 118.631556 151.888152 
L 118.702575 152.044236 
L 118.749245 151.898441 
L 118.860846 150.497235 
L 119.869317 135.288581 
L 119.901783 135.243677 
L 119.962657 135.363185 
L 120.264995 136.554843 
L 120.398917 138.355948 
L 121.289699 154.647295 
L 121.496669 156.948211 
L 121.606241 157.951275 
L 121.754366 159.307226 
L 121.803065 159.133339 
L 121.999889 157.542672 
L 122.103374 157.812809 
L 122.131782 157.834813 
L 122.174393 157.719662 
L 122.318461 156.434027 
L 122.381363 156.188677 
L 122.438178 156.354733 
L 122.777041 158.787972 
L 123.211272 166.772766 
L 123.65159 173.722263 
L 123.874793 175.206183 
L 123.88088 175.205086 
L 124.130461 175.245632 
L 124.213655 175.188379 
L 124.221772 175.174037 
L 124.727022 173.985445 
L 125.136903 170.482512 
L 126.098704 156.947495 
L 126.29147 156.542072 
L 126.447712 155.583149 
L 126.49844 155.777229 
L 126.975282 160.259757 
L 127.912734 178.988512 
L 128.263771 181.888371 
L 128.292179 181.824659 
L 128.391606 180.897862 
L 128.819749 174.355777 
L 129.462979 159.399274 
L 129.755172 155.965522 
L 129.811987 156.198484 
L 130.071714 159.07927 
L 130.290858 163.913924 
L 130.986845 188.631552 
L 131.812696 214.966947 
L 132.027782 219.512568 
L 132.616226 232.090749 
L 132.955088 239.017127 
L 133.389319 244.772259 
L 133.929064 251.693621 
L 134.198936 258.039723 
L 134.586498 266.759793 
L 134.795497 269.483659 
L 134.817817 269.460639 
L 134.970001 269.13321 
L 135.067398 269.199808 
L 135.126243 268.909804 
L 135.250019 266.769249 
L 135.830346 255.785194 
L 136.11848 252.137066 
L 136.246315 250.868528 
L 136.292984 250.951891 
L 136.376178 251.133476 
L 136.424877 251.006663 
L 136.595323 249.89374 
L 136.664313 250.377088 
L 137.593648 263.33676 
L 137.989326 268.55148 
L 138.206441 269.922974 
L 138.387032 270.827978 
L 138.433702 270.912192 
L 138.488488 270.778353 
L 138.823292 269.843027 
L 138.914603 269.408461 
L 139.184475 268.323385 
L 139.26564 268.108552 
L 139.843938 264.514879 
L 140.314693 257.110935 
L 140.767186 242.707018 
L 141.497668 209.77388 
L 141.850734 197.003822 
L 142.108432 191.354108 
L 142.126694 191.367153 
L 142.242353 191.484605 
L 142.297139 191.412745 
L 142.337722 191.389807 
L 142.374246 191.485353 
L 142.45744 192.427531 
L 142.660351 198.595999 
L 143.039796 213.18765 
L 143.950869 251.353431 
L 144.366838 259.725853 
L 144.667147 262.060513 
L 144.900496 262.76111 
L 144.949194 262.656582 
L 145.115582 261.596566 
L 145.448357 257.39368 
L 146.186955 240.932872 
L 146.976282 223.740271 
L 147.199484 221.970737 
L 147.4166 221.676499 
L 147.469357 221.814404 
L 147.572842 222.855709 
L 148.808574 238.191486 
L 148.914088 238.741574 
L 148.964816 238.563303 
L 149.100766 236.783875 
L 150.188373 221.719491 
L 150.338527 220.076351 
L 150.6084 217.6035 
L 150.736234 215.688257 
L 151.32062 205.323043 
L 151.596579 201.01623 
L 151.842102 197.489575 
L 151.971966 195.5612 
L 152.223576 192.567888 
L 152.286479 192.291255 
L 152.414313 190.333833 
L 152.576642 188.370111 
L 152.621283 188.414171 
L 152.65172 188.41654 
L 152.684186 188.328336 
L 152.777525 187.38165 
L 152.952029 185.124423 
L 153.012902 185.472722 
L 153.199581 186.669939 
L 153.244222 186.643216 
L 153.280746 186.654165 
L 153.305095 186.729522 
L 153.384231 187.64847 
L 153.824549 198.292759 
L 154.378498 213.300773 
L 154.664603 216.732798 
L 154.780263 217.380922 
L 154.830991 217.220586 
L 154.975058 215.684367 
L 155.242901 210.369822 
L 155.606113 196.32093 
L 156.208761 167.943627 
L 157.205057 115.29424 
L 157.560152 107.949402 
L 158.538186 96.583589 
L 159.284901 85.299645 
L 159.613618 82.563237 
L 159.743481 82.152101 
L 159.786093 82.230385 
L 159.90784 83.061515 
L 160.110751 86.262248 
L 160.386711 94.475501 
L 160.918339 119.127284 
L 161.691433 152.710287 
L 161.918694 156.353889 
L 162.081023 157.347854 
L 162.129722 157.123451 
L 162.237265 155.057267 
L 162.679612 139.907783 
L 163.243707 116.350741 
L 163.797655 105.317623 
L 163.927519 104.477482 
L 163.978247 104.745508 
L 164.130431 107.400787 
L 164.582923 117.729785 
L 165.262677 134.003676 
L 165.512259 136.359832 
L 165.713141 136.851037 
L 165.763869 136.796777 
L 165.893733 136.343721 
L 166.585661 133.428276 
L 167.25324 132.230587 
L 167.517026 132.290803 
L 167.626598 132.636489 
L 167.987781 133.895493 
L 168.152139 134.267331 
L 168.213012 134.027989 
L 168.610719 130.370877 
L 168.977989 126.725786 
L 169.239745 124.320518 
L 169.393958 124.489628 
L 169.507589 123.673185 
L 169.615132 123.138722 
L 169.667889 123.265038 
L 169.789636 123.692093 
L 169.846451 123.546668 
L 170.002693 122.958769 
L 170.057479 123.083664 
L 170.197488 123.615405 
L 170.258362 123.457404 
L 170.727088 120.850584 
L 171.197843 117.119169 
L 171.4109 116.251023 
L 171.565113 116.125366 
L 171.755849 115.070748 
L 171.843101 115.36359 
L 171.98514 115.985844 
L 172.043984 115.892991 
L 172.106887 115.80459 
L 172.153556 115.918517 
L 172.356468 117.231577 
L 172.449807 116.789271 
L 172.563438 116.20355 
L 172.616195 116.346763 
L 172.727796 116.813614 
L 172.782582 116.627784 
L 172.975348 115.077301 
L 173.066659 115.491162 
L 173.129561 115.684172 
L 173.182318 115.5105 
L 173.366968 114.020894 
L 173.444074 114.545713 
L 173.681481 116.046586 
L 173.744383 116.321308 
L 173.853956 118.265733 
L 175.239842 150.288068 
L 175.310861 150.448585 
L 175.369706 150.379235 
L 175.584792 149.841023 
L 175.775529 148.078339 
L 176.085984 143.495658 
L 176.818495 125.720976 
L 177.447521 112.596254 
L 177.871606 107.689951 
L 177.938567 107.721049 
L 177.99944 107.572316 
L 178.171915 106.663964 
L 178.236847 106.973088 
L 178.650787 111.998144 
L 179.300104 126.10306 
L 179.464462 127.635692 
L 179.602442 128.835751 
L 179.649112 128.688975 
L 179.854053 127.47735 
L 179.937246 127.635936 
L 179.965654 127.646463 
L 180.004207 127.551931 
L 180.15842 126.405138 
L 180.27205 125.963149 
L 180.322778 126.067747 
L 180.41206 126.233999 
L 180.464817 126.149076 
L 180.623088 125.971131 
L 180.645408 125.989933 
L 180.712369 126.278398 
L 180.951804 129.175108 
L 181.808092 140.026769 
L 181.844616 139.973744 
L 181.939984 139.735702 
L 181.990712 139.894042 
L 182.114488 141.270435 
L 182.863232 152.837763 
L 183.707344 173.355987 
L 184.052294 178.736824 
L 184.340429 181.224017 
L 184.533195 181.611658 
L 184.585952 181.510103 
L 184.711757 180.684062 
L 185.060765 176.465537 
L 186.022566 162.474718 
L 186.93161 154.24197 
L 187.073648 154.02201 
L 187.233948 153.267491 
L 187.29888 153.530594 
L 187.497734 156.041609 
L 187.749344 159.892651 
L 188.051682 164.980116 
L 188.333729 168.991914 
L 188.44736 168.580182 
L 188.473738 168.544033 
L 188.51635 168.713586 
L 188.707087 170.341435 
L 188.79231 169.959938 
L 188.885649 169.458651 
L 188.934348 169.717311 
L 189.169725 172.078844 
L 189.256977 171.992271 
L 189.301618 172.153061 
L 189.401045 173.754271 
L 189.658742 176.92098 
L 189.764256 178.355863 
L 190.068624 182.453803 
L 190.180225 183.419692 
L 190.368933 185.269041 
L 190.419661 185.146375 
L 190.577932 184.623423 
L 190.634747 184.717553 
L 190.693592 184.806392 
L 190.738232 184.685786 
L 190.85795 183.497915 
L 191.608723 172.227717 
L 192.085565 159.321369 
L 192.917503 125.129496 
L 193.483627 103.485015 
L 193.840751 97.621062 
L 193.873217 97.61675 
L 193.925974 97.69023 
L 194.094391 98.128015 
L 194.218167 99.846756 
L 194.621961 111.032634 
L 195.255045 142.433675 
L 196.222934 184.398784 
L 196.519184 189.684578 
L 196.681514 190.983273 
L 196.927037 192.565261 
L 197.006172 192.82917 
L 197.140094 194.164254 
L 197.961886 207.705813 
L 199.185443 226.342853 
L 199.370093 229.125318 
L 199.611558 231.219829 
L 199.74345 232.749601 
L 199.99709 234.916513 
L 200.080284 235.350209 
L 200.494223 238.173614 
L 200.644378 238.483687 
L 200.680902 238.421625 
L 200.770183 237.725792 
L 202.026206 224.296212 
L 202.352894 222.893375 
L 202.65929 220.240518 
L 202.925105 215.105642 
L 203.282229 203.137146 
L 204.138516 173.136695 
L 204.446942 168.492755 
L 204.694494 166.024537 
L 204.775659 165.554579 
L 204.946104 162.614596 
L 205.175395 160.58306 
L 205.776013 154.424567 
L 205.798333 154.37948 
L 205.842974 154.597011 
L 206.033711 156.243281 
L 206.108788 156.003913 
L 206.183865 155.74889 
L 206.228506 155.954764 
L 206.368515 158.295211 
L 206.597805 160.221231 
L 206.72361 162.852691 
L 207.017832 167.762341 
L 207.301908 172.028312 
L 207.372927 171.909828 
L 207.425684 171.857024 
L 207.474383 171.95495 
L 207.561635 172.132439 
L 207.608305 172.020844 
L 207.709761 170.960092 
L 208.760843 155.779743 
L 208.829833 155.791157 
L 208.900852 155.943459 
L 209.040861 157.157068 
L 209.446684 163.933474 
L 209.811925 169.288527 
L 210.10006 171.447995 
L 210.138613 171.400233 
L 210.246156 171.208883 
L 210.296884 171.317445 
L 210.491679 172.076457 
L 210.564727 171.877682 
L 210.64995 171.615014 
L 210.702707 171.771552 
L 211.171433 174.880596 
L 211.98308 190.613853 
L 212.626309 206.530389 
L 212.890095 212.639601 
L 213.24519 219.791375 
L 213.539412 224.556945 
L 213.791022 226.820748 
L 213.855954 226.576557 
L 214.265835 222.916154 
L 214.693979 217.701909 
L 215.073424 216.048564 
L 215.164734 216.126769 
L 215.229666 216.143662 
L 215.276335 216.091375 
L 215.371704 216.03342 
L 215.40417 216.103606 
L 215.497509 216.890514 
L 216.242195 227.647778 
L 216.94224 238.202335 
L 216.972677 238.183587 
L 217.035579 238.169761 
L 217.068045 238.245412 
L 217.189792 239.150012 
L 217.291248 239.649657 
L 217.341976 239.53193 
L 217.463723 239.082846 
L 217.522567 239.24706 
L 217.971002 242.021139 
L 218.64061 253.220782 
L 219.900691 276.837877 
L 220.426232 279.778956 
L 220.560154 279.977766 
L 220.612911 279.870237 
L 220.740745 279.099176 
L 220.957861 275.547291 
L 221.23585 267.119202 
L 222.217942 233.080552 
L 222.579125 229.283195 
L 222.615649 229.265016 
L 222.670435 229.342746 
L 222.769862 229.367891 
L 222.800298 229.340773 
L 222.899725 229.252118 
L 222.936249 229.349166 
L 223.068142 230.427323 
L 223.471936 235.63468 
L 224.316048 259.70065 
L 224.626503 265.816083 
L 224.859851 268.781458 
L 224.874055 268.773015 
L 224.975511 268.612162 
L 225.028268 268.756303 
L 225.13784 269.088347 
L 225.188568 268.965977 
L 225.294082 267.868643 
L 225.624828 264.63165 
L 226.077321 259.14941 
L 226.633299 246.267305 
L 227.104054 236.770744 
L 227.306966 235.154589 
L 227.313053 235.156235 
L 227.422625 235.33758 
L 227.570751 235.896527 
L 227.698585 237.616616 
L 228.656328 253.973984 
L 228.690823 254.023496 
L 228.739522 253.872292 
L 229.058093 251.377476 
L 229.238684 248.131753 
L 229.612042 242.422342 
L 229.871769 240.148083 
L 230.038156 239.064046 
L 230.561668 233.276268 
L 231.192723 223.819421 
L 231.458538 223.271131 
L 231.472741 223.284004 
L 231.537673 223.589421 
L 231.892768 227.191993 
L 232.069302 230.237356 
L 232.882977 249.147266 
L 234.082185 284.861973 
L 234.214077 285.913264 
L 234.250602 285.866353 
L 234.441339 285.133357 
L 234.554969 283.569457 
L 234.881657 273.838156 
L 235.173849 260.067985 
L 235.750119 226.982184 
L 236.36697 197.967472 
L 236.722065 189.742495 
L 236.878307 188.116264 
L 236.91686 188.170391 
L 237.060928 188.866152 
L 237.320655 190.88407 
L 237.661546 194.255777 
L 237.890836 195.787759 
L 237.969972 195.430087 
L 238.339271 191.499489 
L 238.775531 179.166884 
L 239.408615 147.886399 
L 240.358242 103.678039 
L 240.593619 101.812265 
L 240.626085 101.8469 
L 240.644347 101.909056 
L 240.747832 102.841525 
L 241.104956 109.298087 
L 241.932836 127.635004 
L 242.076903 128.612809 
L 242.12966 128.47157 
L 242.622735 125.479061 
L 242.815501 124.782223 
L 242.916957 124.47441 
L 243.040733 124.03384 
L 243.089432 124.163543 
L 243.270023 125.603563 
L 243.515546 128.809632 
L 244.089786 137.787072 
L 244.388066 139.329232 
L 244.465173 139.004998 
L 244.883171 134.943913 
L 245.429003 125.11622 
L 245.968748 117.606296 
L 246.185864 111.277879 
L 247.312023 81.056351 
L 247.447974 80.113916 
L 247.490585 80.197896 
L 247.752341 81.556666 
L 247.886263 82.905661 
L 249.01851 99.02078 
L 249.428391 110.148268 
L 249.962049 122.016335 
L 250.193368 123.764556 
L 250.4186 124.752469 
L 250.491648 124.616448 
L 250.617453 124.340093 
L 250.67224 124.434107 
L 250.796016 124.7908 
L 250.85486 124.645929 
L 250.998927 124.161291 
L 251.051684 124.287036 
L 251.394605 125.34586 
L 251.587371 126.413551 
L 251.670565 126.030902 
L 252.112912 121.531587 
L 253.021956 105.29123 
L 253.433867 102.128607 
L 253.462274 102.145685 
L 253.490682 102.221348 
L 253.74838 103.492035 
L 253.926942 105.549128 
L 255.521827 128.105212 
L 255.696331 128.881401 
L 255.785613 128.538177 
L 256.152883 125.113375 
L 256.627696 114.104557 
L 257.187732 100.502751 
L 258.212436 83.319807 
L 258.447813 81.660701 
L 258.470133 81.684232 
L 258.56956 82.141174 
L 258.804938 84.208508 
L 259.040315 89.171634 
L 259.53339 103.034628 
L 260.004145 120.377004 
L 260.862462 149.095999 
L 261.152625 154.007069 
L 261.404236 156.514452 
L 261.479313 156.222637 
L 261.605118 155.66998 
L 261.655846 155.790888 
L 261.737011 156.039594 
L 261.787739 155.867495 
L 261.917602 154.221625 
L 262.043407 153.237818 
L 262.092106 153.274118 
L 262.134717 153.215309 
L 262.142834 153.182617 
L 262.232115 152.255181 
L 262.56489 148.703266 
L 262.700841 146.512641 
L 262.850995 144.695027 
L 262.895636 144.772186 
L 262.95651 144.869739 
L 263.003179 144.749175 
L 263.153334 143.442252 
L 263.193916 143.288998 
L 263.246673 143.567791 
L 263.449585 145.314939 
L 263.520604 145.178355 
L 263.561186 145.120931 
L 263.603798 145.256281 
L 263.703224 146.628816 
L 263.958893 149.326673 
L 264.070494 150.83211 
L 264.794889 168.923718 
L 265.910903 192.973541 
L 265.975835 193.164671 
L 266.03265 193.035665 
L 266.23962 191.605057 
L 266.397891 189.914796 
L 266.915315 179.380555 
L 267.217654 174.972095 
L 267.678263 170.262388 
L 267.873058 169.036539 
L 267.931903 169.106134 
L 268.262649 170.048252 
L 268.92414 174.664271 
L 269.31576 175.481598 
L 269.443594 175.57643 
L 269.579545 175.726224 
L 269.628244 175.697971 
L 269.741874 175.513981 
L 270.101028 173.967531 
L 270.350609 171.972321 
L 270.752374 166.595505 
L 271.251537 160.469662 
L 271.300236 160.399049 
L 271.355022 160.504881 
L 271.576195 161.524326 
L 271.734466 164.612305 
L 272.566404 183.151573 
L 272.637423 183.419709 
L 272.692209 183.264115 
L 272.976286 181.240176 
L 273.349643 173.457618 
L 274.512327 145.15 
L 274.804519 142.250224 
L 274.928296 142.618692 
L 275.206284 143.988332 
L 275.638486 153.444979 
L 276.648986 183.572575 
L 276.882334 186.097189 
L 277.056838 186.911225 
L 277.105537 186.769002 
L 277.233372 185.368698 
L 277.659486 177.662948 
L 278.540122 157.125946 
L 279.499894 139.820531 
L 279.599321 139.718468 
L 279.641933 139.786805 
L 279.733243 140.362306 
L 279.919922 143.583243 
L 280.238493 153.741387 
L 280.678811 175.398251 
L 281.512778 213.576337 
L 281.646699 213.867847 
L 281.677136 213.812379 
L 281.752214 213.098094 
L 281.890193 209.179076 
L 282.423851 183.56705 
L 282.939247 163.51562 
L 283.20709 160.849018 
L 283.225352 160.874565 
L 283.308546 161.433951 
L 283.625088 165.659835 
L 284.049173 175.235892 
L 284.526015 191.055835 
L 285.242294 213.379402 
L 285.475642 216.213805 
L 285.702903 217.413628 
L 285.786097 217.022277 
L 286.21424 211.953598 
L 287.671146 183.863561 
L 287.727961 183.935787 
L 287.734048 183.952396 
L 287.863912 184.65667 
L 288.115522 187.423381 
L 288.456414 195.546184 
L 289.606923 223.002086 
L 289.694175 223.017847 
L 289.724611 222.982893 
L 289.830125 222.589096 
L 290.004629 220.813665 
L 291.10644 201.160792 
L 291.65633 191.832684 
L 291.950552 187.257821 
L 292.200133 184.275678 
L 292.43754 182.160386 
L 292.516675 182.623668 
L 292.983372 188.469328 
L 294.888712 233.978279 
L 295.219458 237.270425 
L 295.296565 236.888156 
L 295.722679 232.07702 
L 296.201551 222.97436 
L 296.388229 221.548491 
L 296.50186 221.423934 
L 296.611432 221.113298 
L 296.660131 221.27612 
L 296.787965 222.898797 
L 297.737592 236.097533 
L 297.822814 236.18122 
L 297.867455 236.138937 
L 297.972969 235.713011 
L 298.133269 234.088281 
L 298.612141 229.131605 
L 298.652723 229.099604 
L 298.703451 229.189376 
L 298.851576 229.890877 
L 299.109274 232.662152 
L 299.862076 242.466757 
L 300.064988 244.006806 
L 300.365297 246.221853 
L 300.493131 247.520945 
L 300.760975 249.844519 
L 300.870547 250.395112 
L 301.077517 252.130478 
L 301.146507 251.940475 
L 301.274341 251.470294 
L 301.325069 251.644723 
L 301.458991 252.334242 
L 301.515806 252.155785 
L 302.473549 245.995501 
L 303.108662 234.158456 
L 303.719426 222.340244 
L 303.835086 221.69089 
L 303.885814 221.786268 
L 304.033939 222.718522 
L 304.395122 224.44549 
L 304.427588 224.462441 
L 304.470199 224.367747 
L 304.567597 223.550553 
L 304.880081 218.136281 
L 305.965658 194.548812 
L 305.990007 194.525404 
L 306.036677 194.656793 
L 306.227414 196.242791 
L 306.39786 198.473354 
L 306.813829 209.879857 
L 307.550398 232.390051 
L 307.925784 238.581003 
L 308.146958 240.024189 
L 308.236239 239.553053 
L 308.420889 238.287288 
L 308.477704 238.350672 
L 308.526403 238.38164 
L 308.564956 238.290302 
L 308.682645 237.32672 
L 308.790188 236.689652 
L 308.840916 236.838954 
L 308.956575 237.281917 
L 309.009332 237.113994 
L 309.206157 235.588564 
L 309.3137 235.919098 
L 309.33602 235.933434 
L 309.374573 235.807054 
L 309.476029 234.501944 
L 309.672853 232.028483 
L 309.717494 232.087449 
L 309.762135 232.126384 
L 309.804746 232.021609 
L 309.920406 230.967529 
L 310.021861 230.237157 
L 310.07056 230.492399 
L 310.234919 233.468598 
L 310.555519 241.145372 
L 311.829804 292.203469 
L 311.95358 293.223646 
L 311.998221 293.071918 
L 312.105764 291.552855 
L 312.462888 282.432614 
L 312.907265 258.355589 
L 313.633688 216.189992 
L 314.071978 203.795558 
L 314.262714 202.832162 
L 314.293151 202.895877 
L 314.376345 203.795636 
L 314.676654 210.363905 
L 315.486272 227.405784 
L 315.614106 227.651499 
L 315.652659 227.595496 
L 315.78861 226.895367 
L 316.046308 224.214314 
L 316.444014 221.119191 
L 316.758527 219.564968 
L 317.14406 216.416555 
L 317.572203 209.327203 
L 318.15253 199.171059 
L 318.357471 196.244261 
L 318.61314 193.484241 
L 318.75112 191.324816 
L 319.205642 179.405655 
L 320.165414 140.706452 
L 320.536742 133.924888 
L 320.699071 133.975033 
L 320.857342 133.155781 
L 320.920245 133.470932 
L 321.234758 135.485871 
L 321.29969 135.674069 
L 321.498543 136.993607 
L 321.589853 136.685355 
L 321.717688 136.258018 
L 321.774503 136.326813 
L 321.841464 136.373603 
L 321.880017 136.292712 
L 322.001764 135.430729 
L 322.569916 131.188018 
L 322.829643 130.654156 
L 322.835731 130.656451 
L 322.912837 130.817448 
L 323.052846 131.816021 
L 323.793474 137.223104 
L 323.846231 137.226388 
L 323.876667 137.156449 
L 323.982181 136.364749 
L 324.406267 130.890619 
L 325.232117 113.084829 
L 325.771862 100.085525 
L 326.135074 95.937495 
L 326.195947 96.082548 
L 326.299432 96.343575 
L 326.354218 96.260734 
L 326.443499 96.128286 
L 326.486111 96.226614 
L 326.609887 97.320096 
L 326.816857 98.339562 
L 326.916284 98.918937 
L 327.656911 104.852955 
L 328.208831 106.837329 
L 328.549722 107.394812 
L 328.574072 107.383144 
L 328.856119 107.140795 
L 329.052943 105.065219 
L 329.477028 101.732979 
L 329.499349 101.736675 
L 329.531814 101.823101 
L 329.797629 102.461547 
L 329.860531 102.575714 
L 329.964016 103.457048 
L 330.221714 105.150025 
L 330.349548 106.548439 
L 330.550431 107.817627 
L 330.655945 107.920494 
L 330.797983 108.657217 
L 330.864944 108.324731 
L 331.220039 103.778988 
L 331.731376 91.80181 
L 331.938346 88.671274 
L 331.95255 88.677142 
L 332.04386 88.689479 
L 332.074297 88.62964 
L 332.161549 88.45609 
L 332.20619 88.58778 
L 332.293442 89.762211 
L 332.725643 101.709029 
L 333.224806 117.221729 
L 333.419601 119.013866 
L 333.510911 119.222565 
L 333.616425 119.624979 
L 333.669183 119.46073 
L 333.770638 118.111845 
L 334.702003 97.568793 
L 335.404077 77.258915 
L 335.943822 60.336316 
L 336.378053 53.599435 
L 336.438926 53.574068 
L 336.481538 53.641651 
L 336.597197 54.203741 
L 336.741265 56.305079 
L 337.047661 65.469061 
L 337.930327 95.512515 
L 338.257014 99.49259 
L 338.40514 100.015956 
L 338.437606 99.981635 
L 338.636459 99.372081 
L 338.831254 97.601831 
L 339.373028 92.606293 
L 339.423756 92.539371 
L 339.478542 92.635064 
L 339.57594 93.314188 
L 339.82755 97.472323 
L 340.342946 110.100222 
L 341.809997 145.438828 
L 342.1935 149.433706 
L 342.219878 149.394196 
L 342.325393 148.728592 
L 342.656138 145.140902 
L 343.542862 127.989758 
L 343.664609 127.023633 
L 343.713308 127.184883 
L 343.93854 129.307221 
L 344.094782 131.519286 
L 344.522925 144.633476 
L 345.574008 182.455256 
L 345.939249 186.776217 
L 346.008239 186.463996 
L 346.261878 185.299398 
L 346.363334 184.037181 
L 347.365717 165.190373 
L 347.444853 165.403244 
L 347.698492 166.744785 
L 347.905462 170.625965 
L 348.932195 187.596302 
L 349.070175 188.027224 
L 349.106699 187.959991 
L 349.212213 187.161667 
L 349.522668 182.828007 
L 349.916316 172.95819 
L 350.807099 150.313525 
L 350.995806 149.178351 
L 351.046534 149.331014 
L 351.164223 150.737995 
L 351.708026 156.695206 
L 351.97384 157.250897 
L 351.979928 157.247056 
L 352.030656 157.03681 
L 352.156461 155.284343 
L 352.864622 139.094897 
L 353.446979 127.224965 
L 353.64989 125.830568 
L 353.895414 125.298839 
L 353.944112 125.439624 
L 354.412838 128.458184 
L 354.725322 130.600764 
L 354.855186 131.250083 
L 355.127087 132.404502 
L 355.21231 132.663515 
L 355.360435 134.11284 
L 355.567405 135.024803 
L 355.676978 136.165708 
L 356.971554 156.436111 
L 357.018223 156.555742 
L 357.07301 156.38859 
L 357.221135 154.90212 
L 357.460571 150.943264 
L 358.276276 133.858483 
L 358.40411 132.870826 
L 358.444692 132.950337 
L 358.759205 134.646934 
L 359.077776 142.251816 
L 359.27663 148.700495 
L 360.419022 192.058091 
L 360.867457 201.454591 
L 361.115009 204.109314 
L 361.155592 204.034307 
L 361.500541 202.411376 
L 361.977384 195.885776 
L 362.265518 192.238728 
L 362.379149 191.133448 
L 362.578002 189.013782 
L 362.624672 189.15448 
L 362.754535 189.668648 
L 362.81135 189.555752 
L 362.892515 189.349165 
L 362.939185 189.504589 
L 363.107601 191.334204 
L 363.170504 191.565888 
L 363.227319 191.404213 
L 363.336892 190.966505 
L 363.395736 191.120292 
L 363.50125 191.387469 
L 363.54792 191.278589 
L 363.665608 190.21831 
L 363.793443 189.492629 
L 363.840112 189.522623 
L 363.900986 189.489263 
L 363.921277 189.440545 
L 364.018675 188.792452 
L 364.507692 182.774808 
L 365.280785 169.342635 
L 365.329484 169.211631 
L 365.38427 169.387801 
L 365.721103 171.988338 
L 366.070111 178.996407 
L 366.384624 188.290302 
L 367.49658 217.06535 
L 367.630502 217.747564 
L 367.675142 217.632418 
L 367.79486 216.434331 
L 368.097198 210.677824 
L 368.535487 193.556851 
L 369.294377 160.51474 
L 369.592657 154.94952 
L 369.619036 154.99028 
L 369.744841 155.715346 
L 369.959927 158.161197 
L 370.177042 165.071611 
L 370.722875 188.738599 
L 371.447269 216.992515 
L 371.662356 219.238732 
L 371.69888 219.269407 
L 371.747578 219.170154 
L 371.863238 218.310037 
L 372.023538 215.160715 
L 373.224775 188.084182 
L 373.293765 187.801092 
L 373.348551 187.992617 
L 373.709734 191.080591 
L 374.212955 202.531544 
L 374.793282 219.278456 
L 375.464919 229.685136 
L 375.542026 230.107611 
L 375.594783 229.90532 
L 375.765229 228.532827 
L 375.838277 228.924301 
L 375.982344 229.816419 
L 376.033072 229.70349 
L 376.138586 229.369473 
L 376.189314 229.539984 
L 376.315119 231.131004 
L 376.544409 232.821295 
L 376.684418 234.440491 
L 376.962407 237.29351 
L 377.120678 238.798017 
L 377.435191 241.897099 
L 377.591433 243.995305 
L 378.388876 260.151912 
L 378.739913 266.93688 
L 378.987465 269.007426 
L 379.050368 268.809002 
L 379.537356 265.423536 
L 380.460604 252.968954 
L 380.931359 249.976065 
L 381.030785 249.775709 
L 381.142387 249.557417 
L 381.193115 249.615122 
L 381.310803 250.119 
L 381.722714 253.510858 
L 381.986499 255.624227 
L 382.207673 256.898216 
L 382.250284 256.792797 
L 382.430876 255.395242 
L 382.607409 253.039467 
L 382.883369 245.527671 
L 383.835024 219.817946 
L 383.88981 219.720571 
L 383.944596 219.831519 
L 384.092722 220.840202 
L 384.250993 223.218565 
L 384.585797 234.168993 
L 385.411647 260.966955 
L 385.462375 260.953201 
L 385.539482 261.094379 
L 385.56586 261.111913 
L 385.606443 260.995132 
L 385.699782 259.856997 
L 385.912839 253.397136 
L 386.249672 239.176297 
L 386.927397 209.260954 
L 387.26626 202.737189 
L 387.422502 202.669218 
L 387.525987 202.767007 
L 387.613239 203.37115 
L 387.773539 206.563089 
L 388.219944 219.995639 
L 388.78201 236.50834 
L 389.404948 244.643074 
L 389.524666 245.404734 
L 389.573365 245.262046 
L 389.898024 244.102316 
L 389.993392 243.439898 
L 390.265294 241.771589 
L 390.401244 240.870872 
L 390.575748 239.76501 
L 390.622418 239.816904 
L 390.68735 239.863028 
L 390.734019 239.787616 
L 390.896349 239.381592 
L 390.953164 239.534534 
L 391.083027 240.031239 
L 391.137814 239.872645 
L 391.5132 237.238608 
L 391.979897 228.590117 
L 392.389778 219.515841 
L 392.647476 216.075364 
L 392.761107 215.387271 
L 392.968076 213.301585 
L 393.041125 213.59131 
L 393.203454 214.273852 
L 393.256211 214.22827 
L 393.294764 214.223657 
L 393.329259 214.311295 
L 393.41854 215.174989 
L 393.8548 223.354861 
L 394.431069 243.579971 
L 395.419249 282.409509 
L 395.634335 283.906634 
L 395.662743 283.92655 
L 395.701296 283.806908 
L 395.790577 282.57962 
L 395.987401 275.970877 
L 396.308002 257.492568 
L 397.687801 163.505756 
L 398.083479 151.326444 
L 398.284361 149.560714 
L 398.290448 149.561954 
L 398.353351 149.710631 
L 398.487273 150.63854 
L 398.487273 150.63854 
" style="fill:none;stroke:#000000;stroke-linecap:square;stroke-width:1.5;"/>
   </g>
   <g id="line2d_38">
    <path clip-path="url(#p0401a6a358)" d="M 73.832727 174.481115 
L 76.005911 126.927257 
L 77.142216 106.839372 
L 78.061406 94.257473 
L 78.844644 86.359988 
L 79.524398 81.577907 
L 80.112842 78.876488 
L 80.614034 77.509133 
L 81.034061 76.933035 
L 81.385098 76.788419 
L 81.72396 76.889514 
L 82.143988 77.271379 
L 82.770984 78.182091 
L 84.233977 80.374985 
L 84.725023 80.702064 
L 85.108526 80.707756 
L 85.471738 80.480268 
L 85.873503 79.943117 
L 86.352375 78.895829 
L 86.930673 77.047842 
L 87.653038 73.928159 
L 88.661509 68.47564 
L 90.692654 57.346158 
L 91.36835 54.901147 
L 91.853309 53.87242 
L 92.198259 53.579485 
L 92.455956 53.621989 
L 92.7238 53.917325 
L 93.056575 54.65727 
L 93.470515 56.176941 
L 93.975765 58.955952 
L 94.584499 63.65528 
L 95.314981 71.159414 
L 96.219967 82.934107 
L 97.469903 102.414453 
L 100.310666 147.509853 
L 101.272467 158.878518 
L 102.039473 165.530228 
L 102.670528 169.248595 
L 103.183894 171.096078 
L 103.587688 171.831604 
L 103.887998 171.990015 
L 104.145695 171.87706 
L 104.450063 171.467402 
L 104.853857 170.505149 
L 105.39766 168.568928 
L 106.176841 164.869791 
L 108.638159 152.593302 
L 109.238777 150.888226 
L 109.683154 150.206982 
L 110.009841 150.053374 
L 110.285801 150.16357 
L 110.596256 150.555812 
L 110.985846 151.451711 
L 111.470805 153.182837 
L 112.075482 156.24041 
L 112.846546 161.388087 
L 113.946327 170.408857 
L 116.273723 189.778118 
L 117.101603 194.70685 
L 117.740774 197.304333 
L 118.241966 198.520968 
L 118.625469 198.950269 
L 118.919691 198.98687 
L 119.205796 198.784946 
L 119.556833 198.231012 
L 120.009326 197.056148 
L 120.603857 194.831612 
L 121.454057 190.680397 
L 123.62927 179.695989 
L 124.229888 177.884411 
L 124.658032 177.19906 
L 124.96037 177.06681 
L 125.21198 177.197529 
L 125.502144 177.635052 
L 125.865356 178.635171 
L 126.313791 180.589111 
L 126.857594 184.044691 
L 127.50894 189.728501 
L 128.298266 198.713853 
L 129.304708 212.925079 
L 130.950321 239.878421 
L 132.733914 267.930025 
L 133.746443 280.52649 
L 134.547944 287.94887 
L 135.205378 292.159996 
L 135.743094 294.321963 
L 136.169208 295.237157 
L 136.489809 295.482537 
L 136.745477 295.420298 
L 137.033612 295.092458 
L 137.411027 294.282722 
L 137.912219 292.623202 
L 138.596031 289.511374 
L 139.722191 283.173929 
L 141.317076 274.441565 
L 142.126694 271.194499 
L 142.761807 269.476636 
L 143.277203 268.655056 
L 143.699259 268.354074 
L 144.072616 268.345458 
L 144.472352 268.571946 
L 144.977602 269.138236 
L 145.815627 270.473106 
L 146.789603 271.904946 
L 147.260358 272.240101 
L 147.605308 272.234509 
L 147.919821 271.997452 
L 148.270858 271.426762 
L 148.680739 270.292697 
L 149.157582 268.25715 
L 149.705443 264.8628 
L 150.334469 259.459138 
L 151.054805 251.208423 
L 151.89283 238.875396 
L 152.90333 220.487574 
L 154.270955 191.136124 
L 157.460725 121.371233 
L 158.532099 103.432923 
L 159.416793 92.093241 
L 160.175683 85.01586 
L 160.833117 80.798767 
L 161.401269 78.463787 
L 161.88217 77.322362 
L 162.283935 76.871896 
L 162.624826 76.792113 
L 162.975863 76.948012 
L 163.428356 77.420523 
L 164.171013 78.576046 
L 165.30326 80.27609 
L 165.820684 80.67638 
L 166.212304 80.723073 
L 166.573487 80.536796 
L 166.969164 80.05732 
L 167.435861 79.104627 
L 167.993868 77.416572 
L 168.687826 74.548016 
L 169.629336 69.6069 
L 172.005431 56.723294 
L 172.638515 54.620357 
L 173.093037 53.775945 
L 173.417696 53.569265 
L 173.669306 53.656298 
L 173.949324 54.021335 
L 174.298332 54.889387 
L 174.730534 56.623263 
L 175.256075 59.735953 
L 175.88713 64.921385 
L 176.648049 73.157883 
L 177.601733 86.099163 
L 178.999795 108.497462 
L 181.278492 144.822495 
L 182.284934 157.292291 
L 183.080347 164.612962 
L 183.733723 168.759173 
L 184.26738 170.873091 
L 184.689437 171.757211 
L 185.005979 171.98633 
L 185.261647 171.915356 
L 185.55384 171.572163 
L 185.937343 170.734131 
L 186.45071 169.018477 
L 187.169017 165.756817 
L 190.038187 151.825684 
L 190.577932 150.558003 
L 190.977668 150.109645 
L 191.275948 150.068012 
L 191.555966 150.264866 
L 191.892799 150.808938 
L 192.314856 151.963095 
L 192.840397 154.111882 
L 193.49783 157.819222 
L 194.354117 164.037671 
L 195.786674 176.380038 
L 197.316627 188.924998 
L 198.176972 194.255596 
L 198.836435 197.079348 
L 199.351831 198.424072 
L 199.747508 198.924026 
L 200.049847 198.995541 
L 200.331894 198.825507 
L 200.672786 198.327285 
L 201.113104 197.242415 
L 201.689373 195.166519 
L 202.492903 191.344427 
L 204.923784 179.230051 
L 205.487878 177.688253 
L 205.889643 177.143531 
L 206.17372 177.07461 
L 206.427359 177.251491 
L 206.727668 177.767083 
L 207.105084 178.906345 
L 207.571781 181.097452 
L 208.135875 184.916712 
L 208.811571 191.140496 
L 209.635392 200.952359 
L 210.704736 216.588614 
L 214.767027 278.939942 
L 215.596936 287.030165 
L 216.274661 291.656439 
L 216.830638 294.081954 
L 217.272986 295.148336 
L 217.609819 295.470355 
L 217.871575 295.44381 
L 218.151593 295.163323 
L 218.510747 294.450868 
L 218.989618 292.955075 
L 219.640964 290.113065 
L 220.643348 284.604989 
L 222.536513 274.188385 
L 223.333956 271.055263 
L 223.962982 269.4015 
L 224.47229 268.622406 
L 224.890288 268.345833 
L 225.263646 268.353295 
L 225.669469 268.599802 
L 226.192981 269.208633 
L 227.097967 270.671638 
L 227.976574 271.928155 
L 228.439213 272.244528 
L 228.782133 272.229706 
L 229.098675 271.980916 
L 229.451742 271.39182 
L 229.865681 270.222337 
L 230.344553 268.141573 
L 230.896472 264.669182 
L 231.527528 259.175699 
L 232.251922 250.784485 
L 233.096034 238.240534 
L 234.11668 219.51752 
L 235.512712 189.385684 
L 238.564503 122.514428 
L 239.648051 104.152024 
L 240.538833 92.563185 
L 241.30381 85.30104 
L 241.965302 80.967454 
L 242.537512 78.553974 
L 243.0245 77.360053 
L 243.428294 76.884866 
L 243.771215 76.79017 
L 244.118194 76.931898 
L 244.5646 77.383794 
L 245.280878 78.483422 
L 246.476027 80.284908 
L 246.991423 80.678937 
L 247.385071 80.721395 
L 247.746254 80.529903 
L 248.137873 80.050848 
L 248.602541 79.099558 
L 249.164606 77.394958 
L 249.862622 74.500425 
L 250.80819 69.52599 
L 253.157907 56.772792 
L 253.79505 54.640872 
L 254.251601 53.783104 
L 254.576259 53.569888 
L 254.829899 53.653118 
L 255.107888 54.010317 
L 255.456896 54.870229 
L 255.889098 56.593702 
L 256.414639 59.693595 
L 257.045694 64.864032 
L 257.804583 73.059456 
L 258.756239 85.948809 
L 260.146183 108.191567 
L 262.44923 144.907292 
L 263.455672 157.357408 
L 264.251086 164.659536 
L 264.904461 168.789724 
L 265.43609 170.88486 
L 265.858146 171.762454 
L 266.172659 171.986651 
L 266.428327 171.913908 
L 266.72052 171.568845 
L 267.104023 170.728603 
L 267.619419 169.002555 
L 268.343813 165.705468 
L 271.184576 151.880847 
L 271.728379 150.581908 
L 272.130144 150.116749 
L 272.432482 150.065739 
L 272.712501 150.255911 
L 273.045276 150.783428 
L 273.461244 151.902433 
L 273.980698 153.995589 
L 274.632045 157.624852 
L 275.478186 163.71468 
L 276.851898 175.49974 
L 278.465045 188.809091 
L 279.329449 194.192478 
L 279.990941 197.045121 
L 280.510394 198.41277 
L 280.91013 198.922651 
L 281.212469 198.995944 
L 281.494516 198.827524 
L 281.835407 198.331154 
L 282.273696 197.254524 
L 282.847936 195.191809 
L 283.645379 191.407995 
L 286.098581 179.195238 
L 286.658617 177.676328 
L 287.058353 177.140635 
L 287.342429 177.075637 
L 287.596068 177.256212 
L 287.900436 177.785764 
L 288.279881 178.944724 
L 288.746577 181.154851 
L 289.310672 184.9971 
L 289.988396 191.268484 
L 290.814247 201.140771 
L 291.887649 216.877084 
L 295.9053 278.641581 
L 296.739266 286.84685 
L 297.421049 291.555876 
L 297.981085 294.035225 
L 298.427491 295.132203 
L 298.766353 295.467394 
L 299.028109 295.448127 
L 299.306098 295.177842 
L 299.665252 294.476093 
L 300.142094 293.000017 
L 300.787353 290.202985 
L 301.78162 284.759184 
L 303.713339 274.132709 
L 304.506723 271.029112 
L 305.131691 269.393305 
L 305.63897 268.62028 
L 306.058997 268.344669 
L 306.430326 268.353945 
L 306.83412 268.599802 
L 307.357632 269.208633 
L 308.278851 270.698843 
L 309.147312 271.934379 
L 309.609951 272.246306 
L 309.948813 272.228872 
L 310.265355 271.978505 
L 310.620451 271.382947 
L 311.032361 270.215214 
L 311.513262 268.120344 
L 312.065182 264.639126 
L 312.696237 259.134891 
L 313.42266 250.704454 
L 314.266773 238.139714 
L 315.289447 219.355113 
L 316.689538 189.108671 
L 319.719008 122.706076 
L 320.806614 104.242531 
L 321.699426 92.608311 
L 322.464402 85.333049 
L 323.125894 80.988802 
L 323.698105 78.567063 
L 324.185093 77.367047 
L 324.590916 76.886214 
L 324.933837 76.789996 
L 325.280816 76.930477 
L 325.725192 77.378624 
L 326.427267 78.452632 
L 327.648795 80.293644 
L 328.162161 80.68143 
L 328.551751 80.720955 
L 328.910905 80.529903 
L 329.306583 80.04434 
L 329.77125 79.089392 
L 330.335344 77.373271 
L 331.03336 74.47179 
L 331.978929 69.491268 
L 334.316471 56.797651 
L 334.955642 54.651184 
L 335.414222 53.785506 
L 335.74091 53.569888 
L 335.99455 53.653127 
L 336.272539 54.010326 
L 336.619518 54.863886 
L 337.051719 56.583903 
L 337.575231 59.665446 
L 338.204257 64.806826 
L 338.963147 72.985787 
L 339.910744 85.798703 
L 341.290543 107.851829 
L 343.621998 145.020174 
L 344.62641 157.422388 
L 345.419795 164.690509 
L 346.071141 168.799889 
L 346.60277 170.890727 
L 347.022797 171.762463 
L 347.339339 171.986954 
L 347.597037 171.910984 
L 347.891258 171.558826 
L 348.276791 170.706421 
L 348.794215 168.962608 
L 349.520639 165.643706 
L 352.330965 151.936761 
L 352.878826 150.606336 
L 353.28465 150.122991 
L 353.586988 150.063172 
L 353.864977 150.24284 
L 354.193694 150.750081 
L 354.607633 151.842724 
L 355.125058 153.899894 
L 355.772346 157.470859 
L 356.610371 163.458007 
L 357.939442 174.816113 
L 359.625638 188.780052 
L 360.490041 194.171368 
L 361.153562 197.038246 
L 361.673016 198.408975 
L 362.072752 198.921258 
L 362.37712 198.995944 
L 362.659167 198.827524 
L 363.000058 198.331144 
L 363.438347 197.254505 
L 364.010558 195.200223 
L 364.81003 191.407976 
L 367.263232 179.195229 
L 367.821238 177.680288 
L 368.220974 177.142065 
L 368.505051 177.075114 
L 368.75869 177.253847 
L 369.061029 177.776405 
L 369.440473 178.929343 
L 369.90717 181.131871 
L 370.471264 184.964936 
L 371.14696 191.204486 
L 371.970781 201.033113 
L 373.042155 216.716849 
L 377.086183 278.825548 
L 377.916092 286.947137 
L 378.597875 291.623101 
L 379.155882 294.068709 
L 379.600258 295.145155 
L 379.937092 295.46964 
L 380.198848 295.4449 
L 380.476837 295.169162 
L 380.838019 294.455918 
L 381.316891 292.962564 
L 381.966208 290.133056 
L 382.966562 284.640554 
L 384.865815 274.188348 
L 385.663258 271.055236 
L 386.292284 269.401482 
L 386.801592 268.622397 
L 387.21959 268.345824 
L 387.594977 268.353945 
L 387.998771 268.599811 
L 388.516195 269.20009 
L 389.411036 270.644396 
L 390.299789 271.921895 
L 390.764456 272.2433 
L 391.105348 272.232144 
L 391.419861 271.990421 
L 391.772927 271.409364 
L 392.182808 270.264685 
L 392.659651 268.215288 
L 393.209541 264.78859 
L 393.838567 259.358199 
L 394.558904 251.076283 
L 395.398958 238.675362 
L 396.413516 220.164785 
L 397.791286 190.537761 
L 398.487273 174.574354 
L 398.487273 174.574354 
" style="fill:none;stroke:#d3d3d3;stroke-linecap:square;stroke-width:1.5;"/>
   </g>
   <g id="patch_3">
    <path d="M 57.6 307.584 
L 57.6 41.472 
" style="fill:none;stroke:#000000;stroke-linecap:square;stroke-linejoin:miter;stroke-width:0.8;"/>
   </g>
   <g id="patch_4">
    <path d="M 414.72 307.584 
L 414.72 41.472 
" style="fill:none;stroke:#000000;stroke-linecap:square;stroke-linejoin:miter;stroke-width:0.8;"/>
   </g>
   <g id="patch_5">
    <path d="M 57.6 307.584 
L 414.72 307.584 
" style="fill:none;stroke:#000000;stroke-linecap:square;stroke-linejoin:miter;stroke-width:0.8;"/>
   </g>
   <g id="patch_6">
    <path d="M 57.6 41.472 
L 414.72 41.472 
" style="fill:none;stroke:#000000;stroke-linecap:square;stroke-linejoin:miter;stroke-width:0.8;"/>
   </g>
   <g id="legend_1">
    <g id="patch_7">
     <path d="M 64.6 302.584 
L 135.892188 302.584 
Q 137.892188 302.584 137.892188 300.584 
L 137.892188 272.22775 
Q 137.892188 270.22775 135.892188 270.22775 
L 64.6 270.22775 
Q 62.6 270.22775 62.6 272.22775 
L 62.6 300.584 
Q 62.6 302.584 64.6 302.584 
z
" style="fill:#ffffff;opacity:0.8;stroke:#cccccc;stroke-linejoin:miter;"/>
    </g>
    <g id="line2d_39">
     <path d="M 66.6 278.326187 
L 86.6 278.326187 
" style="fill:none;stroke:#000000;stroke-linecap:square;stroke-width:1.5;"/>
    </g>
    <g id="line2d_40"/>
    <g id="text_21">
     <!-- MN -->
     <defs>
      <path d="M 9.8125 72.90625 
L 24.515625 72.90625 
L 43.109375 23.296875 
L 61.8125 72.90625 
L 76.515625 72.90625 
L 76.515625 0 
L 66.890625 0 
L 66.890625 64.015625 
L 48.09375 14.015625 
L 38.1875 14.015625 
L 19.390625 64.015625 
L 19.390625 0 
L 9.8125 0 
z
" id="DejaVuSans-77"/>
      <path d="M 9.8125 72.90625 
L 23.09375 72.90625 
L 55.421875 11.921875 
L 55.421875 72.90625 
L 64.984375 72.90625 
L 64.984375 0 
L 51.703125 0 
L 19.390625 60.984375 
L 19.390625 0 
L 9.8125 0 
z
" id="DejaVuSans-78"/>
     </defs>
     <g transform="translate(94.6 281.826187)scale(0.1 -0.1)">
      <use xlink:href="#DejaVuSans-77"/>
      <use x="86.279297" xlink:href="#DejaVuSans-78"/>
     </g>
    </g>
    <g id="line2d_41">
     <path d="M 66.6 293.004312 
L 86.6 293.004312 
" style="fill:none;stroke:#d3d3d3;stroke-linecap:square;stroke-width:1.5;"/>
    </g>
    <g id="line2d_42"/>
    <g id="text_22">
     <!-- Entrada -->
     <defs>
      <path d="M 9.8125 72.90625 
L 55.90625 72.90625 
L 55.90625 64.59375 
L 19.671875 64.59375 
L 19.671875 43.015625 
L 54.390625 43.015625 
L 54.390625 34.71875 
L 19.671875 34.71875 
L 19.671875 8.296875 
L 56.78125 8.296875 
L 56.78125 0 
L 9.8125 0 
z
" id="DejaVuSans-69"/>
      <path d="M 18.3125 70.21875 
L 18.3125 54.6875 
L 36.8125 54.6875 
L 36.8125 47.703125 
L 18.3125 47.703125 
L 18.3125 18.015625 
Q 18.3125 11.328125 20.140625 9.421875 
Q 21.96875 7.515625 27.59375 7.515625 
L 36.8125 7.515625 
L 36.8125 0 
L 27.59375 0 
Q 17.1875 0 13.234375 3.875 
Q 9.28125 7.765625 9.28125 18.015625 
L 9.28125 47.703125 
L 2.6875 47.703125 
L 2.6875 54.6875 
L 9.28125 54.6875 
L 9.28125 70.21875 
z
" id="DejaVuSans-116"/>
     </defs>
     <g transform="translate(94.6 296.504312)scale(0.1 -0.1)">
      <use xlink:href="#DejaVuSans-69"/>
      <use x="63.183594" xlink:href="#DejaVuSans-110"/>
      <use x="126.5625" xlink:href="#DejaVuSans-116"/>
      <use x="165.771484" xlink:href="#DejaVuSans-114"/>
      <use x="206.884766" xlink:href="#DejaVuSans-97"/>
      <use x="268.164062" xlink:href="#DejaVuSans-100"/>
      <use x="331.640625" xlink:href="#DejaVuSans-97"/>
     </g>
    </g>
   </g>
  </g>
 </g>
 <defs>
  <clipPath id="p0401a6a358">
   <rect height="266.112" width="357.12" x="57.6" y="41.472"/>
  </clipPath>
 </defs>
</svg>
