<?xml version="1.0" encoding="utf-8" standalone="no"?>
<!DOCTYPE svg PUBLIC "-//W3C//DTD SVG 1.1//EN"
  "http://www.w3.org/Graphics/SVG/1.1/DTD/svg11.dtd">
<!-- Created with matplotlib (https://matplotlib.org/) -->
<svg height="345.6pt" version="1.1" viewBox="0 0 460.8 345.6" width="460.8pt" xmlns="http://www.w3.org/2000/svg" xmlns:xlink="http://www.w3.org/1999/xlink">
 <defs>
  <style type="text/css">
*{stroke-linecap:butt;stroke-linejoin:round;}
  </style>
 </defs>
 <g id="figure_1">
  <g id="patch_1">
   <path d="M 0 345.6 
L 460.8 345.6 
L 460.8 0 
L 0 0 
z
" style="fill:#ffffff;"/>
  </g>
  <g id="axes_1">
   <g id="patch_2">
    <path d="M 57.6 307.584 
L 414.72 307.584 
L 414.72 41.472 
L 57.6 41.472 
z
" style="fill:#ffffff;"/>
   </g>
   <g id="matplotlib.axis_1">
    <g id="xtick_1">
     <g id="line2d_1">
      <path clip-path="url(#p27d9d21408)" d="M 57.6 307.584 
L 57.6 41.472 
" style="fill:none;stroke:#b0b0b0;stroke-linecap:square;stroke-width:0.8;"/>
     </g>
     <g id="line2d_2">
      <defs>
       <path d="M 0 0 
L 0 3.5 
" id="m289496d307" style="stroke:#000000;stroke-width:0.8;"/>
      </defs>
      <g>
       <use style="stroke:#000000;stroke-width:0.8;" x="57.6" xlink:href="#m289496d307" y="307.584"/>
      </g>
     </g>
     <g id="text_1">
      <!-- 0 -->
      <defs>
       <path d="M 31.78125 66.40625 
Q 24.171875 66.40625 20.328125 58.90625 
Q 16.5 51.421875 16.5 36.375 
Q 16.5 21.390625 20.328125 13.890625 
Q 24.171875 6.390625 31.78125 6.390625 
Q 39.453125 6.390625 43.28125 13.890625 
Q 47.125 21.390625 47.125 36.375 
Q 47.125 51.421875 43.28125 58.90625 
Q 39.453125 66.40625 31.78125 66.40625 
z
M 31.78125 74.21875 
Q 44.046875 74.21875 50.515625 64.515625 
Q 56.984375 54.828125 56.984375 36.375 
Q 56.984375 17.96875 50.515625 8.265625 
Q 44.046875 -1.421875 31.78125 -1.421875 
Q 19.53125 -1.421875 13.0625 8.265625 
Q 6.59375 17.96875 6.59375 36.375 
Q 6.59375 54.828125 13.0625 64.515625 
Q 19.53125 74.21875 31.78125 74.21875 
z
" id="DejaVuSans-48"/>
      </defs>
      <g transform="translate(54.41875 322.182437)scale(0.1 -0.1)">
       <use xlink:href="#DejaVuSans-48"/>
      </g>
     </g>
    </g>
    <g id="xtick_2">
     <g id="line2d_3">
      <path clip-path="url(#p27d9d21408)" d="M 108.617143 307.584 
L 108.617143 41.472 
" style="fill:none;stroke:#b0b0b0;stroke-linecap:square;stroke-width:0.8;"/>
     </g>
     <g id="line2d_4">
      <g>
       <use style="stroke:#000000;stroke-width:0.8;" x="108.617143" xlink:href="#m289496d307" y="307.584"/>
      </g>
     </g>
     <g id="text_2">
      <!-- 1 -->
      <defs>
       <path d="M 12.40625 8.296875 
L 28.515625 8.296875 
L 28.515625 63.921875 
L 10.984375 60.40625 
L 10.984375 69.390625 
L 28.421875 72.90625 
L 38.28125 72.90625 
L 38.28125 8.296875 
L 54.390625 8.296875 
L 54.390625 0 
L 12.40625 0 
z
" id="DejaVuSans-49"/>
      </defs>
      <g transform="translate(105.435893 322.182437)scale(0.1 -0.1)">
       <use xlink:href="#DejaVuSans-49"/>
      </g>
     </g>
    </g>
    <g id="xtick_3">
     <g id="line2d_5">
      <path clip-path="url(#p27d9d21408)" d="M 159.634286 307.584 
L 159.634286 41.472 
" style="fill:none;stroke:#b0b0b0;stroke-linecap:square;stroke-width:0.8;"/>
     </g>
     <g id="line2d_6">
      <g>
       <use style="stroke:#000000;stroke-width:0.8;" x="159.634286" xlink:href="#m289496d307" y="307.584"/>
      </g>
     </g>
     <g id="text_3">
      <!-- 2 -->
      <defs>
       <path d="M 19.1875 8.296875 
L 53.609375 8.296875 
L 53.609375 0 
L 7.328125 0 
L 7.328125 8.296875 
Q 12.9375 14.109375 22.625 23.890625 
Q 32.328125 33.6875 34.8125 36.53125 
Q 39.546875 41.84375 41.421875 45.53125 
Q 43.3125 49.21875 43.3125 52.78125 
Q 43.3125 58.59375 39.234375 62.25 
Q 35.15625 65.921875 28.609375 65.921875 
Q 23.96875 65.921875 18.8125 64.3125 
Q 13.671875 62.703125 7.8125 59.421875 
L 7.8125 69.390625 
Q 13.765625 71.78125 18.9375 73 
Q 24.125 74.21875 28.421875 74.21875 
Q 39.75 74.21875 46.484375 68.546875 
Q 53.21875 62.890625 53.21875 53.421875 
Q 53.21875 48.921875 51.53125 44.890625 
Q 49.859375 40.875 45.40625 35.40625 
Q 44.1875 33.984375 37.640625 27.21875 
Q 31.109375 20.453125 19.1875 8.296875 
z
" id="DejaVuSans-50"/>
      </defs>
      <g transform="translate(156.453036 322.182437)scale(0.1 -0.1)">
       <use xlink:href="#DejaVuSans-50"/>
      </g>
     </g>
    </g>
    <g id="xtick_4">
     <g id="line2d_7">
      <path clip-path="url(#p27d9d21408)" d="M 210.651429 307.584 
L 210.651429 41.472 
" style="fill:none;stroke:#b0b0b0;stroke-linecap:square;stroke-width:0.8;"/>
     </g>
     <g id="line2d_8">
      <g>
       <use style="stroke:#000000;stroke-width:0.8;" x="210.651429" xlink:href="#m289496d307" y="307.584"/>
      </g>
     </g>
     <g id="text_4">
      <!-- 3 -->
      <defs>
       <path d="M 40.578125 39.3125 
Q 47.65625 37.796875 51.625 33 
Q 55.609375 28.21875 55.609375 21.1875 
Q 55.609375 10.40625 48.1875 4.484375 
Q 40.765625 -1.421875 27.09375 -1.421875 
Q 22.515625 -1.421875 17.65625 -0.515625 
Q 12.796875 0.390625 7.625 2.203125 
L 7.625 11.71875 
Q 11.71875 9.328125 16.59375 8.109375 
Q 21.484375 6.890625 26.8125 6.890625 
Q 36.078125 6.890625 40.9375 10.546875 
Q 45.796875 14.203125 45.796875 21.1875 
Q 45.796875 27.640625 41.28125 31.265625 
Q 36.765625 34.90625 28.71875 34.90625 
L 20.21875 34.90625 
L 20.21875 43.015625 
L 29.109375 43.015625 
Q 36.375 43.015625 40.234375 45.921875 
Q 44.09375 48.828125 44.09375 54.296875 
Q 44.09375 59.90625 40.109375 62.90625 
Q 36.140625 65.921875 28.71875 65.921875 
Q 24.65625 65.921875 20.015625 65.03125 
Q 15.375 64.15625 9.8125 62.3125 
L 9.8125 71.09375 
Q 15.4375 72.65625 20.34375 73.4375 
Q 25.25 74.21875 29.59375 74.21875 
Q 40.828125 74.21875 47.359375 69.109375 
Q 53.90625 64.015625 53.90625 55.328125 
Q 53.90625 49.265625 50.4375 45.09375 
Q 46.96875 40.921875 40.578125 39.3125 
z
" id="DejaVuSans-51"/>
      </defs>
      <g transform="translate(207.470179 322.182437)scale(0.1 -0.1)">
       <use xlink:href="#DejaVuSans-51"/>
      </g>
     </g>
    </g>
    <g id="xtick_5">
     <g id="line2d_9">
      <path clip-path="url(#p27d9d21408)" d="M 261.668571 307.584 
L 261.668571 41.472 
" style="fill:none;stroke:#b0b0b0;stroke-linecap:square;stroke-width:0.8;"/>
     </g>
     <g id="line2d_10">
      <g>
       <use style="stroke:#000000;stroke-width:0.8;" x="261.668571" xlink:href="#m289496d307" y="307.584"/>
      </g>
     </g>
     <g id="text_5">
      <!-- 4 -->
      <defs>
       <path d="M 37.796875 64.3125 
L 12.890625 25.390625 
L 37.796875 25.390625 
z
M 35.203125 72.90625 
L 47.609375 72.90625 
L 47.609375 25.390625 
L 58.015625 25.390625 
L 58.015625 17.1875 
L 47.609375 17.1875 
L 47.609375 0 
L 37.796875 0 
L 37.796875 17.1875 
L 4.890625 17.1875 
L 4.890625 26.703125 
z
" id="DejaVuSans-52"/>
      </defs>
      <g transform="translate(258.487321 322.182437)scale(0.1 -0.1)">
       <use xlink:href="#DejaVuSans-52"/>
      </g>
     </g>
    </g>
    <g id="xtick_6">
     <g id="line2d_11">
      <path clip-path="url(#p27d9d21408)" d="M 312.685714 307.584 
L 312.685714 41.472 
" style="fill:none;stroke:#b0b0b0;stroke-linecap:square;stroke-width:0.8;"/>
     </g>
     <g id="line2d_12">
      <g>
       <use style="stroke:#000000;stroke-width:0.8;" x="312.685714" xlink:href="#m289496d307" y="307.584"/>
      </g>
     </g>
     <g id="text_6">
      <!-- 5 -->
      <defs>
       <path d="M 10.796875 72.90625 
L 49.515625 72.90625 
L 49.515625 64.59375 
L 19.828125 64.59375 
L 19.828125 46.734375 
Q 21.96875 47.46875 24.109375 47.828125 
Q 26.265625 48.1875 28.421875 48.1875 
Q 40.625 48.1875 47.75 41.5 
Q 54.890625 34.8125 54.890625 23.390625 
Q 54.890625 11.625 47.5625 5.09375 
Q 40.234375 -1.421875 26.90625 -1.421875 
Q 22.3125 -1.421875 17.546875 -0.640625 
Q 12.796875 0.140625 7.71875 1.703125 
L 7.71875 11.625 
Q 12.109375 9.234375 16.796875 8.0625 
Q 21.484375 6.890625 26.703125 6.890625 
Q 35.15625 6.890625 40.078125 11.328125 
Q 45.015625 15.765625 45.015625 23.390625 
Q 45.015625 31 40.078125 35.4375 
Q 35.15625 39.890625 26.703125 39.890625 
Q 22.75 39.890625 18.8125 39.015625 
Q 14.890625 38.140625 10.796875 36.28125 
z
" id="DejaVuSans-53"/>
      </defs>
      <g transform="translate(309.504464 322.182437)scale(0.1 -0.1)">
       <use xlink:href="#DejaVuSans-53"/>
      </g>
     </g>
    </g>
    <g id="xtick_7">
     <g id="line2d_13">
      <path clip-path="url(#p27d9d21408)" d="M 363.702857 307.584 
L 363.702857 41.472 
" style="fill:none;stroke:#b0b0b0;stroke-linecap:square;stroke-width:0.8;"/>
     </g>
     <g id="line2d_14">
      <g>
       <use style="stroke:#000000;stroke-width:0.8;" x="363.702857" xlink:href="#m289496d307" y="307.584"/>
      </g>
     </g>
     <g id="text_7">
      <!-- 6 -->
      <defs>
       <path d="M 33.015625 40.375 
Q 26.375 40.375 22.484375 35.828125 
Q 18.609375 31.296875 18.609375 23.390625 
Q 18.609375 15.53125 22.484375 10.953125 
Q 26.375 6.390625 33.015625 6.390625 
Q 39.65625 6.390625 43.53125 10.953125 
Q 47.40625 15.53125 47.40625 23.390625 
Q 47.40625 31.296875 43.53125 35.828125 
Q 39.65625 40.375 33.015625 40.375 
z
M 52.59375 71.296875 
L 52.59375 62.3125 
Q 48.875 64.0625 45.09375 64.984375 
Q 41.3125 65.921875 37.59375 65.921875 
Q 27.828125 65.921875 22.671875 59.328125 
Q 17.53125 52.734375 16.796875 39.40625 
Q 19.671875 43.65625 24.015625 45.921875 
Q 28.375 48.1875 33.59375 48.1875 
Q 44.578125 48.1875 50.953125 41.515625 
Q 57.328125 34.859375 57.328125 23.390625 
Q 57.328125 12.15625 50.6875 5.359375 
Q 44.046875 -1.421875 33.015625 -1.421875 
Q 20.359375 -1.421875 13.671875 8.265625 
Q 6.984375 17.96875 6.984375 36.375 
Q 6.984375 53.65625 15.1875 63.9375 
Q 23.390625 74.21875 37.203125 74.21875 
Q 40.921875 74.21875 44.703125 73.484375 
Q 48.484375 72.75 52.59375 71.296875 
z
" id="DejaVuSans-54"/>
      </defs>
      <g transform="translate(360.521607 322.182437)scale(0.1 -0.1)">
       <use xlink:href="#DejaVuSans-54"/>
      </g>
     </g>
    </g>
    <g id="xtick_8">
     <g id="line2d_15">
      <path clip-path="url(#p27d9d21408)" d="M 414.72 307.584 
L 414.72 41.472 
" style="fill:none;stroke:#b0b0b0;stroke-linecap:square;stroke-width:0.8;"/>
     </g>
     <g id="line2d_16">
      <g>
       <use style="stroke:#000000;stroke-width:0.8;" x="414.72" xlink:href="#m289496d307" y="307.584"/>
      </g>
     </g>
     <g id="text_8">
      <!-- 7 -->
      <defs>
       <path d="M 8.203125 72.90625 
L 55.078125 72.90625 
L 55.078125 68.703125 
L 28.609375 0 
L 18.3125 0 
L 43.21875 64.59375 
L 8.203125 64.59375 
z
" id="DejaVuSans-55"/>
      </defs>
      <g transform="translate(411.53875 322.182437)scale(0.1 -0.1)">
       <use xlink:href="#DejaVuSans-55"/>
      </g>
     </g>
    </g>
    <g id="text_9">
     <!-- Frequência (Hz) -->
     <defs>
      <path d="M 9.8125 72.90625 
L 51.703125 72.90625 
L 51.703125 64.59375 
L 19.671875 64.59375 
L 19.671875 43.109375 
L 48.578125 43.109375 
L 48.578125 34.8125 
L 19.671875 34.8125 
L 19.671875 0 
L 9.8125 0 
z
" id="DejaVuSans-70"/>
      <path d="M 41.109375 46.296875 
Q 39.59375 47.171875 37.8125 47.578125 
Q 36.03125 48 33.890625 48 
Q 26.265625 48 22.1875 43.046875 
Q 18.109375 38.09375 18.109375 28.8125 
L 18.109375 0 
L 9.078125 0 
L 9.078125 54.6875 
L 18.109375 54.6875 
L 18.109375 46.1875 
Q 20.953125 51.171875 25.484375 53.578125 
Q 30.03125 56 36.53125 56 
Q 37.453125 56 38.578125 55.875 
Q 39.703125 55.765625 41.0625 55.515625 
z
" id="DejaVuSans-114"/>
      <path d="M 56.203125 29.59375 
L 56.203125 25.203125 
L 14.890625 25.203125 
Q 15.484375 15.921875 20.484375 11.0625 
Q 25.484375 6.203125 34.421875 6.203125 
Q 39.59375 6.203125 44.453125 7.46875 
Q 49.3125 8.734375 54.109375 11.28125 
L 54.109375 2.78125 
Q 49.265625 0.734375 44.1875 -0.34375 
Q 39.109375 -1.421875 33.890625 -1.421875 
Q 20.796875 -1.421875 13.15625 6.1875 
Q 5.515625 13.8125 5.515625 26.8125 
Q 5.515625 40.234375 12.765625 48.109375 
Q 20.015625 56 32.328125 56 
Q 43.359375 56 49.78125 48.890625 
Q 56.203125 41.796875 56.203125 29.59375 
z
M 47.21875 32.234375 
Q 47.125 39.59375 43.09375 43.984375 
Q 39.0625 48.390625 32.421875 48.390625 
Q 24.90625 48.390625 20.390625 44.140625 
Q 15.875 39.890625 15.1875 32.171875 
z
" id="DejaVuSans-101"/>
      <path d="M 14.796875 27.296875 
Q 14.796875 17.390625 18.875 11.75 
Q 22.953125 6.109375 30.078125 6.109375 
Q 37.203125 6.109375 41.296875 11.75 
Q 45.40625 17.390625 45.40625 27.296875 
Q 45.40625 37.203125 41.296875 42.84375 
Q 37.203125 48.484375 30.078125 48.484375 
Q 22.953125 48.484375 18.875 42.84375 
Q 14.796875 37.203125 14.796875 27.296875 
z
M 45.40625 8.203125 
Q 42.578125 3.328125 38.25 0.953125 
Q 33.9375 -1.421875 27.875 -1.421875 
Q 17.96875 -1.421875 11.734375 6.484375 
Q 5.515625 14.40625 5.515625 27.296875 
Q 5.515625 40.1875 11.734375 48.09375 
Q 17.96875 56 27.875 56 
Q 33.9375 56 38.25 53.625 
Q 42.578125 51.265625 45.40625 46.390625 
L 45.40625 54.6875 
L 54.390625 54.6875 
L 54.390625 -20.796875 
L 45.40625 -20.796875 
z
" id="DejaVuSans-113"/>
      <path d="M 8.5 21.578125 
L 8.5 54.6875 
L 17.484375 54.6875 
L 17.484375 21.921875 
Q 17.484375 14.15625 20.5 10.265625 
Q 23.53125 6.390625 29.59375 6.390625 
Q 36.859375 6.390625 41.078125 11.03125 
Q 45.3125 15.671875 45.3125 23.6875 
L 45.3125 54.6875 
L 54.296875 54.6875 
L 54.296875 0 
L 45.3125 0 
L 45.3125 8.40625 
Q 42.046875 3.421875 37.71875 1 
Q 33.40625 -1.421875 27.6875 -1.421875 
Q 18.265625 -1.421875 13.375 4.4375 
Q 8.5 10.296875 8.5 21.578125 
z
M 31.109375 56 
z
" id="DejaVuSans-117"/>
      <path d="M 56.203125 29.59375 
L 56.203125 25.203125 
L 14.890625 25.203125 
Q 15.484375 15.921875 20.484375 11.0625 
Q 25.484375 6.203125 34.421875 6.203125 
Q 39.59375 6.203125 44.453125 7.46875 
Q 49.3125 8.734375 54.109375 11.28125 
L 54.109375 2.78125 
Q 49.265625 0.734375 44.1875 -0.34375 
Q 39.109375 -1.421875 33.890625 -1.421875 
Q 20.796875 -1.421875 13.15625 6.1875 
Q 5.515625 13.8125 5.515625 26.8125 
Q 5.515625 40.234375 12.765625 48.109375 
Q 20.015625 56 32.328125 56 
Q 43.359375 56 49.78125 48.890625 
Q 56.203125 41.796875 56.203125 29.59375 
z
M 47.21875 32.234375 
Q 47.125 39.59375 43.09375 43.984375 
Q 39.0625 48.390625 32.421875 48.390625 
Q 24.90625 48.390625 20.390625 44.140625 
Q 15.875 39.890625 15.1875 32.171875 
z
M 28.171875 79.984375 
L 35.40625 79.984375 
L 47.359375 61.625 
L 40.578125 61.625 
L 31.78125 73.578125 
L 23 61.625 
L 16.21875 61.625 
z
" id="DejaVuSans-234"/>
      <path d="M 54.890625 33.015625 
L 54.890625 0 
L 45.90625 0 
L 45.90625 32.71875 
Q 45.90625 40.484375 42.875 44.328125 
Q 39.84375 48.1875 33.796875 48.1875 
Q 26.515625 48.1875 22.3125 43.546875 
Q 18.109375 38.921875 18.109375 30.90625 
L 18.109375 0 
L 9.078125 0 
L 9.078125 54.6875 
L 18.109375 54.6875 
L 18.109375 46.1875 
Q 21.34375 51.125 25.703125 53.5625 
Q 30.078125 56 35.796875 56 
Q 45.21875 56 50.046875 50.171875 
Q 54.890625 44.34375 54.890625 33.015625 
z
" id="DejaVuSans-110"/>
      <path d="M 48.78125 52.59375 
L 48.78125 44.1875 
Q 44.96875 46.296875 41.140625 47.34375 
Q 37.3125 48.390625 33.40625 48.390625 
Q 24.65625 48.390625 19.8125 42.84375 
Q 14.984375 37.3125 14.984375 27.296875 
Q 14.984375 17.28125 19.8125 11.734375 
Q 24.65625 6.203125 33.40625 6.203125 
Q 37.3125 6.203125 41.140625 7.25 
Q 44.96875 8.296875 48.78125 10.40625 
L 48.78125 2.09375 
Q 45.015625 0.34375 40.984375 -0.53125 
Q 36.96875 -1.421875 32.421875 -1.421875 
Q 20.0625 -1.421875 12.78125 6.34375 
Q 5.515625 14.109375 5.515625 27.296875 
Q 5.515625 40.671875 12.859375 48.328125 
Q 20.21875 56 33.015625 56 
Q 37.15625 56 41.109375 55.140625 
Q 45.0625 54.296875 48.78125 52.59375 
z
" id="DejaVuSans-99"/>
      <path d="M 9.421875 54.6875 
L 18.40625 54.6875 
L 18.40625 0 
L 9.421875 0 
z
M 9.421875 75.984375 
L 18.40625 75.984375 
L 18.40625 64.59375 
L 9.421875 64.59375 
z
" id="DejaVuSans-105"/>
      <path d="M 34.28125 27.484375 
Q 23.390625 27.484375 19.1875 25 
Q 14.984375 22.515625 14.984375 16.5 
Q 14.984375 11.71875 18.140625 8.90625 
Q 21.296875 6.109375 26.703125 6.109375 
Q 34.1875 6.109375 38.703125 11.40625 
Q 43.21875 16.703125 43.21875 25.484375 
L 43.21875 27.484375 
z
M 52.203125 31.203125 
L 52.203125 0 
L 43.21875 0 
L 43.21875 8.296875 
Q 40.140625 3.328125 35.546875 0.953125 
Q 30.953125 -1.421875 24.3125 -1.421875 
Q 15.921875 -1.421875 10.953125 3.296875 
Q 6 8.015625 6 15.921875 
Q 6 25.140625 12.171875 29.828125 
Q 18.359375 34.515625 30.609375 34.515625 
L 43.21875 34.515625 
L 43.21875 35.40625 
Q 43.21875 41.609375 39.140625 45 
Q 35.0625 48.390625 27.6875 48.390625 
Q 23 48.390625 18.546875 47.265625 
Q 14.109375 46.140625 10.015625 43.890625 
L 10.015625 52.203125 
Q 14.9375 54.109375 19.578125 55.046875 
Q 24.21875 56 28.609375 56 
Q 40.484375 56 46.34375 49.84375 
Q 52.203125 43.703125 52.203125 31.203125 
z
" id="DejaVuSans-97"/>
      <path id="DejaVuSans-32"/>
      <path d="M 31 75.875 
Q 24.46875 64.65625 21.28125 53.65625 
Q 18.109375 42.671875 18.109375 31.390625 
Q 18.109375 20.125 21.3125 9.0625 
Q 24.515625 -2 31 -13.1875 
L 23.1875 -13.1875 
Q 15.875 -1.703125 12.234375 9.375 
Q 8.59375 20.453125 8.59375 31.390625 
Q 8.59375 42.28125 12.203125 53.3125 
Q 15.828125 64.359375 23.1875 75.875 
z
" id="DejaVuSans-40"/>
      <path d="M 9.8125 72.90625 
L 19.671875 72.90625 
L 19.671875 43.015625 
L 55.515625 43.015625 
L 55.515625 72.90625 
L 65.375 72.90625 
L 65.375 0 
L 55.515625 0 
L 55.515625 34.71875 
L 19.671875 34.71875 
L 19.671875 0 
L 9.8125 0 
z
" id="DejaVuSans-72"/>
      <path d="M 5.515625 54.6875 
L 48.1875 54.6875 
L 48.1875 46.484375 
L 14.40625 7.171875 
L 48.1875 7.171875 
L 48.1875 0 
L 4.296875 0 
L 4.296875 8.203125 
L 38.09375 47.515625 
L 5.515625 47.515625 
z
" id="DejaVuSans-122"/>
      <path d="M 8.015625 75.875 
L 15.828125 75.875 
Q 23.140625 64.359375 26.78125 53.3125 
Q 30.421875 42.28125 30.421875 31.390625 
Q 30.421875 20.453125 26.78125 9.375 
Q 23.140625 -1.703125 15.828125 -13.1875 
L 8.015625 -13.1875 
Q 14.5 -2 17.703125 9.0625 
Q 20.90625 20.125 20.90625 31.390625 
Q 20.90625 42.671875 17.703125 53.65625 
Q 14.5 64.65625 8.015625 75.875 
z
" id="DejaVuSans-41"/>
     </defs>
     <g transform="translate(196.493594 336.260562)scale(0.1 -0.1)">
      <use xlink:href="#DejaVuSans-70"/>
      <use x="57.410156" xlink:href="#DejaVuSans-114"/>
      <use x="98.492188" xlink:href="#DejaVuSans-101"/>
      <use x="160.015625" xlink:href="#DejaVuSans-113"/>
      <use x="223.492188" xlink:href="#DejaVuSans-117"/>
      <use x="286.871094" xlink:href="#DejaVuSans-234"/>
      <use x="348.394531" xlink:href="#DejaVuSans-110"/>
      <use x="411.773438" xlink:href="#DejaVuSans-99"/>
      <use x="466.753906" xlink:href="#DejaVuSans-105"/>
      <use x="494.537109" xlink:href="#DejaVuSans-97"/>
      <use x="555.816406" xlink:href="#DejaVuSans-32"/>
      <use x="587.603516" xlink:href="#DejaVuSans-40"/>
      <use x="626.617188" xlink:href="#DejaVuSans-72"/>
      <use x="701.8125" xlink:href="#DejaVuSans-122"/>
      <use x="754.302734" xlink:href="#DejaVuSans-41"/>
     </g>
    </g>
   </g>
   <g id="matplotlib.axis_2">
    <g id="ytick_1">
     <g id="line2d_17">
      <path clip-path="url(#p27d9d21408)" d="M 57.6 295.488 
L 414.72 295.488 
" style="fill:none;stroke:#b0b0b0;stroke-linecap:square;stroke-width:0.8;"/>
     </g>
     <g id="line2d_18">
      <defs>
       <path d="M 0 0 
L -3.5 0 
" id="m337c48d75f" style="stroke:#000000;stroke-width:0.8;"/>
      </defs>
      <g>
       <use style="stroke:#000000;stroke-width:0.8;" x="57.6" xlink:href="#m337c48d75f" y="295.488"/>
      </g>
     </g>
     <g id="text_10">
      <!-- 0 -->
      <g transform="translate(44.2375 299.287219)scale(0.1 -0.1)">
       <use xlink:href="#DejaVuSans-48"/>
      </g>
     </g>
    </g>
    <g id="ytick_2">
     <g id="line2d_19">
      <path clip-path="url(#p27d9d21408)" d="M 57.6 260.034597 
L 414.72 260.034597 
" style="fill:none;stroke:#b0b0b0;stroke-linecap:square;stroke-width:0.8;"/>
     </g>
     <g id="line2d_20">
      <g>
       <use style="stroke:#000000;stroke-width:0.8;" x="57.6" xlink:href="#m337c48d75f" y="260.034597"/>
      </g>
     </g>
     <g id="text_11">
      <!-- 10000 -->
      <g transform="translate(18.7875 263.833815)scale(0.1 -0.1)">
       <use xlink:href="#DejaVuSans-49"/>
       <use x="63.623047" xlink:href="#DejaVuSans-48"/>
       <use x="127.246094" xlink:href="#DejaVuSans-48"/>
       <use x="190.869141" xlink:href="#DejaVuSans-48"/>
       <use x="254.492188" xlink:href="#DejaVuSans-48"/>
      </g>
     </g>
    </g>
    <g id="ytick_3">
     <g id="line2d_21">
      <path clip-path="url(#p27d9d21408)" d="M 57.6 224.581193 
L 414.72 224.581193 
" style="fill:none;stroke:#b0b0b0;stroke-linecap:square;stroke-width:0.8;"/>
     </g>
     <g id="line2d_22">
      <g>
       <use style="stroke:#000000;stroke-width:0.8;" x="57.6" xlink:href="#m337c48d75f" y="224.581193"/>
      </g>
     </g>
     <g id="text_12">
      <!-- 20000 -->
      <g transform="translate(18.7875 228.380412)scale(0.1 -0.1)">
       <use xlink:href="#DejaVuSans-50"/>
       <use x="63.623047" xlink:href="#DejaVuSans-48"/>
       <use x="127.246094" xlink:href="#DejaVuSans-48"/>
       <use x="190.869141" xlink:href="#DejaVuSans-48"/>
       <use x="254.492188" xlink:href="#DejaVuSans-48"/>
      </g>
     </g>
    </g>
    <g id="ytick_4">
     <g id="line2d_23">
      <path clip-path="url(#p27d9d21408)" d="M 57.6 189.12779 
L 414.72 189.12779 
" style="fill:none;stroke:#b0b0b0;stroke-linecap:square;stroke-width:0.8;"/>
     </g>
     <g id="line2d_24">
      <g>
       <use style="stroke:#000000;stroke-width:0.8;" x="57.6" xlink:href="#m337c48d75f" y="189.12779"/>
      </g>
     </g>
     <g id="text_13">
      <!-- 30000 -->
      <g transform="translate(18.7875 192.927009)scale(0.1 -0.1)">
       <use xlink:href="#DejaVuSans-51"/>
       <use x="63.623047" xlink:href="#DejaVuSans-48"/>
       <use x="127.246094" xlink:href="#DejaVuSans-48"/>
       <use x="190.869141" xlink:href="#DejaVuSans-48"/>
       <use x="254.492188" xlink:href="#DejaVuSans-48"/>
      </g>
     </g>
    </g>
    <g id="ytick_5">
     <g id="line2d_25">
      <path clip-path="url(#p27d9d21408)" d="M 57.6 153.674386 
L 414.72 153.674386 
" style="fill:none;stroke:#b0b0b0;stroke-linecap:square;stroke-width:0.8;"/>
     </g>
     <g id="line2d_26">
      <g>
       <use style="stroke:#000000;stroke-width:0.8;" x="57.6" xlink:href="#m337c48d75f" y="153.674386"/>
      </g>
     </g>
     <g id="text_14">
      <!-- 40000 -->
      <g transform="translate(18.7875 157.473605)scale(0.1 -0.1)">
       <use xlink:href="#DejaVuSans-52"/>
       <use x="63.623047" xlink:href="#DejaVuSans-48"/>
       <use x="127.246094" xlink:href="#DejaVuSans-48"/>
       <use x="190.869141" xlink:href="#DejaVuSans-48"/>
       <use x="254.492188" xlink:href="#DejaVuSans-48"/>
      </g>
     </g>
    </g>
    <g id="ytick_6">
     <g id="line2d_27">
      <path clip-path="url(#p27d9d21408)" d="M 57.6 118.220983 
L 414.72 118.220983 
" style="fill:none;stroke:#b0b0b0;stroke-linecap:square;stroke-width:0.8;"/>
     </g>
     <g id="line2d_28">
      <g>
       <use style="stroke:#000000;stroke-width:0.8;" x="57.6" xlink:href="#m337c48d75f" y="118.220983"/>
      </g>
     </g>
     <g id="text_15">
      <!-- 50000 -->
      <g transform="translate(18.7875 122.020202)scale(0.1 -0.1)">
       <use xlink:href="#DejaVuSans-53"/>
       <use x="63.623047" xlink:href="#DejaVuSans-48"/>
       <use x="127.246094" xlink:href="#DejaVuSans-48"/>
       <use x="190.869141" xlink:href="#DejaVuSans-48"/>
       <use x="254.492188" xlink:href="#DejaVuSans-48"/>
      </g>
     </g>
    </g>
    <g id="ytick_7">
     <g id="line2d_29">
      <path clip-path="url(#p27d9d21408)" d="M 57.6 82.76758 
L 414.72 82.76758 
" style="fill:none;stroke:#b0b0b0;stroke-linecap:square;stroke-width:0.8;"/>
     </g>
     <g id="line2d_30">
      <g>
       <use style="stroke:#000000;stroke-width:0.8;" x="57.6" xlink:href="#m337c48d75f" y="82.76758"/>
      </g>
     </g>
     <g id="text_16">
      <!-- 60000 -->
      <g transform="translate(18.7875 86.566798)scale(0.1 -0.1)">
       <use xlink:href="#DejaVuSans-54"/>
       <use x="63.623047" xlink:href="#DejaVuSans-48"/>
       <use x="127.246094" xlink:href="#DejaVuSans-48"/>
       <use x="190.869141" xlink:href="#DejaVuSans-48"/>
       <use x="254.492188" xlink:href="#DejaVuSans-48"/>
      </g>
     </g>
    </g>
    <g id="ytick_8">
     <g id="line2d_31">
      <path clip-path="url(#p27d9d21408)" d="M 57.6 47.314176 
L 414.72 47.314176 
" style="fill:none;stroke:#b0b0b0;stroke-linecap:square;stroke-width:0.8;"/>
     </g>
     <g id="line2d_32">
      <g>
       <use style="stroke:#000000;stroke-width:0.8;" x="57.6" xlink:href="#m337c48d75f" y="47.314176"/>
      </g>
     </g>
     <g id="text_17">
      <!-- 70000 -->
      <g transform="translate(18.7875 51.113395)scale(0.1 -0.1)">
       <use xlink:href="#DejaVuSans-55"/>
       <use x="63.623047" xlink:href="#DejaVuSans-48"/>
       <use x="127.246094" xlink:href="#DejaVuSans-48"/>
       <use x="190.869141" xlink:href="#DejaVuSans-48"/>
       <use x="254.492188" xlink:href="#DejaVuSans-48"/>
      </g>
     </g>
    </g>
    <g id="text_18">
     <!-- Módulo da transformada de fourier da força -->
     <defs>
      <path d="M 9.8125 72.90625 
L 24.515625 72.90625 
L 43.109375 23.296875 
L 61.8125 72.90625 
L 76.515625 72.90625 
L 76.515625 0 
L 66.890625 0 
L 66.890625 64.015625 
L 48.09375 14.015625 
L 38.1875 14.015625 
L 19.390625 64.015625 
L 19.390625 0 
L 9.8125 0 
z
" id="DejaVuSans-77"/>
      <path d="M 30.609375 48.390625 
Q 23.390625 48.390625 19.1875 42.75 
Q 14.984375 37.109375 14.984375 27.296875 
Q 14.984375 17.484375 19.15625 11.84375 
Q 23.34375 6.203125 30.609375 6.203125 
Q 37.796875 6.203125 41.984375 11.859375 
Q 46.1875 17.53125 46.1875 27.296875 
Q 46.1875 37.015625 41.984375 42.703125 
Q 37.796875 48.390625 30.609375 48.390625 
z
M 30.609375 56 
Q 42.328125 56 49.015625 48.375 
Q 55.71875 40.765625 55.71875 27.296875 
Q 55.71875 13.875 49.015625 6.21875 
Q 42.328125 -1.421875 30.609375 -1.421875 
Q 18.84375 -1.421875 12.171875 6.21875 
Q 5.515625 13.875 5.515625 27.296875 
Q 5.515625 40.765625 12.171875 48.375 
Q 18.84375 56 30.609375 56 
z
M 37.40625 79.984375 
L 47.125 79.984375 
L 31.203125 61.625 
L 23.734375 61.625 
z
" id="DejaVuSans-243"/>
      <path d="M 45.40625 46.390625 
L 45.40625 75.984375 
L 54.390625 75.984375 
L 54.390625 0 
L 45.40625 0 
L 45.40625 8.203125 
Q 42.578125 3.328125 38.25 0.953125 
Q 33.9375 -1.421875 27.875 -1.421875 
Q 17.96875 -1.421875 11.734375 6.484375 
Q 5.515625 14.40625 5.515625 27.296875 
Q 5.515625 40.1875 11.734375 48.09375 
Q 17.96875 56 27.875 56 
Q 33.9375 56 38.25 53.625 
Q 42.578125 51.265625 45.40625 46.390625 
z
M 14.796875 27.296875 
Q 14.796875 17.390625 18.875 11.75 
Q 22.953125 6.109375 30.078125 6.109375 
Q 37.203125 6.109375 41.296875 11.75 
Q 45.40625 17.390625 45.40625 27.296875 
Q 45.40625 37.203125 41.296875 42.84375 
Q 37.203125 48.484375 30.078125 48.484375 
Q 22.953125 48.484375 18.875 42.84375 
Q 14.796875 37.203125 14.796875 27.296875 
z
" id="DejaVuSans-100"/>
      <path d="M 9.421875 75.984375 
L 18.40625 75.984375 
L 18.40625 0 
L 9.421875 0 
z
" id="DejaVuSans-108"/>
      <path d="M 30.609375 48.390625 
Q 23.390625 48.390625 19.1875 42.75 
Q 14.984375 37.109375 14.984375 27.296875 
Q 14.984375 17.484375 19.15625 11.84375 
Q 23.34375 6.203125 30.609375 6.203125 
Q 37.796875 6.203125 41.984375 11.859375 
Q 46.1875 17.53125 46.1875 27.296875 
Q 46.1875 37.015625 41.984375 42.703125 
Q 37.796875 48.390625 30.609375 48.390625 
z
M 30.609375 56 
Q 42.328125 56 49.015625 48.375 
Q 55.71875 40.765625 55.71875 27.296875 
Q 55.71875 13.875 49.015625 6.21875 
Q 42.328125 -1.421875 30.609375 -1.421875 
Q 18.84375 -1.421875 12.171875 6.21875 
Q 5.515625 13.875 5.515625 27.296875 
Q 5.515625 40.765625 12.171875 48.375 
Q 18.84375 56 30.609375 56 
z
" id="DejaVuSans-111"/>
      <path d="M 18.3125 70.21875 
L 18.3125 54.6875 
L 36.8125 54.6875 
L 36.8125 47.703125 
L 18.3125 47.703125 
L 18.3125 18.015625 
Q 18.3125 11.328125 20.140625 9.421875 
Q 21.96875 7.515625 27.59375 7.515625 
L 36.8125 7.515625 
L 36.8125 0 
L 27.59375 0 
Q 17.1875 0 13.234375 3.875 
Q 9.28125 7.765625 9.28125 18.015625 
L 9.28125 47.703125 
L 2.6875 47.703125 
L 2.6875 54.6875 
L 9.28125 54.6875 
L 9.28125 70.21875 
z
" id="DejaVuSans-116"/>
      <path d="M 44.28125 53.078125 
L 44.28125 44.578125 
Q 40.484375 46.53125 36.375 47.5 
Q 32.28125 48.484375 27.875 48.484375 
Q 21.1875 48.484375 17.84375 46.4375 
Q 14.5 44.390625 14.5 40.28125 
Q 14.5 37.15625 16.890625 35.375 
Q 19.28125 33.59375 26.515625 31.984375 
L 29.59375 31.296875 
Q 39.15625 29.25 43.1875 25.515625 
Q 47.21875 21.78125 47.21875 15.09375 
Q 47.21875 7.46875 41.1875 3.015625 
Q 35.15625 -1.421875 24.609375 -1.421875 
Q 20.21875 -1.421875 15.453125 -0.5625 
Q 10.6875 0.296875 5.421875 2 
L 5.421875 11.28125 
Q 10.40625 8.6875 15.234375 7.390625 
Q 20.0625 6.109375 24.8125 6.109375 
Q 31.15625 6.109375 34.5625 8.28125 
Q 37.984375 10.453125 37.984375 14.40625 
Q 37.984375 18.0625 35.515625 20.015625 
Q 33.0625 21.96875 24.703125 23.78125 
L 21.578125 24.515625 
Q 13.234375 26.265625 9.515625 29.90625 
Q 5.8125 33.546875 5.8125 39.890625 
Q 5.8125 47.609375 11.28125 51.796875 
Q 16.75 56 26.8125 56 
Q 31.78125 56 36.171875 55.265625 
Q 40.578125 54.546875 44.28125 53.078125 
z
" id="DejaVuSans-115"/>
      <path d="M 37.109375 75.984375 
L 37.109375 68.5 
L 28.515625 68.5 
Q 23.6875 68.5 21.796875 66.546875 
Q 19.921875 64.59375 19.921875 59.515625 
L 19.921875 54.6875 
L 34.71875 54.6875 
L 34.71875 47.703125 
L 19.921875 47.703125 
L 19.921875 0 
L 10.890625 0 
L 10.890625 47.703125 
L 2.296875 47.703125 
L 2.296875 54.6875 
L 10.890625 54.6875 
L 10.890625 58.5 
Q 10.890625 67.625 15.140625 71.796875 
Q 19.390625 75.984375 28.609375 75.984375 
z
" id="DejaVuSans-102"/>
      <path d="M 52 44.1875 
Q 55.375 50.25 60.0625 53.125 
Q 64.75 56 71.09375 56 
Q 79.640625 56 84.28125 50.015625 
Q 88.921875 44.046875 88.921875 33.015625 
L 88.921875 0 
L 79.890625 0 
L 79.890625 32.71875 
Q 79.890625 40.578125 77.09375 44.375 
Q 74.3125 48.1875 68.609375 48.1875 
Q 61.625 48.1875 57.5625 43.546875 
Q 53.515625 38.921875 53.515625 30.90625 
L 53.515625 0 
L 44.484375 0 
L 44.484375 32.71875 
Q 44.484375 40.625 41.703125 44.40625 
Q 38.921875 48.1875 33.109375 48.1875 
Q 26.21875 48.1875 22.15625 43.53125 
Q 18.109375 38.875 18.109375 30.90625 
L 18.109375 0 
L 9.078125 0 
L 9.078125 54.6875 
L 18.109375 54.6875 
L 18.109375 46.1875 
Q 21.1875 51.21875 25.484375 53.609375 
Q 29.78125 56 35.6875 56 
Q 41.65625 56 45.828125 52.96875 
Q 50 49.953125 52 44.1875 
z
" id="DejaVuSans-109"/>
      <path d="M 48.78125 52.59375 
L 48.78125 44.1875 
Q 44.96875 46.296875 41.140625 47.34375 
Q 37.3125 48.390625 33.40625 48.390625 
Q 24.65625 48.390625 19.8125 42.84375 
Q 14.984375 37.3125 14.984375 27.296875 
Q 14.984375 17.28125 19.8125 11.734375 
Q 24.65625 6.203125 33.40625 6.203125 
Q 37.3125 6.203125 41.140625 7.25 
Q 44.96875 8.296875 48.78125 10.40625 
L 48.78125 2.09375 
Q 45.015625 0.34375 40.984375 -0.53125 
Q 36.96875 -1.421875 32.421875 -1.421875 
Q 20.0625 -1.421875 12.78125 6.34375 
Q 5.515625 14.109375 5.515625 27.296875 
Q 5.515625 40.671875 12.859375 48.328125 
Q 20.21875 56 33.015625 56 
Q 37.15625 56 41.109375 55.140625 
Q 45.0625 54.296875 48.78125 52.59375 
z
M 36.078125 0 
Q 38.765625 -3.03125 40.078125 -5.59375 
Q 41.40625 -8.15625 41.40625 -10.5 
Q 41.40625 -14.84375 38.46875 -17.0625 
Q 35.546875 -19.28125 29.78125 -19.28125 
Q 27.546875 -19.28125 25.421875 -18.984375 
Q 23.296875 -18.703125 21.1875 -18.109375 
L 21.1875 -11.71875 
Q 22.859375 -12.546875 24.65625 -12.90625 
Q 26.46875 -13.28125 28.765625 -13.28125 
Q 31.640625 -13.28125 33.109375 -12.109375 
Q 34.578125 -10.9375 34.578125 -8.6875 
Q 34.578125 -7.234375 33.515625 -5.109375 
Q 32.46875 -2.984375 30.28125 0 
z
" id="DejaVuSans-231"/>
     </defs>
     <g transform="translate(12.707812 284.106125)rotate(-90)scale(0.1 -0.1)">
      <use xlink:href="#DejaVuSans-77"/>
      <use x="86.279297" xlink:href="#DejaVuSans-243"/>
      <use x="147.460938" xlink:href="#DejaVuSans-100"/>
      <use x="210.9375" xlink:href="#DejaVuSans-117"/>
      <use x="274.316406" xlink:href="#DejaVuSans-108"/>
      <use x="302.099609" xlink:href="#DejaVuSans-111"/>
      <use x="363.28125" xlink:href="#DejaVuSans-32"/>
      <use x="395.068359" xlink:href="#DejaVuSans-100"/>
      <use x="458.544922" xlink:href="#DejaVuSans-97"/>
      <use x="519.824219" xlink:href="#DejaVuSans-32"/>
      <use x="551.611328" xlink:href="#DejaVuSans-116"/>
      <use x="590.820312" xlink:href="#DejaVuSans-114"/>
      <use x="631.933594" xlink:href="#DejaVuSans-97"/>
      <use x="693.212891" xlink:href="#DejaVuSans-110"/>
      <use x="756.591797" xlink:href="#DejaVuSans-115"/>
      <use x="808.691406" xlink:href="#DejaVuSans-102"/>
      <use x="843.896484" xlink:href="#DejaVuSans-111"/>
      <use x="905.078125" xlink:href="#DejaVuSans-114"/>
      <use x="946.175781" xlink:href="#DejaVuSans-109"/>
      <use x="1043.587891" xlink:href="#DejaVuSans-97"/>
      <use x="1104.867188" xlink:href="#DejaVuSans-100"/>
      <use x="1168.34375" xlink:href="#DejaVuSans-97"/>
      <use x="1229.623047" xlink:href="#DejaVuSans-32"/>
      <use x="1261.410156" xlink:href="#DejaVuSans-100"/>
      <use x="1324.886719" xlink:href="#DejaVuSans-101"/>
      <use x="1386.410156" xlink:href="#DejaVuSans-32"/>
      <use x="1418.197266" xlink:href="#DejaVuSans-102"/>
      <use x="1453.402344" xlink:href="#DejaVuSans-111"/>
      <use x="1514.583984" xlink:href="#DejaVuSans-117"/>
      <use x="1577.962891" xlink:href="#DejaVuSans-114"/>
      <use x="1619.076172" xlink:href="#DejaVuSans-105"/>
      <use x="1646.859375" xlink:href="#DejaVuSans-101"/>
      <use x="1708.382812" xlink:href="#DejaVuSans-114"/>
      <use x="1749.496094" xlink:href="#DejaVuSans-32"/>
      <use x="1781.283203" xlink:href="#DejaVuSans-100"/>
      <use x="1844.759766" xlink:href="#DejaVuSans-97"/>
      <use x="1906.039062" xlink:href="#DejaVuSans-32"/>
      <use x="1937.826172" xlink:href="#DejaVuSans-102"/>
      <use x="1973.03125" xlink:href="#DejaVuSans-111"/>
      <use x="2034.212891" xlink:href="#DejaVuSans-114"/>
      <use x="2075.294922" xlink:href="#DejaVuSans-231"/>
      <use x="2130.275391" xlink:href="#DejaVuSans-97"/>
     </g>
    </g>
   </g>
   <g id="LineCollection_1">
    <path clip-path="url(#p27d9d21408)" d="M 57.6 295.488 
L 57.6 292.31007 
" style="fill:none;stroke:#000000;stroke-width:1.5;"/>
    <path clip-path="url(#p27d9d21408)" d="M 63.977183 295.488 
L 63.977183 276.750514 
" style="fill:none;stroke:#000000;stroke-width:1.5;"/>
    <path clip-path="url(#p27d9d21408)" d="M 70.354365 295.488 
L 70.354365 287.201393 
" style="fill:none;stroke:#000000;stroke-width:1.5;"/>
    <path clip-path="url(#p27d9d21408)" d="M 76.731548 295.488 
L 76.731548 288.187236 
" style="fill:none;stroke:#000000;stroke-width:1.5;"/>
    <path clip-path="url(#p27d9d21408)" d="M 83.108731 295.488 
L 83.108731 53.568 
" style="fill:none;stroke:#000000;stroke-width:1.5;"/>
    <path clip-path="url(#p27d9d21408)" d="M 89.485914 295.488 
L 89.485914 280.50817 
" style="fill:none;stroke:#000000;stroke-width:1.5;"/>
    <path clip-path="url(#p27d9d21408)" d="M 95.863096 295.488 
L 95.863096 281.529723 
" style="fill:none;stroke:#000000;stroke-width:1.5;"/>
    <path clip-path="url(#p27d9d21408)" d="M 102.240279 295.488 
L 102.240279 284.308831 
" style="fill:none;stroke:#000000;stroke-width:1.5;"/>
    <path clip-path="url(#p27d9d21408)" d="M 108.617462 295.488 
L 108.617462 188.94834 
" style="fill:none;stroke:#000000;stroke-width:1.5;"/>
    <path clip-path="url(#p27d9d21408)" d="M 114.994644 295.488 
L 114.994644 291.701673 
" style="fill:none;stroke:#000000;stroke-width:1.5;"/>
    <path clip-path="url(#p27d9d21408)" d="M 121.371827 295.488 
L 121.371827 290.624375 
" style="fill:none;stroke:#000000;stroke-width:1.5;"/>
    <path clip-path="url(#p27d9d21408)" d="M 127.74901 295.488 
L 127.74901 281.62499 
" style="fill:none;stroke:#000000;stroke-width:1.5;"/>
    <path clip-path="url(#p27d9d21408)" d="M 134.126193 295.488 
L 134.126193 284.635869 
" style="fill:none;stroke:#000000;stroke-width:1.5;"/>
    <path clip-path="url(#p27d9d21408)" d="M 140.503375 295.488 
L 140.503375 283.531997 
" style="fill:none;stroke:#000000;stroke-width:1.5;"/>
    <path clip-path="url(#p27d9d21408)" d="M 146.880558 295.488 
L 146.880558 286.681462 
" style="fill:none;stroke:#000000;stroke-width:1.5;"/>
    <path clip-path="url(#p27d9d21408)" d="M 153.257741 295.488 
L 153.257741 289.877612 
" style="fill:none;stroke:#000000;stroke-width:1.5;"/>
    <path clip-path="url(#p27d9d21408)" d="M 159.634923 295.488 
L 159.634923 288.476377 
" style="fill:none;stroke:#000000;stroke-width:1.5;"/>
    <path clip-path="url(#p27d9d21408)" d="M 166.012106 295.488 
L 166.012106 288.994402 
" style="fill:none;stroke:#000000;stroke-width:1.5;"/>
    <path clip-path="url(#p27d9d21408)" d="M 172.389289 295.488 
L 172.389289 289.811784 
" style="fill:none;stroke:#000000;stroke-width:1.5;"/>
    <path clip-path="url(#p27d9d21408)" d="M 178.766472 295.488 
L 178.766472 291.952443 
" style="fill:none;stroke:#000000;stroke-width:1.5;"/>
    <path clip-path="url(#p27d9d21408)" d="M 185.143654 295.488 
L 185.143654 256.191212 
" style="fill:none;stroke:#000000;stroke-width:1.5;"/>
    <path clip-path="url(#p27d9d21408)" d="M 191.520837 295.488 
L 191.520837 287.49713 
" style="fill:none;stroke:#000000;stroke-width:1.5;"/>
    <path clip-path="url(#p27d9d21408)" d="M 197.89802 295.488 
L 197.89802 291.954461 
" style="fill:none;stroke:#000000;stroke-width:1.5;"/>
    <path clip-path="url(#p27d9d21408)" d="M 204.275202 295.488 
L 204.275202 288.457541 
" style="fill:none;stroke:#000000;stroke-width:1.5;"/>
    <path clip-path="url(#p27d9d21408)" d="M 210.652385 295.488 
L 210.652385 291.764901 
" style="fill:none;stroke:#000000;stroke-width:1.5;"/>
    <path clip-path="url(#p27d9d21408)" d="M 217.029568 295.488 
L 217.029568 293.62464 
" style="fill:none;stroke:#000000;stroke-width:1.5;"/>
    <path clip-path="url(#p27d9d21408)" d="M 223.406751 295.488 
L 223.406751 286.647131 
" style="fill:none;stroke:#000000;stroke-width:1.5;"/>
    <path clip-path="url(#p27d9d21408)" d="M 229.783933 295.488 
L 229.783933 288.040889 
" style="fill:none;stroke:#000000;stroke-width:1.5;"/>
    <path clip-path="url(#p27d9d21408)" d="M 236.161116 295.488 
L 236.161116 286.14495 
" style="fill:none;stroke:#000000;stroke-width:1.5;"/>
    <path clip-path="url(#p27d9d21408)" d="M 242.538299 295.488 
L 242.538299 288.348794 
" style="fill:none;stroke:#000000;stroke-width:1.5;"/>
    <path clip-path="url(#p27d9d21408)" d="M 248.915481 295.488 
L 248.915481 289.008308 
" style="fill:none;stroke:#000000;stroke-width:1.5;"/>
    <path clip-path="url(#p27d9d21408)" d="M 255.292664 295.488 
L 255.292664 288.909643 
" style="fill:none;stroke:#000000;stroke-width:1.5;"/>
    <path clip-path="url(#p27d9d21408)" d="M 261.669847 295.488 
L 261.669847 290.805625 
" style="fill:none;stroke:#000000;stroke-width:1.5;"/>
    <path clip-path="url(#p27d9d21408)" d="M 268.04703 295.488 
L 268.04703 289.81284 
" style="fill:none;stroke:#000000;stroke-width:1.5;"/>
    <path clip-path="url(#p27d9d21408)" d="M 274.424212 295.488 
L 274.424212 293.059515 
" style="fill:none;stroke:#000000;stroke-width:1.5;"/>
    <path clip-path="url(#p27d9d21408)" d="M 280.801395 295.488 
L 280.801395 285.968595 
" style="fill:none;stroke:#000000;stroke-width:1.5;"/>
    <path clip-path="url(#p27d9d21408)" d="M 287.178578 295.488 
L 287.178578 293.673859 
" style="fill:none;stroke:#000000;stroke-width:1.5;"/>
    <path clip-path="url(#p27d9d21408)" d="M 293.55576 295.488 
L 293.55576 286.998055 
" style="fill:none;stroke:#000000;stroke-width:1.5;"/>
    <path clip-path="url(#p27d9d21408)" d="M 299.932943 295.488 
L 299.932943 293.042341 
" style="fill:none;stroke:#000000;stroke-width:1.5;"/>
    <path clip-path="url(#p27d9d21408)" d="M 306.310126 295.488 
L 306.310126 290.930218 
" style="fill:none;stroke:#000000;stroke-width:1.5;"/>
    <path clip-path="url(#p27d9d21408)" d="M 312.687309 295.488 
L 312.687309 292.6217 
" style="fill:none;stroke:#000000;stroke-width:1.5;"/>
    <path clip-path="url(#p27d9d21408)" d="M 319.064491 295.488 
L 319.064491 293.271981 
" style="fill:none;stroke:#000000;stroke-width:1.5;"/>
    <path clip-path="url(#p27d9d21408)" d="M 325.441674 295.488 
L 325.441674 294.966207 
" style="fill:none;stroke:#000000;stroke-width:1.5;"/>
    <path clip-path="url(#p27d9d21408)" d="M 331.818857 295.488 
L 331.818857 291.553325 
" style="fill:none;stroke:#000000;stroke-width:1.5;"/>
    <path clip-path="url(#p27d9d21408)" d="M 338.196039 295.488 
L 338.196039 291.110206 
" style="fill:none;stroke:#000000;stroke-width:1.5;"/>
    <path clip-path="url(#p27d9d21408)" d="M 344.573222 295.488 
L 344.573222 290.979878 
" style="fill:none;stroke:#000000;stroke-width:1.5;"/>
    <path clip-path="url(#p27d9d21408)" d="M 350.950405 295.488 
L 350.950405 292.498412 
" style="fill:none;stroke:#000000;stroke-width:1.5;"/>
    <path clip-path="url(#p27d9d21408)" d="M 357.327588 295.488 
L 357.327588 292.282994 
" style="fill:none;stroke:#000000;stroke-width:1.5;"/>
    <path clip-path="url(#p27d9d21408)" d="M 363.70477 295.488 
L 363.70477 294.767864 
" style="fill:none;stroke:#000000;stroke-width:1.5;"/>
    <path clip-path="url(#p27d9d21408)" d="M 370.081953 295.488 
L 370.081953 289.364028 
" style="fill:none;stroke:#000000;stroke-width:1.5;"/>
    <path clip-path="url(#p27d9d21408)" d="M 376.459136 295.488 
L 376.459136 294.683063 
" style="fill:none;stroke:#000000;stroke-width:1.5;"/>
    <path clip-path="url(#p27d9d21408)" d="M 382.836318 295.488 
L 382.836318 294.089723 
" style="fill:none;stroke:#000000;stroke-width:1.5;"/>
    <path clip-path="url(#p27d9d21408)" d="M 389.213501 295.488 
L 389.213501 290.509716 
" style="fill:none;stroke:#000000;stroke-width:1.5;"/>
    <path clip-path="url(#p27d9d21408)" d="M 395.590684 295.488 
L 395.590684 292.426521 
" style="fill:none;stroke:#000000;stroke-width:1.5;"/>
    <path clip-path="url(#p27d9d21408)" d="M 401.967867 295.488 
L 401.967867 293.95933 
" style="fill:none;stroke:#000000;stroke-width:1.5;"/>
    <path clip-path="url(#p27d9d21408)" d="M 408.345049 295.488 
L 408.345049 291.875136 
" style="fill:none;stroke:#000000;stroke-width:1.5;"/>
    <path clip-path="url(#p27d9d21408)" d="M 414.722232 295.488 
L 414.722232 291.870167 
" style="fill:none;stroke:#000000;stroke-width:1.5;"/>
    <path clip-path="url(#p27d9d21408)" d="M 421.099415 295.488 
L 421.099415 293.476751 
" style="fill:none;stroke:#000000;stroke-width:1.5;"/>
    <path clip-path="url(#p27d9d21408)" d="M 427.476597 295.488 
L 427.476597 293.978676 
" style="fill:none;stroke:#000000;stroke-width:1.5;"/>
    <path clip-path="url(#p27d9d21408)" d="M 433.85378 295.488 
L 433.85378 293.295373 
" style="fill:none;stroke:#000000;stroke-width:1.5;"/>
    <path clip-path="url(#p27d9d21408)" d="M 440.230963 295.488 
L 440.230963 294.076813 
" style="fill:none;stroke:#000000;stroke-width:1.5;"/>
    <path clip-path="url(#p27d9d21408)" d="M 446.608146 295.488 
L 446.608146 292.9313 
" style="fill:none;stroke:#000000;stroke-width:1.5;"/>
    <path clip-path="url(#p27d9d21408)" d="M 452.985328 295.488 
L 452.985328 292.489681 
" style="fill:none;stroke:#000000;stroke-width:1.5;"/>
    <path clip-path="url(#p27d9d21408)" d="M 459.362511 295.488 
L 459.362511 294.471714 
" style="fill:none;stroke:#000000;stroke-width:1.5;"/>
   </g>
   <g id="LineCollection_2">
    <path clip-path="url(#p27d9d21408)" d="M 57.6 295.488 
L 57.6 294.136697 
" style="fill:none;stroke:#ff0000;stroke-width:1.5;"/>
    <path clip-path="url(#p27d9d21408)" d="M 63.977183 295.488 
L 63.977183 251.719841 
" style="fill:none;stroke:#ff0000;stroke-width:1.5;"/>
    <path clip-path="url(#p27d9d21408)" d="M 70.354365 295.488 
L 70.354365 266.945145 
" style="fill:none;stroke:#ff0000;stroke-width:1.5;"/>
    <path clip-path="url(#p27d9d21408)" d="M 76.731548 295.488 
L 76.731548 288.143871 
" style="fill:none;stroke:#ff0000;stroke-width:1.5;"/>
    <path clip-path="url(#p27d9d21408)" d="M 83.108731 295.488 
L 83.108731 135.623369 
" style="fill:none;stroke:#ff0000;stroke-width:1.5;"/>
    <path clip-path="url(#p27d9d21408)" d="M 89.485914 295.488 
L 89.485914 281.256391 
" style="fill:none;stroke:#ff0000;stroke-width:1.5;"/>
    <path clip-path="url(#p27d9d21408)" d="M 95.863096 295.488 
L 95.863096 286.558569 
" style="fill:none;stroke:#ff0000;stroke-width:1.5;"/>
    <path clip-path="url(#p27d9d21408)" d="M 102.240279 295.488 
L 102.240279 290.810273 
" style="fill:none;stroke:#ff0000;stroke-width:1.5;"/>
    <path clip-path="url(#p27d9d21408)" d="M 108.617462 295.488 
L 108.617462 225.45457 
" style="fill:none;stroke:#ff0000;stroke-width:1.5;"/>
    <path clip-path="url(#p27d9d21408)" d="M 114.994644 295.488 
L 114.994644 292.485328 
" style="fill:none;stroke:#ff0000;stroke-width:1.5;"/>
    <path clip-path="url(#p27d9d21408)" d="M 121.371827 295.488 
L 121.371827 284.13965 
" style="fill:none;stroke:#ff0000;stroke-width:1.5;"/>
    <path clip-path="url(#p27d9d21408)" d="M 127.74901 295.488 
L 127.74901 291.175827 
" style="fill:none;stroke:#ff0000;stroke-width:1.5;"/>
    <path clip-path="url(#p27d9d21408)" d="M 134.126193 295.488 
L 134.126193 288.877783 
" style="fill:none;stroke:#ff0000;stroke-width:1.5;"/>
    <path clip-path="url(#p27d9d21408)" d="M 140.503375 295.488 
L 140.503375 289.703857 
" style="fill:none;stroke:#ff0000;stroke-width:1.5;"/>
    <path clip-path="url(#p27d9d21408)" d="M 146.880558 295.488 
L 146.880558 288.125936 
" style="fill:none;stroke:#ff0000;stroke-width:1.5;"/>
    <path clip-path="url(#p27d9d21408)" d="M 153.257741 295.488 
L 153.257741 293.078541 
" style="fill:none;stroke:#ff0000;stroke-width:1.5;"/>
    <path clip-path="url(#p27d9d21408)" d="M 159.634923 295.488 
L 159.634923 287.135586 
" style="fill:none;stroke:#ff0000;stroke-width:1.5;"/>
    <path clip-path="url(#p27d9d21408)" d="M 166.012106 295.488 
L 166.012106 293.464349 
" style="fill:none;stroke:#ff0000;stroke-width:1.5;"/>
    <path clip-path="url(#p27d9d21408)" d="M 172.389289 295.488 
L 172.389289 290.920173 
" style="fill:none;stroke:#ff0000;stroke-width:1.5;"/>
    <path clip-path="url(#p27d9d21408)" d="M 178.766472 295.488 
L 178.766472 285.392522 
" style="fill:none;stroke:#ff0000;stroke-width:1.5;"/>
    <path clip-path="url(#p27d9d21408)" d="M 185.143654 295.488 
L 185.143654 269.509722 
" style="fill:none;stroke:#ff0000;stroke-width:1.5;"/>
    <path clip-path="url(#p27d9d21408)" d="M 191.520837 295.488 
L 191.520837 291.730591 
" style="fill:none;stroke:#ff0000;stroke-width:1.5;"/>
    <path clip-path="url(#p27d9d21408)" d="M 197.89802 295.488 
L 197.89802 290.990824 
" style="fill:none;stroke:#ff0000;stroke-width:1.5;"/>
    <path clip-path="url(#p27d9d21408)" d="M 204.275202 295.488 
L 204.275202 291.582833 
" style="fill:none;stroke:#ff0000;stroke-width:1.5;"/>
    <path clip-path="url(#p27d9d21408)" d="M 210.652385 295.488 
L 210.652385 285.980535 
" style="fill:none;stroke:#ff0000;stroke-width:1.5;"/>
    <path clip-path="url(#p27d9d21408)" d="M 217.029568 295.488 
L 217.029568 292.331721 
" style="fill:none;stroke:#ff0000;stroke-width:1.5;"/>
    <path clip-path="url(#p27d9d21408)" d="M 223.406751 295.488 
L 223.406751 289.52715 
" style="fill:none;stroke:#ff0000;stroke-width:1.5;"/>
    <path clip-path="url(#p27d9d21408)" d="M 229.783933 295.488 
L 229.783933 291.975438 
" style="fill:none;stroke:#ff0000;stroke-width:1.5;"/>
    <path clip-path="url(#p27d9d21408)" d="M 236.161116 295.488 
L 236.161116 293.255965 
" style="fill:none;stroke:#ff0000;stroke-width:1.5;"/>
    <path clip-path="url(#p27d9d21408)" d="M 242.538299 295.488 
L 242.538299 292.643126 
" style="fill:none;stroke:#ff0000;stroke-width:1.5;"/>
    <path clip-path="url(#p27d9d21408)" d="M 248.915481 295.488 
L 248.915481 292.600973 
" style="fill:none;stroke:#ff0000;stroke-width:1.5;"/>
    <path clip-path="url(#p27d9d21408)" d="M 255.292664 295.488 
L 255.292664 294.655274 
" style="fill:none;stroke:#ff0000;stroke-width:1.5;"/>
    <path clip-path="url(#p27d9d21408)" d="M 261.669847 295.488 
L 261.669847 293.976894 
" style="fill:none;stroke:#ff0000;stroke-width:1.5;"/>
    <path clip-path="url(#p27d9d21408)" d="M 268.04703 295.488 
L 268.04703 292.880423 
" style="fill:none;stroke:#ff0000;stroke-width:1.5;"/>
    <path clip-path="url(#p27d9d21408)" d="M 274.424212 295.488 
L 274.424212 289.825221 
" style="fill:none;stroke:#ff0000;stroke-width:1.5;"/>
    <path clip-path="url(#p27d9d21408)" d="M 280.801395 295.488 
L 280.801395 293.32568 
" style="fill:none;stroke:#ff0000;stroke-width:1.5;"/>
    <path clip-path="url(#p27d9d21408)" d="M 287.178578 295.488 
L 287.178578 294.34017 
" style="fill:none;stroke:#ff0000;stroke-width:1.5;"/>
    <path clip-path="url(#p27d9d21408)" d="M 293.55576 295.488 
L 293.55576 291.403428 
" style="fill:none;stroke:#ff0000;stroke-width:1.5;"/>
    <path clip-path="url(#p27d9d21408)" d="M 299.932943 295.488 
L 299.932943 288.446041 
" style="fill:none;stroke:#ff0000;stroke-width:1.5;"/>
    <path clip-path="url(#p27d9d21408)" d="M 306.310126 295.488 
L 306.310126 294.141749 
" style="fill:none;stroke:#ff0000;stroke-width:1.5;"/>
    <path clip-path="url(#p27d9d21408)" d="M 312.687309 295.488 
L 312.687309 293.347745 
" style="fill:none;stroke:#ff0000;stroke-width:1.5;"/>
    <path clip-path="url(#p27d9d21408)" d="M 319.064491 295.488 
L 319.064491 292.485255 
" style="fill:none;stroke:#ff0000;stroke-width:1.5;"/>
    <path clip-path="url(#p27d9d21408)" d="M 325.441674 295.488 
L 325.441674 290.318608 
" style="fill:none;stroke:#ff0000;stroke-width:1.5;"/>
    <path clip-path="url(#p27d9d21408)" d="M 331.818857 295.488 
L 331.818857 294.089895 
" style="fill:none;stroke:#ff0000;stroke-width:1.5;"/>
    <path clip-path="url(#p27d9d21408)" d="M 338.196039 295.488 
L 338.196039 291.224782 
" style="fill:none;stroke:#ff0000;stroke-width:1.5;"/>
    <path clip-path="url(#p27d9d21408)" d="M 344.573222 295.488 
L 344.573222 293.382201 
" style="fill:none;stroke:#ff0000;stroke-width:1.5;"/>
    <path clip-path="url(#p27d9d21408)" d="M 350.950405 295.488 
L 350.950405 293.984038 
" style="fill:none;stroke:#ff0000;stroke-width:1.5;"/>
    <path clip-path="url(#p27d9d21408)" d="M 357.327588 295.488 
L 357.327588 291.86262 
" style="fill:none;stroke:#ff0000;stroke-width:1.5;"/>
    <path clip-path="url(#p27d9d21408)" d="M 363.70477 295.488 
L 363.70477 293.163491 
" style="fill:none;stroke:#ff0000;stroke-width:1.5;"/>
    <path clip-path="url(#p27d9d21408)" d="M 370.081953 295.488 
L 370.081953 294.885839 
" style="fill:none;stroke:#ff0000;stroke-width:1.5;"/>
    <path clip-path="url(#p27d9d21408)" d="M 376.459136 295.488 
L 376.459136 292.877748 
" style="fill:none;stroke:#ff0000;stroke-width:1.5;"/>
    <path clip-path="url(#p27d9d21408)" d="M 382.836318 295.488 
L 382.836318 294.140382 
" style="fill:none;stroke:#ff0000;stroke-width:1.5;"/>
    <path clip-path="url(#p27d9d21408)" d="M 389.213501 295.488 
L 389.213501 294.463669 
" style="fill:none;stroke:#ff0000;stroke-width:1.5;"/>
    <path clip-path="url(#p27d9d21408)" d="M 395.590684 295.488 
L 395.590684 294.559073 
" style="fill:none;stroke:#ff0000;stroke-width:1.5;"/>
    <path clip-path="url(#p27d9d21408)" d="M 401.967867 295.488 
L 401.967867 291.148962 
" style="fill:none;stroke:#ff0000;stroke-width:1.5;"/>
    <path clip-path="url(#p27d9d21408)" d="M 408.345049 295.488 
L 408.345049 295.254142 
" style="fill:none;stroke:#ff0000;stroke-width:1.5;"/>
    <path clip-path="url(#p27d9d21408)" d="M 414.722232 295.488 
L 414.722232 293.844132 
" style="fill:none;stroke:#ff0000;stroke-width:1.5;"/>
    <path clip-path="url(#p27d9d21408)" d="M 421.099415 295.488 
L 421.099415 295.147586 
" style="fill:none;stroke:#ff0000;stroke-width:1.5;"/>
    <path clip-path="url(#p27d9d21408)" d="M 427.476597 295.488 
L 427.476597 294.220842 
" style="fill:none;stroke:#ff0000;stroke-width:1.5;"/>
    <path clip-path="url(#p27d9d21408)" d="M 433.85378 295.488 
L 433.85378 293.949475 
" style="fill:none;stroke:#ff0000;stroke-width:1.5;"/>
    <path clip-path="url(#p27d9d21408)" d="M 440.230963 295.488 
L 440.230963 294.848008 
" style="fill:none;stroke:#ff0000;stroke-width:1.5;"/>
    <path clip-path="url(#p27d9d21408)" d="M 446.608146 295.488 
L 446.608146 294.396266 
" style="fill:none;stroke:#ff0000;stroke-width:1.5;"/>
    <path clip-path="url(#p27d9d21408)" d="M 452.985328 295.488 
L 452.985328 293.759837 
" style="fill:none;stroke:#ff0000;stroke-width:1.5;"/>
    <path clip-path="url(#p27d9d21408)" d="M 459.362511 295.488 
L 459.362511 294.376537 
" style="fill:none;stroke:#ff0000;stroke-width:1.5;"/>
   </g>
   <g id="line2d_33">
    <defs>
     <path d="M 0 3 
C 0.795609 3 1.55874 2.683901 2.12132 2.12132 
C 2.683901 1.55874 3 0.795609 3 0 
C 3 -0.795609 2.683901 -1.55874 2.12132 -2.12132 
C 1.55874 -2.683901 0.795609 -3 0 -3 
C -0.795609 -3 -1.55874 -2.683901 -2.12132 -2.12132 
C -2.683901 -1.55874 -3 -0.795609 -3 0 
C -3 0.795609 -2.683901 1.55874 -2.12132 2.12132 
C -1.55874 2.683901 -0.795609 3 0 3 
z
" id="mfad1092043" style="stroke:#000000;"/>
    </defs>
    <g clip-path="url(#p27d9d21408)">
     <use style="stroke:#000000;" x="57.6" xlink:href="#mfad1092043" y="292.31007"/>
     <use style="stroke:#000000;" x="63.977183" xlink:href="#mfad1092043" y="276.750514"/>
     <use style="stroke:#000000;" x="70.354365" xlink:href="#mfad1092043" y="287.201393"/>
     <use style="stroke:#000000;" x="76.731548" xlink:href="#mfad1092043" y="288.187236"/>
     <use style="stroke:#000000;" x="83.108731" xlink:href="#mfad1092043" y="53.568"/>
     <use style="stroke:#000000;" x="89.485914" xlink:href="#mfad1092043" y="280.50817"/>
     <use style="stroke:#000000;" x="95.863096" xlink:href="#mfad1092043" y="281.529723"/>
     <use style="stroke:#000000;" x="102.240279" xlink:href="#mfad1092043" y="284.308831"/>
     <use style="stroke:#000000;" x="108.617462" xlink:href="#mfad1092043" y="188.94834"/>
     <use style="stroke:#000000;" x="114.994644" xlink:href="#mfad1092043" y="291.701673"/>
     <use style="stroke:#000000;" x="121.371827" xlink:href="#mfad1092043" y="290.624375"/>
     <use style="stroke:#000000;" x="127.74901" xlink:href="#mfad1092043" y="281.62499"/>
     <use style="stroke:#000000;" x="134.126193" xlink:href="#mfad1092043" y="284.635869"/>
     <use style="stroke:#000000;" x="140.503375" xlink:href="#mfad1092043" y="283.531997"/>
     <use style="stroke:#000000;" x="146.880558" xlink:href="#mfad1092043" y="286.681462"/>
     <use style="stroke:#000000;" x="153.257741" xlink:href="#mfad1092043" y="289.877612"/>
     <use style="stroke:#000000;" x="159.634923" xlink:href="#mfad1092043" y="288.476377"/>
     <use style="stroke:#000000;" x="166.012106" xlink:href="#mfad1092043" y="288.994402"/>
     <use style="stroke:#000000;" x="172.389289" xlink:href="#mfad1092043" y="289.811784"/>
     <use style="stroke:#000000;" x="178.766472" xlink:href="#mfad1092043" y="291.952443"/>
     <use style="stroke:#000000;" x="185.143654" xlink:href="#mfad1092043" y="256.191212"/>
     <use style="stroke:#000000;" x="191.520837" xlink:href="#mfad1092043" y="287.49713"/>
     <use style="stroke:#000000;" x="197.89802" xlink:href="#mfad1092043" y="291.954461"/>
     <use style="stroke:#000000;" x="204.275202" xlink:href="#mfad1092043" y="288.457541"/>
     <use style="stroke:#000000;" x="210.652385" xlink:href="#mfad1092043" y="291.764901"/>
     <use style="stroke:#000000;" x="217.029568" xlink:href="#mfad1092043" y="293.62464"/>
     <use style="stroke:#000000;" x="223.406751" xlink:href="#mfad1092043" y="286.647131"/>
     <use style="stroke:#000000;" x="229.783933" xlink:href="#mfad1092043" y="288.040889"/>
     <use style="stroke:#000000;" x="236.161116" xlink:href="#mfad1092043" y="286.14495"/>
     <use style="stroke:#000000;" x="242.538299" xlink:href="#mfad1092043" y="288.348794"/>
     <use style="stroke:#000000;" x="248.915481" xlink:href="#mfad1092043" y="289.008308"/>
     <use style="stroke:#000000;" x="255.292664" xlink:href="#mfad1092043" y="288.909643"/>
     <use style="stroke:#000000;" x="261.669847" xlink:href="#mfad1092043" y="290.805625"/>
     <use style="stroke:#000000;" x="268.04703" xlink:href="#mfad1092043" y="289.81284"/>
     <use style="stroke:#000000;" x="274.424212" xlink:href="#mfad1092043" y="293.059515"/>
     <use style="stroke:#000000;" x="280.801395" xlink:href="#mfad1092043" y="285.968595"/>
     <use style="stroke:#000000;" x="287.178578" xlink:href="#mfad1092043" y="293.673859"/>
     <use style="stroke:#000000;" x="293.55576" xlink:href="#mfad1092043" y="286.998055"/>
     <use style="stroke:#000000;" x="299.932943" xlink:href="#mfad1092043" y="293.042341"/>
     <use style="stroke:#000000;" x="306.310126" xlink:href="#mfad1092043" y="290.930218"/>
     <use style="stroke:#000000;" x="312.687309" xlink:href="#mfad1092043" y="292.6217"/>
     <use style="stroke:#000000;" x="319.064491" xlink:href="#mfad1092043" y="293.271981"/>
     <use style="stroke:#000000;" x="325.441674" xlink:href="#mfad1092043" y="294.966207"/>
     <use style="stroke:#000000;" x="331.818857" xlink:href="#mfad1092043" y="291.553325"/>
     <use style="stroke:#000000;" x="338.196039" xlink:href="#mfad1092043" y="291.110206"/>
     <use style="stroke:#000000;" x="344.573222" xlink:href="#mfad1092043" y="290.979878"/>
     <use style="stroke:#000000;" x="350.950405" xlink:href="#mfad1092043" y="292.498412"/>
     <use style="stroke:#000000;" x="357.327588" xlink:href="#mfad1092043" y="292.282994"/>
     <use style="stroke:#000000;" x="363.70477" xlink:href="#mfad1092043" y="294.767864"/>
     <use style="stroke:#000000;" x="370.081953" xlink:href="#mfad1092043" y="289.364028"/>
     <use style="stroke:#000000;" x="376.459136" xlink:href="#mfad1092043" y="294.683063"/>
     <use style="stroke:#000000;" x="382.836318" xlink:href="#mfad1092043" y="294.089723"/>
     <use style="stroke:#000000;" x="389.213501" xlink:href="#mfad1092043" y="290.509716"/>
     <use style="stroke:#000000;" x="395.590684" xlink:href="#mfad1092043" y="292.426521"/>
     <use style="stroke:#000000;" x="401.967867" xlink:href="#mfad1092043" y="293.95933"/>
     <use style="stroke:#000000;" x="408.345049" xlink:href="#mfad1092043" y="291.875136"/>
     <use style="stroke:#000000;" x="414.722232" xlink:href="#mfad1092043" y="291.870167"/>
     <use style="stroke:#000000;" x="421.099415" xlink:href="#mfad1092043" y="293.476751"/>
     <use style="stroke:#000000;" x="427.476597" xlink:href="#mfad1092043" y="293.978676"/>
     <use style="stroke:#000000;" x="433.85378" xlink:href="#mfad1092043" y="293.295373"/>
     <use style="stroke:#000000;" x="440.230963" xlink:href="#mfad1092043" y="294.076813"/>
     <use style="stroke:#000000;" x="446.608146" xlink:href="#mfad1092043" y="292.9313"/>
     <use style="stroke:#000000;" x="452.985328" xlink:href="#mfad1092043" y="292.489681"/>
     <use style="stroke:#000000;" x="459.362511" xlink:href="#mfad1092043" y="294.471714"/>
    </g>
   </g>
   <g id="line2d_34">
    <defs>
     <path d="M -3 3 
L 3 -3 
M -3 -3 
L 3 3 
" id="ma360c7fe1f" style="stroke:#ff0000;"/>
    </defs>
    <g clip-path="url(#p27d9d21408)">
     <use style="fill:#ff0000;stroke:#ff0000;" x="57.6" xlink:href="#ma360c7fe1f" y="294.136697"/>
     <use style="fill:#ff0000;stroke:#ff0000;" x="63.977183" xlink:href="#ma360c7fe1f" y="251.719841"/>
     <use style="fill:#ff0000;stroke:#ff0000;" x="70.354365" xlink:href="#ma360c7fe1f" y="266.945145"/>
     <use style="fill:#ff0000;stroke:#ff0000;" x="76.731548" xlink:href="#ma360c7fe1f" y="288.143871"/>
     <use style="fill:#ff0000;stroke:#ff0000;" x="83.108731" xlink:href="#ma360c7fe1f" y="135.623369"/>
     <use style="fill:#ff0000;stroke:#ff0000;" x="89.485914" xlink:href="#ma360c7fe1f" y="281.256391"/>
     <use style="fill:#ff0000;stroke:#ff0000;" x="95.863096" xlink:href="#ma360c7fe1f" y="286.558569"/>
     <use style="fill:#ff0000;stroke:#ff0000;" x="102.240279" xlink:href="#ma360c7fe1f" y="290.810273"/>
     <use style="fill:#ff0000;stroke:#ff0000;" x="108.617462" xlink:href="#ma360c7fe1f" y="225.45457"/>
     <use style="fill:#ff0000;stroke:#ff0000;" x="114.994644" xlink:href="#ma360c7fe1f" y="292.485328"/>
     <use style="fill:#ff0000;stroke:#ff0000;" x="121.371827" xlink:href="#ma360c7fe1f" y="284.13965"/>
     <use style="fill:#ff0000;stroke:#ff0000;" x="127.74901" xlink:href="#ma360c7fe1f" y="291.175827"/>
     <use style="fill:#ff0000;stroke:#ff0000;" x="134.126193" xlink:href="#ma360c7fe1f" y="288.877783"/>
     <use style="fill:#ff0000;stroke:#ff0000;" x="140.503375" xlink:href="#ma360c7fe1f" y="289.703857"/>
     <use style="fill:#ff0000;stroke:#ff0000;" x="146.880558" xlink:href="#ma360c7fe1f" y="288.125936"/>
     <use style="fill:#ff0000;stroke:#ff0000;" x="153.257741" xlink:href="#ma360c7fe1f" y="293.078541"/>
     <use style="fill:#ff0000;stroke:#ff0000;" x="159.634923" xlink:href="#ma360c7fe1f" y="287.135586"/>
     <use style="fill:#ff0000;stroke:#ff0000;" x="166.012106" xlink:href="#ma360c7fe1f" y="293.464349"/>
     <use style="fill:#ff0000;stroke:#ff0000;" x="172.389289" xlink:href="#ma360c7fe1f" y="290.920173"/>
     <use style="fill:#ff0000;stroke:#ff0000;" x="178.766472" xlink:href="#ma360c7fe1f" y="285.392522"/>
     <use style="fill:#ff0000;stroke:#ff0000;" x="185.143654" xlink:href="#ma360c7fe1f" y="269.509722"/>
     <use style="fill:#ff0000;stroke:#ff0000;" x="191.520837" xlink:href="#ma360c7fe1f" y="291.730591"/>
     <use style="fill:#ff0000;stroke:#ff0000;" x="197.89802" xlink:href="#ma360c7fe1f" y="290.990824"/>
     <use style="fill:#ff0000;stroke:#ff0000;" x="204.275202" xlink:href="#ma360c7fe1f" y="291.582833"/>
     <use style="fill:#ff0000;stroke:#ff0000;" x="210.652385" xlink:href="#ma360c7fe1f" y="285.980535"/>
     <use style="fill:#ff0000;stroke:#ff0000;" x="217.029568" xlink:href="#ma360c7fe1f" y="292.331721"/>
     <use style="fill:#ff0000;stroke:#ff0000;" x="223.406751" xlink:href="#ma360c7fe1f" y="289.52715"/>
     <use style="fill:#ff0000;stroke:#ff0000;" x="229.783933" xlink:href="#ma360c7fe1f" y="291.975438"/>
     <use style="fill:#ff0000;stroke:#ff0000;" x="236.161116" xlink:href="#ma360c7fe1f" y="293.255965"/>
     <use style="fill:#ff0000;stroke:#ff0000;" x="242.538299" xlink:href="#ma360c7fe1f" y="292.643126"/>
     <use style="fill:#ff0000;stroke:#ff0000;" x="248.915481" xlink:href="#ma360c7fe1f" y="292.600973"/>
     <use style="fill:#ff0000;stroke:#ff0000;" x="255.292664" xlink:href="#ma360c7fe1f" y="294.655274"/>
     <use style="fill:#ff0000;stroke:#ff0000;" x="261.669847" xlink:href="#ma360c7fe1f" y="293.976894"/>
     <use style="fill:#ff0000;stroke:#ff0000;" x="268.04703" xlink:href="#ma360c7fe1f" y="292.880423"/>
     <use style="fill:#ff0000;stroke:#ff0000;" x="274.424212" xlink:href="#ma360c7fe1f" y="289.825221"/>
     <use style="fill:#ff0000;stroke:#ff0000;" x="280.801395" xlink:href="#ma360c7fe1f" y="293.32568"/>
     <use style="fill:#ff0000;stroke:#ff0000;" x="287.178578" xlink:href="#ma360c7fe1f" y="294.34017"/>
     <use style="fill:#ff0000;stroke:#ff0000;" x="293.55576" xlink:href="#ma360c7fe1f" y="291.403428"/>
     <use style="fill:#ff0000;stroke:#ff0000;" x="299.932943" xlink:href="#ma360c7fe1f" y="288.446041"/>
     <use style="fill:#ff0000;stroke:#ff0000;" x="306.310126" xlink:href="#ma360c7fe1f" y="294.141749"/>
     <use style="fill:#ff0000;stroke:#ff0000;" x="312.687309" xlink:href="#ma360c7fe1f" y="293.347745"/>
     <use style="fill:#ff0000;stroke:#ff0000;" x="319.064491" xlink:href="#ma360c7fe1f" y="292.485255"/>
     <use style="fill:#ff0000;stroke:#ff0000;" x="325.441674" xlink:href="#ma360c7fe1f" y="290.318608"/>
     <use style="fill:#ff0000;stroke:#ff0000;" x="331.818857" xlink:href="#ma360c7fe1f" y="294.089895"/>
     <use style="fill:#ff0000;stroke:#ff0000;" x="338.196039" xlink:href="#ma360c7fe1f" y="291.224782"/>
     <use style="fill:#ff0000;stroke:#ff0000;" x="344.573222" xlink:href="#ma360c7fe1f" y="293.382201"/>
     <use style="fill:#ff0000;stroke:#ff0000;" x="350.950405" xlink:href="#ma360c7fe1f" y="293.984038"/>
     <use style="fill:#ff0000;stroke:#ff0000;" x="357.327588" xlink:href="#ma360c7fe1f" y="291.86262"/>
     <use style="fill:#ff0000;stroke:#ff0000;" x="363.70477" xlink:href="#ma360c7fe1f" y="293.163491"/>
     <use style="fill:#ff0000;stroke:#ff0000;" x="370.081953" xlink:href="#ma360c7fe1f" y="294.885839"/>
     <use style="fill:#ff0000;stroke:#ff0000;" x="376.459136" xlink:href="#ma360c7fe1f" y="292.877748"/>
     <use style="fill:#ff0000;stroke:#ff0000;" x="382.836318" xlink:href="#ma360c7fe1f" y="294.140382"/>
     <use style="fill:#ff0000;stroke:#ff0000;" x="389.213501" xlink:href="#ma360c7fe1f" y="294.463669"/>
     <use style="fill:#ff0000;stroke:#ff0000;" x="395.590684" xlink:href="#ma360c7fe1f" y="294.559073"/>
     <use style="fill:#ff0000;stroke:#ff0000;" x="401.967867" xlink:href="#ma360c7fe1f" y="291.148962"/>
     <use style="fill:#ff0000;stroke:#ff0000;" x="408.345049" xlink:href="#ma360c7fe1f" y="295.254142"/>
     <use style="fill:#ff0000;stroke:#ff0000;" x="414.722232" xlink:href="#ma360c7fe1f" y="293.844132"/>
     <use style="fill:#ff0000;stroke:#ff0000;" x="421.099415" xlink:href="#ma360c7fe1f" y="295.147586"/>
     <use style="fill:#ff0000;stroke:#ff0000;" x="427.476597" xlink:href="#ma360c7fe1f" y="294.220842"/>
     <use style="fill:#ff0000;stroke:#ff0000;" x="433.85378" xlink:href="#ma360c7fe1f" y="293.949475"/>
     <use style="fill:#ff0000;stroke:#ff0000;" x="440.230963" xlink:href="#ma360c7fe1f" y="294.848008"/>
     <use style="fill:#ff0000;stroke:#ff0000;" x="446.608146" xlink:href="#ma360c7fe1f" y="294.396266"/>
     <use style="fill:#ff0000;stroke:#ff0000;" x="452.985328" xlink:href="#ma360c7fe1f" y="293.759837"/>
     <use style="fill:#ff0000;stroke:#ff0000;" x="459.362511" xlink:href="#ma360c7fe1f" y="294.376537"/>
    </g>
   </g>
   <g id="patch_3">
    <path d="M 57.6 307.584 
L 57.6 41.472 
" style="fill:none;stroke:#000000;stroke-linecap:square;stroke-linejoin:miter;stroke-width:0.8;"/>
   </g>
   <g id="patch_4">
    <path d="M 414.72 307.584 
L 414.72 41.472 
" style="fill:none;stroke:#000000;stroke-linecap:square;stroke-linejoin:miter;stroke-width:0.8;"/>
   </g>
   <g id="patch_5">
    <path d="M 57.6 307.584 
L 414.72 307.584 
" style="fill:none;stroke:#000000;stroke-linecap:square;stroke-linejoin:miter;stroke-width:0.8;"/>
   </g>
   <g id="patch_6">
    <path d="M 57.6 41.472 
L 414.72 41.472 
" style="fill:none;stroke:#000000;stroke-linecap:square;stroke-linejoin:miter;stroke-width:0.8;"/>
   </g>
   <g id="legend_1">
    <g id="patch_7">
     <path d="M 335.768438 78.82825 
L 407.72 78.82825 
Q 409.72 78.82825 409.72 76.82825 
L 409.72 48.472 
Q 409.72 46.472 407.72 46.472 
L 335.768438 46.472 
Q 333.768438 46.472 333.768438 48.472 
L 333.768438 76.82825 
Q 333.768438 78.82825 335.768438 78.82825 
z
" style="fill:#ffffff;opacity:0.8;stroke:#cccccc;stroke-linejoin:miter;"/>
    </g>
    <g id="line2d_35"/>
    <g id="line2d_36">
     <g>
      <use style="stroke:#000000;" x="347.768438" xlink:href="#mfad1092043" y="54.570437"/>
     </g>
    </g>
    <g id="text_19">
     <!-- Sem CR -->
     <defs>
      <path d="M 53.515625 70.515625 
L 53.515625 60.890625 
Q 47.90625 63.578125 42.921875 64.890625 
Q 37.9375 66.21875 33.296875 66.21875 
Q 25.25 66.21875 20.875 63.09375 
Q 16.5 59.96875 16.5 54.203125 
Q 16.5 49.359375 19.40625 46.890625 
Q 22.3125 44.4375 30.421875 42.921875 
L 36.375 41.703125 
Q 47.40625 39.59375 52.65625 34.296875 
Q 57.90625 29 57.90625 20.125 
Q 57.90625 9.515625 50.796875 4.046875 
Q 43.703125 -1.421875 29.984375 -1.421875 
Q 24.8125 -1.421875 18.96875 -0.25 
Q 13.140625 0.921875 6.890625 3.21875 
L 6.890625 13.375 
Q 12.890625 10.015625 18.65625 8.296875 
Q 24.421875 6.59375 29.984375 6.59375 
Q 38.421875 6.59375 43.015625 9.90625 
Q 47.609375 13.234375 47.609375 19.390625 
Q 47.609375 24.75 44.3125 27.78125 
Q 41.015625 30.8125 33.5 32.328125 
L 27.484375 33.5 
Q 16.453125 35.6875 11.515625 40.375 
Q 6.59375 45.0625 6.59375 53.421875 
Q 6.59375 63.09375 13.40625 68.65625 
Q 20.21875 74.21875 32.171875 74.21875 
Q 37.3125 74.21875 42.625 73.28125 
Q 47.953125 72.359375 53.515625 70.515625 
z
" id="DejaVuSans-83"/>
      <path d="M 64.40625 67.28125 
L 64.40625 56.890625 
Q 59.421875 61.53125 53.78125 63.8125 
Q 48.140625 66.109375 41.796875 66.109375 
Q 29.296875 66.109375 22.65625 58.46875 
Q 16.015625 50.828125 16.015625 36.375 
Q 16.015625 21.96875 22.65625 14.328125 
Q 29.296875 6.6875 41.796875 6.6875 
Q 48.140625 6.6875 53.78125 8.984375 
Q 59.421875 11.28125 64.40625 15.921875 
L 64.40625 5.609375 
Q 59.234375 2.09375 53.4375 0.328125 
Q 47.65625 -1.421875 41.21875 -1.421875 
Q 24.65625 -1.421875 15.125 8.703125 
Q 5.609375 18.84375 5.609375 36.375 
Q 5.609375 53.953125 15.125 64.078125 
Q 24.65625 74.21875 41.21875 74.21875 
Q 47.75 74.21875 53.53125 72.484375 
Q 59.328125 70.75 64.40625 67.28125 
z
" id="DejaVuSans-67"/>
      <path d="M 44.390625 34.1875 
Q 47.5625 33.109375 50.5625 29.59375 
Q 53.5625 26.078125 56.59375 19.921875 
L 66.609375 0 
L 56 0 
L 46.6875 18.703125 
Q 43.0625 26.03125 39.671875 28.421875 
Q 36.28125 30.8125 30.421875 30.8125 
L 19.671875 30.8125 
L 19.671875 0 
L 9.8125 0 
L 9.8125 72.90625 
L 32.078125 72.90625 
Q 44.578125 72.90625 50.734375 67.671875 
Q 56.890625 62.453125 56.890625 51.90625 
Q 56.890625 45.015625 53.6875 40.46875 
Q 50.484375 35.9375 44.390625 34.1875 
z
M 19.671875 64.796875 
L 19.671875 38.921875 
L 32.078125 38.921875 
Q 39.203125 38.921875 42.84375 42.21875 
Q 46.484375 45.515625 46.484375 51.90625 
Q 46.484375 58.296875 42.84375 61.546875 
Q 39.203125 64.796875 32.078125 64.796875 
z
" id="DejaVuSans-82"/>
     </defs>
     <g transform="translate(365.768438 58.070437)scale(0.1 -0.1)">
      <use xlink:href="#DejaVuSans-83"/>
      <use x="63.476562" xlink:href="#DejaVuSans-101"/>
      <use x="125" xlink:href="#DejaVuSans-109"/>
      <use x="222.412109" xlink:href="#DejaVuSans-32"/>
      <use x="254.199219" xlink:href="#DejaVuSans-67"/>
      <use x="324.023438" xlink:href="#DejaVuSans-82"/>
     </g>
    </g>
    <g id="line2d_37"/>
    <g id="line2d_38">
     <g>
      <use style="fill:#ff0000;stroke:#ff0000;" x="347.768438" xlink:href="#ma360c7fe1f" y="69.248562"/>
     </g>
    </g>
    <g id="text_20">
     <!-- Com CR -->
     <g transform="translate(365.768438 72.748562)scale(0.1 -0.1)">
      <use xlink:href="#DejaVuSans-67"/>
      <use x="69.824219" xlink:href="#DejaVuSans-111"/>
      <use x="131.005859" xlink:href="#DejaVuSans-109"/>
      <use x="228.417969" xlink:href="#DejaVuSans-32"/>
      <use x="260.205078" xlink:href="#DejaVuSans-67"/>
      <use x="330.029297" xlink:href="#DejaVuSans-82"/>
     </g>
    </g>
   </g>
  </g>
 </g>
 <defs>
  <clipPath id="p27d9d21408">
   <rect height="266.112" width="357.12" x="57.6" y="41.472"/>
  </clipPath>
 </defs>
</svg>
