<?xml version="1.0" encoding="utf-8" standalone="no"?>
<!DOCTYPE svg PUBLIC "-//W3C//DTD SVG 1.1//EN"
  "http://www.w3.org/Graphics/SVG/1.1/DTD/svg11.dtd">
<!-- Created with matplotlib (https://matplotlib.org/) -->
<svg height="345.6pt" version="1.1" viewBox="0 0 460.8 345.6" width="460.8pt" xmlns="http://www.w3.org/2000/svg" xmlns:xlink="http://www.w3.org/1999/xlink">
 <defs>
  <style type="text/css">
*{stroke-linecap:butt;stroke-linejoin:round;}
  </style>
 </defs>
 <g id="figure_1">
  <g id="patch_1">
   <path d="M 0 345.6 
L 460.8 345.6 
L 460.8 0 
L 0 0 
z
" style="fill:#ffffff;"/>
  </g>
  <g id="axes_1">
   <g id="patch_2">
    <path d="M 57.6 307.584 
L 414.72 307.584 
L 414.72 41.472 
L 57.6 41.472 
z
" style="fill:#ffffff;"/>
   </g>
   <g id="matplotlib.axis_1">
    <g id="xtick_1">
     <g id="line2d_1">
      <defs>
       <path d="M 0 0 
L 0 3.5 
" id="m7ef6edb4be" style="stroke:#000000;stroke-width:0.8;"/>
      </defs>
      <g>
       <use style="stroke:#000000;stroke-width:0.8;" x="73.832727" xlink:href="#m7ef6edb4be" y="307.584"/>
      </g>
     </g>
     <g id="text_1">
      <!-- 0 -->
      <defs>
       <path d="M 31.78125 66.40625 
Q 24.171875 66.40625 20.328125 58.90625 
Q 16.5 51.421875 16.5 36.375 
Q 16.5 21.390625 20.328125 13.890625 
Q 24.171875 6.390625 31.78125 6.390625 
Q 39.453125 6.390625 43.28125 13.890625 
Q 47.125 21.390625 47.125 36.375 
Q 47.125 51.421875 43.28125 58.90625 
Q 39.453125 66.40625 31.78125 66.40625 
z
M 31.78125 74.21875 
Q 44.046875 74.21875 50.515625 64.515625 
Q 56.984375 54.828125 56.984375 36.375 
Q 56.984375 17.96875 50.515625 8.265625 
Q 44.046875 -1.421875 31.78125 -1.421875 
Q 19.53125 -1.421875 13.0625 8.265625 
Q 6.59375 17.96875 6.59375 36.375 
Q 6.59375 54.828125 13.0625 64.515625 
Q 19.53125 74.21875 31.78125 74.21875 
z
" id="DejaVuSans-48"/>
      </defs>
      <g transform="translate(70.651477 322.182437)scale(0.1 -0.1)">
       <use xlink:href="#DejaVuSans-48"/>
      </g>
     </g>
    </g>
    <g id="xtick_2">
     <g id="line2d_2">
      <g>
       <use style="stroke:#000000;stroke-width:0.8;" x="138.77013" xlink:href="#m7ef6edb4be" y="307.584"/>
      </g>
     </g>
     <g id="text_2">
      <!-- 100 -->
      <defs>
       <path d="M 12.40625 8.296875 
L 28.515625 8.296875 
L 28.515625 63.921875 
L 10.984375 60.40625 
L 10.984375 69.390625 
L 28.421875 72.90625 
L 38.28125 72.90625 
L 38.28125 8.296875 
L 54.390625 8.296875 
L 54.390625 0 
L 12.40625 0 
z
" id="DejaVuSans-49"/>
      </defs>
      <g transform="translate(129.22638 322.182437)scale(0.1 -0.1)">
       <use xlink:href="#DejaVuSans-49"/>
       <use x="63.623047" xlink:href="#DejaVuSans-48"/>
       <use x="127.246094" xlink:href="#DejaVuSans-48"/>
      </g>
     </g>
    </g>
    <g id="xtick_3">
     <g id="line2d_3">
      <g>
       <use style="stroke:#000000;stroke-width:0.8;" x="203.707533" xlink:href="#m7ef6edb4be" y="307.584"/>
      </g>
     </g>
     <g id="text_3">
      <!-- 200 -->
      <defs>
       <path d="M 19.1875 8.296875 
L 53.609375 8.296875 
L 53.609375 0 
L 7.328125 0 
L 7.328125 8.296875 
Q 12.9375 14.109375 22.625 23.890625 
Q 32.328125 33.6875 34.8125 36.53125 
Q 39.546875 41.84375 41.421875 45.53125 
Q 43.3125 49.21875 43.3125 52.78125 
Q 43.3125 58.59375 39.234375 62.25 
Q 35.15625 65.921875 28.609375 65.921875 
Q 23.96875 65.921875 18.8125 64.3125 
Q 13.671875 62.703125 7.8125 59.421875 
L 7.8125 69.390625 
Q 13.765625 71.78125 18.9375 73 
Q 24.125 74.21875 28.421875 74.21875 
Q 39.75 74.21875 46.484375 68.546875 
Q 53.21875 62.890625 53.21875 53.421875 
Q 53.21875 48.921875 51.53125 44.890625 
Q 49.859375 40.875 45.40625 35.40625 
Q 44.1875 33.984375 37.640625 27.21875 
Q 31.109375 20.453125 19.1875 8.296875 
z
" id="DejaVuSans-50"/>
      </defs>
      <g transform="translate(194.163783 322.182437)scale(0.1 -0.1)">
       <use xlink:href="#DejaVuSans-50"/>
       <use x="63.623047" xlink:href="#DejaVuSans-48"/>
       <use x="127.246094" xlink:href="#DejaVuSans-48"/>
      </g>
     </g>
    </g>
    <g id="xtick_4">
     <g id="line2d_4">
      <g>
       <use style="stroke:#000000;stroke-width:0.8;" x="268.644936" xlink:href="#m7ef6edb4be" y="307.584"/>
      </g>
     </g>
     <g id="text_4">
      <!-- 300 -->
      <defs>
       <path d="M 40.578125 39.3125 
Q 47.65625 37.796875 51.625 33 
Q 55.609375 28.21875 55.609375 21.1875 
Q 55.609375 10.40625 48.1875 4.484375 
Q 40.765625 -1.421875 27.09375 -1.421875 
Q 22.515625 -1.421875 17.65625 -0.515625 
Q 12.796875 0.390625 7.625 2.203125 
L 7.625 11.71875 
Q 11.71875 9.328125 16.59375 8.109375 
Q 21.484375 6.890625 26.8125 6.890625 
Q 36.078125 6.890625 40.9375 10.546875 
Q 45.796875 14.203125 45.796875 21.1875 
Q 45.796875 27.640625 41.28125 31.265625 
Q 36.765625 34.90625 28.71875 34.90625 
L 20.21875 34.90625 
L 20.21875 43.015625 
L 29.109375 43.015625 
Q 36.375 43.015625 40.234375 45.921875 
Q 44.09375 48.828125 44.09375 54.296875 
Q 44.09375 59.90625 40.109375 62.90625 
Q 36.140625 65.921875 28.71875 65.921875 
Q 24.65625 65.921875 20.015625 65.03125 
Q 15.375 64.15625 9.8125 62.3125 
L 9.8125 71.09375 
Q 15.4375 72.65625 20.34375 73.4375 
Q 25.25 74.21875 29.59375 74.21875 
Q 40.828125 74.21875 47.359375 69.109375 
Q 53.90625 64.015625 53.90625 55.328125 
Q 53.90625 49.265625 50.4375 45.09375 
Q 46.96875 40.921875 40.578125 39.3125 
z
" id="DejaVuSans-51"/>
      </defs>
      <g transform="translate(259.101186 322.182437)scale(0.1 -0.1)">
       <use xlink:href="#DejaVuSans-51"/>
       <use x="63.623047" xlink:href="#DejaVuSans-48"/>
       <use x="127.246094" xlink:href="#DejaVuSans-48"/>
      </g>
     </g>
    </g>
    <g id="xtick_5">
     <g id="line2d_5">
      <g>
       <use style="stroke:#000000;stroke-width:0.8;" x="333.582339" xlink:href="#m7ef6edb4be" y="307.584"/>
      </g>
     </g>
     <g id="text_5">
      <!-- 400 -->
      <defs>
       <path d="M 37.796875 64.3125 
L 12.890625 25.390625 
L 37.796875 25.390625 
z
M 35.203125 72.90625 
L 47.609375 72.90625 
L 47.609375 25.390625 
L 58.015625 25.390625 
L 58.015625 17.1875 
L 47.609375 17.1875 
L 47.609375 0 
L 37.796875 0 
L 37.796875 17.1875 
L 4.890625 17.1875 
L 4.890625 26.703125 
z
" id="DejaVuSans-52"/>
      </defs>
      <g transform="translate(324.038589 322.182437)scale(0.1 -0.1)">
       <use xlink:href="#DejaVuSans-52"/>
       <use x="63.623047" xlink:href="#DejaVuSans-48"/>
       <use x="127.246094" xlink:href="#DejaVuSans-48"/>
      </g>
     </g>
    </g>
    <g id="xtick_6">
     <g id="line2d_6">
      <g>
       <use style="stroke:#000000;stroke-width:0.8;" x="398.519741" xlink:href="#m7ef6edb4be" y="307.584"/>
      </g>
     </g>
     <g id="text_6">
      <!-- 500 -->
      <defs>
       <path d="M 10.796875 72.90625 
L 49.515625 72.90625 
L 49.515625 64.59375 
L 19.828125 64.59375 
L 19.828125 46.734375 
Q 21.96875 47.46875 24.109375 47.828125 
Q 26.265625 48.1875 28.421875 48.1875 
Q 40.625 48.1875 47.75 41.5 
Q 54.890625 34.8125 54.890625 23.390625 
Q 54.890625 11.625 47.5625 5.09375 
Q 40.234375 -1.421875 26.90625 -1.421875 
Q 22.3125 -1.421875 17.546875 -0.640625 
Q 12.796875 0.140625 7.71875 1.703125 
L 7.71875 11.625 
Q 12.109375 9.234375 16.796875 8.0625 
Q 21.484375 6.890625 26.703125 6.890625 
Q 35.15625 6.890625 40.078125 11.328125 
Q 45.015625 15.765625 45.015625 23.390625 
Q 45.015625 31 40.078125 35.4375 
Q 35.15625 39.890625 26.703125 39.890625 
Q 22.75 39.890625 18.8125 39.015625 
Q 14.890625 38.140625 10.796875 36.28125 
z
" id="DejaVuSans-53"/>
      </defs>
      <g transform="translate(388.975991 322.182437)scale(0.1 -0.1)">
       <use xlink:href="#DejaVuSans-53"/>
       <use x="63.623047" xlink:href="#DejaVuSans-48"/>
       <use x="127.246094" xlink:href="#DejaVuSans-48"/>
      </g>
     </g>
    </g>
    <g id="text_7">
     <!-- Tempo (ms) -->
     <defs>
      <path d="M -0.296875 72.90625 
L 61.375 72.90625 
L 61.375 64.59375 
L 35.5 64.59375 
L 35.5 0 
L 25.59375 0 
L 25.59375 64.59375 
L -0.296875 64.59375 
z
" id="DejaVuSans-84"/>
      <path d="M 56.203125 29.59375 
L 56.203125 25.203125 
L 14.890625 25.203125 
Q 15.484375 15.921875 20.484375 11.0625 
Q 25.484375 6.203125 34.421875 6.203125 
Q 39.59375 6.203125 44.453125 7.46875 
Q 49.3125 8.734375 54.109375 11.28125 
L 54.109375 2.78125 
Q 49.265625 0.734375 44.1875 -0.34375 
Q 39.109375 -1.421875 33.890625 -1.421875 
Q 20.796875 -1.421875 13.15625 6.1875 
Q 5.515625 13.8125 5.515625 26.8125 
Q 5.515625 40.234375 12.765625 48.109375 
Q 20.015625 56 32.328125 56 
Q 43.359375 56 49.78125 48.890625 
Q 56.203125 41.796875 56.203125 29.59375 
z
M 47.21875 32.234375 
Q 47.125 39.59375 43.09375 43.984375 
Q 39.0625 48.390625 32.421875 48.390625 
Q 24.90625 48.390625 20.390625 44.140625 
Q 15.875 39.890625 15.1875 32.171875 
z
" id="DejaVuSans-101"/>
      <path d="M 52 44.1875 
Q 55.375 50.25 60.0625 53.125 
Q 64.75 56 71.09375 56 
Q 79.640625 56 84.28125 50.015625 
Q 88.921875 44.046875 88.921875 33.015625 
L 88.921875 0 
L 79.890625 0 
L 79.890625 32.71875 
Q 79.890625 40.578125 77.09375 44.375 
Q 74.3125 48.1875 68.609375 48.1875 
Q 61.625 48.1875 57.5625 43.546875 
Q 53.515625 38.921875 53.515625 30.90625 
L 53.515625 0 
L 44.484375 0 
L 44.484375 32.71875 
Q 44.484375 40.625 41.703125 44.40625 
Q 38.921875 48.1875 33.109375 48.1875 
Q 26.21875 48.1875 22.15625 43.53125 
Q 18.109375 38.875 18.109375 30.90625 
L 18.109375 0 
L 9.078125 0 
L 9.078125 54.6875 
L 18.109375 54.6875 
L 18.109375 46.1875 
Q 21.1875 51.21875 25.484375 53.609375 
Q 29.78125 56 35.6875 56 
Q 41.65625 56 45.828125 52.96875 
Q 50 49.953125 52 44.1875 
z
" id="DejaVuSans-109"/>
      <path d="M 18.109375 8.203125 
L 18.109375 -20.796875 
L 9.078125 -20.796875 
L 9.078125 54.6875 
L 18.109375 54.6875 
L 18.109375 46.390625 
Q 20.953125 51.265625 25.265625 53.625 
Q 29.59375 56 35.59375 56 
Q 45.5625 56 51.78125 48.09375 
Q 58.015625 40.1875 58.015625 27.296875 
Q 58.015625 14.40625 51.78125 6.484375 
Q 45.5625 -1.421875 35.59375 -1.421875 
Q 29.59375 -1.421875 25.265625 0.953125 
Q 20.953125 3.328125 18.109375 8.203125 
z
M 48.6875 27.296875 
Q 48.6875 37.203125 44.609375 42.84375 
Q 40.53125 48.484375 33.40625 48.484375 
Q 26.265625 48.484375 22.1875 42.84375 
Q 18.109375 37.203125 18.109375 27.296875 
Q 18.109375 17.390625 22.1875 11.75 
Q 26.265625 6.109375 33.40625 6.109375 
Q 40.53125 6.109375 44.609375 11.75 
Q 48.6875 17.390625 48.6875 27.296875 
z
" id="DejaVuSans-112"/>
      <path d="M 30.609375 48.390625 
Q 23.390625 48.390625 19.1875 42.75 
Q 14.984375 37.109375 14.984375 27.296875 
Q 14.984375 17.484375 19.15625 11.84375 
Q 23.34375 6.203125 30.609375 6.203125 
Q 37.796875 6.203125 41.984375 11.859375 
Q 46.1875 17.53125 46.1875 27.296875 
Q 46.1875 37.015625 41.984375 42.703125 
Q 37.796875 48.390625 30.609375 48.390625 
z
M 30.609375 56 
Q 42.328125 56 49.015625 48.375 
Q 55.71875 40.765625 55.71875 27.296875 
Q 55.71875 13.875 49.015625 6.21875 
Q 42.328125 -1.421875 30.609375 -1.421875 
Q 18.84375 -1.421875 12.171875 6.21875 
Q 5.515625 13.875 5.515625 27.296875 
Q 5.515625 40.765625 12.171875 48.375 
Q 18.84375 56 30.609375 56 
z
" id="DejaVuSans-111"/>
      <path id="DejaVuSans-32"/>
      <path d="M 31 75.875 
Q 24.46875 64.65625 21.28125 53.65625 
Q 18.109375 42.671875 18.109375 31.390625 
Q 18.109375 20.125 21.3125 9.0625 
Q 24.515625 -2 31 -13.1875 
L 23.1875 -13.1875 
Q 15.875 -1.703125 12.234375 9.375 
Q 8.59375 20.453125 8.59375 31.390625 
Q 8.59375 42.28125 12.203125 53.3125 
Q 15.828125 64.359375 23.1875 75.875 
z
" id="DejaVuSans-40"/>
      <path d="M 44.28125 53.078125 
L 44.28125 44.578125 
Q 40.484375 46.53125 36.375 47.5 
Q 32.28125 48.484375 27.875 48.484375 
Q 21.1875 48.484375 17.84375 46.4375 
Q 14.5 44.390625 14.5 40.28125 
Q 14.5 37.15625 16.890625 35.375 
Q 19.28125 33.59375 26.515625 31.984375 
L 29.59375 31.296875 
Q 39.15625 29.25 43.1875 25.515625 
Q 47.21875 21.78125 47.21875 15.09375 
Q 47.21875 7.46875 41.1875 3.015625 
Q 35.15625 -1.421875 24.609375 -1.421875 
Q 20.21875 -1.421875 15.453125 -0.5625 
Q 10.6875 0.296875 5.421875 2 
L 5.421875 11.28125 
Q 10.40625 8.6875 15.234375 7.390625 
Q 20.0625 6.109375 24.8125 6.109375 
Q 31.15625 6.109375 34.5625 8.28125 
Q 37.984375 10.453125 37.984375 14.40625 
Q 37.984375 18.0625 35.515625 20.015625 
Q 33.0625 21.96875 24.703125 23.78125 
L 21.578125 24.515625 
Q 13.234375 26.265625 9.515625 29.90625 
Q 5.8125 33.546875 5.8125 39.890625 
Q 5.8125 47.609375 11.28125 51.796875 
Q 16.75 56 26.8125 56 
Q 31.78125 56 36.171875 55.265625 
Q 40.578125 54.546875 44.28125 53.078125 
z
" id="DejaVuSans-115"/>
      <path d="M 8.015625 75.875 
L 15.828125 75.875 
Q 23.140625 64.359375 26.78125 53.3125 
Q 30.421875 42.28125 30.421875 31.390625 
Q 30.421875 20.453125 26.78125 9.375 
Q 23.140625 -1.703125 15.828125 -13.1875 
L 8.015625 -13.1875 
Q 14.5 -2 17.703125 9.0625 
Q 20.90625 20.125 20.90625 31.390625 
Q 20.90625 42.671875 17.703125 53.65625 
Q 14.5 64.65625 8.015625 75.875 
z
" id="DejaVuSans-41"/>
     </defs>
     <g transform="translate(205.973281 335.860562)scale(0.1 -0.1)">
      <use xlink:href="#DejaVuSans-84"/>
      <use x="60.818359" xlink:href="#DejaVuSans-101"/>
      <use x="122.341797" xlink:href="#DejaVuSans-109"/>
      <use x="219.753906" xlink:href="#DejaVuSans-112"/>
      <use x="283.230469" xlink:href="#DejaVuSans-111"/>
      <use x="344.412109" xlink:href="#DejaVuSans-32"/>
      <use x="376.199219" xlink:href="#DejaVuSans-40"/>
      <use x="415.212891" xlink:href="#DejaVuSans-109"/>
      <use x="512.625" xlink:href="#DejaVuSans-115"/>
      <use x="564.724609" xlink:href="#DejaVuSans-41"/>
     </g>
    </g>
   </g>
   <g id="matplotlib.axis_2">
    <g id="ytick_1">
     <g id="line2d_7">
      <defs>
       <path d="M 0 0 
L -3.5 0 
" id="mc61c65aa13" style="stroke:#000000;stroke-width:0.8;"/>
      </defs>
      <g>
       <use style="stroke:#000000;stroke-width:0.8;" x="57.6" xlink:href="#mc61c65aa13" y="295.488"/>
      </g>
     </g>
     <g id="text_8">
      <!-- 0 -->
      <g transform="translate(44.2375 299.287219)scale(0.1 -0.1)">
       <use xlink:href="#DejaVuSans-48"/>
      </g>
     </g>
    </g>
    <g id="ytick_2">
     <g id="line2d_8">
      <g>
       <use style="stroke:#000000;stroke-width:0.8;" x="57.6" xlink:href="#mc61c65aa13" y="242.295425"/>
      </g>
     </g>
     <g id="text_9">
      <!-- 10 -->
      <g transform="translate(37.875 246.094644)scale(0.1 -0.1)">
       <use xlink:href="#DejaVuSans-49"/>
       <use x="63.623047" xlink:href="#DejaVuSans-48"/>
      </g>
     </g>
    </g>
    <g id="ytick_3">
     <g id="line2d_9">
      <g>
       <use style="stroke:#000000;stroke-width:0.8;" x="57.6" xlink:href="#mc61c65aa13" y="189.102851"/>
      </g>
     </g>
     <g id="text_10">
      <!-- 20 -->
      <g transform="translate(37.875 192.902069)scale(0.1 -0.1)">
       <use xlink:href="#DejaVuSans-50"/>
       <use x="63.623047" xlink:href="#DejaVuSans-48"/>
      </g>
     </g>
    </g>
    <g id="ytick_4">
     <g id="line2d_10">
      <g>
       <use style="stroke:#000000;stroke-width:0.8;" x="57.6" xlink:href="#mc61c65aa13" y="135.910276"/>
      </g>
     </g>
     <g id="text_11">
      <!-- 30 -->
      <g transform="translate(37.875 139.709495)scale(0.1 -0.1)">
       <use xlink:href="#DejaVuSans-51"/>
       <use x="63.623047" xlink:href="#DejaVuSans-48"/>
      </g>
     </g>
    </g>
    <g id="ytick_5">
     <g id="line2d_11">
      <g>
       <use style="stroke:#000000;stroke-width:0.8;" x="57.6" xlink:href="#mc61c65aa13" y="82.717701"/>
      </g>
     </g>
     <g id="text_12">
      <!-- 40 -->
      <g transform="translate(37.875 86.51692)scale(0.1 -0.1)">
       <use xlink:href="#DejaVuSans-52"/>
       <use x="63.623047" xlink:href="#DejaVuSans-48"/>
      </g>
     </g>
    </g>
    <g id="text_13">
     <!-- Força (N) -->
     <defs>
      <path d="M 9.8125 72.90625 
L 51.703125 72.90625 
L 51.703125 64.59375 
L 19.671875 64.59375 
L 19.671875 43.109375 
L 48.578125 43.109375 
L 48.578125 34.8125 
L 19.671875 34.8125 
L 19.671875 0 
L 9.8125 0 
z
" id="DejaVuSans-70"/>
      <path d="M 41.109375 46.296875 
Q 39.59375 47.171875 37.8125 47.578125 
Q 36.03125 48 33.890625 48 
Q 26.265625 48 22.1875 43.046875 
Q 18.109375 38.09375 18.109375 28.8125 
L 18.109375 0 
L 9.078125 0 
L 9.078125 54.6875 
L 18.109375 54.6875 
L 18.109375 46.1875 
Q 20.953125 51.171875 25.484375 53.578125 
Q 30.03125 56 36.53125 56 
Q 37.453125 56 38.578125 55.875 
Q 39.703125 55.765625 41.0625 55.515625 
z
" id="DejaVuSans-114"/>
      <path d="M 48.78125 52.59375 
L 48.78125 44.1875 
Q 44.96875 46.296875 41.140625 47.34375 
Q 37.3125 48.390625 33.40625 48.390625 
Q 24.65625 48.390625 19.8125 42.84375 
Q 14.984375 37.3125 14.984375 27.296875 
Q 14.984375 17.28125 19.8125 11.734375 
Q 24.65625 6.203125 33.40625 6.203125 
Q 37.3125 6.203125 41.140625 7.25 
Q 44.96875 8.296875 48.78125 10.40625 
L 48.78125 2.09375 
Q 45.015625 0.34375 40.984375 -0.53125 
Q 36.96875 -1.421875 32.421875 -1.421875 
Q 20.0625 -1.421875 12.78125 6.34375 
Q 5.515625 14.109375 5.515625 27.296875 
Q 5.515625 40.671875 12.859375 48.328125 
Q 20.21875 56 33.015625 56 
Q 37.15625 56 41.109375 55.140625 
Q 45.0625 54.296875 48.78125 52.59375 
z
M 36.078125 0 
Q 38.765625 -3.03125 40.078125 -5.59375 
Q 41.40625 -8.15625 41.40625 -10.5 
Q 41.40625 -14.84375 38.46875 -17.0625 
Q 35.546875 -19.28125 29.78125 -19.28125 
Q 27.546875 -19.28125 25.421875 -18.984375 
Q 23.296875 -18.703125 21.1875 -18.109375 
L 21.1875 -11.71875 
Q 22.859375 -12.546875 24.65625 -12.90625 
Q 26.46875 -13.28125 28.765625 -13.28125 
Q 31.640625 -13.28125 33.109375 -12.109375 
Q 34.578125 -10.9375 34.578125 -8.6875 
Q 34.578125 -7.234375 33.515625 -5.109375 
Q 32.46875 -2.984375 30.28125 0 
z
" id="DejaVuSans-231"/>
      <path d="M 34.28125 27.484375 
Q 23.390625 27.484375 19.1875 25 
Q 14.984375 22.515625 14.984375 16.5 
Q 14.984375 11.71875 18.140625 8.90625 
Q 21.296875 6.109375 26.703125 6.109375 
Q 34.1875 6.109375 38.703125 11.40625 
Q 43.21875 16.703125 43.21875 25.484375 
L 43.21875 27.484375 
z
M 52.203125 31.203125 
L 52.203125 0 
L 43.21875 0 
L 43.21875 8.296875 
Q 40.140625 3.328125 35.546875 0.953125 
Q 30.953125 -1.421875 24.3125 -1.421875 
Q 15.921875 -1.421875 10.953125 3.296875 
Q 6 8.015625 6 15.921875 
Q 6 25.140625 12.171875 29.828125 
Q 18.359375 34.515625 30.609375 34.515625 
L 43.21875 34.515625 
L 43.21875 35.40625 
Q 43.21875 41.609375 39.140625 45 
Q 35.0625 48.390625 27.6875 48.390625 
Q 23 48.390625 18.546875 47.265625 
Q 14.109375 46.140625 10.015625 43.890625 
L 10.015625 52.203125 
Q 14.9375 54.109375 19.578125 55.046875 
Q 24.21875 56 28.609375 56 
Q 40.484375 56 46.34375 49.84375 
Q 52.203125 43.703125 52.203125 31.203125 
z
" id="DejaVuSans-97"/>
      <path d="M 9.8125 72.90625 
L 23.09375 72.90625 
L 55.421875 11.921875 
L 55.421875 72.90625 
L 64.984375 72.90625 
L 64.984375 0 
L 51.703125 0 
L 19.390625 60.984375 
L 19.390625 0 
L 9.8125 0 
z
" id="DejaVuSans-78"/>
     </defs>
     <g transform="translate(31.795312 197.55925)rotate(-90)scale(0.1 -0.1)">
      <use xlink:href="#DejaVuSans-70"/>
      <use x="57.472656" xlink:href="#DejaVuSans-111"/>
      <use x="118.654297" xlink:href="#DejaVuSans-114"/>
      <use x="159.736328" xlink:href="#DejaVuSans-231"/>
      <use x="214.716797" xlink:href="#DejaVuSans-97"/>
      <use x="275.996094" xlink:href="#DejaVuSans-32"/>
      <use x="307.783203" xlink:href="#DejaVuSans-40"/>
      <use x="346.796875" xlink:href="#DejaVuSans-78"/>
      <use x="421.601562" xlink:href="#DejaVuSans-41"/>
     </g>
    </g>
   </g>
   <g id="line2d_12">
    <path clip-path="url(#p2425166863)" d="M 73.832727 295.488 
L 81.300529 295.383828 
L 82.664214 294.902664 
L 83.183713 294.369562 
L 83.995431 293.191836 
L 85.846147 290.656002 
L 87.177364 288.797028 
L 87.859206 287.161069 
L 88.995611 283.834395 
L 90.683983 279.078591 
L 94.288009 269.218948 
L 96.236131 263.275321 
L 98.476472 255.593457 
L 100.879156 247.707557 
L 103.346777 238.639649 
L 104.742931 234.465569 
L 107.307958 227.093339 
L 108.833987 222.533378 
L 110.814578 217.52951 
L 112.860106 212.510732 
L 116.594007 204.797798 
L 118.087567 202.33344 
L 119.743471 199.670582 
L 121.626656 196.072854 
L 122.860466 194.255892 
L 125.490431 190.886802 
L 126.756711 189.537716 
L 128.02299 188.209306 
L 131.334797 184.060003 
L 134.873886 180.990148 
L 138.218162 178.720282 
L 140.296159 177.789598 
L 142.991061 176.655336 
L 145.653495 175.752754 
L 147.796429 174.829894 
L 149.906895 174.318097 
L 151.400455 174.042325 
L 153.77067 173.900854 
L 156.433104 173.78498 
L 158.28382 173.383354 
L 159.842317 173.299416 
L 161.952783 173.223665 
L 163.738561 173.145754 
L 165.329528 173.05588 
L 168.803679 172.781847 
L 173.901265 173.059534 
L 176.011731 173.246325 
L 176.790979 172.986974 
L 178.381946 172.523438 
L 179.940443 172.318774 
L 182.602877 172.214017 
L 184.550999 172.191676 
L 186.564059 172.017348 
L 188.706993 171.895664 
L 190.265491 171.661181 
L 194.194203 171.448166 
L 196.694293 171.302333 
L 198.707353 170.942485 
L 200.590538 170.883144 
L 201.986692 170.788684 
L 203.967283 170.638867 
L 206.305029 170.525626 
L 209.097337 170.332904 
L 210.78571 170.23929 
L 213.02605 170.15764 
L 215.591078 169.655901 
L 217.27945 169.623363 
L 220.428914 169.86399 
L 222.831598 170.077797 
L 228.870777 170.316739 
L 234.195644 170.943214 
L 236.598327 170.831494 
L 238.676324 171.032689 
L 241.825788 171.274535 
L 243.806379 171.116633 
L 251.696274 171.161671 
L 253.709333 171.214007 
L 255.04055 170.664772 
L 256.53411 170.222242 
L 258.092608 170.002599 
L 261.501821 169.868288 
L 263.579818 169.76561 
L 265.073379 169.590729 
L 268.255311 169.557595 
L 272.443774 169.896719 
L 274.456833 170.131352 
L 276.599768 170.267924 
L 280.853167 170.68848 
L 282.476603 170.592101 
L 284.229912 170.718061 
L 290.496372 171.209422 
L 292.412025 171.398511 
L 293.840648 171.498816 
L 295.983582 171.449746 
L 298.808359 171.50071 
L 300.464263 171.335988 
L 303.418915 171.373058 
L 306.211223 171.571599 
L 312.088058 172.162723 
L 315.140116 172.547476 
L 319.03636 172.320455 
L 323.874197 172.63202 
L 327.608098 172.944106 
L 329.913375 173.194281 
L 331.634217 173.359407 
L 332.251122 173.159062 
L 334.199244 172.376483 
L 335.627867 172.052295 
L 337.283771 171.915739 
L 339.426705 171.961001 
L 342.998262 171.988267 
L 344.55676 171.929644 
L 350.985563 172.02188 
L 352.608998 171.967921 
L 357.05721 171.984273 
L 360.985923 171.348823 
L 363.680825 171.21239 
L 365.434135 171.045147 
L 371.830469 170.978566 
L 376.538431 171.219613 
L 380.077519 171.586169 
L 380.726893 171.560945 
L 381.993172 171.1794 
L 383.486733 170.881936 
L 385.499792 170.742386 
L 388.032351 170.613931 
L 390.987003 169.933481 
L 392.610438 169.868916 
L 395.857308 169.996381 
L 396.831369 170.01869 
L 398.487273 169.817138 
L 398.487273 169.817138 
" style="fill:none;stroke:#000000;stroke-linecap:square;stroke-width:1.5;"/>
   </g>
   <g id="line2d_13">
    <path clip-path="url(#p2425166863)" d="M 73.832727 295.488 
L 81.26806 295.380221 
L 82.696683 294.889562 
L 82.988901 294.580668 
L 83.378525 293.760422 
L 83.833087 292.277206 
L 87.534519 277.125705 
L 88.443643 271.696977 
L 90.196953 259.140998 
L 94.352947 226.111276 
L 99.937563 176.813047 
L 102.957152 154.244411 
L 104.872806 141.683489 
L 106.301429 133.544265 
L 109.418424 117.086972 
L 110.814578 111.237858 
L 112.632825 104.731145 
L 114.353667 99.445383 
L 115.52254 96.398347 
L 117.438193 92.047296 
L 120.425314 85.946331 
L 123.379966 80.870398 
L 125.457963 78.157879 
L 128.152865 75.075588 
L 130.068518 72.912645 
L 131.172454 71.883682 
L 132.438733 71.01601 
L 137.471382 67.857754 
L 139.127286 66.802233 
L 140.718252 66.052914 
L 144.874246 64.211159 
L 147.569148 63.396238 
L 149.841957 62.349387 
L 151.725142 61.888489 
L 154.355107 61.306376 
L 156.887665 60.929554 
L 162.342407 59.091714 
L 163.738561 58.804766 
L 165.134716 58.716249 
L 166.952963 58.653045 
L 170.849207 58.196025 
L 172.212893 58.061406 
L 174.225952 57.901647 
L 177.732572 57.505054 
L 179.388476 57.462579 
L 180.654755 57.243447 
L 182.797689 56.835806 
L 184.453593 56.803396 
L 186.044559 56.768778 
L 187.570588 56.660116 
L 189.51871 56.516374 
L 192.375956 56.399776 
L 197.506011 56.692144 
L 198.642416 56.696926 
L 200.850287 56.672819 
L 202.895815 56.473224 
L 204.486782 56.589221 
L 205.623186 56.640217 
L 206.337498 56.529959 
L 208.447963 56.251587 
L 210.103867 56.358248 
L 211.110397 56.359615 
L 214.357267 55.559094 
L 216.79242 55.262173 
L 218.253511 55.220044 
L 223.318629 55.345722 
L 224.877126 55.282083 
L 229.520151 55.409208 
L 231.987772 55.592988 
L 233.806019 55.584148 
L 235.721673 55.633425 
L 237.572389 55.808822 
L 239.260761 55.973374 
L 240.851727 55.915585 
L 243.77391 55.803317 
L 247.994842 55.779013 
L 251.631336 55.671181 
L 254.358707 55.756023 
L 255.105487 55.699283 
L 258.384826 55.267561 
L 260.495292 55.414394 
L 262.54082 55.452937 
L 266.242252 55.595041 
L 267.833218 55.842222 
L 268.904685 55.968975 
L 277.671235 55.289902 
L 279.29467 55.21639 
L 281.080448 55.04853 
L 285.983222 55.098861 
L 287.119627 55.110335 
L 289.489842 54.938815 
L 291.665245 54.50904 
L 293.061399 54.36224 
L 297.704424 54.369857 
L 300.756481 54.340324 
L 304.717663 53.893039 
L 307.380097 53.892815 
L 310.854248 54.069574 
L 314.880367 54.170853 
L 317.412925 54.476902 
L 319.133766 54.679991 
L 320.594858 54.81943 
L 321.53645 54.73171 
L 323.062479 54.704326 
L 324.523571 54.693071 
L 325.887256 54.480093 
L 327.640566 54.443731 
L 329.978313 54.612229 
L 334.881087 54.887825 
L 336.374647 54.646921 
L 337.835738 54.637043 
L 341.699514 54.957034 
L 342.381357 54.969332 
L 344.524291 54.702906 
L 347.349068 54.571691 
L 348.647816 54.24886 
L 349.946564 54.1329 
L 351.342718 54.005557 
L 355.238962 53.577101 
L 357.479303 53.797494 
L 361.245672 54.412092 
L 363.063919 54.756609 
L 364.654886 54.854196 
L 368.940754 55.335079 
L 371.570719 55.599244 
L 372.869467 55.68224 
L 375.531901 55.860238 
L 376.668305 55.847376 
L 378.129397 55.769875 
L 380.856768 55.760667 
L 382.707484 55.728039 
L 384.785481 55.949011 
L 385.694604 55.944251 
L 390.694784 55.076563 
L 392.967593 55.062679 
L 395.56509 55.312568 
L 396.831369 55.333823 
L 398.487273 55.350366 
L 398.487273 55.350366 
" style="fill:none;stroke:#000000;stroke-dasharray:5.55,2.4;stroke-dashoffset:0;stroke-width:1.5;"/>
   </g>
   <g id="line2d_14">
    <path clip-path="url(#p2425166863)" d="M 73.832727 295.488 
L 81.26806 295.381094 
L 82.469402 294.953159 
L 82.76162 294.615461 
L 83.183713 293.73131 
L 86.852677 284.061565 
L 87.631925 281.232523 
L 88.281299 278.031181 
L 90.424234 267.10774 
L 92.145075 258.54931 
L 93.476292 249.694443 
L 95.52182 236.65589 
L 97.340067 224.121985 
L 99.385595 210.578087 
L 101.820748 194.922304 
L 103.606526 184.622195 
L 106.106616 172.202086 
L 108.346957 162.324251 
L 109.808048 156.742478 
L 112.438013 147.331434 
L 114.158854 142.09354 
L 117.827818 132.051192 
L 119.51619 128.480757 
L 122.01628 123.733192 
L 123.964402 120.763339 
L 126.691773 117.124813 
L 128.02299 115.243519 
L 129.386675 113.563607 
L 131.01011 111.930856 
L 132.633546 110.527423 
L 135.815478 107.808357 
L 137.049289 106.996803 
L 138.412974 106.372189 
L 140.101347 105.553704 
L 141.627376 104.736741 
L 143.413154 104.140388 
L 148.153585 102.728391 
L 149.387395 102.279632 
L 151.53033 101.831575 
L 152.894015 101.771755 
L 154.387575 101.70719 
L 156.27076 101.539431 
L 157.569508 101.394332 
L 159.77738 100.908961 
L 161.108597 100.247442 
L 162.374876 99.73357 
L 164.550279 99.044561 
L 165.849027 98.826147 
L 168.673804 98.704623 
L 172.050549 98.810694 
L 174.77792 98.637989 
L 177.505291 98.579264 
L 179.226132 98.534721 
L 181.856097 98.542689 
L 185.330248 97.839866 
L 187.01862 97.613415 
L 188.479712 97.312829 
L 189.908335 97.261019 
L 191.012271 97.182991 
L 192.668174 96.82767 
L 194.03186 96.663204 
L 197.603417 96.539808 
L 198.252791 96.477987 
L 198.967103 96.159225 
L 200.135976 95.664221 
L 202.01916 95.161652 
L 203.317909 94.984568 
L 205.558249 94.934924 
L 208.77265 94.822496 
L 210.298679 94.660913 
L 211.987052 94.737404 
L 213.545549 95.03924 
L 218.480792 96.090447 
L 220.558789 95.749435 
L 222.149755 95.786186 
L 228.351277 96.323325 
L 231.857897 96.890708 
L 233.091708 96.57833 
L 235.332048 96.08482 
L 238.838668 95.936641 
L 241.630976 95.824298 
L 243.936254 95.720525 
L 245.52722 95.635225 
L 246.176594 95.330778 
L 247.670155 94.756798 
L 249.585808 94.35504 
L 253.02749 93.654015 
L 255.170425 93.444984 
L 256.501641 93.085439 
L 257.800389 92.755528 
L 259.164075 92.608392 
L 260.462823 92.466762 
L 261.858977 92.462107 
L 262.962913 92.428495 
L 264.29413 92.067328 
L 267.930624 90.827361 
L 269.229372 90.61415 
L 270.885276 90.574766 
L 279.29467 91.021876 
L 281.112917 90.839888 
L 283.061039 90.929725 
L 284.229912 90.965056 
L 285.723473 91.05552 
L 286.405315 91.031041 
L 288.093688 90.678364 
L 289.652186 90.601144 
L 291.210683 90.727907 
L 296.697894 91.45931 
L 299.490202 90.426646 
L 302.314979 90.013972 
L 303.970883 89.991275 
L 307.639846 90.117214 
L 311.016591 90.383257 
L 312.412745 90.271057 
L 313.906306 90.387427 
L 316.568739 90.709332 
L 318.841548 90.35066 
L 320.367577 90.427119 
L 322.835198 90.766977 
L 326.341818 91.623894 
L 329.166595 92.405537 
L 332.05631 92.89892 
L 333.484932 92.880909 
L 336.114897 93.166898 
L 338.387706 93.506661 
L 339.751392 93.573854 
L 344.654166 94.08605 
L 348.063379 94.245686 
L 351.699874 94.221149 
L 353.518121 94.261634 
L 355.174025 94.316278 
L 356.505242 94.056071 
L 358.161146 93.564603 
L 362.771701 92.840525 
L 363.778231 92.743278 
L 364.200324 92.55878 
L 366.408196 91.349909 
L 368.031631 90.890043 
L 369.784941 90.610586 
L 371.473313 90.635022 
L 373.421435 90.729795 
L 373.908466 90.692412 
L 374.460434 90.420433 
L 376.083869 89.679918 
L 377.285211 89.408503 
L 379.103458 89.275165 
L 381.019111 89.313134 
L 382.642546 89.392002 
L 385.56473 89.253712 
L 387.253102 89.157067 
L 389.136287 89.311825 
L 391.149346 89.575527 
L 393.162406 90.140799 
L 397.935305 91.580494 
L 398.487273 91.710741 
L 398.487273 91.710741 
" style="fill:none;stroke:#000000;stroke-dasharray:1.5,2.475;stroke-dashoffset:0;stroke-width:1.5;"/>
   </g>
   <g id="patch_3">
    <path d="M 57.6 307.584 
L 57.6 41.472 
" style="fill:none;stroke:#000000;stroke-linecap:square;stroke-linejoin:miter;stroke-width:0.8;"/>
   </g>
   <g id="patch_4">
    <path d="M 414.72 307.584 
L 414.72 41.472 
" style="fill:none;stroke:#000000;stroke-linecap:square;stroke-linejoin:miter;stroke-width:0.8;"/>
   </g>
   <g id="patch_5">
    <path d="M 57.6 307.584 
L 414.72 307.584 
" style="fill:none;stroke:#000000;stroke-linecap:square;stroke-linejoin:miter;stroke-width:0.8;"/>
   </g>
   <g id="patch_6">
    <path d="M 57.6 41.472 
L 414.72 41.472 
" style="fill:none;stroke:#000000;stroke-linecap:square;stroke-linejoin:miter;stroke-width:0.8;"/>
   </g>
   <g id="legend_1">
    <g id="patch_7">
     <path d="M 339.36375 302.584 
L 407.72 302.584 
Q 409.72 302.584 409.72 300.584 
L 409.72 257.549625 
Q 409.72 255.549625 407.72 255.549625 
L 339.36375 255.549625 
Q 337.36375 255.549625 337.36375 257.549625 
L 337.36375 300.584 
Q 337.36375 302.584 339.36375 302.584 
z
" style="fill:#ffffff;opacity:0.8;stroke:#cccccc;stroke-linejoin:miter;"/>
    </g>
    <g id="line2d_15">
     <path d="M 341.36375 263.648062 
L 361.36375 263.648062 
" style="fill:none;stroke:#000000;stroke-linecap:square;stroke-width:1.5;"/>
    </g>
    <g id="line2d_16"/>
    <g id="text_14">
     <!-- Forte -->
     <defs>
      <path d="M 18.3125 70.21875 
L 18.3125 54.6875 
L 36.8125 54.6875 
L 36.8125 47.703125 
L 18.3125 47.703125 
L 18.3125 18.015625 
Q 18.3125 11.328125 20.140625 9.421875 
Q 21.96875 7.515625 27.59375 7.515625 
L 36.8125 7.515625 
L 36.8125 0 
L 27.59375 0 
Q 17.1875 0 13.234375 3.875 
Q 9.28125 7.765625 9.28125 18.015625 
L 9.28125 47.703125 
L 2.6875 47.703125 
L 2.6875 54.6875 
L 9.28125 54.6875 
L 9.28125 70.21875 
z
" id="DejaVuSans-116"/>
     </defs>
     <g transform="translate(369.36375 267.148062)scale(0.1 -0.1)">
      <use xlink:href="#DejaVuSans-70"/>
      <use x="57.472656" xlink:href="#DejaVuSans-111"/>
      <use x="118.654297" xlink:href="#DejaVuSans-114"/>
      <use x="159.767578" xlink:href="#DejaVuSans-116"/>
      <use x="198.976562" xlink:href="#DejaVuSans-101"/>
     </g>
    </g>
    <g id="line2d_17">
     <path d="M 341.36375 278.326188 
L 361.36375 278.326188 
" style="fill:none;stroke:#000000;stroke-dasharray:5.55,2.4;stroke-dashoffset:0;stroke-width:1.5;"/>
    </g>
    <g id="line2d_18"/>
    <g id="text_15">
     <!-- Fraco -->
     <defs>
      <path d="M 48.78125 52.59375 
L 48.78125 44.1875 
Q 44.96875 46.296875 41.140625 47.34375 
Q 37.3125 48.390625 33.40625 48.390625 
Q 24.65625 48.390625 19.8125 42.84375 
Q 14.984375 37.3125 14.984375 27.296875 
Q 14.984375 17.28125 19.8125 11.734375 
Q 24.65625 6.203125 33.40625 6.203125 
Q 37.3125 6.203125 41.140625 7.25 
Q 44.96875 8.296875 48.78125 10.40625 
L 48.78125 2.09375 
Q 45.015625 0.34375 40.984375 -0.53125 
Q 36.96875 -1.421875 32.421875 -1.421875 
Q 20.0625 -1.421875 12.78125 6.34375 
Q 5.515625 14.109375 5.515625 27.296875 
Q 5.515625 40.671875 12.859375 48.328125 
Q 20.21875 56 33.015625 56 
Q 37.15625 56 41.109375 55.140625 
Q 45.0625 54.296875 48.78125 52.59375 
z
" id="DejaVuSans-99"/>
     </defs>
     <g transform="translate(369.36375 281.826188)scale(0.1 -0.1)">
      <use xlink:href="#DejaVuSans-70"/>
      <use x="57.410156" xlink:href="#DejaVuSans-114"/>
      <use x="98.523438" xlink:href="#DejaVuSans-97"/>
      <use x="159.802734" xlink:href="#DejaVuSans-99"/>
      <use x="214.783203" xlink:href="#DejaVuSans-111"/>
     </g>
    </g>
    <g id="line2d_19">
     <path d="M 341.36375 293.004312 
L 361.36375 293.004312 
" style="fill:none;stroke:#000000;stroke-dasharray:1.5,2.475;stroke-dashoffset:0;stroke-width:1.5;"/>
    </g>
    <g id="line2d_20"/>
    <g id="text_16">
     <!-- Normal -->
     <defs>
      <path d="M 9.421875 75.984375 
L 18.40625 75.984375 
L 18.40625 0 
L 9.421875 0 
z
" id="DejaVuSans-108"/>
     </defs>
     <g transform="translate(369.36375 296.504312)scale(0.1 -0.1)">
      <use xlink:href="#DejaVuSans-78"/>
      <use x="74.804688" xlink:href="#DejaVuSans-111"/>
      <use x="135.986328" xlink:href="#DejaVuSans-114"/>
      <use x="177.083984" xlink:href="#DejaVuSans-109"/>
      <use x="274.496094" xlink:href="#DejaVuSans-97"/>
      <use x="335.775391" xlink:href="#DejaVuSans-108"/>
     </g>
    </g>
   </g>
  </g>
 </g>
 <defs>
  <clipPath id="p2425166863">
   <rect height="266.112" width="357.12" x="57.6" y="41.472"/>
  </clipPath>
 </defs>
</svg>
