<?xml version="1.0" encoding="UTF-8" standalone="no"?>
<!-- Created with Inkscape (http://www.inkscape.org/) -->

<svg
   xmlns:dc="http://purl.org/dc/elements/1.1/"
   xmlns:cc="http://creativecommons.org/ns#"
   xmlns:rdf="http://www.w3.org/1999/02/22-rdf-syntax-ns#"
   xmlns:svg="http://www.w3.org/2000/svg"
   xmlns="http://www.w3.org/2000/svg"
   xmlns:sodipodi="http://sodipodi.sourceforge.net/DTD/sodipodi-0.dtd"
   xmlns:inkscape="http://www.inkscape.org/namespaces/inkscape"
   width="210mm"
   height="297mm"
   viewBox="0 0 210 297"
   version="1.1"
   id="svg8"
   inkscape:version="0.92.4 5da689c313, 2019-01-14"
   sodipodi:docname="slice.svg"
   inkscape:export-filename="/home/pablo/Desktop/sc.png"
   inkscape:export-xdpi="95.007263"
   inkscape:export-ydpi="95.007263">
  <defs
     id="defs2">
    <inkscape:path-effect
       effect="bspline"
       id="path-effect12405"
       is_visible="true"
       weight="33.333333"
       steps="2"
       helper_size="0"
       apply_no_weight="true"
       apply_with_weight="true"
       only_selected="false" />
    <inkscape:path-effect
       effect="bspline"
       id="path-effect1495"
       is_visible="true"
       weight="33.333333"
       steps="2"
       helper_size="0"
       apply_no_weight="true"
       apply_with_weight="true"
       only_selected="false" />
    <inkscape:path-effect
       effect="bspline"
       id="path-effect1491"
       is_visible="true"
       weight="33.333333"
       steps="2"
       helper_size="0"
       apply_no_weight="true"
       apply_with_weight="true"
       only_selected="false" />
    <inkscape:path-effect
       effect="bspline"
       id="path-effect1487"
       is_visible="true"
       weight="33.333333"
       steps="2"
       helper_size="0"
       apply_no_weight="true"
       apply_with_weight="true"
       only_selected="false" />
    <inkscape:path-effect
       effect="bspline"
       id="path-effect1483"
       is_visible="true"
       weight="33.333333"
       steps="2"
       helper_size="0"
       apply_no_weight="true"
       apply_with_weight="true"
       only_selected="false" />
    <inkscape:path-effect
       effect="bspline"
       id="path-effect1479"
       is_visible="true"
       weight="33.333333"
       steps="2"
       helper_size="0"
       apply_no_weight="true"
       apply_with_weight="true"
       only_selected="false" />
    <inkscape:path-effect
       effect="bspline"
       id="path-effect1475"
       is_visible="true"
       weight="33.333333"
       steps="2"
       helper_size="0"
       apply_no_weight="true"
       apply_with_weight="true"
       only_selected="false" />
    <inkscape:path-effect
       effect="bspline"
       id="path-effect1471"
       is_visible="true"
       weight="33.333333"
       steps="2"
       helper_size="0"
       apply_no_weight="true"
       apply_with_weight="true"
       only_selected="false" />
    <inkscape:path-effect
       effect="bspline"
       id="path-effect1467"
       is_visible="true"
       weight="33.333333"
       steps="2"
       helper_size="0"
       apply_no_weight="true"
       apply_with_weight="true"
       only_selected="false" />
    <inkscape:path-effect
       effect="bspline"
       id="path-effect1463"
       is_visible="true"
       weight="33.333333"
       steps="2"
       helper_size="0"
       apply_no_weight="true"
       apply_with_weight="true"
       only_selected="false" />
    <inkscape:path-effect
       effect="spiro"
       id="path-effect1455"
       is_visible="true" />
  </defs>
  <sodipodi:namedview
     id="base"
     pagecolor="#ffffff"
     bordercolor="#666666"
     borderopacity="1.0"
     inkscape:pageopacity="0.0"
     inkscape:pageshadow="2"
     inkscape:zoom="2.8"
     inkscape:cx="364.33155"
     inkscape:cy="661.36604"
     inkscape:document-units="mm"
     inkscape:current-layer="layer1"
     showgrid="false"
     inkscape:window-width="1280"
     inkscape:window-height="915"
     inkscape:window-x="0"
     inkscape:window-y="31"
     inkscape:window-maximized="1"
     showguides="true"
     inkscape:guide-bbox="true">
    <sodipodi:guide
       position="-42.763125,141.92012"
       orientation="1,0"
       id="guide943"
       inkscape:locked="false" />
  </sodipodi:namedview>
  <metadata
     id="metadata5">
    <rdf:RDF>
      <cc:Work
         rdf:about="">
        <dc:format>image/svg+xml</dc:format>
        <dc:type
           rdf:resource="http://purl.org/dc/dcmitype/StillImage" />
        <dc:title />
      </cc:Work>
    </rdf:RDF>
  </metadata>
  <g
     inkscape:groupmode="layer"
     id="layer2"
     inkscape:label="color"
     sodipodi:insensitive="true" />
  <g
     inkscape:label="Layer 1"
     inkscape:groupmode="layer"
     id="layer1"
     style="display:inline">
    <path
       style="fill:none;fill-rule:evenodd;stroke:#000000;stroke-width:0.26458332px;stroke-linecap:butt;stroke-linejoin:miter;stroke-opacity:1"
       d="m 78.506986,75.343817 1e-5,36.795363 c 0,0 0.17454,0.60585 -1e-5,0.81327 -0.21104,0.25079 -0.4527,-0.0317 -0.96885,0.16803 0,0 -1.02134,0.73121 -3.777792,-0.79035 -1.734614,-0.9575 -1.770833,-3.55113 -2.812876,-5.23631 -0.689422,-1.11493 -1.258013,-2.37699 -2.267858,-3.2128 -1.172782,-0.97066 -2.745647,-1.32102 -4.157739,-1.88988 -1.053411,-0.42437 -2.205337,-0.60973 -3.212796,-1.13393 -0.961461,-0.50027 -1.784982,-1.231393 -2.645833,-1.889883 -0.711144,-0.54398 -2.078871,-1.70089 -2.078871,-1.70089 0,0 -1.837785,-1.74838 -2.456844,-2.83482 -0.69037,-1.21159 -1.322917,-3.96875 -1.322917,-3.96875 0,0 -0.565807,-2.50904 -0.755951,-3.77976 -0.187382,-1.25226 -0.160861,-2.53231 -0.377979,-3.77976 -0.08908,-0.51179 -0.158172,-1.04122 -0.377975,-1.51191 -0.362546,-0.77636 -1.022174,-1.37578 -1.511904,-2.07887 -0.519282,-0.74552 -0.876809,-1.61817 -1.511906,-2.26786 -0.537527,-0.54988 -1.300786,-0.82867 -1.889881,-1.32291 -0.341253,-0.2863 -0.944938,-0.94494 -0.944938,-0.94494"
       id="path945"
       inkscape:connector-curvature="0"
       sodipodi:nodetypes="czassaaasscacaaaaaac"
       inkscape:export-xdpi="109.66227"
       inkscape:export-ydpi="109.66227" />
    <path
       style="fill:none;fill-rule:evenodd;stroke:#000000;stroke-width:0.26458332px;stroke-linecap:butt;stroke-linejoin:miter;stroke-opacity:1"
       d="m 78.506986,75.343817 v 0 0 0 c 0,0 -0.76894,-0.35328 -1.18117,-0.42522 -1.64454,-0.287 -3.42343,-0.52481 -5.008185,0 -1.527957,0.506 -2.327325,2.43745 -3.874257,2.88207 -0.759228,0.21822 -1.62231,0.0874 -2.36235,-0.18899 -0.3482,-0.13004 -0.545354,-0.5431 -0.897695,-0.66146 -1.134713,-0.38118 -2.428396,-0.33314 -3.590771,-0.0472 -0.64322,0.15823 -1.748142,0.94494 -1.748142,0.94494 0,0 -4.583719,3.46695 -6.945312,5.10268 -0.355505,0.24624 -1.086681,0.70871 -1.086681,0.70871"
       id="path947"
       inkscape:connector-curvature="0"
       sodipodi:nodetypes="ccccaaaaaacsc"
       inkscape:export-xdpi="109.66227"
       inkscape:export-ydpi="109.66227" />
    <path
       style="fill:none;fill-rule:evenodd;stroke:#000000;stroke-width:0.26458332px;stroke-linecap:butt;stroke-linejoin:miter;stroke-opacity:1"
       d="m 39.102973,77.895157 c 0,0 2.173893,0.91703 3.118304,1.6064 1.115354,0.81415 2.196965,1.75862 2.929316,2.92931 0.972046,1.55386 1.795386,5.19718 1.795386,5.19718 l 2.456846,7.843 2.551338,4.819203 3.779763,5.85863 1.228421,4.25223 0.188989,3.87426 -0.850447,2.17336 c 0,0 -0.398133,1.0579 -0.850445,1.32292 -0.898479,0.52643 -2.205904,-0.31292 -3.118305,0.18899 -0.612771,0.33709 -0.626052,1.34555 -1.228421,1.70089 -0.901822,0.53199 -2.176873,-0.0803 -3.118305,0.37797 -1.682177,0.81884 -2.251656,2.68898 -3.96875,3.96875 -0.338831,0.25253 0.212399,0.904 0.566965,1.13393 0.608412,0.39454 1.551115,-0.27783 2.173364,0.0945 1.005891,0.60189 0.897585,2.27012 1.795386,3.02381 0.95436,0.80117 2.677298,0.38379 3.496281,1.32291 1.01947,1.16901 -0.08476,3.46703 1.039434,4.53572 0.394087,0.37463 1.109642,0.50458 1.606399,0.28348 0.814427,-0.36249 0.687571,-1.75597 1.41741,-2.26786 0.369222,-0.25896 1.322917,-0.28348 1.322917,-0.28348 0,0 5.335552,0.85703 5.953125,0.18899 2.213318,-2.39417 3.088779,-1.43771 4.346725,-2.55134 2.136811,-1.89166 5.197174,-6.80357 5.197174,-6.80357 0,0 0.420331,-0.63615 0.755951,-0.75595 0.596252,-0.21284 1.297012,-0.0331 1.889882,0.18899 1.12125,0.42003 2.92931,2.07886 2.92931,2.07886 v 24.75744 11.71725 c 0,0 -2.44815,1.15316 -3.68526,1.70091 -1.032432,0.45712 -2.025982,1.03707 -3.118307,1.32291 -1.379677,0.36104 -2.826345,0.49899 -4.252232,0.47247 -1.496477,-0.0278 -2.980793,-0.33378 -4.441219,-0.66146 -1.380631,-0.30978 -2.733702,-0.74424 -4.063243,-1.22841 -1.577807,-0.57458 -3.187358,-1.12542 -4.630211,-1.98437 -4.450958,-2.64972 -12.189731,-9.6384 -12.189731,-9.6384"
       id="path949"
       inkscape:connector-curvature="0"
       sodipodi:nodetypes="caacccccccaaaasaaaaaaacsacaacccaaaaaac"
       inkscape:export-xdpi="109.66227"
       inkscape:export-ydpi="109.66227" />
    <path
       style="fill:none;fill-rule:evenodd;stroke:#000000;stroke-width:0.26458332px;stroke-linecap:butt;stroke-linejoin:miter;stroke-opacity:1"
       d="m 78.506986,116.34496 c 0,0 -1.62906,0.20047 -1.36179,0.46774 -0.38383,0.72454 0,1.33636 0,1.33636 0.53454,0.58521 1.3618,0.4677 1.3618,0.4677"
       id="path951"
       inkscape:connector-curvature="0"
       sodipodi:nodetypes="cccc"
       inkscape:export-xdpi="109.66227"
       inkscape:export-ydpi="109.66227" />
    <path
       style="fill:none;fill-rule:evenodd;stroke:#000000;stroke-width:0.26458332px;stroke-linecap:butt;stroke-linejoin:miter;stroke-opacity:1"
       d="m 37.923386,79.394947 c 0,0 3.379674,1.38048 4.677216,2.60588 0.997266,0.94182 1.822283,2.15726 2.204974,3.4745 0.173987,0.59887 0.22608,1.28968 0,1.87089 -0.13144,0.33791 -0.427917,0.60903 -0.734991,0.80181 -2.029018,1.27379 -4.697455,1.0883 -6.88219,2.07134 -1.623359,0.73045 -3.09461,1.77225 -4.543582,2.80633 -1.945233,1.38825 -3.941131,2.77269 -5.545842,4.54358 -0.916691,1.01162 -1.645308,2.19474 -2.271792,3.407683 -0.886454,1.71627 -1.706613,3.51528 -2.071338,5.41221 -0.5846,3.0405 -0.133635,9.28762 -0.133635,9.28762 0,0 0.295535,4.41571 0.534539,6.61492 0.325865,2.99847 0.633781,6.0075 1.225641,8.96499 0.284082,1.41954 0.369019,2.95612 1.112967,4.19803 2.785765,4.65041 11.893494,11.09169 11.893494,11.09169 0,0 2.847455,-2.39591 3.407687,-4.07586 0.402176,-1.206 0.614909,-2.83322 -0.200453,-3.80859 -1.866032,-2.23223 -6.280833,-6.28084 -6.280833,-6.28084 0,0 -3.296346,-3.13171 -4.744034,-4.87767 -2.520291,-3.03955 -6.815373,-9.68852 -6.815373,-9.68852"
       id="path953"
       inkscape:connector-curvature="0"
       sodipodi:nodetypes="caaaaaaaaacaaacascac"
       inkscape:export-xdpi="109.66227"
       inkscape:export-ydpi="109.66227" />
    <path
       style="fill:none;fill-rule:evenodd;stroke:#000000;stroke-width:0.26458332px;stroke-linecap:butt;stroke-linejoin:miter;stroke-opacity:1"
       d="m 47.418451,148.86019 c 0,0 -2.20787,-0.56447 -3.212799,-0.18899 -1.815263,0.67825 -3.261134,2.34532 -4.157738,4.06325 -0.354592,0.67941 -0.377976,2.26786 -0.377976,2.26786"
       id="path955"
       inkscape:connector-curvature="0"
       sodipodi:nodetypes="caac"
       inkscape:export-xdpi="109.66227"
       inkscape:export-ydpi="109.66227" />
    <path
       style="fill:none;fill-rule:evenodd;stroke:#000000;stroke-width:0.26458332px;stroke-linecap:butt;stroke-linejoin:miter;stroke-opacity:1"
       d="m 37.921798,152.82894 c 0,0 0.824863,-1.80966 1.417411,-2.59859 1.839178,-2.44872 4.161067,-4.73906 6.520089,-6.47284 0.812176,-0.59692 2.070429,-0.32711 3.023809,0 1.868316,0.64103 4.677455,3.63802 4.677455,3.63802 0,0 2.573676,2.34444 4.015997,3.30729 0.949257,0.6337 1.954869,1.20637 3.023811,1.6064 1.044752,0.39098 2.151091,0.63513 3.260043,0.75595 2.896596,0.31559 5.89089,0.5125 8.7407,-0.0945 1.007251,-0.21454 1.983203,-0.64935 2.834823,-1.22842 1.19717,-0.81403 3.07105,-3.07106 3.07105,-3.07106"
       id="path957"
       inkscape:connector-curvature="0"
       sodipodi:nodetypes="casacaaaaac"
       inkscape:export-xdpi="109.66227"
       inkscape:export-ydpi="109.66227" />
    <path
       sodipodi:nodetypes="czassaaasscacaaaaaac"
       inkscape:connector-curvature="0"
       id="path990"
       d="m 78.506986,75.343817 v 36.795363 c 0,0 -0.17454,0.60585 0,0.81327 0.21104,0.25079 0.4527,-0.0317 0.96885,0.16803 0,0 1.02134,0.73121 3.7778,-0.79035 1.73461,-0.9575 1.77083,-3.55113 2.81287,-5.23631 0.68942,-1.11493 1.25801,-2.37699 2.26786,-3.2128 1.17278,-0.97066 2.74565,-1.32102 4.15774,-1.88988 1.05341,-0.42437 2.20534,-0.60973 3.21279,-1.13393 0.96147,-0.50027 1.78499,-1.231393 2.64584,-1.889883 0.71114,-0.54398 2.078874,-1.70089 2.078874,-1.70089 0,0 1.83778,-1.74838 2.45684,-2.83482 0.69038,-1.21159 1.32292,-3.96875 1.32292,-3.96875 0,0 0.56581,-2.50904 0.75596,-3.77976 0.18738,-1.25226 0.16086,-2.53231 0.37797,-3.77976 0.0891,-0.51179 0.15818,-1.04122 0.37798,-1.51191 0.36255,-0.77636 1.02217,-1.37578 1.5119,-2.07887 0.51929,-0.74552 0.87681,-1.61817 1.51191,-2.26786 0.53753,-0.54988 1.30079,-0.82867 1.88988,-1.32291 0.34126,-0.2863 0.94494,-0.94494 0.94494,-0.94494"
       style="fill:none;fill-rule:evenodd;stroke:#000000;stroke-width:0.26458332px;stroke-linecap:butt;stroke-linejoin:miter;stroke-opacity:1"
       inkscape:export-xdpi="109.66227"
       inkscape:export-ydpi="109.66227" />
    <path
       sodipodi:nodetypes="ccccaaaaaacsc"
       inkscape:connector-curvature="0"
       id="path992"
       d="m 78.506986,75.343817 v 0 0 0 c 0,0 0.76894,-0.35328 1.18117,-0.42522 1.64454,-0.287 3.42343,-0.52481 5.00819,0 1.52796,0.506 2.32732,2.43745 3.87426,2.88207 0.75922,0.21822 1.62231,0.0874 2.36235,-0.18899 0.3482,-0.13004 0.54535,-0.5431 0.89769,-0.66146 1.13471,-0.38118 2.4284,-0.33314 3.59077,-0.0472 0.64322,0.15823 1.74814,0.94494 1.74814,0.94494 0,0 4.583724,3.46695 6.945324,5.10268 0.35551,0.24624 1.08668,0.70871 1.08668,0.70871"
       style="fill:none;fill-rule:evenodd;stroke:#000000;stroke-width:0.26458332px;stroke-linecap:butt;stroke-linejoin:miter;stroke-opacity:1"
       inkscape:export-xdpi="109.66227"
       inkscape:export-ydpi="109.66227" />
    <path
       sodipodi:nodetypes="caacccccccaaaasaaaaaaacsacaacccaaaaaac"
       inkscape:connector-curvature="0"
       id="path994"
       d="m 117.91102,77.895157 c 0,0 -2.1739,0.91703 -3.11831,1.6064 -1.11535,0.81415 -2.19696,1.75862 -2.92931,2.92931 -0.97205,1.55386 -1.79539,5.19718 -1.79539,5.19718 l -2.45685,7.843 -2.55134,4.819203 -3.77977,5.85863 -1.22842,4.25223 -0.188994,3.87426 0.850454,2.17336 c 0,0 0.39813,1.0579 0.85045,1.32292 0.89847,0.52643 2.2059,-0.31292 3.11831,0.18899 0.61277,0.33709 0.62605,1.34555 1.22842,1.70089 0.90182,0.53199 2.17687,-0.0803 3.1183,0.37797 1.68218,0.81884 2.25166,2.68898 3.96876,3.96875 0.33883,0.25253 -0.2124,0.904 -0.56697,1.13393 -0.60841,0.39454 -1.55111,-0.27783 -2.17336,0.0945 -1.0059,0.60189 -0.89759,2.27012 -1.79539,3.02381 -0.95436,0.80117 -2.6773,0.38379 -3.49628,1.32291 -1.01947,1.16901 0.0848,3.46703 -1.03944,4.53572 -0.39409,0.37463 -1.10965,0.50458 -1.6064,0.28348 -0.81443,-0.36249 -0.68757,-1.75597 -1.41741,-2.26786 -0.36922,-0.25896 -1.322924,-0.28348 -1.322924,-0.28348 0,0 -5.33555,0.85703 -5.95312,0.18899 -2.21332,-2.39417 -3.08878,-1.43771 -4.34673,-2.55134 -2.13681,-1.89166 -5.19717,-6.80357 -5.19717,-6.80357 0,0 -0.42034,-0.63615 -0.75595,-0.75595 -0.59626,-0.21284 -1.29702,-0.0331 -1.88989,0.18899 -1.12124,0.42003 -2.92931,2.07886 -2.92931,2.07886 v 24.75744 11.71725 c 0,0 2.44815,1.15316 3.68527,1.70091 1.03243,0.45712 2.02598,1.03707 3.1183,1.32291 1.37968,0.36104 2.82635,0.49899 4.25223,0.47247 1.49648,-0.0278 2.9808,-0.33378 4.44122,-0.66146 1.38063,-0.30978 2.7337,-0.74424 4.06324,-1.22841 1.57781,-0.57458 3.187364,-1.12542 4.630224,-1.98437 4.45096,-2.64972 12.18974,-9.6384 12.18974,-9.6384"
       style="fill:none;fill-rule:evenodd;stroke:#000000;stroke-width:0.26458332px;stroke-linecap:butt;stroke-linejoin:miter;stroke-opacity:1"
       inkscape:export-xdpi="109.66227"
       inkscape:export-ydpi="109.66227" />
    <path
       sodipodi:nodetypes="cccc"
       inkscape:connector-curvature="0"
       id="path996"
       d="m 78.506986,116.34496 c 0,0 1.62907,0.20047 1.3618,0.46774 0.38382,0.72454 0,1.33636 0,1.33636 -0.53454,0.58521 -1.3618,0.4677 -1.3618,0.4677"
       style="fill:none;fill-rule:evenodd;stroke:#000000;stroke-width:0.26458332px;stroke-linecap:butt;stroke-linejoin:miter;stroke-opacity:1"
       inkscape:export-xdpi="109.66227"
       inkscape:export-ydpi="109.66227" />
    <path
       sodipodi:nodetypes="caaaaaaaaacaaacascac"
       inkscape:connector-curvature="0"
       id="path998"
       d="m 119.0906,79.394947 c 0,0 -3.37967,1.38048 -4.67721,2.60588 -0.99727,0.94182 -1.82229,2.15726 -2.20498,3.4745 -0.17398,0.59887 -0.22608,1.28968 0,1.87089 0.13144,0.33791 0.42792,0.60903 0.73499,0.80181 2.02902,1.27379 4.69746,1.0883 6.88219,2.07134 1.62336,0.73045 3.09461,1.77225 4.54359,2.80633 1.94523,1.38825 3.94113,2.77269 5.54584,4.54358 0.91669,1.01162 1.64531,2.19474 2.27179,3.407683 0.88645,1.71627 1.70661,3.51528 2.07134,5.41221 0.5846,3.0405 0.13363,9.28762 0.13363,9.28762 0,0 -0.29553,4.41571 -0.53454,6.61492 -0.32586,2.99847 -0.63378,6.0075 -1.22564,8.96499 -0.28408,1.41954 -0.36902,2.95612 -1.11296,4.19803 -2.78577,4.65041 -11.8935,11.09169 -11.8935,11.09169 0,0 -2.84745,-2.39591 -3.40769,-4.07586 -0.40217,-1.206 -0.6149,-2.83322 0.20046,-3.80859 1.86603,-2.23223 6.28083,-6.28084 6.28083,-6.28084 0,0 3.29635,-3.13171 4.74403,-4.87767 2.5203,-3.03955 6.81538,-9.68852 6.81538,-9.68852"
       style="fill:none;fill-rule:evenodd;stroke:#000000;stroke-width:0.26458332px;stroke-linecap:butt;stroke-linejoin:miter;stroke-opacity:1"
       inkscape:export-xdpi="109.66227"
       inkscape:export-ydpi="109.66227" />
    <path
       sodipodi:nodetypes="caac"
       inkscape:connector-curvature="0"
       id="path1000"
       d="m 109.59553,148.86019 c 0,0 2.20788,-0.56447 3.21281,-0.18899 1.81526,0.67825 3.26113,2.34532 4.15773,4.06325 0.3546,0.67941 0.37798,2.26786 0.37798,2.26786"
       style="fill:none;fill-rule:evenodd;stroke:#000000;stroke-width:0.26458332px;stroke-linecap:butt;stroke-linejoin:miter;stroke-opacity:1"
       inkscape:export-xdpi="109.66227"
       inkscape:export-ydpi="109.66227" />
    <path
       sodipodi:nodetypes="casacaaaaac"
       inkscape:connector-curvature="0"
       id="path1002"
       d="m 119.09219,152.82894 c 0,0 -0.82486,-1.80966 -1.41741,-2.59859 -1.83918,-2.44872 -4.16107,-4.73906 -6.52009,-6.47284 -0.81218,-0.59692 -2.07043,-0.32711 -3.02381,0 -1.86832,0.64103 -4.67746,3.63802 -4.67746,3.63802 0,0 -2.57368,2.34444 -4.016004,3.30729 -0.94926,0.6337 -1.95487,1.20637 -3.02381,1.6064 -1.04475,0.39098 -2.15109,0.63513 -3.26004,0.75595 -2.8966,0.31559 -5.89089,0.5125 -8.7407,-0.0945 -1.00725,-0.21454 -1.9832,-0.64935 -2.83482,-1.22842 -1.19717,-0.81403 -3.07106,-3.07106 -3.07106,-3.07106"
       style="fill:none;fill-rule:evenodd;stroke:#000000;stroke-width:0.26458332px;stroke-linecap:butt;stroke-linejoin:miter;stroke-opacity:1"
       inkscape:export-xdpi="109.66227"
       inkscape:export-ydpi="109.66227" />
    <path
       style="fill:none;fill-rule:evenodd;stroke:#000000;stroke-width:0.26458332px;stroke-linecap:butt;stroke-linejoin:miter;stroke-opacity:1"
       d="m 35.228717,148.57671 2.16013,-2.03029"
       id="path6782"
       inkscape:connector-curvature="0"
       inkscape:export-xdpi="109.66227"
       inkscape:export-ydpi="109.66227" />
    <path
       style="fill:none;fill-rule:evenodd;stroke:#000000;stroke-width:0.26458332px;stroke-linecap:butt;stroke-linejoin:miter;stroke-opacity:1"
       d="m 121.78528,148.10424 -2.16014,-1.55782"
       id="path6784"
       inkscape:connector-curvature="0"
       inkscape:export-xdpi="109.66227"
       inkscape:export-ydpi="109.66227" />
    <path
       style="opacity:1;fill:#ffaaaa;fill-opacity:1;fill-rule:evenodd;stroke:#e6e6e6;stroke-width:0.40406099;stroke-linecap:square;stroke-miterlimit:4;stroke-dasharray:none;stroke-dashoffset:0;stroke-opacity:1;paint-order:markers fill stroke"
       d="m 53.833479,134.27199 c -0.415595,-0.084 -0.855901,-0.56159 -1.001718,-1.08651 -0.07298,-0.2627 -0.134342,-0.98879 -0.136366,-1.61354 -0.0044,-1.36321 -0.295516,-2.14245 -0.921221,-2.46602 -0.225428,-0.11657 -0.876613,-0.30713 -1.447075,-0.42346 -1.551811,-0.31646 -1.797749,-0.51466 -2.379165,-1.91738 -0.684441,-1.65126 -0.887357,-1.81727 -2.167197,-1.77298 -0.88641,0.0307 -1.052693,-0.002 -1.324711,-0.25716 -0.39465,-0.37075 -0.392335,-0.56256 0.01,-0.82615 0.176564,-0.11569 0.697569,-0.67886 1.157788,-1.25149 1.876972,-2.33545 2.240594,-2.57795 3.865543,-2.57795 1.459228,0 1.876907,-0.19276 2.357425,-1.08795 0.498692,-0.92906 0.816221,-1.07694 1.999358,-0.93115 1.085141,0.13372 1.712121,-0.0232 2.081316,-0.52104 0.136718,-0.18434 0.514739,-0.97922 0.840044,-1.7664 l 0.591465,-1.43123 -0.108722,-2.04219 c -0.09974,-1.87343 -0.160486,-2.21735 -0.735121,-4.16177 l -0.626399,-2.11958 -1.825553,-2.8249 c -1.004054,-1.55371 -2.418929,-3.937425 -3.144163,-5.297158 -1.276935,-2.394109 -1.357961,-2.598952 -2.563738,-6.481287 -0.684821,-2.204974 -1.462432,-4.76074 -1.728023,-5.679479 -0.569037,-1.968423 -1.316474,-3.553825 -2.104599,-4.4641 -0.85462,-0.987081 -2.368727,-2.128962 -3.719724,-2.805274 l -1.20777,-0.60461 2.902077,-1.410901 2.902079,-1.410902 0.542147,0.520137 c 0.298183,0.286075 0.872895,0.730051 1.277142,0.986613 0.897247,0.569454 1.149088,0.843137 1.872879,2.03531 0.310933,0.512143 0.832144,1.25871 1.158245,1.659032 1.038879,1.275334 1.124223,1.554737 1.439056,4.711346 0.207012,2.075561 0.598588,4.26553 1.146498,6.412042 0.844359,3.307881 1.724358,4.538559 5.308687,7.424195 2.300973,1.852446 3.111129,2.354556 4.50945,2.794836 1.618744,0.50967 4.288528,1.49151 4.889854,1.79828 1.536949,0.7841 3.120747,3.09756 4.201713,6.13747 0.770779,2.1676 1.21276,2.71407 2.742187,3.39045 1.077769,0.47664 2.142588,0.66857 2.759241,0.49732 0.648716,-0.18014 1.834111,-0.18087 2.479911,-0.002 1.005369,0.2792 3.250903,-0.45762 4.220138,-1.38475 0.556001,-0.53184 0.794578,-0.99615 1.42089,-2.76525 0.609676,-1.72212 1.906457,-3.97811 2.810883,-4.89006 0.828047,-0.83494 1.682948,-1.24816 4.772398,-2.30678 3.282619,-1.12481 3.192737,-1.0746 6.067472,-3.389755 2.48109,-1.998136 3.79395,-3.481242 4.44037,-5.01617 0.72378,-1.718646 1.65031,-6.102717 1.89598,-8.971245 0.23446,-2.737721 0.3646,-3.115932 1.64057,-4.767601 0.28017,-0.362667 0.82139,-1.140481 1.20271,-1.728473 0.55071,-0.849188 0.86753,-1.182693 1.54035,-1.621454 0.46588,-0.303805 1.07619,-0.776121 1.35624,-1.049589 l 0.50919,-0.497215 2.91827,1.423 2.91828,1.423004 -1.23851,0.628848 c -2.46833,1.253284 -4.20194,2.951483 -5.02834,4.92565 -0.2542,0.607266 -0.70467,1.969754 -1.00103,3.027749 -0.29637,1.057994 -1.02582,3.480993 -1.62102,5.38444 -1.00696,3.220318 -1.17283,3.632615 -2.3869,5.933059 -0.71761,1.359733 -2.13957,3.765162 -3.15992,5.345392 l -1.85518,2.87315 -0.64101,2.13815 c -0.609525,2.03314 -0.645108,2.2399 -0.724454,4.2095 l -0.08344,2.07134 0.551944,1.40316 c 0.30357,0.77174 0.68884,1.57329 0.85615,1.78122 0.37309,0.46369 0.96716,0.60037 2.03474,0.46817 1.18714,-0.14701 1.55824,0.0174 1.99707,0.88472 0.48318,0.95498 0.88445,1.14221 2.44809,1.14221 1.10674,0 1.23564,0.0288 1.72937,0.38646 0.29343,0.21255 0.82864,0.73375 1.18936,1.15822 0.36072,0.42447 1.0372,1.17813 1.50328,1.67481 0.62913,0.67043 0.82649,0.96897 0.76618,1.15898 -0.13763,0.43363 -0.65234,0.6137 -1.47713,0.51676 -1.29981,-0.15277 -1.4338,-0.0187 -2.54639,2.54836 -0.25988,0.59961 -0.71663,0.85345 -2.04757,1.13789 -2.00943,0.42945 -2.30935,0.8104 -2.42189,3.0763 -0.0841,1.69244 -0.2099,2.1271 -0.69024,2.38417 -0.36184,0.19365 -1.13889,0.19305 -1.37278,-0.001 -0.10014,-0.0831 -0.31425,-0.50454 -0.47579,-0.9365 -0.44953,-1.20202 -0.74389,-1.41135 -1.984699,-1.41135 -0.563835,0 -1.824098,0.0826 -2.800588,0.18359 -2.615676,0.27047 -2.916753,0.21737 -3.893126,-0.68657 -0.537808,-0.49792 -1.059083,-0.83688 -1.576502,-1.02512 -0.425161,-0.15468 -1.024546,-0.37368 -1.331965,-0.48667 -0.970105,-0.35655 -2.684558,-2.35847 -5.115581,-5.97333 -0.680913,-1.01249 -1.359879,-1.90611 -1.508813,-1.98582 -0.437814,-0.23431 -1.717543,-0.0717 -2.516526,0.3197 -0.398005,0.195 -1.110898,0.66688 -1.584206,1.04862 -0.973857,0.78547 -0.821616,0.80158 -2.168991,-0.22952 -1.079489,-0.82609 -1.802601,-1.14779 -2.751127,-1.22393 -1.045535,-0.0839 -1.153242,0.002 -2.473928,1.97415 -1.580528,2.36014 -3.095442,4.30614 -4.062174,5.2181 -0.779836,0.73566 -1.053738,0.90581 -1.785718,1.10928 -1.024975,0.28491 -1.572744,0.60209 -2.450973,1.41918 l -0.650931,0.60561 H 61.80203 c -0.707726,0 -2.091168,-0.0857 -3.074323,-0.19051 -2.489517,-0.26533 -2.699075,-0.1886 -3.424206,1.25378 -0.548378,1.09079 -0.813628,1.30175 -1.469982,1.16906 z m 25.858326,-15.78651 c 0.433263,-0.308 0.594908,-0.78195 0.478438,-1.4028 -0.07533,-0.40155 -0.18175,-0.53501 -0.548923,-0.68843 -0.546086,-0.22817 -1.560274,-0.23544 -2.192615,-0.0157 -0.333576,0.11591 -0.48964,0.26906 -0.571034,0.5604 -0.151035,0.54061 -0.02334,1.18182 0.292214,1.4674 0.551404,0.49901 1.892546,0.54077 2.54192,0.0791 z"
       id="path120"
       inkscape:connector-curvature="0"
       inkscape:export-xdpi="109.66227"
       inkscape:export-ydpi="109.66227" />
    <path
       style="opacity:1;fill:#e6e6e6;fill-opacity:1;fill-rule:evenodd;stroke:#e6e6e6;stroke-width:0.57142854;stroke-linecap:square;stroke-miterlimit:4;stroke-dasharray:none;stroke-dashoffset:0;stroke-opacity:1;paint-order:markers fill stroke"
       d="m 53.307736,133.59166 c -0.167696,-0.23941 -0.297739,-0.82858 -0.30243,-1.37016 -0.01344,-1.55281 -0.289893,-2.60185 -0.801629,-3.04203 -0.257053,-0.22111 -1.050076,-0.54839 -1.762271,-0.72728 -0.712194,-0.1789 -1.4118,-0.42229 -1.554681,-0.54087 -0.14288,-0.11858 -0.467767,-0.68589 -0.721971,-1.26069 -0.71579,-1.61854 -1.06391,-1.89935 -2.354556,-1.89935 -0.599406,0 -1.142709,-0.0856 -1.207339,-0.19013 -0.131386,-0.21259 2.554767,-3.46618 3.186822,-3.86002 0.222562,-0.13868 1.019715,-0.29959 1.771449,-0.35758 1.631511,-0.12585 1.747181,-0.18216 2.495036,-1.21467 l 0.581766,-0.8032 h 1.23662 c 1.83356,0 2.169126,-0.24619 3.012985,-2.2105 l 0.713505,-1.66088 -0.107334,-2.03458 c -0.07608,-1.44221 -0.282839,-2.66824 -0.710136,-4.21097 -0.523232,-1.88911 -0.786966,-2.46444 -1.997937,-4.35845 -4.242412,-6.6353 -4.720942,-7.697243 -7.351943,-16.315177 -1.239255,-4.059221 -2.040279,-5.766522 -3.266956,-6.963198 -0.898731,-0.87675 -2.800591,-2.204093 -3.456281,-2.412198 -0.197517,-0.06269 -0.359122,-0.177292 -0.359122,-0.254672 0,-0.07738 1.101366,-0.677664 2.447478,-1.333969 l 2.447478,-1.193278 1.413939,1.064159 c 1.141073,0.858801 1.695331,1.473928 2.872099,3.187531 l 1.458167,2.123371 0.256556,1.891689 c 0.778314,5.738751 1.384982,8.526822 2.268682,10.426207 0.605952,1.302401 3.106278,3.904324 5.45093,5.672416 1.80258,1.359329 2.508224,1.729449 4.630209,2.428659 2.663131,0.87751 4.218133,1.58638 4.880242,2.22472 0.944083,0.91018 2.175899,3.02489 2.99104,5.13484 1.317821,3.41109 2.517913,4.10873 7.058777,4.10344 2.951059,-0.003 3.822096,-0.18792 5.116583,-1.08364 0.773801,-0.53543 1.259597,-1.32695 1.96268,-3.19785 1.034629,-2.75313 2.651979,-5.04716 4.062539,-5.76226 0.368475,-0.1868 1.818055,-0.74212 3.221292,-1.23404 3.053058,-1.07027 3.6122,-1.3762 6.001459,-3.283636 2.200667,-1.756875 3.862777,-3.512735 4.466277,-4.718176 0.93398,-1.865578 1.62778,-4.778841 2.1866,-9.181592 0.20388,-1.606317 0.49453,-3.202401 0.64588,-3.546846 0.78706,-1.791218 4.00902,-5.474964 5.35872,-6.126742 0.23687,-0.11439 5.15356,2.154878 5.15356,2.378594 0,0.06741 -0.31891,0.274167 -0.7087,0.459462 -1.18178,0.561801 -2.95775,1.918245 -3.70421,2.829203 -1.03486,1.262906 -1.49362,2.405314 -3.1537,7.853286 -0.82408,2.704438 -1.71444,5.450588 -1.97857,6.102561 -0.64383,1.589188 -2.41411,4.744514 -4.54265,8.096736 -1.51897,2.39223 -1.82784,3.02466 -2.35356,4.81919 -0.478904,1.63474 -0.625983,2.54177 -0.705093,4.34833 l -0.09996,2.28272 0.759693,1.62115 c 0.41784,0.89163 0.93343,1.71413 1.14578,1.82777 0.21234,0.11364 0.98289,0.20662 1.71233,0.20662 h 1.32626 l 0.56948,0.82771 c 0.67986,0.98814 0.84092,1.06161 2.63194,1.20065 1.36761,0.10617 1.40174,0.12181 2.33875,1.07132 0.52299,0.52996 1.33878,1.4165 1.81288,1.97009 0.99788,1.16518 0.91127,1.34825 -0.64012,1.35293 -1.14583,0.003 -1.48607,0.29927 -2.28578,1.98727 -0.52245,1.10276 -0.56835,1.1434 -1.6699,1.4784 -2.6654,0.81058 -2.88535,1.05958 -3.11697,3.52873 -0.17725,1.88959 -0.36298,2.26919 -1.10992,2.26838 -0.4124,-2.7e-4 -0.59267,-0.18445 -1.06354,-1.08556 -0.38553,-0.73781 -0.72875,-1.14082 -1.07255,-1.2594 -0.31031,-0.10703 -1.551174,-0.10433 -3.212794,0.007 -1.488967,0.0998 -2.925681,0.12428 -3.192693,0.0545 -0.267015,-0.0698 -0.920978,-0.45611 -1.453253,-0.85856 -0.532273,-0.40244 -1.419387,-0.889 -1.971366,-1.08124 -1.328041,-0.46253 -2.765978,-1.93681 -5.004649,-5.13113 -0.947007,-1.35126 -1.906804,-2.62392 -2.132883,-2.82813 -0.82093,-0.74152 -2.695024,-0.29437 -4.391064,1.04769 -0.383694,0.30361 -0.787459,0.55202 -0.897258,0.55202 -0.109794,0 -0.60379,-0.28653 -1.097762,-0.63674 -1.217517,-0.86317 -1.713449,-1.10646 -2.581026,-1.2662 -1.290293,-0.23757 -1.60656,0.0129 -3.665879,2.90302 -3.041562,4.26865 -3.405843,4.61749 -5.934942,5.68328 -0.385213,0.16233 -1.045837,0.60724 -1.468054,0.98869 l -0.767665,0.69354 -3.285567,-0.13601 c -2.322001,-0.0961 -3.402692,-0.0733 -3.684936,0.0777 -0.219655,0.11755 -0.661244,0.67774 -0.981313,1.24488 -0.651643,1.15465 -1.24005,1.35854 -1.763567,0.61111 z m 26.648372,-15.08805 c 0.330229,-0.31023 0.460703,-0.63452 0.460703,-1.1451 0,-0.9515 -0.507365,-1.30069 -1.889881,-1.30069 -1.430057,0 -1.889882,0.34035 -1.889882,1.39884 0,1.19026 0.626927,1.66502 2.04339,1.54742 0.519462,-0.0431 0.982017,-0.22459 1.27567,-0.50047 z"
       id="path122"
       inkscape:connector-curvature="0"
       inkscape:export-xdpi="109.66227"
       inkscape:export-ydpi="109.66227" />
    <path
       style="fill:none;fill-rule:evenodd;stroke:#000000;stroke-width:0.26458332px;stroke-linecap:butt;stroke-linejoin:miter;stroke-opacity:1"
       d="m 107.98914,86.305133 46.86904,0.18899"
       id="path124"
       inkscape:connector-curvature="0"
       inkscape:export-xdpi="109.66227"
       inkscape:export-ydpi="109.66227" />
    <path
       style="fill:none;fill-rule:evenodd;stroke:#000000;stroke-width:0.26458332px;stroke-linecap:butt;stroke-linejoin:miter;stroke-opacity:1"
       d="m 97.783776,123.91377 56.696434,-0.37798"
       id="path126"
       inkscape:connector-curvature="0"
       inkscape:export-xdpi="109.66227"
       inkscape:export-ydpi="109.66227" />
    <text
       xml:space="preserve"
       style="font-style:normal;font-weight:normal;font-size:10.58333302px;line-height:1.25;font-family:sans-serif;letter-spacing:0px;word-spacing:0px;fill:#000000;fill-opacity:1;stroke:none;stroke-width:0.26458332px;stroke-linecap:butt;stroke-linejoin:miter;stroke-opacity:1"
       x="154.85818"
       y="86.494118"
       id="text130"
       inkscape:export-xdpi="109.66227"
       inkscape:export-ydpi="109.66227"><tspan
         sodipodi:role="line"
         x="154.85818"
         y="86.494118"
         style="font-size:6.3499999px;line-height:2;stroke-width:0.26458332px"
         id="tspan132">Corno Dorsal</tspan></text>
    <text
       xml:space="preserve"
       style="font-style:normal;font-weight:normal;font-size:10.58333302px;line-height:1.25;font-family:sans-serif;letter-spacing:0px;word-spacing:0px;fill:#000000;fill-opacity:1;stroke:none;stroke-width:0.26458332px;stroke-linecap:butt;stroke-linejoin:miter;stroke-opacity:1"
       x="154.48021"
       y="123.53579"
       id="text138"
       inkscape:export-xdpi="109.66227"
       inkscape:export-ydpi="109.66227"><tspan
         sodipodi:role="line"
         id="tspan136"
         x="154.48021"
         y="123.53579"
         style="font-size:6.3499999px;stroke-width:0.26458332px">Corno Ventral</tspan></text>
  </g>
</svg>
