<?xml version="1.0" encoding="utf-8" standalone="no"?>
<!DOCTYPE svg PUBLIC "-//W3C//DTD SVG 1.1//EN"
  "http://www.w3.org/Graphics/SVG/1.1/DTD/svg11.dtd">
<!-- Created with matplotlib (https://matplotlib.org/) -->
<svg height="345.6pt" version="1.1" viewBox="0 0 460.8 345.6" width="460.8pt" xmlns="http://www.w3.org/2000/svg" xmlns:xlink="http://www.w3.org/1999/xlink">
 <defs>
  <style type="text/css">
*{stroke-linecap:butt;stroke-linejoin:round;}
  </style>
 </defs>
 <g id="figure_1">
  <g id="patch_1">
   <path d="M 0 345.6 
L 460.8 345.6 
L 460.8 0 
L 0 0 
z
" style="fill:#ffffff;"/>
  </g>
  <g id="axes_1">
   <g id="patch_2">
    <path d="M 57.6 307.584 
L 414.72 307.584 
L 414.72 41.472 
L 57.6 41.472 
z
" style="fill:#ffffff;"/>
   </g>
   <g id="matplotlib.axis_1">
    <g id="xtick_1">
     <g id="line2d_1">
      <defs>
       <path d="M 0 0 
L 0 3.5 
" id="ma15b007162" style="stroke:#000000;stroke-width:0.8;"/>
      </defs>
      <g>
       <use style="stroke:#000000;stroke-width:0.8;" x="73.832727" xlink:href="#ma15b007162" y="307.584"/>
      </g>
     </g>
     <g id="text_1">
      <!-- 0 -->
      <defs>
       <path d="M 31.78125 66.40625 
Q 24.171875 66.40625 20.328125 58.90625 
Q 16.5 51.421875 16.5 36.375 
Q 16.5 21.390625 20.328125 13.890625 
Q 24.171875 6.390625 31.78125 6.390625 
Q 39.453125 6.390625 43.28125 13.890625 
Q 47.125 21.390625 47.125 36.375 
Q 47.125 51.421875 43.28125 58.90625 
Q 39.453125 66.40625 31.78125 66.40625 
z
M 31.78125 74.21875 
Q 44.046875 74.21875 50.515625 64.515625 
Q 56.984375 54.828125 56.984375 36.375 
Q 56.984375 17.96875 50.515625 8.265625 
Q 44.046875 -1.421875 31.78125 -1.421875 
Q 19.53125 -1.421875 13.0625 8.265625 
Q 6.59375 17.96875 6.59375 36.375 
Q 6.59375 54.828125 13.0625 64.515625 
Q 19.53125 74.21875 31.78125 74.21875 
z
" id="DejaVuSans-48"/>
      </defs>
      <g transform="translate(70.651477 322.182437)scale(0.1 -0.1)">
       <use xlink:href="#DejaVuSans-48"/>
      </g>
     </g>
    </g>
    <g id="xtick_2">
     <g id="line2d_2">
      <g>
       <use style="stroke:#000000;stroke-width:0.8;" x="120.211948" xlink:href="#ma15b007162" y="307.584"/>
      </g>
     </g>
     <g id="text_2">
      <!-- 10 -->
      <defs>
       <path d="M 12.40625 8.296875 
L 28.515625 8.296875 
L 28.515625 63.921875 
L 10.984375 60.40625 
L 10.984375 69.390625 
L 28.421875 72.90625 
L 38.28125 72.90625 
L 38.28125 8.296875 
L 54.390625 8.296875 
L 54.390625 0 
L 12.40625 0 
z
" id="DejaVuSans-49"/>
      </defs>
      <g transform="translate(113.849448 322.182437)scale(0.1 -0.1)">
       <use xlink:href="#DejaVuSans-49"/>
       <use x="63.623047" xlink:href="#DejaVuSans-48"/>
      </g>
     </g>
    </g>
    <g id="xtick_3">
     <g id="line2d_3">
      <g>
       <use style="stroke:#000000;stroke-width:0.8;" x="166.591169" xlink:href="#ma15b007162" y="307.584"/>
      </g>
     </g>
     <g id="text_3">
      <!-- 20 -->
      <defs>
       <path d="M 19.1875 8.296875 
L 53.609375 8.296875 
L 53.609375 0 
L 7.328125 0 
L 7.328125 8.296875 
Q 12.9375 14.109375 22.625 23.890625 
Q 32.328125 33.6875 34.8125 36.53125 
Q 39.546875 41.84375 41.421875 45.53125 
Q 43.3125 49.21875 43.3125 52.78125 
Q 43.3125 58.59375 39.234375 62.25 
Q 35.15625 65.921875 28.609375 65.921875 
Q 23.96875 65.921875 18.8125 64.3125 
Q 13.671875 62.703125 7.8125 59.421875 
L 7.8125 69.390625 
Q 13.765625 71.78125 18.9375 73 
Q 24.125 74.21875 28.421875 74.21875 
Q 39.75 74.21875 46.484375 68.546875 
Q 53.21875 62.890625 53.21875 53.421875 
Q 53.21875 48.921875 51.53125 44.890625 
Q 49.859375 40.875 45.40625 35.40625 
Q 44.1875 33.984375 37.640625 27.21875 
Q 31.109375 20.453125 19.1875 8.296875 
z
" id="DejaVuSans-50"/>
      </defs>
      <g transform="translate(160.228669 322.182437)scale(0.1 -0.1)">
       <use xlink:href="#DejaVuSans-50"/>
       <use x="63.623047" xlink:href="#DejaVuSans-48"/>
      </g>
     </g>
    </g>
    <g id="xtick_4">
     <g id="line2d_4">
      <g>
       <use style="stroke:#000000;stroke-width:0.8;" x="212.97039" xlink:href="#ma15b007162" y="307.584"/>
      </g>
     </g>
     <g id="text_4">
      <!-- 30 -->
      <defs>
       <path d="M 40.578125 39.3125 
Q 47.65625 37.796875 51.625 33 
Q 55.609375 28.21875 55.609375 21.1875 
Q 55.609375 10.40625 48.1875 4.484375 
Q 40.765625 -1.421875 27.09375 -1.421875 
Q 22.515625 -1.421875 17.65625 -0.515625 
Q 12.796875 0.390625 7.625 2.203125 
L 7.625 11.71875 
Q 11.71875 9.328125 16.59375 8.109375 
Q 21.484375 6.890625 26.8125 6.890625 
Q 36.078125 6.890625 40.9375 10.546875 
Q 45.796875 14.203125 45.796875 21.1875 
Q 45.796875 27.640625 41.28125 31.265625 
Q 36.765625 34.90625 28.71875 34.90625 
L 20.21875 34.90625 
L 20.21875 43.015625 
L 29.109375 43.015625 
Q 36.375 43.015625 40.234375 45.921875 
Q 44.09375 48.828125 44.09375 54.296875 
Q 44.09375 59.90625 40.109375 62.90625 
Q 36.140625 65.921875 28.71875 65.921875 
Q 24.65625 65.921875 20.015625 65.03125 
Q 15.375 64.15625 9.8125 62.3125 
L 9.8125 71.09375 
Q 15.4375 72.65625 20.34375 73.4375 
Q 25.25 74.21875 29.59375 74.21875 
Q 40.828125 74.21875 47.359375 69.109375 
Q 53.90625 64.015625 53.90625 55.328125 
Q 53.90625 49.265625 50.4375 45.09375 
Q 46.96875 40.921875 40.578125 39.3125 
z
" id="DejaVuSans-51"/>
      </defs>
      <g transform="translate(206.60789 322.182437)scale(0.1 -0.1)">
       <use xlink:href="#DejaVuSans-51"/>
       <use x="63.623047" xlink:href="#DejaVuSans-48"/>
      </g>
     </g>
    </g>
    <g id="xtick_5">
     <g id="line2d_5">
      <g>
       <use style="stroke:#000000;stroke-width:0.8;" x="259.34961" xlink:href="#ma15b007162" y="307.584"/>
      </g>
     </g>
     <g id="text_5">
      <!-- 40 -->
      <defs>
       <path d="M 37.796875 64.3125 
L 12.890625 25.390625 
L 37.796875 25.390625 
z
M 35.203125 72.90625 
L 47.609375 72.90625 
L 47.609375 25.390625 
L 58.015625 25.390625 
L 58.015625 17.1875 
L 47.609375 17.1875 
L 47.609375 0 
L 37.796875 0 
L 37.796875 17.1875 
L 4.890625 17.1875 
L 4.890625 26.703125 
z
" id="DejaVuSans-52"/>
      </defs>
      <g transform="translate(252.98711 322.182437)scale(0.1 -0.1)">
       <use xlink:href="#DejaVuSans-52"/>
       <use x="63.623047" xlink:href="#DejaVuSans-48"/>
      </g>
     </g>
    </g>
    <g id="xtick_6">
     <g id="line2d_6">
      <g>
       <use style="stroke:#000000;stroke-width:0.8;" x="305.728831" xlink:href="#ma15b007162" y="307.584"/>
      </g>
     </g>
     <g id="text_6">
      <!-- 50 -->
      <defs>
       <path d="M 10.796875 72.90625 
L 49.515625 72.90625 
L 49.515625 64.59375 
L 19.828125 64.59375 
L 19.828125 46.734375 
Q 21.96875 47.46875 24.109375 47.828125 
Q 26.265625 48.1875 28.421875 48.1875 
Q 40.625 48.1875 47.75 41.5 
Q 54.890625 34.8125 54.890625 23.390625 
Q 54.890625 11.625 47.5625 5.09375 
Q 40.234375 -1.421875 26.90625 -1.421875 
Q 22.3125 -1.421875 17.546875 -0.640625 
Q 12.796875 0.140625 7.71875 1.703125 
L 7.71875 11.625 
Q 12.109375 9.234375 16.796875 8.0625 
Q 21.484375 6.890625 26.703125 6.890625 
Q 35.15625 6.890625 40.078125 11.328125 
Q 45.015625 15.765625 45.015625 23.390625 
Q 45.015625 31 40.078125 35.4375 
Q 35.15625 39.890625 26.703125 39.890625 
Q 22.75 39.890625 18.8125 39.015625 
Q 14.890625 38.140625 10.796875 36.28125 
z
" id="DejaVuSans-53"/>
      </defs>
      <g transform="translate(299.366331 322.182437)scale(0.1 -0.1)">
       <use xlink:href="#DejaVuSans-53"/>
       <use x="63.623047" xlink:href="#DejaVuSans-48"/>
      </g>
     </g>
    </g>
    <g id="xtick_7">
     <g id="line2d_7">
      <g>
       <use style="stroke:#000000;stroke-width:0.8;" x="352.108052" xlink:href="#ma15b007162" y="307.584"/>
      </g>
     </g>
     <g id="text_7">
      <!-- 60 -->
      <defs>
       <path d="M 33.015625 40.375 
Q 26.375 40.375 22.484375 35.828125 
Q 18.609375 31.296875 18.609375 23.390625 
Q 18.609375 15.53125 22.484375 10.953125 
Q 26.375 6.390625 33.015625 6.390625 
Q 39.65625 6.390625 43.53125 10.953125 
Q 47.40625 15.53125 47.40625 23.390625 
Q 47.40625 31.296875 43.53125 35.828125 
Q 39.65625 40.375 33.015625 40.375 
z
M 52.59375 71.296875 
L 52.59375 62.3125 
Q 48.875 64.0625 45.09375 64.984375 
Q 41.3125 65.921875 37.59375 65.921875 
Q 27.828125 65.921875 22.671875 59.328125 
Q 17.53125 52.734375 16.796875 39.40625 
Q 19.671875 43.65625 24.015625 45.921875 
Q 28.375 48.1875 33.59375 48.1875 
Q 44.578125 48.1875 50.953125 41.515625 
Q 57.328125 34.859375 57.328125 23.390625 
Q 57.328125 12.15625 50.6875 5.359375 
Q 44.046875 -1.421875 33.015625 -1.421875 
Q 20.359375 -1.421875 13.671875 8.265625 
Q 6.984375 17.96875 6.984375 36.375 
Q 6.984375 53.65625 15.1875 63.9375 
Q 23.390625 74.21875 37.203125 74.21875 
Q 40.921875 74.21875 44.703125 73.484375 
Q 48.484375 72.75 52.59375 71.296875 
z
" id="DejaVuSans-54"/>
      </defs>
      <g transform="translate(345.745552 322.182437)scale(0.1 -0.1)">
       <use xlink:href="#DejaVuSans-54"/>
       <use x="63.623047" xlink:href="#DejaVuSans-48"/>
      </g>
     </g>
    </g>
    <g id="xtick_8">
     <g id="line2d_8">
      <g>
       <use style="stroke:#000000;stroke-width:0.8;" x="398.487273" xlink:href="#ma15b007162" y="307.584"/>
      </g>
     </g>
     <g id="text_8">
      <!-- 70 -->
      <defs>
       <path d="M 8.203125 72.90625 
L 55.078125 72.90625 
L 55.078125 68.703125 
L 28.609375 0 
L 18.3125 0 
L 43.21875 64.59375 
L 8.203125 64.59375 
z
" id="DejaVuSans-55"/>
      </defs>
      <g transform="translate(392.124773 322.182437)scale(0.1 -0.1)">
       <use xlink:href="#DejaVuSans-55"/>
       <use x="63.623047" xlink:href="#DejaVuSans-48"/>
      </g>
     </g>
    </g>
    <g id="text_9">
     <!-- Frequência do estímulo antodrômico (Hz) -->
     <defs>
      <path d="M 9.8125 72.90625 
L 51.703125 72.90625 
L 51.703125 64.59375 
L 19.671875 64.59375 
L 19.671875 43.109375 
L 48.578125 43.109375 
L 48.578125 34.8125 
L 19.671875 34.8125 
L 19.671875 0 
L 9.8125 0 
z
" id="DejaVuSans-70"/>
      <path d="M 41.109375 46.296875 
Q 39.59375 47.171875 37.8125 47.578125 
Q 36.03125 48 33.890625 48 
Q 26.265625 48 22.1875 43.046875 
Q 18.109375 38.09375 18.109375 28.8125 
L 18.109375 0 
L 9.078125 0 
L 9.078125 54.6875 
L 18.109375 54.6875 
L 18.109375 46.1875 
Q 20.953125 51.171875 25.484375 53.578125 
Q 30.03125 56 36.53125 56 
Q 37.453125 56 38.578125 55.875 
Q 39.703125 55.765625 41.0625 55.515625 
z
" id="DejaVuSans-114"/>
      <path d="M 56.203125 29.59375 
L 56.203125 25.203125 
L 14.890625 25.203125 
Q 15.484375 15.921875 20.484375 11.0625 
Q 25.484375 6.203125 34.421875 6.203125 
Q 39.59375 6.203125 44.453125 7.46875 
Q 49.3125 8.734375 54.109375 11.28125 
L 54.109375 2.78125 
Q 49.265625 0.734375 44.1875 -0.34375 
Q 39.109375 -1.421875 33.890625 -1.421875 
Q 20.796875 -1.421875 13.15625 6.1875 
Q 5.515625 13.8125 5.515625 26.8125 
Q 5.515625 40.234375 12.765625 48.109375 
Q 20.015625 56 32.328125 56 
Q 43.359375 56 49.78125 48.890625 
Q 56.203125 41.796875 56.203125 29.59375 
z
M 47.21875 32.234375 
Q 47.125 39.59375 43.09375 43.984375 
Q 39.0625 48.390625 32.421875 48.390625 
Q 24.90625 48.390625 20.390625 44.140625 
Q 15.875 39.890625 15.1875 32.171875 
z
" id="DejaVuSans-101"/>
      <path d="M 14.796875 27.296875 
Q 14.796875 17.390625 18.875 11.75 
Q 22.953125 6.109375 30.078125 6.109375 
Q 37.203125 6.109375 41.296875 11.75 
Q 45.40625 17.390625 45.40625 27.296875 
Q 45.40625 37.203125 41.296875 42.84375 
Q 37.203125 48.484375 30.078125 48.484375 
Q 22.953125 48.484375 18.875 42.84375 
Q 14.796875 37.203125 14.796875 27.296875 
z
M 45.40625 8.203125 
Q 42.578125 3.328125 38.25 0.953125 
Q 33.9375 -1.421875 27.875 -1.421875 
Q 17.96875 -1.421875 11.734375 6.484375 
Q 5.515625 14.40625 5.515625 27.296875 
Q 5.515625 40.1875 11.734375 48.09375 
Q 17.96875 56 27.875 56 
Q 33.9375 56 38.25 53.625 
Q 42.578125 51.265625 45.40625 46.390625 
L 45.40625 54.6875 
L 54.390625 54.6875 
L 54.390625 -20.796875 
L 45.40625 -20.796875 
z
" id="DejaVuSans-113"/>
      <path d="M 8.5 21.578125 
L 8.5 54.6875 
L 17.484375 54.6875 
L 17.484375 21.921875 
Q 17.484375 14.15625 20.5 10.265625 
Q 23.53125 6.390625 29.59375 6.390625 
Q 36.859375 6.390625 41.078125 11.03125 
Q 45.3125 15.671875 45.3125 23.6875 
L 45.3125 54.6875 
L 54.296875 54.6875 
L 54.296875 0 
L 45.3125 0 
L 45.3125 8.40625 
Q 42.046875 3.421875 37.71875 1 
Q 33.40625 -1.421875 27.6875 -1.421875 
Q 18.265625 -1.421875 13.375 4.4375 
Q 8.5 10.296875 8.5 21.578125 
z
M 31.109375 56 
z
" id="DejaVuSans-117"/>
      <path d="M 56.203125 29.59375 
L 56.203125 25.203125 
L 14.890625 25.203125 
Q 15.484375 15.921875 20.484375 11.0625 
Q 25.484375 6.203125 34.421875 6.203125 
Q 39.59375 6.203125 44.453125 7.46875 
Q 49.3125 8.734375 54.109375 11.28125 
L 54.109375 2.78125 
Q 49.265625 0.734375 44.1875 -0.34375 
Q 39.109375 -1.421875 33.890625 -1.421875 
Q 20.796875 -1.421875 13.15625 6.1875 
Q 5.515625 13.8125 5.515625 26.8125 
Q 5.515625 40.234375 12.765625 48.109375 
Q 20.015625 56 32.328125 56 
Q 43.359375 56 49.78125 48.890625 
Q 56.203125 41.796875 56.203125 29.59375 
z
M 47.21875 32.234375 
Q 47.125 39.59375 43.09375 43.984375 
Q 39.0625 48.390625 32.421875 48.390625 
Q 24.90625 48.390625 20.390625 44.140625 
Q 15.875 39.890625 15.1875 32.171875 
z
M 28.171875 79.984375 
L 35.40625 79.984375 
L 47.359375 61.625 
L 40.578125 61.625 
L 31.78125 73.578125 
L 23 61.625 
L 16.21875 61.625 
z
" id="DejaVuSans-234"/>
      <path d="M 54.890625 33.015625 
L 54.890625 0 
L 45.90625 0 
L 45.90625 32.71875 
Q 45.90625 40.484375 42.875 44.328125 
Q 39.84375 48.1875 33.796875 48.1875 
Q 26.515625 48.1875 22.3125 43.546875 
Q 18.109375 38.921875 18.109375 30.90625 
L 18.109375 0 
L 9.078125 0 
L 9.078125 54.6875 
L 18.109375 54.6875 
L 18.109375 46.1875 
Q 21.34375 51.125 25.703125 53.5625 
Q 30.078125 56 35.796875 56 
Q 45.21875 56 50.046875 50.171875 
Q 54.890625 44.34375 54.890625 33.015625 
z
" id="DejaVuSans-110"/>
      <path d="M 48.78125 52.59375 
L 48.78125 44.1875 
Q 44.96875 46.296875 41.140625 47.34375 
Q 37.3125 48.390625 33.40625 48.390625 
Q 24.65625 48.390625 19.8125 42.84375 
Q 14.984375 37.3125 14.984375 27.296875 
Q 14.984375 17.28125 19.8125 11.734375 
Q 24.65625 6.203125 33.40625 6.203125 
Q 37.3125 6.203125 41.140625 7.25 
Q 44.96875 8.296875 48.78125 10.40625 
L 48.78125 2.09375 
Q 45.015625 0.34375 40.984375 -0.53125 
Q 36.96875 -1.421875 32.421875 -1.421875 
Q 20.0625 -1.421875 12.78125 6.34375 
Q 5.515625 14.109375 5.515625 27.296875 
Q 5.515625 40.671875 12.859375 48.328125 
Q 20.21875 56 33.015625 56 
Q 37.15625 56 41.109375 55.140625 
Q 45.0625 54.296875 48.78125 52.59375 
z
" id="DejaVuSans-99"/>
      <path d="M 9.421875 54.6875 
L 18.40625 54.6875 
L 18.40625 0 
L 9.421875 0 
z
M 9.421875 75.984375 
L 18.40625 75.984375 
L 18.40625 64.59375 
L 9.421875 64.59375 
z
" id="DejaVuSans-105"/>
      <path d="M 34.28125 27.484375 
Q 23.390625 27.484375 19.1875 25 
Q 14.984375 22.515625 14.984375 16.5 
Q 14.984375 11.71875 18.140625 8.90625 
Q 21.296875 6.109375 26.703125 6.109375 
Q 34.1875 6.109375 38.703125 11.40625 
Q 43.21875 16.703125 43.21875 25.484375 
L 43.21875 27.484375 
z
M 52.203125 31.203125 
L 52.203125 0 
L 43.21875 0 
L 43.21875 8.296875 
Q 40.140625 3.328125 35.546875 0.953125 
Q 30.953125 -1.421875 24.3125 -1.421875 
Q 15.921875 -1.421875 10.953125 3.296875 
Q 6 8.015625 6 15.921875 
Q 6 25.140625 12.171875 29.828125 
Q 18.359375 34.515625 30.609375 34.515625 
L 43.21875 34.515625 
L 43.21875 35.40625 
Q 43.21875 41.609375 39.140625 45 
Q 35.0625 48.390625 27.6875 48.390625 
Q 23 48.390625 18.546875 47.265625 
Q 14.109375 46.140625 10.015625 43.890625 
L 10.015625 52.203125 
Q 14.9375 54.109375 19.578125 55.046875 
Q 24.21875 56 28.609375 56 
Q 40.484375 56 46.34375 49.84375 
Q 52.203125 43.703125 52.203125 31.203125 
z
" id="DejaVuSans-97"/>
      <path id="DejaVuSans-32"/>
      <path d="M 45.40625 46.390625 
L 45.40625 75.984375 
L 54.390625 75.984375 
L 54.390625 0 
L 45.40625 0 
L 45.40625 8.203125 
Q 42.578125 3.328125 38.25 0.953125 
Q 33.9375 -1.421875 27.875 -1.421875 
Q 17.96875 -1.421875 11.734375 6.484375 
Q 5.515625 14.40625 5.515625 27.296875 
Q 5.515625 40.1875 11.734375 48.09375 
Q 17.96875 56 27.875 56 
Q 33.9375 56 38.25 53.625 
Q 42.578125 51.265625 45.40625 46.390625 
z
M 14.796875 27.296875 
Q 14.796875 17.390625 18.875 11.75 
Q 22.953125 6.109375 30.078125 6.109375 
Q 37.203125 6.109375 41.296875 11.75 
Q 45.40625 17.390625 45.40625 27.296875 
Q 45.40625 37.203125 41.296875 42.84375 
Q 37.203125 48.484375 30.078125 48.484375 
Q 22.953125 48.484375 18.875 42.84375 
Q 14.796875 37.203125 14.796875 27.296875 
z
" id="DejaVuSans-100"/>
      <path d="M 30.609375 48.390625 
Q 23.390625 48.390625 19.1875 42.75 
Q 14.984375 37.109375 14.984375 27.296875 
Q 14.984375 17.484375 19.15625 11.84375 
Q 23.34375 6.203125 30.609375 6.203125 
Q 37.796875 6.203125 41.984375 11.859375 
Q 46.1875 17.53125 46.1875 27.296875 
Q 46.1875 37.015625 41.984375 42.703125 
Q 37.796875 48.390625 30.609375 48.390625 
z
M 30.609375 56 
Q 42.328125 56 49.015625 48.375 
Q 55.71875 40.765625 55.71875 27.296875 
Q 55.71875 13.875 49.015625 6.21875 
Q 42.328125 -1.421875 30.609375 -1.421875 
Q 18.84375 -1.421875 12.171875 6.21875 
Q 5.515625 13.875 5.515625 27.296875 
Q 5.515625 40.765625 12.171875 48.375 
Q 18.84375 56 30.609375 56 
z
" id="DejaVuSans-111"/>
      <path d="M 44.28125 53.078125 
L 44.28125 44.578125 
Q 40.484375 46.53125 36.375 47.5 
Q 32.28125 48.484375 27.875 48.484375 
Q 21.1875 48.484375 17.84375 46.4375 
Q 14.5 44.390625 14.5 40.28125 
Q 14.5 37.15625 16.890625 35.375 
Q 19.28125 33.59375 26.515625 31.984375 
L 29.59375 31.296875 
Q 39.15625 29.25 43.1875 25.515625 
Q 47.21875 21.78125 47.21875 15.09375 
Q 47.21875 7.46875 41.1875 3.015625 
Q 35.15625 -1.421875 24.609375 -1.421875 
Q 20.21875 -1.421875 15.453125 -0.5625 
Q 10.6875 0.296875 5.421875 2 
L 5.421875 11.28125 
Q 10.40625 8.6875 15.234375 7.390625 
Q 20.0625 6.109375 24.8125 6.109375 
Q 31.15625 6.109375 34.5625 8.28125 
Q 37.984375 10.453125 37.984375 14.40625 
Q 37.984375 18.0625 35.515625 20.015625 
Q 33.0625 21.96875 24.703125 23.78125 
L 21.578125 24.515625 
Q 13.234375 26.265625 9.515625 29.90625 
Q 5.8125 33.546875 5.8125 39.890625 
Q 5.8125 47.609375 11.28125 51.796875 
Q 16.75 56 26.8125 56 
Q 31.78125 56 36.171875 55.265625 
Q 40.578125 54.546875 44.28125 53.078125 
z
" id="DejaVuSans-115"/>
      <path d="M 18.3125 70.21875 
L 18.3125 54.6875 
L 36.8125 54.6875 
L 36.8125 47.703125 
L 18.3125 47.703125 
L 18.3125 18.015625 
Q 18.3125 11.328125 20.140625 9.421875 
Q 21.96875 7.515625 27.59375 7.515625 
L 36.8125 7.515625 
L 36.8125 0 
L 27.59375 0 
Q 17.1875 0 13.234375 3.875 
Q 9.28125 7.765625 9.28125 18.015625 
L 9.28125 47.703125 
L 2.6875 47.703125 
L 2.6875 54.6875 
L 9.28125 54.6875 
L 9.28125 70.21875 
z
" id="DejaVuSans-116"/>
      <path d="M 20.703125 79.984375 
L 30.421875 79.984375 
L 14.5 61.625 
L 7.03125 61.625 
z
M 9.421875 54.6875 
L 18.40625 54.6875 
L 18.40625 0 
L 9.421875 0 
z
M 13.921875 56 
z
" id="DejaVuSans-237"/>
      <path d="M 52 44.1875 
Q 55.375 50.25 60.0625 53.125 
Q 64.75 56 71.09375 56 
Q 79.640625 56 84.28125 50.015625 
Q 88.921875 44.046875 88.921875 33.015625 
L 88.921875 0 
L 79.890625 0 
L 79.890625 32.71875 
Q 79.890625 40.578125 77.09375 44.375 
Q 74.3125 48.1875 68.609375 48.1875 
Q 61.625 48.1875 57.5625 43.546875 
Q 53.515625 38.921875 53.515625 30.90625 
L 53.515625 0 
L 44.484375 0 
L 44.484375 32.71875 
Q 44.484375 40.625 41.703125 44.40625 
Q 38.921875 48.1875 33.109375 48.1875 
Q 26.21875 48.1875 22.15625 43.53125 
Q 18.109375 38.875 18.109375 30.90625 
L 18.109375 0 
L 9.078125 0 
L 9.078125 54.6875 
L 18.109375 54.6875 
L 18.109375 46.1875 
Q 21.1875 51.21875 25.484375 53.609375 
Q 29.78125 56 35.6875 56 
Q 41.65625 56 45.828125 52.96875 
Q 50 49.953125 52 44.1875 
z
" id="DejaVuSans-109"/>
      <path d="M 9.421875 75.984375 
L 18.40625 75.984375 
L 18.40625 0 
L 9.421875 0 
z
" id="DejaVuSans-108"/>
      <path d="M 30.609375 48.390625 
Q 23.390625 48.390625 19.1875 42.75 
Q 14.984375 37.109375 14.984375 27.296875 
Q 14.984375 17.484375 19.15625 11.84375 
Q 23.34375 6.203125 30.609375 6.203125 
Q 37.796875 6.203125 41.984375 11.859375 
Q 46.1875 17.53125 46.1875 27.296875 
Q 46.1875 37.015625 41.984375 42.703125 
Q 37.796875 48.390625 30.609375 48.390625 
z
M 30.609375 56 
Q 42.328125 56 49.015625 48.375 
Q 55.71875 40.765625 55.71875 27.296875 
Q 55.71875 13.875 49.015625 6.21875 
Q 42.328125 -1.421875 30.609375 -1.421875 
Q 18.84375 -1.421875 12.171875 6.21875 
Q 5.515625 13.875 5.515625 27.296875 
Q 5.515625 40.765625 12.171875 48.375 
Q 18.84375 56 30.609375 56 
z
M 27 79.984375 
L 34.234375 79.984375 
L 46.1875 61.625 
L 39.40625 61.625 
L 30.609375 73.578125 
L 21.828125 61.625 
L 15.046875 61.625 
z
" id="DejaVuSans-244"/>
      <path d="M 31 75.875 
Q 24.46875 64.65625 21.28125 53.65625 
Q 18.109375 42.671875 18.109375 31.390625 
Q 18.109375 20.125 21.3125 9.0625 
Q 24.515625 -2 31 -13.1875 
L 23.1875 -13.1875 
Q 15.875 -1.703125 12.234375 9.375 
Q 8.59375 20.453125 8.59375 31.390625 
Q 8.59375 42.28125 12.203125 53.3125 
Q 15.828125 64.359375 23.1875 75.875 
z
" id="DejaVuSans-40"/>
      <path d="M 9.8125 72.90625 
L 19.671875 72.90625 
L 19.671875 43.015625 
L 55.515625 43.015625 
L 55.515625 72.90625 
L 65.375 72.90625 
L 65.375 0 
L 55.515625 0 
L 55.515625 34.71875 
L 19.671875 34.71875 
L 19.671875 0 
L 9.8125 0 
z
" id="DejaVuSans-72"/>
      <path d="M 5.515625 54.6875 
L 48.1875 54.6875 
L 48.1875 46.484375 
L 14.40625 7.171875 
L 48.1875 7.171875 
L 48.1875 0 
L 4.296875 0 
L 4.296875 8.203125 
L 38.09375 47.515625 
L 5.515625 47.515625 
z
" id="DejaVuSans-122"/>
      <path d="M 8.015625 75.875 
L 15.828125 75.875 
Q 23.140625 64.359375 26.78125 53.3125 
Q 30.421875 42.28125 30.421875 31.390625 
Q 30.421875 20.453125 26.78125 9.375 
Q 23.140625 -1.703125 15.828125 -13.1875 
L 8.015625 -13.1875 
Q 14.5 -2 17.703125 9.0625 
Q 20.90625 20.125 20.90625 31.390625 
Q 20.90625 42.671875 17.703125 53.65625 
Q 14.5 64.65625 8.015625 75.875 
z
" id="DejaVuSans-41"/>
     </defs>
     <g transform="translate(132.367031 336.260562)scale(0.1 -0.1)">
      <use xlink:href="#DejaVuSans-70"/>
      <use x="57.410156" xlink:href="#DejaVuSans-114"/>
      <use x="98.492188" xlink:href="#DejaVuSans-101"/>
      <use x="160.015625" xlink:href="#DejaVuSans-113"/>
      <use x="223.492188" xlink:href="#DejaVuSans-117"/>
      <use x="286.871094" xlink:href="#DejaVuSans-234"/>
      <use x="348.394531" xlink:href="#DejaVuSans-110"/>
      <use x="411.773438" xlink:href="#DejaVuSans-99"/>
      <use x="466.753906" xlink:href="#DejaVuSans-105"/>
      <use x="494.537109" xlink:href="#DejaVuSans-97"/>
      <use x="555.816406" xlink:href="#DejaVuSans-32"/>
      <use x="587.603516" xlink:href="#DejaVuSans-100"/>
      <use x="651.080078" xlink:href="#DejaVuSans-111"/>
      <use x="712.261719" xlink:href="#DejaVuSans-32"/>
      <use x="744.048828" xlink:href="#DejaVuSans-101"/>
      <use x="805.572266" xlink:href="#DejaVuSans-115"/>
      <use x="857.671875" xlink:href="#DejaVuSans-116"/>
      <use x="896.880859" xlink:href="#DejaVuSans-237"/>
      <use x="924.664062" xlink:href="#DejaVuSans-109"/>
      <use x="1022.076172" xlink:href="#DejaVuSans-117"/>
      <use x="1085.455078" xlink:href="#DejaVuSans-108"/>
      <use x="1113.238281" xlink:href="#DejaVuSans-111"/>
      <use x="1174.419922" xlink:href="#DejaVuSans-32"/>
      <use x="1206.207031" xlink:href="#DejaVuSans-97"/>
      <use x="1267.486328" xlink:href="#DejaVuSans-110"/>
      <use x="1330.865234" xlink:href="#DejaVuSans-116"/>
      <use x="1370.074219" xlink:href="#DejaVuSans-111"/>
      <use x="1431.255859" xlink:href="#DejaVuSans-100"/>
      <use x="1494.732422" xlink:href="#DejaVuSans-114"/>
      <use x="1535.814453" xlink:href="#DejaVuSans-244"/>
      <use x="1596.996094" xlink:href="#DejaVuSans-109"/>
      <use x="1694.408203" xlink:href="#DejaVuSans-105"/>
      <use x="1722.191406" xlink:href="#DejaVuSans-99"/>
      <use x="1777.171875" xlink:href="#DejaVuSans-111"/>
      <use x="1838.353516" xlink:href="#DejaVuSans-32"/>
      <use x="1870.140625" xlink:href="#DejaVuSans-40"/>
      <use x="1909.154297" xlink:href="#DejaVuSans-72"/>
      <use x="1984.349609" xlink:href="#DejaVuSans-122"/>
      <use x="2036.839844" xlink:href="#DejaVuSans-41"/>
     </g>
    </g>
   </g>
   <g id="matplotlib.axis_2">
    <g id="ytick_1">
     <g id="line2d_9">
      <defs>
       <path d="M 0 0 
L -3.5 0 
" id="md1f1f0b9e6" style="stroke:#000000;stroke-width:0.8;"/>
      </defs>
      <g>
       <use style="stroke:#000000;stroke-width:0.8;" x="57.6" xlink:href="#md1f1f0b9e6" y="295.488"/>
      </g>
     </g>
     <g id="text_10">
      <!-- 0 -->
      <g transform="translate(44.2375 299.287219)scale(0.1 -0.1)">
       <use xlink:href="#DejaVuSans-48"/>
      </g>
     </g>
    </g>
    <g id="ytick_2">
     <g id="line2d_10">
      <g>
       <use style="stroke:#000000;stroke-width:0.8;" x="57.6" xlink:href="#md1f1f0b9e6" y="240.021115"/>
      </g>
     </g>
     <g id="text_11">
      <!-- 50 -->
      <g transform="translate(37.875 243.820333)scale(0.1 -0.1)">
       <use xlink:href="#DejaVuSans-53"/>
       <use x="63.623047" xlink:href="#DejaVuSans-48"/>
      </g>
     </g>
    </g>
    <g id="ytick_3">
     <g id="line2d_11">
      <g>
       <use style="stroke:#000000;stroke-width:0.8;" x="57.6" xlink:href="#md1f1f0b9e6" y="184.554229"/>
      </g>
     </g>
     <g id="text_12">
      <!-- 100 -->
      <g transform="translate(31.5125 188.353448)scale(0.1 -0.1)">
       <use xlink:href="#DejaVuSans-49"/>
       <use x="63.623047" xlink:href="#DejaVuSans-48"/>
       <use x="127.246094" xlink:href="#DejaVuSans-48"/>
      </g>
     </g>
    </g>
    <g id="ytick_4">
     <g id="line2d_12">
      <g>
       <use style="stroke:#000000;stroke-width:0.8;" x="57.6" xlink:href="#md1f1f0b9e6" y="129.087344"/>
      </g>
     </g>
     <g id="text_13">
      <!-- 150 -->
      <g transform="translate(31.5125 132.886562)scale(0.1 -0.1)">
       <use xlink:href="#DejaVuSans-49"/>
       <use x="63.623047" xlink:href="#DejaVuSans-53"/>
       <use x="127.246094" xlink:href="#DejaVuSans-48"/>
      </g>
     </g>
    </g>
    <g id="ytick_5">
     <g id="line2d_13">
      <g>
       <use style="stroke:#000000;stroke-width:0.8;" x="57.6" xlink:href="#md1f1f0b9e6" y="73.620458"/>
      </g>
     </g>
     <g id="text_14">
      <!-- 200 -->
      <g transform="translate(31.5125 77.419677)scale(0.1 -0.1)">
       <use xlink:href="#DejaVuSans-50"/>
       <use x="63.623047" xlink:href="#DejaVuSans-48"/>
       <use x="127.246094" xlink:href="#DejaVuSans-48"/>
      </g>
     </g>
    </g>
    <g id="text_15">
     <!-- Taxa de disparo da CR (pps) -->
     <defs>
      <path d="M -0.296875 72.90625 
L 61.375 72.90625 
L 61.375 64.59375 
L 35.5 64.59375 
L 35.5 0 
L 25.59375 0 
L 25.59375 64.59375 
L -0.296875 64.59375 
z
" id="DejaVuSans-84"/>
      <path d="M 54.890625 54.6875 
L 35.109375 28.078125 
L 55.90625 0 
L 45.3125 0 
L 29.390625 21.484375 
L 13.484375 0 
L 2.875 0 
L 24.125 28.609375 
L 4.6875 54.6875 
L 15.28125 54.6875 
L 29.78125 35.203125 
L 44.28125 54.6875 
z
" id="DejaVuSans-120"/>
      <path d="M 18.109375 8.203125 
L 18.109375 -20.796875 
L 9.078125 -20.796875 
L 9.078125 54.6875 
L 18.109375 54.6875 
L 18.109375 46.390625 
Q 20.953125 51.265625 25.265625 53.625 
Q 29.59375 56 35.59375 56 
Q 45.5625 56 51.78125 48.09375 
Q 58.015625 40.1875 58.015625 27.296875 
Q 58.015625 14.40625 51.78125 6.484375 
Q 45.5625 -1.421875 35.59375 -1.421875 
Q 29.59375 -1.421875 25.265625 0.953125 
Q 20.953125 3.328125 18.109375 8.203125 
z
M 48.6875 27.296875 
Q 48.6875 37.203125 44.609375 42.84375 
Q 40.53125 48.484375 33.40625 48.484375 
Q 26.265625 48.484375 22.1875 42.84375 
Q 18.109375 37.203125 18.109375 27.296875 
Q 18.109375 17.390625 22.1875 11.75 
Q 26.265625 6.109375 33.40625 6.109375 
Q 40.53125 6.109375 44.609375 11.75 
Q 48.6875 17.390625 48.6875 27.296875 
z
" id="DejaVuSans-112"/>
      <path d="M 64.40625 67.28125 
L 64.40625 56.890625 
Q 59.421875 61.53125 53.78125 63.8125 
Q 48.140625 66.109375 41.796875 66.109375 
Q 29.296875 66.109375 22.65625 58.46875 
Q 16.015625 50.828125 16.015625 36.375 
Q 16.015625 21.96875 22.65625 14.328125 
Q 29.296875 6.6875 41.796875 6.6875 
Q 48.140625 6.6875 53.78125 8.984375 
Q 59.421875 11.28125 64.40625 15.921875 
L 64.40625 5.609375 
Q 59.234375 2.09375 53.4375 0.328125 
Q 47.65625 -1.421875 41.21875 -1.421875 
Q 24.65625 -1.421875 15.125 8.703125 
Q 5.609375 18.84375 5.609375 36.375 
Q 5.609375 53.953125 15.125 64.078125 
Q 24.65625 74.21875 41.21875 74.21875 
Q 47.75 74.21875 53.53125 72.484375 
Q 59.328125 70.75 64.40625 67.28125 
z
" id="DejaVuSans-67"/>
      <path d="M 44.390625 34.1875 
Q 47.5625 33.109375 50.5625 29.59375 
Q 53.5625 26.078125 56.59375 19.921875 
L 66.609375 0 
L 56 0 
L 46.6875 18.703125 
Q 43.0625 26.03125 39.671875 28.421875 
Q 36.28125 30.8125 30.421875 30.8125 
L 19.671875 30.8125 
L 19.671875 0 
L 9.8125 0 
L 9.8125 72.90625 
L 32.078125 72.90625 
Q 44.578125 72.90625 50.734375 67.671875 
Q 56.890625 62.453125 56.890625 51.90625 
Q 56.890625 45.015625 53.6875 40.46875 
Q 50.484375 35.9375 44.390625 34.1875 
z
M 19.671875 64.796875 
L 19.671875 38.921875 
L 32.078125 38.921875 
Q 39.203125 38.921875 42.84375 42.21875 
Q 46.484375 45.515625 46.484375 51.90625 
Q 46.484375 58.296875 42.84375 61.546875 
Q 39.203125 64.796875 32.078125 64.796875 
z
" id="DejaVuSans-82"/>
     </defs>
     <g transform="translate(25.432812 245.431125)rotate(-90)scale(0.1 -0.1)">
      <use xlink:href="#DejaVuSans-84"/>
      <use x="60.833984" xlink:href="#DejaVuSans-97"/>
      <use x="122.113281" xlink:href="#DejaVuSans-120"/>
      <use x="181.292969" xlink:href="#DejaVuSans-97"/>
      <use x="242.572266" xlink:href="#DejaVuSans-32"/>
      <use x="274.359375" xlink:href="#DejaVuSans-100"/>
      <use x="337.835938" xlink:href="#DejaVuSans-101"/>
      <use x="399.359375" xlink:href="#DejaVuSans-32"/>
      <use x="431.146484" xlink:href="#DejaVuSans-100"/>
      <use x="494.623047" xlink:href="#DejaVuSans-105"/>
      <use x="522.40625" xlink:href="#DejaVuSans-115"/>
      <use x="574.505859" xlink:href="#DejaVuSans-112"/>
      <use x="637.982422" xlink:href="#DejaVuSans-97"/>
      <use x="699.261719" xlink:href="#DejaVuSans-114"/>
      <use x="740.34375" xlink:href="#DejaVuSans-111"/>
      <use x="801.525391" xlink:href="#DejaVuSans-32"/>
      <use x="833.3125" xlink:href="#DejaVuSans-100"/>
      <use x="896.789062" xlink:href="#DejaVuSans-97"/>
      <use x="958.068359" xlink:href="#DejaVuSans-32"/>
      <use x="989.855469" xlink:href="#DejaVuSans-67"/>
      <use x="1059.679688" xlink:href="#DejaVuSans-82"/>
      <use x="1129.162109" xlink:href="#DejaVuSans-32"/>
      <use x="1160.949219" xlink:href="#DejaVuSans-40"/>
      <use x="1199.962891" xlink:href="#DejaVuSans-112"/>
      <use x="1263.439453" xlink:href="#DejaVuSans-112"/>
      <use x="1326.916016" xlink:href="#DejaVuSans-115"/>
      <use x="1379.015625" xlink:href="#DejaVuSans-41"/>
     </g>
    </g>
   </g>
   <g id="line2d_14">
    <path clip-path="url(#p05af30dd08)" d="M 73.832727 295.488 
L 77.112066 291.226878 
L 80.391405 287.033044 
L 83.670744 282.904916 
L 86.950083 278.840963 
L 90.229421 274.839699 
L 93.50876 270.899685 
L 96.788099 267.019526 
L 100.067438 263.197867 
L 103.346777 259.433395 
L 106.626116 255.724837 
L 109.905455 252.070956 
L 113.184793 248.470551 
L 116.464132 244.922457 
L 119.743471 241.425543 
L 123.02281 237.978709 
L 126.302149 234.580886 
L 129.581488 231.231036 
L 132.860826 227.928152 
L 136.140165 224.671252 
L 139.419504 221.459382 
L 142.698843 218.291615 
L 145.978182 215.167048 
L 149.257521 212.084805 
L 152.53686 209.04403 
L 155.816198 206.043893 
L 159.095537 203.083584 
L 162.374876 200.162315 
L 165.654215 197.27932 
L 168.933554 194.43385 
L 172.212893 191.625179 
L 175.492231 188.852596 
L 178.77157 186.115411 
L 182.050909 183.41295 
L 185.330248 180.744556 
L 188.609587 178.10959 
L 191.888926 175.507426 
L 195.168264 172.937457 
L 198.447603 170.399089 
L 201.726942 167.891742 
L 205.006281 165.41485 
L 208.28562 162.967864 
L 211.564959 160.550243 
L 214.844298 158.161463 
L 218.123636 155.801011 
L 221.402975 153.468385 
L 224.682314 151.163097 
L 227.961653 148.884669 
L 231.240992 146.632634 
L 234.520331 144.406536 
L 237.799669 142.205929 
L 241.079008 140.030379 
L 244.358347 137.879459 
L 247.637686 135.752755 
L 250.917025 133.649858 
L 254.196364 131.570372 
L 257.475702 129.513907 
L 260.755041 127.480085 
L 264.03438 125.468532 
L 267.313719 123.478885 
L 270.593058 121.510788 
L 273.872397 119.563892 
L 277.151736 117.637858 
L 280.431074 115.732352 
L 283.710413 113.847046 
L 286.989752 111.981622 
L 290.269091 110.135767 
L 293.54843 108.309174 
L 296.827769 106.501544 
L 300.107107 104.712582 
L 303.386446 102.942002 
L 306.665785 101.18952 
L 309.945124 99.454862 
L 313.224463 97.737756 
L 316.503802 96.037937 
L 319.78314 94.355146 
L 323.062479 92.689129 
L 326.341818 91.039634 
L 329.621157 89.406419 
L 332.900496 87.789243 
L 336.179835 86.187871 
L 339.459174 84.602072 
L 342.738512 83.031621 
L 346.017851 81.476296 
L 349.29719 79.935879 
L 352.576529 78.410156 
L 355.855868 76.898919 
L 359.135207 75.401963 
L 362.414545 73.919085 
L 365.693884 72.450089 
L 368.973223 70.994779 
L 372.252562 69.552967 
L 375.531901 68.124464 
L 378.81124 66.709087 
L 382.090579 65.306657 
L 385.369917 63.916996 
L 388.649256 62.539932 
L 391.928595 61.175292 
L 395.207934 59.822911 
L 398.487273 58.482623 
" style="fill:none;stroke:#1f77b4;stroke-linecap:square;stroke-width:1.5;"/>
   </g>
   <g id="line2d_15">
    <path clip-path="url(#p05af30dd08)" d="M 73.832727 295.488 
L 77.112066 291.259321 
L 80.391405 287.09554 
L 83.670744 282.995172 
L 86.950083 278.956781 
L 90.229421 274.978971 
L 93.50876 271.060391 
L 96.788099 267.199726 
L 100.067438 263.395702 
L 103.346777 259.647082 
L 106.626116 255.952664 
L 109.905455 252.31128 
L 113.184793 248.721798 
L 116.464132 245.183115 
L 119.743471 241.694161 
L 123.02281 238.253894 
L 126.302149 234.861302 
L 129.581488 231.515402 
L 132.860826 228.215236 
L 136.140165 224.959872 
L 139.419504 221.748405 
L 142.698843 218.579952 
L 145.978182 215.453656 
L 149.257521 212.368679 
L 152.53686 209.324209 
L 155.816198 206.319453 
L 159.095537 203.353639 
L 162.374876 200.426014 
L 165.654215 197.535846 
L 168.933554 194.682421 
L 172.212893 191.865042 
L 175.492231 189.08303 
L 178.77157 186.335724 
L 182.050909 183.622479 
L 185.330248 180.942664 
L 188.609587 178.295666 
L 191.888926 175.680885 
L 195.168264 173.097737 
L 198.447603 170.545652 
L 201.726942 168.024072 
L 205.006281 165.532454 
L 208.28562 163.070266 
L 211.564959 160.636991 
L 214.844298 158.232123 
L 218.123636 155.855165 
L 221.402975 153.505637 
L 224.682314 151.183064 
L 227.961653 148.886987 
L 231.240992 146.616955 
L 234.520331 144.372526 
L 237.799669 142.15327 
L 241.079008 139.958766 
L 244.358347 137.788602 
L 247.637686 135.642375 
L 250.917025 133.519692 
L 254.196364 131.420168 
L 257.475702 129.343424 
L 260.755041 127.289093 
L 264.03438 125.256813 
L 267.313719 123.246232 
L 270.593058 121.257004 
L 273.872397 119.28879 
L 277.151736 117.341259 
L 280.431074 115.414088 
L 283.710413 113.506957 
L 286.989752 111.619557 
L 290.269091 109.751582 
L 293.54843 107.902735 
L 296.827769 106.072723 
L 300.107107 104.261259 
L 303.386446 102.468064 
L 306.665785 100.692861 
L 309.945124 98.935382 
L 313.224463 97.195363 
L 316.503802 95.472545 
L 319.78314 93.766673 
L 323.062479 92.077499 
L 326.341818 90.404779 
L 329.621157 88.748274 
L 332.900496 87.10775 
L 336.179835 85.482975 
L 339.459174 83.873725 
L 342.738512 82.279777 
L 346.017851 80.700915 
L 349.29719 79.136926 
L 352.576529 77.587599 
L 355.855868 76.052731 
L 359.135207 74.53212 
L 362.414545 73.025567 
L 365.693884 71.532879 
L 368.973223 70.053866 
L 372.252562 68.588339 
L 375.531901 67.136117 
L 378.81124 65.697017 
L 382.090579 64.270864 
L 385.369917 62.857483 
L 388.649256 61.456704 
L 391.928595 60.068358 
L 395.207934 58.692281 
L 398.487273 57.328311 
" style="fill:none;stroke:#ff7f0e;stroke-linecap:square;stroke-width:1.5;"/>
   </g>
   <g id="line2d_16">
    <path clip-path="url(#p05af30dd08)" d="M 73.832727 295.488 
L 77.112066 292.080194 
L 80.391405 288.737241 
L 83.670744 285.457309 
L 86.950083 282.238632 
L 90.229421 279.079509 
L 93.50876 275.978303 
L 96.788099 272.933435 
L 100.067438 269.943385 
L 103.346777 267.006685 
L 106.626116 264.121919 
L 109.905455 261.287723 
L 113.184793 258.502778 
L 116.464132 255.765811 
L 119.743471 253.075594 
L 123.02281 250.430938 
L 126.302149 247.830695 
L 129.581488 245.273758 
L 132.860826 242.759051 
L 136.140165 240.285538 
L 139.419504 237.852215 
L 142.698843 235.45811 
L 145.978182 233.102283 
L 149.257521 230.783823 
L 152.53686 228.501847 
L 155.816198 226.255502 
L 159.095537 224.043959 
L 162.374876 221.866416 
L 165.654215 219.722095 
L 168.933554 217.61024 
L 172.212893 215.530121 
L 175.492231 213.481028 
L 178.77157 211.462271 
L 182.050909 209.473181 
L 185.330248 207.51311 
L 188.609587 205.581426 
L 191.888926 203.677519 
L 195.168264 201.800792 
L 198.447603 199.950668 
L 201.726942 198.126586 
L 205.006281 196.327998 
L 208.28562 194.554376 
L 211.564959 192.805201 
L 214.844298 191.079973 
L 218.123636 189.378203 
L 221.402975 187.699415 
L 224.682314 186.043148 
L 227.961653 184.40895 
L 231.240992 182.796385 
L 234.520331 181.205024 
L 237.799669 179.634454 
L 241.079008 178.084268 
L 244.358347 176.554073 
L 247.637686 175.043484 
L 250.917025 173.552127 
L 254.196364 172.079637 
L 257.475702 170.625658 
L 260.755041 169.189844 
L 264.03438 167.771855 
L 267.313719 166.371363 
L 270.593058 164.988045 
L 273.872397 163.621588 
L 277.151736 162.271684 
L 280.431074 160.938035 
L 283.710413 159.620349 
L 286.989752 158.318342 
L 290.269091 157.031734 
L 293.54843 155.760255 
L 296.827769 154.503639 
L 300.107107 153.261627 
L 303.386446 152.033966 
L 306.665785 150.820409 
L 309.945124 149.620713 
L 313.224463 148.434644 
L 316.503802 147.261969 
L 319.78314 146.102464 
L 323.062479 144.955907 
L 326.341818 143.822084 
L 329.621157 142.700782 
L 332.900496 141.591796 
L 336.179835 140.494925 
L 339.459174 139.40997 
L 342.738512 138.336738 
L 346.017851 137.275041 
L 349.29719 136.224693 
L 352.576529 135.185514 
L 355.855868 134.157326 
L 359.135207 133.139955 
L 362.414545 132.133233 
L 365.693884 131.136993 
L 368.973223 130.151071 
L 372.252562 129.175309 
L 375.531901 128.209549 
L 378.81124 127.25364 
L 382.090579 126.307431 
L 385.369917 125.370775 
L 388.649256 124.443529 
L 391.928595 123.525551 
L 395.207934 122.616702 
L 398.487273 121.716848 
" style="fill:none;stroke:#2ca02c;stroke-linecap:square;stroke-width:1.5;"/>
   </g>
   <g id="line2d_17">
    <path clip-path="url(#p05af30dd08)" d="M 73.832727 295.488 
L 77.112066 292.214475 
L 80.391405 288.979825 
L 83.670744 285.783362 
L 86.950083 282.624414 
L 90.229421 279.502325 
L 93.50876 276.416452 
L 96.788099 273.36617 
L 100.067438 270.350866 
L 103.346777 267.369942 
L 106.626116 264.422813 
L 109.905455 261.508908 
L 113.184793 258.627668 
L 116.464132 255.778547 
L 119.743471 252.961012 
L 123.02281 250.174538 
L 126.302149 247.418617 
L 129.581488 244.692747 
L 132.860826 241.99644 
L 136.140165 239.329218 
L 139.419504 236.690613 
L 142.698843 234.080167 
L 145.978182 231.49743 
L 149.257521 228.941965 
L 152.53686 226.413342 
L 155.816198 223.911139 
L 159.095537 221.434945 
L 162.374876 218.984358 
L 165.654215 216.55898 
L 168.933554 214.158426 
L 172.212893 211.782316 
L 175.492231 209.430279 
L 178.77157 207.101951 
L 182.050909 204.796975 
L 185.330248 202.515001 
L 188.609587 200.255688 
L 191.888926 198.018698 
L 195.168264 195.803704 
L 198.447603 193.610381 
L 201.726942 191.438414 
L 205.006281 189.287492 
L 208.28562 187.15731 
L 211.564959 185.047571 
L 214.844298 182.957981 
L 218.123636 180.888254 
L 221.402975 178.838106 
L 224.682314 176.807262 
L 227.961653 174.79545 
L 231.240992 172.802405 
L 234.520331 170.827864 
L 237.799669 168.871571 
L 241.079008 166.933274 
L 244.358347 165.012727 
L 247.637686 163.109686 
L 250.917025 161.223913 
L 254.196364 159.355174 
L 257.475702 157.50324 
L 260.755041 155.667884 
L 264.03438 153.848886 
L 267.313719 152.046027 
L 270.593058 150.259093 
L 273.872397 148.487875 
L 277.151736 146.732166 
L 280.431074 144.991764 
L 283.710413 143.266468 
L 286.989752 141.556084 
L 290.269091 139.860418 
L 293.54843 138.179282 
L 296.827769 136.512489 
L 300.107107 134.859857 
L 303.386446 133.221206 
L 306.665785 131.596359 
L 309.945124 129.985143 
L 313.224463 128.387387 
L 316.503802 126.802923 
L 319.78314 125.231585 
L 323.062479 123.673212 
L 326.341818 122.127643 
L 329.621157 120.594722 
L 332.900496 119.074293 
L 336.179835 117.566205 
L 339.459174 116.070308 
L 342.738512 114.586454 
L 346.017851 113.1145 
L 349.29719 111.654302 
L 352.576529 110.20572 
L 355.855868 108.768616 
L 359.135207 107.342854 
L 362.414545 105.9283 
L 365.693884 104.524823 
L 368.973223 103.132293 
L 372.252562 101.750583 
L 375.531901 100.379567 
L 378.81124 99.01912 
L 382.090579 97.669123 
L 385.369917 96.329454 
L 388.649256 94.999995 
L 391.928595 93.680631 
L 395.207934 92.371246 
L 398.487273 91.071728 
" style="fill:none;stroke:#d62728;stroke-linecap:square;stroke-width:1.5;"/>
   </g>
   <g id="line2d_18">
    <path clip-path="url(#p05af30dd08)" d="M 73.832727 295.488 
L 77.112066 291.285958 
L 80.391405 287.145175 
L 83.670744 283.064322 
L 86.950083 279.042105 
L 90.229421 275.077271 
L 93.50876 271.168601 
L 96.788099 267.314909 
L 100.067438 263.515043 
L 103.346777 259.767884 
L 106.626116 256.072342 
L 109.905455 252.427358 
L 113.184793 248.831903 
L 116.464132 245.284972 
L 119.743471 241.785591 
L 123.02281 238.332809 
L 126.302149 234.925702 
L 129.581488 231.56337 
L 132.860826 228.244935 
L 136.140165 224.969544 
L 139.419504 221.736365 
L 142.698843 218.544586 
L 145.978182 215.393417 
L 149.257521 212.28209 
L 152.53686 209.209851 
L 155.816198 206.175971 
L 159.095537 203.179734 
L 162.374876 200.220444 
L 165.654215 197.297423 
L 168.933554 194.410006 
L 172.212893 191.557549 
L 175.492231 188.73942 
L 178.77157 185.955002 
L 182.050909 183.203695 
L 185.330248 180.484911 
L 188.609587 177.798077 
L 191.888926 175.142634 
L 195.168264 172.518034 
L 198.447603 169.923742 
L 201.726942 167.359238 
L 205.006281 164.824011 
L 208.28562 162.317562 
L 211.564959 159.839404 
L 214.844298 157.389061 
L 218.123636 154.966067 
L 221.402975 152.569967 
L 224.682314 150.200316 
L 227.961653 147.856678 
L 231.240992 145.538626 
L 234.520331 143.245745 
L 237.799669 140.977627 
L 241.079008 138.733872 
L 244.358347 136.51409 
L 247.637686 134.317899 
L 250.917025 132.144925 
L 254.196364 129.994802 
L 257.475702 127.86717 
L 260.755041 125.76168 
L 264.03438 123.677987 
L 267.313719 121.615754 
L 270.593058 119.574651 
L 273.872397 117.554357 
L 277.151736 115.554553 
L 280.431074 113.57493 
L 283.710413 111.615183 
L 286.989752 109.675016 
L 290.269091 107.754135 
L 293.54843 105.852255 
L 296.827769 103.969096 
L 300.107107 102.104382 
L 303.386446 100.257843 
L 306.665785 98.429215 
L 309.945124 96.618239 
L 313.224463 94.824661 
L 316.503802 93.04823 
L 319.78314 91.288702 
L 323.062479 89.545838 
L 326.341818 87.819401 
L 329.621157 86.10916 
L 332.900496 84.414889 
L 336.179835 82.736364 
L 339.459174 81.073368 
L 342.738512 79.425685 
L 346.017851 77.793106 
L 349.29719 76.175423 
L 352.576529 74.572434 
L 355.855868 72.983939 
L 359.135207 71.409742 
L 362.414545 69.849652 
L 365.693884 68.30348 
L 368.973223 66.771039 
L 372.252562 65.252149 
L 375.531901 63.74663 
L 378.81124 62.254306 
L 382.090579 60.775005 
L 385.369917 59.308557 
L 388.649256 57.854795 
L 391.928595 56.413555 
L 395.207934 54.984676 
L 398.487273 53.568 
" style="fill:none;stroke:#9467bd;stroke-linecap:square;stroke-width:1.5;"/>
   </g>
   <g id="line2d_19">
    <path clip-path="url(#p05af30dd08)" d="M 73.832727 295.488 
L 77.112066 292.112595 
L 80.391405 288.799372 
L 83.670744 285.546628 
L 86.950083 282.352724 
L 90.229421 279.216077 
L 93.50876 276.13516 
L 96.788099 273.108501 
L 100.067438 270.13468 
L 103.346777 267.212326 
L 106.626116 264.340112 
L 109.905455 261.516761 
L 113.184793 258.741035 
L 116.464132 256.01174 
L 119.743471 253.32772 
L 123.02281 250.687858 
L 126.302149 248.091073 
L 129.581488 245.536319 
L 132.860826 243.022584 
L 136.140165 240.548889 
L 139.419504 238.114283 
L 142.698843 235.717847 
L 145.978182 233.358692 
L 149.257521 231.035953 
L 152.53686 228.748795 
L 155.816198 226.496405 
L 159.095537 224.277996 
L 162.374876 222.092807 
L 165.654215 219.940095 
L 168.933554 217.819142 
L 172.212893 215.729251 
L 175.492231 213.669744 
L 178.77157 211.639964 
L 182.050909 209.639271 
L 185.330248 207.667044 
L 188.609587 205.722681 
L 191.888926 203.805594 
L 195.168264 201.915215 
L 198.447603 200.050989 
L 201.726942 198.212376 
L 205.006281 196.398852 
L 208.28562 194.609908 
L 211.564959 192.845047 
L 214.844298 191.103786 
L 218.123636 189.385655 
L 221.402975 187.690196 
L 224.682314 186.016963 
L 227.961653 184.365522 
L 231.240992 182.73545 
L 234.520331 181.126334 
L 237.799669 179.537774 
L 241.079008 177.969378 
L 244.358347 176.420765 
L 247.637686 174.891562 
L 250.917025 173.381406 
L 254.196364 171.889945 
L 257.475702 170.416833 
L 260.755041 168.961734 
L 264.03438 167.524319 
L 267.313719 166.104268 
L 270.593058 164.701267 
L 273.872397 163.315013 
L 277.151736 161.945206 
L 280.431074 160.591556 
L 283.710413 159.253779 
L 286.989752 157.931597 
L 290.269091 156.624738 
L 293.54843 155.332939 
L 296.827769 154.05594 
L 300.107107 152.793488 
L 303.386446 151.545337 
L 306.665785 150.311244 
L 309.945124 149.090973 
L 313.224463 147.884294 
L 316.503802 146.690981 
L 319.78314 145.510812 
L 323.062479 144.343572 
L 326.341818 143.18905 
L 329.621157 142.047038 
L 332.900496 140.917335 
L 336.179835 139.799742 
L 339.459174 138.694067 
L 342.738512 137.600118 
L 346.017851 136.517712 
L 349.29719 135.446665 
L 352.576529 134.3868 
L 355.855868 133.337944 
L 359.135207 132.299924 
L 362.414545 131.272575 
L 365.693884 130.255733 
L 368.973223 129.249236 
L 372.252562 128.252928 
L 375.531901 127.266656 
L 378.81124 126.290268 
L 382.090579 125.323616 
L 385.369917 124.366556 
L 388.649256 123.418945 
L 391.928595 122.480644 
L 395.207934 121.551517 
L 398.487273 120.63143 
" style="fill:none;stroke:#8c564b;stroke-linecap:square;stroke-width:1.5;"/>
   </g>
   <g id="line2d_20">
    <path clip-path="url(#p05af30dd08)" d="M 73.832727 295.488 
L 77.112066 292.131398 
L 80.391405 288.808388 
L 83.670744 285.518468 
L 86.950083 282.261147 
L 90.229421 279.035943 
L 93.50876 275.842382 
L 96.788099 272.680002 
L 100.067438 269.548348 
L 103.346777 266.446975 
L 106.626116 263.375444 
L 109.905455 260.333328 
L 113.184793 257.320207 
L 116.464132 254.335667 
L 119.743471 251.379303 
L 123.02281 248.45072 
L 126.302149 245.549526 
L 129.581488 242.67534 
L 132.860826 239.827785 
L 136.140165 237.006495 
L 139.419504 234.211106 
L 142.698843 231.441264 
L 145.978182 228.696621 
L 149.257521 225.976834 
L 152.53686 223.281566 
L 155.816198 220.610488 
L 159.095537 217.963276 
L 162.374876 215.33961 
L 165.654215 212.739179 
L 168.933554 210.161676 
L 172.212893 207.606797 
L 175.492231 205.074247 
L 178.77157 202.563734 
L 182.050909 200.074972 
L 185.330248 197.607679 
L 188.609587 195.161578 
L 191.888926 192.736399 
L 195.168264 190.331873 
L 198.447603 187.947738 
L 201.726942 185.583735 
L 205.006281 183.239611 
L 208.28562 180.915117 
L 211.564959 178.610005 
L 214.844298 176.324035 
L 218.123636 174.05697 
L 221.402975 171.808576 
L 224.682314 169.578623 
L 227.961653 167.366886 
L 231.240992 165.173141 
L 234.520331 162.997171 
L 237.799669 160.83876 
L 241.079008 158.697696 
L 244.358347 156.573772 
L 247.637686 154.466782 
L 250.917025 152.376525 
L 254.196364 150.302801 
L 257.475702 148.245416 
L 260.755041 146.204177 
L 264.03438 144.178896 
L 267.313719 142.169384 
L 270.593058 140.17546 
L 273.872397 138.196942 
L 277.151736 136.233653 
L 280.431074 134.285417 
L 283.710413 132.352062 
L 286.989752 130.433418 
L 290.269091 128.529318 
L 293.54843 126.639596 
L 296.827769 124.764092 
L 300.107107 122.902644 
L 303.386446 121.055096 
L 306.665785 119.221293 
L 309.945124 117.401081 
L 313.224463 115.59431 
L 316.503802 113.800832 
L 319.78314 112.0205 
L 323.062479 110.253171 
L 326.341818 108.498702 
L 329.621157 106.756955 
L 332.900496 105.02779 
L 336.179835 103.311072 
L 339.459174 101.606667 
L 342.738512 99.914443 
L 346.017851 98.234271 
L 349.29719 96.566021 
L 352.576529 94.909567 
L 355.855868 93.264785 
L 359.135207 91.631551 
L 362.414545 90.009745 
L 365.693884 88.399247 
L 368.973223 86.799939 
L 372.252562 85.211705 
L 375.531901 83.63443 
L 378.81124 82.068002 
L 382.090579 80.512308 
L 385.369917 78.967239 
L 388.649256 77.432686 
L 391.928595 75.908542 
L 395.207934 74.394702 
L 398.487273 72.891061 
" style="fill:none;stroke:#e377c2;stroke-linecap:square;stroke-width:1.5;"/>
   </g>
   <g id="line2d_21">
    <path clip-path="url(#p05af30dd08)" d="M 73.832727 295.488 
L 77.112066 292.102003 
L 80.391405 288.783818 
L 83.670744 285.53143 
L 86.950083 282.342899 
L 90.229421 279.216364 
L 93.50876 276.150033 
L 96.788099 273.142185 
L 100.067438 270.191163 
L 103.346777 267.29537 
L 106.626116 264.453271 
L 109.905455 261.663387 
L 113.184793 258.92429 
L 116.464132 256.234608 
L 119.743471 253.593014 
L 123.02281 250.998231 
L 126.302149 248.449025 
L 129.581488 245.944206 
L 132.860826 243.482625 
L 136.140165 241.063171 
L 139.419504 238.684772 
L 142.698843 236.346393 
L 145.978182 234.047031 
L 149.257521 231.785718 
L 152.53686 229.561517 
L 155.816198 227.373523 
L 159.095537 225.220857 
L 162.374876 223.102672 
L 165.654215 221.018146 
L 168.933554 218.966482 
L 172.212893 216.94691 
L 175.492231 214.958682 
L 178.77157 213.001075 
L 182.050909 211.073386 
L 185.330248 209.174934 
L 188.609587 207.305061 
L 191.888926 205.463124 
L 195.168264 203.648503 
L 198.447603 201.860594 
L 201.726942 200.098812 
L 205.006281 198.362589 
L 208.28562 196.651372 
L 211.564959 194.964625 
L 214.844298 193.301827 
L 218.123636 191.662471 
L 221.402975 190.046064 
L 224.682314 188.45213 
L 227.961653 186.880201 
L 231.240992 185.329826 
L 234.520331 183.800564 
L 237.799669 182.291987 
L 241.079008 180.803678 
L 244.358347 179.335231 
L 247.637686 177.886251 
L 250.917025 176.456354 
L 254.196364 175.045166 
L 257.475702 173.65232 
L 260.755041 172.277463 
L 264.03438 170.920248 
L 267.313719 169.580337 
L 270.593058 168.257401 
L 273.872397 166.951121 
L 277.151736 165.661183 
L 280.431074 164.387283 
L 283.710413 163.129123 
L 286.989752 161.886414 
L 290.269091 160.658873 
L 293.54843 159.446223 
L 296.827769 158.248195 
L 300.107107 157.064527 
L 303.386446 155.894962 
L 306.665785 154.739248 
L 309.945124 153.597143 
L 313.224463 152.468406 
L 316.503802 151.352804 
L 319.78314 150.25011 
L 323.062479 149.1601 
L 326.341818 148.082557 
L 329.621157 147.017269 
L 332.900496 145.964027 
L 336.179835 144.922628 
L 339.459174 143.892875 
L 342.738512 142.874571 
L 346.017851 141.867528 
L 349.29719 140.87156 
L 352.576529 139.886484 
L 355.855868 138.912124 
L 359.135207 137.948306 
L 362.414545 136.994858 
L 365.693884 136.051616 
L 368.973223 135.118415 
L 372.252562 134.195097 
L 375.531901 133.281504 
L 378.81124 132.377485 
L 382.090579 131.48289 
L 385.369917 130.597571 
L 388.649256 129.721386 
L 391.928595 128.854194 
L 395.207934 127.995857 
L 398.487273 127.14624 
" style="fill:none;stroke:#7f7f7f;stroke-linecap:square;stroke-width:1.5;"/>
   </g>
   <g id="line2d_22">
    <path clip-path="url(#p05af30dd08)" d="M 73.832727 295.488 
L 77.112066 292.112595 
L 80.391405 288.799372 
L 83.670744 285.546628 
L 86.950083 282.352724 
L 90.229421 279.216077 
L 93.50876 276.13516 
L 96.788099 273.108501 
L 100.067438 270.13468 
L 103.346777 267.212326 
L 106.626116 264.340112 
L 109.905455 261.516761 
L 113.184793 258.741035 
L 116.464132 256.01174 
L 119.743471 253.32772 
L 123.02281 250.687858 
L 126.302149 248.091073 
L 129.581488 245.536319 
L 132.860826 243.022584 
L 136.140165 240.548889 
L 139.419504 238.114283 
L 142.698843 235.717847 
L 145.978182 233.358692 
L 149.257521 231.035953 
L 152.53686 228.748795 
L 155.816198 226.496405 
L 159.095537 224.277996 
L 162.374876 222.092807 
L 165.654215 219.940095 
L 168.933554 217.819142 
L 172.212893 215.729251 
L 175.492231 213.669744 
L 178.77157 211.639964 
L 182.050909 209.639271 
L 185.330248 207.667044 
L 188.609587 205.722681 
L 191.888926 203.805594 
L 195.168264 201.915215 
L 198.447603 200.050989 
L 201.726942 198.212376 
L 205.006281 196.398852 
L 208.28562 194.609908 
L 211.564959 192.845047 
L 214.844298 191.103786 
L 218.123636 189.385655 
L 221.402975 187.690196 
L 224.682314 186.016963 
L 227.961653 184.365522 
L 231.240992 182.73545 
L 234.520331 181.126334 
L 237.799669 179.537774 
L 241.079008 177.969378 
L 244.358347 176.420765 
L 247.637686 174.891562 
L 250.917025 173.381406 
L 254.196364 171.889945 
L 257.475702 170.416833 
L 260.755041 168.961734 
L 264.03438 167.524319 
L 267.313719 166.104268 
L 270.593058 164.701267 
L 273.872397 163.315013 
L 277.151736 161.945206 
L 280.431074 160.591556 
L 283.710413 159.253779 
L 286.989752 157.931597 
L 290.269091 156.624738 
L 293.54843 155.332939 
L 296.827769 154.05594 
L 300.107107 152.793488 
L 303.386446 151.545337 
L 306.665785 150.311244 
L 309.945124 149.090973 
L 313.224463 147.884294 
L 316.503802 146.690981 
L 319.78314 145.510812 
L 323.062479 144.343572 
L 326.341818 143.18905 
L 329.621157 142.047038 
L 332.900496 140.917335 
L 336.179835 139.799742 
L 339.459174 138.694067 
L 342.738512 137.600118 
L 346.017851 136.517712 
L 349.29719 135.446665 
L 352.576529 134.3868 
L 355.855868 133.337944 
L 359.135207 132.299924 
L 362.414545 131.272575 
L 365.693884 130.255733 
L 368.973223 129.249236 
L 372.252562 128.252928 
L 375.531901 127.266656 
L 378.81124 126.290268 
L 382.090579 125.323616 
L 385.369917 124.366556 
L 388.649256 123.418945 
L 391.928595 122.480644 
L 395.207934 121.551517 
L 398.487273 120.63143 
" style="fill:none;stroke:#bcbd22;stroke-linecap:square;stroke-width:1.5;"/>
   </g>
   <g id="line2d_23">
    <path clip-path="url(#p05af30dd08)" d="M 73.832727 295.488 
L 77.112066 292.179732 
L 80.391405 288.912545 
L 83.670744 285.685679 
L 86.950083 282.498392 
L 90.229421 279.34996 
L 93.50876 276.239677 
L 96.788099 273.166854 
L 100.067438 270.130817 
L 103.346777 267.130912 
L 106.626116 264.166495 
L 109.905455 261.236942 
L 113.184793 258.34164 
L 116.464132 255.479993 
L 119.743471 252.651417 
L 123.02281 249.855342 
L 126.302149 247.091211 
L 129.581488 244.358481 
L 132.860826 241.656618 
L 136.140165 238.985103 
L 139.419504 236.343427 
L 142.698843 233.731093 
L 145.978182 231.147616 
L 149.257521 228.592519 
L 152.53686 226.065337 
L 155.816198 223.565616 
L 159.095537 221.09291 
L 162.374876 218.646783 
L 165.654215 216.22681 
L 168.933554 213.832574 
L 172.212893 211.463665 
L 175.492231 209.119684 
L 178.77157 206.800239 
L 182.050909 204.504948 
L 185.330248 202.233435 
L 188.609587 199.985333 
L 191.888926 197.76028 
L 195.168264 195.557926 
L 198.447603 193.377923 
L 201.726942 191.219935 
L 205.006281 189.083627 
L 208.28562 186.968677 
L 211.564959 184.874765 
L 214.844298 182.801578 
L 218.123636 180.748811 
L 221.402975 178.716162 
L 224.682314 176.703339 
L 227.961653 174.710052 
L 231.240992 172.736019 
L 234.520331 170.780961 
L 237.799669 168.844606 
L 241.079008 166.926688 
L 244.358347 165.026943 
L 247.637686 163.145116 
L 250.917025 161.280953 
L 254.196364 159.434208 
L 257.475702 157.604637 
L 260.755041 155.792002 
L 264.03438 153.996068 
L 267.313719 152.216606 
L 270.593058 150.453391 
L 273.872397 148.706201 
L 277.151736 146.974817 
L 280.431074 145.259028 
L 283.710413 143.558623 
L 286.989752 141.873396 
L 290.269091 140.203145 
L 293.54843 138.54767 
L 296.827769 136.906778 
L 300.107107 135.280276 
L 303.386446 133.667975 
L 306.665785 132.06969 
L 309.945124 130.48524 
L 313.224463 128.914446 
L 316.503802 127.357131 
L 319.78314 125.813123 
L 323.062479 124.282252 
L 326.341818 122.764352 
L 329.621157 121.259257 
L 332.900496 119.766807 
L 336.179835 118.286844 
L 339.459174 116.81921 
L 342.738512 115.363752 
L 346.017851 113.920321 
L 349.29719 112.488766 
L 352.576529 111.068942 
L 355.855868 109.660707 
L 359.135207 108.263917 
L 362.414545 106.878435 
L 365.693884 105.504123 
L 368.973223 104.140847 
L 372.252562 102.788475 
L 375.531901 101.446876 
L 378.81124 100.115922 
L 382.090579 98.795487 
L 385.369917 97.485447 
L 388.649256 96.185679 
L 391.928595 94.896063 
L 395.207934 93.616481 
L 398.487273 92.346816 
" style="fill:none;stroke:#17becf;stroke-linecap:square;stroke-width:1.5;"/>
   </g>
   <g id="line2d_24">
    <path clip-path="url(#p05af30dd08)" d="M 73.832727 295.488 
L 77.112066 291.226878 
L 80.391405 287.033044 
L 83.670744 282.904916 
L 86.950083 278.840963 
L 90.229421 274.839699 
L 93.50876 270.899685 
L 96.788099 267.019526 
L 100.067438 263.197867 
L 103.346777 259.433395 
L 106.626116 255.724837 
L 109.905455 252.070956 
L 113.184793 248.470551 
L 116.464132 244.922457 
L 119.743471 241.425543 
L 123.02281 237.978709 
L 126.302149 234.580886 
L 129.581488 231.231036 
L 132.860826 227.928152 
L 136.140165 224.671252 
L 139.419504 221.459382 
L 142.698843 218.291615 
L 145.978182 215.167048 
L 149.257521 212.084805 
L 152.53686 209.04403 
L 155.816198 206.043893 
L 159.095537 203.083584 
L 162.374876 200.162315 
L 165.654215 197.27932 
L 168.933554 194.43385 
L 172.212893 191.625179 
L 175.492231 188.852596 
L 178.77157 186.115411 
L 182.050909 183.41295 
L 185.330248 180.744556 
L 188.609587 178.10959 
L 191.888926 175.507426 
L 195.168264 172.937457 
L 198.447603 170.399089 
L 201.726942 167.891742 
L 205.006281 165.41485 
L 208.28562 162.967864 
L 211.564959 160.550243 
L 214.844298 158.161463 
L 218.123636 155.801011 
L 221.402975 153.468385 
L 224.682314 151.163097 
L 227.961653 148.884669 
L 231.240992 146.632634 
L 234.520331 144.406536 
L 237.799669 142.205929 
L 241.079008 140.030379 
L 244.358347 137.879459 
L 247.637686 135.752755 
L 250.917025 133.649858 
L 254.196364 131.570372 
L 257.475702 129.513907 
L 260.755041 127.480085 
L 264.03438 125.468532 
L 267.313719 123.478885 
L 270.593058 121.510788 
L 273.872397 119.563892 
L 277.151736 117.637858 
L 280.431074 115.732352 
L 283.710413 113.847046 
L 286.989752 111.981622 
L 290.269091 110.135767 
L 293.54843 108.309174 
L 296.827769 106.501544 
L 300.107107 104.712582 
L 303.386446 102.942002 
L 306.665785 101.18952 
L 309.945124 99.454862 
L 313.224463 97.737756 
L 316.503802 96.037937 
L 319.78314 94.355146 
L 323.062479 92.689129 
L 326.341818 91.039634 
L 329.621157 89.406419 
L 332.900496 87.789243 
L 336.179835 86.187871 
L 339.459174 84.602072 
L 342.738512 83.031621 
L 346.017851 81.476296 
L 349.29719 79.935879 
L 352.576529 78.410156 
L 355.855868 76.898919 
L 359.135207 75.401963 
L 362.414545 73.919085 
L 365.693884 72.450089 
L 368.973223 70.994779 
L 372.252562 69.552967 
L 375.531901 68.124464 
L 378.81124 66.709087 
L 382.090579 65.306657 
L 385.369917 63.916996 
L 388.649256 62.539932 
L 391.928595 61.175292 
L 395.207934 59.822911 
L 398.487273 58.482623 
" style="fill:none;stroke:#1f77b4;stroke-linecap:square;stroke-width:1.5;"/>
   </g>
   <g id="line2d_25">
    <path clip-path="url(#p05af30dd08)" d="M 73.832727 295.488 
L 77.112066 292.131398 
L 80.391405 288.808388 
L 83.670744 285.518468 
L 86.950083 282.261147 
L 90.229421 279.035943 
L 93.50876 275.842382 
L 96.788099 272.680002 
L 100.067438 269.548348 
L 103.346777 266.446975 
L 106.626116 263.375444 
L 109.905455 260.333328 
L 113.184793 257.320207 
L 116.464132 254.335667 
L 119.743471 251.379303 
L 123.02281 248.45072 
L 126.302149 245.549526 
L 129.581488 242.67534 
L 132.860826 239.827785 
L 136.140165 237.006495 
L 139.419504 234.211106 
L 142.698843 231.441264 
L 145.978182 228.696621 
L 149.257521 225.976834 
L 152.53686 223.281566 
L 155.816198 220.610488 
L 159.095537 217.963276 
L 162.374876 215.33961 
L 165.654215 212.739179 
L 168.933554 210.161676 
L 172.212893 207.606797 
L 175.492231 205.074247 
L 178.77157 202.563734 
L 182.050909 200.074972 
L 185.330248 197.607679 
L 188.609587 195.161578 
L 191.888926 192.736399 
L 195.168264 190.331873 
L 198.447603 187.947738 
L 201.726942 185.583735 
L 205.006281 183.239611 
L 208.28562 180.915117 
L 211.564959 178.610005 
L 214.844298 176.324035 
L 218.123636 174.05697 
L 221.402975 171.808576 
L 224.682314 169.578623 
L 227.961653 167.366886 
L 231.240992 165.173141 
L 234.520331 162.997171 
L 237.799669 160.83876 
L 241.079008 158.697696 
L 244.358347 156.573772 
L 247.637686 154.466782 
L 250.917025 152.376525 
L 254.196364 150.302801 
L 257.475702 148.245416 
L 260.755041 146.204177 
L 264.03438 144.178896 
L 267.313719 142.169384 
L 270.593058 140.17546 
L 273.872397 138.196942 
L 277.151736 136.233653 
L 280.431074 134.285417 
L 283.710413 132.352062 
L 286.989752 130.433418 
L 290.269091 128.529318 
L 293.54843 126.639596 
L 296.827769 124.764092 
L 300.107107 122.902644 
L 303.386446 121.055096 
L 306.665785 119.221293 
L 309.945124 117.401081 
L 313.224463 115.59431 
L 316.503802 113.800832 
L 319.78314 112.0205 
L 323.062479 110.253171 
L 326.341818 108.498702 
L 329.621157 106.756955 
L 332.900496 105.02779 
L 336.179835 103.311072 
L 339.459174 101.606667 
L 342.738512 99.914443 
L 346.017851 98.234271 
L 349.29719 96.566021 
L 352.576529 94.909567 
L 355.855868 93.264785 
L 359.135207 91.631551 
L 362.414545 90.009745 
L 365.693884 88.399247 
L 368.973223 86.799939 
L 372.252562 85.211705 
L 375.531901 83.63443 
L 378.81124 82.068002 
L 382.090579 80.512308 
L 385.369917 78.967239 
L 388.649256 77.432686 
L 391.928595 75.908542 
L 395.207934 74.394702 
L 398.487273 72.891061 
" style="fill:none;stroke:#ff7f0e;stroke-linecap:square;stroke-width:1.5;"/>
   </g>
   <g id="line2d_26">
    <path clip-path="url(#p05af30dd08)" d="M 73.832727 295.488 
L 77.112066 292.179732 
L 80.391405 288.912545 
L 83.670744 285.685679 
L 86.950083 282.498392 
L 90.229421 279.34996 
L 93.50876 276.239677 
L 96.788099 273.166854 
L 100.067438 270.130817 
L 103.346777 267.130912 
L 106.626116 264.166495 
L 109.905455 261.236942 
L 113.184793 258.34164 
L 116.464132 255.479993 
L 119.743471 252.651417 
L 123.02281 249.855342 
L 126.302149 247.091211 
L 129.581488 244.358481 
L 132.860826 241.656618 
L 136.140165 238.985103 
L 139.419504 236.343427 
L 142.698843 233.731093 
L 145.978182 231.147616 
L 149.257521 228.592519 
L 152.53686 226.065337 
L 155.816198 223.565616 
L 159.095537 221.09291 
L 162.374876 218.646783 
L 165.654215 216.22681 
L 168.933554 213.832574 
L 172.212893 211.463665 
L 175.492231 209.119684 
L 178.77157 206.800239 
L 182.050909 204.504948 
L 185.330248 202.233435 
L 188.609587 199.985333 
L 191.888926 197.76028 
L 195.168264 195.557926 
L 198.447603 193.377923 
L 201.726942 191.219935 
L 205.006281 189.083627 
L 208.28562 186.968677 
L 211.564959 184.874765 
L 214.844298 182.801578 
L 218.123636 180.748811 
L 221.402975 178.716162 
L 224.682314 176.703339 
L 227.961653 174.710052 
L 231.240992 172.736019 
L 234.520331 170.780961 
L 237.799669 168.844606 
L 241.079008 166.926688 
L 244.358347 165.026943 
L 247.637686 163.145116 
L 250.917025 161.280953 
L 254.196364 159.434208 
L 257.475702 157.604637 
L 260.755041 155.792002 
L 264.03438 153.996068 
L 267.313719 152.216606 
L 270.593058 150.453391 
L 273.872397 148.706201 
L 277.151736 146.974817 
L 280.431074 145.259028 
L 283.710413 143.558623 
L 286.989752 141.873396 
L 290.269091 140.203145 
L 293.54843 138.54767 
L 296.827769 136.906778 
L 300.107107 135.280276 
L 303.386446 133.667975 
L 306.665785 132.06969 
L 309.945124 130.48524 
L 313.224463 128.914446 
L 316.503802 127.357131 
L 319.78314 125.813123 
L 323.062479 124.282252 
L 326.341818 122.764352 
L 329.621157 121.259257 
L 332.900496 119.766807 
L 336.179835 118.286844 
L 339.459174 116.81921 
L 342.738512 115.363752 
L 346.017851 113.920321 
L 349.29719 112.488766 
L 352.576529 111.068942 
L 355.855868 109.660707 
L 359.135207 108.263917 
L 362.414545 106.878435 
L 365.693884 105.504123 
L 368.973223 104.140847 
L 372.252562 102.788475 
L 375.531901 101.446876 
L 378.81124 100.115922 
L 382.090579 98.795487 
L 385.369917 97.485447 
L 388.649256 96.185679 
L 391.928595 94.896063 
L 395.207934 93.616481 
L 398.487273 92.346816 
" style="fill:none;stroke:#2ca02c;stroke-linecap:square;stroke-width:1.5;"/>
   </g>
   <g id="line2d_27">
    <path clip-path="url(#p05af30dd08)" d="M 73.832727 295.488 
L 77.112066 291.366804 
L 80.391405 287.309785 
L 83.670744 283.315457 
L 86.950083 279.382377 
L 90.229421 275.509147 
L 93.50876 271.694411 
L 96.788099 267.936854 
L 100.067438 264.235201 
L 103.346777 260.588213 
L 106.626116 256.994687 
L 109.905455 253.453457 
L 113.184793 249.963389 
L 116.464132 246.523384 
L 119.743471 243.13237 
L 123.02281 239.789309 
L 126.302149 236.493191 
L 129.581488 233.243034 
L 132.860826 230.037884 
L 136.140165 226.876811 
L 139.419504 223.758914 
L 142.698843 220.683313 
L 145.978182 217.649153 
L 149.257521 214.655603 
L 152.53686 211.701853 
L 155.816198 208.787113 
L 159.095537 205.910618 
L 162.374876 203.071618 
L 165.654215 200.269385 
L 168.933554 197.503209 
L 172.212893 194.7724 
L 175.492231 192.076283 
L 178.77157 189.414202 
L 182.050909 186.785515 
L 185.330248 184.189598 
L 188.609587 181.625843 
L 191.888926 179.093655 
L 195.168264 176.592455 
L 198.447603 174.121677 
L 201.726942 171.680771 
L 205.006281 169.269196 
L 208.28562 166.886429 
L 211.564959 164.531955 
L 214.844298 162.205274 
L 218.123636 159.905896 
L 221.402975 157.633344 
L 224.682314 155.387151 
L 227.961653 153.166861 
L 231.240992 150.972029 
L 234.520331 148.802219 
L 237.799669 146.657005 
L 241.079008 144.535973 
L 244.358347 142.438715 
L 247.637686 140.364833 
L 250.917025 138.31394 
L 254.196364 136.285654 
L 257.475702 134.279605 
L 260.755041 132.295428 
L 264.03438 130.332768 
L 267.313719 128.391277 
L 270.593058 126.470613 
L 273.872397 124.570445 
L 277.151736 122.690444 
L 280.431074 120.830293 
L 283.710413 118.989678 
L 286.989752 117.168293 
L 290.269091 115.365838 
L 293.54843 113.58202 
L 296.827769 111.816551 
L 300.107107 110.069149 
L 303.386446 108.339539 
L 306.665785 106.62745 
L 309.945124 104.932617 
L 313.224463 103.254782 
L 316.503802 101.593688 
L 319.78314 99.949087 
L 323.062479 98.320735 
L 326.341818 96.708392 
L 329.621157 95.111822 
L 332.900496 93.530797 
L 336.179835 91.965089 
L 339.459174 90.414477 
L 342.738512 88.878744 
L 346.017851 87.357677 
L 349.29719 85.851066 
L 352.576529 84.358708 
L 355.855868 82.880399 
L 359.135207 81.415943 
L 362.414545 79.965146 
L 365.693884 78.527818 
L 368.973223 77.103773 
L 372.252562 75.692826 
L 375.531901 74.294797 
L 378.81124 72.909512 
L 382.090579 71.536795 
L 385.369917 70.176476 
L 388.649256 68.82839 
L 391.928595 67.49237 
L 395.207934 66.168256 
L 398.487273 64.855889 
" style="fill:none;stroke:#d62728;stroke-linecap:square;stroke-width:1.5;"/>
   </g>
   <g id="line2d_28">
    <path clip-path="url(#p05af30dd08)" d="M 73.832727 295.488 
L 77.112066 292.131398 
L 80.391405 288.808388 
L 83.670744 285.518468 
L 86.950083 282.261147 
L 90.229421 279.035943 
L 93.50876 275.842382 
L 96.788099 272.680002 
L 100.067438 269.548348 
L 103.346777 266.446975 
L 106.626116 263.375444 
L 109.905455 260.333328 
L 113.184793 257.320207 
L 116.464132 254.335667 
L 119.743471 251.379303 
L 123.02281 248.45072 
L 126.302149 245.549526 
L 129.581488 242.67534 
L 132.860826 239.827785 
L 136.140165 237.006495 
L 139.419504 234.211106 
L 142.698843 231.441264 
L 145.978182 228.696621 
L 149.257521 225.976834 
L 152.53686 223.281566 
L 155.816198 220.610488 
L 159.095537 217.963276 
L 162.374876 215.33961 
L 165.654215 212.739179 
L 168.933554 210.161676 
L 172.212893 207.606797 
L 175.492231 205.074247 
L 178.77157 202.563734 
L 182.050909 200.074972 
L 185.330248 197.607679 
L 188.609587 195.161578 
L 191.888926 192.736399 
L 195.168264 190.331873 
L 198.447603 187.947738 
L 201.726942 185.583735 
L 205.006281 183.239611 
L 208.28562 180.915117 
L 211.564959 178.610005 
L 214.844298 176.324035 
L 218.123636 174.05697 
L 221.402975 171.808576 
L 224.682314 169.578623 
L 227.961653 167.366886 
L 231.240992 165.173141 
L 234.520331 162.997171 
L 237.799669 160.83876 
L 241.079008 158.697696 
L 244.358347 156.573772 
L 247.637686 154.466782 
L 250.917025 152.376525 
L 254.196364 150.302801 
L 257.475702 148.245416 
L 260.755041 146.204177 
L 264.03438 144.178896 
L 267.313719 142.169384 
L 270.593058 140.17546 
L 273.872397 138.196942 
L 277.151736 136.233653 
L 280.431074 134.285417 
L 283.710413 132.352062 
L 286.989752 130.433418 
L 290.269091 128.529318 
L 293.54843 126.639596 
L 296.827769 124.764092 
L 300.107107 122.902644 
L 303.386446 121.055096 
L 306.665785 119.221293 
L 309.945124 117.401081 
L 313.224463 115.59431 
L 316.503802 113.800832 
L 319.78314 112.0205 
L 323.062479 110.253171 
L 326.341818 108.498702 
L 329.621157 106.756955 
L 332.900496 105.02779 
L 336.179835 103.311072 
L 339.459174 101.606667 
L 342.738512 99.914443 
L 346.017851 98.234271 
L 349.29719 96.566021 
L 352.576529 94.909567 
L 355.855868 93.264785 
L 359.135207 91.631551 
L 362.414545 90.009745 
L 365.693884 88.399247 
L 368.973223 86.799939 
L 372.252562 85.211705 
L 375.531901 83.63443 
L 378.81124 82.068002 
L 382.090579 80.512308 
L 385.369917 78.967239 
L 388.649256 77.432686 
L 391.928595 75.908542 
L 395.207934 74.394702 
L 398.487273 72.891061 
" style="fill:none;stroke:#9467bd;stroke-linecap:square;stroke-width:1.5;"/>
   </g>
   <g id="line2d_29">
    <path clip-path="url(#p05af30dd08)" d="M 73.832727 295.488 
L 77.112066 291.276489 
L 80.391405 287.127199 
L 83.670744 283.038762 
L 86.950083 279.009849 
L 90.229421 275.039169 
L 93.50876 271.12547 
L 96.788099 267.267532 
L 100.067438 263.464173 
L 103.346777 259.714243 
L 106.626116 256.016623 
L 109.905455 252.370228 
L 113.184793 248.773998 
L 116.464132 245.226908 
L 119.743471 241.727955 
L 123.02281 238.276168 
L 126.302149 234.870597 
L 129.581488 231.510323 
L 132.860826 228.194446 
L 136.140165 224.922093 
L 139.419504 221.692412 
L 142.698843 218.504574 
L 145.978182 215.357771 
L 149.257521 212.251216 
L 152.53686 209.184141 
L 155.816198 206.155799 
L 159.095537 203.165461 
L 162.374876 200.212416 
L 165.654215 197.295969 
L 168.933554 194.415446 
L 172.212893 191.570187 
L 175.492231 188.759547 
L 178.77157 185.9829 
L 182.050909 183.239631 
L 185.330248 180.529143 
L 188.609587 177.850851 
L 191.888926 175.204186 
L 195.168264 172.58859 
L 198.447603 170.003519 
L 201.726942 167.448443 
L 205.006281 164.922842 
L 208.28562 162.426209 
L 211.564959 159.958048 
L 214.844298 157.517876 
L 218.123636 155.105219 
L 221.402975 152.719613 
L 224.682314 150.360608 
L 227.961653 148.027759 
L 231.240992 145.720635 
L 234.520331 143.438813 
L 237.799669 141.181878 
L 241.079008 138.949425 
L 244.358347 136.741059 
L 247.637686 134.556391 
L 250.917025 132.395042 
L 254.196364 130.256641 
L 257.475702 128.140825 
L 260.755041 126.047236 
L 264.03438 123.975528 
L 267.313719 121.925358 
L 270.593058 119.896392 
L 273.872397 117.888304 
L 277.151736 115.900773 
L 280.431074 113.933484 
L 283.710413 111.98613 
L 286.989752 110.058409 
L 290.269091 108.150026 
L 293.54843 106.260692 
L 296.827769 104.390123 
L 300.107107 102.53804 
L 303.386446 100.70417 
L 306.665785 98.888248 
L 309.945124 97.090009 
L 313.224463 95.309198 
L 316.503802 93.545562 
L 319.78314 91.798853 
L 323.062479 90.06883 
L 326.341818 88.355255 
L 329.621157 86.657893 
L 332.900496 84.976516 
L 336.179835 83.310899 
L 339.459174 81.660821 
L 342.738512 80.026067 
L 346.017851 78.406424 
L 349.29719 76.801682 
L 352.576529 75.211638 
L 355.855868 73.63609 
L 359.135207 72.074841 
L 362.414545 70.527698 
L 365.693884 68.994469 
L 368.973223 67.474969 
L 372.252562 65.969013 
L 375.531901 64.476421 
L 378.81124 62.997016 
L 382.090579 61.530625 
L 385.369917 60.077075 
L 388.649256 58.6362 
L 391.928595 57.207834 
L 395.207934 55.791815 
L 398.487273 54.387984 
" style="fill:none;stroke:#8c564b;stroke-linecap:square;stroke-width:1.5;"/>
   </g>
   <g id="line2d_30">
    <path clip-path="url(#p05af30dd08)" d="M 73.832727 295.488 
L 77.112066 291.285958 
L 80.391405 287.145175 
L 83.670744 283.064322 
L 86.950083 279.042105 
L 90.229421 275.077271 
L 93.50876 271.168601 
L 96.788099 267.314909 
L 100.067438 263.515043 
L 103.346777 259.767884 
L 106.626116 256.072342 
L 109.905455 252.427358 
L 113.184793 248.831903 
L 116.464132 245.284972 
L 119.743471 241.785591 
L 123.02281 238.332809 
L 126.302149 234.925702 
L 129.581488 231.56337 
L 132.860826 228.244935 
L 136.140165 224.969544 
L 139.419504 221.736365 
L 142.698843 218.544586 
L 145.978182 215.393417 
L 149.257521 212.28209 
L 152.53686 209.209851 
L 155.816198 206.175971 
L 159.095537 203.179734 
L 162.374876 200.220444 
L 165.654215 197.297423 
L 168.933554 194.410006 
L 172.212893 191.557549 
L 175.492231 188.73942 
L 178.77157 185.955002 
L 182.050909 183.203695 
L 185.330248 180.484911 
L 188.609587 177.798077 
L 191.888926 175.142634 
L 195.168264 172.518034 
L 198.447603 169.923742 
L 201.726942 167.359238 
L 205.006281 164.824011 
L 208.28562 162.317562 
L 211.564959 159.839404 
L 214.844298 157.389061 
L 218.123636 154.966067 
L 221.402975 152.569967 
L 224.682314 150.200316 
L 227.961653 147.856678 
L 231.240992 145.538626 
L 234.520331 143.245745 
L 237.799669 140.977627 
L 241.079008 138.733872 
L 244.358347 136.51409 
L 247.637686 134.317899 
L 250.917025 132.144925 
L 254.196364 129.994802 
L 257.475702 127.86717 
L 260.755041 125.76168 
L 264.03438 123.677987 
L 267.313719 121.615754 
L 270.593058 119.574651 
L 273.872397 117.554357 
L 277.151736 115.554553 
L 280.431074 113.57493 
L 283.710413 111.615183 
L 286.989752 109.675016 
L 290.269091 107.754135 
L 293.54843 105.852255 
L 296.827769 103.969096 
L 300.107107 102.104382 
L 303.386446 100.257843 
L 306.665785 98.429215 
L 309.945124 96.618239 
L 313.224463 94.824661 
L 316.503802 93.04823 
L 319.78314 91.288702 
L 323.062479 89.545838 
L 326.341818 87.819401 
L 329.621157 86.10916 
L 332.900496 84.414889 
L 336.179835 82.736364 
L 339.459174 81.073368 
L 342.738512 79.425685 
L 346.017851 77.793106 
L 349.29719 76.175423 
L 352.576529 74.572434 
L 355.855868 72.983939 
L 359.135207 71.409742 
L 362.414545 69.849652 
L 365.693884 68.30348 
L 368.973223 66.771039 
L 372.252562 65.252149 
L 375.531901 63.74663 
L 378.81124 62.254306 
L 382.090579 60.775005 
L 385.369917 59.308557 
L 388.649256 57.854795 
L 391.928595 56.413555 
L 395.207934 54.984676 
L 398.487273 53.568 
" style="fill:none;stroke:#e377c2;stroke-linecap:square;stroke-width:1.5;"/>
   </g>
   <g id="line2d_31">
    <path clip-path="url(#p05af30dd08)" d="M 73.832727 295.488 
L 77.112066 292.333144 
L 80.391405 289.223621 
L 83.670744 286.158463 
L 86.950083 283.136725 
L 90.229421 280.157491 
L 93.50876 277.219872 
L 96.788099 274.323002 
L 100.067438 271.466038 
L 103.346777 268.648161 
L 106.626116 265.868574 
L 109.905455 263.126504 
L 113.184793 260.421194 
L 116.464132 257.751911 
L 119.743471 255.11794 
L 123.02281 252.518584 
L 126.302149 249.953166 
L 129.581488 247.421026 
L 132.860826 244.92152 
L 136.140165 242.454021 
L 139.419504 240.017919 
L 142.698843 237.612618 
L 145.978182 235.237537 
L 149.257521 232.89211 
L 152.53686 230.575786 
L 155.816198 228.288027 
L 159.095537 226.028306 
L 162.374876 223.796112 
L 165.654215 221.590946 
L 168.933554 219.412318 
L 172.212893 217.259752 
L 175.492231 215.132785 
L 178.77157 213.030961 
L 182.050909 210.953838 
L 185.330248 208.900983 
L 188.609587 206.871973 
L 191.888926 204.866395 
L 195.168264 202.883845 
L 198.447603 200.923929 
L 201.726942 198.986262 
L 205.006281 197.070467 
L 208.28562 195.176175 
L 211.564959 193.303027 
L 214.844298 191.45067 
L 218.123636 189.618761 
L 221.402975 187.806962 
L 224.682314 186.014944 
L 227.961653 184.242386 
L 231.240992 182.488971 
L 234.520331 180.754392 
L 237.799669 179.038346 
L 241.079008 177.340538 
L 244.358347 175.660679 
L 247.637686 173.998486 
L 250.917025 172.353681 
L 254.196364 170.725993 
L 257.475702 169.115156 
L 260.755041 167.52091 
L 264.03438 165.943 
L 267.313719 164.381176 
L 270.593058 162.835194 
L 273.872397 161.304813 
L 277.151736 159.789798 
L 280.431074 158.28992 
L 283.710413 156.804952 
L 286.989752 155.334674 
L 290.269091 153.878868 
L 293.54843 152.437322 
L 296.827769 151.009827 
L 300.107107 149.596179 
L 303.386446 148.196177 
L 306.665785 146.809625 
L 309.945124 145.43633 
L 313.224463 144.076102 
L 316.503802 142.728756 
L 319.78314 141.39411 
L 323.062479 140.071985 
L 326.341818 138.762206 
L 329.621157 137.464601 
L 332.900496 136.179 
L 336.179835 134.905238 
L 339.459174 133.643152 
L 342.738512 132.392583 
L 346.017851 131.153372 
L 349.29719 129.925367 
L 352.576529 128.708416 
L 355.855868 127.50237 
L 359.135207 126.307084 
L 362.414545 125.122414 
L 365.693884 123.948219 
L 368.973223 122.784361 
L 372.252562 121.630705 
L 375.531901 120.487115 
L 378.81124 119.353462 
L 382.090579 118.229617 
L 385.369917 117.115452 
L 388.649256 116.010843 
L 391.928595 114.915668 
L 395.207934 113.829806 
L 398.487273 112.75314 
" style="fill:none;stroke:#7f7f7f;stroke-linecap:square;stroke-width:1.5;"/>
   </g>
   <g id="line2d_32">
    <path clip-path="url(#p05af30dd08)" d="M 73.832727 295.488 
L 77.112066 291.285958 
L 80.391405 287.145175 
L 83.670744 283.064322 
L 86.950083 279.042105 
L 90.229421 275.077271 
L 93.50876 271.168601 
L 96.788099 267.314909 
L 100.067438 263.515043 
L 103.346777 259.767884 
L 106.626116 256.072342 
L 109.905455 252.427358 
L 113.184793 248.831903 
L 116.464132 245.284972 
L 119.743471 241.785591 
L 123.02281 238.332809 
L 126.302149 234.925702 
L 129.581488 231.56337 
L 132.860826 228.244935 
L 136.140165 224.969544 
L 139.419504 221.736365 
L 142.698843 218.544586 
L 145.978182 215.393417 
L 149.257521 212.28209 
L 152.53686 209.209851 
L 155.816198 206.175971 
L 159.095537 203.179734 
L 162.374876 200.220444 
L 165.654215 197.297423 
L 168.933554 194.410006 
L 172.212893 191.557549 
L 175.492231 188.73942 
L 178.77157 185.955002 
L 182.050909 183.203695 
L 185.330248 180.484911 
L 188.609587 177.798077 
L 191.888926 175.142634 
L 195.168264 172.518034 
L 198.447603 169.923742 
L 201.726942 167.359238 
L 205.006281 164.824011 
L 208.28562 162.317562 
L 211.564959 159.839404 
L 214.844298 157.389061 
L 218.123636 154.966067 
L 221.402975 152.569967 
L 224.682314 150.200316 
L 227.961653 147.856678 
L 231.240992 145.538626 
L 234.520331 143.245745 
L 237.799669 140.977627 
L 241.079008 138.733872 
L 244.358347 136.51409 
L 247.637686 134.317899 
L 250.917025 132.144925 
L 254.196364 129.994802 
L 257.475702 127.86717 
L 260.755041 125.76168 
L 264.03438 123.677987 
L 267.313719 121.615754 
L 270.593058 119.574651 
L 273.872397 117.554357 
L 277.151736 115.554553 
L 280.431074 113.57493 
L 283.710413 111.615183 
L 286.989752 109.675016 
L 290.269091 107.754135 
L 293.54843 105.852255 
L 296.827769 103.969096 
L 300.107107 102.104382 
L 303.386446 100.257843 
L 306.665785 98.429215 
L 309.945124 96.618239 
L 313.224463 94.824661 
L 316.503802 93.04823 
L 319.78314 91.288702 
L 323.062479 89.545838 
L 326.341818 87.819401 
L 329.621157 86.10916 
L 332.900496 84.414889 
L 336.179835 82.736364 
L 339.459174 81.073368 
L 342.738512 79.425685 
L 346.017851 77.793106 
L 349.29719 76.175423 
L 352.576529 74.572434 
L 355.855868 72.983939 
L 359.135207 71.409742 
L 362.414545 69.849652 
L 365.693884 68.30348 
L 368.973223 66.771039 
L 372.252562 65.252149 
L 375.531901 63.74663 
L 378.81124 62.254306 
L 382.090579 60.775005 
L 385.369917 59.308557 
L 388.649256 57.854795 
L 391.928595 56.413555 
L 395.207934 54.984676 
L 398.487273 53.568 
" style="fill:none;stroke:#bcbd22;stroke-linecap:square;stroke-width:1.5;"/>
   </g>
   <g id="line2d_33">
    <path clip-path="url(#p05af30dd08)" d="M 73.832727 295.488 
L 77.112066 291.226878 
L 80.391405 287.033044 
L 83.670744 282.904916 
L 86.950083 278.840963 
L 90.229421 274.839699 
L 93.50876 270.899685 
L 96.788099 267.019526 
L 100.067438 263.197867 
L 103.346777 259.433395 
L 106.626116 255.724837 
L 109.905455 252.070956 
L 113.184793 248.470551 
L 116.464132 244.922457 
L 119.743471 241.425543 
L 123.02281 237.978709 
L 126.302149 234.580886 
L 129.581488 231.231036 
L 132.860826 227.928152 
L 136.140165 224.671252 
L 139.419504 221.459382 
L 142.698843 218.291615 
L 145.978182 215.167048 
L 149.257521 212.084805 
L 152.53686 209.04403 
L 155.816198 206.043893 
L 159.095537 203.083584 
L 162.374876 200.162315 
L 165.654215 197.27932 
L 168.933554 194.43385 
L 172.212893 191.625179 
L 175.492231 188.852596 
L 178.77157 186.115411 
L 182.050909 183.41295 
L 185.330248 180.744556 
L 188.609587 178.10959 
L 191.888926 175.507426 
L 195.168264 172.937457 
L 198.447603 170.399089 
L 201.726942 167.891742 
L 205.006281 165.41485 
L 208.28562 162.967864 
L 211.564959 160.550243 
L 214.844298 158.161463 
L 218.123636 155.801011 
L 221.402975 153.468385 
L 224.682314 151.163097 
L 227.961653 148.884669 
L 231.240992 146.632634 
L 234.520331 144.406536 
L 237.799669 142.205929 
L 241.079008 140.030379 
L 244.358347 137.879459 
L 247.637686 135.752755 
L 250.917025 133.649858 
L 254.196364 131.570372 
L 257.475702 129.513907 
L 260.755041 127.480085 
L 264.03438 125.468532 
L 267.313719 123.478885 
L 270.593058 121.510788 
L 273.872397 119.563892 
L 277.151736 117.637858 
L 280.431074 115.732352 
L 283.710413 113.847046 
L 286.989752 111.981622 
L 290.269091 110.135767 
L 293.54843 108.309174 
L 296.827769 106.501544 
L 300.107107 104.712582 
L 303.386446 102.942002 
L 306.665785 101.18952 
L 309.945124 99.454862 
L 313.224463 97.737756 
L 316.503802 96.037937 
L 319.78314 94.355146 
L 323.062479 92.689129 
L 326.341818 91.039634 
L 329.621157 89.406419 
L 332.900496 87.789243 
L 336.179835 86.187871 
L 339.459174 84.602072 
L 342.738512 83.031621 
L 346.017851 81.476296 
L 349.29719 79.935879 
L 352.576529 78.410156 
L 355.855868 76.898919 
L 359.135207 75.401963 
L 362.414545 73.919085 
L 365.693884 72.450089 
L 368.973223 70.994779 
L 372.252562 69.552967 
L 375.531901 68.124464 
L 378.81124 66.709087 
L 382.090579 65.306657 
L 385.369917 63.916996 
L 388.649256 62.539932 
L 391.928595 61.175292 
L 395.207934 59.822911 
L 398.487273 58.482623 
" style="fill:none;stroke:#17becf;stroke-linecap:square;stroke-width:1.5;"/>
   </g>
   <g id="line2d_34">
    <path clip-path="url(#p05af30dd08)" d="M 73.832727 295.488 
L 77.112066 291.237107 
L 80.391405 287.052454 
L 83.670744 282.932504 
L 86.950083 278.875769 
L 90.229421 274.880803 
L 93.50876 270.946209 
L 96.788099 267.070626 
L 100.067438 263.252738 
L 103.346777 259.491265 
L 106.626116 255.784967 
L 109.905455 252.132638 
L 113.184793 248.533107 
L 116.464132 244.985239 
L 119.743471 241.487929 
L 123.02281 238.040103 
L 126.302149 234.64072 
L 129.581488 231.288765 
L 132.860826 227.983252 
L 136.140165 224.723223 
L 139.419504 221.507746 
L 142.698843 218.335913 
L 145.978182 215.206842 
L 149.257521 212.119673 
L 152.53686 209.073572 
L 155.816198 206.067723 
L 159.095537 203.101335 
L 162.374876 200.173634 
L 165.654215 197.28387 
L 168.933554 194.43131 
L 172.212893 191.615239 
L 175.492231 188.834962 
L 178.77157 186.089801 
L 182.050909 183.379094 
L 185.330248 180.702198 
L 188.609587 178.058484 
L 191.888926 175.447337 
L 195.168264 172.868161 
L 198.447603 170.320372 
L 201.726942 167.8034 
L 205.006281 165.316689 
L 208.28562 162.859697 
L 211.564959 160.431894 
L 214.844298 158.032764 
L 218.123636 155.6618 
L 221.402975 153.318511 
L 224.682314 151.002415 
L 227.961653 148.71304 
L 231.240992 146.449927 
L 234.520331 144.212627 
L 237.799669 142.000701 
L 241.079008 139.813719 
L 244.358347 137.651261 
L 247.637686 135.512919 
L 250.917025 133.398289 
L 254.196364 131.306981 
L 257.475702 129.23861 
L 260.755041 127.192802 
L 264.03438 125.169188 
L 267.313719 123.16741 
L 270.593058 121.187117 
L 273.872397 119.227963 
L 277.151736 117.289613 
L 280.431074 115.371737 
L 283.710413 113.474012 
L 286.989752 111.596123 
L 290.269091 109.737759 
L 293.54843 107.898618 
L 296.827769 106.078403 
L 300.107107 104.276824 
L 303.386446 102.493596 
L 306.665785 100.728439 
L 309.945124 98.981081 
L 313.224463 97.251254 
L 316.503802 95.538695 
L 319.78314 93.843147 
L 323.062479 92.164357 
L 326.341818 90.502079 
L 329.621157 88.85607 
L 332.900496 87.226092 
L 336.179835 85.611913 
L 339.459174 84.013303 
L 342.738512 82.430039 
L 346.017851 80.8619 
L 349.29719 79.308671 
L 352.576529 77.770141 
L 355.855868 76.246101 
L 359.135207 74.736348 
L 362.414545 73.240682 
L 365.693884 71.758906 
L 368.973223 70.290829 
L 372.252562 68.83626 
L 375.531901 67.395015 
L 378.81124 65.966911 
L 382.090579 64.551769 
L 385.369917 63.149414 
L 388.649256 61.759673 
L 391.928595 60.382376 
L 395.207934 59.017358 
L 398.487273 57.664454 
" style="fill:none;stroke:#1f77b4;stroke-linecap:square;stroke-width:1.5;"/>
   </g>
   <g id="line2d_35">
    <path clip-path="url(#p05af30dd08)" d="M 73.832727 295.488 
L 77.112066 291.226878 
L 80.391405 287.033044 
L 83.670744 282.904916 
L 86.950083 278.840963 
L 90.229421 274.839699 
L 93.50876 270.899685 
L 96.788099 267.019526 
L 100.067438 263.197867 
L 103.346777 259.433395 
L 106.626116 255.724837 
L 109.905455 252.070956 
L 113.184793 248.470551 
L 116.464132 244.922457 
L 119.743471 241.425543 
L 123.02281 237.978709 
L 126.302149 234.580886 
L 129.581488 231.231036 
L 132.860826 227.928152 
L 136.140165 224.671252 
L 139.419504 221.459382 
L 142.698843 218.291615 
L 145.978182 215.167048 
L 149.257521 212.084805 
L 152.53686 209.04403 
L 155.816198 206.043893 
L 159.095537 203.083584 
L 162.374876 200.162315 
L 165.654215 197.27932 
L 168.933554 194.43385 
L 172.212893 191.625179 
L 175.492231 188.852596 
L 178.77157 186.115411 
L 182.050909 183.41295 
L 185.330248 180.744556 
L 188.609587 178.10959 
L 191.888926 175.507426 
L 195.168264 172.937457 
L 198.447603 170.399089 
L 201.726942 167.891742 
L 205.006281 165.41485 
L 208.28562 162.967864 
L 211.564959 160.550243 
L 214.844298 158.161463 
L 218.123636 155.801011 
L 221.402975 153.468385 
L 224.682314 151.163097 
L 227.961653 148.884669 
L 231.240992 146.632634 
L 234.520331 144.406536 
L 237.799669 142.205929 
L 241.079008 140.030379 
L 244.358347 137.879459 
L 247.637686 135.752755 
L 250.917025 133.649858 
L 254.196364 131.570372 
L 257.475702 129.513907 
L 260.755041 127.480085 
L 264.03438 125.468532 
L 267.313719 123.478885 
L 270.593058 121.510788 
L 273.872397 119.563892 
L 277.151736 117.637858 
L 280.431074 115.732352 
L 283.710413 113.847046 
L 286.989752 111.981622 
L 290.269091 110.135767 
L 293.54843 108.309174 
L 296.827769 106.501544 
L 300.107107 104.712582 
L 303.386446 102.942002 
L 306.665785 101.18952 
L 309.945124 99.454862 
L 313.224463 97.737756 
L 316.503802 96.037937 
L 319.78314 94.355146 
L 323.062479 92.689129 
L 326.341818 91.039634 
L 329.621157 89.406419 
L 332.900496 87.789243 
L 336.179835 86.187871 
L 339.459174 84.602072 
L 342.738512 83.031621 
L 346.017851 81.476296 
L 349.29719 79.935879 
L 352.576529 78.410156 
L 355.855868 76.898919 
L 359.135207 75.401963 
L 362.414545 73.919085 
L 365.693884 72.450089 
L 368.973223 70.994779 
L 372.252562 69.552967 
L 375.531901 68.124464 
L 378.81124 66.709087 
L 382.090579 65.306657 
L 385.369917 63.916996 
L 388.649256 62.539932 
L 391.928595 61.175292 
L 395.207934 59.822911 
L 398.487273 58.482623 
" style="fill:none;stroke:#ff7f0e;stroke-linecap:square;stroke-width:1.5;"/>
   </g>
   <g id="line2d_36">
    <path clip-path="url(#p05af30dd08)" d="M 73.832727 295.488 
L 77.112066 291.237107 
L 80.391405 287.052454 
L 83.670744 282.932504 
L 86.950083 278.875769 
L 90.229421 274.880803 
L 93.50876 270.946209 
L 96.788099 267.070626 
L 100.067438 263.252738 
L 103.346777 259.491265 
L 106.626116 255.784967 
L 109.905455 252.132638 
L 113.184793 248.533107 
L 116.464132 244.985239 
L 119.743471 241.487929 
L 123.02281 238.040103 
L 126.302149 234.64072 
L 129.581488 231.288765 
L 132.860826 227.983252 
L 136.140165 224.723223 
L 139.419504 221.507746 
L 142.698843 218.335913 
L 145.978182 215.206842 
L 149.257521 212.119673 
L 152.53686 209.073572 
L 155.816198 206.067723 
L 159.095537 203.101335 
L 162.374876 200.173634 
L 165.654215 197.28387 
L 168.933554 194.43131 
L 172.212893 191.615239 
L 175.492231 188.834962 
L 178.77157 186.089801 
L 182.050909 183.379094 
L 185.330248 180.702198 
L 188.609587 178.058484 
L 191.888926 175.447337 
L 195.168264 172.868161 
L 198.447603 170.320372 
L 201.726942 167.8034 
L 205.006281 165.316689 
L 208.28562 162.859697 
L 211.564959 160.431894 
L 214.844298 158.032764 
L 218.123636 155.6618 
L 221.402975 153.318511 
L 224.682314 151.002415 
L 227.961653 148.71304 
L 231.240992 146.449927 
L 234.520331 144.212627 
L 237.799669 142.000701 
L 241.079008 139.813719 
L 244.358347 137.651261 
L 247.637686 135.512919 
L 250.917025 133.398289 
L 254.196364 131.306981 
L 257.475702 129.23861 
L 260.755041 127.192802 
L 264.03438 125.169188 
L 267.313719 123.16741 
L 270.593058 121.187117 
L 273.872397 119.227963 
L 277.151736 117.289613 
L 280.431074 115.371737 
L 283.710413 113.474012 
L 286.989752 111.596123 
L 290.269091 109.737759 
L 293.54843 107.898618 
L 296.827769 106.078403 
L 300.107107 104.276824 
L 303.386446 102.493596 
L 306.665785 100.728439 
L 309.945124 98.981081 
L 313.224463 97.251254 
L 316.503802 95.538695 
L 319.78314 93.843147 
L 323.062479 92.164357 
L 326.341818 90.502079 
L 329.621157 88.85607 
L 332.900496 87.226092 
L 336.179835 85.611913 
L 339.459174 84.013303 
L 342.738512 82.430039 
L 346.017851 80.8619 
L 349.29719 79.308671 
L 352.576529 77.770141 
L 355.855868 76.246101 
L 359.135207 74.736348 
L 362.414545 73.240682 
L 365.693884 71.758906 
L 368.973223 70.290829 
L 372.252562 68.83626 
L 375.531901 67.395015 
L 378.81124 65.966911 
L 382.090579 64.551769 
L 385.369917 63.149414 
L 388.649256 61.759673 
L 391.928595 60.382376 
L 395.207934 59.017358 
L 398.487273 57.664454 
" style="fill:none;stroke:#2ca02c;stroke-linecap:square;stroke-width:1.5;"/>
   </g>
   <g id="line2d_37">
    <path clip-path="url(#p05af30dd08)" d="M 73.832727 295.488 
L 77.112066 292.398349 
L 80.391405 289.339684 
L 83.670744 286.311541 
L 86.950083 283.313466 
L 90.229421 280.345012 
L 93.50876 277.405744 
L 96.788099 274.495232 
L 100.067438 271.613056 
L 103.346777 268.758806 
L 106.626116 265.932077 
L 109.905455 263.132473 
L 113.184793 260.359605 
L 116.464132 257.613092 
L 119.743471 254.89256 
L 123.02281 252.197643 
L 126.302149 249.527979 
L 129.581488 246.883217 
L 132.860826 244.263009 
L 136.140165 241.667014 
L 139.419504 239.0949 
L 142.698843 236.546336 
L 145.978182 234.021003 
L 149.257521 231.518583 
L 152.53686 229.038766 
L 155.816198 226.581247 
L 159.095537 224.145727 
L 162.374876 221.731912 
L 165.654215 219.339512 
L 168.933554 216.968245 
L 172.212893 214.617831 
L 175.492231 212.287996 
L 178.77157 209.978472 
L 182.050909 207.688994 
L 185.330248 205.419302 
L 188.609587 203.16914 
L 191.888926 200.938258 
L 195.168264 198.726409 
L 198.447603 196.533351 
L 201.726942 194.358844 
L 205.006281 192.202655 
L 208.28562 190.064554 
L 211.564959 187.944312 
L 214.844298 185.841708 
L 218.123636 183.756523 
L 221.402975 181.68854 
L 224.682314 179.637548 
L 227.961653 177.603339 
L 231.240992 175.585707 
L 234.520331 173.58445 
L 237.799669 171.599369 
L 241.079008 169.630271 
L 244.358347 167.676961 
L 247.637686 165.739252 
L 250.917025 163.816956 
L 254.196364 161.909891 
L 257.475702 160.017877 
L 260.755041 158.140735 
L 264.03438 156.278292 
L 267.313719 154.430376 
L 270.593058 152.596816 
L 273.872397 150.777446 
L 277.151736 148.972103 
L 280.431074 147.180625 
L 283.710413 145.402852 
L 286.989752 143.638628 
L 290.269091 141.887798 
L 293.54843 140.150212 
L 296.827769 138.425718 
L 300.107107 136.71417 
L 303.386446 135.015422 
L 306.665785 133.329331 
L 309.945124 131.655756 
L 313.224463 129.994559 
L 316.503802 128.345603 
L 319.78314 126.708753 
L 323.062479 125.083875 
L 326.341818 123.47084 
L 329.621157 121.869517 
L 332.900496 120.279781 
L 336.179835 118.701506 
L 339.459174 117.134567 
L 342.738512 115.578845 
L 346.017851 114.034217 
L 349.29719 112.500568 
L 352.576529 110.977778 
L 355.855868 109.465735 
L 359.135207 107.964323 
L 362.414545 106.473433 
L 365.693884 104.992952 
L 368.973223 103.522774 
L 372.252562 102.06279 
L 375.531901 100.612895 
L 378.81124 99.172985 
L 382.090579 97.742956 
L 385.369917 96.322708 
L 388.649256 94.912141 
L 391.928595 93.511156 
L 395.207934 92.119655 
L 398.487273 90.737543 
" style="fill:none;stroke:#d62728;stroke-linecap:square;stroke-width:1.5;"/>
   </g>
   <g id="patch_3">
    <path d="M 57.6 307.584 
L 57.6 41.472 
" style="fill:none;stroke:#000000;stroke-linecap:square;stroke-linejoin:miter;stroke-width:0.8;"/>
   </g>
   <g id="patch_4">
    <path d="M 414.72 307.584 
L 414.72 41.472 
" style="fill:none;stroke:#000000;stroke-linecap:square;stroke-linejoin:miter;stroke-width:0.8;"/>
   </g>
   <g id="patch_5">
    <path d="M 57.6 307.584 
L 414.72 307.584 
" style="fill:none;stroke:#000000;stroke-linecap:square;stroke-linejoin:miter;stroke-width:0.8;"/>
   </g>
   <g id="patch_6">
    <path d="M 57.6 41.472 
L 414.72 41.472 
" style="fill:none;stroke:#000000;stroke-linecap:square;stroke-linejoin:miter;stroke-width:0.8;"/>
   </g>
  </g>
 </g>
 <defs>
  <clipPath id="p05af30dd08">
   <rect height="266.112" width="357.12" x="57.6" y="41.472"/>
  </clipPath>
 </defs>
</svg>
