<?xml version="1.0" encoding="utf-8" standalone="no"?>
<!DOCTYPE svg PUBLIC "-//W3C//DTD SVG 1.1//EN"
  "http://www.w3.org/Graphics/SVG/1.1/DTD/svg11.dtd">
<!-- Created with matplotlib (https://matplotlib.org/) -->
<svg height="345.6pt" version="1.1" viewBox="0 0 460.8 345.6" width="460.8pt" xmlns="http://www.w3.org/2000/svg" xmlns:xlink="http://www.w3.org/1999/xlink">
 <defs>
  <style type="text/css">
*{stroke-linecap:butt;stroke-linejoin:round;}
  </style>
 </defs>
 <g id="figure_1">
  <g id="patch_1">
   <path d="M 0 345.6 
L 460.8 345.6 
L 460.8 0 
L 0 0 
z
" style="fill:#ffffff;"/>
  </g>
  <g id="axes_1">
   <g id="patch_2">
    <path d="M 57.6 307.584 
L 414.72 307.584 
L 414.72 41.472 
L 57.6 41.472 
z
" style="fill:#ffffff;"/>
   </g>
   <g id="matplotlib.axis_1">
    <g id="xtick_1">
     <g id="line2d_1">
      <defs>
       <path d="M 0 0 
L 0 3.5 
" id="m1b6a73c317" style="stroke:#000000;stroke-width:0.8;"/>
      </defs>
      <g>
       <use style="stroke:#000000;stroke-width:0.8;" x="73.832727" xlink:href="#m1b6a73c317" y="307.584"/>
      </g>
     </g>
     <g id="text_1">
      <!-- 0 -->
      <defs>
       <path d="M 31.78125 66.40625 
Q 24.171875 66.40625 20.328125 58.90625 
Q 16.5 51.421875 16.5 36.375 
Q 16.5 21.390625 20.328125 13.890625 
Q 24.171875 6.390625 31.78125 6.390625 
Q 39.453125 6.390625 43.28125 13.890625 
Q 47.125 21.390625 47.125 36.375 
Q 47.125 51.421875 43.28125 58.90625 
Q 39.453125 66.40625 31.78125 66.40625 
z
M 31.78125 74.21875 
Q 44.046875 74.21875 50.515625 64.515625 
Q 56.984375 54.828125 56.984375 36.375 
Q 56.984375 17.96875 50.515625 8.265625 
Q 44.046875 -1.421875 31.78125 -1.421875 
Q 19.53125 -1.421875 13.0625 8.265625 
Q 6.59375 17.96875 6.59375 36.375 
Q 6.59375 54.828125 13.0625 64.515625 
Q 19.53125 74.21875 31.78125 74.21875 
z
" id="DejaVuSans-48"/>
      </defs>
      <g transform="translate(70.651477 322.182437)scale(0.1 -0.1)">
       <use xlink:href="#DejaVuSans-48"/>
      </g>
     </g>
    </g>
    <g id="xtick_2">
     <g id="line2d_2">
      <g>
       <use style="stroke:#000000;stroke-width:0.8;" x="120.211948" xlink:href="#m1b6a73c317" y="307.584"/>
      </g>
     </g>
     <g id="text_2">
      <!-- 10 -->
      <defs>
       <path d="M 12.40625 8.296875 
L 28.515625 8.296875 
L 28.515625 63.921875 
L 10.984375 60.40625 
L 10.984375 69.390625 
L 28.421875 72.90625 
L 38.28125 72.90625 
L 38.28125 8.296875 
L 54.390625 8.296875 
L 54.390625 0 
L 12.40625 0 
z
" id="DejaVuSans-49"/>
      </defs>
      <g transform="translate(113.849448 322.182437)scale(0.1 -0.1)">
       <use xlink:href="#DejaVuSans-49"/>
       <use x="63.623047" xlink:href="#DejaVuSans-48"/>
      </g>
     </g>
    </g>
    <g id="xtick_3">
     <g id="line2d_3">
      <g>
       <use style="stroke:#000000;stroke-width:0.8;" x="166.591169" xlink:href="#m1b6a73c317" y="307.584"/>
      </g>
     </g>
     <g id="text_3">
      <!-- 20 -->
      <defs>
       <path d="M 19.1875 8.296875 
L 53.609375 8.296875 
L 53.609375 0 
L 7.328125 0 
L 7.328125 8.296875 
Q 12.9375 14.109375 22.625 23.890625 
Q 32.328125 33.6875 34.8125 36.53125 
Q 39.546875 41.84375 41.421875 45.53125 
Q 43.3125 49.21875 43.3125 52.78125 
Q 43.3125 58.59375 39.234375 62.25 
Q 35.15625 65.921875 28.609375 65.921875 
Q 23.96875 65.921875 18.8125 64.3125 
Q 13.671875 62.703125 7.8125 59.421875 
L 7.8125 69.390625 
Q 13.765625 71.78125 18.9375 73 
Q 24.125 74.21875 28.421875 74.21875 
Q 39.75 74.21875 46.484375 68.546875 
Q 53.21875 62.890625 53.21875 53.421875 
Q 53.21875 48.921875 51.53125 44.890625 
Q 49.859375 40.875 45.40625 35.40625 
Q 44.1875 33.984375 37.640625 27.21875 
Q 31.109375 20.453125 19.1875 8.296875 
z
" id="DejaVuSans-50"/>
      </defs>
      <g transform="translate(160.228669 322.182437)scale(0.1 -0.1)">
       <use xlink:href="#DejaVuSans-50"/>
       <use x="63.623047" xlink:href="#DejaVuSans-48"/>
      </g>
     </g>
    </g>
    <g id="xtick_4">
     <g id="line2d_4">
      <g>
       <use style="stroke:#000000;stroke-width:0.8;" x="212.97039" xlink:href="#m1b6a73c317" y="307.584"/>
      </g>
     </g>
     <g id="text_4">
      <!-- 30 -->
      <defs>
       <path d="M 40.578125 39.3125 
Q 47.65625 37.796875 51.625 33 
Q 55.609375 28.21875 55.609375 21.1875 
Q 55.609375 10.40625 48.1875 4.484375 
Q 40.765625 -1.421875 27.09375 -1.421875 
Q 22.515625 -1.421875 17.65625 -0.515625 
Q 12.796875 0.390625 7.625 2.203125 
L 7.625 11.71875 
Q 11.71875 9.328125 16.59375 8.109375 
Q 21.484375 6.890625 26.8125 6.890625 
Q 36.078125 6.890625 40.9375 10.546875 
Q 45.796875 14.203125 45.796875 21.1875 
Q 45.796875 27.640625 41.28125 31.265625 
Q 36.765625 34.90625 28.71875 34.90625 
L 20.21875 34.90625 
L 20.21875 43.015625 
L 29.109375 43.015625 
Q 36.375 43.015625 40.234375 45.921875 
Q 44.09375 48.828125 44.09375 54.296875 
Q 44.09375 59.90625 40.109375 62.90625 
Q 36.140625 65.921875 28.71875 65.921875 
Q 24.65625 65.921875 20.015625 65.03125 
Q 15.375 64.15625 9.8125 62.3125 
L 9.8125 71.09375 
Q 15.4375 72.65625 20.34375 73.4375 
Q 25.25 74.21875 29.59375 74.21875 
Q 40.828125 74.21875 47.359375 69.109375 
Q 53.90625 64.015625 53.90625 55.328125 
Q 53.90625 49.265625 50.4375 45.09375 
Q 46.96875 40.921875 40.578125 39.3125 
z
" id="DejaVuSans-51"/>
      </defs>
      <g transform="translate(206.60789 322.182437)scale(0.1 -0.1)">
       <use xlink:href="#DejaVuSans-51"/>
       <use x="63.623047" xlink:href="#DejaVuSans-48"/>
      </g>
     </g>
    </g>
    <g id="xtick_5">
     <g id="line2d_5">
      <g>
       <use style="stroke:#000000;stroke-width:0.8;" x="259.34961" xlink:href="#m1b6a73c317" y="307.584"/>
      </g>
     </g>
     <g id="text_5">
      <!-- 40 -->
      <defs>
       <path d="M 37.796875 64.3125 
L 12.890625 25.390625 
L 37.796875 25.390625 
z
M 35.203125 72.90625 
L 47.609375 72.90625 
L 47.609375 25.390625 
L 58.015625 25.390625 
L 58.015625 17.1875 
L 47.609375 17.1875 
L 47.609375 0 
L 37.796875 0 
L 37.796875 17.1875 
L 4.890625 17.1875 
L 4.890625 26.703125 
z
" id="DejaVuSans-52"/>
      </defs>
      <g transform="translate(252.98711 322.182437)scale(0.1 -0.1)">
       <use xlink:href="#DejaVuSans-52"/>
       <use x="63.623047" xlink:href="#DejaVuSans-48"/>
      </g>
     </g>
    </g>
    <g id="xtick_6">
     <g id="line2d_6">
      <g>
       <use style="stroke:#000000;stroke-width:0.8;" x="305.728831" xlink:href="#m1b6a73c317" y="307.584"/>
      </g>
     </g>
     <g id="text_6">
      <!-- 50 -->
      <defs>
       <path d="M 10.796875 72.90625 
L 49.515625 72.90625 
L 49.515625 64.59375 
L 19.828125 64.59375 
L 19.828125 46.734375 
Q 21.96875 47.46875 24.109375 47.828125 
Q 26.265625 48.1875 28.421875 48.1875 
Q 40.625 48.1875 47.75 41.5 
Q 54.890625 34.8125 54.890625 23.390625 
Q 54.890625 11.625 47.5625 5.09375 
Q 40.234375 -1.421875 26.90625 -1.421875 
Q 22.3125 -1.421875 17.546875 -0.640625 
Q 12.796875 0.140625 7.71875 1.703125 
L 7.71875 11.625 
Q 12.109375 9.234375 16.796875 8.0625 
Q 21.484375 6.890625 26.703125 6.890625 
Q 35.15625 6.890625 40.078125 11.328125 
Q 45.015625 15.765625 45.015625 23.390625 
Q 45.015625 31 40.078125 35.4375 
Q 35.15625 39.890625 26.703125 39.890625 
Q 22.75 39.890625 18.8125 39.015625 
Q 14.890625 38.140625 10.796875 36.28125 
z
" id="DejaVuSans-53"/>
      </defs>
      <g transform="translate(299.366331 322.182437)scale(0.1 -0.1)">
       <use xlink:href="#DejaVuSans-53"/>
       <use x="63.623047" xlink:href="#DejaVuSans-48"/>
      </g>
     </g>
    </g>
    <g id="xtick_7">
     <g id="line2d_7">
      <g>
       <use style="stroke:#000000;stroke-width:0.8;" x="352.108052" xlink:href="#m1b6a73c317" y="307.584"/>
      </g>
     </g>
     <g id="text_7">
      <!-- 60 -->
      <defs>
       <path d="M 33.015625 40.375 
Q 26.375 40.375 22.484375 35.828125 
Q 18.609375 31.296875 18.609375 23.390625 
Q 18.609375 15.53125 22.484375 10.953125 
Q 26.375 6.390625 33.015625 6.390625 
Q 39.65625 6.390625 43.53125 10.953125 
Q 47.40625 15.53125 47.40625 23.390625 
Q 47.40625 31.296875 43.53125 35.828125 
Q 39.65625 40.375 33.015625 40.375 
z
M 52.59375 71.296875 
L 52.59375 62.3125 
Q 48.875 64.0625 45.09375 64.984375 
Q 41.3125 65.921875 37.59375 65.921875 
Q 27.828125 65.921875 22.671875 59.328125 
Q 17.53125 52.734375 16.796875 39.40625 
Q 19.671875 43.65625 24.015625 45.921875 
Q 28.375 48.1875 33.59375 48.1875 
Q 44.578125 48.1875 50.953125 41.515625 
Q 57.328125 34.859375 57.328125 23.390625 
Q 57.328125 12.15625 50.6875 5.359375 
Q 44.046875 -1.421875 33.015625 -1.421875 
Q 20.359375 -1.421875 13.671875 8.265625 
Q 6.984375 17.96875 6.984375 36.375 
Q 6.984375 53.65625 15.1875 63.9375 
Q 23.390625 74.21875 37.203125 74.21875 
Q 40.921875 74.21875 44.703125 73.484375 
Q 48.484375 72.75 52.59375 71.296875 
z
" id="DejaVuSans-54"/>
      </defs>
      <g transform="translate(345.745552 322.182437)scale(0.1 -0.1)">
       <use xlink:href="#DejaVuSans-54"/>
       <use x="63.623047" xlink:href="#DejaVuSans-48"/>
      </g>
     </g>
    </g>
    <g id="xtick_8">
     <g id="line2d_8">
      <g>
       <use style="stroke:#000000;stroke-width:0.8;" x="398.487273" xlink:href="#m1b6a73c317" y="307.584"/>
      </g>
     </g>
     <g id="text_8">
      <!-- 70 -->
      <defs>
       <path d="M 8.203125 72.90625 
L 55.078125 72.90625 
L 55.078125 68.703125 
L 28.609375 0 
L 18.3125 0 
L 43.21875 64.59375 
L 8.203125 64.59375 
z
" id="DejaVuSans-55"/>
      </defs>
      <g transform="translate(392.124773 322.182437)scale(0.1 -0.1)">
       <use xlink:href="#DejaVuSans-55"/>
       <use x="63.623047" xlink:href="#DejaVuSans-48"/>
      </g>
     </g>
    </g>
    <g id="text_9">
     <!-- Frequência do estímulo antidrômico (Hz) -->
     <defs>
      <path d="M 9.8125 72.90625 
L 51.703125 72.90625 
L 51.703125 64.59375 
L 19.671875 64.59375 
L 19.671875 43.109375 
L 48.578125 43.109375 
L 48.578125 34.8125 
L 19.671875 34.8125 
L 19.671875 0 
L 9.8125 0 
z
" id="DejaVuSans-70"/>
      <path d="M 41.109375 46.296875 
Q 39.59375 47.171875 37.8125 47.578125 
Q 36.03125 48 33.890625 48 
Q 26.265625 48 22.1875 43.046875 
Q 18.109375 38.09375 18.109375 28.8125 
L 18.109375 0 
L 9.078125 0 
L 9.078125 54.6875 
L 18.109375 54.6875 
L 18.109375 46.1875 
Q 20.953125 51.171875 25.484375 53.578125 
Q 30.03125 56 36.53125 56 
Q 37.453125 56 38.578125 55.875 
Q 39.703125 55.765625 41.0625 55.515625 
z
" id="DejaVuSans-114"/>
      <path d="M 56.203125 29.59375 
L 56.203125 25.203125 
L 14.890625 25.203125 
Q 15.484375 15.921875 20.484375 11.0625 
Q 25.484375 6.203125 34.421875 6.203125 
Q 39.59375 6.203125 44.453125 7.46875 
Q 49.3125 8.734375 54.109375 11.28125 
L 54.109375 2.78125 
Q 49.265625 0.734375 44.1875 -0.34375 
Q 39.109375 -1.421875 33.890625 -1.421875 
Q 20.796875 -1.421875 13.15625 6.1875 
Q 5.515625 13.8125 5.515625 26.8125 
Q 5.515625 40.234375 12.765625 48.109375 
Q 20.015625 56 32.328125 56 
Q 43.359375 56 49.78125 48.890625 
Q 56.203125 41.796875 56.203125 29.59375 
z
M 47.21875 32.234375 
Q 47.125 39.59375 43.09375 43.984375 
Q 39.0625 48.390625 32.421875 48.390625 
Q 24.90625 48.390625 20.390625 44.140625 
Q 15.875 39.890625 15.1875 32.171875 
z
" id="DejaVuSans-101"/>
      <path d="M 14.796875 27.296875 
Q 14.796875 17.390625 18.875 11.75 
Q 22.953125 6.109375 30.078125 6.109375 
Q 37.203125 6.109375 41.296875 11.75 
Q 45.40625 17.390625 45.40625 27.296875 
Q 45.40625 37.203125 41.296875 42.84375 
Q 37.203125 48.484375 30.078125 48.484375 
Q 22.953125 48.484375 18.875 42.84375 
Q 14.796875 37.203125 14.796875 27.296875 
z
M 45.40625 8.203125 
Q 42.578125 3.328125 38.25 0.953125 
Q 33.9375 -1.421875 27.875 -1.421875 
Q 17.96875 -1.421875 11.734375 6.484375 
Q 5.515625 14.40625 5.515625 27.296875 
Q 5.515625 40.1875 11.734375 48.09375 
Q 17.96875 56 27.875 56 
Q 33.9375 56 38.25 53.625 
Q 42.578125 51.265625 45.40625 46.390625 
L 45.40625 54.6875 
L 54.390625 54.6875 
L 54.390625 -20.796875 
L 45.40625 -20.796875 
z
" id="DejaVuSans-113"/>
      <path d="M 8.5 21.578125 
L 8.5 54.6875 
L 17.484375 54.6875 
L 17.484375 21.921875 
Q 17.484375 14.15625 20.5 10.265625 
Q 23.53125 6.390625 29.59375 6.390625 
Q 36.859375 6.390625 41.078125 11.03125 
Q 45.3125 15.671875 45.3125 23.6875 
L 45.3125 54.6875 
L 54.296875 54.6875 
L 54.296875 0 
L 45.3125 0 
L 45.3125 8.40625 
Q 42.046875 3.421875 37.71875 1 
Q 33.40625 -1.421875 27.6875 -1.421875 
Q 18.265625 -1.421875 13.375 4.4375 
Q 8.5 10.296875 8.5 21.578125 
z
M 31.109375 56 
z
" id="DejaVuSans-117"/>
      <path d="M 56.203125 29.59375 
L 56.203125 25.203125 
L 14.890625 25.203125 
Q 15.484375 15.921875 20.484375 11.0625 
Q 25.484375 6.203125 34.421875 6.203125 
Q 39.59375 6.203125 44.453125 7.46875 
Q 49.3125 8.734375 54.109375 11.28125 
L 54.109375 2.78125 
Q 49.265625 0.734375 44.1875 -0.34375 
Q 39.109375 -1.421875 33.890625 -1.421875 
Q 20.796875 -1.421875 13.15625 6.1875 
Q 5.515625 13.8125 5.515625 26.8125 
Q 5.515625 40.234375 12.765625 48.109375 
Q 20.015625 56 32.328125 56 
Q 43.359375 56 49.78125 48.890625 
Q 56.203125 41.796875 56.203125 29.59375 
z
M 47.21875 32.234375 
Q 47.125 39.59375 43.09375 43.984375 
Q 39.0625 48.390625 32.421875 48.390625 
Q 24.90625 48.390625 20.390625 44.140625 
Q 15.875 39.890625 15.1875 32.171875 
z
M 28.171875 79.984375 
L 35.40625 79.984375 
L 47.359375 61.625 
L 40.578125 61.625 
L 31.78125 73.578125 
L 23 61.625 
L 16.21875 61.625 
z
" id="DejaVuSans-234"/>
      <path d="M 54.890625 33.015625 
L 54.890625 0 
L 45.90625 0 
L 45.90625 32.71875 
Q 45.90625 40.484375 42.875 44.328125 
Q 39.84375 48.1875 33.796875 48.1875 
Q 26.515625 48.1875 22.3125 43.546875 
Q 18.109375 38.921875 18.109375 30.90625 
L 18.109375 0 
L 9.078125 0 
L 9.078125 54.6875 
L 18.109375 54.6875 
L 18.109375 46.1875 
Q 21.34375 51.125 25.703125 53.5625 
Q 30.078125 56 35.796875 56 
Q 45.21875 56 50.046875 50.171875 
Q 54.890625 44.34375 54.890625 33.015625 
z
" id="DejaVuSans-110"/>
      <path d="M 48.78125 52.59375 
L 48.78125 44.1875 
Q 44.96875 46.296875 41.140625 47.34375 
Q 37.3125 48.390625 33.40625 48.390625 
Q 24.65625 48.390625 19.8125 42.84375 
Q 14.984375 37.3125 14.984375 27.296875 
Q 14.984375 17.28125 19.8125 11.734375 
Q 24.65625 6.203125 33.40625 6.203125 
Q 37.3125 6.203125 41.140625 7.25 
Q 44.96875 8.296875 48.78125 10.40625 
L 48.78125 2.09375 
Q 45.015625 0.34375 40.984375 -0.53125 
Q 36.96875 -1.421875 32.421875 -1.421875 
Q 20.0625 -1.421875 12.78125 6.34375 
Q 5.515625 14.109375 5.515625 27.296875 
Q 5.515625 40.671875 12.859375 48.328125 
Q 20.21875 56 33.015625 56 
Q 37.15625 56 41.109375 55.140625 
Q 45.0625 54.296875 48.78125 52.59375 
z
" id="DejaVuSans-99"/>
      <path d="M 9.421875 54.6875 
L 18.40625 54.6875 
L 18.40625 0 
L 9.421875 0 
z
M 9.421875 75.984375 
L 18.40625 75.984375 
L 18.40625 64.59375 
L 9.421875 64.59375 
z
" id="DejaVuSans-105"/>
      <path d="M 34.28125 27.484375 
Q 23.390625 27.484375 19.1875 25 
Q 14.984375 22.515625 14.984375 16.5 
Q 14.984375 11.71875 18.140625 8.90625 
Q 21.296875 6.109375 26.703125 6.109375 
Q 34.1875 6.109375 38.703125 11.40625 
Q 43.21875 16.703125 43.21875 25.484375 
L 43.21875 27.484375 
z
M 52.203125 31.203125 
L 52.203125 0 
L 43.21875 0 
L 43.21875 8.296875 
Q 40.140625 3.328125 35.546875 0.953125 
Q 30.953125 -1.421875 24.3125 -1.421875 
Q 15.921875 -1.421875 10.953125 3.296875 
Q 6 8.015625 6 15.921875 
Q 6 25.140625 12.171875 29.828125 
Q 18.359375 34.515625 30.609375 34.515625 
L 43.21875 34.515625 
L 43.21875 35.40625 
Q 43.21875 41.609375 39.140625 45 
Q 35.0625 48.390625 27.6875 48.390625 
Q 23 48.390625 18.546875 47.265625 
Q 14.109375 46.140625 10.015625 43.890625 
L 10.015625 52.203125 
Q 14.9375 54.109375 19.578125 55.046875 
Q 24.21875 56 28.609375 56 
Q 40.484375 56 46.34375 49.84375 
Q 52.203125 43.703125 52.203125 31.203125 
z
" id="DejaVuSans-97"/>
      <path id="DejaVuSans-32"/>
      <path d="M 45.40625 46.390625 
L 45.40625 75.984375 
L 54.390625 75.984375 
L 54.390625 0 
L 45.40625 0 
L 45.40625 8.203125 
Q 42.578125 3.328125 38.25 0.953125 
Q 33.9375 -1.421875 27.875 -1.421875 
Q 17.96875 -1.421875 11.734375 6.484375 
Q 5.515625 14.40625 5.515625 27.296875 
Q 5.515625 40.1875 11.734375 48.09375 
Q 17.96875 56 27.875 56 
Q 33.9375 56 38.25 53.625 
Q 42.578125 51.265625 45.40625 46.390625 
z
M 14.796875 27.296875 
Q 14.796875 17.390625 18.875 11.75 
Q 22.953125 6.109375 30.078125 6.109375 
Q 37.203125 6.109375 41.296875 11.75 
Q 45.40625 17.390625 45.40625 27.296875 
Q 45.40625 37.203125 41.296875 42.84375 
Q 37.203125 48.484375 30.078125 48.484375 
Q 22.953125 48.484375 18.875 42.84375 
Q 14.796875 37.203125 14.796875 27.296875 
z
" id="DejaVuSans-100"/>
      <path d="M 30.609375 48.390625 
Q 23.390625 48.390625 19.1875 42.75 
Q 14.984375 37.109375 14.984375 27.296875 
Q 14.984375 17.484375 19.15625 11.84375 
Q 23.34375 6.203125 30.609375 6.203125 
Q 37.796875 6.203125 41.984375 11.859375 
Q 46.1875 17.53125 46.1875 27.296875 
Q 46.1875 37.015625 41.984375 42.703125 
Q 37.796875 48.390625 30.609375 48.390625 
z
M 30.609375 56 
Q 42.328125 56 49.015625 48.375 
Q 55.71875 40.765625 55.71875 27.296875 
Q 55.71875 13.875 49.015625 6.21875 
Q 42.328125 -1.421875 30.609375 -1.421875 
Q 18.84375 -1.421875 12.171875 6.21875 
Q 5.515625 13.875 5.515625 27.296875 
Q 5.515625 40.765625 12.171875 48.375 
Q 18.84375 56 30.609375 56 
z
" id="DejaVuSans-111"/>
      <path d="M 44.28125 53.078125 
L 44.28125 44.578125 
Q 40.484375 46.53125 36.375 47.5 
Q 32.28125 48.484375 27.875 48.484375 
Q 21.1875 48.484375 17.84375 46.4375 
Q 14.5 44.390625 14.5 40.28125 
Q 14.5 37.15625 16.890625 35.375 
Q 19.28125 33.59375 26.515625 31.984375 
L 29.59375 31.296875 
Q 39.15625 29.25 43.1875 25.515625 
Q 47.21875 21.78125 47.21875 15.09375 
Q 47.21875 7.46875 41.1875 3.015625 
Q 35.15625 -1.421875 24.609375 -1.421875 
Q 20.21875 -1.421875 15.453125 -0.5625 
Q 10.6875 0.296875 5.421875 2 
L 5.421875 11.28125 
Q 10.40625 8.6875 15.234375 7.390625 
Q 20.0625 6.109375 24.8125 6.109375 
Q 31.15625 6.109375 34.5625 8.28125 
Q 37.984375 10.453125 37.984375 14.40625 
Q 37.984375 18.0625 35.515625 20.015625 
Q 33.0625 21.96875 24.703125 23.78125 
L 21.578125 24.515625 
Q 13.234375 26.265625 9.515625 29.90625 
Q 5.8125 33.546875 5.8125 39.890625 
Q 5.8125 47.609375 11.28125 51.796875 
Q 16.75 56 26.8125 56 
Q 31.78125 56 36.171875 55.265625 
Q 40.578125 54.546875 44.28125 53.078125 
z
" id="DejaVuSans-115"/>
      <path d="M 18.3125 70.21875 
L 18.3125 54.6875 
L 36.8125 54.6875 
L 36.8125 47.703125 
L 18.3125 47.703125 
L 18.3125 18.015625 
Q 18.3125 11.328125 20.140625 9.421875 
Q 21.96875 7.515625 27.59375 7.515625 
L 36.8125 7.515625 
L 36.8125 0 
L 27.59375 0 
Q 17.1875 0 13.234375 3.875 
Q 9.28125 7.765625 9.28125 18.015625 
L 9.28125 47.703125 
L 2.6875 47.703125 
L 2.6875 54.6875 
L 9.28125 54.6875 
L 9.28125 70.21875 
z
" id="DejaVuSans-116"/>
      <path d="M 20.703125 79.984375 
L 30.421875 79.984375 
L 14.5 61.625 
L 7.03125 61.625 
z
M 9.421875 54.6875 
L 18.40625 54.6875 
L 18.40625 0 
L 9.421875 0 
z
M 13.921875 56 
z
" id="DejaVuSans-237"/>
      <path d="M 52 44.1875 
Q 55.375 50.25 60.0625 53.125 
Q 64.75 56 71.09375 56 
Q 79.640625 56 84.28125 50.015625 
Q 88.921875 44.046875 88.921875 33.015625 
L 88.921875 0 
L 79.890625 0 
L 79.890625 32.71875 
Q 79.890625 40.578125 77.09375 44.375 
Q 74.3125 48.1875 68.609375 48.1875 
Q 61.625 48.1875 57.5625 43.546875 
Q 53.515625 38.921875 53.515625 30.90625 
L 53.515625 0 
L 44.484375 0 
L 44.484375 32.71875 
Q 44.484375 40.625 41.703125 44.40625 
Q 38.921875 48.1875 33.109375 48.1875 
Q 26.21875 48.1875 22.15625 43.53125 
Q 18.109375 38.875 18.109375 30.90625 
L 18.109375 0 
L 9.078125 0 
L 9.078125 54.6875 
L 18.109375 54.6875 
L 18.109375 46.1875 
Q 21.1875 51.21875 25.484375 53.609375 
Q 29.78125 56 35.6875 56 
Q 41.65625 56 45.828125 52.96875 
Q 50 49.953125 52 44.1875 
z
" id="DejaVuSans-109"/>
      <path d="M 9.421875 75.984375 
L 18.40625 75.984375 
L 18.40625 0 
L 9.421875 0 
z
" id="DejaVuSans-108"/>
      <path d="M 30.609375 48.390625 
Q 23.390625 48.390625 19.1875 42.75 
Q 14.984375 37.109375 14.984375 27.296875 
Q 14.984375 17.484375 19.15625 11.84375 
Q 23.34375 6.203125 30.609375 6.203125 
Q 37.796875 6.203125 41.984375 11.859375 
Q 46.1875 17.53125 46.1875 27.296875 
Q 46.1875 37.015625 41.984375 42.703125 
Q 37.796875 48.390625 30.609375 48.390625 
z
M 30.609375 56 
Q 42.328125 56 49.015625 48.375 
Q 55.71875 40.765625 55.71875 27.296875 
Q 55.71875 13.875 49.015625 6.21875 
Q 42.328125 -1.421875 30.609375 -1.421875 
Q 18.84375 -1.421875 12.171875 6.21875 
Q 5.515625 13.875 5.515625 27.296875 
Q 5.515625 40.765625 12.171875 48.375 
Q 18.84375 56 30.609375 56 
z
M 27 79.984375 
L 34.234375 79.984375 
L 46.1875 61.625 
L 39.40625 61.625 
L 30.609375 73.578125 
L 21.828125 61.625 
L 15.046875 61.625 
z
" id="DejaVuSans-244"/>
      <path d="M 31 75.875 
Q 24.46875 64.65625 21.28125 53.65625 
Q 18.109375 42.671875 18.109375 31.390625 
Q 18.109375 20.125 21.3125 9.0625 
Q 24.515625 -2 31 -13.1875 
L 23.1875 -13.1875 
Q 15.875 -1.703125 12.234375 9.375 
Q 8.59375 20.453125 8.59375 31.390625 
Q 8.59375 42.28125 12.203125 53.3125 
Q 15.828125 64.359375 23.1875 75.875 
z
" id="DejaVuSans-40"/>
      <path d="M 9.8125 72.90625 
L 19.671875 72.90625 
L 19.671875 43.015625 
L 55.515625 43.015625 
L 55.515625 72.90625 
L 65.375 72.90625 
L 65.375 0 
L 55.515625 0 
L 55.515625 34.71875 
L 19.671875 34.71875 
L 19.671875 0 
L 9.8125 0 
z
" id="DejaVuSans-72"/>
      <path d="M 5.515625 54.6875 
L 48.1875 54.6875 
L 48.1875 46.484375 
L 14.40625 7.171875 
L 48.1875 7.171875 
L 48.1875 0 
L 4.296875 0 
L 4.296875 8.203125 
L 38.09375 47.515625 
L 5.515625 47.515625 
z
" id="DejaVuSans-122"/>
      <path d="M 8.015625 75.875 
L 15.828125 75.875 
Q 23.140625 64.359375 26.78125 53.3125 
Q 30.421875 42.28125 30.421875 31.390625 
Q 30.421875 20.453125 26.78125 9.375 
Q 23.140625 -1.703125 15.828125 -13.1875 
L 8.015625 -13.1875 
Q 14.5 -2 17.703125 9.0625 
Q 20.90625 20.125 20.90625 31.390625 
Q 20.90625 42.671875 17.703125 53.65625 
Q 14.5 64.65625 8.015625 75.875 
z
" id="DejaVuSans-41"/>
     </defs>
     <g transform="translate(134.037344 336.260562)scale(0.1 -0.1)">
      <use xlink:href="#DejaVuSans-70"/>
      <use x="57.410156" xlink:href="#DejaVuSans-114"/>
      <use x="98.492188" xlink:href="#DejaVuSans-101"/>
      <use x="160.015625" xlink:href="#DejaVuSans-113"/>
      <use x="223.492188" xlink:href="#DejaVuSans-117"/>
      <use x="286.871094" xlink:href="#DejaVuSans-234"/>
      <use x="348.394531" xlink:href="#DejaVuSans-110"/>
      <use x="411.773438" xlink:href="#DejaVuSans-99"/>
      <use x="466.753906" xlink:href="#DejaVuSans-105"/>
      <use x="494.537109" xlink:href="#DejaVuSans-97"/>
      <use x="555.816406" xlink:href="#DejaVuSans-32"/>
      <use x="587.603516" xlink:href="#DejaVuSans-100"/>
      <use x="651.080078" xlink:href="#DejaVuSans-111"/>
      <use x="712.261719" xlink:href="#DejaVuSans-32"/>
      <use x="744.048828" xlink:href="#DejaVuSans-101"/>
      <use x="805.572266" xlink:href="#DejaVuSans-115"/>
      <use x="857.671875" xlink:href="#DejaVuSans-116"/>
      <use x="896.880859" xlink:href="#DejaVuSans-237"/>
      <use x="924.664062" xlink:href="#DejaVuSans-109"/>
      <use x="1022.076172" xlink:href="#DejaVuSans-117"/>
      <use x="1085.455078" xlink:href="#DejaVuSans-108"/>
      <use x="1113.238281" xlink:href="#DejaVuSans-111"/>
      <use x="1174.419922" xlink:href="#DejaVuSans-32"/>
      <use x="1206.207031" xlink:href="#DejaVuSans-97"/>
      <use x="1267.486328" xlink:href="#DejaVuSans-110"/>
      <use x="1330.865234" xlink:href="#DejaVuSans-116"/>
      <use x="1370.074219" xlink:href="#DejaVuSans-105"/>
      <use x="1397.857422" xlink:href="#DejaVuSans-100"/>
      <use x="1461.333984" xlink:href="#DejaVuSans-114"/>
      <use x="1502.416016" xlink:href="#DejaVuSans-244"/>
      <use x="1563.597656" xlink:href="#DejaVuSans-109"/>
      <use x="1661.009766" xlink:href="#DejaVuSans-105"/>
      <use x="1688.792969" xlink:href="#DejaVuSans-99"/>
      <use x="1743.773438" xlink:href="#DejaVuSans-111"/>
      <use x="1804.955078" xlink:href="#DejaVuSans-32"/>
      <use x="1836.742188" xlink:href="#DejaVuSans-40"/>
      <use x="1875.755859" xlink:href="#DejaVuSans-72"/>
      <use x="1950.951172" xlink:href="#DejaVuSans-122"/>
      <use x="2003.441406" xlink:href="#DejaVuSans-41"/>
     </g>
    </g>
   </g>
   <g id="matplotlib.axis_2">
    <g id="ytick_1">
     <g id="line2d_9">
      <defs>
       <path d="M 0 0 
L -3.5 0 
" id="m3d55da1a3a" style="stroke:#000000;stroke-width:0.8;"/>
      </defs>
      <g>
       <use style="stroke:#000000;stroke-width:0.8;" x="57.6" xlink:href="#m3d55da1a3a" y="295.488"/>
      </g>
     </g>
     <g id="text_10">
      <!-- 0 -->
      <g transform="translate(44.2375 299.287219)scale(0.1 -0.1)">
       <use xlink:href="#DejaVuSans-48"/>
      </g>
     </g>
    </g>
    <g id="ytick_2">
     <g id="line2d_10">
      <g>
       <use style="stroke:#000000;stroke-width:0.8;" x="57.6" xlink:href="#m3d55da1a3a" y="253.128977"/>
      </g>
     </g>
     <g id="text_11">
      <!-- 50 -->
      <g transform="translate(37.875 256.928196)scale(0.1 -0.1)">
       <use xlink:href="#DejaVuSans-53"/>
       <use x="63.623047" xlink:href="#DejaVuSans-48"/>
      </g>
     </g>
    </g>
    <g id="ytick_3">
     <g id="line2d_11">
      <g>
       <use style="stroke:#000000;stroke-width:0.8;" x="57.6" xlink:href="#m3d55da1a3a" y="210.769954"/>
      </g>
     </g>
     <g id="text_12">
      <!-- 100 -->
      <g transform="translate(31.5125 214.569172)scale(0.1 -0.1)">
       <use xlink:href="#DejaVuSans-49"/>
       <use x="63.623047" xlink:href="#DejaVuSans-48"/>
       <use x="127.246094" xlink:href="#DejaVuSans-48"/>
      </g>
     </g>
    </g>
    <g id="ytick_4">
     <g id="line2d_12">
      <g>
       <use style="stroke:#000000;stroke-width:0.8;" x="57.6" xlink:href="#m3d55da1a3a" y="168.41093"/>
      </g>
     </g>
     <g id="text_13">
      <!-- 150 -->
      <g transform="translate(31.5125 172.210149)scale(0.1 -0.1)">
       <use xlink:href="#DejaVuSans-49"/>
       <use x="63.623047" xlink:href="#DejaVuSans-53"/>
       <use x="127.246094" xlink:href="#DejaVuSans-48"/>
      </g>
     </g>
    </g>
    <g id="ytick_5">
     <g id="line2d_13">
      <g>
       <use style="stroke:#000000;stroke-width:0.8;" x="57.6" xlink:href="#m3d55da1a3a" y="126.051907"/>
      </g>
     </g>
     <g id="text_14">
      <!-- 200 -->
      <g transform="translate(31.5125 129.851126)scale(0.1 -0.1)">
       <use xlink:href="#DejaVuSans-50"/>
       <use x="63.623047" xlink:href="#DejaVuSans-48"/>
       <use x="127.246094" xlink:href="#DejaVuSans-48"/>
      </g>
     </g>
    </g>
    <g id="ytick_6">
     <g id="line2d_14">
      <g>
       <use style="stroke:#000000;stroke-width:0.8;" x="57.6" xlink:href="#m3d55da1a3a" y="83.692884"/>
      </g>
     </g>
     <g id="text_15">
      <!-- 250 -->
      <g transform="translate(31.5125 87.492103)scale(0.1 -0.1)">
       <use xlink:href="#DejaVuSans-50"/>
       <use x="63.623047" xlink:href="#DejaVuSans-53"/>
       <use x="127.246094" xlink:href="#DejaVuSans-48"/>
      </g>
     </g>
    </g>
    <g id="ytick_7">
     <g id="line2d_15">
      <g>
       <use style="stroke:#000000;stroke-width:0.8;" x="57.6" xlink:href="#m3d55da1a3a" y="41.333861"/>
      </g>
     </g>
     <g id="text_16">
      <!-- 300 -->
      <g transform="translate(31.5125 45.133079)scale(0.1 -0.1)">
       <use xlink:href="#DejaVuSans-51"/>
       <use x="63.623047" xlink:href="#DejaVuSans-48"/>
       <use x="127.246094" xlink:href="#DejaVuSans-48"/>
      </g>
     </g>
    </g>
    <g id="text_17">
     <!-- Taxa de disparo da CR (pps) -->
     <defs>
      <path d="M -0.296875 72.90625 
L 61.375 72.90625 
L 61.375 64.59375 
L 35.5 64.59375 
L 35.5 0 
L 25.59375 0 
L 25.59375 64.59375 
L -0.296875 64.59375 
z
" id="DejaVuSans-84"/>
      <path d="M 54.890625 54.6875 
L 35.109375 28.078125 
L 55.90625 0 
L 45.3125 0 
L 29.390625 21.484375 
L 13.484375 0 
L 2.875 0 
L 24.125 28.609375 
L 4.6875 54.6875 
L 15.28125 54.6875 
L 29.78125 35.203125 
L 44.28125 54.6875 
z
" id="DejaVuSans-120"/>
      <path d="M 18.109375 8.203125 
L 18.109375 -20.796875 
L 9.078125 -20.796875 
L 9.078125 54.6875 
L 18.109375 54.6875 
L 18.109375 46.390625 
Q 20.953125 51.265625 25.265625 53.625 
Q 29.59375 56 35.59375 56 
Q 45.5625 56 51.78125 48.09375 
Q 58.015625 40.1875 58.015625 27.296875 
Q 58.015625 14.40625 51.78125 6.484375 
Q 45.5625 -1.421875 35.59375 -1.421875 
Q 29.59375 -1.421875 25.265625 0.953125 
Q 20.953125 3.328125 18.109375 8.203125 
z
M 48.6875 27.296875 
Q 48.6875 37.203125 44.609375 42.84375 
Q 40.53125 48.484375 33.40625 48.484375 
Q 26.265625 48.484375 22.1875 42.84375 
Q 18.109375 37.203125 18.109375 27.296875 
Q 18.109375 17.390625 22.1875 11.75 
Q 26.265625 6.109375 33.40625 6.109375 
Q 40.53125 6.109375 44.609375 11.75 
Q 48.6875 17.390625 48.6875 27.296875 
z
" id="DejaVuSans-112"/>
      <path d="M 64.40625 67.28125 
L 64.40625 56.890625 
Q 59.421875 61.53125 53.78125 63.8125 
Q 48.140625 66.109375 41.796875 66.109375 
Q 29.296875 66.109375 22.65625 58.46875 
Q 16.015625 50.828125 16.015625 36.375 
Q 16.015625 21.96875 22.65625 14.328125 
Q 29.296875 6.6875 41.796875 6.6875 
Q 48.140625 6.6875 53.78125 8.984375 
Q 59.421875 11.28125 64.40625 15.921875 
L 64.40625 5.609375 
Q 59.234375 2.09375 53.4375 0.328125 
Q 47.65625 -1.421875 41.21875 -1.421875 
Q 24.65625 -1.421875 15.125 8.703125 
Q 5.609375 18.84375 5.609375 36.375 
Q 5.609375 53.953125 15.125 64.078125 
Q 24.65625 74.21875 41.21875 74.21875 
Q 47.75 74.21875 53.53125 72.484375 
Q 59.328125 70.75 64.40625 67.28125 
z
" id="DejaVuSans-67"/>
      <path d="M 44.390625 34.1875 
Q 47.5625 33.109375 50.5625 29.59375 
Q 53.5625 26.078125 56.59375 19.921875 
L 66.609375 0 
L 56 0 
L 46.6875 18.703125 
Q 43.0625 26.03125 39.671875 28.421875 
Q 36.28125 30.8125 30.421875 30.8125 
L 19.671875 30.8125 
L 19.671875 0 
L 9.8125 0 
L 9.8125 72.90625 
L 32.078125 72.90625 
Q 44.578125 72.90625 50.734375 67.671875 
Q 56.890625 62.453125 56.890625 51.90625 
Q 56.890625 45.015625 53.6875 40.46875 
Q 50.484375 35.9375 44.390625 34.1875 
z
M 19.671875 64.796875 
L 19.671875 38.921875 
L 32.078125 38.921875 
Q 39.203125 38.921875 42.84375 42.21875 
Q 46.484375 45.515625 46.484375 51.90625 
Q 46.484375 58.296875 42.84375 61.546875 
Q 39.203125 64.796875 32.078125 64.796875 
z
" id="DejaVuSans-82"/>
     </defs>
     <g transform="translate(25.432812 245.431125)rotate(-90)scale(0.1 -0.1)">
      <use xlink:href="#DejaVuSans-84"/>
      <use x="60.833984" xlink:href="#DejaVuSans-97"/>
      <use x="122.113281" xlink:href="#DejaVuSans-120"/>
      <use x="181.292969" xlink:href="#DejaVuSans-97"/>
      <use x="242.572266" xlink:href="#DejaVuSans-32"/>
      <use x="274.359375" xlink:href="#DejaVuSans-100"/>
      <use x="337.835938" xlink:href="#DejaVuSans-101"/>
      <use x="399.359375" xlink:href="#DejaVuSans-32"/>
      <use x="431.146484" xlink:href="#DejaVuSans-100"/>
      <use x="494.623047" xlink:href="#DejaVuSans-105"/>
      <use x="522.40625" xlink:href="#DejaVuSans-115"/>
      <use x="574.505859" xlink:href="#DejaVuSans-112"/>
      <use x="637.982422" xlink:href="#DejaVuSans-97"/>
      <use x="699.261719" xlink:href="#DejaVuSans-114"/>
      <use x="740.34375" xlink:href="#DejaVuSans-111"/>
      <use x="801.525391" xlink:href="#DejaVuSans-32"/>
      <use x="833.3125" xlink:href="#DejaVuSans-100"/>
      <use x="896.789062" xlink:href="#DejaVuSans-97"/>
      <use x="958.068359" xlink:href="#DejaVuSans-32"/>
      <use x="989.855469" xlink:href="#DejaVuSans-67"/>
      <use x="1059.679688" xlink:href="#DejaVuSans-82"/>
      <use x="1129.162109" xlink:href="#DejaVuSans-32"/>
      <use x="1160.949219" xlink:href="#DejaVuSans-40"/>
      <use x="1199.962891" xlink:href="#DejaVuSans-112"/>
      <use x="1263.439453" xlink:href="#DejaVuSans-112"/>
      <use x="1326.916016" xlink:href="#DejaVuSans-115"/>
      <use x="1379.015625" xlink:href="#DejaVuSans-41"/>
     </g>
    </g>
   </g>
   <g id="line2d_16">
    <path clip-path="url(#p3b1498e9b3)" d="M 73.832727 295.488 
L 77.112066 288.303949 
L 80.391405 281.412485 
L 83.670744 274.796091 
L 86.950083 268.438619 
L 90.229421 262.325163 
L 93.50876 256.441939 
L 96.788099 250.77618 
L 100.067438 245.316049 
L 103.346777 240.05055 
L 106.626116 234.969459 
L 109.905455 230.063255 
L 113.184793 225.323062 
L 116.464132 220.740594 
L 119.743471 216.308108 
L 123.02281 212.018358 
L 126.302149 207.86456 
L 129.581488 203.840351 
L 132.860826 199.93976 
L 136.140165 196.157178 
L 139.419504 192.487328 
L 142.698843 188.925246 
L 145.978182 185.466252 
L 149.257521 182.105936 
L 152.53686 178.840134 
L 155.816198 175.664914 
L 159.095537 172.576558 
L 162.374876 169.571552 
L 165.654215 166.646564 
L 168.933554 163.798442 
L 172.212893 161.024194 
L 175.492231 158.320983 
L 178.77157 155.686115 
L 182.050909 153.117031 
L 185.330248 150.611298 
L 188.609587 148.1666 
L 191.888926 145.780734 
L 195.168264 143.451603 
L 198.447603 141.177205 
L 201.726942 138.955635 
L 205.006281 136.785073 
L 208.28562 134.663781 
L 211.564959 132.590102 
L 214.844298 130.56245 
L 218.123636 128.579309 
L 221.402975 126.63923 
L 224.682314 124.740825 
L 227.961653 122.882766 
L 231.240992 121.06378 
L 234.520331 119.282647 
L 237.799669 117.538197 
L 241.079008 115.82931 
L 244.358347 114.154909 
L 247.637686 112.51396 
L 250.917025 110.905471 
L 254.196364 109.328487 
L 257.475702 107.782093 
L 260.755041 106.265406 
L 264.03438 104.77758 
L 267.313719 103.317797 
L 270.593058 101.885272 
L 273.872397 100.47925 
L 277.151736 99.099001 
L 280.431074 97.743822 
L 283.710413 96.413038 
L 286.989752 95.105995 
L 290.269091 93.822064 
L 293.54843 92.560637 
L 296.827769 91.321127 
L 300.107107 90.102969 
L 303.386446 88.905614 
L 306.665785 87.728536 
L 309.945124 86.571222 
L 313.224463 85.43318 
L 316.503802 84.313931 
L 319.78314 83.213015 
L 323.062479 82.129985 
L 326.341818 81.064407 
L 329.621157 80.015865 
L 332.900496 78.983951 
L 336.179835 77.968275 
L 339.459174 76.968455 
L 342.738512 75.984124 
L 346.017851 75.014923 
L 349.29719 74.060508 
L 352.576529 73.120541 
L 355.855868 72.194698 
L 359.135207 71.282663 
L 362.414545 70.384128 
L 365.693884 69.498797 
L 368.973223 68.62638 
L 372.252562 67.766598 
L 375.531901 66.919176 
L 378.81124 66.083852 
L 382.090579 65.260367 
L 385.369917 64.448471 
L 388.649256 63.647923 
L 391.928595 62.858484 
L 395.207934 62.079927 
L 398.487273 61.312027 
" style="fill:none;stroke:#1f77b4;stroke-linecap:square;stroke-width:1.5;"/>
   </g>
   <g id="line2d_17">
    <path clip-path="url(#p3b1498e9b3)" d="M 73.832727 295.488 
L 77.112066 289.116306 
L 80.391405 282.987807 
L 83.670744 277.088839 
L 86.950083 271.406745 
L 90.229421 265.929781 
L 93.50876 260.647035 
L 96.788099 255.548357 
L 100.067438 250.624291 
L 103.346777 245.866018 
L 106.626116 241.265304 
L 109.905455 236.814451 
L 113.184793 232.506253 
L 116.464132 228.33396 
L 119.743471 224.291241 
L 123.02281 220.372153 
L 126.302149 216.571109 
L 129.581488 212.882856 
L 132.860826 209.302447 
L 136.140165 205.825219 
L 139.419504 202.446777 
L 142.698843 199.162968 
L 145.978182 195.969873 
L 149.257521 192.863782 
L 152.53686 189.841189 
L 155.816198 186.898771 
L 159.095537 184.033379 
L 162.374876 181.242028 
L 165.654215 178.521885 
L 168.933554 175.87026 
L 172.212893 173.284596 
L 175.492231 170.762461 
L 178.77157 168.301543 
L 182.050909 165.89964 
L 185.330248 163.554654 
L 188.609587 161.264585 
L 191.888926 159.027528 
L 195.168264 156.841662 
L 198.447603 154.705249 
L 201.726942 152.616631 
L 205.006281 150.574222 
L 208.28562 148.576504 
L 211.564959 146.622027 
L 214.844298 144.709401 
L 218.123636 142.837298 
L 221.402975 141.004441 
L 224.682314 139.209611 
L 227.961653 137.451636 
L 231.240992 135.729391 
L 234.520331 134.0418 
L 237.799669 132.387826 
L 241.079008 130.766474 
L 244.358347 129.17679 
L 247.637686 127.617854 
L 250.917025 126.088783 
L 254.196364 124.588726 
L 257.475702 123.116865 
L 260.755041 121.672414 
L 264.03438 120.254613 
L 267.313719 118.862732 
L 270.593058 117.496066 
L 273.872397 116.153936 
L 277.151736 114.835687 
L 280.431074 113.540688 
L 283.710413 112.268329 
L 286.989752 111.018021 
L 290.269091 109.789196 
L 293.54843 108.581305 
L 296.827769 107.393817 
L 300.107107 106.226221 
L 303.386446 105.078019 
L 306.665785 103.948734 
L 309.945124 102.837901 
L 313.224463 101.745072 
L 316.503802 100.669812 
L 319.78314 99.611702 
L 323.062479 98.570334 
L 326.341818 97.545314 
L 329.621157 96.53626 
L 332.900496 95.542802 
L 336.179835 94.564581 
L 339.459174 93.601249 
L 342.738512 92.652469 
L 346.017851 91.717913 
L 349.29719 90.797265 
L 352.576529 89.890216 
L 355.855868 88.996466 
L 359.135207 88.115726 
L 362.414545 87.247713 
L 365.693884 86.392154 
L 368.973223 85.548783 
L 372.252562 84.71734 
L 375.531901 83.897575 
L 378.81124 83.089243 
L 382.090579 82.292106 
L 385.369917 81.505935 
L 388.649256 80.730503 
L 391.928595 79.965594 
L 395.207934 79.210992 
L 398.487273 78.466493 
" style="fill:none;stroke:#ff7f0e;stroke-linecap:square;stroke-width:1.5;"/>
   </g>
   <g id="line2d_18">
    <path clip-path="url(#p3b1498e9b3)" d="M 73.832727 295.488 
L 77.112066 288.208246 
L 80.391405 281.219472 
L 83.670744 274.504572 
L 86.950083 268.047759 
L 90.229421 261.834432 
L 93.50876 255.851073 
L 96.788099 250.085149 
L 100.067438 244.525017 
L 103.346777 239.159853 
L 106.626116 233.97958 
L 109.905455 228.974801 
L 113.184793 224.136747 
L 116.464132 219.457224 
L 119.743471 214.928566 
L 123.02281 210.543591 
L 126.302149 206.29557 
L 129.581488 202.178183 
L 132.860826 198.185498 
L 136.140165 194.311933 
L 139.419504 190.552236 
L 142.698843 186.901458 
L 145.978182 183.354934 
L 149.257521 179.908262 
L 152.53686 176.557282 
L 155.816198 173.298064 
L 159.095537 170.12689 
L 162.374876 167.04024 
L 165.654215 164.034778 
L 168.933554 161.107344 
L 172.212893 158.254938 
L 175.492231 155.474711 
L 178.77157 152.763958 
L 182.050909 150.120108 
L 185.330248 147.540713 
L 188.609587 145.023446 
L 191.888926 142.566087 
L 195.168264 140.166524 
L 198.447603 137.822741 
L 201.726942 135.532816 
L 205.006281 133.294913 
L 208.28562 131.10728 
L 211.564959 128.968241 
L 214.844298 126.876196 
L 218.123636 124.829611 
L 221.402975 122.827022 
L 224.682314 120.867025 
L 227.961653 118.948276 
L 231.240992 117.069485 
L 234.520331 115.229417 
L 237.799669 113.426889 
L 241.079008 111.660761 
L 244.358347 109.929944 
L 247.637686 108.233387 
L 250.917025 106.570085 
L 254.196364 104.939068 
L 257.475702 103.339407 
L 260.755041 101.770204 
L 264.03438 100.230599 
L 267.313719 98.719762 
L 270.593058 97.236894 
L 273.872397 95.781225 
L 277.151736 94.352015 
L 280.431074 92.948547 
L 283.710413 91.570134 
L 286.989752 90.216109 
L 290.269091 88.885832 
L 293.54843 87.578682 
L 296.827769 86.294063 
L 300.107107 85.031396 
L 303.386446 83.790123 
L 306.665785 82.569706 
L 309.945124 81.369623 
L 313.224463 80.189371 
L 316.503802 79.028461 
L 319.78314 77.886422 
L 323.062479 76.762797 
L 326.341818 75.657146 
L 329.621157 74.569039 
L 332.900496 73.498063 
L 336.179835 72.443816 
L 339.459174 71.40591 
L 342.738512 70.383967 
L 346.017851 69.377621 
L 349.29719 68.38652 
L 352.576529 67.410318 
L 355.855868 66.448682 
L 359.135207 65.501289 
L 362.414545 64.567824 
L 365.693884 63.647983 
L 368.973223 62.74147 
L 372.252562 61.847996 
L 375.531901 60.967283 
L 378.81124 60.09906 
L 382.090579 59.243061 
L 385.369917 58.399032 
L 388.649256 57.566722 
L 391.928595 56.74589 
L 395.207934 55.936299 
L 398.487273 55.13772 
" style="fill:none;stroke:#2ca02c;stroke-linecap:square;stroke-width:1.5;"/>
   </g>
   <g id="line2d_19">
    <path clip-path="url(#p3b1498e9b3)" d="M 73.832727 295.488 
L 77.112066 288.208068 
L 80.391405 281.217652 
L 83.670744 274.499818 
L 86.950083 268.038927 
L 90.229421 261.820514 
L 93.50876 255.831181 
L 96.788099 250.058497 
L 100.067438 244.490917 
L 103.346777 239.117701 
L 106.626116 233.928844 
L 109.905455 228.91502 
L 113.184793 224.067518 
L 116.464132 219.378197 
L 119.743471 214.839439 
L 123.02281 210.444108 
L 126.302149 206.18551 
L 129.581488 202.057363 
L 132.860826 198.053764 
L 136.140165 194.169159 
L 139.419504 190.398321 
L 142.698843 186.736325 
L 145.978182 183.178525 
L 149.257521 179.720536 
L 152.53686 176.358217 
L 155.816198 173.087651 
L 159.095537 169.905133 
L 162.374876 166.807154 
L 165.654215 163.790392 
L 168.933554 160.851692 
L 172.212893 157.988064 
L 175.492231 155.196667 
L 178.77157 152.474803 
L 182.050909 149.819905 
L 185.330248 147.229532 
L 188.609587 144.701361 
L 191.888926 142.233176 
L 195.168264 139.822869 
L 198.447603 137.468426 
L 201.726942 135.167929 
L 205.006281 132.919543 
L 208.28562 130.721519 
L 211.564959 128.572183 
L 214.844298 126.469934 
L 218.123636 124.413243 
L 221.402975 122.400644 
L 224.682314 120.430735 
L 227.961653 118.50217 
L 231.240992 116.613663 
L 234.520331 114.763978 
L 237.799669 112.951931 
L 241.079008 111.176383 
L 244.358347 109.436243 
L 247.637686 107.730463 
L 250.917025 106.058034 
L 254.196364 104.417988 
L 257.475702 102.809394 
L 260.755041 101.231355 
L 264.03438 99.68301 
L 267.313719 98.163527 
L 270.593058 96.672107 
L 273.872397 95.207979 
L 277.151736 93.770403 
L 280.431074 92.35866 
L 283.710413 90.972063 
L 286.989752 89.609944 
L 290.269091 88.271661 
L 293.54843 86.956594 
L 296.827769 85.664144 
L 300.107107 84.393732 
L 303.386446 83.1448 
L 306.665785 81.916807 
L 309.945124 80.709232 
L 313.224463 79.521568 
L 316.503802 78.353328 
L 319.78314 77.204039 
L 323.062479 76.073244 
L 326.341818 74.9605 
L 329.621157 73.865377 
L 332.900496 72.787461 
L 336.179835 71.72635 
L 339.459174 70.681653 
L 342.738512 69.652992 
L 346.017851 68.640002 
L 349.29719 67.642326 
L 352.576529 66.659619 
L 355.855868 65.691549 
L 359.135207 64.737789 
L 362.414545 63.798026 
L 365.693884 62.871953 
L 368.973223 61.959272 
L 372.252562 61.059697 
L 375.531901 60.172946 
L 378.81124 59.298747 
L 382.090579 58.436836 
L 385.369917 57.586955 
L 388.649256 56.748854 
L 391.928595 55.92229 
L 395.207934 55.107026 
L 398.487273 54.302832 
" style="fill:none;stroke:#d62728;stroke-linecap:square;stroke-width:1.5;"/>
   </g>
   <g id="line2d_20">
    <path clip-path="url(#p3b1498e9b3)" d="M 73.832727 295.488 
L 77.112066 288.208068 
L 80.391405 281.217652 
L 83.670744 274.499818 
L 86.950083 268.038927 
L 90.229421 261.820514 
L 93.50876 255.831181 
L 96.788099 250.058497 
L 100.067438 244.490917 
L 103.346777 239.117701 
L 106.626116 233.928844 
L 109.905455 228.91502 
L 113.184793 224.067518 
L 116.464132 219.378197 
L 119.743471 214.839439 
L 123.02281 210.444108 
L 126.302149 206.18551 
L 129.581488 202.057363 
L 132.860826 198.053764 
L 136.140165 194.169159 
L 139.419504 190.398321 
L 142.698843 186.736325 
L 145.978182 183.178525 
L 149.257521 179.720536 
L 152.53686 176.358217 
L 155.816198 173.087651 
L 159.095537 169.905133 
L 162.374876 166.807154 
L 165.654215 163.790392 
L 168.933554 160.851692 
L 172.212893 157.988064 
L 175.492231 155.196667 
L 178.77157 152.474803 
L 182.050909 149.819905 
L 185.330248 147.229532 
L 188.609587 144.701361 
L 191.888926 142.233176 
L 195.168264 139.822869 
L 198.447603 137.468426 
L 201.726942 135.167929 
L 205.006281 132.919543 
L 208.28562 130.721519 
L 211.564959 128.572183 
L 214.844298 126.469934 
L 218.123636 124.413243 
L 221.402975 122.400644 
L 224.682314 120.430735 
L 227.961653 118.50217 
L 231.240992 116.613663 
L 234.520331 114.763978 
L 237.799669 112.951931 
L 241.079008 111.176383 
L 244.358347 109.436243 
L 247.637686 107.730463 
L 250.917025 106.058034 
L 254.196364 104.417988 
L 257.475702 102.809394 
L 260.755041 101.231355 
L 264.03438 99.68301 
L 267.313719 98.163527 
L 270.593058 96.672107 
L 273.872397 95.207979 
L 277.151736 93.770403 
L 280.431074 92.35866 
L 283.710413 90.972063 
L 286.989752 89.609944 
L 290.269091 88.271661 
L 293.54843 86.956594 
L 296.827769 85.664144 
L 300.107107 84.393732 
L 303.386446 83.1448 
L 306.665785 81.916807 
L 309.945124 80.709232 
L 313.224463 79.521568 
L 316.503802 78.353328 
L 319.78314 77.204039 
L 323.062479 76.073244 
L 326.341818 74.9605 
L 329.621157 73.865377 
L 332.900496 72.787461 
L 336.179835 71.72635 
L 339.459174 70.681653 
L 342.738512 69.652992 
L 346.017851 68.640002 
L 349.29719 67.642326 
L 352.576529 66.659619 
L 355.855868 65.691549 
L 359.135207 64.737789 
L 362.414545 63.798026 
L 365.693884 62.871953 
L 368.973223 61.959272 
L 372.252562 61.059697 
L 375.531901 60.172946 
L 378.81124 59.298747 
L 382.090579 58.436836 
L 385.369917 57.586955 
L 388.649256 56.748854 
L 391.928595 55.92229 
L 395.207934 55.107026 
L 398.487273 54.302832 
" style="fill:none;stroke:#9467bd;stroke-linecap:square;stroke-width:1.5;"/>
   </g>
   <g id="line2d_21">
    <path clip-path="url(#p3b1498e9b3)" d="M 73.832727 295.488 
L 77.112066 290.475711 
L 80.391405 285.640469 
L 83.670744 280.973054 
L 86.950083 276.464879 
L 90.229421 272.10793 
L 93.50876 267.894725 
L 96.788099 263.818264 
L 100.067438 259.871998 
L 103.346777 256.049786 
L 106.626116 252.345869 
L 109.905455 248.754841 
L 113.184793 245.271616 
L 116.464132 241.891413 
L 119.743471 238.609727 
L 123.02281 235.422314 
L 126.302149 232.325168 
L 129.581488 229.314509 
L 132.860826 226.386763 
L 136.140165 223.538553 
L 139.419504 220.766681 
L 142.698843 218.068118 
L 145.978182 215.439994 
L 149.257521 212.879586 
L 152.53686 210.384311 
L 155.816198 207.951714 
L 159.095537 205.579464 
L 162.374876 203.265342 
L 165.654215 201.007237 
L 168.933554 198.80314 
L 172.212893 196.651136 
L 175.492231 194.549401 
L 178.77157 192.496192 
L 182.050909 190.489848 
L 185.330248 188.528784 
L 188.609587 186.611483 
L 191.888926 184.736497 
L 195.168264 182.902439 
L 198.447603 181.107985 
L 201.726942 179.351865 
L 205.006281 177.632864 
L 208.28562 175.949817 
L 211.564959 174.301609 
L 214.844298 172.687168 
L 218.123636 171.105466 
L 221.402975 169.55552 
L 224.682314 168.03638 
L 227.961653 166.547139 
L 231.240992 165.086922 
L 234.520331 163.654888 
L 237.799669 162.25023 
L 241.079008 160.87217 
L 244.358347 159.519959 
L 247.637686 158.192878 
L 250.917025 156.890232 
L 254.196364 155.611351 
L 257.475702 154.355593 
L 260.755041 153.122335 
L 264.03438 151.910978 
L 267.313719 150.720943 
L 270.593058 149.551674 
L 273.872397 148.40263 
L 277.151736 147.273291 
L 280.431074 146.163156 
L 283.710413 145.071738 
L 286.989752 143.998567 
L 290.269091 142.943191 
L 293.54843 141.90517 
L 296.827769 140.884079 
L 300.107107 139.879508 
L 303.386446 138.891059 
L 306.665785 137.918347 
L 309.945124 136.960999 
L 313.224463 136.018654 
L 316.503802 135.090962 
L 319.78314 134.177584 
L 323.062479 133.278191 
L 326.341818 132.392464 
L 329.621157 131.520095 
L 332.900496 130.660783 
L 336.179835 129.814237 
L 339.459174 128.980175 
L 342.738512 128.158323 
L 346.017851 127.348415 
L 349.29719 126.550192 
L 352.576529 125.763403 
L 355.855868 124.987804 
L 359.135207 124.223159 
L 362.414545 123.469236 
L 365.693884 122.725811 
L 368.973223 121.992668 
L 372.252562 121.269594 
L 375.531901 120.556383 
L 378.81124 119.852835 
L 382.090579 119.158755 
L 385.369917 118.473952 
L 388.649256 117.798242 
L 391.928595 117.131446 
L 395.207934 116.473387 
L 398.487273 115.823896 
" style="fill:none;stroke:#8c564b;stroke-linecap:square;stroke-width:1.5;"/>
   </g>
   <g id="line2d_22">
    <path clip-path="url(#p3b1498e9b3)" d="M 73.832727 295.488 
L 77.112066 288.208068 
L 80.391405 281.217652 
L 83.670744 274.499818 
L 86.950083 268.038927 
L 90.229421 261.820514 
L 93.50876 255.831181 
L 96.788099 250.058497 
L 100.067438 244.490917 
L 103.346777 239.117701 
L 106.626116 233.928844 
L 109.905455 228.91502 
L 113.184793 224.067518 
L 116.464132 219.378197 
L 119.743471 214.839439 
L 123.02281 210.444108 
L 126.302149 206.18551 
L 129.581488 202.057363 
L 132.860826 198.053764 
L 136.140165 194.169159 
L 139.419504 190.398321 
L 142.698843 186.736325 
L 145.978182 183.178525 
L 149.257521 179.720536 
L 152.53686 176.358217 
L 155.816198 173.087651 
L 159.095537 169.905133 
L 162.374876 166.807154 
L 165.654215 163.790392 
L 168.933554 160.851692 
L 172.212893 157.988064 
L 175.492231 155.196667 
L 178.77157 152.474803 
L 182.050909 149.819905 
L 185.330248 147.229532 
L 188.609587 144.701361 
L 191.888926 142.233176 
L 195.168264 139.822869 
L 198.447603 137.468426 
L 201.726942 135.167929 
L 205.006281 132.919543 
L 208.28562 130.721519 
L 211.564959 128.572183 
L 214.844298 126.469934 
L 218.123636 124.413243 
L 221.402975 122.400644 
L 224.682314 120.430735 
L 227.961653 118.50217 
L 231.240992 116.613663 
L 234.520331 114.763978 
L 237.799669 112.951931 
L 241.079008 111.176383 
L 244.358347 109.436243 
L 247.637686 107.730463 
L 250.917025 106.058034 
L 254.196364 104.417988 
L 257.475702 102.809394 
L 260.755041 101.231355 
L 264.03438 99.68301 
L 267.313719 98.163527 
L 270.593058 96.672107 
L 273.872397 95.207979 
L 277.151736 93.770403 
L 280.431074 92.35866 
L 283.710413 90.972063 
L 286.989752 89.609944 
L 290.269091 88.271661 
L 293.54843 86.956594 
L 296.827769 85.664144 
L 300.107107 84.393732 
L 303.386446 83.1448 
L 306.665785 81.916807 
L 309.945124 80.709232 
L 313.224463 79.521568 
L 316.503802 78.353328 
L 319.78314 77.204039 
L 323.062479 76.073244 
L 326.341818 74.9605 
L 329.621157 73.865377 
L 332.900496 72.787461 
L 336.179835 71.72635 
L 339.459174 70.681653 
L 342.738512 69.652992 
L 346.017851 68.640002 
L 349.29719 67.642326 
L 352.576529 66.659619 
L 355.855868 65.691549 
L 359.135207 64.737789 
L 362.414545 63.798026 
L 365.693884 62.871953 
L 368.973223 61.959272 
L 372.252562 61.059697 
L 375.531901 60.172946 
L 378.81124 59.298747 
L 382.090579 58.436836 
L 385.369917 57.586955 
L 388.649256 56.748854 
L 391.928595 55.92229 
L 395.207934 55.107026 
L 398.487273 54.302832 
" style="fill:none;stroke:#e377c2;stroke-linecap:square;stroke-width:1.5;"/>
   </g>
   <g id="line2d_23">
    <path clip-path="url(#p3b1498e9b3)" d="M 73.832727 295.488 
L 77.112066 290.065286 
L 80.391405 284.849192 
L 83.670744 279.828129 
L 86.950083 274.991359 
L 90.229421 270.32892 
L 93.50876 265.831552 
L 96.788099 261.490642 
L 100.067438 257.298166 
L 103.346777 253.246636 
L 106.626116 249.329065 
L 109.905455 245.538915 
L 113.184793 241.870069 
L 116.464132 238.316796 
L 119.743471 234.87372 
L 123.02281 231.535792 
L 126.302149 228.298268 
L 129.581488 225.156686 
L 132.860826 222.106841 
L 136.140165 219.144776 
L 139.419504 216.266752 
L 142.698843 213.469244 
L 145.978182 210.74892 
L 149.257521 208.102628 
L 152.53686 205.527387 
L 155.816198 203.020374 
L 159.095537 200.578912 
L 162.374876 198.200464 
L 165.654215 195.882622 
L 168.933554 193.623097 
L 172.212893 191.419716 
L 175.492231 189.270414 
L 178.77157 187.173221 
L 182.050909 185.126267 
L 185.330248 183.127768 
L 188.609587 181.176022 
L 191.888926 179.269409 
L 195.168264 177.406381 
L 198.447603 175.58546 
L 201.726942 173.805235 
L 205.006281 172.064356 
L 208.28562 170.361533 
L 211.564959 168.695532 
L 214.844298 167.065171 
L 218.123636 165.469319 
L 221.402975 163.906892 
L 224.682314 162.376849 
L 227.961653 160.878196 
L 231.240992 159.409975 
L 234.520331 157.97127 
L 237.799669 156.561198 
L 241.079008 155.178913 
L 244.358347 153.823603 
L 247.637686 152.494485 
L 250.917025 151.190807 
L 254.196364 149.911845 
L 257.475702 148.656904 
L 260.755041 147.425313 
L 264.03438 146.216426 
L 267.313719 145.029622 
L 270.593058 143.864299 
L 273.872397 142.719882 
L 277.151736 141.595812 
L 280.431074 140.49155 
L 283.710413 139.406579 
L 286.989752 138.340397 
L 290.269091 137.29252 
L 293.54843 136.262481 
L 296.827769 135.249828 
L 300.107107 134.254124 
L 303.386446 133.274948 
L 306.665785 132.311892 
L 309.945124 131.36456 
L 313.224463 130.432571 
L 316.503802 129.515555 
L 319.78314 128.613154 
L 323.062479 127.725021 
L 326.341818 126.850821 
L 329.621157 125.990228 
L 332.900496 125.142927 
L 336.179835 124.308612 
L 339.459174 123.486988 
L 342.738512 122.677767 
L 346.017851 121.88067 
L 349.29719 121.095426 
L 352.576529 120.321773 
L 355.855868 119.559457 
L 359.135207 118.80823 
L 362.414545 118.067852 
L 365.693884 117.33809 
L 368.973223 116.618716 
L 372.252562 115.909511 
L 375.531901 115.21026 
L 378.81124 114.520755 
L 382.090579 113.840795 
L 385.369917 113.170182 
L 388.649256 112.508724 
L 391.928595 111.856236 
L 395.207934 111.212537 
L 398.487273 110.577449 
" style="fill:none;stroke:#7f7f7f;stroke-linecap:square;stroke-width:1.5;"/>
   </g>
   <g id="line2d_24">
    <path clip-path="url(#p3b1498e9b3)" d="M 73.832727 295.488 
L 77.112066 291.06376 
L 80.391405 286.778259 
L 83.670744 282.625072 
L 86.950083 278.598165 
L 90.229421 274.691863 
L 93.50876 270.900829 
L 96.788099 267.220034 
L 100.067438 263.644741 
L 103.346777 260.170475 
L 106.626116 256.793016 
L 109.905455 253.508372 
L 113.184793 250.31277 
L 116.464132 247.202637 
L 119.743471 244.17459 
L 123.02281 241.22542 
L 126.302149 238.352087 
L 129.581488 235.551701 
L 132.860826 232.821519 
L 136.140165 230.158935 
L 139.419504 227.561468 
L 142.698843 225.026759 
L 145.978182 222.55256 
L 149.257521 220.13673 
L 152.53686 217.777228 
L 155.816198 215.472106 
L 159.095537 213.219505 
L 162.374876 211.017652 
L 165.654215 208.86485 
L 168.933554 206.759477 
L 172.212893 204.699985 
L 175.492231 202.684889 
L 178.77157 200.712768 
L 182.050909 198.782263 
L 185.330248 196.892071 
L 188.609587 195.040941 
L 191.888926 193.227675 
L 195.168264 191.451123 
L 198.447603 189.710181 
L 201.726942 188.003789 
L 205.006281 186.330928 
L 208.28562 184.690621 
L 211.564959 183.081926 
L 214.844298 181.503937 
L 218.123636 179.955784 
L 221.402975 178.436629 
L 224.682314 176.945665 
L 227.961653 175.482113 
L 231.240992 174.045225 
L 234.520331 172.63428 
L 237.799669 171.248579 
L 241.079008 169.887453 
L 244.358347 168.550252 
L 247.637686 167.236353 
L 250.917025 165.94515 
L 254.196364 164.676061 
L 257.475702 163.428522 
L 260.755041 162.20199 
L 264.03438 160.995938 
L 267.313719 159.809857 
L 270.593058 158.643256 
L 273.872397 157.495658 
L 277.151736 156.366603 
L 280.431074 155.255645 
L 283.710413 154.162353 
L 286.989752 153.086308 
L 290.269091 152.027105 
L 293.54843 150.984352 
L 296.827769 149.957669 
L 300.107107 148.946688 
L 303.386446 147.95105 
L 306.665785 146.970409 
L 309.945124 146.004429 
L 313.224463 145.052783 
L 316.503802 144.115155 
L 319.78314 143.191237 
L 323.062479 142.280731 
L 326.341818 141.383346 
L 329.621157 140.498802 
L 332.900496 139.626824 
L 336.179835 138.767147 
L 339.459174 137.919512 
L 342.738512 137.083668 
L 346.017851 136.259371 
L 349.29719 135.446382 
L 352.576529 134.644472 
L 355.855868 133.853414 
L 359.135207 133.07299 
L 362.414545 132.302988 
L 365.693884 131.543199 
L 368.973223 130.793422 
L 372.252562 130.05346 
L 375.531901 129.323122 
L 378.81124 128.602221 
L 382.090579 127.890576 
L 385.369917 127.188009 
L 388.649256 126.494348 
L 391.928595 125.809424 
L 395.207934 125.133074 
L 398.487273 124.465137 
" style="fill:none;stroke:#bcbd22;stroke-linecap:square;stroke-width:1.5;"/>
   </g>
   <g id="line2d_25">
    <path clip-path="url(#p3b1498e9b3)" d="M 73.832727 295.488 
L 77.112066 288.251736 
L 80.391405 281.299426 
L 83.670744 274.61468 
L 86.950083 268.182342 
L 90.229421 261.988382 
L 93.50876 256.019789 
L 96.788099 250.264484 
L 100.067438 244.711234 
L 103.346777 239.349582 
L 106.626116 234.169781 
L 109.905455 229.162732 
L 113.184793 224.319937 
L 116.464132 219.633442 
L 119.743471 215.095801 
L 123.02281 210.700034 
L 126.302149 206.439588 
L 129.581488 202.308309 
L 132.860826 198.300412 
L 136.140165 194.410451 
L 139.419504 190.633295 
L 142.698843 186.964107 
L 145.978182 183.398324 
L 149.257521 179.931635 
L 152.53686 176.559966 
L 155.816198 173.279463 
L 159.095537 170.086478 
L 162.374876 166.977555 
L 165.654215 163.949417 
L 168.933554 160.998955 
L 172.212893 158.123219 
L 175.492231 155.319406 
L 178.77157 152.584851 
L 182.050909 149.917018 
L 185.330248 147.313495 
L 188.609587 144.771985 
L 191.888926 142.290298 
L 195.168264 139.866347 
L 198.447603 137.498139 
L 201.726942 135.183774 
L 205.006281 132.921435 
L 208.28562 130.70939 
L 211.564959 128.545977 
L 214.844298 126.429613 
L 218.123636 124.358777 
L 221.402975 122.332016 
L 224.682314 120.347939 
L 227.961653 118.405211 
L 231.240992 116.502552 
L 234.520331 114.638736 
L 237.799669 112.812585 
L 241.079008 111.022969 
L 244.358347 109.268802 
L 247.637686 107.549042 
L 250.917025 105.862685 
L 254.196364 104.208769 
L 257.475702 102.586365 
L 260.755041 100.994582 
L 264.03438 99.432561 
L 267.313719 97.899475 
L 270.593058 96.394528 
L 273.872397 94.916951 
L 277.151736 93.466005 
L 280.431074 92.040976 
L 283.710413 90.641176 
L 286.989752 89.265941 
L 290.269091 87.91463 
L 293.54843 86.586623 
L 296.827769 85.281324 
L 300.107107 83.998155 
L 303.386446 82.736558 
L 306.665785 81.495993 
L 309.945124 80.275938 
L 313.224463 79.07589 
L 316.503802 77.89536 
L 319.78314 76.733875 
L 323.062479 75.590979 
L 326.341818 74.46623 
L 329.621157 73.359197 
L 332.900496 72.269466 
L 336.179835 71.196634 
L 339.459174 70.140311 
L 342.738512 69.10012 
L 346.017851 68.075692 
L 349.29719 67.066674 
L 352.576529 66.072719 
L 355.855868 65.093493 
L 359.135207 64.128671 
L 362.414545 63.177937 
L 365.693884 62.240985 
L 368.973223 61.317517 
L 372.252562 60.407245 
L 375.531901 59.509887 
L 378.81124 58.625172 
L 382.090579 57.752832 
L 385.369917 56.892612 
L 388.649256 56.044259 
L 391.928595 55.207529 
L 395.207934 54.382187 
L 398.487273 53.568 
" style="fill:none;stroke:#17becf;stroke-linecap:square;stroke-width:1.5;"/>
   </g>
   <g id="line2d_26">
    <path clip-path="url(#p3b1498e9b3)" d="M 73.832727 295.488 
L 77.112066 292.059896 
L 80.391405 288.716069 
L 83.670744 285.453448 
L 86.950083 282.269111 
L 90.229421 279.160274 
L 93.50876 276.124283 
L 96.788099 273.158607 
L 100.067438 270.260832 
L 103.346777 267.428651 
L 106.626116 264.659864 
L 109.905455 261.952364 
L 113.184793 259.304139 
L 116.464132 256.713264 
L 119.743471 254.177896 
L 123.02281 251.696269 
L 126.302149 249.266694 
L 129.581488 246.887549 
L 132.860826 244.55728 
L 136.140165 242.274397 
L 139.419504 240.037468 
L 142.698843 237.845121 
L 145.978182 235.696035 
L 149.257521 233.588942 
L 152.53686 231.522624 
L 155.816198 229.495908 
L 159.095537 227.507666 
L 162.374876 225.556814 
L 165.654215 223.642306 
L 168.933554 221.763136 
L 172.212893 219.918335 
L 175.492231 218.106969 
L 178.77157 216.328136 
L 182.050909 214.580968 
L 185.330248 212.864626 
L 188.609587 211.178303 
L 191.888926 209.521217 
L 195.168264 207.892615 
L 198.447603 206.291769 
L 201.726942 204.717974 
L 205.006281 203.170552 
L 208.28562 201.648843 
L 211.564959 200.152214 
L 214.844298 198.680049 
L 218.123636 197.231753 
L 221.402975 195.80675 
L 224.682314 194.404483 
L 227.961653 193.024412 
L 231.240992 191.666013 
L 234.520331 190.328782 
L 237.799669 189.012225 
L 241.079008 187.715869 
L 244.358347 186.439251 
L 247.637686 185.181924 
L 250.917025 183.943454 
L 254.196364 182.72342 
L 257.475702 181.521414 
L 260.755041 180.337038 
L 264.03438 179.169908 
L 267.313719 178.019649 
L 270.593058 176.885899 
L 273.872397 175.768305 
L 277.151736 174.666523 
L 280.431074 173.580221 
L 283.710413 172.509075 
L 286.989752 171.452769 
L 290.269091 170.410997 
L 293.54843 169.383462 
L 296.827769 168.369873 
L 300.107107 167.369949 
L 303.386446 166.383415 
L 306.665785 165.410003 
L 309.945124 164.449455 
L 313.224463 163.501515 
L 316.503802 162.565939 
L 319.78314 161.642485 
L 323.062479 160.73092 
L 326.341818 159.831015 
L 329.621157 158.942547 
L 332.900496 158.065302 
L 336.179835 157.199066 
L 339.459174 156.343634 
L 342.738512 155.498805 
L 346.017851 154.664384 
L 349.29719 153.840179 
L 352.576529 153.026004 
L 355.855868 152.221676 
L 359.135207 151.427018 
L 362.414545 150.641857 
L 365.693884 149.866024 
L 368.973223 149.099353 
L 372.252562 148.341682 
L 375.531901 147.592856 
L 378.81124 146.852718 
L 382.090579 146.12112 
L 385.369917 145.397914 
L 388.649256 144.682956 
L 391.928595 143.976106 
L 395.207934 143.277228 
L 398.487273 142.586187 
" style="fill:none;stroke:#1f77b4;stroke-linecap:square;stroke-width:1.5;"/>
   </g>
   <g id="line2d_27">
    <path clip-path="url(#p3b1498e9b3)" d="M 73.832727 295.488 
L 77.112066 290.99484 
L 80.391405 286.64583 
L 83.670744 282.434144 
L 86.950083 278.353377 
L 90.229421 274.39752 
L 93.50876 270.560922 
L 96.788099 266.838272 
L 100.067438 263.224567 
L 103.346777 259.715094 
L 106.626116 256.305407 
L 109.905455 252.99131 
L 113.184793 249.768839 
L 116.464132 246.634245 
L 119.743471 243.583983 
L 123.02281 240.614695 
L 126.302149 237.723197 
L 129.581488 234.906474 
L 132.860826 232.16166 
L 136.140165 229.486038 
L 139.419504 226.877024 
L 142.698843 224.33216 
L 145.978182 221.849111 
L 149.257521 219.425649 
L 152.53686 217.059657 
L 155.816198 214.749113 
L 159.095537 212.492092 
L 162.374876 210.286754 
L 165.654215 208.131344 
L 168.933554 206.024187 
L 172.212893 203.963679 
L 175.492231 201.948288 
L 178.77157 199.976549 
L 182.050909 198.047059 
L 185.330248 196.158473 
L 188.609587 194.309506 
L 191.888926 192.498923 
L 195.168264 190.725541 
L 198.447603 188.988226 
L 201.726942 187.285887 
L 205.006281 185.617481 
L 208.28562 183.982001 
L 211.564959 182.378483 
L 214.844298 180.805998 
L 218.123636 179.263656 
L 221.402975 177.750596 
L 224.682314 176.265994 
L 227.961653 174.809053 
L 231.240992 173.379008 
L 234.520331 171.975121 
L 237.799669 170.59668 
L 241.079008 169.243001 
L 244.358347 167.913421 
L 247.637686 166.607303 
L 250.917025 165.324031 
L 254.196364 164.063011 
L 257.475702 162.823669 
L 260.755041 161.605452 
L 264.03438 160.407822 
L 267.313719 159.230264 
L 270.593058 158.072276 
L 273.872397 156.933375 
L 277.151736 155.813093 
L 280.431074 154.710976 
L 283.710413 153.626587 
L 286.989752 152.559501 
L 290.269091 151.509307 
L 293.54843 150.475608 
L 296.827769 149.458017 
L 300.107107 148.456162 
L 303.386446 147.46968 
L 306.665785 146.498219 
L 309.945124 145.54144 
L 313.224463 144.599011 
L 316.503802 143.670614 
L 319.78314 142.755935 
L 323.062479 141.854675 
L 326.341818 140.966538 
L 329.621157 140.091242 
L 332.900496 139.228509 
L 336.179835 138.378071 
L 339.459174 137.539668 
L 342.738512 136.713044 
L 346.017851 135.897954 
L 349.29719 135.094158 
L 352.576529 134.301423 
L 355.855868 133.519523 
L 359.135207 132.748235 
L 362.414545 131.987347 
L 365.693884 131.236649 
L 368.973223 130.495937 
L 372.252562 129.765015 
L 375.531901 129.043688 
L 378.81124 128.331769 
L 382.090579 127.629076 
L 385.369917 126.935429 
L 388.649256 126.250657 
L 391.928595 125.574589 
L 395.207934 124.90706 
L 398.487273 124.24791 
" style="fill:none;stroke:#ff7f0e;stroke-linecap:square;stroke-width:1.5;"/>
   </g>
   <g id="line2d_28">
    <path clip-path="url(#p3b1498e9b3)" d="M 73.832727 295.488 
L 77.112066 288.208068 
L 80.391405 281.217652 
L 83.670744 274.499818 
L 86.950083 268.038927 
L 90.229421 261.820514 
L 93.50876 255.831181 
L 96.788099 250.058497 
L 100.067438 244.490917 
L 103.346777 239.117701 
L 106.626116 233.928844 
L 109.905455 228.91502 
L 113.184793 224.067518 
L 116.464132 219.378197 
L 119.743471 214.839439 
L 123.02281 210.444108 
L 126.302149 206.18551 
L 129.581488 202.057363 
L 132.860826 198.053764 
L 136.140165 194.169159 
L 139.419504 190.398321 
L 142.698843 186.736325 
L 145.978182 183.178525 
L 149.257521 179.720536 
L 152.53686 176.358217 
L 155.816198 173.087651 
L 159.095537 169.905133 
L 162.374876 166.807154 
L 165.654215 163.790392 
L 168.933554 160.851692 
L 172.212893 157.988064 
L 175.492231 155.196667 
L 178.77157 152.474803 
L 182.050909 149.819905 
L 185.330248 147.229532 
L 188.609587 144.701361 
L 191.888926 142.233176 
L 195.168264 139.822869 
L 198.447603 137.468426 
L 201.726942 135.167929 
L 205.006281 132.919543 
L 208.28562 130.721519 
L 211.564959 128.572183 
L 214.844298 126.469934 
L 218.123636 124.413243 
L 221.402975 122.400644 
L 224.682314 120.430735 
L 227.961653 118.50217 
L 231.240992 116.613663 
L 234.520331 114.763978 
L 237.799669 112.951931 
L 241.079008 111.176383 
L 244.358347 109.436243 
L 247.637686 107.730463 
L 250.917025 106.058034 
L 254.196364 104.417988 
L 257.475702 102.809394 
L 260.755041 101.231355 
L 264.03438 99.68301 
L 267.313719 98.163527 
L 270.593058 96.672107 
L 273.872397 95.207979 
L 277.151736 93.770403 
L 280.431074 92.35866 
L 283.710413 90.972063 
L 286.989752 89.609944 
L 290.269091 88.271661 
L 293.54843 86.956594 
L 296.827769 85.664144 
L 300.107107 84.393732 
L 303.386446 83.1448 
L 306.665785 81.916807 
L 309.945124 80.709232 
L 313.224463 79.521568 
L 316.503802 78.353328 
L 319.78314 77.204039 
L 323.062479 76.073244 
L 326.341818 74.9605 
L 329.621157 73.865377 
L 332.900496 72.787461 
L 336.179835 71.72635 
L 339.459174 70.681653 
L 342.738512 69.652992 
L 346.017851 68.640002 
L 349.29719 67.642326 
L 352.576529 66.659619 
L 355.855868 65.691549 
L 359.135207 64.737789 
L 362.414545 63.798026 
L 365.693884 62.871953 
L 368.973223 61.959272 
L 372.252562 61.059697 
L 375.531901 60.172946 
L 378.81124 59.298747 
L 382.090579 58.436836 
L 385.369917 57.586955 
L 388.649256 56.748854 
L 391.928595 55.92229 
L 395.207934 55.107026 
L 398.487273 54.302832 
" style="fill:none;stroke:#2ca02c;stroke-linecap:square;stroke-width:1.5;"/>
   </g>
   <g id="line2d_29">
    <path clip-path="url(#p3b1498e9b3)" d="M 73.832727 295.488 
L 77.112066 288.183301 
L 80.391405 281.170887 
L 83.670744 274.433561 
L 86.950083 267.955446 
L 90.229421 261.721866 
L 93.50876 255.719231 
L 96.788099 249.934941 
L 100.067438 244.357294 
L 103.346777 238.975412 
L 106.626116 233.779165 
L 109.905455 228.759113 
L 113.184793 223.906442 
L 116.464132 219.212919 
L 119.743471 214.670841 
L 123.02281 210.272995 
L 126.302149 206.012617 
L 129.581488 201.883362 
L 132.860826 197.879267 
L 136.140165 193.994728 
L 139.419504 190.224468 
L 142.698843 186.563517 
L 145.978182 183.007191 
L 149.257521 179.551066 
L 152.53686 176.190966 
L 155.816198 172.922946 
L 159.095537 169.743271 
L 162.374876 166.648405 
L 165.654215 163.635002 
L 168.933554 160.699886 
L 172.212893 157.840045 
L 175.492231 155.052621 
L 178.77157 152.334897 
L 182.050909 149.684292 
L 185.330248 147.098348 
L 188.609587 144.574729 
L 191.888926 142.111208 
L 195.168264 139.705664 
L 198.447603 137.356074 
L 201.726942 135.060507 
L 205.006281 132.817123 
L 208.28562 130.624161 
L 211.564959 128.479941 
L 214.844298 126.382855 
L 218.123636 124.331366 
L 221.402975 122.324003 
L 224.682314 120.359358 
L 227.961653 118.436081 
L 231.240992 116.552879 
L 234.520331 114.708513 
L 237.799669 112.901794 
L 241.079008 111.13158 
L 244.358347 109.396776 
L 247.637686 107.696331 
L 250.917025 106.029233 
L 254.196364 104.394511 
L 257.475702 102.791231 
L 260.755041 101.218495 
L 264.03438 99.675438 
L 267.313719 98.161227 
L 270.593058 96.675062 
L 273.872397 95.21617 
L 277.151736 93.783807 
L 280.431074 92.377257 
L 283.710413 90.995827 
L 286.989752 89.638851 
L 290.269091 88.305685 
L 293.54843 86.995708 
L 296.827769 85.708321 
L 300.107107 84.442942 
L 303.386446 83.199015 
L 306.665785 81.975996 
L 309.945124 80.773364 
L 313.224463 79.590613 
L 316.503802 78.427253 
L 319.78314 77.282813 
L 323.062479 76.156834 
L 326.341818 75.048873 
L 329.621157 73.958502 
L 332.900496 72.885303 
L 336.179835 71.828876 
L 339.459174 70.788829 
L 342.738512 69.764785 
L 346.017851 68.756378 
L 349.29719 67.763251 
L 352.576529 66.785061 
L 355.855868 65.821472 
L 359.135207 64.87216 
L 362.414545 63.936811 
L 365.693884 63.015117 
L 368.973223 62.106784 
L 372.252562 61.211521 
L 375.531901 60.32905 
L 378.81124 59.459097 
L 382.090579 58.601399 
L 385.369917 57.755698 
L 388.649256 56.921744 
L 391.928595 56.099294 
L 395.207934 55.288112 
L 398.487273 54.487967 
" style="fill:none;stroke:#d62728;stroke-linecap:square;stroke-width:1.5;"/>
   </g>
   <g id="line2d_30">
    <path clip-path="url(#p3b1498e9b3)" d="M 73.832727 295.488 
L 77.112066 290.049356 
L 80.391405 284.802999 
L 83.670744 279.738908 
L 86.950083 274.847747 
L 90.229421 270.120807 
L 93.50876 265.549953 
L 96.788099 261.127581 
L 100.067438 256.846571 
L 103.346777 252.700252 
L 106.626116 248.682364 
L 109.905455 244.787034 
L 113.184793 241.008736 
L 116.464132 237.342275 
L 119.743471 233.782757 
L 123.02281 230.325571 
L 126.302149 226.966367 
L 129.581488 223.701038 
L 132.860826 220.525702 
L 136.140165 217.436689 
L 139.419504 214.430528 
L 142.698843 211.503928 
L 145.978182 208.653772 
L 149.257521 205.877105 
L 152.53686 203.171119 
L 155.816198 200.53315 
L 159.095537 197.960665 
L 162.374876 195.451256 
L 165.654215 193.002631 
L 168.933554 190.612608 
L 172.212893 188.279108 
L 175.492231 186.000149 
L 178.77157 183.773842 
L 182.050909 181.598382 
L 185.330248 179.472047 
L 188.609587 177.393192 
L 191.888926 175.360244 
L 195.168264 173.371699 
L 198.447603 171.426118 
L 201.726942 169.522123 
L 205.006281 167.658395 
L 208.28562 165.833671 
L 211.564959 164.046738 
L 214.844298 162.296435 
L 218.123636 160.581646 
L 221.402975 158.901301 
L 224.682314 157.254374 
L 227.961653 155.639877 
L 231.240992 154.056861 
L 234.520331 152.504415 
L 237.799669 150.981661 
L 241.079008 149.487756 
L 244.358347 148.021888 
L 247.637686 146.583274 
L 250.917025 145.171162 
L 254.196364 143.784826 
L 257.475702 142.423567 
L 260.755041 141.08671 
L 264.03438 139.773605 
L 267.313719 138.483624 
L 270.593058 137.216163 
L 273.872397 135.970636 
L 277.151736 134.746478 
L 280.431074 133.543146 
L 283.710413 132.360111 
L 286.989752 131.196865 
L 290.269091 130.052915 
L 293.54843 128.927784 
L 296.827769 127.821013 
L 300.107107 126.732156 
L 303.386446 125.660781 
L 306.665785 124.60647 
L 309.945124 123.568819 
L 313.224463 122.547436 
L 316.503802 121.541942 
L 319.78314 120.551968 
L 323.062479 119.577159 
L 326.341818 118.617168 
L 329.621157 117.67166 
L 332.900496 116.74031 
L 336.179835 115.822802 
L 339.459174 114.918829 
L 342.738512 114.028095 
L 346.017851 113.150311 
L 349.29719 112.285196 
L 352.576529 111.432478 
L 355.855868 110.591892 
L 359.135207 109.763182 
L 362.414545 108.946097 
L 365.693884 108.140395 
L 368.973223 107.345839 
L 372.252562 106.5622 
L 375.531901 105.789254 
L 378.81124 105.026784 
L 382.090579 104.274578 
L 385.369917 103.53243 
L 388.649256 102.800141 
L 391.928595 102.077514 
L 395.207934 101.36436 
L 398.487273 100.660494 
" style="fill:none;stroke:#9467bd;stroke-linecap:square;stroke-width:1.5;"/>
   </g>
   <g id="line2d_31">
    <path clip-path="url(#p3b1498e9b3)" d="M 73.832727 295.488 
L 77.112066 289.116306 
L 80.391405 282.987807 
L 83.670744 277.088839 
L 86.950083 271.406745 
L 90.229421 265.929781 
L 93.50876 260.647035 
L 96.788099 255.548357 
L 100.067438 250.624291 
L 103.346777 245.866018 
L 106.626116 241.265304 
L 109.905455 236.814451 
L 113.184793 232.506253 
L 116.464132 228.33396 
L 119.743471 224.291241 
L 123.02281 220.372153 
L 126.302149 216.571109 
L 129.581488 212.882856 
L 132.860826 209.302447 
L 136.140165 205.825219 
L 139.419504 202.446777 
L 142.698843 199.162968 
L 145.978182 195.969873 
L 149.257521 192.863782 
L 152.53686 189.841189 
L 155.816198 186.898771 
L 159.095537 184.033379 
L 162.374876 181.242028 
L 165.654215 178.521885 
L 168.933554 175.87026 
L 172.212893 173.284596 
L 175.492231 170.762461 
L 178.77157 168.301543 
L 182.050909 165.89964 
L 185.330248 163.554654 
L 188.609587 161.264585 
L 191.888926 159.027528 
L 195.168264 156.841662 
L 198.447603 154.705249 
L 201.726942 152.616631 
L 205.006281 150.574222 
L 208.28562 148.576504 
L 211.564959 146.622027 
L 214.844298 144.709401 
L 218.123636 142.837298 
L 221.402975 141.004441 
L 224.682314 139.209611 
L 227.961653 137.451636 
L 231.240992 135.729391 
L 234.520331 134.0418 
L 237.799669 132.387826 
L 241.079008 130.766474 
L 244.358347 129.17679 
L 247.637686 127.617854 
L 250.917025 126.088783 
L 254.196364 124.588726 
L 257.475702 123.116865 
L 260.755041 121.672414 
L 264.03438 120.254613 
L 267.313719 118.862732 
L 270.593058 117.496066 
L 273.872397 116.153936 
L 277.151736 114.835687 
L 280.431074 113.540688 
L 283.710413 112.268329 
L 286.989752 111.018021 
L 290.269091 109.789196 
L 293.54843 108.581305 
L 296.827769 107.393817 
L 300.107107 106.226221 
L 303.386446 105.078019 
L 306.665785 103.948734 
L 309.945124 102.837901 
L 313.224463 101.745072 
L 316.503802 100.669812 
L 319.78314 99.611702 
L 323.062479 98.570334 
L 326.341818 97.545314 
L 329.621157 96.53626 
L 332.900496 95.542802 
L 336.179835 94.564581 
L 339.459174 93.601249 
L 342.738512 92.652469 
L 346.017851 91.717913 
L 349.29719 90.797265 
L 352.576529 89.890216 
L 355.855868 88.996466 
L 359.135207 88.115726 
L 362.414545 87.247713 
L 365.693884 86.392154 
L 368.973223 85.548783 
L 372.252562 84.71734 
L 375.531901 83.897575 
L 378.81124 83.089243 
L 382.090579 82.292106 
L 385.369917 81.505935 
L 388.649256 80.730503 
L 391.928595 79.965594 
L 395.207934 79.210992 
L 398.487273 78.466493 
" style="fill:none;stroke:#8c564b;stroke-linecap:square;stroke-width:1.5;"/>
   </g>
   <g id="line2d_32">
    <path clip-path="url(#p3b1498e9b3)" d="M 73.832727 295.488 
L 77.112066 290.99484 
L 80.391405 286.64583 
L 83.670744 282.434144 
L 86.950083 278.353377 
L 90.229421 274.39752 
L 93.50876 270.560922 
L 96.788099 266.838272 
L 100.067438 263.224567 
L 103.346777 259.715094 
L 106.626116 256.305407 
L 109.905455 252.99131 
L 113.184793 249.768839 
L 116.464132 246.634245 
L 119.743471 243.583983 
L 123.02281 240.614695 
L 126.302149 237.723197 
L 129.581488 234.906474 
L 132.860826 232.16166 
L 136.140165 229.486038 
L 139.419504 226.877024 
L 142.698843 224.33216 
L 145.978182 221.849111 
L 149.257521 219.425649 
L 152.53686 217.059657 
L 155.816198 214.749113 
L 159.095537 212.492092 
L 162.374876 210.286754 
L 165.654215 208.131344 
L 168.933554 206.024187 
L 172.212893 203.963679 
L 175.492231 201.948288 
L 178.77157 199.976549 
L 182.050909 198.047059 
L 185.330248 196.158473 
L 188.609587 194.309506 
L 191.888926 192.498923 
L 195.168264 190.725541 
L 198.447603 188.988226 
L 201.726942 187.285887 
L 205.006281 185.617481 
L 208.28562 183.982001 
L 211.564959 182.378483 
L 214.844298 180.805998 
L 218.123636 179.263656 
L 221.402975 177.750596 
L 224.682314 176.265994 
L 227.961653 174.809053 
L 231.240992 173.379008 
L 234.520331 171.975121 
L 237.799669 170.59668 
L 241.079008 169.243001 
L 244.358347 167.913421 
L 247.637686 166.607303 
L 250.917025 165.324031 
L 254.196364 164.063011 
L 257.475702 162.823669 
L 260.755041 161.605452 
L 264.03438 160.407822 
L 267.313719 159.230264 
L 270.593058 158.072276 
L 273.872397 156.933375 
L 277.151736 155.813093 
L 280.431074 154.710976 
L 283.710413 153.626587 
L 286.989752 152.559501 
L 290.269091 151.509307 
L 293.54843 150.475608 
L 296.827769 149.458017 
L 300.107107 148.456162 
L 303.386446 147.46968 
L 306.665785 146.498219 
L 309.945124 145.54144 
L 313.224463 144.599011 
L 316.503802 143.670614 
L 319.78314 142.755935 
L 323.062479 141.854675 
L 326.341818 140.966538 
L 329.621157 140.091242 
L 332.900496 139.228509 
L 336.179835 138.378071 
L 339.459174 137.539668 
L 342.738512 136.713044 
L 346.017851 135.897954 
L 349.29719 135.094158 
L 352.576529 134.301423 
L 355.855868 133.519523 
L 359.135207 132.748235 
L 362.414545 131.987347 
L 365.693884 131.236649 
L 368.973223 130.495937 
L 372.252562 129.765015 
L 375.531901 129.043688 
L 378.81124 128.331769 
L 382.090579 127.629076 
L 385.369917 126.935429 
L 388.649256 126.250657 
L 391.928595 125.574589 
L 395.207934 124.90706 
L 398.487273 124.24791 
" style="fill:none;stroke:#e377c2;stroke-linecap:square;stroke-width:1.5;"/>
   </g>
   <g id="line2d_33">
    <path clip-path="url(#p3b1498e9b3)" d="M 73.832727 295.488 
L 77.112066 290.127585 
L 80.391405 284.965073 
L 83.670744 279.989703 
L 86.950083 275.19148 
L 90.229421 270.561109 
L 93.50876 266.089934 
L 96.788099 261.769883 
L 100.067438 257.593422 
L 103.346777 253.553509 
L 106.626116 249.643555 
L 109.905455 245.857388 
L 113.184793 242.189222 
L 116.464132 238.633624 
L 119.743471 235.185491 
L 123.02281 231.840024 
L 126.302149 228.592705 
L 129.581488 225.439277 
L 132.860826 222.375725 
L 136.140165 219.398262 
L 139.419504 216.503309 
L 142.698843 213.687484 
L 145.978182 210.947585 
L 149.257521 208.280583 
L 152.53686 205.683607 
L 155.816198 203.153934 
L 159.095537 200.688981 
L 162.374876 198.286297 
L 165.654215 195.943551 
L 168.933554 193.658528 
L 172.212893 191.429121 
L 175.492231 189.253323 
L 178.77157 187.129223 
L 182.050909 185.055002 
L 185.330248 183.028922 
L 188.609587 181.049326 
L 191.888926 179.114634 
L 195.168264 177.223334 
L 198.447603 175.373982 
L 201.726942 173.565199 
L 205.006281 171.795664 
L 208.28562 170.064113 
L 211.564959 168.369336 
L 214.844298 166.710174 
L 218.123636 165.085517 
L 221.402975 163.494298 
L 224.682314 161.935495 
L 227.961653 160.40813 
L 231.240992 158.911259 
L 234.520331 157.443978 
L 237.799669 156.00542 
L 241.079008 154.594748 
L 244.358347 153.211159 
L 247.637686 151.853881 
L 250.917025 150.522171 
L 254.196364 149.215313 
L 257.475702 147.932617 
L 260.755041 146.67342 
L 264.03438 145.437082 
L 267.313719 144.222985 
L 270.593058 143.030536 
L 273.872397 141.859159 
L 277.151736 140.708302 
L 280.431074 139.577431 
L 283.710413 138.466028 
L 286.989752 137.373595 
L 290.269091 136.299651 
L 293.54843 135.243731 
L 296.827769 134.205384 
L 300.107107 133.184176 
L 303.386446 132.179685 
L 306.665785 131.191505 
L 309.945124 130.21924 
L 313.224463 129.262511 
L 316.503802 128.320947 
L 319.78314 127.394191 
L 323.062479 126.481896 
L 326.341818 125.583726 
L 329.621157 124.699356 
L 332.900496 123.82847 
L 336.179835 122.970762 
L 339.459174 122.125935 
L 342.738512 121.293702 
L 346.017851 120.473782 
L 349.29719 119.665905 
L 352.576529 118.869806 
L 355.855868 118.085231 
L 359.135207 117.311931 
L 362.414545 116.549664 
L 365.693884 115.798197 
L 368.973223 115.0573 
L 372.252562 114.326754 
L 375.531901 113.606341 
L 378.81124 112.895854 
L 382.090579 112.195088 
L 385.369917 111.503845 
L 388.649256 110.821933 
L 391.928595 110.149162 
L 395.207934 109.485352 
L 398.487273 108.830325 
" style="fill:none;stroke:#7f7f7f;stroke-linecap:square;stroke-width:1.5;"/>
   </g>
   <g id="line2d_34">
    <path clip-path="url(#p3b1498e9b3)" d="M 73.832727 295.488 
L 77.112066 291.039184 
L 80.391405 286.730854 
L 83.670744 282.556457 
L 86.950083 278.509846 
L 90.229421 274.585239 
L 93.50876 270.777203 
L 96.788099 267.080618 
L 100.067438 263.490664 
L 103.346777 260.002791 
L 106.626116 256.612706 
L 109.905455 253.316355 
L 113.184793 250.109902 
L 116.464132 246.989719 
L 119.743471 243.952371 
L 123.02281 240.994603 
L 126.302149 238.113327 
L 129.581488 235.305615 
L 132.860826 232.568683 
L 136.140165 229.89989 
L 139.419504 227.296721 
L 142.698843 224.756786 
L 145.978182 222.277808 
L 149.257521 219.857619 
L 152.53686 217.494152 
L 155.816198 215.185436 
L 159.095537 212.929591 
L 162.374876 210.72482 
L 165.654215 208.569409 
L 168.933554 206.461718 
L 172.212893 204.400181 
L 175.492231 202.383297 
L 178.77157 200.409631 
L 182.050909 198.477809 
L 185.330248 196.586514 
L 188.609587 194.734484 
L 191.888926 192.920508 
L 195.168264 191.143427 
L 198.447603 189.402125 
L 201.726942 187.695533 
L 205.006281 186.022623 
L 208.28562 184.382408 
L 211.564959 182.773938 
L 214.844298 181.196301 
L 218.123636 179.648619 
L 221.402975 178.130047 
L 224.682314 176.63977 
L 227.961653 175.177006 
L 231.240992 173.741 
L 234.520331 172.331023 
L 237.799669 170.946375 
L 241.079008 169.586379 
L 244.358347 168.250382 
L 247.637686 166.937756 
L 250.917025 165.647891 
L 254.196364 164.380201 
L 257.475702 163.13412 
L 260.755041 161.909099 
L 264.03438 160.704608 
L 267.313719 159.520137 
L 270.593058 158.355189 
L 273.872397 157.209287 
L 277.151736 156.081967 
L 280.431074 154.97278 
L 283.710413 153.881293 
L 286.989752 152.807085 
L 290.269091 151.749749 
L 293.54843 150.708891 
L 296.827769 149.684129 
L 300.107107 148.675091 
L 303.386446 147.68142 
L 306.665785 146.702766 
L 309.945124 145.738791 
L 313.224463 144.789169 
L 316.503802 143.85358 
L 319.78314 142.931716 
L 323.062479 142.023277 
L 326.341818 141.127972 
L 329.621157 140.245518 
L 332.900496 139.37564 
L 336.179835 138.518072 
L 339.459174 137.672554 
L 342.738512 136.838833 
L 346.017851 136.016666 
L 349.29719 135.205812 
L 352.576529 134.40604 
L 355.855868 133.617125 
L 359.135207 132.838847 
L 362.414545 132.070993 
L 365.693884 131.313353 
L 368.973223 130.565726 
L 372.252562 129.827915 
L 375.531901 129.099727 
L 378.81124 128.380976 
L 382.090579 127.671479 
L 385.369917 126.971059 
L 388.649256 126.279542 
L 391.928595 125.59676 
L 395.207934 124.922548 
L 398.487273 124.256747 
" style="fill:none;stroke:#bcbd22;stroke-linecap:square;stroke-width:1.5;"/>
   </g>
   <g id="line2d_35">
    <path clip-path="url(#p3b1498e9b3)" d="M 73.832727 295.488 
L 77.112066 288.208068 
L 80.391405 281.217652 
L 83.670744 274.499818 
L 86.950083 268.038927 
L 90.229421 261.820514 
L 93.50876 255.831181 
L 96.788099 250.058497 
L 100.067438 244.490917 
L 103.346777 239.117701 
L 106.626116 233.928844 
L 109.905455 228.91502 
L 113.184793 224.067518 
L 116.464132 219.378197 
L 119.743471 214.839439 
L 123.02281 210.444108 
L 126.302149 206.18551 
L 129.581488 202.057363 
L 132.860826 198.053764 
L 136.140165 194.169159 
L 139.419504 190.398321 
L 142.698843 186.736325 
L 145.978182 183.178525 
L 149.257521 179.720536 
L 152.53686 176.358217 
L 155.816198 173.087651 
L 159.095537 169.905133 
L 162.374876 166.807154 
L 165.654215 163.790392 
L 168.933554 160.851692 
L 172.212893 157.988064 
L 175.492231 155.196667 
L 178.77157 152.474803 
L 182.050909 149.819905 
L 185.330248 147.229532 
L 188.609587 144.701361 
L 191.888926 142.233176 
L 195.168264 139.822869 
L 198.447603 137.468426 
L 201.726942 135.167929 
L 205.006281 132.919543 
L 208.28562 130.721519 
L 211.564959 128.572183 
L 214.844298 126.469934 
L 218.123636 124.413243 
L 221.402975 122.400644 
L 224.682314 120.430735 
L 227.961653 118.50217 
L 231.240992 116.613663 
L 234.520331 114.763978 
L 237.799669 112.951931 
L 241.079008 111.176383 
L 244.358347 109.436243 
L 247.637686 107.730463 
L 250.917025 106.058034 
L 254.196364 104.417988 
L 257.475702 102.809394 
L 260.755041 101.231355 
L 264.03438 99.68301 
L 267.313719 98.163527 
L 270.593058 96.672107 
L 273.872397 95.207979 
L 277.151736 93.770403 
L 280.431074 92.35866 
L 283.710413 90.972063 
L 286.989752 89.609944 
L 290.269091 88.271661 
L 293.54843 86.956594 
L 296.827769 85.664144 
L 300.107107 84.393732 
L 303.386446 83.1448 
L 306.665785 81.916807 
L 309.945124 80.709232 
L 313.224463 79.521568 
L 316.503802 78.353328 
L 319.78314 77.204039 
L 323.062479 76.073244 
L 326.341818 74.9605 
L 329.621157 73.865377 
L 332.900496 72.787461 
L 336.179835 71.72635 
L 339.459174 70.681653 
L 342.738512 69.652992 
L 346.017851 68.640002 
L 349.29719 67.642326 
L 352.576529 66.659619 
L 355.855868 65.691549 
L 359.135207 64.737789 
L 362.414545 63.798026 
L 365.693884 62.871953 
L 368.973223 61.959272 
L 372.252562 61.059697 
L 375.531901 60.172946 
L 378.81124 59.298747 
L 382.090579 58.436836 
L 385.369917 57.586955 
L 388.649256 56.748854 
L 391.928595 55.92229 
L 395.207934 55.107026 
L 398.487273 54.302832 
" style="fill:none;stroke:#17becf;stroke-linecap:square;stroke-width:1.5;"/>
   </g>
   <g id="line2d_36">
    <path clip-path="url(#p3b1498e9b3)" d="M 73.832727 295.488 
L 77.112066 288.208186 
L 80.391405 281.218616 
L 83.670744 274.50227 
L 86.950083 268.043435 
L 90.229421 261.827581 
L 93.50876 255.841247 
L 96.788099 250.071954 
L 100.067438 244.508106 
L 103.346777 239.138923 
L 106.626116 233.954363 
L 109.905455 228.945065 
L 113.184793 224.10229 
L 116.464132 219.41787 
L 119.743471 214.884163 
L 123.02281 210.49401 
L 126.302149 206.2407 
L 129.581488 202.117932 
L 132.860826 198.119788 
L 136.140165 194.240701 
L 139.419504 190.475431 
L 142.698843 186.819041 
L 145.978182 183.266876 
L 149.257521 179.814542 
L 152.53686 176.457889 
L 155.816198 173.192993 
L 159.095537 170.016143 
L 162.374876 166.923825 
L 165.654215 163.912709 
L 168.933554 160.979638 
L 172.212893 158.121616 
L 175.492231 155.3358 
L 178.77157 152.619488 
L 182.050909 149.970109 
L 185.330248 147.385221 
L 188.609587 144.862497 
L 191.888926 142.399721 
L 195.168264 139.994781 
L 198.447603 137.645665 
L 201.726942 135.350449 
L 205.006281 133.107301 
L 208.28562 130.914468 
L 211.564959 128.770276 
L 214.844298 126.673125 
L 218.123636 124.621483 
L 221.402975 122.613885 
L 224.682314 120.648928 
L 227.961653 118.725267 
L 231.240992 116.841614 
L 234.520331 114.996734 
L 237.799669 113.189442 
L 241.079008 111.418601 
L 244.358347 109.683119 
L 247.637686 107.981947 
L 250.917025 106.314078 
L 254.196364 104.678544 
L 257.475702 103.074412 
L 260.755041 101.500788 
L 264.03438 99.95681 
L 267.313719 98.441646 
L 270.593058 96.954499 
L 273.872397 95.494598 
L 277.151736 94.061202 
L 280.431074 92.653594 
L 283.710413 91.271085 
L 286.989752 89.913011 
L 290.269091 88.578728 
L 293.54843 87.267617 
L 296.827769 85.979079 
L 300.107107 84.712538 
L 303.386446 83.467433 
L 306.665785 82.243225 
L 309.945124 81.039394 
L 313.224463 79.855433 
L 316.503802 78.690856 
L 319.78314 77.54519 
L 323.062479 76.417978 
L 326.341818 75.308777 
L 329.621157 74.217161 
L 332.900496 73.142712 
L 336.179835 72.085031 
L 339.459174 71.043727 
L 342.738512 70.018424 
L 346.017851 69.008754 
L 349.29719 68.014363 
L 352.576529 67.034907 
L 355.855868 66.070052 
L 359.135207 65.119474 
L 362.414545 64.182858 
L 365.693884 63.259899 
L 368.973223 62.3503 
L 372.252562 61.453774 
L 375.531901 60.570041 
L 378.81124 59.698828 
L 382.090579 58.839871 
L 385.369917 57.992915 
L 388.649256 57.157708 
L 391.928595 56.334008 
L 395.207934 55.521579 
L 398.487273 54.720192 
" style="fill:none;stroke:#1f77b4;stroke-linecap:square;stroke-width:1.5;"/>
   </g>
   <g id="line2d_37">
    <path clip-path="url(#p3b1498e9b3)" d="M 73.832727 295.488 
L 77.112066 288.208186 
L 80.391405 281.218616 
L 83.670744 274.50227 
L 86.950083 268.043435 
L 90.229421 261.827581 
L 93.50876 255.841247 
L 96.788099 250.071954 
L 100.067438 244.508106 
L 103.346777 239.138923 
L 106.626116 233.954363 
L 109.905455 228.945065 
L 113.184793 224.10229 
L 116.464132 219.41787 
L 119.743471 214.884163 
L 123.02281 210.49401 
L 126.302149 206.2407 
L 129.581488 202.117932 
L 132.860826 198.119788 
L 136.140165 194.240701 
L 139.419504 190.475431 
L 142.698843 186.819041 
L 145.978182 183.266876 
L 149.257521 179.814542 
L 152.53686 176.457889 
L 155.816198 173.192993 
L 159.095537 170.016143 
L 162.374876 166.923825 
L 165.654215 163.912709 
L 168.933554 160.979638 
L 172.212893 158.121616 
L 175.492231 155.3358 
L 178.77157 152.619488 
L 182.050909 149.970109 
L 185.330248 147.385221 
L 188.609587 144.862497 
L 191.888926 142.399721 
L 195.168264 139.994781 
L 198.447603 137.645665 
L 201.726942 135.350449 
L 205.006281 133.107301 
L 208.28562 130.914468 
L 211.564959 128.770276 
L 214.844298 126.673125 
L 218.123636 124.621483 
L 221.402975 122.613885 
L 224.682314 120.648928 
L 227.961653 118.725267 
L 231.240992 116.841614 
L 234.520331 114.996734 
L 237.799669 113.189442 
L 241.079008 111.418601 
L 244.358347 109.683119 
L 247.637686 107.981947 
L 250.917025 106.314078 
L 254.196364 104.678544 
L 257.475702 103.074412 
L 260.755041 101.500788 
L 264.03438 99.95681 
L 267.313719 98.441646 
L 270.593058 96.954499 
L 273.872397 95.494598 
L 277.151736 94.061202 
L 280.431074 92.653594 
L 283.710413 91.271085 
L 286.989752 89.913011 
L 290.269091 88.578728 
L 293.54843 87.267617 
L 296.827769 85.979079 
L 300.107107 84.712538 
L 303.386446 83.467433 
L 306.665785 82.243225 
L 309.945124 81.039394 
L 313.224463 79.855433 
L 316.503802 78.690856 
L 319.78314 77.54519 
L 323.062479 76.417978 
L 326.341818 75.308777 
L 329.621157 74.217161 
L 332.900496 73.142712 
L 336.179835 72.085031 
L 339.459174 71.043727 
L 342.738512 70.018424 
L 346.017851 69.008754 
L 349.29719 68.014363 
L 352.576529 67.034907 
L 355.855868 66.070052 
L 359.135207 65.119474 
L 362.414545 64.182858 
L 365.693884 63.259899 
L 368.973223 62.3503 
L 372.252562 61.453774 
L 375.531901 60.570041 
L 378.81124 59.698828 
L 382.090579 58.839871 
L 385.369917 57.992915 
L 388.649256 57.157708 
L 391.928595 56.334008 
L 395.207934 55.521579 
L 398.487273 54.720192 
" style="fill:none;stroke:#ff7f0e;stroke-linecap:square;stroke-width:1.5;"/>
   </g>
   <g id="line2d_38">
    <path clip-path="url(#p3b1498e9b3)" d="M 73.832727 295.488 
L 77.112066 290.382503 
L 80.391405 285.460582 
L 83.670744 280.71251 
L 86.950083 276.129235 
L 90.229421 271.702326 
L 93.50876 267.423913 
L 96.788099 263.286649 
L 100.067438 259.283661 
L 103.346777 255.408518 
L 106.626116 251.65519 
L 109.905455 248.018024 
L 113.184793 244.491708 
L 116.464132 241.071251 
L 119.743471 237.751957 
L 123.02281 234.529402 
L 126.302149 231.39942 
L 129.581488 228.358077 
L 132.860826 225.40166 
L 136.140165 222.526661 
L 139.419504 219.729763 
L 142.698843 217.007827 
L 145.978182 214.357877 
L 149.257521 211.777095 
L 152.53686 209.262809 
L 155.816198 206.812482 
L 159.095537 204.423702 
L 162.374876 202.094181 
L 165.654215 199.821739 
L 168.933554 197.604305 
L 172.212893 195.439906 
L 175.492231 193.32666 
L 178.77157 191.262776 
L 182.050909 189.246544 
L 185.330248 187.276333 
L 188.609587 185.350584 
L 191.888926 183.46781 
L 195.168264 181.626588 
L 198.447603 179.825557 
L 201.726942 178.063416 
L 205.006281 176.338918 
L 208.28562 174.65087 
L 211.564959 172.998129 
L 214.844298 171.379597 
L 218.123636 169.794224 
L 221.402975 168.241002 
L 224.682314 166.718961 
L 227.961653 165.227173 
L 231.240992 163.764744 
L 234.520331 162.330817 
L 237.799669 160.924565 
L 241.079008 159.545195 
L 244.358347 158.191944 
L 247.637686 156.864077 
L 250.917025 155.560887 
L 254.196364 154.281691 
L 257.475702 153.025833 
L 260.755041 151.79268 
L 264.03438 150.581623 
L 267.313719 149.392071 
L 270.593058 148.223459 
L 273.872397 147.075237 
L 277.151736 145.946876 
L 280.431074 144.837866 
L 283.710413 143.747713 
L 286.989752 142.67594 
L 290.269091 141.622086 
L 293.54843 140.585706 
L 296.827769 139.566369 
L 300.107107 138.563657 
L 303.386446 137.577167 
L 306.665785 136.606508 
L 309.945124 135.651304 
L 313.224463 134.711186 
L 316.503802 133.785801 
L 319.78314 132.874806 
L 323.062479 131.977866 
L 326.341818 131.09466 
L 329.621157 130.224874 
L 332.900496 129.368205 
L 336.179835 128.524358 
L 339.459174 127.693047 
L 342.738512 126.873996 
L 346.017851 126.066934 
L 349.29719 125.271601 
L 352.576529 124.487743 
L 355.855868 123.715113 
L 359.135207 122.953472 
L 362.414545 122.202586 
L 365.693884 121.462231 
L 368.973223 120.732185 
L 372.252562 120.012234 
L 375.531901 119.302172 
L 378.81124 118.601795 
L 382.090579 117.910907 
L 385.369917 117.229317 
L 388.649256 116.556837 
L 391.928595 115.893286 
L 395.207934 115.238488 
L 398.487273 114.59227 
" style="fill:none;stroke:#2ca02c;stroke-linecap:square;stroke-width:1.5;"/>
   </g>
   <g id="line2d_39">
    <path clip-path="url(#p3b1498e9b3)" d="M 73.832727 295.488 
L 77.112066 288.208068 
L 80.391405 281.217652 
L 83.670744 274.499818 
L 86.950083 268.038927 
L 90.229421 261.820514 
L 93.50876 255.831181 
L 96.788099 250.058497 
L 100.067438 244.490917 
L 103.346777 239.117701 
L 106.626116 233.928844 
L 109.905455 228.91502 
L 113.184793 224.067518 
L 116.464132 219.378197 
L 119.743471 214.839439 
L 123.02281 210.444108 
L 126.302149 206.18551 
L 129.581488 202.057363 
L 132.860826 198.053764 
L 136.140165 194.169159 
L 139.419504 190.398321 
L 142.698843 186.736325 
L 145.978182 183.178525 
L 149.257521 179.720536 
L 152.53686 176.358217 
L 155.816198 173.087651 
L 159.095537 169.905133 
L 162.374876 166.807154 
L 165.654215 163.790392 
L 168.933554 160.851692 
L 172.212893 157.988064 
L 175.492231 155.196667 
L 178.77157 152.474803 
L 182.050909 149.819905 
L 185.330248 147.229532 
L 188.609587 144.701361 
L 191.888926 142.233176 
L 195.168264 139.822869 
L 198.447603 137.468426 
L 201.726942 135.167929 
L 205.006281 132.919543 
L 208.28562 130.721519 
L 211.564959 128.572183 
L 214.844298 126.469934 
L 218.123636 124.413243 
L 221.402975 122.400644 
L 224.682314 120.430735 
L 227.961653 118.50217 
L 231.240992 116.613663 
L 234.520331 114.763978 
L 237.799669 112.951931 
L 241.079008 111.176383 
L 244.358347 109.436243 
L 247.637686 107.730463 
L 250.917025 106.058034 
L 254.196364 104.417988 
L 257.475702 102.809394 
L 260.755041 101.231355 
L 264.03438 99.68301 
L 267.313719 98.163527 
L 270.593058 96.672107 
L 273.872397 95.207979 
L 277.151736 93.770403 
L 280.431074 92.35866 
L 283.710413 90.972063 
L 286.989752 89.609944 
L 290.269091 88.271661 
L 293.54843 86.956594 
L 296.827769 85.664144 
L 300.107107 84.393732 
L 303.386446 83.1448 
L 306.665785 81.916807 
L 309.945124 80.709232 
L 313.224463 79.521568 
L 316.503802 78.353328 
L 319.78314 77.204039 
L 323.062479 76.073244 
L 326.341818 74.9605 
L 329.621157 73.865377 
L 332.900496 72.787461 
L 336.179835 71.72635 
L 339.459174 70.681653 
L 342.738512 69.652992 
L 346.017851 68.640002 
L 349.29719 67.642326 
L 352.576529 66.659619 
L 355.855868 65.691549 
L 359.135207 64.737789 
L 362.414545 63.798026 
L 365.693884 62.871953 
L 368.973223 61.959272 
L 372.252562 61.059697 
L 375.531901 60.172946 
L 378.81124 59.298747 
L 382.090579 58.436836 
L 385.369917 57.586955 
L 388.649256 56.748854 
L 391.928595 55.92229 
L 395.207934 55.107026 
L 398.487273 54.302832 
" style="fill:none;stroke:#d62728;stroke-linecap:square;stroke-width:1.5;"/>
   </g>
   <g id="patch_3">
    <path d="M 57.6 307.584 
L 57.6 41.472 
" style="fill:none;stroke:#000000;stroke-linecap:square;stroke-linejoin:miter;stroke-width:0.8;"/>
   </g>
   <g id="patch_4">
    <path d="M 414.72 307.584 
L 414.72 41.472 
" style="fill:none;stroke:#000000;stroke-linecap:square;stroke-linejoin:miter;stroke-width:0.8;"/>
   </g>
   <g id="patch_5">
    <path d="M 57.6 307.584 
L 414.72 307.584 
" style="fill:none;stroke:#000000;stroke-linecap:square;stroke-linejoin:miter;stroke-width:0.8;"/>
   </g>
   <g id="patch_6">
    <path d="M 57.6 41.472 
L 414.72 41.472 
" style="fill:none;stroke:#000000;stroke-linecap:square;stroke-linejoin:miter;stroke-width:0.8;"/>
   </g>
  </g>
 </g>
 <defs>
  <clipPath id="p3b1498e9b3">
   <rect height="266.112" width="357.12" x="57.6" y="41.472"/>
  </clipPath>
 </defs>
</svg>
