<?xml version="1.0" encoding="utf-8" standalone="no"?>
<!DOCTYPE svg PUBLIC "-//W3C//DTD SVG 1.1//EN"
  "http://www.w3.org/Graphics/SVG/1.1/DTD/svg11.dtd">
<!-- Created with matplotlib (https://matplotlib.org/) -->
<svg height="345.6pt" version="1.1" viewBox="0 0 460.8 345.6" width="460.8pt" xmlns="http://www.w3.org/2000/svg" xmlns:xlink="http://www.w3.org/1999/xlink">
 <defs>
  <style type="text/css">
*{stroke-linecap:butt;stroke-linejoin:round;}
  </style>
 </defs>
 <g id="figure_1">
  <g id="patch_1">
   <path d="M 0 345.6 
L 460.8 345.6 
L 460.8 0 
L 0 0 
z
" style="fill:#ffffff;"/>
  </g>
  <g id="axes_1">
   <g id="patch_2">
    <path d="M 57.6 307.584 
L 414.72 307.584 
L 414.72 41.472 
L 57.6 41.472 
z
" style="fill:#ffffff;"/>
   </g>
   <g id="matplotlib.axis_1">
    <g id="xtick_1">
     <g id="line2d_1">
      <defs>
       <path d="M 0 0 
L 0 3.5 
" id="m91ce67bda8" style="stroke:#000000;stroke-width:0.8;"/>
      </defs>
      <g>
       <use style="stroke:#000000;stroke-width:0.8;" x="73.832727" xlink:href="#m91ce67bda8" y="307.584"/>
      </g>
     </g>
     <g id="text_1">
      <!-- 0 -->
      <defs>
       <path d="M 31.78125 66.40625 
Q 24.171875 66.40625 20.328125 58.90625 
Q 16.5 51.421875 16.5 36.375 
Q 16.5 21.390625 20.328125 13.890625 
Q 24.171875 6.390625 31.78125 6.390625 
Q 39.453125 6.390625 43.28125 13.890625 
Q 47.125 21.390625 47.125 36.375 
Q 47.125 51.421875 43.28125 58.90625 
Q 39.453125 66.40625 31.78125 66.40625 
z
M 31.78125 74.21875 
Q 44.046875 74.21875 50.515625 64.515625 
Q 56.984375 54.828125 56.984375 36.375 
Q 56.984375 17.96875 50.515625 8.265625 
Q 44.046875 -1.421875 31.78125 -1.421875 
Q 19.53125 -1.421875 13.0625 8.265625 
Q 6.59375 17.96875 6.59375 36.375 
Q 6.59375 54.828125 13.0625 64.515625 
Q 19.53125 74.21875 31.78125 74.21875 
z
" id="DejaVuSans-48"/>
      </defs>
      <g transform="translate(70.651477 322.182437)scale(0.1 -0.1)">
       <use xlink:href="#DejaVuSans-48"/>
      </g>
     </g>
    </g>
    <g id="xtick_2">
     <g id="line2d_2">
      <g>
       <use style="stroke:#000000;stroke-width:0.8;" x="120.211948" xlink:href="#m91ce67bda8" y="307.584"/>
      </g>
     </g>
     <g id="text_2">
      <!-- 10 -->
      <defs>
       <path d="M 12.40625 8.296875 
L 28.515625 8.296875 
L 28.515625 63.921875 
L 10.984375 60.40625 
L 10.984375 69.390625 
L 28.421875 72.90625 
L 38.28125 72.90625 
L 38.28125 8.296875 
L 54.390625 8.296875 
L 54.390625 0 
L 12.40625 0 
z
" id="DejaVuSans-49"/>
      </defs>
      <g transform="translate(113.849448 322.182437)scale(0.1 -0.1)">
       <use xlink:href="#DejaVuSans-49"/>
       <use x="63.623047" xlink:href="#DejaVuSans-48"/>
      </g>
     </g>
    </g>
    <g id="xtick_3">
     <g id="line2d_3">
      <g>
       <use style="stroke:#000000;stroke-width:0.8;" x="166.591169" xlink:href="#m91ce67bda8" y="307.584"/>
      </g>
     </g>
     <g id="text_3">
      <!-- 20 -->
      <defs>
       <path d="M 19.1875 8.296875 
L 53.609375 8.296875 
L 53.609375 0 
L 7.328125 0 
L 7.328125 8.296875 
Q 12.9375 14.109375 22.625 23.890625 
Q 32.328125 33.6875 34.8125 36.53125 
Q 39.546875 41.84375 41.421875 45.53125 
Q 43.3125 49.21875 43.3125 52.78125 
Q 43.3125 58.59375 39.234375 62.25 
Q 35.15625 65.921875 28.609375 65.921875 
Q 23.96875 65.921875 18.8125 64.3125 
Q 13.671875 62.703125 7.8125 59.421875 
L 7.8125 69.390625 
Q 13.765625 71.78125 18.9375 73 
Q 24.125 74.21875 28.421875 74.21875 
Q 39.75 74.21875 46.484375 68.546875 
Q 53.21875 62.890625 53.21875 53.421875 
Q 53.21875 48.921875 51.53125 44.890625 
Q 49.859375 40.875 45.40625 35.40625 
Q 44.1875 33.984375 37.640625 27.21875 
Q 31.109375 20.453125 19.1875 8.296875 
z
" id="DejaVuSans-50"/>
      </defs>
      <g transform="translate(160.228669 322.182437)scale(0.1 -0.1)">
       <use xlink:href="#DejaVuSans-50"/>
       <use x="63.623047" xlink:href="#DejaVuSans-48"/>
      </g>
     </g>
    </g>
    <g id="xtick_4">
     <g id="line2d_4">
      <g>
       <use style="stroke:#000000;stroke-width:0.8;" x="212.97039" xlink:href="#m91ce67bda8" y="307.584"/>
      </g>
     </g>
     <g id="text_4">
      <!-- 30 -->
      <defs>
       <path d="M 40.578125 39.3125 
Q 47.65625 37.796875 51.625 33 
Q 55.609375 28.21875 55.609375 21.1875 
Q 55.609375 10.40625 48.1875 4.484375 
Q 40.765625 -1.421875 27.09375 -1.421875 
Q 22.515625 -1.421875 17.65625 -0.515625 
Q 12.796875 0.390625 7.625 2.203125 
L 7.625 11.71875 
Q 11.71875 9.328125 16.59375 8.109375 
Q 21.484375 6.890625 26.8125 6.890625 
Q 36.078125 6.890625 40.9375 10.546875 
Q 45.796875 14.203125 45.796875 21.1875 
Q 45.796875 27.640625 41.28125 31.265625 
Q 36.765625 34.90625 28.71875 34.90625 
L 20.21875 34.90625 
L 20.21875 43.015625 
L 29.109375 43.015625 
Q 36.375 43.015625 40.234375 45.921875 
Q 44.09375 48.828125 44.09375 54.296875 
Q 44.09375 59.90625 40.109375 62.90625 
Q 36.140625 65.921875 28.71875 65.921875 
Q 24.65625 65.921875 20.015625 65.03125 
Q 15.375 64.15625 9.8125 62.3125 
L 9.8125 71.09375 
Q 15.4375 72.65625 20.34375 73.4375 
Q 25.25 74.21875 29.59375 74.21875 
Q 40.828125 74.21875 47.359375 69.109375 
Q 53.90625 64.015625 53.90625 55.328125 
Q 53.90625 49.265625 50.4375 45.09375 
Q 46.96875 40.921875 40.578125 39.3125 
z
" id="DejaVuSans-51"/>
      </defs>
      <g transform="translate(206.60789 322.182437)scale(0.1 -0.1)">
       <use xlink:href="#DejaVuSans-51"/>
       <use x="63.623047" xlink:href="#DejaVuSans-48"/>
      </g>
     </g>
    </g>
    <g id="xtick_5">
     <g id="line2d_5">
      <g>
       <use style="stroke:#000000;stroke-width:0.8;" x="259.34961" xlink:href="#m91ce67bda8" y="307.584"/>
      </g>
     </g>
     <g id="text_5">
      <!-- 40 -->
      <defs>
       <path d="M 37.796875 64.3125 
L 12.890625 25.390625 
L 37.796875 25.390625 
z
M 35.203125 72.90625 
L 47.609375 72.90625 
L 47.609375 25.390625 
L 58.015625 25.390625 
L 58.015625 17.1875 
L 47.609375 17.1875 
L 47.609375 0 
L 37.796875 0 
L 37.796875 17.1875 
L 4.890625 17.1875 
L 4.890625 26.703125 
z
" id="DejaVuSans-52"/>
      </defs>
      <g transform="translate(252.98711 322.182437)scale(0.1 -0.1)">
       <use xlink:href="#DejaVuSans-52"/>
       <use x="63.623047" xlink:href="#DejaVuSans-48"/>
      </g>
     </g>
    </g>
    <g id="xtick_6">
     <g id="line2d_6">
      <g>
       <use style="stroke:#000000;stroke-width:0.8;" x="305.728831" xlink:href="#m91ce67bda8" y="307.584"/>
      </g>
     </g>
     <g id="text_6">
      <!-- 50 -->
      <defs>
       <path d="M 10.796875 72.90625 
L 49.515625 72.90625 
L 49.515625 64.59375 
L 19.828125 64.59375 
L 19.828125 46.734375 
Q 21.96875 47.46875 24.109375 47.828125 
Q 26.265625 48.1875 28.421875 48.1875 
Q 40.625 48.1875 47.75 41.5 
Q 54.890625 34.8125 54.890625 23.390625 
Q 54.890625 11.625 47.5625 5.09375 
Q 40.234375 -1.421875 26.90625 -1.421875 
Q 22.3125 -1.421875 17.546875 -0.640625 
Q 12.796875 0.140625 7.71875 1.703125 
L 7.71875 11.625 
Q 12.109375 9.234375 16.796875 8.0625 
Q 21.484375 6.890625 26.703125 6.890625 
Q 35.15625 6.890625 40.078125 11.328125 
Q 45.015625 15.765625 45.015625 23.390625 
Q 45.015625 31 40.078125 35.4375 
Q 35.15625 39.890625 26.703125 39.890625 
Q 22.75 39.890625 18.8125 39.015625 
Q 14.890625 38.140625 10.796875 36.28125 
z
" id="DejaVuSans-53"/>
      </defs>
      <g transform="translate(299.366331 322.182437)scale(0.1 -0.1)">
       <use xlink:href="#DejaVuSans-53"/>
       <use x="63.623047" xlink:href="#DejaVuSans-48"/>
      </g>
     </g>
    </g>
    <g id="xtick_7">
     <g id="line2d_7">
      <g>
       <use style="stroke:#000000;stroke-width:0.8;" x="352.108052" xlink:href="#m91ce67bda8" y="307.584"/>
      </g>
     </g>
     <g id="text_7">
      <!-- 60 -->
      <defs>
       <path d="M 33.015625 40.375 
Q 26.375 40.375 22.484375 35.828125 
Q 18.609375 31.296875 18.609375 23.390625 
Q 18.609375 15.53125 22.484375 10.953125 
Q 26.375 6.390625 33.015625 6.390625 
Q 39.65625 6.390625 43.53125 10.953125 
Q 47.40625 15.53125 47.40625 23.390625 
Q 47.40625 31.296875 43.53125 35.828125 
Q 39.65625 40.375 33.015625 40.375 
z
M 52.59375 71.296875 
L 52.59375 62.3125 
Q 48.875 64.0625 45.09375 64.984375 
Q 41.3125 65.921875 37.59375 65.921875 
Q 27.828125 65.921875 22.671875 59.328125 
Q 17.53125 52.734375 16.796875 39.40625 
Q 19.671875 43.65625 24.015625 45.921875 
Q 28.375 48.1875 33.59375 48.1875 
Q 44.578125 48.1875 50.953125 41.515625 
Q 57.328125 34.859375 57.328125 23.390625 
Q 57.328125 12.15625 50.6875 5.359375 
Q 44.046875 -1.421875 33.015625 -1.421875 
Q 20.359375 -1.421875 13.671875 8.265625 
Q 6.984375 17.96875 6.984375 36.375 
Q 6.984375 53.65625 15.1875 63.9375 
Q 23.390625 74.21875 37.203125 74.21875 
Q 40.921875 74.21875 44.703125 73.484375 
Q 48.484375 72.75 52.59375 71.296875 
z
" id="DejaVuSans-54"/>
      </defs>
      <g transform="translate(345.745552 322.182437)scale(0.1 -0.1)">
       <use xlink:href="#DejaVuSans-54"/>
       <use x="63.623047" xlink:href="#DejaVuSans-48"/>
      </g>
     </g>
    </g>
    <g id="xtick_8">
     <g id="line2d_8">
      <g>
       <use style="stroke:#000000;stroke-width:0.8;" x="398.487273" xlink:href="#m91ce67bda8" y="307.584"/>
      </g>
     </g>
     <g id="text_8">
      <!-- 70 -->
      <defs>
       <path d="M 8.203125 72.90625 
L 55.078125 72.90625 
L 55.078125 68.703125 
L 28.609375 0 
L 18.3125 0 
L 43.21875 64.59375 
L 8.203125 64.59375 
z
" id="DejaVuSans-55"/>
      </defs>
      <g transform="translate(392.124773 322.182437)scale(0.1 -0.1)">
       <use xlink:href="#DejaVuSans-55"/>
       <use x="63.623047" xlink:href="#DejaVuSans-48"/>
      </g>
     </g>
    </g>
    <g id="text_9">
     <!-- Frequência do estímulo antidrômico (Hz) -->
     <defs>
      <path d="M 9.8125 72.90625 
L 51.703125 72.90625 
L 51.703125 64.59375 
L 19.671875 64.59375 
L 19.671875 43.109375 
L 48.578125 43.109375 
L 48.578125 34.8125 
L 19.671875 34.8125 
L 19.671875 0 
L 9.8125 0 
z
" id="DejaVuSans-70"/>
      <path d="M 41.109375 46.296875 
Q 39.59375 47.171875 37.8125 47.578125 
Q 36.03125 48 33.890625 48 
Q 26.265625 48 22.1875 43.046875 
Q 18.109375 38.09375 18.109375 28.8125 
L 18.109375 0 
L 9.078125 0 
L 9.078125 54.6875 
L 18.109375 54.6875 
L 18.109375 46.1875 
Q 20.953125 51.171875 25.484375 53.578125 
Q 30.03125 56 36.53125 56 
Q 37.453125 56 38.578125 55.875 
Q 39.703125 55.765625 41.0625 55.515625 
z
" id="DejaVuSans-114"/>
      <path d="M 56.203125 29.59375 
L 56.203125 25.203125 
L 14.890625 25.203125 
Q 15.484375 15.921875 20.484375 11.0625 
Q 25.484375 6.203125 34.421875 6.203125 
Q 39.59375 6.203125 44.453125 7.46875 
Q 49.3125 8.734375 54.109375 11.28125 
L 54.109375 2.78125 
Q 49.265625 0.734375 44.1875 -0.34375 
Q 39.109375 -1.421875 33.890625 -1.421875 
Q 20.796875 -1.421875 13.15625 6.1875 
Q 5.515625 13.8125 5.515625 26.8125 
Q 5.515625 40.234375 12.765625 48.109375 
Q 20.015625 56 32.328125 56 
Q 43.359375 56 49.78125 48.890625 
Q 56.203125 41.796875 56.203125 29.59375 
z
M 47.21875 32.234375 
Q 47.125 39.59375 43.09375 43.984375 
Q 39.0625 48.390625 32.421875 48.390625 
Q 24.90625 48.390625 20.390625 44.140625 
Q 15.875 39.890625 15.1875 32.171875 
z
" id="DejaVuSans-101"/>
      <path d="M 14.796875 27.296875 
Q 14.796875 17.390625 18.875 11.75 
Q 22.953125 6.109375 30.078125 6.109375 
Q 37.203125 6.109375 41.296875 11.75 
Q 45.40625 17.390625 45.40625 27.296875 
Q 45.40625 37.203125 41.296875 42.84375 
Q 37.203125 48.484375 30.078125 48.484375 
Q 22.953125 48.484375 18.875 42.84375 
Q 14.796875 37.203125 14.796875 27.296875 
z
M 45.40625 8.203125 
Q 42.578125 3.328125 38.25 0.953125 
Q 33.9375 -1.421875 27.875 -1.421875 
Q 17.96875 -1.421875 11.734375 6.484375 
Q 5.515625 14.40625 5.515625 27.296875 
Q 5.515625 40.1875 11.734375 48.09375 
Q 17.96875 56 27.875 56 
Q 33.9375 56 38.25 53.625 
Q 42.578125 51.265625 45.40625 46.390625 
L 45.40625 54.6875 
L 54.390625 54.6875 
L 54.390625 -20.796875 
L 45.40625 -20.796875 
z
" id="DejaVuSans-113"/>
      <path d="M 8.5 21.578125 
L 8.5 54.6875 
L 17.484375 54.6875 
L 17.484375 21.921875 
Q 17.484375 14.15625 20.5 10.265625 
Q 23.53125 6.390625 29.59375 6.390625 
Q 36.859375 6.390625 41.078125 11.03125 
Q 45.3125 15.671875 45.3125 23.6875 
L 45.3125 54.6875 
L 54.296875 54.6875 
L 54.296875 0 
L 45.3125 0 
L 45.3125 8.40625 
Q 42.046875 3.421875 37.71875 1 
Q 33.40625 -1.421875 27.6875 -1.421875 
Q 18.265625 -1.421875 13.375 4.4375 
Q 8.5 10.296875 8.5 21.578125 
z
M 31.109375 56 
z
" id="DejaVuSans-117"/>
      <path d="M 56.203125 29.59375 
L 56.203125 25.203125 
L 14.890625 25.203125 
Q 15.484375 15.921875 20.484375 11.0625 
Q 25.484375 6.203125 34.421875 6.203125 
Q 39.59375 6.203125 44.453125 7.46875 
Q 49.3125 8.734375 54.109375 11.28125 
L 54.109375 2.78125 
Q 49.265625 0.734375 44.1875 -0.34375 
Q 39.109375 -1.421875 33.890625 -1.421875 
Q 20.796875 -1.421875 13.15625 6.1875 
Q 5.515625 13.8125 5.515625 26.8125 
Q 5.515625 40.234375 12.765625 48.109375 
Q 20.015625 56 32.328125 56 
Q 43.359375 56 49.78125 48.890625 
Q 56.203125 41.796875 56.203125 29.59375 
z
M 47.21875 32.234375 
Q 47.125 39.59375 43.09375 43.984375 
Q 39.0625 48.390625 32.421875 48.390625 
Q 24.90625 48.390625 20.390625 44.140625 
Q 15.875 39.890625 15.1875 32.171875 
z
M 28.171875 79.984375 
L 35.40625 79.984375 
L 47.359375 61.625 
L 40.578125 61.625 
L 31.78125 73.578125 
L 23 61.625 
L 16.21875 61.625 
z
" id="DejaVuSans-234"/>
      <path d="M 54.890625 33.015625 
L 54.890625 0 
L 45.90625 0 
L 45.90625 32.71875 
Q 45.90625 40.484375 42.875 44.328125 
Q 39.84375 48.1875 33.796875 48.1875 
Q 26.515625 48.1875 22.3125 43.546875 
Q 18.109375 38.921875 18.109375 30.90625 
L 18.109375 0 
L 9.078125 0 
L 9.078125 54.6875 
L 18.109375 54.6875 
L 18.109375 46.1875 
Q 21.34375 51.125 25.703125 53.5625 
Q 30.078125 56 35.796875 56 
Q 45.21875 56 50.046875 50.171875 
Q 54.890625 44.34375 54.890625 33.015625 
z
" id="DejaVuSans-110"/>
      <path d="M 48.78125 52.59375 
L 48.78125 44.1875 
Q 44.96875 46.296875 41.140625 47.34375 
Q 37.3125 48.390625 33.40625 48.390625 
Q 24.65625 48.390625 19.8125 42.84375 
Q 14.984375 37.3125 14.984375 27.296875 
Q 14.984375 17.28125 19.8125 11.734375 
Q 24.65625 6.203125 33.40625 6.203125 
Q 37.3125 6.203125 41.140625 7.25 
Q 44.96875 8.296875 48.78125 10.40625 
L 48.78125 2.09375 
Q 45.015625 0.34375 40.984375 -0.53125 
Q 36.96875 -1.421875 32.421875 -1.421875 
Q 20.0625 -1.421875 12.78125 6.34375 
Q 5.515625 14.109375 5.515625 27.296875 
Q 5.515625 40.671875 12.859375 48.328125 
Q 20.21875 56 33.015625 56 
Q 37.15625 56 41.109375 55.140625 
Q 45.0625 54.296875 48.78125 52.59375 
z
" id="DejaVuSans-99"/>
      <path d="M 9.421875 54.6875 
L 18.40625 54.6875 
L 18.40625 0 
L 9.421875 0 
z
M 9.421875 75.984375 
L 18.40625 75.984375 
L 18.40625 64.59375 
L 9.421875 64.59375 
z
" id="DejaVuSans-105"/>
      <path d="M 34.28125 27.484375 
Q 23.390625 27.484375 19.1875 25 
Q 14.984375 22.515625 14.984375 16.5 
Q 14.984375 11.71875 18.140625 8.90625 
Q 21.296875 6.109375 26.703125 6.109375 
Q 34.1875 6.109375 38.703125 11.40625 
Q 43.21875 16.703125 43.21875 25.484375 
L 43.21875 27.484375 
z
M 52.203125 31.203125 
L 52.203125 0 
L 43.21875 0 
L 43.21875 8.296875 
Q 40.140625 3.328125 35.546875 0.953125 
Q 30.953125 -1.421875 24.3125 -1.421875 
Q 15.921875 -1.421875 10.953125 3.296875 
Q 6 8.015625 6 15.921875 
Q 6 25.140625 12.171875 29.828125 
Q 18.359375 34.515625 30.609375 34.515625 
L 43.21875 34.515625 
L 43.21875 35.40625 
Q 43.21875 41.609375 39.140625 45 
Q 35.0625 48.390625 27.6875 48.390625 
Q 23 48.390625 18.546875 47.265625 
Q 14.109375 46.140625 10.015625 43.890625 
L 10.015625 52.203125 
Q 14.9375 54.109375 19.578125 55.046875 
Q 24.21875 56 28.609375 56 
Q 40.484375 56 46.34375 49.84375 
Q 52.203125 43.703125 52.203125 31.203125 
z
" id="DejaVuSans-97"/>
      <path id="DejaVuSans-32"/>
      <path d="M 45.40625 46.390625 
L 45.40625 75.984375 
L 54.390625 75.984375 
L 54.390625 0 
L 45.40625 0 
L 45.40625 8.203125 
Q 42.578125 3.328125 38.25 0.953125 
Q 33.9375 -1.421875 27.875 -1.421875 
Q 17.96875 -1.421875 11.734375 6.484375 
Q 5.515625 14.40625 5.515625 27.296875 
Q 5.515625 40.1875 11.734375 48.09375 
Q 17.96875 56 27.875 56 
Q 33.9375 56 38.25 53.625 
Q 42.578125 51.265625 45.40625 46.390625 
z
M 14.796875 27.296875 
Q 14.796875 17.390625 18.875 11.75 
Q 22.953125 6.109375 30.078125 6.109375 
Q 37.203125 6.109375 41.296875 11.75 
Q 45.40625 17.390625 45.40625 27.296875 
Q 45.40625 37.203125 41.296875 42.84375 
Q 37.203125 48.484375 30.078125 48.484375 
Q 22.953125 48.484375 18.875 42.84375 
Q 14.796875 37.203125 14.796875 27.296875 
z
" id="DejaVuSans-100"/>
      <path d="M 30.609375 48.390625 
Q 23.390625 48.390625 19.1875 42.75 
Q 14.984375 37.109375 14.984375 27.296875 
Q 14.984375 17.484375 19.15625 11.84375 
Q 23.34375 6.203125 30.609375 6.203125 
Q 37.796875 6.203125 41.984375 11.859375 
Q 46.1875 17.53125 46.1875 27.296875 
Q 46.1875 37.015625 41.984375 42.703125 
Q 37.796875 48.390625 30.609375 48.390625 
z
M 30.609375 56 
Q 42.328125 56 49.015625 48.375 
Q 55.71875 40.765625 55.71875 27.296875 
Q 55.71875 13.875 49.015625 6.21875 
Q 42.328125 -1.421875 30.609375 -1.421875 
Q 18.84375 -1.421875 12.171875 6.21875 
Q 5.515625 13.875 5.515625 27.296875 
Q 5.515625 40.765625 12.171875 48.375 
Q 18.84375 56 30.609375 56 
z
" id="DejaVuSans-111"/>
      <path d="M 44.28125 53.078125 
L 44.28125 44.578125 
Q 40.484375 46.53125 36.375 47.5 
Q 32.28125 48.484375 27.875 48.484375 
Q 21.1875 48.484375 17.84375 46.4375 
Q 14.5 44.390625 14.5 40.28125 
Q 14.5 37.15625 16.890625 35.375 
Q 19.28125 33.59375 26.515625 31.984375 
L 29.59375 31.296875 
Q 39.15625 29.25 43.1875 25.515625 
Q 47.21875 21.78125 47.21875 15.09375 
Q 47.21875 7.46875 41.1875 3.015625 
Q 35.15625 -1.421875 24.609375 -1.421875 
Q 20.21875 -1.421875 15.453125 -0.5625 
Q 10.6875 0.296875 5.421875 2 
L 5.421875 11.28125 
Q 10.40625 8.6875 15.234375 7.390625 
Q 20.0625 6.109375 24.8125 6.109375 
Q 31.15625 6.109375 34.5625 8.28125 
Q 37.984375 10.453125 37.984375 14.40625 
Q 37.984375 18.0625 35.515625 20.015625 
Q 33.0625 21.96875 24.703125 23.78125 
L 21.578125 24.515625 
Q 13.234375 26.265625 9.515625 29.90625 
Q 5.8125 33.546875 5.8125 39.890625 
Q 5.8125 47.609375 11.28125 51.796875 
Q 16.75 56 26.8125 56 
Q 31.78125 56 36.171875 55.265625 
Q 40.578125 54.546875 44.28125 53.078125 
z
" id="DejaVuSans-115"/>
      <path d="M 18.3125 70.21875 
L 18.3125 54.6875 
L 36.8125 54.6875 
L 36.8125 47.703125 
L 18.3125 47.703125 
L 18.3125 18.015625 
Q 18.3125 11.328125 20.140625 9.421875 
Q 21.96875 7.515625 27.59375 7.515625 
L 36.8125 7.515625 
L 36.8125 0 
L 27.59375 0 
Q 17.1875 0 13.234375 3.875 
Q 9.28125 7.765625 9.28125 18.015625 
L 9.28125 47.703125 
L 2.6875 47.703125 
L 2.6875 54.6875 
L 9.28125 54.6875 
L 9.28125 70.21875 
z
" id="DejaVuSans-116"/>
      <path d="M 20.703125 79.984375 
L 30.421875 79.984375 
L 14.5 61.625 
L 7.03125 61.625 
z
M 9.421875 54.6875 
L 18.40625 54.6875 
L 18.40625 0 
L 9.421875 0 
z
M 13.921875 56 
z
" id="DejaVuSans-237"/>
      <path d="M 52 44.1875 
Q 55.375 50.25 60.0625 53.125 
Q 64.75 56 71.09375 56 
Q 79.640625 56 84.28125 50.015625 
Q 88.921875 44.046875 88.921875 33.015625 
L 88.921875 0 
L 79.890625 0 
L 79.890625 32.71875 
Q 79.890625 40.578125 77.09375 44.375 
Q 74.3125 48.1875 68.609375 48.1875 
Q 61.625 48.1875 57.5625 43.546875 
Q 53.515625 38.921875 53.515625 30.90625 
L 53.515625 0 
L 44.484375 0 
L 44.484375 32.71875 
Q 44.484375 40.625 41.703125 44.40625 
Q 38.921875 48.1875 33.109375 48.1875 
Q 26.21875 48.1875 22.15625 43.53125 
Q 18.109375 38.875 18.109375 30.90625 
L 18.109375 0 
L 9.078125 0 
L 9.078125 54.6875 
L 18.109375 54.6875 
L 18.109375 46.1875 
Q 21.1875 51.21875 25.484375 53.609375 
Q 29.78125 56 35.6875 56 
Q 41.65625 56 45.828125 52.96875 
Q 50 49.953125 52 44.1875 
z
" id="DejaVuSans-109"/>
      <path d="M 9.421875 75.984375 
L 18.40625 75.984375 
L 18.40625 0 
L 9.421875 0 
z
" id="DejaVuSans-108"/>
      <path d="M 30.609375 48.390625 
Q 23.390625 48.390625 19.1875 42.75 
Q 14.984375 37.109375 14.984375 27.296875 
Q 14.984375 17.484375 19.15625 11.84375 
Q 23.34375 6.203125 30.609375 6.203125 
Q 37.796875 6.203125 41.984375 11.859375 
Q 46.1875 17.53125 46.1875 27.296875 
Q 46.1875 37.015625 41.984375 42.703125 
Q 37.796875 48.390625 30.609375 48.390625 
z
M 30.609375 56 
Q 42.328125 56 49.015625 48.375 
Q 55.71875 40.765625 55.71875 27.296875 
Q 55.71875 13.875 49.015625 6.21875 
Q 42.328125 -1.421875 30.609375 -1.421875 
Q 18.84375 -1.421875 12.171875 6.21875 
Q 5.515625 13.875 5.515625 27.296875 
Q 5.515625 40.765625 12.171875 48.375 
Q 18.84375 56 30.609375 56 
z
M 27 79.984375 
L 34.234375 79.984375 
L 46.1875 61.625 
L 39.40625 61.625 
L 30.609375 73.578125 
L 21.828125 61.625 
L 15.046875 61.625 
z
" id="DejaVuSans-244"/>
      <path d="M 31 75.875 
Q 24.46875 64.65625 21.28125 53.65625 
Q 18.109375 42.671875 18.109375 31.390625 
Q 18.109375 20.125 21.3125 9.0625 
Q 24.515625 -2 31 -13.1875 
L 23.1875 -13.1875 
Q 15.875 -1.703125 12.234375 9.375 
Q 8.59375 20.453125 8.59375 31.390625 
Q 8.59375 42.28125 12.203125 53.3125 
Q 15.828125 64.359375 23.1875 75.875 
z
" id="DejaVuSans-40"/>
      <path d="M 9.8125 72.90625 
L 19.671875 72.90625 
L 19.671875 43.015625 
L 55.515625 43.015625 
L 55.515625 72.90625 
L 65.375 72.90625 
L 65.375 0 
L 55.515625 0 
L 55.515625 34.71875 
L 19.671875 34.71875 
L 19.671875 0 
L 9.8125 0 
z
" id="DejaVuSans-72"/>
      <path d="M 5.515625 54.6875 
L 48.1875 54.6875 
L 48.1875 46.484375 
L 14.40625 7.171875 
L 48.1875 7.171875 
L 48.1875 0 
L 4.296875 0 
L 4.296875 8.203125 
L 38.09375 47.515625 
L 5.515625 47.515625 
z
" id="DejaVuSans-122"/>
      <path d="M 8.015625 75.875 
L 15.828125 75.875 
Q 23.140625 64.359375 26.78125 53.3125 
Q 30.421875 42.28125 30.421875 31.390625 
Q 30.421875 20.453125 26.78125 9.375 
Q 23.140625 -1.703125 15.828125 -13.1875 
L 8.015625 -13.1875 
Q 14.5 -2 17.703125 9.0625 
Q 20.90625 20.125 20.90625 31.390625 
Q 20.90625 42.671875 17.703125 53.65625 
Q 14.5 64.65625 8.015625 75.875 
z
" id="DejaVuSans-41"/>
     </defs>
     <g transform="translate(134.037344 336.260562)scale(0.1 -0.1)">
      <use xlink:href="#DejaVuSans-70"/>
      <use x="57.410156" xlink:href="#DejaVuSans-114"/>
      <use x="98.492188" xlink:href="#DejaVuSans-101"/>
      <use x="160.015625" xlink:href="#DejaVuSans-113"/>
      <use x="223.492188" xlink:href="#DejaVuSans-117"/>
      <use x="286.871094" xlink:href="#DejaVuSans-234"/>
      <use x="348.394531" xlink:href="#DejaVuSans-110"/>
      <use x="411.773438" xlink:href="#DejaVuSans-99"/>
      <use x="466.753906" xlink:href="#DejaVuSans-105"/>
      <use x="494.537109" xlink:href="#DejaVuSans-97"/>
      <use x="555.816406" xlink:href="#DejaVuSans-32"/>
      <use x="587.603516" xlink:href="#DejaVuSans-100"/>
      <use x="651.080078" xlink:href="#DejaVuSans-111"/>
      <use x="712.261719" xlink:href="#DejaVuSans-32"/>
      <use x="744.048828" xlink:href="#DejaVuSans-101"/>
      <use x="805.572266" xlink:href="#DejaVuSans-115"/>
      <use x="857.671875" xlink:href="#DejaVuSans-116"/>
      <use x="896.880859" xlink:href="#DejaVuSans-237"/>
      <use x="924.664062" xlink:href="#DejaVuSans-109"/>
      <use x="1022.076172" xlink:href="#DejaVuSans-117"/>
      <use x="1085.455078" xlink:href="#DejaVuSans-108"/>
      <use x="1113.238281" xlink:href="#DejaVuSans-111"/>
      <use x="1174.419922" xlink:href="#DejaVuSans-32"/>
      <use x="1206.207031" xlink:href="#DejaVuSans-97"/>
      <use x="1267.486328" xlink:href="#DejaVuSans-110"/>
      <use x="1330.865234" xlink:href="#DejaVuSans-116"/>
      <use x="1370.074219" xlink:href="#DejaVuSans-105"/>
      <use x="1397.857422" xlink:href="#DejaVuSans-100"/>
      <use x="1461.333984" xlink:href="#DejaVuSans-114"/>
      <use x="1502.416016" xlink:href="#DejaVuSans-244"/>
      <use x="1563.597656" xlink:href="#DejaVuSans-109"/>
      <use x="1661.009766" xlink:href="#DejaVuSans-105"/>
      <use x="1688.792969" xlink:href="#DejaVuSans-99"/>
      <use x="1743.773438" xlink:href="#DejaVuSans-111"/>
      <use x="1804.955078" xlink:href="#DejaVuSans-32"/>
      <use x="1836.742188" xlink:href="#DejaVuSans-40"/>
      <use x="1875.755859" xlink:href="#DejaVuSans-72"/>
      <use x="1950.951172" xlink:href="#DejaVuSans-122"/>
      <use x="2003.441406" xlink:href="#DejaVuSans-41"/>
     </g>
    </g>
   </g>
   <g id="matplotlib.axis_2">
    <g id="ytick_1">
     <g id="line2d_9">
      <defs>
       <path d="M 0 0 
L -3.5 0 
" id="mee3e17ec5f" style="stroke:#000000;stroke-width:0.8;"/>
      </defs>
      <g>
       <use style="stroke:#000000;stroke-width:0.8;" x="57.6" xlink:href="#mee3e17ec5f" y="295.488"/>
      </g>
     </g>
     <g id="text_10">
      <!-- 0 -->
      <g transform="translate(44.2375 299.287219)scale(0.1 -0.1)">
       <use xlink:href="#DejaVuSans-48"/>
      </g>
     </g>
    </g>
    <g id="ytick_2">
     <g id="line2d_10">
      <g>
       <use style="stroke:#000000;stroke-width:0.8;" x="57.6" xlink:href="#mee3e17ec5f" y="240.021115"/>
      </g>
     </g>
     <g id="text_11">
      <!-- 50 -->
      <g transform="translate(37.875 243.820333)scale(0.1 -0.1)">
       <use xlink:href="#DejaVuSans-53"/>
       <use x="63.623047" xlink:href="#DejaVuSans-48"/>
      </g>
     </g>
    </g>
    <g id="ytick_3">
     <g id="line2d_11">
      <g>
       <use style="stroke:#000000;stroke-width:0.8;" x="57.6" xlink:href="#mee3e17ec5f" y="184.554229"/>
      </g>
     </g>
     <g id="text_12">
      <!-- 100 -->
      <g transform="translate(31.5125 188.353448)scale(0.1 -0.1)">
       <use xlink:href="#DejaVuSans-49"/>
       <use x="63.623047" xlink:href="#DejaVuSans-48"/>
       <use x="127.246094" xlink:href="#DejaVuSans-48"/>
      </g>
     </g>
    </g>
    <g id="ytick_4">
     <g id="line2d_12">
      <g>
       <use style="stroke:#000000;stroke-width:0.8;" x="57.6" xlink:href="#mee3e17ec5f" y="129.087344"/>
      </g>
     </g>
     <g id="text_13">
      <!-- 150 -->
      <g transform="translate(31.5125 132.886562)scale(0.1 -0.1)">
       <use xlink:href="#DejaVuSans-49"/>
       <use x="63.623047" xlink:href="#DejaVuSans-53"/>
       <use x="127.246094" xlink:href="#DejaVuSans-48"/>
      </g>
     </g>
    </g>
    <g id="ytick_5">
     <g id="line2d_13">
      <g>
       <use style="stroke:#000000;stroke-width:0.8;" x="57.6" xlink:href="#mee3e17ec5f" y="73.620458"/>
      </g>
     </g>
     <g id="text_14">
      <!-- 200 -->
      <g transform="translate(31.5125 77.419677)scale(0.1 -0.1)">
       <use xlink:href="#DejaVuSans-50"/>
       <use x="63.623047" xlink:href="#DejaVuSans-48"/>
       <use x="127.246094" xlink:href="#DejaVuSans-48"/>
      </g>
     </g>
    </g>
    <g id="text_15">
     <!-- Taxa de disparo da CR (pps) -->
     <defs>
      <path d="M -0.296875 72.90625 
L 61.375 72.90625 
L 61.375 64.59375 
L 35.5 64.59375 
L 35.5 0 
L 25.59375 0 
L 25.59375 64.59375 
L -0.296875 64.59375 
z
" id="DejaVuSans-84"/>
      <path d="M 54.890625 54.6875 
L 35.109375 28.078125 
L 55.90625 0 
L 45.3125 0 
L 29.390625 21.484375 
L 13.484375 0 
L 2.875 0 
L 24.125 28.609375 
L 4.6875 54.6875 
L 15.28125 54.6875 
L 29.78125 35.203125 
L 44.28125 54.6875 
z
" id="DejaVuSans-120"/>
      <path d="M 18.109375 8.203125 
L 18.109375 -20.796875 
L 9.078125 -20.796875 
L 9.078125 54.6875 
L 18.109375 54.6875 
L 18.109375 46.390625 
Q 20.953125 51.265625 25.265625 53.625 
Q 29.59375 56 35.59375 56 
Q 45.5625 56 51.78125 48.09375 
Q 58.015625 40.1875 58.015625 27.296875 
Q 58.015625 14.40625 51.78125 6.484375 
Q 45.5625 -1.421875 35.59375 -1.421875 
Q 29.59375 -1.421875 25.265625 0.953125 
Q 20.953125 3.328125 18.109375 8.203125 
z
M 48.6875 27.296875 
Q 48.6875 37.203125 44.609375 42.84375 
Q 40.53125 48.484375 33.40625 48.484375 
Q 26.265625 48.484375 22.1875 42.84375 
Q 18.109375 37.203125 18.109375 27.296875 
Q 18.109375 17.390625 22.1875 11.75 
Q 26.265625 6.109375 33.40625 6.109375 
Q 40.53125 6.109375 44.609375 11.75 
Q 48.6875 17.390625 48.6875 27.296875 
z
" id="DejaVuSans-112"/>
      <path d="M 64.40625 67.28125 
L 64.40625 56.890625 
Q 59.421875 61.53125 53.78125 63.8125 
Q 48.140625 66.109375 41.796875 66.109375 
Q 29.296875 66.109375 22.65625 58.46875 
Q 16.015625 50.828125 16.015625 36.375 
Q 16.015625 21.96875 22.65625 14.328125 
Q 29.296875 6.6875 41.796875 6.6875 
Q 48.140625 6.6875 53.78125 8.984375 
Q 59.421875 11.28125 64.40625 15.921875 
L 64.40625 5.609375 
Q 59.234375 2.09375 53.4375 0.328125 
Q 47.65625 -1.421875 41.21875 -1.421875 
Q 24.65625 -1.421875 15.125 8.703125 
Q 5.609375 18.84375 5.609375 36.375 
Q 5.609375 53.953125 15.125 64.078125 
Q 24.65625 74.21875 41.21875 74.21875 
Q 47.75 74.21875 53.53125 72.484375 
Q 59.328125 70.75 64.40625 67.28125 
z
" id="DejaVuSans-67"/>
      <path d="M 44.390625 34.1875 
Q 47.5625 33.109375 50.5625 29.59375 
Q 53.5625 26.078125 56.59375 19.921875 
L 66.609375 0 
L 56 0 
L 46.6875 18.703125 
Q 43.0625 26.03125 39.671875 28.421875 
Q 36.28125 30.8125 30.421875 30.8125 
L 19.671875 30.8125 
L 19.671875 0 
L 9.8125 0 
L 9.8125 72.90625 
L 32.078125 72.90625 
Q 44.578125 72.90625 50.734375 67.671875 
Q 56.890625 62.453125 56.890625 51.90625 
Q 56.890625 45.015625 53.6875 40.46875 
Q 50.484375 35.9375 44.390625 34.1875 
z
M 19.671875 64.796875 
L 19.671875 38.921875 
L 32.078125 38.921875 
Q 39.203125 38.921875 42.84375 42.21875 
Q 46.484375 45.515625 46.484375 51.90625 
Q 46.484375 58.296875 42.84375 61.546875 
Q 39.203125 64.796875 32.078125 64.796875 
z
" id="DejaVuSans-82"/>
     </defs>
     <g transform="translate(25.432812 245.431125)rotate(-90)scale(0.1 -0.1)">
      <use xlink:href="#DejaVuSans-84"/>
      <use x="60.833984" xlink:href="#DejaVuSans-97"/>
      <use x="122.113281" xlink:href="#DejaVuSans-120"/>
      <use x="181.292969" xlink:href="#DejaVuSans-97"/>
      <use x="242.572266" xlink:href="#DejaVuSans-32"/>
      <use x="274.359375" xlink:href="#DejaVuSans-100"/>
      <use x="337.835938" xlink:href="#DejaVuSans-101"/>
      <use x="399.359375" xlink:href="#DejaVuSans-32"/>
      <use x="431.146484" xlink:href="#DejaVuSans-100"/>
      <use x="494.623047" xlink:href="#DejaVuSans-105"/>
      <use x="522.40625" xlink:href="#DejaVuSans-115"/>
      <use x="574.505859" xlink:href="#DejaVuSans-112"/>
      <use x="637.982422" xlink:href="#DejaVuSans-97"/>
      <use x="699.261719" xlink:href="#DejaVuSans-114"/>
      <use x="740.34375" xlink:href="#DejaVuSans-111"/>
      <use x="801.525391" xlink:href="#DejaVuSans-32"/>
      <use x="833.3125" xlink:href="#DejaVuSans-100"/>
      <use x="896.789062" xlink:href="#DejaVuSans-97"/>
      <use x="958.068359" xlink:href="#DejaVuSans-32"/>
      <use x="989.855469" xlink:href="#DejaVuSans-67"/>
      <use x="1059.679688" xlink:href="#DejaVuSans-82"/>
      <use x="1129.162109" xlink:href="#DejaVuSans-32"/>
      <use x="1160.949219" xlink:href="#DejaVuSans-40"/>
      <use x="1199.962891" xlink:href="#DejaVuSans-112"/>
      <use x="1263.439453" xlink:href="#DejaVuSans-112"/>
      <use x="1326.916016" xlink:href="#DejaVuSans-115"/>
      <use x="1379.015625" xlink:href="#DejaVuSans-41"/>
     </g>
    </g>
   </g>
   <g id="line2d_14">
    <path clip-path="url(#p0140a983a5)" d="M 73.832727 295.488 
L 77.112066 291.285958 
L 80.391405 287.145175 
L 83.670744 283.064322 
L 86.950083 279.042105 
L 90.229421 275.077271 
L 93.50876 271.168601 
L 96.788099 267.314909 
L 100.067438 263.515043 
L 103.346777 259.767884 
L 106.626116 256.072342 
L 109.905455 252.427358 
L 113.184793 248.831903 
L 116.464132 245.284972 
L 119.743471 241.785591 
L 123.02281 238.332809 
L 126.302149 234.925702 
L 129.581488 231.56337 
L 132.860826 228.244935 
L 136.140165 224.969544 
L 139.419504 221.736365 
L 142.698843 218.544586 
L 145.978182 215.393417 
L 149.257521 212.28209 
L 152.53686 209.209851 
L 155.816198 206.175971 
L 159.095537 203.179734 
L 162.374876 200.220444 
L 165.654215 197.297423 
L 168.933554 194.410006 
L 172.212893 191.557549 
L 175.492231 188.73942 
L 178.77157 185.955002 
L 182.050909 183.203695 
L 185.330248 180.484911 
L 188.609587 177.798077 
L 191.888926 175.142634 
L 195.168264 172.518034 
L 198.447603 169.923742 
L 201.726942 167.359238 
L 205.006281 164.824011 
L 208.28562 162.317562 
L 211.564959 159.839404 
L 214.844298 157.389061 
L 218.123636 154.966067 
L 221.402975 152.569967 
L 224.682314 150.200316 
L 227.961653 147.856678 
L 231.240992 145.538626 
L 234.520331 143.245745 
L 237.799669 140.977627 
L 241.079008 138.733872 
L 244.358347 136.51409 
L 247.637686 134.317899 
L 250.917025 132.144925 
L 254.196364 129.994802 
L 257.475702 127.86717 
L 260.755041 125.76168 
L 264.03438 123.677987 
L 267.313719 121.615754 
L 270.593058 119.574651 
L 273.872397 117.554357 
L 277.151736 115.554553 
L 280.431074 113.57493 
L 283.710413 111.615183 
L 286.989752 109.675016 
L 290.269091 107.754135 
L 293.54843 105.852255 
L 296.827769 103.969096 
L 300.107107 102.104382 
L 303.386446 100.257843 
L 306.665785 98.429215 
L 309.945124 96.618239 
L 313.224463 94.824661 
L 316.503802 93.04823 
L 319.78314 91.288702 
L 323.062479 89.545838 
L 326.341818 87.819401 
L 329.621157 86.10916 
L 332.900496 84.414889 
L 336.179835 82.736364 
L 339.459174 81.073368 
L 342.738512 79.425685 
L 346.017851 77.793106 
L 349.29719 76.175423 
L 352.576529 74.572434 
L 355.855868 72.983939 
L 359.135207 71.409742 
L 362.414545 69.849652 
L 365.693884 68.30348 
L 368.973223 66.771039 
L 372.252562 65.252149 
L 375.531901 63.74663 
L 378.81124 62.254306 
L 382.090579 60.775005 
L 385.369917 59.308557 
L 388.649256 57.854795 
L 391.928595 56.413555 
L 395.207934 54.984676 
L 398.487273 53.568 
" style="fill:none;stroke:#1f77b4;stroke-linecap:square;stroke-width:1.5;"/>
   </g>
   <g id="line2d_15">
    <path clip-path="url(#p0140a983a5)" d="M 73.832727 295.488 
L 77.112066 291.323535 
L 80.391405 287.224217 
L 83.670744 283.188528 
L 86.950083 279.214999 
L 90.229421 275.302203 
L 93.50876 271.44876 
L 96.788099 267.65333 
L 100.067438 263.914611 
L 103.346777 260.231342 
L 106.626116 256.602298 
L 109.905455 253.026292 
L 113.184793 249.502169 
L 116.464132 246.028807 
L 119.743471 242.605117 
L 123.02281 239.230043 
L 126.302149 235.902555 
L 129.581488 232.621655 
L 132.860826 229.38637 
L 136.140165 226.195756 
L 139.419504 223.048894 
L 142.698843 219.944891 
L 145.978182 216.882876 
L 149.257521 213.862003 
L 152.53686 210.88145 
L 155.816198 207.940413 
L 159.095537 205.038112 
L 162.374876 202.173787 
L 165.654215 199.346697 
L 168.933554 196.556122 
L 172.212893 193.801357 
L 175.492231 191.081719 
L 178.77157 188.396539 
L 182.050909 185.745167 
L 185.330248 183.126969 
L 188.609587 180.541325 
L 191.888926 177.987632 
L 195.168264 175.465301 
L 198.447603 172.973759 
L 201.726942 170.512446 
L 205.006281 168.080813 
L 208.28562 165.678328 
L 211.564959 163.304469 
L 214.844298 160.958729 
L 218.123636 158.64061 
L 221.402975 156.349627 
L 224.682314 154.085307 
L 227.961653 151.847187 
L 231.240992 149.634814 
L 234.520331 147.447748 
L 237.799669 145.285556 
L 241.079008 143.147816 
L 244.358347 141.034116 
L 247.637686 138.944052 
L 250.917025 136.877231 
L 254.196364 134.833267 
L 257.475702 132.811782 
L 260.755041 130.812409 
L 264.03438 128.834785 
L 267.313719 126.878558 
L 270.593058 124.943384 
L 273.872397 123.028922 
L 277.151736 121.134844 
L 280.431074 119.260825 
L 283.710413 117.406548 
L 286.989752 115.571703 
L 290.269091 113.755986 
L 293.54843 111.959099 
L 296.827769 110.180751 
L 300.107107 108.420657 
L 303.386446 106.678536 
L 306.665785 104.954116 
L 309.945124 103.247127 
L 313.224463 101.557307 
L 316.503802 99.884398 
L 319.78314 98.228147 
L 323.062479 96.588306 
L 326.341818 94.964634 
L 329.621157 93.356892 
L 332.900496 91.764847 
L 336.179835 90.18827 
L 339.459174 88.626936 
L 342.738512 87.080626 
L 346.017851 85.549124 
L 349.29719 84.032218 
L 352.576529 82.529701 
L 355.855868 81.041369 
L 359.135207 79.567021 
L 362.414545 78.106462 
L 365.693884 76.659499 
L 368.973223 75.225943 
L 372.252562 73.805609 
L 375.531901 72.398314 
L 378.81124 71.00388 
L 382.090579 69.622132 
L 385.369917 68.252896 
L 388.649256 66.896005 
L 391.928595 65.551291 
L 395.207934 64.218591 
L 398.487273 62.897746 
" style="fill:none;stroke:#ff7f0e;stroke-linecap:square;stroke-width:1.5;"/>
   </g>
   <g id="line2d_16">
    <path clip-path="url(#p0140a983a5)" d="M 73.832727 295.488 
L 77.112066 292.179732 
L 80.391405 288.912545 
L 83.670744 285.685679 
L 86.950083 282.498392 
L 90.229421 279.34996 
L 93.50876 276.239677 
L 96.788099 273.166854 
L 100.067438 270.130817 
L 103.346777 267.130912 
L 106.626116 264.166495 
L 109.905455 261.236942 
L 113.184793 258.34164 
L 116.464132 255.479993 
L 119.743471 252.651417 
L 123.02281 249.855342 
L 126.302149 247.091211 
L 129.581488 244.358481 
L 132.860826 241.656618 
L 136.140165 238.985103 
L 139.419504 236.343427 
L 142.698843 233.731093 
L 145.978182 231.147616 
L 149.257521 228.592519 
L 152.53686 226.065337 
L 155.816198 223.565616 
L 159.095537 221.09291 
L 162.374876 218.646783 
L 165.654215 216.22681 
L 168.933554 213.832574 
L 172.212893 211.463665 
L 175.492231 209.119684 
L 178.77157 206.800239 
L 182.050909 204.504948 
L 185.330248 202.233435 
L 188.609587 199.985333 
L 191.888926 197.76028 
L 195.168264 195.557926 
L 198.447603 193.377923 
L 201.726942 191.219935 
L 205.006281 189.083627 
L 208.28562 186.968677 
L 211.564959 184.874765 
L 214.844298 182.801578 
L 218.123636 180.748811 
L 221.402975 178.716162 
L 224.682314 176.703339 
L 227.961653 174.710052 
L 231.240992 172.736019 
L 234.520331 170.780961 
L 237.799669 168.844606 
L 241.079008 166.926688 
L 244.358347 165.026943 
L 247.637686 163.145116 
L 250.917025 161.280953 
L 254.196364 159.434208 
L 257.475702 157.604637 
L 260.755041 155.792002 
L 264.03438 153.996068 
L 267.313719 152.216606 
L 270.593058 150.453391 
L 273.872397 148.706201 
L 277.151736 146.974817 
L 280.431074 145.259028 
L 283.710413 143.558623 
L 286.989752 141.873396 
L 290.269091 140.203145 
L 293.54843 138.54767 
L 296.827769 136.906778 
L 300.107107 135.280276 
L 303.386446 133.667975 
L 306.665785 132.06969 
L 309.945124 130.48524 
L 313.224463 128.914446 
L 316.503802 127.357131 
L 319.78314 125.813123 
L 323.062479 124.282252 
L 326.341818 122.764352 
L 329.621157 121.259257 
L 332.900496 119.766807 
L 336.179835 118.286844 
L 339.459174 116.81921 
L 342.738512 115.363752 
L 346.017851 113.920321 
L 349.29719 112.488766 
L 352.576529 111.068942 
L 355.855868 109.660707 
L 359.135207 108.263917 
L 362.414545 106.878435 
L 365.693884 105.504123 
L 368.973223 104.140847 
L 372.252562 102.788475 
L 375.531901 101.446876 
L 378.81124 100.115922 
L 382.090579 98.795487 
L 385.369917 97.485447 
L 388.649256 96.185679 
L 391.928595 94.896063 
L 395.207934 93.616481 
L 398.487273 92.346816 
" style="fill:none;stroke:#2ca02c;stroke-linecap:square;stroke-width:1.5;"/>
   </g>
   <g id="line2d_17">
    <path clip-path="url(#p0140a983a5)" d="M 73.832727 295.488 
L 77.112066 291.226878 
L 80.391405 287.033044 
L 83.670744 282.904916 
L 86.950083 278.840963 
L 90.229421 274.839699 
L 93.50876 270.899685 
L 96.788099 267.019526 
L 100.067438 263.197867 
L 103.346777 259.433395 
L 106.626116 255.724837 
L 109.905455 252.070956 
L 113.184793 248.470551 
L 116.464132 244.922457 
L 119.743471 241.425543 
L 123.02281 237.978709 
L 126.302149 234.580886 
L 129.581488 231.231036 
L 132.860826 227.928152 
L 136.140165 224.671252 
L 139.419504 221.459382 
L 142.698843 218.291615 
L 145.978182 215.167048 
L 149.257521 212.084805 
L 152.53686 209.04403 
L 155.816198 206.043893 
L 159.095537 203.083584 
L 162.374876 200.162315 
L 165.654215 197.27932 
L 168.933554 194.43385 
L 172.212893 191.625179 
L 175.492231 188.852596 
L 178.77157 186.115411 
L 182.050909 183.41295 
L 185.330248 180.744556 
L 188.609587 178.10959 
L 191.888926 175.507426 
L 195.168264 172.937457 
L 198.447603 170.399089 
L 201.726942 167.891742 
L 205.006281 165.41485 
L 208.28562 162.967864 
L 211.564959 160.550243 
L 214.844298 158.161463 
L 218.123636 155.801011 
L 221.402975 153.468385 
L 224.682314 151.163097 
L 227.961653 148.884669 
L 231.240992 146.632634 
L 234.520331 144.406536 
L 237.799669 142.205929 
L 241.079008 140.030379 
L 244.358347 137.879459 
L 247.637686 135.752755 
L 250.917025 133.649858 
L 254.196364 131.570372 
L 257.475702 129.513907 
L 260.755041 127.480085 
L 264.03438 125.468532 
L 267.313719 123.478885 
L 270.593058 121.510788 
L 273.872397 119.563892 
L 277.151736 117.637858 
L 280.431074 115.732352 
L 283.710413 113.847046 
L 286.989752 111.981622 
L 290.269091 110.135767 
L 293.54843 108.309174 
L 296.827769 106.501544 
L 300.107107 104.712582 
L 303.386446 102.942002 
L 306.665785 101.18952 
L 309.945124 99.454862 
L 313.224463 97.737756 
L 316.503802 96.037937 
L 319.78314 94.355146 
L 323.062479 92.689129 
L 326.341818 91.039634 
L 329.621157 89.406419 
L 332.900496 87.789243 
L 336.179835 86.187871 
L 339.459174 84.602072 
L 342.738512 83.031621 
L 346.017851 81.476296 
L 349.29719 79.935879 
L 352.576529 78.410156 
L 355.855868 76.898919 
L 359.135207 75.401963 
L 362.414545 73.919085 
L 365.693884 72.450089 
L 368.973223 70.994779 
L 372.252562 69.552967 
L 375.531901 68.124464 
L 378.81124 66.709087 
L 382.090579 65.306657 
L 385.369917 63.916996 
L 388.649256 62.539932 
L 391.928595 61.175292 
L 395.207934 59.822911 
L 398.487273 58.482623 
" style="fill:none;stroke:#d62728;stroke-linecap:square;stroke-width:1.5;"/>
   </g>
   <g id="line2d_18">
    <path clip-path="url(#p0140a983a5)" d="M 73.832727 295.488 
L 77.112066 292.271228 
L 80.391405 289.104287 
L 83.670744 285.986028 
L 86.950083 282.915337 
L 90.229421 279.891134 
L 93.50876 276.912371 
L 96.788099 273.978032 
L 100.067438 271.08713 
L 103.346777 268.238707 
L 106.626116 265.431835 
L 109.905455 262.665611 
L 113.184793 259.939158 
L 116.464132 257.251625 
L 119.743471 254.602183 
L 123.02281 251.99003 
L 126.302149 249.414382 
L 129.581488 246.874482 
L 132.860826 244.369588 
L 136.140165 241.898983 
L 139.419504 239.461967 
L 142.698843 237.057859 
L 145.978182 234.685999 
L 149.257521 232.345741 
L 152.53686 230.036457 
L 155.816198 227.757538 
L 159.095537 225.508387 
L 162.374876 223.288426 
L 165.654215 221.097089 
L 168.933554 218.933828 
L 172.212893 216.798105 
L 175.492231 214.689398 
L 178.77157 212.607199 
L 182.050909 210.551009 
L 185.330248 208.520345 
L 188.609587 206.514734 
L 191.888926 204.533716 
L 195.168264 202.57684 
L 198.447603 200.643669 
L 201.726942 198.733775 
L 205.006281 196.846738 
L 208.28562 194.982152 
L 211.564959 193.139619 
L 214.844298 191.318748 
L 218.123636 189.519161 
L 221.402975 187.740486 
L 224.682314 185.982361 
L 227.961653 184.244432 
L 231.240992 182.526353 
L 234.520331 180.827786 
L 237.799669 179.1484 
L 241.079008 177.487872 
L 244.358347 175.845886 
L 247.637686 174.222134 
L 250.917025 172.616313 
L 254.196364 171.028128 
L 257.475702 169.45729 
L 260.755041 167.903517 
L 264.03438 166.366532 
L 267.313719 164.846063 
L 270.593058 163.341847 
L 273.872397 161.853624 
L 277.151736 160.381141 
L 280.431074 158.924149 
L 283.710413 157.482405 
L 286.989752 156.05567 
L 290.269091 154.643712 
L 293.54843 153.246303 
L 296.827769 151.863218 
L 300.107107 150.494238 
L 303.386446 149.139149 
L 306.665785 147.79774 
L 309.945124 146.469806 
L 313.224463 145.155144 
L 316.503802 143.853556 
L 319.78314 142.564848 
L 323.062479 141.28883 
L 326.341818 140.025316 
L 329.621157 138.774122 
L 332.900496 137.535069 
L 336.179835 136.307982 
L 339.459174 135.092687 
L 342.738512 133.889017 
L 346.017851 132.696803 
L 349.29719 131.515885 
L 352.576529 130.346102 
L 355.855868 129.187297 
L 359.135207 128.039317 
L 362.414545 126.90201 
L 365.693884 125.775229 
L 368.973223 124.658827 
L 372.252562 123.552663 
L 375.531901 122.456596 
L 378.81124 121.370488 
L 382.090579 120.294205 
L 385.369917 119.227613 
L 388.649256 118.170582 
L 391.928595 117.122985 
L 395.207934 116.084695 
L 398.487273 115.055589 
" style="fill:none;stroke:#9467bd;stroke-linecap:square;stroke-width:1.5;"/>
   </g>
   <g id="line2d_19">
    <path clip-path="url(#p0140a983a5)" d="M 73.832727 295.488 
L 77.112066 292.179732 
L 80.391405 288.912545 
L 83.670744 285.685679 
L 86.950083 282.498392 
L 90.229421 279.34996 
L 93.50876 276.239677 
L 96.788099 273.166854 
L 100.067438 270.130817 
L 103.346777 267.130912 
L 106.626116 264.166495 
L 109.905455 261.236942 
L 113.184793 258.34164 
L 116.464132 255.479993 
L 119.743471 252.651417 
L 123.02281 249.855342 
L 126.302149 247.091211 
L 129.581488 244.358481 
L 132.860826 241.656618 
L 136.140165 238.985103 
L 139.419504 236.343427 
L 142.698843 233.731093 
L 145.978182 231.147616 
L 149.257521 228.592519 
L 152.53686 226.065337 
L 155.816198 223.565616 
L 159.095537 221.09291 
L 162.374876 218.646783 
L 165.654215 216.22681 
L 168.933554 213.832574 
L 172.212893 211.463665 
L 175.492231 209.119684 
L 178.77157 206.800239 
L 182.050909 204.504948 
L 185.330248 202.233435 
L 188.609587 199.985333 
L 191.888926 197.76028 
L 195.168264 195.557926 
L 198.447603 193.377923 
L 201.726942 191.219935 
L 205.006281 189.083627 
L 208.28562 186.968677 
L 211.564959 184.874765 
L 214.844298 182.801578 
L 218.123636 180.748811 
L 221.402975 178.716162 
L 224.682314 176.703339 
L 227.961653 174.710052 
L 231.240992 172.736019 
L 234.520331 170.780961 
L 237.799669 168.844606 
L 241.079008 166.926688 
L 244.358347 165.026943 
L 247.637686 163.145116 
L 250.917025 161.280953 
L 254.196364 159.434208 
L 257.475702 157.604637 
L 260.755041 155.792002 
L 264.03438 153.996068 
L 267.313719 152.216606 
L 270.593058 150.453391 
L 273.872397 148.706201 
L 277.151736 146.974817 
L 280.431074 145.259028 
L 283.710413 143.558623 
L 286.989752 141.873396 
L 290.269091 140.203145 
L 293.54843 138.54767 
L 296.827769 136.906778 
L 300.107107 135.280276 
L 303.386446 133.667975 
L 306.665785 132.06969 
L 309.945124 130.48524 
L 313.224463 128.914446 
L 316.503802 127.357131 
L 319.78314 125.813123 
L 323.062479 124.282252 
L 326.341818 122.764352 
L 329.621157 121.259257 
L 332.900496 119.766807 
L 336.179835 118.286844 
L 339.459174 116.81921 
L 342.738512 115.363752 
L 346.017851 113.920321 
L 349.29719 112.488766 
L 352.576529 111.068942 
L 355.855868 109.660707 
L 359.135207 108.263917 
L 362.414545 106.878435 
L 365.693884 105.504123 
L 368.973223 104.140847 
L 372.252562 102.788475 
L 375.531901 101.446876 
L 378.81124 100.115922 
L 382.090579 98.795487 
L 385.369917 97.485447 
L 388.649256 96.185679 
L 391.928595 94.896063 
L 395.207934 93.616481 
L 398.487273 92.346816 
" style="fill:none;stroke:#8c564b;stroke-linecap:square;stroke-width:1.5;"/>
   </g>
   <g id="line2d_20">
    <path clip-path="url(#p0140a983a5)" d="M 73.832727 295.488 
L 77.112066 291.226878 
L 80.391405 287.033044 
L 83.670744 282.904916 
L 86.950083 278.840963 
L 90.229421 274.839699 
L 93.50876 270.899685 
L 96.788099 267.019526 
L 100.067438 263.197867 
L 103.346777 259.433395 
L 106.626116 255.724837 
L 109.905455 252.070956 
L 113.184793 248.470551 
L 116.464132 244.922457 
L 119.743471 241.425543 
L 123.02281 237.978709 
L 126.302149 234.580886 
L 129.581488 231.231036 
L 132.860826 227.928152 
L 136.140165 224.671252 
L 139.419504 221.459382 
L 142.698843 218.291615 
L 145.978182 215.167048 
L 149.257521 212.084805 
L 152.53686 209.04403 
L 155.816198 206.043893 
L 159.095537 203.083584 
L 162.374876 200.162315 
L 165.654215 197.27932 
L 168.933554 194.43385 
L 172.212893 191.625179 
L 175.492231 188.852596 
L 178.77157 186.115411 
L 182.050909 183.41295 
L 185.330248 180.744556 
L 188.609587 178.10959 
L 191.888926 175.507426 
L 195.168264 172.937457 
L 198.447603 170.399089 
L 201.726942 167.891742 
L 205.006281 165.41485 
L 208.28562 162.967864 
L 211.564959 160.550243 
L 214.844298 158.161463 
L 218.123636 155.801011 
L 221.402975 153.468385 
L 224.682314 151.163097 
L 227.961653 148.884669 
L 231.240992 146.632634 
L 234.520331 144.406536 
L 237.799669 142.205929 
L 241.079008 140.030379 
L 244.358347 137.879459 
L 247.637686 135.752755 
L 250.917025 133.649858 
L 254.196364 131.570372 
L 257.475702 129.513907 
L 260.755041 127.480085 
L 264.03438 125.468532 
L 267.313719 123.478885 
L 270.593058 121.510788 
L 273.872397 119.563892 
L 277.151736 117.637858 
L 280.431074 115.732352 
L 283.710413 113.847046 
L 286.989752 111.981622 
L 290.269091 110.135767 
L 293.54843 108.309174 
L 296.827769 106.501544 
L 300.107107 104.712582 
L 303.386446 102.942002 
L 306.665785 101.18952 
L 309.945124 99.454862 
L 313.224463 97.737756 
L 316.503802 96.037937 
L 319.78314 94.355146 
L 323.062479 92.689129 
L 326.341818 91.039634 
L 329.621157 89.406419 
L 332.900496 87.789243 
L 336.179835 86.187871 
L 339.459174 84.602072 
L 342.738512 83.031621 
L 346.017851 81.476296 
L 349.29719 79.935879 
L 352.576529 78.410156 
L 355.855868 76.898919 
L 359.135207 75.401963 
L 362.414545 73.919085 
L 365.693884 72.450089 
L 368.973223 70.994779 
L 372.252562 69.552967 
L 375.531901 68.124464 
L 378.81124 66.709087 
L 382.090579 65.306657 
L 385.369917 63.916996 
L 388.649256 62.539932 
L 391.928595 61.175292 
L 395.207934 59.822911 
L 398.487273 58.482623 
" style="fill:none;stroke:#e377c2;stroke-linecap:square;stroke-width:1.5;"/>
   </g>
   <g id="line2d_21">
    <path clip-path="url(#p0140a983a5)" d="M 73.832727 295.488 
L 77.112066 292.080194 
L 80.391405 288.737241 
L 83.670744 285.457309 
L 86.950083 282.238632 
L 90.229421 279.079509 
L 93.50876 275.978303 
L 96.788099 272.933435 
L 100.067438 269.943385 
L 103.346777 267.006685 
L 106.626116 264.121919 
L 109.905455 261.287723 
L 113.184793 258.502778 
L 116.464132 255.765811 
L 119.743471 253.075594 
L 123.02281 250.430938 
L 126.302149 247.830695 
L 129.581488 245.273758 
L 132.860826 242.759051 
L 136.140165 240.285538 
L 139.419504 237.852215 
L 142.698843 235.45811 
L 145.978182 233.102283 
L 149.257521 230.783823 
L 152.53686 228.501847 
L 155.816198 226.255502 
L 159.095537 224.043959 
L 162.374876 221.866416 
L 165.654215 219.722095 
L 168.933554 217.61024 
L 172.212893 215.530121 
L 175.492231 213.481028 
L 178.77157 211.462271 
L 182.050909 209.473181 
L 185.330248 207.51311 
L 188.609587 205.581426 
L 191.888926 203.677519 
L 195.168264 201.800792 
L 198.447603 199.950668 
L 201.726942 198.126586 
L 205.006281 196.327998 
L 208.28562 194.554376 
L 211.564959 192.805201 
L 214.844298 191.079973 
L 218.123636 189.378203 
L 221.402975 187.699415 
L 224.682314 186.043148 
L 227.961653 184.40895 
L 231.240992 182.796385 
L 234.520331 181.205024 
L 237.799669 179.634454 
L 241.079008 178.084268 
L 244.358347 176.554073 
L 247.637686 175.043484 
L 250.917025 173.552127 
L 254.196364 172.079637 
L 257.475702 170.625658 
L 260.755041 169.189844 
L 264.03438 167.771855 
L 267.313719 166.371363 
L 270.593058 164.988045 
L 273.872397 163.621588 
L 277.151736 162.271684 
L 280.431074 160.938035 
L 283.710413 159.620349 
L 286.989752 158.318342 
L 290.269091 157.031734 
L 293.54843 155.760255 
L 296.827769 154.503639 
L 300.107107 153.261627 
L 303.386446 152.033966 
L 306.665785 150.820409 
L 309.945124 149.620713 
L 313.224463 148.434644 
L 316.503802 147.261969 
L 319.78314 146.102464 
L 323.062479 144.955907 
L 326.341818 143.822084 
L 329.621157 142.700782 
L 332.900496 141.591796 
L 336.179835 140.494925 
L 339.459174 139.40997 
L 342.738512 138.336738 
L 346.017851 137.275041 
L 349.29719 136.224693 
L 352.576529 135.185514 
L 355.855868 134.157326 
L 359.135207 133.139955 
L 362.414545 132.133233 
L 365.693884 131.136993 
L 368.973223 130.151071 
L 372.252562 129.175309 
L 375.531901 128.209549 
L 378.81124 127.25364 
L 382.090579 126.307431 
L 385.369917 125.370775 
L 388.649256 124.443529 
L 391.928595 123.525551 
L 395.207934 122.616702 
L 398.487273 121.716848 
" style="fill:none;stroke:#7f7f7f;stroke-linecap:square;stroke-width:1.5;"/>
   </g>
   <g id="line2d_22">
    <path clip-path="url(#p0140a983a5)" d="M 73.832727 295.488 
L 77.112066 292.058634 
L 80.391405 288.712379 
L 83.670744 285.446251 
L 86.950083 282.257404 
L 90.229421 279.143129 
L 93.50876 276.100839 
L 96.788099 273.128068 
L 100.067438 270.22246 
L 103.346777 267.381763 
L 106.626116 264.603827 
L 109.905455 261.886595 
L 113.184793 259.228098 
L 116.464132 256.626452 
L 119.743471 254.079853 
L 123.02281 251.586572 
L 126.302149 249.144952 
L 129.581488 246.753403 
L 132.860826 244.410402 
L 136.140165 242.114485 
L 139.419504 239.864247 
L 142.698843 237.658337 
L 145.978182 235.495459 
L 149.257521 233.374366 
L 152.53686 231.293858 
L 155.816198 229.252782 
L 159.095537 227.250027 
L 162.374876 225.284524 
L 165.654215 223.355243 
L 168.933554 221.461193 
L 172.212893 219.601416 
L 175.492231 217.774991 
L 178.77157 215.981029 
L 182.050909 214.218671 
L 185.330248 212.48709 
L 188.609587 210.785487 
L 191.888926 209.11309 
L 195.168264 207.469153 
L 198.447603 205.852956 
L 201.726942 204.263803 
L 205.006281 202.701021 
L 208.28562 201.163958 
L 211.564959 199.651985 
L 214.844298 198.164492 
L 218.123636 196.70089 
L 221.402975 195.260608 
L 224.682314 193.843092 
L 227.961653 192.447808 
L 231.240992 191.074236 
L 234.520331 189.721874 
L 237.799669 188.390233 
L 241.079008 187.078842 
L 244.358347 185.787242 
L 247.637686 184.514988 
L 250.917025 183.261648 
L 254.196364 182.026805 
L 257.475702 180.810052 
L 260.755041 179.610993 
L 264.03438 178.429247 
L 267.313719 177.264439 
L 270.593058 176.11621 
L 273.872397 174.984208 
L 277.151736 173.86809 
L 280.431074 172.767526 
L 283.710413 171.682191 
L 286.989752 170.611773 
L 290.269091 169.555965 
L 293.54843 168.514471 
L 296.827769 167.487002 
L 300.107107 166.473276 
L 303.386446 165.473019 
L 306.665785 164.485964 
L 309.945124 163.511853 
L 313.224463 162.550431 
L 316.503802 161.601453 
L 319.78314 160.664679 
L 323.062479 159.739874 
L 326.341818 158.826811 
L 329.621157 157.925267 
L 332.900496 157.035026 
L 336.179835 156.155877 
L 339.459174 155.287614 
L 342.738512 154.430035 
L 346.017851 153.582945 
L 349.29719 152.746152 
L 352.576529 151.91947 
L 355.855868 151.102717 
L 359.135207 150.295715 
L 362.414545 149.49829 
L 365.693884 148.710272 
L 368.973223 147.931497 
L 372.252562 147.161803 
L 375.531901 146.401031 
L 378.81124 145.649027 
L 382.090579 144.905642 
L 385.369917 144.170727 
L 388.649256 143.444138 
L 391.928595 142.725735 
L 395.207934 142.01538 
L 398.487273 141.312939 
" style="fill:none;stroke:#bcbd22;stroke-linecap:square;stroke-width:1.5;"/>
   </g>
   <g id="line2d_23">
    <path clip-path="url(#p0140a983a5)" d="M 73.832727 295.488 
L 77.112066 291.355968 
L 80.391405 287.288356 
L 83.670744 283.28367 
L 86.950083 279.340462 
L 90.229421 275.457325 
L 93.50876 271.632898 
L 96.788099 267.86586 
L 100.067438 264.154927 
L 103.346777 260.498857 
L 106.626116 256.896441 
L 109.905455 253.346507 
L 113.184793 249.847916 
L 116.464132 246.399562 
L 119.743471 243.000371 
L 123.02281 239.649299 
L 126.302149 236.345332 
L 129.581488 233.087483 
L 132.860826 229.874794 
L 136.140165 226.706331 
L 139.419504 223.581188 
L 142.698843 220.498482 
L 145.978182 217.457355 
L 149.257521 214.456972 
L 152.53686 211.496518 
L 155.816198 208.575203 
L 159.095537 205.692254 
L 162.374876 202.846922 
L 165.654215 200.038474 
L 168.933554 197.266198 
L 172.212893 194.529401 
L 175.492231 191.827404 
L 178.77157 189.159549 
L 182.050909 186.525192 
L 185.330248 183.923706 
L 188.609587 181.354481 
L 191.888926 178.816919 
L 195.168264 176.310439 
L 198.447603 173.834473 
L 201.726942 171.388468 
L 205.006281 168.971882 
L 208.28562 166.584189 
L 211.564959 164.224873 
L 214.844298 161.893432 
L 218.123636 159.589373 
L 221.402975 157.312218 
L 224.682314 155.061499 
L 227.961653 152.836756 
L 231.240992 150.637544 
L 234.520331 148.463426 
L 237.799669 146.313974 
L 241.079008 144.18877 
L 244.358347 142.087408 
L 247.637686 140.009487 
L 250.917025 137.954618 
L 254.196364 135.92242 
L 257.475702 133.912519 
L 260.755041 131.92455 
L 264.03438 129.958156 
L 267.313719 128.012988 
L 270.593058 126.088704 
L 273.872397 124.18497 
L 277.151736 122.301458 
L 280.431074 120.437848 
L 283.710413 118.593825 
L 286.989752 116.769083 
L 290.269091 114.963321 
L 293.54843 113.176244 
L 296.827769 111.407563 
L 300.107107 109.656997 
L 303.386446 107.924268 
L 306.665785 106.209105 
L 309.945124 104.511242 
L 313.224463 102.830419 
L 316.503802 101.16638 
L 319.78314 99.518876 
L 323.062479 97.887661 
L 326.341818 96.272495 
L 329.621157 94.673141 
L 332.900496 93.08937 
L 336.179835 91.520954 
L 339.459174 89.967671 
L 342.738512 88.429304 
L 346.017851 86.905637 
L 349.29719 85.396463 
L 352.576529 83.901574 
L 355.855868 82.420769 
L 359.135207 80.95385 
L 362.414545 79.500622 
L 365.693884 78.060895 
L 368.973223 76.634482 
L 372.252562 75.221198 
L 375.531901 73.820863 
L 378.81124 72.4333 
L 382.090579 71.058335 
L 385.369917 69.695798 
L 388.649256 68.34552 
L 391.928595 67.007336 
L 395.207934 65.681086 
L 398.487273 64.36661 
" style="fill:none;stroke:#17becf;stroke-linecap:square;stroke-width:1.5;"/>
   </g>
   <g id="line2d_24">
    <path clip-path="url(#p0140a983a5)" d="M 73.832727 295.488 
L 77.112066 292.179732 
L 80.391405 288.912545 
L 83.670744 285.685679 
L 86.950083 282.498392 
L 90.229421 279.34996 
L 93.50876 276.239677 
L 96.788099 273.166854 
L 100.067438 270.130817 
L 103.346777 267.130912 
L 106.626116 264.166495 
L 109.905455 261.236942 
L 113.184793 258.34164 
L 116.464132 255.479993 
L 119.743471 252.651417 
L 123.02281 249.855342 
L 126.302149 247.091211 
L 129.581488 244.358481 
L 132.860826 241.656618 
L 136.140165 238.985103 
L 139.419504 236.343427 
L 142.698843 233.731093 
L 145.978182 231.147616 
L 149.257521 228.592519 
L 152.53686 226.065337 
L 155.816198 223.565616 
L 159.095537 221.09291 
L 162.374876 218.646783 
L 165.654215 216.22681 
L 168.933554 213.832574 
L 172.212893 211.463665 
L 175.492231 209.119684 
L 178.77157 206.800239 
L 182.050909 204.504948 
L 185.330248 202.233435 
L 188.609587 199.985333 
L 191.888926 197.76028 
L 195.168264 195.557926 
L 198.447603 193.377923 
L 201.726942 191.219935 
L 205.006281 189.083627 
L 208.28562 186.968677 
L 211.564959 184.874765 
L 214.844298 182.801578 
L 218.123636 180.748811 
L 221.402975 178.716162 
L 224.682314 176.703339 
L 227.961653 174.710052 
L 231.240992 172.736019 
L 234.520331 170.780961 
L 237.799669 168.844606 
L 241.079008 166.926688 
L 244.358347 165.026943 
L 247.637686 163.145116 
L 250.917025 161.280953 
L 254.196364 159.434208 
L 257.475702 157.604637 
L 260.755041 155.792002 
L 264.03438 153.996068 
L 267.313719 152.216606 
L 270.593058 150.453391 
L 273.872397 148.706201 
L 277.151736 146.974817 
L 280.431074 145.259028 
L 283.710413 143.558623 
L 286.989752 141.873396 
L 290.269091 140.203145 
L 293.54843 138.54767 
L 296.827769 136.906778 
L 300.107107 135.280276 
L 303.386446 133.667975 
L 306.665785 132.06969 
L 309.945124 130.48524 
L 313.224463 128.914446 
L 316.503802 127.357131 
L 319.78314 125.813123 
L 323.062479 124.282252 
L 326.341818 122.764352 
L 329.621157 121.259257 
L 332.900496 119.766807 
L 336.179835 118.286844 
L 339.459174 116.81921 
L 342.738512 115.363752 
L 346.017851 113.920321 
L 349.29719 112.488766 
L 352.576529 111.068942 
L 355.855868 109.660707 
L 359.135207 108.263917 
L 362.414545 106.878435 
L 365.693884 105.504123 
L 368.973223 104.140847 
L 372.252562 102.788475 
L 375.531901 101.446876 
L 378.81124 100.115922 
L 382.090579 98.795487 
L 385.369917 97.485447 
L 388.649256 96.185679 
L 391.928595 94.896063 
L 395.207934 93.616481 
L 398.487273 92.346816 
" style="fill:none;stroke:#1f77b4;stroke-linecap:square;stroke-width:1.5;"/>
   </g>
   <g id="line2d_25">
    <path clip-path="url(#p0140a983a5)" d="M 73.832727 295.488 
L 77.112066 292.214475 
L 80.391405 288.979825 
L 83.670744 285.783362 
L 86.950083 282.624414 
L 90.229421 279.502325 
L 93.50876 276.416452 
L 96.788099 273.36617 
L 100.067438 270.350866 
L 103.346777 267.369942 
L 106.626116 264.422813 
L 109.905455 261.508908 
L 113.184793 258.627668 
L 116.464132 255.778547 
L 119.743471 252.961012 
L 123.02281 250.174538 
L 126.302149 247.418617 
L 129.581488 244.692747 
L 132.860826 241.99644 
L 136.140165 239.329218 
L 139.419504 236.690613 
L 142.698843 234.080167 
L 145.978182 231.49743 
L 149.257521 228.941965 
L 152.53686 226.413342 
L 155.816198 223.911139 
L 159.095537 221.434945 
L 162.374876 218.984358 
L 165.654215 216.55898 
L 168.933554 214.158426 
L 172.212893 211.782316 
L 175.492231 209.430279 
L 178.77157 207.101951 
L 182.050909 204.796975 
L 185.330248 202.515001 
L 188.609587 200.255688 
L 191.888926 198.018698 
L 195.168264 195.803704 
L 198.447603 193.610381 
L 201.726942 191.438414 
L 205.006281 189.287492 
L 208.28562 187.15731 
L 211.564959 185.047571 
L 214.844298 182.957981 
L 218.123636 180.888254 
L 221.402975 178.838106 
L 224.682314 176.807262 
L 227.961653 174.79545 
L 231.240992 172.802405 
L 234.520331 170.827864 
L 237.799669 168.871571 
L 241.079008 166.933274 
L 244.358347 165.012727 
L 247.637686 163.109686 
L 250.917025 161.223913 
L 254.196364 159.355174 
L 257.475702 157.50324 
L 260.755041 155.667884 
L 264.03438 153.848886 
L 267.313719 152.046027 
L 270.593058 150.259093 
L 273.872397 148.487875 
L 277.151736 146.732166 
L 280.431074 144.991764 
L 283.710413 143.266468 
L 286.989752 141.556084 
L 290.269091 139.860418 
L 293.54843 138.179282 
L 296.827769 136.512489 
L 300.107107 134.859857 
L 303.386446 133.221206 
L 306.665785 131.596359 
L 309.945124 129.985143 
L 313.224463 128.387387 
L 316.503802 126.802923 
L 319.78314 125.231585 
L 323.062479 123.673212 
L 326.341818 122.127643 
L 329.621157 120.594722 
L 332.900496 119.074293 
L 336.179835 117.566205 
L 339.459174 116.070308 
L 342.738512 114.586454 
L 346.017851 113.1145 
L 349.29719 111.654302 
L 352.576529 110.20572 
L 355.855868 108.768616 
L 359.135207 107.342854 
L 362.414545 105.9283 
L 365.693884 104.524823 
L 368.973223 103.132293 
L 372.252562 101.750583 
L 375.531901 100.379567 
L 378.81124 99.01912 
L 382.090579 97.669123 
L 385.369917 96.329454 
L 388.649256 94.999995 
L 391.928595 93.680631 
L 395.207934 92.371246 
L 398.487273 91.071728 
" style="fill:none;stroke:#ff7f0e;stroke-linecap:square;stroke-width:1.5;"/>
   </g>
   <g id="line2d_26">
    <path clip-path="url(#p0140a983a5)" d="M 73.832727 295.488 
L 77.112066 291.226878 
L 80.391405 287.033044 
L 83.670744 282.904916 
L 86.950083 278.840963 
L 90.229421 274.839699 
L 93.50876 270.899685 
L 96.788099 267.019526 
L 100.067438 263.197867 
L 103.346777 259.433395 
L 106.626116 255.724837 
L 109.905455 252.070956 
L 113.184793 248.470551 
L 116.464132 244.922457 
L 119.743471 241.425543 
L 123.02281 237.978709 
L 126.302149 234.580886 
L 129.581488 231.231036 
L 132.860826 227.928152 
L 136.140165 224.671252 
L 139.419504 221.459382 
L 142.698843 218.291615 
L 145.978182 215.167048 
L 149.257521 212.084805 
L 152.53686 209.04403 
L 155.816198 206.043893 
L 159.095537 203.083584 
L 162.374876 200.162315 
L 165.654215 197.27932 
L 168.933554 194.43385 
L 172.212893 191.625179 
L 175.492231 188.852596 
L 178.77157 186.115411 
L 182.050909 183.41295 
L 185.330248 180.744556 
L 188.609587 178.10959 
L 191.888926 175.507426 
L 195.168264 172.937457 
L 198.447603 170.399089 
L 201.726942 167.891742 
L 205.006281 165.41485 
L 208.28562 162.967864 
L 211.564959 160.550243 
L 214.844298 158.161463 
L 218.123636 155.801011 
L 221.402975 153.468385 
L 224.682314 151.163097 
L 227.961653 148.884669 
L 231.240992 146.632634 
L 234.520331 144.406536 
L 237.799669 142.205929 
L 241.079008 140.030379 
L 244.358347 137.879459 
L 247.637686 135.752755 
L 250.917025 133.649858 
L 254.196364 131.570372 
L 257.475702 129.513907 
L 260.755041 127.480085 
L 264.03438 125.468532 
L 267.313719 123.478885 
L 270.593058 121.510788 
L 273.872397 119.563892 
L 277.151736 117.637858 
L 280.431074 115.732352 
L 283.710413 113.847046 
L 286.989752 111.981622 
L 290.269091 110.135767 
L 293.54843 108.309174 
L 296.827769 106.501544 
L 300.107107 104.712582 
L 303.386446 102.942002 
L 306.665785 101.18952 
L 309.945124 99.454862 
L 313.224463 97.737756 
L 316.503802 96.037937 
L 319.78314 94.355146 
L 323.062479 92.689129 
L 326.341818 91.039634 
L 329.621157 89.406419 
L 332.900496 87.789243 
L 336.179835 86.187871 
L 339.459174 84.602072 
L 342.738512 83.031621 
L 346.017851 81.476296 
L 349.29719 79.935879 
L 352.576529 78.410156 
L 355.855868 76.898919 
L 359.135207 75.401963 
L 362.414545 73.919085 
L 365.693884 72.450089 
L 368.973223 70.994779 
L 372.252562 69.552967 
L 375.531901 68.124464 
L 378.81124 66.709087 
L 382.090579 65.306657 
L 385.369917 63.916996 
L 388.649256 62.539932 
L 391.928595 61.175292 
L 395.207934 59.822911 
L 398.487273 58.482623 
" style="fill:none;stroke:#2ca02c;stroke-linecap:square;stroke-width:1.5;"/>
   </g>
   <g id="line2d_27">
    <path clip-path="url(#p0140a983a5)" d="M 73.832727 295.488 
L 77.112066 292.179732 
L 80.391405 288.912545 
L 83.670744 285.685679 
L 86.950083 282.498392 
L 90.229421 279.34996 
L 93.50876 276.239677 
L 96.788099 273.166854 
L 100.067438 270.130817 
L 103.346777 267.130912 
L 106.626116 264.166495 
L 109.905455 261.236942 
L 113.184793 258.34164 
L 116.464132 255.479993 
L 119.743471 252.651417 
L 123.02281 249.855342 
L 126.302149 247.091211 
L 129.581488 244.358481 
L 132.860826 241.656618 
L 136.140165 238.985103 
L 139.419504 236.343427 
L 142.698843 233.731093 
L 145.978182 231.147616 
L 149.257521 228.592519 
L 152.53686 226.065337 
L 155.816198 223.565616 
L 159.095537 221.09291 
L 162.374876 218.646783 
L 165.654215 216.22681 
L 168.933554 213.832574 
L 172.212893 211.463665 
L 175.492231 209.119684 
L 178.77157 206.800239 
L 182.050909 204.504948 
L 185.330248 202.233435 
L 188.609587 199.985333 
L 191.888926 197.76028 
L 195.168264 195.557926 
L 198.447603 193.377923 
L 201.726942 191.219935 
L 205.006281 189.083627 
L 208.28562 186.968677 
L 211.564959 184.874765 
L 214.844298 182.801578 
L 218.123636 180.748811 
L 221.402975 178.716162 
L 224.682314 176.703339 
L 227.961653 174.710052 
L 231.240992 172.736019 
L 234.520331 170.780961 
L 237.799669 168.844606 
L 241.079008 166.926688 
L 244.358347 165.026943 
L 247.637686 163.145116 
L 250.917025 161.280953 
L 254.196364 159.434208 
L 257.475702 157.604637 
L 260.755041 155.792002 
L 264.03438 153.996068 
L 267.313719 152.216606 
L 270.593058 150.453391 
L 273.872397 148.706201 
L 277.151736 146.974817 
L 280.431074 145.259028 
L 283.710413 143.558623 
L 286.989752 141.873396 
L 290.269091 140.203145 
L 293.54843 138.54767 
L 296.827769 136.906778 
L 300.107107 135.280276 
L 303.386446 133.667975 
L 306.665785 132.06969 
L 309.945124 130.48524 
L 313.224463 128.914446 
L 316.503802 127.357131 
L 319.78314 125.813123 
L 323.062479 124.282252 
L 326.341818 122.764352 
L 329.621157 121.259257 
L 332.900496 119.766807 
L 336.179835 118.286844 
L 339.459174 116.81921 
L 342.738512 115.363752 
L 346.017851 113.920321 
L 349.29719 112.488766 
L 352.576529 111.068942 
L 355.855868 109.660707 
L 359.135207 108.263917 
L 362.414545 106.878435 
L 365.693884 105.504123 
L 368.973223 104.140847 
L 372.252562 102.788475 
L 375.531901 101.446876 
L 378.81124 100.115922 
L 382.090579 98.795487 
L 385.369917 97.485447 
L 388.649256 96.185679 
L 391.928595 94.896063 
L 395.207934 93.616481 
L 398.487273 92.346816 
" style="fill:none;stroke:#d62728;stroke-linecap:square;stroke-width:1.5;"/>
   </g>
   <g id="line2d_28">
    <path clip-path="url(#p0140a983a5)" d="M 73.832727 295.488 
L 77.112066 292.214475 
L 80.391405 288.979825 
L 83.670744 285.783362 
L 86.950083 282.624414 
L 90.229421 279.502325 
L 93.50876 276.416452 
L 96.788099 273.36617 
L 100.067438 270.350866 
L 103.346777 267.369942 
L 106.626116 264.422813 
L 109.905455 261.508908 
L 113.184793 258.627668 
L 116.464132 255.778547 
L 119.743471 252.961012 
L 123.02281 250.174538 
L 126.302149 247.418617 
L 129.581488 244.692747 
L 132.860826 241.99644 
L 136.140165 239.329218 
L 139.419504 236.690613 
L 142.698843 234.080167 
L 145.978182 231.49743 
L 149.257521 228.941965 
L 152.53686 226.413342 
L 155.816198 223.911139 
L 159.095537 221.434945 
L 162.374876 218.984358 
L 165.654215 216.55898 
L 168.933554 214.158426 
L 172.212893 211.782316 
L 175.492231 209.430279 
L 178.77157 207.101951 
L 182.050909 204.796975 
L 185.330248 202.515001 
L 188.609587 200.255688 
L 191.888926 198.018698 
L 195.168264 195.803704 
L 198.447603 193.610381 
L 201.726942 191.438414 
L 205.006281 189.287492 
L 208.28562 187.15731 
L 211.564959 185.047571 
L 214.844298 182.957981 
L 218.123636 180.888254 
L 221.402975 178.838106 
L 224.682314 176.807262 
L 227.961653 174.79545 
L 231.240992 172.802405 
L 234.520331 170.827864 
L 237.799669 168.871571 
L 241.079008 166.933274 
L 244.358347 165.012727 
L 247.637686 163.109686 
L 250.917025 161.223913 
L 254.196364 159.355174 
L 257.475702 157.50324 
L 260.755041 155.667884 
L 264.03438 153.848886 
L 267.313719 152.046027 
L 270.593058 150.259093 
L 273.872397 148.487875 
L 277.151736 146.732166 
L 280.431074 144.991764 
L 283.710413 143.266468 
L 286.989752 141.556084 
L 290.269091 139.860418 
L 293.54843 138.179282 
L 296.827769 136.512489 
L 300.107107 134.859857 
L 303.386446 133.221206 
L 306.665785 131.596359 
L 309.945124 129.985143 
L 313.224463 128.387387 
L 316.503802 126.802923 
L 319.78314 125.231585 
L 323.062479 123.673212 
L 326.341818 122.127643 
L 329.621157 120.594722 
L 332.900496 119.074293 
L 336.179835 117.566205 
L 339.459174 116.070308 
L 342.738512 114.586454 
L 346.017851 113.1145 
L 349.29719 111.654302 
L 352.576529 110.20572 
L 355.855868 108.768616 
L 359.135207 107.342854 
L 362.414545 105.9283 
L 365.693884 104.524823 
L 368.973223 103.132293 
L 372.252562 101.750583 
L 375.531901 100.379567 
L 378.81124 99.01912 
L 382.090579 97.669123 
L 385.369917 96.329454 
L 388.649256 94.999995 
L 391.928595 93.680631 
L 395.207934 92.371246 
L 398.487273 91.071728 
" style="fill:none;stroke:#9467bd;stroke-linecap:square;stroke-width:1.5;"/>
   </g>
   <g id="line2d_29">
    <path clip-path="url(#p0140a983a5)" d="M 73.832727 295.488 
L 77.112066 292.179732 
L 80.391405 288.912545 
L 83.670744 285.685679 
L 86.950083 282.498392 
L 90.229421 279.34996 
L 93.50876 276.239677 
L 96.788099 273.166854 
L 100.067438 270.130817 
L 103.346777 267.130912 
L 106.626116 264.166495 
L 109.905455 261.236942 
L 113.184793 258.34164 
L 116.464132 255.479993 
L 119.743471 252.651417 
L 123.02281 249.855342 
L 126.302149 247.091211 
L 129.581488 244.358481 
L 132.860826 241.656618 
L 136.140165 238.985103 
L 139.419504 236.343427 
L 142.698843 233.731093 
L 145.978182 231.147616 
L 149.257521 228.592519 
L 152.53686 226.065337 
L 155.816198 223.565616 
L 159.095537 221.09291 
L 162.374876 218.646783 
L 165.654215 216.22681 
L 168.933554 213.832574 
L 172.212893 211.463665 
L 175.492231 209.119684 
L 178.77157 206.800239 
L 182.050909 204.504948 
L 185.330248 202.233435 
L 188.609587 199.985333 
L 191.888926 197.76028 
L 195.168264 195.557926 
L 198.447603 193.377923 
L 201.726942 191.219935 
L 205.006281 189.083627 
L 208.28562 186.968677 
L 211.564959 184.874765 
L 214.844298 182.801578 
L 218.123636 180.748811 
L 221.402975 178.716162 
L 224.682314 176.703339 
L 227.961653 174.710052 
L 231.240992 172.736019 
L 234.520331 170.780961 
L 237.799669 168.844606 
L 241.079008 166.926688 
L 244.358347 165.026943 
L 247.637686 163.145116 
L 250.917025 161.280953 
L 254.196364 159.434208 
L 257.475702 157.604637 
L 260.755041 155.792002 
L 264.03438 153.996068 
L 267.313719 152.216606 
L 270.593058 150.453391 
L 273.872397 148.706201 
L 277.151736 146.974817 
L 280.431074 145.259028 
L 283.710413 143.558623 
L 286.989752 141.873396 
L 290.269091 140.203145 
L 293.54843 138.54767 
L 296.827769 136.906778 
L 300.107107 135.280276 
L 303.386446 133.667975 
L 306.665785 132.06969 
L 309.945124 130.48524 
L 313.224463 128.914446 
L 316.503802 127.357131 
L 319.78314 125.813123 
L 323.062479 124.282252 
L 326.341818 122.764352 
L 329.621157 121.259257 
L 332.900496 119.766807 
L 336.179835 118.286844 
L 339.459174 116.81921 
L 342.738512 115.363752 
L 346.017851 113.920321 
L 349.29719 112.488766 
L 352.576529 111.068942 
L 355.855868 109.660707 
L 359.135207 108.263917 
L 362.414545 106.878435 
L 365.693884 105.504123 
L 368.973223 104.140847 
L 372.252562 102.788475 
L 375.531901 101.446876 
L 378.81124 100.115922 
L 382.090579 98.795487 
L 385.369917 97.485447 
L 388.649256 96.185679 
L 391.928595 94.896063 
L 395.207934 93.616481 
L 398.487273 92.346816 
" style="fill:none;stroke:#8c564b;stroke-linecap:square;stroke-width:1.5;"/>
   </g>
   <g id="line2d_30">
    <path clip-path="url(#p0140a983a5)" d="M 73.832727 295.488 
L 77.112066 291.285958 
L 80.391405 287.145175 
L 83.670744 283.064322 
L 86.950083 279.042105 
L 90.229421 275.077271 
L 93.50876 271.168601 
L 96.788099 267.314909 
L 100.067438 263.515043 
L 103.346777 259.767884 
L 106.626116 256.072342 
L 109.905455 252.427358 
L 113.184793 248.831903 
L 116.464132 245.284972 
L 119.743471 241.785591 
L 123.02281 238.332809 
L 126.302149 234.925702 
L 129.581488 231.56337 
L 132.860826 228.244935 
L 136.140165 224.969544 
L 139.419504 221.736365 
L 142.698843 218.544586 
L 145.978182 215.393417 
L 149.257521 212.28209 
L 152.53686 209.209851 
L 155.816198 206.175971 
L 159.095537 203.179734 
L 162.374876 200.220444 
L 165.654215 197.297423 
L 168.933554 194.410006 
L 172.212893 191.557549 
L 175.492231 188.73942 
L 178.77157 185.955002 
L 182.050909 183.203695 
L 185.330248 180.484911 
L 188.609587 177.798077 
L 191.888926 175.142634 
L 195.168264 172.518034 
L 198.447603 169.923742 
L 201.726942 167.359238 
L 205.006281 164.824011 
L 208.28562 162.317562 
L 211.564959 159.839404 
L 214.844298 157.389061 
L 218.123636 154.966067 
L 221.402975 152.569967 
L 224.682314 150.200316 
L 227.961653 147.856678 
L 231.240992 145.538626 
L 234.520331 143.245745 
L 237.799669 140.977627 
L 241.079008 138.733872 
L 244.358347 136.51409 
L 247.637686 134.317899 
L 250.917025 132.144925 
L 254.196364 129.994802 
L 257.475702 127.86717 
L 260.755041 125.76168 
L 264.03438 123.677987 
L 267.313719 121.615754 
L 270.593058 119.574651 
L 273.872397 117.554357 
L 277.151736 115.554553 
L 280.431074 113.57493 
L 283.710413 111.615183 
L 286.989752 109.675016 
L 290.269091 107.754135 
L 293.54843 105.852255 
L 296.827769 103.969096 
L 300.107107 102.104382 
L 303.386446 100.257843 
L 306.665785 98.429215 
L 309.945124 96.618239 
L 313.224463 94.824661 
L 316.503802 93.04823 
L 319.78314 91.288702 
L 323.062479 89.545838 
L 326.341818 87.819401 
L 329.621157 86.10916 
L 332.900496 84.414889 
L 336.179835 82.736364 
L 339.459174 81.073368 
L 342.738512 79.425685 
L 346.017851 77.793106 
L 349.29719 76.175423 
L 352.576529 74.572434 
L 355.855868 72.983939 
L 359.135207 71.409742 
L 362.414545 69.849652 
L 365.693884 68.30348 
L 368.973223 66.771039 
L 372.252562 65.252149 
L 375.531901 63.74663 
L 378.81124 62.254306 
L 382.090579 60.775005 
L 385.369917 59.308557 
L 388.649256 57.854795 
L 391.928595 56.413555 
L 395.207934 54.984676 
L 398.487273 53.568 
" style="fill:none;stroke:#e377c2;stroke-linecap:square;stroke-width:1.5;"/>
   </g>
   <g id="line2d_31">
    <path clip-path="url(#p0140a983a5)" d="M 73.832727 295.488 
L 77.112066 291.285958 
L 80.391405 287.145175 
L 83.670744 283.064322 
L 86.950083 279.042105 
L 90.229421 275.077271 
L 93.50876 271.168601 
L 96.788099 267.314909 
L 100.067438 263.515043 
L 103.346777 259.767884 
L 106.626116 256.072342 
L 109.905455 252.427358 
L 113.184793 248.831903 
L 116.464132 245.284972 
L 119.743471 241.785591 
L 123.02281 238.332809 
L 126.302149 234.925702 
L 129.581488 231.56337 
L 132.860826 228.244935 
L 136.140165 224.969544 
L 139.419504 221.736365 
L 142.698843 218.544586 
L 145.978182 215.393417 
L 149.257521 212.28209 
L 152.53686 209.209851 
L 155.816198 206.175971 
L 159.095537 203.179734 
L 162.374876 200.220444 
L 165.654215 197.297423 
L 168.933554 194.410006 
L 172.212893 191.557549 
L 175.492231 188.73942 
L 178.77157 185.955002 
L 182.050909 183.203695 
L 185.330248 180.484911 
L 188.609587 177.798077 
L 191.888926 175.142634 
L 195.168264 172.518034 
L 198.447603 169.923742 
L 201.726942 167.359238 
L 205.006281 164.824011 
L 208.28562 162.317562 
L 211.564959 159.839404 
L 214.844298 157.389061 
L 218.123636 154.966067 
L 221.402975 152.569967 
L 224.682314 150.200316 
L 227.961653 147.856678 
L 231.240992 145.538626 
L 234.520331 143.245745 
L 237.799669 140.977627 
L 241.079008 138.733872 
L 244.358347 136.51409 
L 247.637686 134.317899 
L 250.917025 132.144925 
L 254.196364 129.994802 
L 257.475702 127.86717 
L 260.755041 125.76168 
L 264.03438 123.677987 
L 267.313719 121.615754 
L 270.593058 119.574651 
L 273.872397 117.554357 
L 277.151736 115.554553 
L 280.431074 113.57493 
L 283.710413 111.615183 
L 286.989752 109.675016 
L 290.269091 107.754135 
L 293.54843 105.852255 
L 296.827769 103.969096 
L 300.107107 102.104382 
L 303.386446 100.257843 
L 306.665785 98.429215 
L 309.945124 96.618239 
L 313.224463 94.824661 
L 316.503802 93.04823 
L 319.78314 91.288702 
L 323.062479 89.545838 
L 326.341818 87.819401 
L 329.621157 86.10916 
L 332.900496 84.414889 
L 336.179835 82.736364 
L 339.459174 81.073368 
L 342.738512 79.425685 
L 346.017851 77.793106 
L 349.29719 76.175423 
L 352.576529 74.572434 
L 355.855868 72.983939 
L 359.135207 71.409742 
L 362.414545 69.849652 
L 365.693884 68.30348 
L 368.973223 66.771039 
L 372.252562 65.252149 
L 375.531901 63.74663 
L 378.81124 62.254306 
L 382.090579 60.775005 
L 385.369917 59.308557 
L 388.649256 57.854795 
L 391.928595 56.413555 
L 395.207934 54.984676 
L 398.487273 53.568 
" style="fill:none;stroke:#7f7f7f;stroke-linecap:square;stroke-width:1.5;"/>
   </g>
   <g id="line2d_32">
    <path clip-path="url(#p0140a983a5)" d="M 73.832727 295.488 
L 77.112066 292.102003 
L 80.391405 288.783818 
L 83.670744 285.53143 
L 86.950083 282.342899 
L 90.229421 279.216364 
L 93.50876 276.150033 
L 96.788099 273.142185 
L 100.067438 270.191163 
L 103.346777 267.29537 
L 106.626116 264.453271 
L 109.905455 261.663387 
L 113.184793 258.92429 
L 116.464132 256.234608 
L 119.743471 253.593014 
L 123.02281 250.998231 
L 126.302149 248.449025 
L 129.581488 245.944206 
L 132.860826 243.482625 
L 136.140165 241.063171 
L 139.419504 238.684772 
L 142.698843 236.346393 
L 145.978182 234.047031 
L 149.257521 231.785718 
L 152.53686 229.561517 
L 155.816198 227.373523 
L 159.095537 225.220857 
L 162.374876 223.102672 
L 165.654215 221.018146 
L 168.933554 218.966482 
L 172.212893 216.94691 
L 175.492231 214.958682 
L 178.77157 213.001075 
L 182.050909 211.073386 
L 185.330248 209.174934 
L 188.609587 207.305061 
L 191.888926 205.463124 
L 195.168264 203.648503 
L 198.447603 201.860594 
L 201.726942 200.098812 
L 205.006281 198.362589 
L 208.28562 196.651372 
L 211.564959 194.964625 
L 214.844298 193.301827 
L 218.123636 191.662471 
L 221.402975 190.046064 
L 224.682314 188.45213 
L 227.961653 186.880201 
L 231.240992 185.329826 
L 234.520331 183.800564 
L 237.799669 182.291987 
L 241.079008 180.803678 
L 244.358347 179.335231 
L 247.637686 177.886251 
L 250.917025 176.456354 
L 254.196364 175.045166 
L 257.475702 173.65232 
L 260.755041 172.277463 
L 264.03438 170.920248 
L 267.313719 169.580337 
L 270.593058 168.257401 
L 273.872397 166.951121 
L 277.151736 165.661183 
L 280.431074 164.387283 
L 283.710413 163.129123 
L 286.989752 161.886414 
L 290.269091 160.658873 
L 293.54843 159.446223 
L 296.827769 158.248195 
L 300.107107 157.064527 
L 303.386446 155.894962 
L 306.665785 154.739248 
L 309.945124 153.597143 
L 313.224463 152.468406 
L 316.503802 151.352804 
L 319.78314 150.25011 
L 323.062479 149.1601 
L 326.341818 148.082557 
L 329.621157 147.017269 
L 332.900496 145.964027 
L 336.179835 144.922628 
L 339.459174 143.892875 
L 342.738512 142.874571 
L 346.017851 141.867528 
L 349.29719 140.87156 
L 352.576529 139.886484 
L 355.855868 138.912124 
L 359.135207 137.948306 
L 362.414545 136.994858 
L 365.693884 136.051616 
L 368.973223 135.118415 
L 372.252562 134.195097 
L 375.531901 133.281504 
L 378.81124 132.377485 
L 382.090579 131.48289 
L 385.369917 130.597571 
L 388.649256 129.721386 
L 391.928595 128.854194 
L 395.207934 127.995857 
L 398.487273 127.14624 
" style="fill:none;stroke:#bcbd22;stroke-linecap:square;stroke-width:1.5;"/>
   </g>
   <g id="line2d_33">
    <path clip-path="url(#p0140a983a5)" d="M 73.832727 295.488 
L 77.112066 292.080194 
L 80.391405 288.737241 
L 83.670744 285.457309 
L 86.950083 282.238632 
L 90.229421 279.079509 
L 93.50876 275.978303 
L 96.788099 272.933435 
L 100.067438 269.943385 
L 103.346777 267.006685 
L 106.626116 264.121919 
L 109.905455 261.287723 
L 113.184793 258.502778 
L 116.464132 255.765811 
L 119.743471 253.075594 
L 123.02281 250.430938 
L 126.302149 247.830695 
L 129.581488 245.273758 
L 132.860826 242.759051 
L 136.140165 240.285538 
L 139.419504 237.852215 
L 142.698843 235.45811 
L 145.978182 233.102283 
L 149.257521 230.783823 
L 152.53686 228.501847 
L 155.816198 226.255502 
L 159.095537 224.043959 
L 162.374876 221.866416 
L 165.654215 219.722095 
L 168.933554 217.61024 
L 172.212893 215.530121 
L 175.492231 213.481028 
L 178.77157 211.462271 
L 182.050909 209.473181 
L 185.330248 207.51311 
L 188.609587 205.581426 
L 191.888926 203.677519 
L 195.168264 201.800792 
L 198.447603 199.950668 
L 201.726942 198.126586 
L 205.006281 196.327998 
L 208.28562 194.554376 
L 211.564959 192.805201 
L 214.844298 191.079973 
L 218.123636 189.378203 
L 221.402975 187.699415 
L 224.682314 186.043148 
L 227.961653 184.40895 
L 231.240992 182.796385 
L 234.520331 181.205024 
L 237.799669 179.634454 
L 241.079008 178.084268 
L 244.358347 176.554073 
L 247.637686 175.043484 
L 250.917025 173.552127 
L 254.196364 172.079637 
L 257.475702 170.625658 
L 260.755041 169.189844 
L 264.03438 167.771855 
L 267.313719 166.371363 
L 270.593058 164.988045 
L 273.872397 163.621588 
L 277.151736 162.271684 
L 280.431074 160.938035 
L 283.710413 159.620349 
L 286.989752 158.318342 
L 290.269091 157.031734 
L 293.54843 155.760255 
L 296.827769 154.503639 
L 300.107107 153.261627 
L 303.386446 152.033966 
L 306.665785 150.820409 
L 309.945124 149.620713 
L 313.224463 148.434644 
L 316.503802 147.261969 
L 319.78314 146.102464 
L 323.062479 144.955907 
L 326.341818 143.822084 
L 329.621157 142.700782 
L 332.900496 141.591796 
L 336.179835 140.494925 
L 339.459174 139.40997 
L 342.738512 138.336738 
L 346.017851 137.275041 
L 349.29719 136.224693 
L 352.576529 135.185514 
L 355.855868 134.157326 
L 359.135207 133.139955 
L 362.414545 132.133233 
L 365.693884 131.136993 
L 368.973223 130.151071 
L 372.252562 129.175309 
L 375.531901 128.209549 
L 378.81124 127.25364 
L 382.090579 126.307431 
L 385.369917 125.370775 
L 388.649256 124.443529 
L 391.928595 123.525551 
L 395.207934 122.616702 
L 398.487273 121.716848 
" style="fill:none;stroke:#17becf;stroke-linecap:square;stroke-width:1.5;"/>
   </g>
   <g id="line2d_34">
    <path clip-path="url(#p0140a983a5)" d="M 73.832727 295.488 
L 77.112066 291.32457 
L 80.391405 287.224571 
L 83.670744 283.186564 
L 86.950083 279.209153 
L 90.229421 275.290984 
L 93.50876 271.430744 
L 96.788099 267.627158 
L 100.067438 263.878987 
L 103.346777 260.185029 
L 106.626116 256.544116 
L 109.905455 252.955114 
L 113.184793 249.416921 
L 116.464132 245.928465 
L 119.743471 242.488704 
L 123.02281 239.096627 
L 126.302149 235.751249 
L 129.581488 232.451611 
L 132.860826 229.196782 
L 136.140165 225.985856 
L 139.419504 222.817949 
L 142.698843 219.692204 
L 145.978182 216.607785 
L 149.257521 213.563876 
L 152.53686 210.559685 
L 155.816198 207.59444 
L 159.095537 204.667389 
L 162.374876 201.777797 
L 165.654215 198.924952 
L 168.933554 196.108155 
L 172.212893 193.326728 
L 175.492231 190.58001 
L 178.77157 187.867354 
L 182.050909 185.18813 
L 185.330248 182.541725 
L 188.609587 179.927539 
L 191.888926 177.344988 
L 195.168264 174.7935 
L 198.447603 172.272518 
L 201.726942 169.781499 
L 205.006281 167.319911 
L 208.28562 164.887237 
L 211.564959 162.482969 
L 214.844298 160.106612 
L 218.123636 157.757685 
L 221.402975 155.435714 
L 224.682314 153.140238 
L 227.961653 150.870806 
L 231.240992 148.626978 
L 234.520331 146.408322 
L 237.799669 144.214417 
L 241.079008 142.044853 
L 244.358347 139.899224 
L 247.637686 137.777139 
L 250.917025 135.67821 
L 254.196364 133.602062 
L 257.475702 131.548326 
L 260.755041 129.51664 
L 264.03438 127.506651 
L 267.313719 125.518014 
L 270.593058 123.55039 
L 273.872397 121.603448 
L 277.151736 119.676863 
L 280.431074 117.770318 
L 283.710413 115.883502 
L 286.989752 114.01611 
L 290.269091 112.167844 
L 293.54843 110.338411 
L 296.827769 108.527525 
L 300.107107 106.734905 
L 303.386446 104.960277 
L 306.665785 103.203371 
L 309.945124 101.463922 
L 313.224463 99.741672 
L 316.503802 98.036368 
L 319.78314 96.347759 
L 323.062479 94.675602 
L 326.341818 93.019659 
L 329.621157 91.379693 
L 332.900496 89.755476 
L 336.179835 88.14678 
L 339.459174 86.553386 
L 342.738512 84.975075 
L 346.017851 83.411635 
L 349.29719 81.862855 
L 352.576529 80.328532 
L 355.855868 78.808463 
L 359.135207 77.302451 
L 362.414545 75.810302 
L 365.693884 74.331825 
L 368.973223 72.866833 
L 372.252562 71.415142 
L 375.531901 69.976573 
L 378.81124 68.550948 
L 382.090579 67.138092 
L 385.369917 65.737836 
L 388.649256 64.350012 
L 391.928595 62.974454 
L 395.207934 61.611001 
L 398.487273 60.259493 
" style="fill:none;stroke:#1f77b4;stroke-linecap:square;stroke-width:1.5;"/>
   </g>
   <g id="line2d_35">
    <path clip-path="url(#p0140a983a5)" d="M 73.832727 295.488 
L 77.112066 292.027818 
L 80.391405 288.650819 
L 83.670744 285.354039 
L 86.950083 282.134653 
L 90.229421 278.989967 
L 93.50876 275.917411 
L 96.788099 272.914532 
L 100.067438 269.978986 
L 103.346777 267.108534 
L 106.626116 264.301033 
L 109.905455 261.554437 
L 113.184793 258.866783 
L 116.464132 256.236196 
L 119.743471 253.660876 
L 123.02281 251.139099 
L 126.302149 248.669214 
L 129.581488 246.249635 
L 132.860826 243.878841 
L 136.140165 241.55537 
L 139.419504 239.27782 
L 142.698843 237.044842 
L 145.978182 234.855142 
L 149.257521 232.707472 
L 152.53686 230.600635 
L 155.816198 228.533477 
L 159.095537 226.504886 
L 162.374876 224.513795 
L 165.654215 222.559172 
L 168.933554 220.640025 
L 172.212893 218.755397 
L 175.492231 216.904365 
L 178.77157 215.086037 
L 182.050909 213.299556 
L 185.330248 211.544092 
L 188.609587 209.818843 
L 191.888926 208.123037 
L 195.168264 206.455926 
L 198.447603 204.816788 
L 201.726942 203.204924 
L 205.006281 201.61966 
L 208.28562 200.060343 
L 211.564959 198.52634 
L 214.844298 197.017041 
L 218.123636 195.531852 
L 221.402975 194.070202 
L 224.682314 192.631535 
L 227.961653 191.215313 
L 231.240992 189.821014 
L 234.520331 188.448134 
L 237.799669 187.096183 
L 241.079008 185.764686 
L 244.358347 184.453182 
L 247.637686 183.161225 
L 250.917025 181.88838 
L 254.196364 180.634227 
L 257.475702 179.398356 
L 260.755041 178.180371 
L 264.03438 176.979887 
L 267.313719 175.796529 
L 270.593058 174.629933 
L 273.872397 173.479745 
L 277.151736 172.345622 
L 280.431074 171.227229 
L 283.710413 170.124242 
L 286.989752 169.036344 
L 290.269091 167.963228 
L 293.54843 166.904594 
L 296.827769 165.860152 
L 300.107107 164.829617 
L 303.386446 163.812715 
L 306.665785 162.809175 
L 309.945124 161.818737 
L 313.224463 160.841146 
L 316.503802 159.876153 
L 319.78314 158.923516 
L 323.062479 157.982999 
L 326.341818 157.054374 
L 329.621157 156.137414 
L 332.900496 155.231903 
L 336.179835 154.337627 
L 339.459174 153.454378 
L 342.738512 152.581954 
L 346.017851 151.720156 
L 349.29719 150.868792 
L 352.576529 150.027673 
L 355.855868 149.196616 
L 359.135207 148.375441 
L 362.414545 147.563972 
L 365.693884 146.76204 
L 368.973223 145.969476 
L 372.252562 145.186118 
L 375.531901 144.411805 
L 378.81124 143.646383 
L 382.090579 142.889699 
L 385.369917 142.141604 
L 388.649256 141.401953 
L 391.928595 140.670603 
L 395.207934 139.947416 
L 398.487273 139.232256 
" style="fill:none;stroke:#ff7f0e;stroke-linecap:square;stroke-width:1.5;"/>
   </g>
   <g id="line2d_36">
    <path clip-path="url(#p0140a983a5)" d="M 73.832727 295.488 
L 77.112066 291.366804 
L 80.391405 287.309785 
L 83.670744 283.315457 
L 86.950083 279.382377 
L 90.229421 275.509147 
L 93.50876 271.694411 
L 96.788099 267.936854 
L 100.067438 264.235201 
L 103.346777 260.588213 
L 106.626116 256.994687 
L 109.905455 253.453457 
L 113.184793 249.963389 
L 116.464132 246.523384 
L 119.743471 243.13237 
L 123.02281 239.789309 
L 126.302149 236.493191 
L 129.581488 233.243034 
L 132.860826 230.037884 
L 136.140165 226.876811 
L 139.419504 223.758914 
L 142.698843 220.683313 
L 145.978182 217.649153 
L 149.257521 214.655603 
L 152.53686 211.701853 
L 155.816198 208.787113 
L 159.095537 205.910618 
L 162.374876 203.071618 
L 165.654215 200.269385 
L 168.933554 197.503209 
L 172.212893 194.7724 
L 175.492231 192.076283 
L 178.77157 189.414202 
L 182.050909 186.785515 
L 185.330248 184.189598 
L 188.609587 181.625843 
L 191.888926 179.093655 
L 195.168264 176.592455 
L 198.447603 174.121677 
L 201.726942 171.680771 
L 205.006281 169.269196 
L 208.28562 166.886429 
L 211.564959 164.531955 
L 214.844298 162.205274 
L 218.123636 159.905896 
L 221.402975 157.633344 
L 224.682314 155.387151 
L 227.961653 153.166861 
L 231.240992 150.972029 
L 234.520331 148.802219 
L 237.799669 146.657005 
L 241.079008 144.535973 
L 244.358347 142.438715 
L 247.637686 140.364833 
L 250.917025 138.31394 
L 254.196364 136.285654 
L 257.475702 134.279605 
L 260.755041 132.295428 
L 264.03438 130.332768 
L 267.313719 128.391277 
L 270.593058 126.470613 
L 273.872397 124.570445 
L 277.151736 122.690444 
L 280.431074 120.830293 
L 283.710413 118.989678 
L 286.989752 117.168293 
L 290.269091 115.365838 
L 293.54843 113.58202 
L 296.827769 111.816551 
L 300.107107 110.069149 
L 303.386446 108.339539 
L 306.665785 106.62745 
L 309.945124 104.932617 
L 313.224463 103.254782 
L 316.503802 101.593688 
L 319.78314 99.949087 
L 323.062479 98.320735 
L 326.341818 96.708392 
L 329.621157 95.111822 
L 332.900496 93.530797 
L 336.179835 91.965089 
L 339.459174 90.414477 
L 342.738512 88.878744 
L 346.017851 87.357677 
L 349.29719 85.851066 
L 352.576529 84.358708 
L 355.855868 82.880399 
L 359.135207 81.415943 
L 362.414545 79.965146 
L 365.693884 78.527818 
L 368.973223 77.103773 
L 372.252562 75.692826 
L 375.531901 74.294797 
L 378.81124 72.909512 
L 382.090579 71.536795 
L 385.369917 70.176476 
L 388.649256 68.82839 
L 391.928595 67.49237 
L 395.207934 66.168256 
L 398.487273 64.855889 
" style="fill:none;stroke:#2ca02c;stroke-linecap:square;stroke-width:1.5;"/>
   </g>
   <g id="line2d_37">
    <path clip-path="url(#p0140a983a5)" d="M 73.832727 295.488 
L 77.112066 292.179732 
L 80.391405 288.912545 
L 83.670744 285.685679 
L 86.950083 282.498392 
L 90.229421 279.34996 
L 93.50876 276.239677 
L 96.788099 273.166854 
L 100.067438 270.130817 
L 103.346777 267.130912 
L 106.626116 264.166495 
L 109.905455 261.236942 
L 113.184793 258.34164 
L 116.464132 255.479993 
L 119.743471 252.651417 
L 123.02281 249.855342 
L 126.302149 247.091211 
L 129.581488 244.358481 
L 132.860826 241.656618 
L 136.140165 238.985103 
L 139.419504 236.343427 
L 142.698843 233.731093 
L 145.978182 231.147616 
L 149.257521 228.592519 
L 152.53686 226.065337 
L 155.816198 223.565616 
L 159.095537 221.09291 
L 162.374876 218.646783 
L 165.654215 216.22681 
L 168.933554 213.832574 
L 172.212893 211.463665 
L 175.492231 209.119684 
L 178.77157 206.800239 
L 182.050909 204.504948 
L 185.330248 202.233435 
L 188.609587 199.985333 
L 191.888926 197.76028 
L 195.168264 195.557926 
L 198.447603 193.377923 
L 201.726942 191.219935 
L 205.006281 189.083627 
L 208.28562 186.968677 
L 211.564959 184.874765 
L 214.844298 182.801578 
L 218.123636 180.748811 
L 221.402975 178.716162 
L 224.682314 176.703339 
L 227.961653 174.710052 
L 231.240992 172.736019 
L 234.520331 170.780961 
L 237.799669 168.844606 
L 241.079008 166.926688 
L 244.358347 165.026943 
L 247.637686 163.145116 
L 250.917025 161.280953 
L 254.196364 159.434208 
L 257.475702 157.604637 
L 260.755041 155.792002 
L 264.03438 153.996068 
L 267.313719 152.216606 
L 270.593058 150.453391 
L 273.872397 148.706201 
L 277.151736 146.974817 
L 280.431074 145.259028 
L 283.710413 143.558623 
L 286.989752 141.873396 
L 290.269091 140.203145 
L 293.54843 138.54767 
L 296.827769 136.906778 
L 300.107107 135.280276 
L 303.386446 133.667975 
L 306.665785 132.06969 
L 309.945124 130.48524 
L 313.224463 128.914446 
L 316.503802 127.357131 
L 319.78314 125.813123 
L 323.062479 124.282252 
L 326.341818 122.764352 
L 329.621157 121.259257 
L 332.900496 119.766807 
L 336.179835 118.286844 
L 339.459174 116.81921 
L 342.738512 115.363752 
L 346.017851 113.920321 
L 349.29719 112.488766 
L 352.576529 111.068942 
L 355.855868 109.660707 
L 359.135207 108.263917 
L 362.414545 106.878435 
L 365.693884 105.504123 
L 368.973223 104.140847 
L 372.252562 102.788475 
L 375.531901 101.446876 
L 378.81124 100.115922 
L 382.090579 98.795487 
L 385.369917 97.485447 
L 388.649256 96.185679 
L 391.928595 94.896063 
L 395.207934 93.616481 
L 398.487273 92.346816 
" style="fill:none;stroke:#d62728;stroke-linecap:square;stroke-width:1.5;"/>
   </g>
   <g id="patch_3">
    <path d="M 57.6 307.584 
L 57.6 41.472 
" style="fill:none;stroke:#000000;stroke-linecap:square;stroke-linejoin:miter;stroke-width:0.8;"/>
   </g>
   <g id="patch_4">
    <path d="M 414.72 307.584 
L 414.72 41.472 
" style="fill:none;stroke:#000000;stroke-linecap:square;stroke-linejoin:miter;stroke-width:0.8;"/>
   </g>
   <g id="patch_5">
    <path d="M 57.6 307.584 
L 414.72 307.584 
" style="fill:none;stroke:#000000;stroke-linecap:square;stroke-linejoin:miter;stroke-width:0.8;"/>
   </g>
   <g id="patch_6">
    <path d="M 57.6 41.472 
L 414.72 41.472 
" style="fill:none;stroke:#000000;stroke-linecap:square;stroke-linejoin:miter;stroke-width:0.8;"/>
   </g>
  </g>
 </g>
 <defs>
  <clipPath id="p0140a983a5">
   <rect height="266.112" width="357.12" x="57.6" y="41.472"/>
  </clipPath>
 </defs>
</svg>
